ISO-10303-21;
HEADER;
FILE_DESCRIPTION(('CATIA V5 STEP Exchange','CAx-IF Rec.Pracs.--- Model Styling and Organization---1.5--- 2016-08-15','CAx-IF Rec.Pracs.---Supplemental Geometry---1.0---2011-11-01','CAx-IF Rec.Pracs.--- Composite Materials ---3.4---2017-06-13','CAx-IF Rec.Pracs.---Tessellated 3D Geometry---1.0---2015-12-17'),'2;1');

FILE_NAME('C:\\Users\\PH\\Desktop\\\X2\5DE5521B72696D418D446599\X0\\\1\X2\7ED367846A21578B53CA\X0\PCB\\\X2\7ED367846A21578B\X0\\\\X2\6253537090E84EF6\X0\\\2mm\X2\52FE722A\X0\.stp','2026-07-19T07:49:21+00:00',('none'),('none'),'CATIA Version 5-6 Release 2021 SP7','CATIA V5 STEP AP242 v2','none');

FILE_SCHEMA(('AP242_MANAGED_MODEL_BASED_3D_ENGINEERING_MIM_LF  {1 0 10303 442 1 1 4}'));

ENDSEC;
DATA;
#5=PRODUCT('Product4','','',(#2)) ;
#26=PRODUCT('\X2\56DB722A5939722A\X0\ 4mm','\X2\56DB722A5939722A\X0\ 4mm','',(#2)) ;
#2=PRODUCT_CONTEXT(' ',#1,'mechanical') ;
#1=APPLICATION_CONTEXT('managed model based 3d engineering') ;
#13=PRODUCT_DEFINITION('',' ',#6,#3) ;
#28=PRODUCT_DEFINITION('\X2\93C8\X0\',' ',#27,#3) ;
#3=PRODUCT_DEFINITION_CONTEXT('part definition',#1,' ') ;
#16=PRODUCT_DEFINITION_SHAPE(' ',' ',#13) ;
#29=PRODUCT_DEFINITION_SHAPE(' ',' ',#28) ;
#840=PRODUCT_DEFINITION_SHAPE(' ',' ',#839) ;
#852=MECHANICAL_DESIGN_GEOMETRIC_PRESENTATION_REPRESENTATION(' ',(#38),#21) ;
#7=PRODUCT_CATEGORY('part','specification') ;
#10=PRODUCT_CATEGORY('part','specification') ;
#15=SHAPE_REPRESENTATION(' ',(#844),#21) ;
#24=SHAPE_REPRESENTATION(' ',(#845),#23) ;
#40=CARTESIAN_POINT('Axis2P3D Location',(18.164071404,2.,-25.7645764673)) ;
#45=CARTESIAN_POINT('Axis2P3D Location',(17.2645764673,2.,-25.7645764673)) ;
#49=CARTESIAN_POINT('Vertex',(17.2645764673,0.925,-25.7645764673)) ;
#51=CARTESIAN_POINT('Vertex',(17.2645764673,3.075,-25.7645764673)) ;
#54=CARTESIAN_POINT('Line Origine',(18.164071404,0.925,-25.7645764673)) ;
#58=CARTESIAN_POINT('Vertex',(20.164071404,0.925,-25.7645764673)) ;
#61=CARTESIAN_POINT('Axis2P3D Location',(20.164071404,2.,-25.7645764673)) ;
#65=CARTESIAN_POINT('Vertex',(20.164071404,3.075,-25.7645764673)) ;
#68=CARTESIAN_POINT('Line Origine',(18.164071404,3.075,-25.7645764673)) ;
#80=CARTESIAN_POINT('Axis2P3D Location',(17.2645764673,2.,-25.7645764673)) ;
#85=CARTESIAN_POINT('Axis2P3D Location',(20.164071404,2.,-25.7645764673)) ;
#97=CARTESIAN_POINT('Axis2P3D Location',(18.164071404,2.,-21.7645764673)) ;
#102=CARTESIAN_POINT('Axis2P3D Location',(17.2645764673,2.,-21.7645764673)) ;
#106=CARTESIAN_POINT('Vertex',(17.2645764673,0.925,-21.7645764673)) ;
#108=CARTESIAN_POINT('Vertex',(17.2645764673,3.075,-21.7645764673)) ;
#111=CARTESIAN_POINT('Line Origine',(18.164071404,0.925,-21.7645764673)) ;
#115=CARTESIAN_POINT('Vertex',(20.164071404,0.925,-21.7645764673)) ;
#118=CARTESIAN_POINT('Axis2P3D Location',(20.164071404,2.,-21.7645764673)) ;
#122=CARTESIAN_POINT('Vertex',(20.164071404,3.075,-21.7645764673)) ;
#125=CARTESIAN_POINT('Line Origine',(18.164071404,3.075,-21.7645764673)) ;
#137=CARTESIAN_POINT('Axis2P3D Location',(17.2645764673,2.,-21.7645764673)) ;
#142=CARTESIAN_POINT('Axis2P3D Location',(20.164071404,2.,-21.7645764673)) ;
#154=CARTESIAN_POINT('Axis2P3D Location',(17.2645764673,4.,-29.7645764673)) ;
#159=CARTESIAN_POINT('Line Origine',(17.2645764673,2.,-17.066808295)) ;
#163=CARTESIAN_POINT('Vertex',(17.2645764673,4.,-17.066808295)) ;
#165=CARTESIAN_POINT('Vertex',(17.2645764673,0.,-17.066808295)) ;
#168=CARTESIAN_POINT('Line Origine',(17.2645764673,4.,-23.4156923811)) ;
#172=CARTESIAN_POINT('Vertex',(17.2645764673,4.,-29.7645764673)) ;
#175=CARTESIAN_POINT('Line Origine',(17.2645764673,2.,-29.7645764673)) ;
#179=CARTESIAN_POINT('Vertex',(17.2645764673,0.,-29.7645764673)) ;
#182=CARTESIAN_POINT('Line Origine',(17.2645764673,0.,-23.4156923811)) ;
#202=CARTESIAN_POINT('Axis2P3D Location',(20.164071404,4.,-29.7645764673)) ;
#207=CARTESIAN_POINT('Line Origine',(20.164071404,2.,-17.066808295)) ;
#211=CARTESIAN_POINT('Vertex',(20.164071404,4.,-17.066808295)) ;
#213=CARTESIAN_POINT('Vertex',(20.164071404,0.,-17.066808295)) ;
#216=CARTESIAN_POINT('Line Origine',(20.164071404,0.,-23.4156923811)) ;
#220=CARTESIAN_POINT('Vertex',(20.164071404,0.,-29.7645764673)) ;
#223=CARTESIAN_POINT('Line Origine',(20.164071404,2.,-29.7645764673)) ;
#227=CARTESIAN_POINT('Vertex',(20.164071404,4.,-29.7645764673)) ;
#230=CARTESIAN_POINT('Line Origine',(20.164071404,4.,-23.4156923811)) ;
#250=CARTESIAN_POINT('Axis2P3D Location',(25.,4.,-40.)) ;
#255=CARTESIAN_POINT('Line Origine',(29.4142135624,2.,-44.4142135624)) ;
#259=CARTESIAN_POINT('Vertex',(29.4142135624,4.,-44.4142135624)) ;
#261=CARTESIAN_POINT('Vertex',(29.4142135624,0.,-44.4142135624)) ;
#264=CARTESIAN_POINT('Line Origine',(22.0893950148,0.,-37.0893950148)) ;
#268=CARTESIAN_POINT('Vertex',(14.7645764673,0.,-29.7645764673)) ;
#271=CARTESIAN_POINT('Line Origine',(14.7645764673,2.,-29.7645764673)) ;
#275=CARTESIAN_POINT('Vertex',(14.7645764673,4.,-29.7645764673)) ;
#278=CARTESIAN_POINT('Line Origine',(22.0893950148,4.,-37.0893950148)) ;
#290=CARTESIAN_POINT('Axis2P3D Location',(30.5634545248,4.,-37.6639595882)) ;
#295=CARTESIAN_POINT('Line Origine',(34.0644096863,0.,-41.1649147497)) ;
#299=CARTESIAN_POINT('Vertex',(32.7146058098,0.,-39.8151108731)) ;
#301=CARTESIAN_POINT('Vertex',(35.4142135624,0.,-42.5147186257)) ;
#304=CARTESIAN_POINT('Line Origine',(35.4142135629,2.,-42.5147186263)) ;
#308=CARTESIAN_POINT('Vertex',(35.4142135624,4.,-42.5147186258)) ;
#311=CARTESIAN_POINT('Line Origine',(34.0644096863,4.,-41.1649147497)) ;
#315=CARTESIAN_POINT('Vertex',(32.7146058098,4.,-39.8151108731)) ;
#318=CARTESIAN_POINT('Line Origine',(32.7146058097,2.,-39.8151108731)) ;
#330=CARTESIAN_POINT('Axis2P3D Location',(0.,0.,0.)) ;
#335=CARTESIAN_POINT('Line Origine',(18.7143239356,0.,-17.066808295)) ;
#340=CARTESIAN_POINT('Line Origine',(16.0145764673,0.,-29.7645764673)) ;
#346=CARTESIAN_POINT('Control Point',(29.4142135624,0.,-44.4142135624)) ;
#347=CARTESIAN_POINT('Control Point',(29.5474988352,0.,-44.5474988352)) ;
#348=CARTESIAN_POINT('Control Point',(29.6650816723,0.,-44.6964859885)) ;
#349=CARTESIAN_POINT('Control Point',(29.7644979562,0.,-44.8587182672)) ;
#350=CARTESIAN_POINT('Control Point',(29.8967771356,0.,-45.1460633912)) ;
#351=CARTESIAN_POINT('Control Point',(29.9703907599,0.,-45.4524689629)) ;
#352=CARTESIAN_POINT('Control Point',(29.9901304323,0.,-45.5771000057)) ;
#353=CARTESIAN_POINT('Control Point',(30.,0.,-45.7027636525)) ;
#354=CARTESIAN_POINT('Control Point',(30.,0.,-45.8284271248)) ;
#355=CARTESIAN_POINT('Vertex',(30.,0.,-45.8284271247)) ;
#358=CARTESIAN_POINT('Line Origine',(30.,0.,-54.4142135624)) ;
#362=CARTESIAN_POINT('Vertex',(30.,0.,-63.)) ;
#365=CARTESIAN_POINT('Axis2P3D Location',(32.,0.,-63.)) ;
#369=CARTESIAN_POINT('Vertex',(32.,0.,-65.)) ;
#372=CARTESIAN_POINT('Line Origine',(33.,0.,-65.)) ;
#376=CARTESIAN_POINT('Vertex',(34.,0.,-65.)) ;
#379=CARTESIAN_POINT('Axis2P3D Location',(34.,0.,-63.)) ;
#383=CARTESIAN_POINT('Vertex',(36.,0.,-63.)) ;
#386=CARTESIAN_POINT('Line Origine',(36.,0.,-53.464466094)) ;
#390=CARTESIAN_POINT('Vertex',(36.,0.,-43.9289321881)) ;
#393=CARTESIAN_POINT('Axis2P3D Location',(33.9999999944,0.,-43.9289321904)) ;
#398=CARTESIAN_POINT('Line Origine',(27.6893386069,0.,-34.7898436702)) ;
#402=CARTESIAN_POINT('Vertex',(22.664071404,0.,-29.7645764673)) ;
#405=CARTESIAN_POINT('Line Origine',(21.414071404,0.,-29.7645764673)) ;
#427=CARTESIAN_POINT('Axis2P3D Location',(33.,0.,-52.)) ;
#431=CARTESIAN_POINT('Vertex',(31.9,0.,-52.)) ;
#433=CARTESIAN_POINT('Vertex',(34.1,0.,-52.)) ;
#436=CARTESIAN_POINT('Axis2P3D Location',(33.,0.,-52.)) ;
#445=CARTESIAN_POINT('Axis2P3D Location',(33.,0.,-60.)) ;
#449=CARTESIAN_POINT('Vertex',(34.1,0.,-60.)) ;
#451=CARTESIAN_POINT('Vertex',(31.9,0.,-60.)) ;
#454=CARTESIAN_POINT('Axis2P3D Location',(33.,0.,-60.)) ;
#464=CARTESIAN_POINT('Axis2P3D Location',(0.,4.,0.)) ;
#469=CARTESIAN_POINT('Line Origine',(21.414071404,4.,-29.7645764673)) ;
#473=CARTESIAN_POINT('Vertex',(22.664071404,4.,-29.7645764673)) ;
#476=CARTESIAN_POINT('Line Origine',(27.6893386069,4.,-34.7898436702)) ;
#482=CARTESIAN_POINT('Control Point',(35.4142135624,4.,-42.5147186257)) ;
#483=CARTESIAN_POINT('Control Point',(35.5474988351,4.,-42.6480038984)) ;
#484=CARTESIAN_POINT('Control Point',(35.6650816721,4.,-42.7969910515)) ;
#485=CARTESIAN_POINT('Control Point',(35.7644979563,4.,-42.9592233308)) ;
#486=CARTESIAN_POINT('Control Point',(35.8967771356,4.,-43.2465684546)) ;
#487=CARTESIAN_POINT('Control Point',(35.9703907599,4.,-43.5529740261)) ;
#488=CARTESIAN_POINT('Control Point',(35.9901304323,4.,-43.6776050692)) ;
#489=CARTESIAN_POINT('Control Point',(36.,4.,-43.8032687159)) ;
#490=CARTESIAN_POINT('Control Point',(36.,4.,-43.9289321881)) ;
#491=CARTESIAN_POINT('Vertex',(36.,4.,-43.9289321881)) ;
#494=CARTESIAN_POINT('Line Origine',(36.,4.,-53.464466094)) ;
#498=CARTESIAN_POINT('Vertex',(36.,4.,-63.)) ;
#502=CARTESIAN_POINT('Control Point',(36.,4.,-63.)) ;
#503=CARTESIAN_POINT('Control Point',(36.,4.,-63.207843348)) ;
#504=CARTESIAN_POINT('Control Point',(35.9730007142,4.,-63.4156862188)) ;
#505=CARTESIAN_POINT('Control Point',(35.9189928161,4.,-63.6188652626)) ;
#506=CARTESIAN_POINT('Control Point',(35.7594560081,4.,-64.0064992089)) ;
#507=CARTESIAN_POINT('Control Point',(35.5061775156,4.,-64.3405059265)) ;
#508=CARTESIAN_POINT('Control Point',(35.3584103241,4.,-64.4900500112)) ;
#509=CARTESIAN_POINT('Control Point',(35.0274525717,4.,-64.7473028691)) ;
#510=CARTESIAN_POINT('Control Point',(34.6417544697,4.,-64.9114596647)) ;
#511=CARTESIAN_POINT('Control Point',(34.4392354657,4.,-64.9678922356)) ;
#512=CARTESIAN_POINT('Control Point',(34.2269566603,4.,-64.9980514342)) ;
#513=CARTESIAN_POINT('Control Point',(34.0143406924,4.,-64.9999571552)) ;
#514=CARTESIAN_POINT('Control Point',(34.0095604519,4.,-64.9999857184)) ;
#515=CARTESIAN_POINT('Control Point',(34.0047802258,4.,-65.)) ;
#516=CARTESIAN_POINT('Control Point',(34.,4.,-65.)) ;
#517=CARTESIAN_POINT('Vertex',(34.,4.,-65.)) ;
#520=CARTESIAN_POINT('Line Origine',(33.,4.,-65.)) ;
#524=CARTESIAN_POINT('Vertex',(32.,4.,-65.)) ;
#528=CARTESIAN_POINT('Control Point',(32.,4.,-65.)) ;
#529=CARTESIAN_POINT('Control Point',(31.792156652,4.,-65.)) ;
#530=CARTESIAN_POINT('Control Point',(31.5843137813,4.,-64.9730007142)) ;
#531=CARTESIAN_POINT('Control Point',(31.3811347373,4.,-64.9189928161)) ;
#532=CARTESIAN_POINT('Control Point',(30.9935007911,4.,-64.7594560081)) ;
#533=CARTESIAN_POINT('Control Point',(30.6594940735,4.,-64.5061775156)) ;
#534=CARTESIAN_POINT('Control Point',(30.5099499888,4.,-64.3584103241)) ;
#535=CARTESIAN_POINT('Control Point',(30.2526971309,4.,-64.0274525718)) ;
#536=CARTESIAN_POINT('Control Point',(30.0885403353,4.,-63.6417544697)) ;
#537=CARTESIAN_POINT('Control Point',(30.0321077644,4.,-63.4392354657)) ;
#538=CARTESIAN_POINT('Control Point',(30.0019485658,4.,-63.2269566603)) ;
#539=CARTESIAN_POINT('Control Point',(30.0000428448,4.,-63.0143406924)) ;
#540=CARTESIAN_POINT('Control Point',(30.0000142816,4.,-63.0095604519)) ;
#541=CARTESIAN_POINT('Control Point',(30.,4.,-63.0047802258)) ;
#542=CARTESIAN_POINT('Control Point',(30.,4.,-63.)) ;
#543=CARTESIAN_POINT('Vertex',(30.,4.,-63.)) ;
#546=CARTESIAN_POINT('Line Origine',(30.,4.,-54.4142135624)) ;
#550=CARTESIAN_POINT('Vertex',(30.,4.,-45.8284271248)) ;
#553=CARTESIAN_POINT('Axis2P3D Location',(27.9999999944,4.,-45.8284271271)) ;
#558=CARTESIAN_POINT('Line Origine',(16.0145764673,4.,-29.7645764673)) ;
#563=CARTESIAN_POINT('Line Origine',(18.7143239356,4.,-17.066808295)) ;
#585=CARTESIAN_POINT('Axis2P3D Location',(33.,4.,-52.)) ;
#589=CARTESIAN_POINT('Vertex',(34.1,4.,-52.)) ;
#591=CARTESIAN_POINT('Vertex',(31.9,4.,-52.)) ;
#594=CARTESIAN_POINT('Axis2P3D Location',(33.,4.,-52.)) ;
#603=CARTESIAN_POINT('Axis2P3D Location',(33.,4.,-60.)) ;
#607=CARTESIAN_POINT('Vertex',(31.9,4.,-60.)) ;
#609=CARTESIAN_POINT('Vertex',(34.1,4.,-60.)) ;
#612=CARTESIAN_POINT('Axis2P3D Location',(33.,4.,-60.)) ;
#622=CARTESIAN_POINT('Axis2P3D Location',(33.,2.,-52.)) ;
#627=CARTESIAN_POINT('Line Origine',(31.9,2.,-52.)) ;
#632=CARTESIAN_POINT('Line Origine',(34.1,2.,-52.)) ;
#651=CARTESIAN_POINT('Axis2P3D Location',(34.,4.,-43.9289321881)) ;
#656=CARTESIAN_POINT('Line Origine',(36.,4.,-43.9289321881)) ;
#668=CARTESIAN_POINT('Axis2P3D Location',(36.,4.,-65.)) ;
#673=CARTESIAN_POINT('Line Origine',(36.,2.,-63.)) ;
#685=CARTESIAN_POINT('Axis2P3D Location',(34.,4.,-63.)) ;
#690=CARTESIAN_POINT('Line Origine',(34.,4.,-65.)) ;
#702=CARTESIAN_POINT('Axis2P3D Location',(30.,4.,-65.)) ;
#707=CARTESIAN_POINT('Line Origine',(32.,2.,-65.)) ;
#719=CARTESIAN_POINT('Axis2P3D Location',(32.,4.,-63.)) ;
#724=CARTESIAN_POINT('Line Origine',(30.,4.,-63.)) ;
#736=CARTESIAN_POINT('Axis2P3D Location',(30.,4.,-45.)) ;
#741=CARTESIAN_POINT('Line Origine',(30.,2.,-45.8284271248)) ;
#753=CARTESIAN_POINT('Axis2P3D Location',(28.,4.,-45.8284271247)) ;
#765=CARTESIAN_POINT('Axis2P3D Location',(33.,2.,-60.)) ;
#770=CARTESIAN_POINT('Line Origine',(31.9,2.,-60.)) ;
#775=CARTESIAN_POINT('Line Origine',(34.1,2.,-60.)) ;
#794=CARTESIAN_POINT('Axis2P3D Location',(20.164071404,4.,-17.066808295)) ;
#806=CARTESIAN_POINT('Line Origine',(22.6640714039,2.,-29.7645764673)) ;
#818=CARTESIAN_POINT('Axis2P3D Location',(14.7645764673,4.,-29.7645764673)) ;
#846=CARTESIAN_POINT('NONE',(0.,0.,0.)) ;
#847=CARTESIAN_POINT('NONE',(-34.4294563862,-5.29894462882,206.772755477)) ;
#8=PRODUCT_RELATED_PRODUCT_CATEGORY('part',$,(#26)) ;
#11=PRODUCT_RELATED_PRODUCT_CATEGORY('part',$,(#5)) ;
#20=UNCERTAINTY_MEASURE_WITH_UNIT(LENGTH_MEASURE(0.005),#17,'distance_accuracy_value','CONFUSED CURVE UNCERTAINTY') ;
#22=UNCERTAINTY_MEASURE_WITH_UNIT(LENGTH_MEASURE(0.005),#17,'distance_accuracy_value','CONFUSED CURVE UNCERTAINTY') ;
#843=ITEM_DEFINED_TRANSFORMATION(' ',' ',#845,#844) ;
#38=STYLED_ITEM(' ',(#37),#30) ;
#37=PRESENTATION_STYLE_ASSIGNMENT((#36)) ;
#36=SURFACE_STYLE_USAGE(.BOTH.,#35) ;
#35=SURFACE_SIDE_STYLE(' ',(#34)) ;
#34=SURFACE_STYLE_FILL_AREA(#33) ;
#33=FILL_AREA_STYLE(' ',(#32)) ;
#32=FILL_AREA_STYLE_COLOUR(' ',#31) ;
#56=VECTOR('Line Direction',#55,1.) ;
#70=VECTOR('Line Direction',#69,1.) ;
#113=VECTOR('Line Direction',#112,1.) ;
#127=VECTOR('Line Direction',#126,1.) ;
#161=VECTOR('Line Direction',#160,1.) ;
#170=VECTOR('Line Direction',#169,1.) ;
#177=VECTOR('Line Direction',#176,1.) ;
#184=VECTOR('Line Direction',#183,1.) ;
#209=VECTOR('Line Direction',#208,1.) ;
#218=VECTOR('Line Direction',#217,1.) ;
#225=VECTOR('Line Direction',#224,1.) ;
#232=VECTOR('Line Direction',#231,1.) ;
#257=VECTOR('Line Direction',#256,1.) ;
#266=VECTOR('Line Direction',#265,1.) ;
#273=VECTOR('Line Direction',#272,1.) ;
#280=VECTOR('Line Direction',#279,1.) ;
#297=VECTOR('Line Direction',#296,1.) ;
#306=VECTOR('Line Direction',#305,1.) ;
#313=VECTOR('Line Direction',#312,1.) ;
#320=VECTOR('Line Direction',#319,1.) ;
#337=VECTOR('Line Direction',#336,1.) ;
#342=VECTOR('Line Direction',#341,1.) ;
#360=VECTOR('Line Direction',#359,1.) ;
#374=VECTOR('Line Direction',#373,1.) ;
#388=VECTOR('Line Direction',#387,1.) ;
#400=VECTOR('Line Direction',#399,1.) ;
#407=VECTOR('Line Direction',#406,1.) ;
#471=VECTOR('Line Direction',#470,1.) ;
#478=VECTOR('Line Direction',#477,1.) ;
#496=VECTOR('Line Direction',#495,1.) ;
#522=VECTOR('Line Direction',#521,1.) ;
#548=VECTOR('Line Direction',#547,1.) ;
#560=VECTOR('Line Direction',#559,1.) ;
#565=VECTOR('Line Direction',#564,1.) ;
#629=VECTOR('Line Direction',#628,1.) ;
#634=VECTOR('Line Direction',#633,1.) ;
#658=VECTOR('Line Direction',#657,1.) ;
#675=VECTOR('Line Direction',#674,1.) ;
#692=VECTOR('Line Direction',#691,1.) ;
#709=VECTOR('Line Direction',#708,1.) ;
#726=VECTOR('Line Direction',#725,1.) ;
#743=VECTOR('Line Direction',#742,1.) ;
#772=VECTOR('Line Direction',#771,1.) ;
#777=VECTOR('Line Direction',#776,1.) ;
#808=VECTOR('Line Direction',#807,1.) ;
#41=DIRECTION('Axis2P3D Direction',(1.,0.,-0.)) ;
#42=DIRECTION('Axis2P3D XDirection',(0.,1.,0.)) ;
#46=DIRECTION('Axis2P3D Direction',(1.,0.,-0.)) ;
#55=DIRECTION('Vector Direction',(1.,0.,0.)) ;
#62=DIRECTION('Axis2P3D Direction',(1.,0.,-0.)) ;
#69=DIRECTION('Vector Direction',(1.,0.,0.)) ;
#81=DIRECTION('Axis2P3D Direction',(1.,0.,-0.)) ;
#86=DIRECTION('Axis2P3D Direction',(1.,0.,-0.)) ;
#98=DIRECTION('Axis2P3D Direction',(1.,0.,-0.)) ;
#99=DIRECTION('Axis2P3D XDirection',(0.,1.,0.)) ;
#103=DIRECTION('Axis2P3D Direction',(1.,0.,-0.)) ;
#112=DIRECTION('Vector Direction',(1.,0.,0.)) ;
#119=DIRECTION('Axis2P3D Direction',(1.,0.,-0.)) ;
#126=DIRECTION('Vector Direction',(1.,0.,0.)) ;
#138=DIRECTION('Axis2P3D Direction',(1.,0.,-0.)) ;
#143=DIRECTION('Axis2P3D Direction',(1.,0.,-0.)) ;
#155=DIRECTION('Axis2P3D Direction',(1.,0.,-0.)) ;
#156=DIRECTION('Axis2P3D XDirection',(0.,0.,1.)) ;
#160=DIRECTION('Vector Direction',(0.,-1.,0.)) ;
#169=DIRECTION('Vector Direction',(0.,0.,1.)) ;
#176=DIRECTION('Vector Direction',(0.,-1.,0.)) ;
#183=DIRECTION('Vector Direction',(0.,0.,1.)) ;
#203=DIRECTION('Axis2P3D Direction',(1.,0.,-0.)) ;
#204=DIRECTION('Axis2P3D XDirection',(0.,0.,1.)) ;
#208=DIRECTION('Vector Direction',(0.,-1.,0.)) ;
#217=DIRECTION('Vector Direction',(0.,0.,1.)) ;
#224=DIRECTION('Vector Direction',(0.,-1.,0.)) ;
#231=DIRECTION('Vector Direction',(0.,0.,1.)) ;
#251=DIRECTION('Axis2P3D Direction',(0.707106781187,-0.,0.707106781187)) ;
#252=DIRECTION('Axis2P3D XDirection',(0.707106781187,0.,-0.707106781187)) ;
#256=DIRECTION('Vector Direction',(0.,-1.,0.)) ;
#265=DIRECTION('Vector Direction',(-0.707106781187,0.,0.707106781187)) ;
#272=DIRECTION('Vector Direction',(0.,-1.,0.)) ;
#279=DIRECTION('Vector Direction',(-0.707106781187,0.,0.707106781187)) ;
#291=DIRECTION('Axis2P3D Direction',(-0.707106781187,0.,-0.707106781187)) ;
#292=DIRECTION('Axis2P3D XDirection',(-0.707106781187,0.,0.707106781187)) ;
#296=DIRECTION('Vector Direction',(0.707106781187,0.,-0.707106781187)) ;
#305=DIRECTION('Vector Direction',(0.,1.,0.)) ;
#312=DIRECTION('Vector Direction',(0.707106781187,0.,-0.707106781187)) ;
#319=DIRECTION('Vector Direction',(0.,-1.,0.)) ;
#331=DIRECTION('Axis2P3D Direction',(0.,-1.,0.)) ;
#332=DIRECTION('Axis2P3D XDirection',(0.,0.,-1.)) ;
#336=DIRECTION('Vector Direction',(-1.,0.,0.)) ;
#341=DIRECTION('Vector Direction',(1.,0.,0.)) ;
#359=DIRECTION('Vector Direction',(0.,0.,1.)) ;
#366=DIRECTION('Axis2P3D Direction',(0.,-1.,0.)) ;
#373=DIRECTION('Vector Direction',(-1.,0.,0.)) ;
#380=DIRECTION('Axis2P3D Direction',(0.,-1.,0.)) ;
#387=DIRECTION('Vector Direction',(0.,0.,-1.)) ;
#394=DIRECTION('Axis2P3D Direction',(0.,-1.,0.)) ;
#399=DIRECTION('Vector Direction',(0.707106781187,0.,-0.707106781187)) ;
#406=DIRECTION('Vector Direction',(-1.,0.,0.)) ;
#428=DIRECTION('Axis2P3D Direction',(0.,-1.,0.)) ;
#437=DIRECTION('Axis2P3D Direction',(0.,-1.,0.)) ;
#446=DIRECTION('Axis2P3D Direction',(0.,-1.,0.)) ;
#455=DIRECTION('Axis2P3D Direction',(0.,-1.,0.)) ;
#465=DIRECTION('Axis2P3D Direction',(0.,-1.,0.)) ;
#466=DIRECTION('Axis2P3D XDirection',(0.,0.,-1.)) ;
#470=DIRECTION('Vector Direction',(-1.,0.,0.)) ;
#477=DIRECTION('Vector Direction',(0.707106781187,0.,-0.707106781187)) ;
#495=DIRECTION('Vector Direction',(0.,0.,-1.)) ;
#521=DIRECTION('Vector Direction',(-1.,0.,0.)) ;
#547=DIRECTION('Vector Direction',(0.,0.,1.)) ;
#554=DIRECTION('Axis2P3D Direction',(0.,-1.,0.)) ;
#559=DIRECTION('Vector Direction',(1.,0.,0.)) ;
#564=DIRECTION('Vector Direction',(-1.,0.,0.)) ;
#586=DIRECTION('Axis2P3D Direction',(0.,-1.,0.)) ;
#595=DIRECTION('Axis2P3D Direction',(0.,-1.,0.)) ;
#604=DIRECTION('Axis2P3D Direction',(0.,-1.,0.)) ;
#613=DIRECTION('Axis2P3D Direction',(0.,-1.,0.)) ;
#623=DIRECTION('Axis2P3D Direction',(0.,-1.,0.)) ;
#624=DIRECTION('Axis2P3D XDirection',(1.,0.,0.)) ;
#628=DIRECTION('Vector Direction',(0.,-1.,0.)) ;
#633=DIRECTION('Vector Direction',(0.,-1.,0.)) ;
#652=DIRECTION('Axis2P3D Direction',(0.,-1.,0.)) ;
#653=DIRECTION('Axis2P3D XDirection',(0.,0.,-1.)) ;
#657=DIRECTION('Vector Direction',(0.,-1.,0.)) ;
#669=DIRECTION('Axis2P3D Direction',(-1.,0.,-7.60444266755E-15)) ;
#670=DIRECTION('Axis2P3D XDirection',(-7.60444266755E-15,0.,1.)) ;
#674=DIRECTION('Vector Direction',(0.,1.,0.)) ;
#686=DIRECTION('Axis2P3D Direction',(0.,-1.,0.)) ;
#687=DIRECTION('Axis2P3D XDirection',(0.,0.,-1.)) ;
#691=DIRECTION('Vector Direction',(0.,-1.,0.)) ;
#703=DIRECTION('Axis2P3D Direction',(-9.25185853854E-15,0.,1.)) ;
#704=DIRECTION('Axis2P3D XDirection',(1.,0.,9.25185853854E-15)) ;
#708=DIRECTION('Vector Direction',(0.,1.,0.)) ;
#720=DIRECTION('Axis2P3D Direction',(0.,-1.,0.)) ;
#721=DIRECTION('Axis2P3D XDirection',(1.22464679915E-16,0.,1.)) ;
#725=DIRECTION('Vector Direction',(0.,-1.,0.)) ;
#737=DIRECTION('Axis2P3D Direction',(1.,-0.,6.59194920871E-15)) ;
#738=DIRECTION('Axis2P3D XDirection',(6.59194920871E-15,0.,-1.)) ;
#742=DIRECTION('Vector Direction',(0.,1.,0.)) ;
#754=DIRECTION('Axis2P3D Direction',(0.,1.,0.)) ;
#755=DIRECTION('Axis2P3D XDirection',(0.,0.,1.)) ;
#766=DIRECTION('Axis2P3D Direction',(0.,-1.,0.)) ;
#767=DIRECTION('Axis2P3D XDirection',(1.,0.,0.)) ;
#771=DIRECTION('Vector Direction',(0.,-1.,0.)) ;
#776=DIRECTION('Vector Direction',(0.,-1.,0.)) ;
#795=DIRECTION('Axis2P3D Direction',(0.,0.,1.)) ;
#796=DIRECTION('Axis2P3D XDirection',(-1.,0.,0.)) ;
#807=DIRECTION('Vector Direction',(0.,-1.,0.)) ;
#819=DIRECTION('Axis2P3D Direction',(0.,0.,-1.)) ;
#820=DIRECTION('Axis2P3D XDirection',(1.,0.,0.)) ;
#848=DIRECTION('NONE',(1.,0.,0.)) ;
#849=DIRECTION('NONE',(0.,0.,1.)) ;
#850=DIRECTION('NONE',(-0.749309213399,-0.662220282622,5.9678839397E-15)) ;
#851=DIRECTION('NONE',(-4.29717752179E-15,-4.14963012025E-15,-1.)) ;
#841=CONTEXT_DEPENDENT_SHAPE_REPRESENTATION(#842,#840) ;
#838=SHAPE_REPRESENTATION_RELATIONSHIP(' ',' ',#24,#837) ;
#43=AXIS2_PLACEMENT_3D('Cylinder Axis2P3D',#40,#41,#42) ;
#47=AXIS2_PLACEMENT_3D('Circle Axis2P3D',#45,#46,$) ;
#63=AXIS2_PLACEMENT_3D('Circle Axis2P3D',#61,#62,$) ;
#82=AXIS2_PLACEMENT_3D('Circle Axis2P3D',#80,#81,$) ;
#87=AXIS2_PLACEMENT_3D('Circle Axis2P3D',#85,#86,$) ;
#100=AXIS2_PLACEMENT_3D('Cylinder Axis2P3D',#97,#98,#99) ;
#104=AXIS2_PLACEMENT_3D('Circle Axis2P3D',#102,#103,$) ;
#120=AXIS2_PLACEMENT_3D('Circle Axis2P3D',#118,#119,$) ;
#139=AXIS2_PLACEMENT_3D('Circle Axis2P3D',#137,#138,$) ;
#144=AXIS2_PLACEMENT_3D('Circle Axis2P3D',#142,#143,$) ;
#157=AXIS2_PLACEMENT_3D('Plane Axis2P3D',#154,#155,#156) ;
#205=AXIS2_PLACEMENT_3D('Plane Axis2P3D',#202,#203,#204) ;
#253=AXIS2_PLACEMENT_3D('Plane Axis2P3D',#250,#251,#252) ;
#293=AXIS2_PLACEMENT_3D('Plane Axis2P3D',#290,#291,#292) ;
#333=AXIS2_PLACEMENT_3D('Plane Axis2P3D',#330,#331,#332) ;
#367=AXIS2_PLACEMENT_3D('Circle Axis2P3D',#365,#366,$) ;
#381=AXIS2_PLACEMENT_3D('Circle Axis2P3D',#379,#380,$) ;
#395=AXIS2_PLACEMENT_3D('Circle Axis2P3D',#393,#394,$) ;
#429=AXIS2_PLACEMENT_3D('Circle Axis2P3D',#427,#428,$) ;
#438=AXIS2_PLACEMENT_3D('Circle Axis2P3D',#436,#437,$) ;
#447=AXIS2_PLACEMENT_3D('Circle Axis2P3D',#445,#446,$) ;
#456=AXIS2_PLACEMENT_3D('Circle Axis2P3D',#454,#455,$) ;
#467=AXIS2_PLACEMENT_3D('Plane Axis2P3D',#464,#465,#466) ;
#555=AXIS2_PLACEMENT_3D('Circle Axis2P3D',#553,#554,$) ;
#587=AXIS2_PLACEMENT_3D('Circle Axis2P3D',#585,#586,$) ;
#596=AXIS2_PLACEMENT_3D('Circle Axis2P3D',#594,#595,$) ;
#605=AXIS2_PLACEMENT_3D('Circle Axis2P3D',#603,#604,$) ;
#614=AXIS2_PLACEMENT_3D('Circle Axis2P3D',#612,#613,$) ;
#625=AXIS2_PLACEMENT_3D('Cylinder Axis2P3D',#622,#623,#624) ;
#654=AXIS2_PLACEMENT_3D('Cylinder Axis2P3D',#651,#652,#653) ;
#671=AXIS2_PLACEMENT_3D('Plane Axis2P3D',#668,#669,#670) ;
#688=AXIS2_PLACEMENT_3D('Cylinder Axis2P3D',#685,#686,#687) ;
#705=AXIS2_PLACEMENT_3D('Plane Axis2P3D',#702,#703,#704) ;
#722=AXIS2_PLACEMENT_3D('Cylinder Axis2P3D',#719,#720,#721) ;
#739=AXIS2_PLACEMENT_3D('Plane Axis2P3D',#736,#737,#738) ;
#756=AXIS2_PLACEMENT_3D('Cylinder Axis2P3D',#753,#754,#755) ;
#768=AXIS2_PLACEMENT_3D('Cylinder Axis2P3D',#765,#766,#767) ;
#797=AXIS2_PLACEMENT_3D('Plane Axis2P3D',#794,#795,#796) ;
#821=AXIS2_PLACEMENT_3D('Plane Axis2P3D',#818,#819,#820) ;
#844=AXIS2_PLACEMENT_3D(' ',#847,#851,#850) ;
#845=AXIS2_PLACEMENT_3D(' ',#846,#849,#848) ;
#57=LINE('Line',#54,#56) ;
#71=LINE('Line',#68,#70) ;
#114=LINE('Line',#111,#113) ;
#128=LINE('Line',#125,#127) ;
#162=LINE('Line',#159,#161) ;
#171=LINE('Line',#168,#170) ;
#178=LINE('Line',#175,#177) ;
#185=LINE('Line',#182,#184) ;
#210=LINE('Line',#207,#209) ;
#219=LINE('Line',#216,#218) ;
#226=LINE('Line',#223,#225) ;
#233=LINE('Line',#230,#232) ;
#258=LINE('Line',#255,#257) ;
#267=LINE('Line',#264,#266) ;
#274=LINE('Line',#271,#273) ;
#281=LINE('Line',#278,#280) ;
#298=LINE('Line',#295,#297) ;
#307=LINE('Line',#304,#306) ;
#314=LINE('Line',#311,#313) ;
#321=LINE('Line',#318,#320) ;
#338=LINE('Line',#335,#337) ;
#343=LINE('Line',#340,#342) ;
#361=LINE('Line',#358,#360) ;
#375=LINE('Line',#372,#374) ;
#389=LINE('Line',#386,#388) ;
#401=LINE('Line',#398,#400) ;
#408=LINE('Line',#405,#407) ;
#472=LINE('Line',#469,#471) ;
#479=LINE('Line',#476,#478) ;
#497=LINE('Line',#494,#496) ;
#523=LINE('Line',#520,#522) ;
#549=LINE('Line',#546,#548) ;
#561=LINE('Line',#558,#560) ;
#566=LINE('Line',#563,#565) ;
#630=LINE('Line',#627,#629) ;
#635=LINE('Line',#632,#634) ;
#659=LINE('Line',#656,#658) ;
#676=LINE('Line',#673,#675) ;
#693=LINE('Line',#690,#692) ;
#710=LINE('Line',#707,#709) ;
#727=LINE('Line',#724,#726) ;
#744=LINE('Line',#741,#743) ;
#773=LINE('Line',#770,#772) ;
#778=LINE('Line',#775,#777) ;
#809=LINE('Line',#806,#808) ;
#48=CIRCLE('generated circle',#47,1.075) ;
#64=CIRCLE('generated circle',#63,1.075) ;
#83=CIRCLE('generated circle',#82,1.075) ;
#88=CIRCLE('generated circle',#87,1.075) ;
#105=CIRCLE('generated circle',#104,1.075) ;
#121=CIRCLE('generated circle',#120,1.075) ;
#140=CIRCLE('generated circle',#139,1.075) ;
#145=CIRCLE('generated circle',#144,1.075) ;
#368=CIRCLE('generated circle',#367,1.99999999996) ;
#382=CIRCLE('generated circle',#381,1.99999999996) ;
#396=CIRCLE('generated circle',#395,2.0000000056) ;
#430=CIRCLE('generated circle',#429,1.1) ;
#439=CIRCLE('generated circle',#438,1.1) ;
#448=CIRCLE('generated circle',#447,1.1) ;
#457=CIRCLE('generated circle',#456,1.1) ;
#556=CIRCLE('generated circle',#555,2.0000000056) ;
#588=CIRCLE('generated circle',#587,1.1) ;
#597=CIRCLE('generated circle',#596,1.1) ;
#606=CIRCLE('generated circle',#605,1.1) ;
#615=CIRCLE('generated circle',#614,1.1) ;
#158=PLANE('',#157) ;
#206=PLANE('',#205) ;
#254=PLANE('',#253) ;
#294=PLANE('',#293) ;
#334=PLANE('',#333) ;
#468=PLANE('',#467) ;
#672=PLANE('',#671) ;
#706=PLANE('',#705) ;
#740=PLANE('',#739) ;
#798=PLANE('',#797) ;
#822=PLANE('',#821) ;
#44=CYLINDRICAL_SURFACE('generated cylinder',#43,1.075) ;
#101=CYLINDRICAL_SURFACE('generated cylinder',#100,1.075) ;
#626=CYLINDRICAL_SURFACE('generated cylinder',#625,1.1) ;
#655=CYLINDRICAL_SURFACE('generated cylinder',#654,2.) ;
#689=CYLINDRICAL_SURFACE('generated cylinder',#688,2.) ;
#723=CYLINDRICAL_SURFACE('generated cylinder',#722,2.) ;
#757=CYLINDRICAL_SURFACE('generated cylinder',#756,2.) ;
#769=CYLINDRICAL_SURFACE('generated cylinder',#768,1.1) ;
#196=FACE_BOUND('',#193,.T.) ;
#200=FACE_BOUND('',#197,.T.) ;
#244=FACE_BOUND('',#241,.T.) ;
#248=FACE_BOUND('',#245,.T.) ;
#444=FACE_BOUND('',#441,.T.) ;
#462=FACE_BOUND('',#459,.T.) ;
#602=FACE_BOUND('',#599,.T.) ;
#620=FACE_BOUND('',#617,.T.) ;
#53=EDGE_CURVE('',#50,#52,#48,.T.) ;
#60=EDGE_CURVE('',#59,#50,#57,.F.) ;
#67=EDGE_CURVE('',#59,#66,#64,.T.) ;
#72=EDGE_CURVE('',#66,#52,#71,.F.) ;
#84=EDGE_CURVE('',#52,#50,#83,.T.) ;
#89=EDGE_CURVE('',#66,#59,#88,.T.) ;
#110=EDGE_CURVE('',#107,#109,#105,.T.) ;
#117=EDGE_CURVE('',#116,#107,#114,.F.) ;
#124=EDGE_CURVE('',#116,#123,#121,.T.) ;
#129=EDGE_CURVE('',#123,#109,#128,.F.) ;
#141=EDGE_CURVE('',#109,#107,#140,.T.) ;
#146=EDGE_CURVE('',#123,#116,#145,.T.) ;
#167=EDGE_CURVE('',#164,#166,#162,.T.) ;
#174=EDGE_CURVE('',#173,#164,#171,.T.) ;
#181=EDGE_CURVE('',#173,#180,#178,.T.) ;
#186=EDGE_CURVE('',#180,#166,#185,.T.) ;
#215=EDGE_CURVE('',#212,#214,#210,.T.) ;
#222=EDGE_CURVE('',#214,#221,#219,.F.) ;
#229=EDGE_CURVE('',#228,#221,#226,.T.) ;
#234=EDGE_CURVE('',#212,#228,#233,.F.) ;
#263=EDGE_CURVE('',#260,#262,#258,.T.) ;
#270=EDGE_CURVE('',#262,#269,#267,.T.) ;
#277=EDGE_CURVE('',#276,#269,#274,.T.) ;
#282=EDGE_CURVE('',#260,#276,#281,.T.) ;
#303=EDGE_CURVE('',#300,#302,#298,.T.) ;
#310=EDGE_CURVE('',#302,#309,#307,.T.) ;
#317=EDGE_CURVE('',#316,#309,#314,.T.) ;
#322=EDGE_CURVE('',#316,#300,#321,.T.) ;
#339=EDGE_CURVE('',#166,#214,#338,.F.) ;
#344=EDGE_CURVE('',#269,#180,#343,.T.) ;
#357=EDGE_CURVE('',#262,#356,#345,.T.) ;
#364=EDGE_CURVE('',#363,#356,#361,.T.) ;
#371=EDGE_CURVE('',#363,#370,#368,.T.) ;
#378=EDGE_CURVE('',#377,#370,#375,.T.) ;
#385=EDGE_CURVE('',#377,#384,#382,.T.) ;
#392=EDGE_CURVE('',#391,#384,#389,.T.) ;
#397=EDGE_CURVE('',#391,#302,#396,.T.) ;
#404=EDGE_CURVE('',#403,#300,#401,.T.) ;
#409=EDGE_CURVE('',#221,#403,#408,.F.) ;
#435=EDGE_CURVE('',#432,#434,#430,.T.) ;
#440=EDGE_CURVE('',#434,#432,#439,.T.) ;
#453=EDGE_CURVE('',#450,#452,#448,.T.) ;
#458=EDGE_CURVE('',#452,#450,#457,.T.) ;
#475=EDGE_CURVE('',#228,#474,#472,.F.) ;
#480=EDGE_CURVE('',#474,#316,#479,.T.) ;
#493=EDGE_CURVE('',#309,#492,#481,.T.) ;
#500=EDGE_CURVE('',#492,#499,#497,.T.) ;
#519=EDGE_CURVE('',#499,#518,#501,.T.) ;
#526=EDGE_CURVE('',#518,#525,#523,.T.) ;
#545=EDGE_CURVE('',#525,#544,#527,.T.) ;
#552=EDGE_CURVE('',#544,#551,#549,.T.) ;
#557=EDGE_CURVE('',#551,#260,#556,.T.) ;
#562=EDGE_CURVE('',#276,#173,#561,.T.) ;
#567=EDGE_CURVE('',#164,#212,#566,.F.) ;
#593=EDGE_CURVE('',#590,#592,#588,.T.) ;
#598=EDGE_CURVE('',#592,#590,#597,.T.) ;
#611=EDGE_CURVE('',#608,#610,#606,.T.) ;
#616=EDGE_CURVE('',#610,#608,#615,.T.) ;
#631=EDGE_CURVE('',#432,#592,#630,.F.) ;
#636=EDGE_CURVE('',#434,#590,#635,.F.) ;
#660=EDGE_CURVE('',#492,#391,#659,.T.) ;
#677=EDGE_CURVE('',#384,#499,#676,.T.) ;
#694=EDGE_CURVE('',#518,#377,#693,.T.) ;
#711=EDGE_CURVE('',#370,#525,#710,.T.) ;
#728=EDGE_CURVE('',#544,#363,#727,.T.) ;
#745=EDGE_CURVE('',#356,#551,#744,.T.) ;
#774=EDGE_CURVE('',#452,#608,#773,.F.) ;
#779=EDGE_CURVE('',#450,#610,#778,.F.) ;
#810=EDGE_CURVE('',#474,#403,#809,.T.) ;
#39=CLOSED_SHELL('Closed Shell',(#79,#96,#136,#153,#201,#249,#289,#329,#463,#621,#643,#650,#667,#684,#701,#718,#735,#752,#764,#786,#793,#805,#817,#829,#836)) ;
#74=ORIENTED_EDGE('',*,*,#53,.F.) ;
#75=ORIENTED_EDGE('',*,*,#60,.F.) ;
#76=ORIENTED_EDGE('',*,*,#67,.T.) ;
#77=ORIENTED_EDGE('',*,*,#72,.T.) ;
#91=ORIENTED_EDGE('',*,*,#84,.F.) ;
#92=ORIENTED_EDGE('',*,*,#72,.F.) ;
#93=ORIENTED_EDGE('',*,*,#89,.T.) ;
#94=ORIENTED_EDGE('',*,*,#60,.T.) ;
#131=ORIENTED_EDGE('',*,*,#110,.F.) ;
#132=ORIENTED_EDGE('',*,*,#117,.F.) ;
#133=ORIENTED_EDGE('',*,*,#124,.T.) ;
#134=ORIENTED_EDGE('',*,*,#129,.T.) ;
#148=ORIENTED_EDGE('',*,*,#141,.F.) ;
#149=ORIENTED_EDGE('',*,*,#129,.F.) ;
#150=ORIENTED_EDGE('',*,*,#146,.T.) ;
#151=ORIENTED_EDGE('',*,*,#117,.T.) ;
#188=ORIENTED_EDGE('',*,*,#167,.F.) ;
#189=ORIENTED_EDGE('',*,*,#174,.F.) ;
#190=ORIENTED_EDGE('',*,*,#181,.T.) ;
#191=ORIENTED_EDGE('',*,*,#186,.T.) ;
#194=ORIENTED_EDGE('',*,*,#53,.T.) ;
#195=ORIENTED_EDGE('',*,*,#84,.T.) ;
#198=ORIENTED_EDGE('',*,*,#110,.T.) ;
#199=ORIENTED_EDGE('',*,*,#141,.T.) ;
#236=ORIENTED_EDGE('',*,*,#215,.T.) ;
#237=ORIENTED_EDGE('',*,*,#222,.T.) ;
#238=ORIENTED_EDGE('',*,*,#229,.F.) ;
#239=ORIENTED_EDGE('',*,*,#234,.F.) ;
#242=ORIENTED_EDGE('',*,*,#89,.F.) ;
#243=ORIENTED_EDGE('',*,*,#67,.F.) ;
#246=ORIENTED_EDGE('',*,*,#146,.F.) ;
#247=ORIENTED_EDGE('',*,*,#124,.F.) ;
#284=ORIENTED_EDGE('',*,*,#263,.T.) ;
#285=ORIENTED_EDGE('',*,*,#270,.T.) ;
#286=ORIENTED_EDGE('',*,*,#277,.F.) ;
#287=ORIENTED_EDGE('',*,*,#282,.F.) ;
#324=ORIENTED_EDGE('',*,*,#303,.T.) ;
#325=ORIENTED_EDGE('',*,*,#310,.T.) ;
#326=ORIENTED_EDGE('',*,*,#317,.F.) ;
#327=ORIENTED_EDGE('',*,*,#322,.T.) ;
#411=ORIENTED_EDGE('',*,*,#339,.F.) ;
#412=ORIENTED_EDGE('',*,*,#186,.F.) ;
#413=ORIENTED_EDGE('',*,*,#344,.F.) ;
#414=ORIENTED_EDGE('',*,*,#270,.F.) ;
#415=ORIENTED_EDGE('',*,*,#357,.T.) ;
#416=ORIENTED_EDGE('',*,*,#364,.F.) ;
#417=ORIENTED_EDGE('',*,*,#371,.T.) ;
#418=ORIENTED_EDGE('',*,*,#378,.F.) ;
#419=ORIENTED_EDGE('',*,*,#385,.T.) ;
#420=ORIENTED_EDGE('',*,*,#392,.F.) ;
#421=ORIENTED_EDGE('',*,*,#397,.T.) ;
#422=ORIENTED_EDGE('',*,*,#303,.F.) ;
#423=ORIENTED_EDGE('',*,*,#404,.F.) ;
#424=ORIENTED_EDGE('',*,*,#409,.F.) ;
#425=ORIENTED_EDGE('',*,*,#222,.F.) ;
#442=ORIENTED_EDGE('',*,*,#435,.F.) ;
#443=ORIENTED_EDGE('',*,*,#440,.F.) ;
#460=ORIENTED_EDGE('',*,*,#453,.F.) ;
#461=ORIENTED_EDGE('',*,*,#458,.F.) ;
#569=ORIENTED_EDGE('',*,*,#234,.T.) ;
#570=ORIENTED_EDGE('',*,*,#475,.T.) ;
#571=ORIENTED_EDGE('',*,*,#480,.T.) ;
#572=ORIENTED_EDGE('',*,*,#317,.T.) ;
#573=ORIENTED_EDGE('',*,*,#493,.T.) ;
#574=ORIENTED_EDGE('',*,*,#500,.T.) ;
#575=ORIENTED_EDGE('',*,*,#519,.T.) ;
#576=ORIENTED_EDGE('',*,*,#526,.T.) ;
#577=ORIENTED_EDGE('',*,*,#545,.T.) ;
#578=ORIENTED_EDGE('',*,*,#552,.T.) ;
#579=ORIENTED_EDGE('',*,*,#557,.T.) ;
#580=ORIENTED_EDGE('',*,*,#282,.T.) ;
#581=ORIENTED_EDGE('',*,*,#562,.T.) ;
#582=ORIENTED_EDGE('',*,*,#174,.T.) ;
#583=ORIENTED_EDGE('',*,*,#567,.T.) ;
#600=ORIENTED_EDGE('',*,*,#593,.T.) ;
#601=ORIENTED_EDGE('',*,*,#598,.T.) ;
#618=ORIENTED_EDGE('',*,*,#611,.T.) ;
#619=ORIENTED_EDGE('',*,*,#616,.T.) ;
#638=ORIENTED_EDGE('',*,*,#631,.F.) ;
#639=ORIENTED_EDGE('',*,*,#435,.T.) ;
#640=ORIENTED_EDGE('',*,*,#636,.T.) ;
#641=ORIENTED_EDGE('',*,*,#598,.F.) ;
#645=ORIENTED_EDGE('',*,*,#636,.F.) ;
#646=ORIENTED_EDGE('',*,*,#440,.T.) ;
#647=ORIENTED_EDGE('',*,*,#631,.T.) ;
#648=ORIENTED_EDGE('',*,*,#593,.F.) ;
#662=ORIENTED_EDGE('',*,*,#493,.F.) ;
#663=ORIENTED_EDGE('',*,*,#310,.F.) ;
#664=ORIENTED_EDGE('',*,*,#397,.F.) ;
#665=ORIENTED_EDGE('',*,*,#660,.F.) ;
#679=ORIENTED_EDGE('',*,*,#500,.F.) ;
#680=ORIENTED_EDGE('',*,*,#660,.T.) ;
#681=ORIENTED_EDGE('',*,*,#392,.T.) ;
#682=ORIENTED_EDGE('',*,*,#677,.T.) ;
#696=ORIENTED_EDGE('',*,*,#519,.F.) ;
#697=ORIENTED_EDGE('',*,*,#677,.F.) ;
#698=ORIENTED_EDGE('',*,*,#385,.F.) ;
#699=ORIENTED_EDGE('',*,*,#694,.F.) ;
#713=ORIENTED_EDGE('',*,*,#526,.F.) ;
#714=ORIENTED_EDGE('',*,*,#694,.T.) ;
#715=ORIENTED_EDGE('',*,*,#378,.T.) ;
#716=ORIENTED_EDGE('',*,*,#711,.T.) ;
#730=ORIENTED_EDGE('',*,*,#545,.F.) ;
#731=ORIENTED_EDGE('',*,*,#711,.F.) ;
#732=ORIENTED_EDGE('',*,*,#371,.F.) ;
#733=ORIENTED_EDGE('',*,*,#728,.F.) ;
#747=ORIENTED_EDGE('',*,*,#364,.T.) ;
#748=ORIENTED_EDGE('',*,*,#745,.T.) ;
#749=ORIENTED_EDGE('',*,*,#552,.F.) ;
#750=ORIENTED_EDGE('',*,*,#728,.T.) ;
#759=ORIENTED_EDGE('',*,*,#557,.F.) ;
#760=ORIENTED_EDGE('',*,*,#745,.F.) ;
#761=ORIENTED_EDGE('',*,*,#357,.F.) ;
#762=ORIENTED_EDGE('',*,*,#263,.F.) ;
#781=ORIENTED_EDGE('',*,*,#774,.F.) ;
#782=ORIENTED_EDGE('',*,*,#458,.T.) ;
#783=ORIENTED_EDGE('',*,*,#779,.T.) ;
#784=ORIENTED_EDGE('',*,*,#611,.F.) ;
#788=ORIENTED_EDGE('',*,*,#779,.F.) ;
#789=ORIENTED_EDGE('',*,*,#453,.T.) ;
#790=ORIENTED_EDGE('',*,*,#774,.T.) ;
#791=ORIENTED_EDGE('',*,*,#616,.F.) ;
#800=ORIENTED_EDGE('',*,*,#339,.T.) ;
#801=ORIENTED_EDGE('',*,*,#215,.F.) ;
#802=ORIENTED_EDGE('',*,*,#567,.F.) ;
#803=ORIENTED_EDGE('',*,*,#167,.T.) ;
#812=ORIENTED_EDGE('',*,*,#404,.T.) ;
#813=ORIENTED_EDGE('',*,*,#322,.F.) ;
#814=ORIENTED_EDGE('',*,*,#480,.F.) ;
#815=ORIENTED_EDGE('',*,*,#810,.T.) ;
#824=ORIENTED_EDGE('',*,*,#409,.T.) ;
#825=ORIENTED_EDGE('',*,*,#810,.F.) ;
#826=ORIENTED_EDGE('',*,*,#475,.F.) ;
#827=ORIENTED_EDGE('',*,*,#229,.T.) ;
#831=ORIENTED_EDGE('',*,*,#344,.T.) ;
#832=ORIENTED_EDGE('',*,*,#181,.F.) ;
#833=ORIENTED_EDGE('',*,*,#562,.F.) ;
#834=ORIENTED_EDGE('',*,*,#277,.T.) ;
#73=EDGE_LOOP('',(#74,#75,#76,#77)) ;
#90=EDGE_LOOP('',(#91,#92,#93,#94)) ;
#130=EDGE_LOOP('',(#131,#132,#133,#134)) ;
#147=EDGE_LOOP('',(#148,#149,#150,#151)) ;
#187=EDGE_LOOP('',(#188,#189,#190,#191)) ;
#193=EDGE_LOOP('',(#194,#195)) ;
#197=EDGE_LOOP('',(#198,#199)) ;
#235=EDGE_LOOP('',(#236,#237,#238,#239)) ;
#241=EDGE_LOOP('',(#242,#243)) ;
#245=EDGE_LOOP('',(#246,#247)) ;
#283=EDGE_LOOP('',(#284,#285,#286,#287)) ;
#323=EDGE_LOOP('',(#324,#325,#326,#327)) ;
#410=EDGE_LOOP('',(#411,#412,#413,#414,#415,#416,#417,#418,#419,#420,#421,#422,#423,#424,#425)) ;
#441=EDGE_LOOP('',(#442,#443)) ;
#459=EDGE_LOOP('',(#460,#461)) ;
#568=EDGE_LOOP('',(#569,#570,#571,#572,#573,#574,#575,#576,#577,#578,#579,#580,#581,#582,#583)) ;
#599=EDGE_LOOP('',(#600,#601)) ;
#617=EDGE_LOOP('',(#618,#619)) ;
#637=EDGE_LOOP('',(#638,#639,#640,#641)) ;
#644=EDGE_LOOP('',(#645,#646,#647,#648)) ;
#661=EDGE_LOOP('',(#662,#663,#664,#665)) ;
#678=EDGE_LOOP('',(#679,#680,#681,#682)) ;
#695=EDGE_LOOP('',(#696,#697,#698,#699)) ;
#712=EDGE_LOOP('',(#713,#714,#715,#716)) ;
#729=EDGE_LOOP('',(#730,#731,#732,#733)) ;
#746=EDGE_LOOP('',(#747,#748,#749,#750)) ;
#758=EDGE_LOOP('',(#759,#760,#761,#762)) ;
#780=EDGE_LOOP('',(#781,#782,#783,#784)) ;
#787=EDGE_LOOP('',(#788,#789,#790,#791)) ;
#799=EDGE_LOOP('',(#800,#801,#802,#803)) ;
#811=EDGE_LOOP('',(#812,#813,#814,#815)) ;
#823=EDGE_LOOP('',(#824,#825,#826,#827)) ;
#830=EDGE_LOOP('',(#831,#832,#833,#834)) ;
#30=MANIFOLD_SOLID_BREP('\X2\570689D2\X0\2',#39) ;
#50=VERTEX_POINT('',#49) ;
#52=VERTEX_POINT('',#51) ;
#59=VERTEX_POINT('',#58) ;
#66=VERTEX_POINT('',#65) ;
#107=VERTEX_POINT('',#106) ;
#109=VERTEX_POINT('',#108) ;
#116=VERTEX_POINT('',#115) ;
#123=VERTEX_POINT('',#122) ;
#164=VERTEX_POINT('',#163) ;
#166=VERTEX_POINT('',#165) ;
#173=VERTEX_POINT('',#172) ;
#180=VERTEX_POINT('',#179) ;
#212=VERTEX_POINT('',#211) ;
#214=VERTEX_POINT('',#213) ;
#221=VERTEX_POINT('',#220) ;
#228=VERTEX_POINT('',#227) ;
#260=VERTEX_POINT('',#259) ;
#262=VERTEX_POINT('',#261) ;
#269=VERTEX_POINT('',#268) ;
#276=VERTEX_POINT('',#275) ;
#300=VERTEX_POINT('',#299) ;
#302=VERTEX_POINT('',#301) ;
#309=VERTEX_POINT('',#308) ;
#316=VERTEX_POINT('',#315) ;
#356=VERTEX_POINT('',#355) ;
#363=VERTEX_POINT('',#362) ;
#370=VERTEX_POINT('',#369) ;
#377=VERTEX_POINT('',#376) ;
#384=VERTEX_POINT('',#383) ;
#391=VERTEX_POINT('',#390) ;
#403=VERTEX_POINT('',#402) ;
#432=VERTEX_POINT('',#431) ;
#434=VERTEX_POINT('',#433) ;
#450=VERTEX_POINT('',#449) ;
#452=VERTEX_POINT('',#451) ;
#474=VERTEX_POINT('',#473) ;
#492=VERTEX_POINT('',#491) ;
#499=VERTEX_POINT('',#498) ;
#518=VERTEX_POINT('',#517) ;
#525=VERTEX_POINT('',#524) ;
#544=VERTEX_POINT('',#543) ;
#551=VERTEX_POINT('',#550) ;
#590=VERTEX_POINT('',#589) ;
#592=VERTEX_POINT('',#591) ;
#608=VERTEX_POINT('',#607) ;
#610=VERTEX_POINT('',#609) ;
#839=NEXT_ASSEMBLY_USAGE_OCCURRENCE('\X2\56DB722A5939722A\X0\ 4mm.1','\X2\56DB722A5939722A\X0\ 4mm.1','',#13,#28,'\X2\56DB722A5939722A\X0\ 4mm.1') ;
#837=ADVANCED_BREP_SHAPE_REPRESENTATION('NONE',(#30),#23) ;
#79=ADVANCED_FACE('\X2\570689D2\X0\2',(#78),#44,.F.) ;
#96=ADVANCED_FACE('\X2\570689D2\X0\2',(#95),#44,.F.) ;
#136=ADVANCED_FACE('\X2\570689D2\X0\2',(#135),#101,.F.) ;
#153=ADVANCED_FACE('\X2\570689D2\X0\2',(#152),#101,.F.) ;
#201=ADVANCED_FACE('\X2\570689D2\X0\2',(#192,#196,#200),#158,.F.) ;
#249=ADVANCED_FACE('\X2\570689D2\X0\2',(#240,#244,#248),#206,.T.) ;
#289=ADVANCED_FACE('\X2\570689D2\X0\2',(#288),#254,.F.) ;
#329=ADVANCED_FACE('\X2\570689D2\X0\2',(#328),#294,.F.) ;
#463=ADVANCED_FACE('\X2\570689D2\X0\2',(#426,#444,#462),#334,.T.) ;
#621=ADVANCED_FACE('\X2\570689D2\X0\2',(#584,#602,#620),#468,.F.) ;
#643=ADVANCED_FACE('\X2\570689D2\X0\2',(#642),#626,.F.) ;
#650=ADVANCED_FACE('\X2\570689D2\X0\2',(#649),#626,.F.) ;
#667=ADVANCED_FACE('\X2\570689D2\X0\2',(#666),#655,.T.) ;
#684=ADVANCED_FACE('\X2\570689D2\X0\2',(#683),#672,.F.) ;
#701=ADVANCED_FACE('\X2\570689D2\X0\2',(#700),#689,.T.) ;
#718=ADVANCED_FACE('\X2\570689D2\X0\2',(#717),#706,.F.) ;
#735=ADVANCED_FACE('\X2\570689D2\X0\2',(#734),#723,.T.) ;
#752=ADVANCED_FACE('\X2\570689D2\X0\2',(#751),#740,.F.) ;
#764=ADVANCED_FACE('\X2\570689D2\X0\2',(#763),#757,.F.) ;
#786=ADVANCED_FACE('\X2\570689D2\X0\2',(#785),#769,.F.) ;
#793=ADVANCED_FACE('\X2\570689D2\X0\2',(#792),#769,.F.) ;
#805=ADVANCED_FACE('\X2\570689D2\X0\2',(#804),#798,.T.) ;
#817=ADVANCED_FACE('\X2\570689D2\X0\2',(#816),#294,.F.) ;
#829=ADVANCED_FACE('\X2\570689D2\X0\2',(#828),#822,.F.) ;
#836=ADVANCED_FACE('\X2\570689D2\X0\2',(#835),#822,.F.) ;
#4=APPLICATION_PROTOCOL_DEFINITION('international standard','ap242_managed_model_based_3d_engineering',2014,#1) ;
#345=B_SPLINE_CURVE_WITH_KNOTS('',5,(#346,#347,#348,#349,#350,#351,#352,#353,#354),.UNSPECIFIED.,.F.,.U.,(6,3,6),(0.,1.33285272811,2.22142766216),.UNSPECIFIED.) ;
#481=B_SPLINE_CURVE_WITH_KNOTS('',5,(#482,#483,#484,#485,#486,#487,#488,#489,#490),.UNSPECIFIED.,.F.,.U.,(6,3,6),(0.,1.33285272684,2.22142766029),.UNSPECIFIED.) ;
#501=B_SPLINE_CURVE_WITH_KNOTS('',5,(#502,#503,#504,#505,#506,#507,#508,#509,#510,#511,#512,#513,#514,#515,#516),.UNSPECIFIED.,.F.,.U.,(6,3,3,3,6),(0.,1.46967440816,2.93934882267,4.40902320864,4.44282450975),.UNSPECIFIED.) ;
#527=B_SPLINE_CURVE_WITH_KNOTS('',5,(#528,#529,#530,#531,#532,#533,#534,#535,#536,#537,#538,#539,#540,#541,#542),.UNSPECIFIED.,.F.,.U.,(6,3,3,3,6),(0.,1.46967440805,2.93934882256,4.40902320849,4.4428245096),.UNSPECIFIED.) ;
#31=COLOUR_RGB('Colour',0.823529411765,0.823529411765,1.) ;
#78=FACE_OUTER_BOUND('',#73,.T.) ;
#95=FACE_OUTER_BOUND('',#90,.T.) ;
#135=FACE_OUTER_BOUND('',#130,.T.) ;
#152=FACE_OUTER_BOUND('',#147,.T.) ;
#192=FACE_OUTER_BOUND('',#187,.T.) ;
#240=FACE_OUTER_BOUND('',#235,.T.) ;
#288=FACE_OUTER_BOUND('',#283,.T.) ;
#328=FACE_OUTER_BOUND('',#323,.T.) ;
#426=FACE_OUTER_BOUND('',#410,.T.) ;
#584=FACE_OUTER_BOUND('',#568,.T.) ;
#642=FACE_OUTER_BOUND('',#637,.T.) ;
#649=FACE_OUTER_BOUND('',#644,.T.) ;
#666=FACE_OUTER_BOUND('',#661,.T.) ;
#683=FACE_OUTER_BOUND('',#678,.T.) ;
#700=FACE_OUTER_BOUND('',#695,.T.) ;
#717=FACE_OUTER_BOUND('',#712,.T.) ;
#734=FACE_OUTER_BOUND('',#729,.T.) ;
#751=FACE_OUTER_BOUND('',#746,.T.) ;
#763=FACE_OUTER_BOUND('',#758,.T.) ;
#785=FACE_OUTER_BOUND('',#780,.T.) ;
#792=FACE_OUTER_BOUND('',#787,.T.) ;
#804=FACE_OUTER_BOUND('',#799,.T.) ;
#816=FACE_OUTER_BOUND('',#811,.T.) ;
#828=FACE_OUTER_BOUND('',#823,.T.) ;
#835=FACE_OUTER_BOUND('',#830,.T.) ;
#9=PRODUCT_CATEGORY_RELATIONSHIP(' ',' ',#7,#8) ;
#12=PRODUCT_CATEGORY_RELATIONSHIP(' ',' ',#10,#11) ;
#6=PRODUCT_DEFINITION_FORMATION_WITH_SPECIFIED_SOURCE('',' ',#5,.NOT_KNOWN.) ;
#27=PRODUCT_DEFINITION_FORMATION_WITH_SPECIFIED_SOURCE('\X2\6D60\X0\',' ',#26,.NOT_KNOWN.) ;
#14=SHAPE_DEFINITION_REPRESENTATION(#16,#15) ;
#25=SHAPE_DEFINITION_REPRESENTATION(#29,#24) ;
#17=(LENGTH_UNIT()NAMED_UNIT(*)SI_UNIT(.MILLI.,.METRE.)) ;
#18=(NAMED_UNIT(*)PLANE_ANGLE_UNIT()SI_UNIT($,.RADIAN.)) ;
#19=(NAMED_UNIT(*)SI_UNIT($,.STERADIAN.)SOLID_ANGLE_UNIT()) ;
#21=(GEOMETRIC_REPRESENTATION_CONTEXT(3)GLOBAL_UNCERTAINTY_ASSIGNED_CONTEXT((#20))GLOBAL_UNIT_ASSIGNED_CONTEXT((#17,#18,#19))REPRESENTATION_CONTEXT(' ',' ')) ;
#23=(GEOMETRIC_REPRESENTATION_CONTEXT(3)GLOBAL_UNCERTAINTY_ASSIGNED_CONTEXT((#22))GLOBAL_UNIT_ASSIGNED_CONTEXT((#17,#18,#19))REPRESENTATION_CONTEXT(' ',' ')) ;
#842=(REPRESENTATION_RELATIONSHIP(' ',' ',#24,#15)REPRESENTATION_RELATIONSHIP_WITH_TRANSFORMATION(#843)SHAPE_REPRESENTATION_RELATIONSHIP()) ;
ENDSEC;
END-ISO-10303-21;
