ISO-10303-21;
HEADER;
FILE_DESCRIPTION(('CATIA V5 STEP Exchange','CAx-IF Rec.Pracs.--- Model Styling and Organization---1.5--- 2016-08-15','CAx-IF Rec.Pracs.---Supplemental Geometry---1.0---2011-11-01','CAx-IF Rec.Pracs.--- Composite Materials ---3.4---2017-06-13','CAx-IF Rec.Pracs.---Tessellated 3D Geometry---1.0---2015-12-17'),'2;1');

FILE_NAME('C:\\Users\\PH\\Desktop\\\X2\5DE5521B72696D418D446599\X0\\\1\X2\7ED367846A21578B53CA\X0\PCB\\\X2\7ED367846A21578B\X0\\\\X2\6253537090E84EF6\X0\\\2mm\X2\52FE722A4E0A\X0\.stp','2026-07-19T08:30:59+00:00',('none'),('none'),'CATIA Version 5-6 Release 2021 SP7','CATIA V5 STEP AP242 v2','none');

FILE_SCHEMA(('AP242_MANAGED_MODEL_BASED_3D_ENGINEERING_MIM_LF  {1 0 10303 442 1 1 4}'));

ENDSEC;
DATA;
#5=PRODUCT('\X2\56DB722A5939722A\X0\ 4mm','\X2\56DB722A5939722A\X0\ 4mm','',(#2)) ;
#2=PRODUCT_CONTEXT(' ',#1,'mechanical') ;
#1=APPLICATION_CONTEXT('managed model based 3d engineering') ;
#10=PRODUCT_DEFINITION('\X2\93C8\X0\',' ',#6,#3) ;
#3=PRODUCT_DEFINITION_CONTEXT('part definition',#1,' ') ;
#11=PRODUCT_DEFINITION_SHAPE(' ',' ',#10) ;
#830=MECHANICAL_DESIGN_GEOMETRIC_PRESENTATION_REPRESENTATION(' ',(#29),#16) ;
#7=PRODUCT_CATEGORY('part','specification') ;
#19=SHAPE_REPRESENTATION(' ',(#18),#16) ;
#17=CARTESIAN_POINT(' ',(0.,0.,0.)) ;
#31=CARTESIAN_POINT('Axis2P3D Location',(18.164071404,2.,-25.7645764673)) ;
#36=CARTESIAN_POINT('Axis2P3D Location',(17.2645764673,2.,-25.7645764673)) ;
#40=CARTESIAN_POINT('Vertex',(17.2645764673,1.,-25.7645764673)) ;
#42=CARTESIAN_POINT('Vertex',(17.2645764673,3.,-25.7645764673)) ;
#45=CARTESIAN_POINT('Line Origine',(18.164071404,1.,-25.7645764673)) ;
#49=CARTESIAN_POINT('Vertex',(20.164071404,1.,-25.7645764673)) ;
#52=CARTESIAN_POINT('Axis2P3D Location',(20.164071404,2.,-25.7645764673)) ;
#56=CARTESIAN_POINT('Vertex',(20.164071404,3.,-25.7645764673)) ;
#59=CARTESIAN_POINT('Line Origine',(18.164071404,3.,-25.7645764673)) ;
#71=CARTESIAN_POINT('Axis2P3D Location',(17.2645764673,2.,-25.7645764673)) ;
#76=CARTESIAN_POINT('Axis2P3D Location',(20.164071404,2.,-25.7645764673)) ;
#88=CARTESIAN_POINT('Axis2P3D Location',(18.164071404,2.,-21.7645764673)) ;
#93=CARTESIAN_POINT('Axis2P3D Location',(17.2645764673,2.,-21.7645764673)) ;
#97=CARTESIAN_POINT('Vertex',(17.2645764673,1.,-21.7645764673)) ;
#99=CARTESIAN_POINT('Vertex',(17.2645764673,3.,-21.7645764673)) ;
#102=CARTESIAN_POINT('Line Origine',(18.164071404,1.,-21.7645764673)) ;
#106=CARTESIAN_POINT('Vertex',(20.164071404,1.,-21.7645764673)) ;
#109=CARTESIAN_POINT('Axis2P3D Location',(20.164071404,2.,-21.7645764673)) ;
#113=CARTESIAN_POINT('Vertex',(20.164071404,3.,-21.7645764673)) ;
#116=CARTESIAN_POINT('Line Origine',(18.164071404,3.,-21.7645764673)) ;
#128=CARTESIAN_POINT('Axis2P3D Location',(17.2645764673,2.,-21.7645764673)) ;
#133=CARTESIAN_POINT('Axis2P3D Location',(20.164071404,2.,-21.7645764673)) ;
#145=CARTESIAN_POINT('Axis2P3D Location',(17.2645764673,4.,-29.7645764673)) ;
#150=CARTESIAN_POINT('Line Origine',(17.2645764673,2.,-17.066808295)) ;
#154=CARTESIAN_POINT('Vertex',(17.2645764673,4.,-17.066808295)) ;
#156=CARTESIAN_POINT('Vertex',(17.2645764673,0.,-17.066808295)) ;
#159=CARTESIAN_POINT('Line Origine',(17.2645764673,4.,-23.4156923811)) ;
#163=CARTESIAN_POINT('Vertex',(17.2645764673,4.,-29.7645764673)) ;
#166=CARTESIAN_POINT('Line Origine',(17.2645764673,2.,-29.7645764673)) ;
#170=CARTESIAN_POINT('Vertex',(17.2645764673,0.,-29.7645764673)) ;
#173=CARTESIAN_POINT('Line Origine',(17.2645764673,0.,-23.4156923811)) ;
#193=CARTESIAN_POINT('Axis2P3D Location',(20.164071404,4.,-29.7645764673)) ;
#198=CARTESIAN_POINT('Line Origine',(20.164071404,2.,-17.066808295)) ;
#202=CARTESIAN_POINT('Vertex',(20.164071404,4.,-17.066808295)) ;
#204=CARTESIAN_POINT('Vertex',(20.164071404,0.,-17.066808295)) ;
#207=CARTESIAN_POINT('Line Origine',(20.164071404,0.,-23.4156923811)) ;
#211=CARTESIAN_POINT('Vertex',(20.164071404,0.,-29.7645764673)) ;
#214=CARTESIAN_POINT('Line Origine',(20.164071404,2.,-29.7645764673)) ;
#218=CARTESIAN_POINT('Vertex',(20.164071404,4.,-29.7645764673)) ;
#221=CARTESIAN_POINT('Line Origine',(20.164071404,4.,-23.4156923811)) ;
#241=CARTESIAN_POINT('Axis2P3D Location',(25.,4.,-40.)) ;
#246=CARTESIAN_POINT('Line Origine',(29.4142135624,2.,-44.4142135624)) ;
#250=CARTESIAN_POINT('Vertex',(29.4142135624,4.,-44.4142135624)) ;
#252=CARTESIAN_POINT('Vertex',(29.4142135624,0.,-44.4142135624)) ;
#255=CARTESIAN_POINT('Line Origine',(22.0893950148,0.,-37.0893950148)) ;
#259=CARTESIAN_POINT('Vertex',(14.7645764673,0.,-29.7645764673)) ;
#262=CARTESIAN_POINT('Line Origine',(14.7645764673,2.,-29.7645764673)) ;
#266=CARTESIAN_POINT('Vertex',(14.7645764673,4.,-29.7645764673)) ;
#269=CARTESIAN_POINT('Line Origine',(22.0893950148,4.,-37.0893950148)) ;
#281=CARTESIAN_POINT('Axis2P3D Location',(30.5634545248,4.,-37.6639595882)) ;
#286=CARTESIAN_POINT('Line Origine',(34.0644096863,0.,-41.1649147497)) ;
#290=CARTESIAN_POINT('Vertex',(32.7146058098,0.,-39.8151108731)) ;
#292=CARTESIAN_POINT('Vertex',(35.4142135624,0.,-42.5147186257)) ;
#295=CARTESIAN_POINT('Line Origine',(35.4142135629,2.,-42.5147186263)) ;
#299=CARTESIAN_POINT('Vertex',(35.4142135624,4.,-42.5147186258)) ;
#302=CARTESIAN_POINT('Line Origine',(34.0644096863,4.,-41.1649147497)) ;
#306=CARTESIAN_POINT('Vertex',(32.7146058098,4.,-39.8151108731)) ;
#309=CARTESIAN_POINT('Line Origine',(32.7146058097,2.,-39.8151108731)) ;
#321=CARTESIAN_POINT('Axis2P3D Location',(0.,0.,0.)) ;
#326=CARTESIAN_POINT('Line Origine',(18.7143239356,0.,-17.066808295)) ;
#331=CARTESIAN_POINT('Line Origine',(16.0145764673,0.,-29.7645764673)) ;
#337=CARTESIAN_POINT('Control Point',(29.4142135624,0.,-44.4142135624)) ;
#338=CARTESIAN_POINT('Control Point',(29.5474988352,0.,-44.5474988352)) ;
#339=CARTESIAN_POINT('Control Point',(29.6650816723,0.,-44.6964859885)) ;
#340=CARTESIAN_POINT('Control Point',(29.7644979562,0.,-44.8587182672)) ;
#341=CARTESIAN_POINT('Control Point',(29.8967771356,0.,-45.1460633912)) ;
#342=CARTESIAN_POINT('Control Point',(29.9703907599,0.,-45.4524689629)) ;
#343=CARTESIAN_POINT('Control Point',(29.9901304323,0.,-45.5771000057)) ;
#344=CARTESIAN_POINT('Control Point',(30.,0.,-45.7027636525)) ;
#345=CARTESIAN_POINT('Control Point',(30.,0.,-45.8284271248)) ;
#346=CARTESIAN_POINT('Vertex',(30.,0.,-45.8284271247)) ;
#349=CARTESIAN_POINT('Line Origine',(30.,0.,-54.4142135624)) ;
#353=CARTESIAN_POINT('Vertex',(30.,0.,-63.)) ;
#356=CARTESIAN_POINT('Axis2P3D Location',(32.,0.,-63.)) ;
#360=CARTESIAN_POINT('Vertex',(32.,0.,-65.)) ;
#363=CARTESIAN_POINT('Line Origine',(33.,0.,-65.)) ;
#367=CARTESIAN_POINT('Vertex',(34.,0.,-65.)) ;
#370=CARTESIAN_POINT('Axis2P3D Location',(34.,0.,-63.)) ;
#374=CARTESIAN_POINT('Vertex',(36.,0.,-63.)) ;
#377=CARTESIAN_POINT('Line Origine',(36.,0.,-53.464466094)) ;
#381=CARTESIAN_POINT('Vertex',(36.,0.,-43.9289321881)) ;
#384=CARTESIAN_POINT('Axis2P3D Location',(33.9999999944,0.,-43.9289321904)) ;
#389=CARTESIAN_POINT('Line Origine',(27.6893386069,0.,-34.7898436702)) ;
#393=CARTESIAN_POINT('Vertex',(22.664071404,0.,-29.7645764673)) ;
#396=CARTESIAN_POINT('Line Origine',(21.414071404,0.,-29.7645764673)) ;
#418=CARTESIAN_POINT('Axis2P3D Location',(33.,0.,-52.)) ;
#422=CARTESIAN_POINT('Vertex',(31.9,0.,-52.)) ;
#424=CARTESIAN_POINT('Vertex',(34.1,0.,-52.)) ;
#427=CARTESIAN_POINT('Axis2P3D Location',(33.,0.,-52.)) ;
#436=CARTESIAN_POINT('Axis2P3D Location',(33.,0.,-60.)) ;
#440=CARTESIAN_POINT('Vertex',(34.1,0.,-60.)) ;
#442=CARTESIAN_POINT('Vertex',(31.9,0.,-60.)) ;
#445=CARTESIAN_POINT('Axis2P3D Location',(33.,0.,-60.)) ;
#455=CARTESIAN_POINT('Axis2P3D Location',(0.,4.,0.)) ;
#460=CARTESIAN_POINT('Line Origine',(21.414071404,4.,-29.7645764673)) ;
#464=CARTESIAN_POINT('Vertex',(22.664071404,4.,-29.7645764673)) ;
#467=CARTESIAN_POINT('Line Origine',(27.6893386069,4.,-34.7898436702)) ;
#473=CARTESIAN_POINT('Control Point',(35.4142135624,4.,-42.5147186257)) ;
#474=CARTESIAN_POINT('Control Point',(35.5474988351,4.,-42.6480038984)) ;
#475=CARTESIAN_POINT('Control Point',(35.6650816721,4.,-42.7969910515)) ;
#476=CARTESIAN_POINT('Control Point',(35.7644979563,4.,-42.9592233308)) ;
#477=CARTESIAN_POINT('Control Point',(35.8967771356,4.,-43.2465684546)) ;
#478=CARTESIAN_POINT('Control Point',(35.9703907599,4.,-43.5529740261)) ;
#479=CARTESIAN_POINT('Control Point',(35.9901304323,4.,-43.6776050692)) ;
#480=CARTESIAN_POINT('Control Point',(36.,4.,-43.8032687159)) ;
#481=CARTESIAN_POINT('Control Point',(36.,4.,-43.9289321881)) ;
#482=CARTESIAN_POINT('Vertex',(36.,4.,-43.9289321881)) ;
#485=CARTESIAN_POINT('Line Origine',(36.,4.,-53.464466094)) ;
#489=CARTESIAN_POINT('Vertex',(36.,4.,-63.)) ;
#493=CARTESIAN_POINT('Control Point',(36.,4.,-63.)) ;
#494=CARTESIAN_POINT('Control Point',(36.,4.,-63.207843348)) ;
#495=CARTESIAN_POINT('Control Point',(35.9730007142,4.,-63.4156862188)) ;
#496=CARTESIAN_POINT('Control Point',(35.9189928161,4.,-63.6188652626)) ;
#497=CARTESIAN_POINT('Control Point',(35.7594560081,4.,-64.0064992089)) ;
#498=CARTESIAN_POINT('Control Point',(35.5061775156,4.,-64.3405059265)) ;
#499=CARTESIAN_POINT('Control Point',(35.3584103241,4.,-64.4900500112)) ;
#500=CARTESIAN_POINT('Control Point',(35.0274525717,4.,-64.7473028691)) ;
#501=CARTESIAN_POINT('Control Point',(34.6417544697,4.,-64.9114596647)) ;
#502=CARTESIAN_POINT('Control Point',(34.4392354657,4.,-64.9678922356)) ;
#503=CARTESIAN_POINT('Control Point',(34.2269566603,4.,-64.9980514342)) ;
#504=CARTESIAN_POINT('Control Point',(34.0143406924,4.,-64.9999571552)) ;
#505=CARTESIAN_POINT('Control Point',(34.0095604519,4.,-64.9999857184)) ;
#506=CARTESIAN_POINT('Control Point',(34.0047802258,4.,-65.)) ;
#507=CARTESIAN_POINT('Control Point',(34.,4.,-65.)) ;
#508=CARTESIAN_POINT('Vertex',(34.,4.,-65.)) ;
#511=CARTESIAN_POINT('Line Origine',(33.,4.,-65.)) ;
#515=CARTESIAN_POINT('Vertex',(32.,4.,-65.)) ;
#519=CARTESIAN_POINT('Control Point',(32.,4.,-65.)) ;
#520=CARTESIAN_POINT('Control Point',(31.792156652,4.,-65.)) ;
#521=CARTESIAN_POINT('Control Point',(31.5843137813,4.,-64.9730007142)) ;
#522=CARTESIAN_POINT('Control Point',(31.3811347373,4.,-64.9189928161)) ;
#523=CARTESIAN_POINT('Control Point',(30.9935007911,4.,-64.7594560081)) ;
#524=CARTESIAN_POINT('Control Point',(30.6594940735,4.,-64.5061775156)) ;
#525=CARTESIAN_POINT('Control Point',(30.5099499888,4.,-64.3584103241)) ;
#526=CARTESIAN_POINT('Control Point',(30.2526971309,4.,-64.0274525718)) ;
#527=CARTESIAN_POINT('Control Point',(30.0885403353,4.,-63.6417544697)) ;
#528=CARTESIAN_POINT('Control Point',(30.0321077644,4.,-63.4392354657)) ;
#529=CARTESIAN_POINT('Control Point',(30.0019485658,4.,-63.2269566603)) ;
#530=CARTESIAN_POINT('Control Point',(30.0000428448,4.,-63.0143406924)) ;
#531=CARTESIAN_POINT('Control Point',(30.0000142816,4.,-63.0095604519)) ;
#532=CARTESIAN_POINT('Control Point',(30.,4.,-63.0047802258)) ;
#533=CARTESIAN_POINT('Control Point',(30.,4.,-63.)) ;
#534=CARTESIAN_POINT('Vertex',(30.,4.,-63.)) ;
#537=CARTESIAN_POINT('Line Origine',(30.,4.,-54.4142135624)) ;
#541=CARTESIAN_POINT('Vertex',(30.,4.,-45.8284271248)) ;
#544=CARTESIAN_POINT('Axis2P3D Location',(27.9999999944,4.,-45.8284271271)) ;
#549=CARTESIAN_POINT('Line Origine',(16.0145764673,4.,-29.7645764673)) ;
#554=CARTESIAN_POINT('Line Origine',(18.7143239356,4.,-17.066808295)) ;
#576=CARTESIAN_POINT('Axis2P3D Location',(33.,4.,-52.)) ;
#580=CARTESIAN_POINT('Vertex',(34.1,4.,-52.)) ;
#582=CARTESIAN_POINT('Vertex',(31.9,4.,-52.)) ;
#585=CARTESIAN_POINT('Axis2P3D Location',(33.,4.,-52.)) ;
#594=CARTESIAN_POINT('Axis2P3D Location',(33.,4.,-60.)) ;
#598=CARTESIAN_POINT('Vertex',(31.9,4.,-60.)) ;
#600=CARTESIAN_POINT('Vertex',(34.1,4.,-60.)) ;
#603=CARTESIAN_POINT('Axis2P3D Location',(33.,4.,-60.)) ;
#613=CARTESIAN_POINT('Axis2P3D Location',(33.,2.,-52.)) ;
#618=CARTESIAN_POINT('Line Origine',(31.9,2.,-52.)) ;
#623=CARTESIAN_POINT('Line Origine',(34.1,2.,-52.)) ;
#642=CARTESIAN_POINT('Axis2P3D Location',(34.,4.,-43.9289321881)) ;
#647=CARTESIAN_POINT('Line Origine',(36.,4.,-43.9289321881)) ;
#659=CARTESIAN_POINT('Axis2P3D Location',(36.,4.,-65.)) ;
#664=CARTESIAN_POINT('Line Origine',(36.,2.,-63.)) ;
#676=CARTESIAN_POINT('Axis2P3D Location',(34.,4.,-63.)) ;
#681=CARTESIAN_POINT('Line Origine',(34.,4.,-65.)) ;
#693=CARTESIAN_POINT('Axis2P3D Location',(30.,4.,-65.)) ;
#698=CARTESIAN_POINT('Line Origine',(32.,2.,-65.)) ;
#710=CARTESIAN_POINT('Axis2P3D Location',(32.,4.,-63.)) ;
#715=CARTESIAN_POINT('Line Origine',(30.,4.,-63.)) ;
#727=CARTESIAN_POINT('Axis2P3D Location',(30.,4.,-45.)) ;
#732=CARTESIAN_POINT('Line Origine',(30.,2.,-45.8284271248)) ;
#744=CARTESIAN_POINT('Axis2P3D Location',(28.,4.,-45.8284271247)) ;
#756=CARTESIAN_POINT('Axis2P3D Location',(33.,2.,-60.)) ;
#761=CARTESIAN_POINT('Line Origine',(31.9,2.,-60.)) ;
#766=CARTESIAN_POINT('Line Origine',(34.1,2.,-60.)) ;
#785=CARTESIAN_POINT('Axis2P3D Location',(20.164071404,4.,-17.066808295)) ;
#797=CARTESIAN_POINT('Line Origine',(22.6640714039,2.,-29.7645764673)) ;
#809=CARTESIAN_POINT('Axis2P3D Location',(14.7645764673,4.,-29.7645764673)) ;
#8=PRODUCT_RELATED_PRODUCT_CATEGORY('part',$,(#5)) ;
#15=UNCERTAINTY_MEASURE_WITH_UNIT(LENGTH_MEASURE(0.005),#12,'distance_accuracy_value','CONFUSED CURVE UNCERTAINTY') ;
#29=STYLED_ITEM(' ',(#28),#21) ;
#28=PRESENTATION_STYLE_ASSIGNMENT((#27)) ;
#27=SURFACE_STYLE_USAGE(.BOTH.,#26) ;
#26=SURFACE_SIDE_STYLE(' ',(#25)) ;
#25=SURFACE_STYLE_FILL_AREA(#24) ;
#24=FILL_AREA_STYLE(' ',(#23)) ;
#23=FILL_AREA_STYLE_COLOUR(' ',#22) ;
#47=VECTOR('Line Direction',#46,1.) ;
#61=VECTOR('Line Direction',#60,1.) ;
#104=VECTOR('Line Direction',#103,1.) ;
#118=VECTOR('Line Direction',#117,1.) ;
#152=VECTOR('Line Direction',#151,1.) ;
#161=VECTOR('Line Direction',#160,1.) ;
#168=VECTOR('Line Direction',#167,1.) ;
#175=VECTOR('Line Direction',#174,1.) ;
#200=VECTOR('Line Direction',#199,1.) ;
#209=VECTOR('Line Direction',#208,1.) ;
#216=VECTOR('Line Direction',#215,1.) ;
#223=VECTOR('Line Direction',#222,1.) ;
#248=VECTOR('Line Direction',#247,1.) ;
#257=VECTOR('Line Direction',#256,1.) ;
#264=VECTOR('Line Direction',#263,1.) ;
#271=VECTOR('Line Direction',#270,1.) ;
#288=VECTOR('Line Direction',#287,1.) ;
#297=VECTOR('Line Direction',#296,1.) ;
#304=VECTOR('Line Direction',#303,1.) ;
#311=VECTOR('Line Direction',#310,1.) ;
#328=VECTOR('Line Direction',#327,1.) ;
#333=VECTOR('Line Direction',#332,1.) ;
#351=VECTOR('Line Direction',#350,1.) ;
#365=VECTOR('Line Direction',#364,1.) ;
#379=VECTOR('Line Direction',#378,1.) ;
#391=VECTOR('Line Direction',#390,1.) ;
#398=VECTOR('Line Direction',#397,1.) ;
#462=VECTOR('Line Direction',#461,1.) ;
#469=VECTOR('Line Direction',#468,1.) ;
#487=VECTOR('Line Direction',#486,1.) ;
#513=VECTOR('Line Direction',#512,1.) ;
#539=VECTOR('Line Direction',#538,1.) ;
#551=VECTOR('Line Direction',#550,1.) ;
#556=VECTOR('Line Direction',#555,1.) ;
#620=VECTOR('Line Direction',#619,1.) ;
#625=VECTOR('Line Direction',#624,1.) ;
#649=VECTOR('Line Direction',#648,1.) ;
#666=VECTOR('Line Direction',#665,1.) ;
#683=VECTOR('Line Direction',#682,1.) ;
#700=VECTOR('Line Direction',#699,1.) ;
#717=VECTOR('Line Direction',#716,1.) ;
#734=VECTOR('Line Direction',#733,1.) ;
#763=VECTOR('Line Direction',#762,1.) ;
#768=VECTOR('Line Direction',#767,1.) ;
#799=VECTOR('Line Direction',#798,1.) ;
#32=DIRECTION('Axis2P3D Direction',(1.,0.,0.)) ;
#33=DIRECTION('Axis2P3D XDirection',(0.,1.,0.)) ;
#37=DIRECTION('Axis2P3D Direction',(1.,0.,0.)) ;
#46=DIRECTION('Vector Direction',(1.,0.,0.)) ;
#53=DIRECTION('Axis2P3D Direction',(1.,0.,0.)) ;
#60=DIRECTION('Vector Direction',(1.,0.,0.)) ;
#72=DIRECTION('Axis2P3D Direction',(1.,0.,0.)) ;
#77=DIRECTION('Axis2P3D Direction',(1.,0.,0.)) ;
#89=DIRECTION('Axis2P3D Direction',(1.,0.,0.)) ;
#90=DIRECTION('Axis2P3D XDirection',(0.,1.,0.)) ;
#94=DIRECTION('Axis2P3D Direction',(1.,0.,0.)) ;
#103=DIRECTION('Vector Direction',(1.,0.,0.)) ;
#110=DIRECTION('Axis2P3D Direction',(1.,0.,0.)) ;
#117=DIRECTION('Vector Direction',(1.,0.,0.)) ;
#129=DIRECTION('Axis2P3D Direction',(1.,0.,0.)) ;
#134=DIRECTION('Axis2P3D Direction',(1.,0.,0.)) ;
#146=DIRECTION('Axis2P3D Direction',(1.,0.,-0.)) ;
#147=DIRECTION('Axis2P3D XDirection',(0.,0.,1.)) ;
#151=DIRECTION('Vector Direction',(0.,-1.,0.)) ;
#160=DIRECTION('Vector Direction',(0.,0.,1.)) ;
#167=DIRECTION('Vector Direction',(0.,-1.,0.)) ;
#174=DIRECTION('Vector Direction',(0.,0.,1.)) ;
#194=DIRECTION('Axis2P3D Direction',(1.,0.,-0.)) ;
#195=DIRECTION('Axis2P3D XDirection',(0.,0.,1.)) ;
#199=DIRECTION('Vector Direction',(0.,-1.,0.)) ;
#208=DIRECTION('Vector Direction',(0.,0.,1.)) ;
#215=DIRECTION('Vector Direction',(0.,-1.,0.)) ;
#222=DIRECTION('Vector Direction',(0.,0.,1.)) ;
#242=DIRECTION('Axis2P3D Direction',(0.707106781187,-0.,0.707106781187)) ;
#243=DIRECTION('Axis2P3D XDirection',(0.707106781187,0.,-0.707106781187)) ;
#247=DIRECTION('Vector Direction',(0.,-1.,0.)) ;
#256=DIRECTION('Vector Direction',(-0.707106781187,0.,0.707106781187)) ;
#263=DIRECTION('Vector Direction',(0.,-1.,0.)) ;
#270=DIRECTION('Vector Direction',(-0.707106781187,0.,0.707106781187)) ;
#282=DIRECTION('Axis2P3D Direction',(-0.707106781187,0.,-0.707106781187)) ;
#283=DIRECTION('Axis2P3D XDirection',(-0.707106781187,0.,0.707106781187)) ;
#287=DIRECTION('Vector Direction',(0.707106781187,0.,-0.707106781187)) ;
#296=DIRECTION('Vector Direction',(0.,1.,0.)) ;
#303=DIRECTION('Vector Direction',(0.707106781187,0.,-0.707106781187)) ;
#310=DIRECTION('Vector Direction',(0.,-1.,0.)) ;
#322=DIRECTION('Axis2P3D Direction',(0.,-1.,0.)) ;
#323=DIRECTION('Axis2P3D XDirection',(0.,0.,-1.)) ;
#327=DIRECTION('Vector Direction',(-1.,0.,0.)) ;
#332=DIRECTION('Vector Direction',(1.,0.,0.)) ;
#350=DIRECTION('Vector Direction',(0.,0.,1.)) ;
#357=DIRECTION('Axis2P3D Direction',(0.,-1.,0.)) ;
#364=DIRECTION('Vector Direction',(-1.,0.,0.)) ;
#371=DIRECTION('Axis2P3D Direction',(0.,-1.,0.)) ;
#378=DIRECTION('Vector Direction',(0.,0.,-1.)) ;
#385=DIRECTION('Axis2P3D Direction',(0.,-1.,0.)) ;
#390=DIRECTION('Vector Direction',(0.707106781187,0.,-0.707106781187)) ;
#397=DIRECTION('Vector Direction',(-1.,0.,0.)) ;
#419=DIRECTION('Axis2P3D Direction',(0.,-1.,0.)) ;
#428=DIRECTION('Axis2P3D Direction',(0.,-1.,0.)) ;
#437=DIRECTION('Axis2P3D Direction',(0.,-1.,0.)) ;
#446=DIRECTION('Axis2P3D Direction',(0.,-1.,0.)) ;
#456=DIRECTION('Axis2P3D Direction',(0.,-1.,0.)) ;
#457=DIRECTION('Axis2P3D XDirection',(0.,0.,-1.)) ;
#461=DIRECTION('Vector Direction',(-1.,0.,0.)) ;
#468=DIRECTION('Vector Direction',(0.707106781187,0.,-0.707106781187)) ;
#486=DIRECTION('Vector Direction',(0.,0.,-1.)) ;
#512=DIRECTION('Vector Direction',(-1.,0.,0.)) ;
#538=DIRECTION('Vector Direction',(0.,0.,1.)) ;
#545=DIRECTION('Axis2P3D Direction',(0.,-1.,0.)) ;
#550=DIRECTION('Vector Direction',(1.,0.,0.)) ;
#555=DIRECTION('Vector Direction',(-1.,0.,0.)) ;
#577=DIRECTION('Axis2P3D Direction',(0.,-1.,0.)) ;
#586=DIRECTION('Axis2P3D Direction',(0.,-1.,0.)) ;
#595=DIRECTION('Axis2P3D Direction',(0.,-1.,0.)) ;
#604=DIRECTION('Axis2P3D Direction',(0.,-1.,0.)) ;
#614=DIRECTION('Axis2P3D Direction',(0.,-1.,0.)) ;
#615=DIRECTION('Axis2P3D XDirection',(1.,0.,0.)) ;
#619=DIRECTION('Vector Direction',(0.,-1.,0.)) ;
#624=DIRECTION('Vector Direction',(0.,-1.,0.)) ;
#643=DIRECTION('Axis2P3D Direction',(0.,-1.,0.)) ;
#644=DIRECTION('Axis2P3D XDirection',(0.,0.,-1.)) ;
#648=DIRECTION('Vector Direction',(0.,-1.,0.)) ;
#660=DIRECTION('Axis2P3D Direction',(-1.,0.,-7.60444266755E-15)) ;
#661=DIRECTION('Axis2P3D XDirection',(-7.60444266755E-15,0.,1.)) ;
#665=DIRECTION('Vector Direction',(0.,1.,0.)) ;
#677=DIRECTION('Axis2P3D Direction',(0.,-1.,0.)) ;
#678=DIRECTION('Axis2P3D XDirection',(0.,0.,-1.)) ;
#682=DIRECTION('Vector Direction',(0.,-1.,0.)) ;
#694=DIRECTION('Axis2P3D Direction',(-9.25185853854E-15,0.,1.)) ;
#695=DIRECTION('Axis2P3D XDirection',(1.,0.,9.25185853854E-15)) ;
#699=DIRECTION('Vector Direction',(0.,1.,0.)) ;
#711=DIRECTION('Axis2P3D Direction',(0.,-1.,0.)) ;
#712=DIRECTION('Axis2P3D XDirection',(1.22464679915E-16,0.,1.)) ;
#716=DIRECTION('Vector Direction',(0.,-1.,0.)) ;
#728=DIRECTION('Axis2P3D Direction',(1.,-0.,6.59194920871E-15)) ;
#729=DIRECTION('Axis2P3D XDirection',(6.59194920871E-15,0.,-1.)) ;
#733=DIRECTION('Vector Direction',(0.,1.,0.)) ;
#745=DIRECTION('Axis2P3D Direction',(0.,1.,0.)) ;
#746=DIRECTION('Axis2P3D XDirection',(0.,0.,1.)) ;
#757=DIRECTION('Axis2P3D Direction',(0.,-1.,0.)) ;
#758=DIRECTION('Axis2P3D XDirection',(1.,0.,0.)) ;
#762=DIRECTION('Vector Direction',(0.,-1.,0.)) ;
#767=DIRECTION('Vector Direction',(0.,-1.,0.)) ;
#786=DIRECTION('Axis2P3D Direction',(0.,0.,1.)) ;
#787=DIRECTION('Axis2P3D XDirection',(-1.,0.,0.)) ;
#798=DIRECTION('Vector Direction',(0.,-1.,0.)) ;
#810=DIRECTION('Axis2P3D Direction',(0.,0.,-1.)) ;
#811=DIRECTION('Axis2P3D XDirection',(1.,0.,0.)) ;
#829=SHAPE_REPRESENTATION_RELATIONSHIP(' ',' ',#19,#828) ;
#18=AXIS2_PLACEMENT_3D(' ',#17,$,$) ;
#34=AXIS2_PLACEMENT_3D('Cylinder Axis2P3D',#31,#32,#33) ;
#38=AXIS2_PLACEMENT_3D('Circle Axis2P3D',#36,#37,$) ;
#54=AXIS2_PLACEMENT_3D('Circle Axis2P3D',#52,#53,$) ;
#73=AXIS2_PLACEMENT_3D('Circle Axis2P3D',#71,#72,$) ;
#78=AXIS2_PLACEMENT_3D('Circle Axis2P3D',#76,#77,$) ;
#91=AXIS2_PLACEMENT_3D('Cylinder Axis2P3D',#88,#89,#90) ;
#95=AXIS2_PLACEMENT_3D('Circle Axis2P3D',#93,#94,$) ;
#111=AXIS2_PLACEMENT_3D('Circle Axis2P3D',#109,#110,$) ;
#130=AXIS2_PLACEMENT_3D('Circle Axis2P3D',#128,#129,$) ;
#135=AXIS2_PLACEMENT_3D('Circle Axis2P3D',#133,#134,$) ;
#148=AXIS2_PLACEMENT_3D('Plane Axis2P3D',#145,#146,#147) ;
#196=AXIS2_PLACEMENT_3D('Plane Axis2P3D',#193,#194,#195) ;
#244=AXIS2_PLACEMENT_3D('Plane Axis2P3D',#241,#242,#243) ;
#284=AXIS2_PLACEMENT_3D('Plane Axis2P3D',#281,#282,#283) ;
#324=AXIS2_PLACEMENT_3D('Plane Axis2P3D',#321,#322,#323) ;
#358=AXIS2_PLACEMENT_3D('Circle Axis2P3D',#356,#357,$) ;
#372=AXIS2_PLACEMENT_3D('Circle Axis2P3D',#370,#371,$) ;
#386=AXIS2_PLACEMENT_3D('Circle Axis2P3D',#384,#385,$) ;
#420=AXIS2_PLACEMENT_3D('Circle Axis2P3D',#418,#419,$) ;
#429=AXIS2_PLACEMENT_3D('Circle Axis2P3D',#427,#428,$) ;
#438=AXIS2_PLACEMENT_3D('Circle Axis2P3D',#436,#437,$) ;
#447=AXIS2_PLACEMENT_3D('Circle Axis2P3D',#445,#446,$) ;
#458=AXIS2_PLACEMENT_3D('Plane Axis2P3D',#455,#456,#457) ;
#546=AXIS2_PLACEMENT_3D('Circle Axis2P3D',#544,#545,$) ;
#578=AXIS2_PLACEMENT_3D('Circle Axis2P3D',#576,#577,$) ;
#587=AXIS2_PLACEMENT_3D('Circle Axis2P3D',#585,#586,$) ;
#596=AXIS2_PLACEMENT_3D('Circle Axis2P3D',#594,#595,$) ;
#605=AXIS2_PLACEMENT_3D('Circle Axis2P3D',#603,#604,$) ;
#616=AXIS2_PLACEMENT_3D('Cylinder Axis2P3D',#613,#614,#615) ;
#645=AXIS2_PLACEMENT_3D('Cylinder Axis2P3D',#642,#643,#644) ;
#662=AXIS2_PLACEMENT_3D('Plane Axis2P3D',#659,#660,#661) ;
#679=AXIS2_PLACEMENT_3D('Cylinder Axis2P3D',#676,#677,#678) ;
#696=AXIS2_PLACEMENT_3D('Plane Axis2P3D',#693,#694,#695) ;
#713=AXIS2_PLACEMENT_3D('Cylinder Axis2P3D',#710,#711,#712) ;
#730=AXIS2_PLACEMENT_3D('Plane Axis2P3D',#727,#728,#729) ;
#747=AXIS2_PLACEMENT_3D('Cylinder Axis2P3D',#744,#745,#746) ;
#759=AXIS2_PLACEMENT_3D('Cylinder Axis2P3D',#756,#757,#758) ;
#788=AXIS2_PLACEMENT_3D('Plane Axis2P3D',#785,#786,#787) ;
#812=AXIS2_PLACEMENT_3D('Plane Axis2P3D',#809,#810,#811) ;
#48=LINE('Line',#45,#47) ;
#62=LINE('Line',#59,#61) ;
#105=LINE('Line',#102,#104) ;
#119=LINE('Line',#116,#118) ;
#153=LINE('Line',#150,#152) ;
#162=LINE('Line',#159,#161) ;
#169=LINE('Line',#166,#168) ;
#176=LINE('Line',#173,#175) ;
#201=LINE('Line',#198,#200) ;
#210=LINE('Line',#207,#209) ;
#217=LINE('Line',#214,#216) ;
#224=LINE('Line',#221,#223) ;
#249=LINE('Line',#246,#248) ;
#258=LINE('Line',#255,#257) ;
#265=LINE('Line',#262,#264) ;
#272=LINE('Line',#269,#271) ;
#289=LINE('Line',#286,#288) ;
#298=LINE('Line',#295,#297) ;
#305=LINE('Line',#302,#304) ;
#312=LINE('Line',#309,#311) ;
#329=LINE('Line',#326,#328) ;
#334=LINE('Line',#331,#333) ;
#352=LINE('Line',#349,#351) ;
#366=LINE('Line',#363,#365) ;
#380=LINE('Line',#377,#379) ;
#392=LINE('Line',#389,#391) ;
#399=LINE('Line',#396,#398) ;
#463=LINE('Line',#460,#462) ;
#470=LINE('Line',#467,#469) ;
#488=LINE('Line',#485,#487) ;
#514=LINE('Line',#511,#513) ;
#540=LINE('Line',#537,#539) ;
#552=LINE('Line',#549,#551) ;
#557=LINE('Line',#554,#556) ;
#621=LINE('Line',#618,#620) ;
#626=LINE('Line',#623,#625) ;
#650=LINE('Line',#647,#649) ;
#667=LINE('Line',#664,#666) ;
#684=LINE('Line',#681,#683) ;
#701=LINE('Line',#698,#700) ;
#718=LINE('Line',#715,#717) ;
#735=LINE('Line',#732,#734) ;
#764=LINE('Line',#761,#763) ;
#769=LINE('Line',#766,#768) ;
#800=LINE('Line',#797,#799) ;
#39=CIRCLE('generated circle',#38,1.) ;
#55=CIRCLE('generated circle',#54,1.) ;
#74=CIRCLE('generated circle',#73,1.) ;
#79=CIRCLE('generated circle',#78,1.) ;
#96=CIRCLE('generated circle',#95,1.) ;
#112=CIRCLE('generated circle',#111,1.) ;
#131=CIRCLE('generated circle',#130,1.) ;
#136=CIRCLE('generated circle',#135,1.) ;
#359=CIRCLE('generated circle',#358,1.99999999996) ;
#373=CIRCLE('generated circle',#372,1.99999999996) ;
#387=CIRCLE('generated circle',#386,2.0000000056) ;
#421=CIRCLE('generated circle',#420,1.1) ;
#430=CIRCLE('generated circle',#429,1.1) ;
#439=CIRCLE('generated circle',#438,1.1) ;
#448=CIRCLE('generated circle',#447,1.1) ;
#547=CIRCLE('generated circle',#546,2.0000000056) ;
#579=CIRCLE('generated circle',#578,1.1) ;
#588=CIRCLE('generated circle',#587,1.1) ;
#597=CIRCLE('generated circle',#596,1.1) ;
#606=CIRCLE('generated circle',#605,1.1) ;
#149=PLANE('',#148) ;
#197=PLANE('',#196) ;
#245=PLANE('',#244) ;
#285=PLANE('',#284) ;
#325=PLANE('',#324) ;
#459=PLANE('',#458) ;
#663=PLANE('',#662) ;
#697=PLANE('',#696) ;
#731=PLANE('',#730) ;
#789=PLANE('',#788) ;
#813=PLANE('',#812) ;
#35=CYLINDRICAL_SURFACE('generated cylinder',#34,1.) ;
#92=CYLINDRICAL_SURFACE('generated cylinder',#91,1.) ;
#617=CYLINDRICAL_SURFACE('generated cylinder',#616,1.1) ;
#646=CYLINDRICAL_SURFACE('generated cylinder',#645,2.) ;
#680=CYLINDRICAL_SURFACE('generated cylinder',#679,2.) ;
#714=CYLINDRICAL_SURFACE('generated cylinder',#713,2.) ;
#748=CYLINDRICAL_SURFACE('generated cylinder',#747,2.) ;
#760=CYLINDRICAL_SURFACE('generated cylinder',#759,1.1) ;
#187=FACE_BOUND('',#184,.T.) ;
#191=FACE_BOUND('',#188,.T.) ;
#235=FACE_BOUND('',#232,.T.) ;
#239=FACE_BOUND('',#236,.T.) ;
#435=FACE_BOUND('',#432,.T.) ;
#453=FACE_BOUND('',#450,.T.) ;
#593=FACE_BOUND('',#590,.T.) ;
#611=FACE_BOUND('',#608,.T.) ;
#44=EDGE_CURVE('',#41,#43,#39,.T.) ;
#51=EDGE_CURVE('',#50,#41,#48,.F.) ;
#58=EDGE_CURVE('',#50,#57,#55,.T.) ;
#63=EDGE_CURVE('',#57,#43,#62,.F.) ;
#75=EDGE_CURVE('',#43,#41,#74,.T.) ;
#80=EDGE_CURVE('',#57,#50,#79,.T.) ;
#101=EDGE_CURVE('',#98,#100,#96,.T.) ;
#108=EDGE_CURVE('',#107,#98,#105,.F.) ;
#115=EDGE_CURVE('',#107,#114,#112,.T.) ;
#120=EDGE_CURVE('',#114,#100,#119,.F.) ;
#132=EDGE_CURVE('',#100,#98,#131,.T.) ;
#137=EDGE_CURVE('',#114,#107,#136,.T.) ;
#158=EDGE_CURVE('',#155,#157,#153,.T.) ;
#165=EDGE_CURVE('',#164,#155,#162,.T.) ;
#172=EDGE_CURVE('',#164,#171,#169,.T.) ;
#177=EDGE_CURVE('',#171,#157,#176,.T.) ;
#206=EDGE_CURVE('',#203,#205,#201,.T.) ;
#213=EDGE_CURVE('',#205,#212,#210,.F.) ;
#220=EDGE_CURVE('',#219,#212,#217,.T.) ;
#225=EDGE_CURVE('',#203,#219,#224,.F.) ;
#254=EDGE_CURVE('',#251,#253,#249,.T.) ;
#261=EDGE_CURVE('',#253,#260,#258,.T.) ;
#268=EDGE_CURVE('',#267,#260,#265,.T.) ;
#273=EDGE_CURVE('',#251,#267,#272,.T.) ;
#294=EDGE_CURVE('',#291,#293,#289,.T.) ;
#301=EDGE_CURVE('',#293,#300,#298,.T.) ;
#308=EDGE_CURVE('',#307,#300,#305,.T.) ;
#313=EDGE_CURVE('',#307,#291,#312,.T.) ;
#330=EDGE_CURVE('',#157,#205,#329,.F.) ;
#335=EDGE_CURVE('',#260,#171,#334,.T.) ;
#348=EDGE_CURVE('',#253,#347,#336,.T.) ;
#355=EDGE_CURVE('',#354,#347,#352,.T.) ;
#362=EDGE_CURVE('',#354,#361,#359,.T.) ;
#369=EDGE_CURVE('',#368,#361,#366,.T.) ;
#376=EDGE_CURVE('',#368,#375,#373,.T.) ;
#383=EDGE_CURVE('',#382,#375,#380,.T.) ;
#388=EDGE_CURVE('',#382,#293,#387,.T.) ;
#395=EDGE_CURVE('',#394,#291,#392,.T.) ;
#400=EDGE_CURVE('',#212,#394,#399,.F.) ;
#426=EDGE_CURVE('',#423,#425,#421,.T.) ;
#431=EDGE_CURVE('',#425,#423,#430,.T.) ;
#444=EDGE_CURVE('',#441,#443,#439,.T.) ;
#449=EDGE_CURVE('',#443,#441,#448,.T.) ;
#466=EDGE_CURVE('',#219,#465,#463,.F.) ;
#471=EDGE_CURVE('',#465,#307,#470,.T.) ;
#484=EDGE_CURVE('',#300,#483,#472,.T.) ;
#491=EDGE_CURVE('',#483,#490,#488,.T.) ;
#510=EDGE_CURVE('',#490,#509,#492,.T.) ;
#517=EDGE_CURVE('',#509,#516,#514,.T.) ;
#536=EDGE_CURVE('',#516,#535,#518,.T.) ;
#543=EDGE_CURVE('',#535,#542,#540,.T.) ;
#548=EDGE_CURVE('',#542,#251,#547,.T.) ;
#553=EDGE_CURVE('',#267,#164,#552,.T.) ;
#558=EDGE_CURVE('',#155,#203,#557,.F.) ;
#584=EDGE_CURVE('',#581,#583,#579,.T.) ;
#589=EDGE_CURVE('',#583,#581,#588,.T.) ;
#602=EDGE_CURVE('',#599,#601,#597,.T.) ;
#607=EDGE_CURVE('',#601,#599,#606,.T.) ;
#622=EDGE_CURVE('',#423,#583,#621,.F.) ;
#627=EDGE_CURVE('',#425,#581,#626,.F.) ;
#651=EDGE_CURVE('',#483,#382,#650,.T.) ;
#668=EDGE_CURVE('',#375,#490,#667,.T.) ;
#685=EDGE_CURVE('',#509,#368,#684,.T.) ;
#702=EDGE_CURVE('',#361,#516,#701,.T.) ;
#719=EDGE_CURVE('',#535,#354,#718,.T.) ;
#736=EDGE_CURVE('',#347,#542,#735,.T.) ;
#765=EDGE_CURVE('',#443,#599,#764,.F.) ;
#770=EDGE_CURVE('',#441,#601,#769,.F.) ;
#801=EDGE_CURVE('',#465,#394,#800,.T.) ;
#30=CLOSED_SHELL('Closed Shell',(#70,#87,#127,#144,#192,#240,#280,#320,#454,#612,#634,#641,#658,#675,#692,#709,#726,#743,#755,#777,#784,#796,#808,#820,#827)) ;
#65=ORIENTED_EDGE('',*,*,#44,.F.) ;
#66=ORIENTED_EDGE('',*,*,#51,.F.) ;
#67=ORIENTED_EDGE('',*,*,#58,.T.) ;
#68=ORIENTED_EDGE('',*,*,#63,.T.) ;
#82=ORIENTED_EDGE('',*,*,#75,.F.) ;
#83=ORIENTED_EDGE('',*,*,#63,.F.) ;
#84=ORIENTED_EDGE('',*,*,#80,.T.) ;
#85=ORIENTED_EDGE('',*,*,#51,.T.) ;
#122=ORIENTED_EDGE('',*,*,#101,.F.) ;
#123=ORIENTED_EDGE('',*,*,#108,.F.) ;
#124=ORIENTED_EDGE('',*,*,#115,.T.) ;
#125=ORIENTED_EDGE('',*,*,#120,.T.) ;
#139=ORIENTED_EDGE('',*,*,#132,.F.) ;
#140=ORIENTED_EDGE('',*,*,#120,.F.) ;
#141=ORIENTED_EDGE('',*,*,#137,.T.) ;
#142=ORIENTED_EDGE('',*,*,#108,.T.) ;
#179=ORIENTED_EDGE('',*,*,#158,.F.) ;
#180=ORIENTED_EDGE('',*,*,#165,.F.) ;
#181=ORIENTED_EDGE('',*,*,#172,.T.) ;
#182=ORIENTED_EDGE('',*,*,#177,.T.) ;
#185=ORIENTED_EDGE('',*,*,#44,.T.) ;
#186=ORIENTED_EDGE('',*,*,#75,.T.) ;
#189=ORIENTED_EDGE('',*,*,#101,.T.) ;
#190=ORIENTED_EDGE('',*,*,#132,.T.) ;
#227=ORIENTED_EDGE('',*,*,#206,.T.) ;
#228=ORIENTED_EDGE('',*,*,#213,.T.) ;
#229=ORIENTED_EDGE('',*,*,#220,.F.) ;
#230=ORIENTED_EDGE('',*,*,#225,.F.) ;
#233=ORIENTED_EDGE('',*,*,#80,.F.) ;
#234=ORIENTED_EDGE('',*,*,#58,.F.) ;
#237=ORIENTED_EDGE('',*,*,#137,.F.) ;
#238=ORIENTED_EDGE('',*,*,#115,.F.) ;
#275=ORIENTED_EDGE('',*,*,#254,.T.) ;
#276=ORIENTED_EDGE('',*,*,#261,.T.) ;
#277=ORIENTED_EDGE('',*,*,#268,.F.) ;
#278=ORIENTED_EDGE('',*,*,#273,.F.) ;
#315=ORIENTED_EDGE('',*,*,#294,.T.) ;
#316=ORIENTED_EDGE('',*,*,#301,.T.) ;
#317=ORIENTED_EDGE('',*,*,#308,.F.) ;
#318=ORIENTED_EDGE('',*,*,#313,.T.) ;
#402=ORIENTED_EDGE('',*,*,#330,.F.) ;
#403=ORIENTED_EDGE('',*,*,#177,.F.) ;
#404=ORIENTED_EDGE('',*,*,#335,.F.) ;
#405=ORIENTED_EDGE('',*,*,#261,.F.) ;
#406=ORIENTED_EDGE('',*,*,#348,.T.) ;
#407=ORIENTED_EDGE('',*,*,#355,.F.) ;
#408=ORIENTED_EDGE('',*,*,#362,.T.) ;
#409=ORIENTED_EDGE('',*,*,#369,.F.) ;
#410=ORIENTED_EDGE('',*,*,#376,.T.) ;
#411=ORIENTED_EDGE('',*,*,#383,.F.) ;
#412=ORIENTED_EDGE('',*,*,#388,.T.) ;
#413=ORIENTED_EDGE('',*,*,#294,.F.) ;
#414=ORIENTED_EDGE('',*,*,#395,.F.) ;
#415=ORIENTED_EDGE('',*,*,#400,.F.) ;
#416=ORIENTED_EDGE('',*,*,#213,.F.) ;
#433=ORIENTED_EDGE('',*,*,#426,.F.) ;
#434=ORIENTED_EDGE('',*,*,#431,.F.) ;
#451=ORIENTED_EDGE('',*,*,#444,.F.) ;
#452=ORIENTED_EDGE('',*,*,#449,.F.) ;
#560=ORIENTED_EDGE('',*,*,#225,.T.) ;
#561=ORIENTED_EDGE('',*,*,#466,.T.) ;
#562=ORIENTED_EDGE('',*,*,#471,.T.) ;
#563=ORIENTED_EDGE('',*,*,#308,.T.) ;
#564=ORIENTED_EDGE('',*,*,#484,.T.) ;
#565=ORIENTED_EDGE('',*,*,#491,.T.) ;
#566=ORIENTED_EDGE('',*,*,#510,.T.) ;
#567=ORIENTED_EDGE('',*,*,#517,.T.) ;
#568=ORIENTED_EDGE('',*,*,#536,.T.) ;
#569=ORIENTED_EDGE('',*,*,#543,.T.) ;
#570=ORIENTED_EDGE('',*,*,#548,.T.) ;
#571=ORIENTED_EDGE('',*,*,#273,.T.) ;
#572=ORIENTED_EDGE('',*,*,#553,.T.) ;
#573=ORIENTED_EDGE('',*,*,#165,.T.) ;
#574=ORIENTED_EDGE('',*,*,#558,.T.) ;
#591=ORIENTED_EDGE('',*,*,#584,.T.) ;
#592=ORIENTED_EDGE('',*,*,#589,.T.) ;
#609=ORIENTED_EDGE('',*,*,#602,.T.) ;
#610=ORIENTED_EDGE('',*,*,#607,.T.) ;
#629=ORIENTED_EDGE('',*,*,#622,.F.) ;
#630=ORIENTED_EDGE('',*,*,#426,.T.) ;
#631=ORIENTED_EDGE('',*,*,#627,.T.) ;
#632=ORIENTED_EDGE('',*,*,#589,.F.) ;
#636=ORIENTED_EDGE('',*,*,#627,.F.) ;
#637=ORIENTED_EDGE('',*,*,#431,.T.) ;
#638=ORIENTED_EDGE('',*,*,#622,.T.) ;
#639=ORIENTED_EDGE('',*,*,#584,.F.) ;
#653=ORIENTED_EDGE('',*,*,#484,.F.) ;
#654=ORIENTED_EDGE('',*,*,#301,.F.) ;
#655=ORIENTED_EDGE('',*,*,#388,.F.) ;
#656=ORIENTED_EDGE('',*,*,#651,.F.) ;
#670=ORIENTED_EDGE('',*,*,#491,.F.) ;
#671=ORIENTED_EDGE('',*,*,#651,.T.) ;
#672=ORIENTED_EDGE('',*,*,#383,.T.) ;
#673=ORIENTED_EDGE('',*,*,#668,.T.) ;
#687=ORIENTED_EDGE('',*,*,#510,.F.) ;
#688=ORIENTED_EDGE('',*,*,#668,.F.) ;
#689=ORIENTED_EDGE('',*,*,#376,.F.) ;
#690=ORIENTED_EDGE('',*,*,#685,.F.) ;
#704=ORIENTED_EDGE('',*,*,#517,.F.) ;
#705=ORIENTED_EDGE('',*,*,#685,.T.) ;
#706=ORIENTED_EDGE('',*,*,#369,.T.) ;
#707=ORIENTED_EDGE('',*,*,#702,.T.) ;
#721=ORIENTED_EDGE('',*,*,#536,.F.) ;
#722=ORIENTED_EDGE('',*,*,#702,.F.) ;
#723=ORIENTED_EDGE('',*,*,#362,.F.) ;
#724=ORIENTED_EDGE('',*,*,#719,.F.) ;
#738=ORIENTED_EDGE('',*,*,#355,.T.) ;
#739=ORIENTED_EDGE('',*,*,#736,.T.) ;
#740=ORIENTED_EDGE('',*,*,#543,.F.) ;
#741=ORIENTED_EDGE('',*,*,#719,.T.) ;
#750=ORIENTED_EDGE('',*,*,#548,.F.) ;
#751=ORIENTED_EDGE('',*,*,#736,.F.) ;
#752=ORIENTED_EDGE('',*,*,#348,.F.) ;
#753=ORIENTED_EDGE('',*,*,#254,.F.) ;
#772=ORIENTED_EDGE('',*,*,#765,.F.) ;
#773=ORIENTED_EDGE('',*,*,#449,.T.) ;
#774=ORIENTED_EDGE('',*,*,#770,.T.) ;
#775=ORIENTED_EDGE('',*,*,#602,.F.) ;
#779=ORIENTED_EDGE('',*,*,#770,.F.) ;
#780=ORIENTED_EDGE('',*,*,#444,.T.) ;
#781=ORIENTED_EDGE('',*,*,#765,.T.) ;
#782=ORIENTED_EDGE('',*,*,#607,.F.) ;
#791=ORIENTED_EDGE('',*,*,#330,.T.) ;
#792=ORIENTED_EDGE('',*,*,#206,.F.) ;
#793=ORIENTED_EDGE('',*,*,#558,.F.) ;
#794=ORIENTED_EDGE('',*,*,#158,.T.) ;
#803=ORIENTED_EDGE('',*,*,#395,.T.) ;
#804=ORIENTED_EDGE('',*,*,#313,.F.) ;
#805=ORIENTED_EDGE('',*,*,#471,.F.) ;
#806=ORIENTED_EDGE('',*,*,#801,.T.) ;
#815=ORIENTED_EDGE('',*,*,#400,.T.) ;
#816=ORIENTED_EDGE('',*,*,#801,.F.) ;
#817=ORIENTED_EDGE('',*,*,#466,.F.) ;
#818=ORIENTED_EDGE('',*,*,#220,.T.) ;
#822=ORIENTED_EDGE('',*,*,#335,.T.) ;
#823=ORIENTED_EDGE('',*,*,#172,.F.) ;
#824=ORIENTED_EDGE('',*,*,#553,.F.) ;
#825=ORIENTED_EDGE('',*,*,#268,.T.) ;
#64=EDGE_LOOP('',(#65,#66,#67,#68)) ;
#81=EDGE_LOOP('',(#82,#83,#84,#85)) ;
#121=EDGE_LOOP('',(#122,#123,#124,#125)) ;
#138=EDGE_LOOP('',(#139,#140,#141,#142)) ;
#178=EDGE_LOOP('',(#179,#180,#181,#182)) ;
#184=EDGE_LOOP('',(#185,#186)) ;
#188=EDGE_LOOP('',(#189,#190)) ;
#226=EDGE_LOOP('',(#227,#228,#229,#230)) ;
#232=EDGE_LOOP('',(#233,#234)) ;
#236=EDGE_LOOP('',(#237,#238)) ;
#274=EDGE_LOOP('',(#275,#276,#277,#278)) ;
#314=EDGE_LOOP('',(#315,#316,#317,#318)) ;
#401=EDGE_LOOP('',(#402,#403,#404,#405,#406,#407,#408,#409,#410,#411,#412,#413,#414,#415,#416)) ;
#432=EDGE_LOOP('',(#433,#434)) ;
#450=EDGE_LOOP('',(#451,#452)) ;
#559=EDGE_LOOP('',(#560,#561,#562,#563,#564,#565,#566,#567,#568,#569,#570,#571,#572,#573,#574)) ;
#590=EDGE_LOOP('',(#591,#592)) ;
#608=EDGE_LOOP('',(#609,#610)) ;
#628=EDGE_LOOP('',(#629,#630,#631,#632)) ;
#635=EDGE_LOOP('',(#636,#637,#638,#639)) ;
#652=EDGE_LOOP('',(#653,#654,#655,#656)) ;
#669=EDGE_LOOP('',(#670,#671,#672,#673)) ;
#686=EDGE_LOOP('',(#687,#688,#689,#690)) ;
#703=EDGE_LOOP('',(#704,#705,#706,#707)) ;
#720=EDGE_LOOP('',(#721,#722,#723,#724)) ;
#737=EDGE_LOOP('',(#738,#739,#740,#741)) ;
#749=EDGE_LOOP('',(#750,#751,#752,#753)) ;
#771=EDGE_LOOP('',(#772,#773,#774,#775)) ;
#778=EDGE_LOOP('',(#779,#780,#781,#782)) ;
#790=EDGE_LOOP('',(#791,#792,#793,#794)) ;
#802=EDGE_LOOP('',(#803,#804,#805,#806)) ;
#814=EDGE_LOOP('',(#815,#816,#817,#818)) ;
#821=EDGE_LOOP('',(#822,#823,#824,#825)) ;
#21=MANIFOLD_SOLID_BREP('\X2\570689D2\X0\2',#30) ;
#41=VERTEX_POINT('',#40) ;
#43=VERTEX_POINT('',#42) ;
#50=VERTEX_POINT('',#49) ;
#57=VERTEX_POINT('',#56) ;
#98=VERTEX_POINT('',#97) ;
#100=VERTEX_POINT('',#99) ;
#107=VERTEX_POINT('',#106) ;
#114=VERTEX_POINT('',#113) ;
#155=VERTEX_POINT('',#154) ;
#157=VERTEX_POINT('',#156) ;
#164=VERTEX_POINT('',#163) ;
#171=VERTEX_POINT('',#170) ;
#203=VERTEX_POINT('',#202) ;
#205=VERTEX_POINT('',#204) ;
#212=VERTEX_POINT('',#211) ;
#219=VERTEX_POINT('',#218) ;
#251=VERTEX_POINT('',#250) ;
#253=VERTEX_POINT('',#252) ;
#260=VERTEX_POINT('',#259) ;
#267=VERTEX_POINT('',#266) ;
#291=VERTEX_POINT('',#290) ;
#293=VERTEX_POINT('',#292) ;
#300=VERTEX_POINT('',#299) ;
#307=VERTEX_POINT('',#306) ;
#347=VERTEX_POINT('',#346) ;
#354=VERTEX_POINT('',#353) ;
#361=VERTEX_POINT('',#360) ;
#368=VERTEX_POINT('',#367) ;
#375=VERTEX_POINT('',#374) ;
#382=VERTEX_POINT('',#381) ;
#394=VERTEX_POINT('',#393) ;
#423=VERTEX_POINT('',#422) ;
#425=VERTEX_POINT('',#424) ;
#441=VERTEX_POINT('',#440) ;
#443=VERTEX_POINT('',#442) ;
#465=VERTEX_POINT('',#464) ;
#483=VERTEX_POINT('',#482) ;
#490=VERTEX_POINT('',#489) ;
#509=VERTEX_POINT('',#508) ;
#516=VERTEX_POINT('',#515) ;
#535=VERTEX_POINT('',#534) ;
#542=VERTEX_POINT('',#541) ;
#581=VERTEX_POINT('',#580) ;
#583=VERTEX_POINT('',#582) ;
#599=VERTEX_POINT('',#598) ;
#601=VERTEX_POINT('',#600) ;
#828=ADVANCED_BREP_SHAPE_REPRESENTATION('NONE',(#21),#16) ;
#70=ADVANCED_FACE('\X2\570689D2\X0\2',(#69),#35,.F.) ;
#87=ADVANCED_FACE('\X2\570689D2\X0\2',(#86),#35,.F.) ;
#127=ADVANCED_FACE('\X2\570689D2\X0\2',(#126),#92,.F.) ;
#144=ADVANCED_FACE('\X2\570689D2\X0\2',(#143),#92,.F.) ;
#192=ADVANCED_FACE('\X2\570689D2\X0\2',(#183,#187,#191),#149,.F.) ;
#240=ADVANCED_FACE('\X2\570689D2\X0\2',(#231,#235,#239),#197,.T.) ;
#280=ADVANCED_FACE('\X2\570689D2\X0\2',(#279),#245,.F.) ;
#320=ADVANCED_FACE('\X2\570689D2\X0\2',(#319),#285,.F.) ;
#454=ADVANCED_FACE('\X2\570689D2\X0\2',(#417,#435,#453),#325,.T.) ;
#612=ADVANCED_FACE('\X2\570689D2\X0\2',(#575,#593,#611),#459,.F.) ;
#634=ADVANCED_FACE('\X2\570689D2\X0\2',(#633),#617,.F.) ;
#641=ADVANCED_FACE('\X2\570689D2\X0\2',(#640),#617,.F.) ;
#658=ADVANCED_FACE('\X2\570689D2\X0\2',(#657),#646,.T.) ;
#675=ADVANCED_FACE('\X2\570689D2\X0\2',(#674),#663,.F.) ;
#692=ADVANCED_FACE('\X2\570689D2\X0\2',(#691),#680,.T.) ;
#709=ADVANCED_FACE('\X2\570689D2\X0\2',(#708),#697,.F.) ;
#726=ADVANCED_FACE('\X2\570689D2\X0\2',(#725),#714,.T.) ;
#743=ADVANCED_FACE('\X2\570689D2\X0\2',(#742),#731,.F.) ;
#755=ADVANCED_FACE('\X2\570689D2\X0\2',(#754),#748,.F.) ;
#777=ADVANCED_FACE('\X2\570689D2\X0\2',(#776),#760,.F.) ;
#784=ADVANCED_FACE('\X2\570689D2\X0\2',(#783),#760,.F.) ;
#796=ADVANCED_FACE('\X2\570689D2\X0\2',(#795),#789,.T.) ;
#808=ADVANCED_FACE('\X2\570689D2\X0\2',(#807),#285,.F.) ;
#820=ADVANCED_FACE('\X2\570689D2\X0\2',(#819),#813,.F.) ;
#827=ADVANCED_FACE('\X2\570689D2\X0\2',(#826),#813,.F.) ;
#4=APPLICATION_PROTOCOL_DEFINITION('international standard','ap242_managed_model_based_3d_engineering',2014,#1) ;
#336=B_SPLINE_CURVE_WITH_KNOTS('',5,(#337,#338,#339,#340,#341,#342,#343,#344,#345),.UNSPECIFIED.,.F.,.U.,(6,3,6),(0.,1.33285272811,2.22142766216),.UNSPECIFIED.) ;
#472=B_SPLINE_CURVE_WITH_KNOTS('',5,(#473,#474,#475,#476,#477,#478,#479,#480,#481),.UNSPECIFIED.,.F.,.U.,(6,3,6),(0.,1.33285272684,2.22142766029),.UNSPECIFIED.) ;
#492=B_SPLINE_CURVE_WITH_KNOTS('',5,(#493,#494,#495,#496,#497,#498,#499,#500,#501,#502,#503,#504,#505,#506,#507),.UNSPECIFIED.,.F.,.U.,(6,3,3,3,6),(0.,1.46967440816,2.93934882267,4.40902320864,4.44282450975),.UNSPECIFIED.) ;
#518=B_SPLINE_CURVE_WITH_KNOTS('',5,(#519,#520,#521,#522,#523,#524,#525,#526,#527,#528,#529,#530,#531,#532,#533),.UNSPECIFIED.,.F.,.U.,(6,3,3,3,6),(0.,1.46967440805,2.93934882256,4.40902320849,4.4428245096),.UNSPECIFIED.) ;
#22=COLOUR_RGB('Colour',0.823529411765,0.823529411765,1.) ;
#69=FACE_OUTER_BOUND('',#64,.T.) ;
#86=FACE_OUTER_BOUND('',#81,.T.) ;
#126=FACE_OUTER_BOUND('',#121,.T.) ;
#143=FACE_OUTER_BOUND('',#138,.T.) ;
#183=FACE_OUTER_BOUND('',#178,.T.) ;
#231=FACE_OUTER_BOUND('',#226,.T.) ;
#279=FACE_OUTER_BOUND('',#274,.T.) ;
#319=FACE_OUTER_BOUND('',#314,.T.) ;
#417=FACE_OUTER_BOUND('',#401,.T.) ;
#575=FACE_OUTER_BOUND('',#559,.T.) ;
#633=FACE_OUTER_BOUND('',#628,.T.) ;
#640=FACE_OUTER_BOUND('',#635,.T.) ;
#657=FACE_OUTER_BOUND('',#652,.T.) ;
#674=FACE_OUTER_BOUND('',#669,.T.) ;
#691=FACE_OUTER_BOUND('',#686,.T.) ;
#708=FACE_OUTER_BOUND('',#703,.T.) ;
#725=FACE_OUTER_BOUND('',#720,.T.) ;
#742=FACE_OUTER_BOUND('',#737,.T.) ;
#754=FACE_OUTER_BOUND('',#749,.T.) ;
#776=FACE_OUTER_BOUND('',#771,.T.) ;
#783=FACE_OUTER_BOUND('',#778,.T.) ;
#795=FACE_OUTER_BOUND('',#790,.T.) ;
#807=FACE_OUTER_BOUND('',#802,.T.) ;
#819=FACE_OUTER_BOUND('',#814,.T.) ;
#826=FACE_OUTER_BOUND('',#821,.T.) ;
#9=PRODUCT_CATEGORY_RELATIONSHIP(' ',' ',#7,#8) ;
#6=PRODUCT_DEFINITION_FORMATION_WITH_SPECIFIED_SOURCE('\X2\6D60\X0\',' ',#5,.NOT_KNOWN.) ;
#20=SHAPE_DEFINITION_REPRESENTATION(#11,#19) ;
#12=(LENGTH_UNIT()NAMED_UNIT(*)SI_UNIT(.MILLI.,.METRE.)) ;
#13=(NAMED_UNIT(*)PLANE_ANGLE_UNIT()SI_UNIT($,.RADIAN.)) ;
#14=(NAMED_UNIT(*)SI_UNIT($,.STERADIAN.)SOLID_ANGLE_UNIT()) ;
#16=(GEOMETRIC_REPRESENTATION_CONTEXT(3)GLOBAL_UNCERTAINTY_ASSIGNED_CONTEXT((#15))GLOBAL_UNIT_ASSIGNED_CONTEXT((#12,#13,#14))REPRESENTATION_CONTEXT(' ',' ')) ;
ENDSEC;
END-ISO-10303-21;
