ISO-10303-21;
HEADER;
FILE_DESCRIPTION (( 'STEP AP203' ),
    '1' );
FILE_NAME ('42²½½øµç»úÖ§¼Ü.STEP',
    '2026-05-07T12:57:15',
    ( '' ),
    ( '' ),
    'SwSTEP 2.0',
    'SolidWorks 2025',
    '' );
FILE_SCHEMA (( 'CONFIG_CONTROL_DESIGN' ));
ENDSEC;

DATA;
#1 = CIRCLE ( 'NONE', #445, 1.500000000000003109 ) ;
#2 = AXIS2_PLACEMENT_3D ( 'NONE', #360, #700, #1024 ) ;
#3 = CC_DESIGN_APPROVAL ( #926, ( #257 ) ) ;
#4 = DIRECTION ( 'NONE',  ( 0.000000000000000000, -0.000000000000000000, -1.000000000000000000 ) ) ;
#5 = CARTESIAN_POINT ( 'NONE',  ( -17.99999999999999645, 47.00000000000000711, -20.00000000000000355 ) ) ;
#6 = ORIENTED_EDGE ( 'NONE', *, *, #25, .F. ) ;
#7 = ORIENTED_EDGE ( 'NONE', *, *, #729, .T. ) ;
#8 = EDGE_CURVE ( 'NONE', #643, #252, #362, .T. ) ;
#9 = CARTESIAN_POINT ( 'NONE',  ( 16.00000000000001066, 0.000000000000000000, -15.00000000000000355 ) ) ;
#10 = CC_DESIGN_PERSON_AND_ORGANIZATION_ASSIGNMENT ( #462, #120, ( #1039 ) ) ;
#11 = EDGE_LOOP ( 'NONE', ( #228, #210 ) ) ;
#12 = ORIENTED_EDGE ( 'NONE', *, *, #850, .T. ) ;
#13 = DIRECTION ( 'NONE',  ( -0.000000000000000000, -1.000000000000000000, -0.000000000000000000 ) ) ;
#14 = DIRECTION ( 'NONE',  ( 1.000000000000000000, 0.000000000000000000, -0.000000000000000000 ) ) ;
#15 = LINE ( 'NONE', #91, #444 ) ;
#16 = ORIENTED_EDGE ( 'NONE', *, *, #8, .T. ) ;
#17 = APPROVAL ( #586, 'æœª' ) ;
#18 = EDGE_LOOP ( 'NONE', ( #106, #319, #349, #168 ) ) ;
#19 = VECTOR ( 'NONE', #166, 1000.000000000000000 ) ;
#20 = AXIS2_PLACEMENT_3D ( 'NONE', #458, #970, #1063 ) ;
#21 = AXIS2_PLACEMENT_3D ( 'NONE', #624, #186, #535 ) ;
#22 = VECTOR ( 'NONE', #30, 1000.000000000000000 ) ;
#23 = ORIENTED_EDGE ( 'NONE', *, *, #652, .F. ) ;
#24 = DIRECTION ( 'NONE',  ( 0.000000000000000000, 0.000000000000000000, 1.000000000000000000 ) ) ;
#25 = EDGE_CURVE ( 'NONE', #357, #440, #592, .T. ) ;
#26 = ORIENTED_EDGE ( 'NONE', *, *, #770, .F. ) ;
#27 = DIRECTION ( 'NONE',  ( -0.000000000000000000, -1.000000000000000000, -0.000000000000000000 ) ) ;
#28 = CARTESIAN_POINT ( 'NONE',  ( 11.99999999999999645, 3.000000000000000000, -15.00000000000000355 ) ) ;
#29 = ORIENTED_EDGE ( 'NONE', *, *, #119, .F. ) ;
#30 = DIRECTION ( 'NONE',  ( -0.000000000000000000, -0.000000000000000000, 1.000000000000000000 ) ) ;
#31 = DATE_TIME_ROLE ( 'creation_date' ) ;
#32 = CARTESIAN_POINT ( 'NONE',  ( 21.00000000000000711, 0.000000000000000000, 14.99999999999999645 ) ) ;
#33 = CARTESIAN_POINT ( 'NONE',  ( -20.99999999999999289, 52.00000000000000711, 15.00000000000000000 ) ) ;
#34 = EDGE_LOOP ( 'NONE', ( #662, #329, #50, #890 ) ) ;
#35 = DIRECTION ( 'NONE',  ( -0.000000000000000000, -1.000000000000000000, -0.000000000000000000 ) ) ;
#36 = CARTESIAN_POINT ( 'NONE',  ( -20.99999999999999289, 3.000000000000000000, -20.00000000000000355 ) ) ;
#37 = EDGE_CURVE ( 'NONE', #803, #207, #679, .T. ) ;
#38 = CARTESIAN_POINT ( 'NONE',  ( -12.00000000000000355, 3.000000000000000000, -13.49999999999999822 ) ) ;
#39 = CARTESIAN_POINT ( 'NONE',  ( -20.99999999999999289, 3.000000000000000000, 19.99999999999999645 ) ) ;
#40 = AXIS2_PLACEMENT_3D ( 'NONE', #46, #397, #408 ) ;
#41 = AXIS2_PLACEMENT_3D ( 'NONE', #94, #14, #272 ) ;
#42 = DIRECTION ( 'NONE',  ( -0.000000000000000000, -1.000000000000000000, -0.000000000000000000 ) ) ;
#43 = EDGE_CURVE ( 'NONE', #230, #627, #308, .T. ) ;
#44 = DIRECTION ( 'NONE',  ( -0.000000000000000000, -1.000000000000000000, -0.000000000000000000 ) ) ;
#45 = ORIENTED_EDGE ( 'NONE', *, *, #877, .T. ) ;
#46 = CARTESIAN_POINT ( 'NONE',  ( -17.99999999999999645, 15.50000000000000000, -15.49999999999999822 ) ) ;
#47 = ORIENTED_EDGE ( 'NONE', *, *, #79, .T. ) ;
#48 = CARTESIAN_POINT ( 'NONE',  ( -17.99999999999999645, 47.00000000000000711, -20.00000000000000355 ) ) ;
#49 = EDGE_CURVE ( 'NONE', #978, #958, #15, .T. ) ;
#50 = ORIENTED_EDGE ( 'NONE', *, *, #519, .T. ) ;
#51 = FACE_BOUND ( 'NONE', #989, .T. ) ;
#52 = ORIENTED_EDGE ( 'NONE', *, *, #420, .F. ) ;
#53 = CARTESIAN_POINT ( 'NONE',  ( 15.99999999999999645, 3.000000000000000000, 19.99999999999999645 ) ) ;
#54 = DIRECTION ( 'NONE',  ( -1.000000000000000000, 0.000000000000000000, 0.000000000000000000 ) ) ;
#55 = AXIS2_PLACEMENT_3D ( 'NONE', #28, #1044, #883 ) ;
#56 = AXIS2_PLACEMENT_3D ( 'NONE', #751, #321, #326 ) ;
#57 = EDGE_CURVE ( 'NONE', #537, #251, #489, .T. ) ;
#58 = CC_DESIGN_SECURITY_CLASSIFICATION ( #563, ( #950 ) ) ;
#59 = DIRECTION ( 'NONE',  ( -1.000000000000000000, 0.000000000000000000, 0.000000000000000000 ) ) ;
#60 = ORIENTED_EDGE ( 'NONE', *, *, #1064, .F. ) ;
#61 = DIRECTION ( 'NONE',  ( -0.000000000000000000, 1.000000000000000000, -1.416100796715760863E-16 ) ) ;
#62 = DATE_AND_TIME ( #158, #844 ) ;
#63 = CARTESIAN_POINT ( 'NONE',  ( -20.99999999999999289, 46.50000000000000000, -15.50000000000000000 ) ) ;
#64 = ORIENTED_EDGE ( 'NONE', *, *, #554, .F. ) ;
#65 = FACE_OUTER_BOUND ( 'NONE', #526, .T. ) ;
#66 = DIRECTION ( 'NONE',  ( 0.000000000000000000, 0.000000000000000000, 1.000000000000000000 ) ) ;
#67 = CARTESIAN_POINT ( 'NONE',  ( -17.99999999999999645, 15.50000000000000000, -13.99999999999999467 ) ) ;
#68 = EDGE_CURVE ( 'NONE', #516, #779, #515, .T. ) ;
#69 = DIRECTION ( 'NONE',  ( 0.000000000000000000, 1.000000000000000000, 0.000000000000000000 ) ) ;
#70 = VECTOR ( 'NONE', #77, 1000.000000000000000 ) ;
#71 = CYLINDRICAL_SURFACE ( 'NONE', #512, 1.499999999999999556 ) ;
#72 = AXIS2_PLACEMENT_3D ( 'NONE', #838, #834, #66 ) ;
#73 = UNCERTAINTY_MEASURE_WITH_UNIT (LENGTH_MEASURE( 1.000000000000000082E-05 ), #381, 'distance_accuracy_value', 'NONE');
#74 = APPROVAL_PERSON_ORGANIZATION ( #417, #17, #496 ) ;
#75 = DIRECTION ( 'NONE',  ( -1.000000000000000000, 0.000000000000000000, 0.000000000000000000 ) ) ;
#76 = CARTESIAN_POINT ( 'NONE',  ( -20.99999999999999289, 46.50000000000000000, 13.99999999999999822 ) ) ;
#77 = DIRECTION ( 'NONE',  ( -1.000000000000000000, 0.000000000000000000, 0.000000000000000000 ) ) ;
#78 = FACE_OUTER_BOUND ( 'NONE', #1079, .T. ) ;
#79 = EDGE_CURVE ( 'NONE', #516, #98, #466, .T. ) ;
#80 = ORIENTED_EDGE ( 'NONE', *, *, #402, .T. ) ;
#81 = DIRECTION ( 'NONE',  ( -1.000000000000000000, 0.000000000000000000, 0.000000000000000000 ) ) ;
#82 = EDGE_LOOP ( 'NONE', ( #273, #864, #459, #697 ) ) ;
#83 = DIRECTION ( 'NONE',  ( -1.000000000000000000, 0.000000000000000000, 0.000000000000000000 ) ) ;
#84 = ADVANCED_FACE ( 'NONE', ( #598 ), #518, .F. ) ;
#85 = CIRCLE ( 'NONE', #396, 5.000000000000000888 ) ;
#86 = AXIS2_PLACEMENT_3D ( 'NONE', #807, #456, #708 ) ;
#87 = EDGE_CURVE ( 'NONE', #996, #588, #904, .T. ) ;
#88 = AXIS2_PLACEMENT_3D ( 'NONE', #99, #204, #886 ) ;
#89 = DIRECTION ( 'NONE',  ( 0.000000000000000000, 1.000000000000000000, 0.000000000000000000 ) ) ;
#90 = ORIENTED_EDGE ( 'NONE', *, *, #554, .T. ) ;
#91 = CARTESIAN_POINT ( 'NONE',  ( -12.00000000000000355, 3.000000000000000000, 13.49999999999999822 ) ) ;
#92 = VERTEX_POINT ( 'NONE', #1052 ) ;
#93 = CARTESIAN_POINT ( 'NONE',  ( -17.99999999999999645, 46.50000000000000000, -13.99999999999999822 ) ) ;
#94 = CARTESIAN_POINT ( 'NONE',  ( -17.99999999999999645, 0.000000000000000000, 0.000000000000000000 ) ) ;
#95 = ADVANCED_FACE ( 'NONE', ( #802 ), #303, .F. ) ;
#96 = VERTEX_POINT ( 'NONE', #33 ) ;
#97 = ORIENTED_EDGE ( 'NONE', *, *, #1018, .F. ) ;
#98 = VERTEX_POINT ( 'NONE', #452 ) ;
#99 = CARTESIAN_POINT ( 'NONE',  ( 16.00000000000000711, 0.000000000000000000, 14.99999999999999645 ) ) ;
#100 = VECTOR ( 'NONE', #61, 1000.000000000000000 ) ;
#101 = AXIS2_PLACEMENT_3D ( 'NONE', #823, #664, #1002 ) ;
#102 = CARTESIAN_POINT ( 'NONE',  ( -17.99999999999999645, 31.00000000000000000, -11.50000000000000178 ) ) ;
#103 = AXIS2_PLACEMENT_3D ( 'NONE', #238, #882, #646 ) ;
#104 = ORIENTED_EDGE ( 'NONE', *, *, #1034, .F. ) ;
#105 = DIRECTION ( 'NONE',  ( 0.000000000000000000, 0.000000000000000000, -1.000000000000000000 ) ) ;
#106 = ORIENTED_EDGE ( 'NONE', *, *, #148, .T. ) ;
#107 = VERTEX_POINT ( 'NONE', #990 ) ;
#108 = DIRECTION ( 'NONE',  ( 0.000000000000000000, 0.000000000000000000, 1.000000000000000000 ) ) ;
#109 = FACE_OUTER_BOUND ( 'NONE', #869, .T. ) ;
#110 = ORIENTED_EDGE ( 'NONE', *, *, #43, .T. ) ;
#111 = CARTESIAN_POINT ( 'NONE',  ( -17.99999999999999645, 15.50000000000000000, -15.49999999999999822 ) ) ;
#112 = ORIENTED_EDGE ( 'NONE', *, *, #743, .F. ) ;
#113 = ADVANCED_FACE ( 'NONE', ( #723 ), #131, .F. ) ;
#114 = CARTESIAN_POINT ( 'NONE',  ( -12.00000000000000355, 3.000000000000000000, 16.50000000000000000 ) ) ;
#115 = VERTEX_POINT ( 'NONE', #297 ) ;
#116 = LINE ( 'NONE', #38, #992 ) ;
#117 = DIRECTION ( 'NONE',  ( 0.000000000000000000, 0.000000000000000000, -1.000000000000000000 ) ) ;
#118 = ORIENTED_EDGE ( 'NONE', *, *, #355, .T. ) ;
#119 = EDGE_CURVE ( 'NONE', #252, #315, #126, .T. ) ;
#120 = PERSON_AND_ORGANIZATION_ROLE ( 'design_owner' ) ;
#121 = AXIS2_PLACEMENT_3D ( 'NONE', #596, #530, #938 ) ;
#122 = ORIENTED_EDGE ( 'NONE', *, *, #604, .F. ) ;
#123 = LINE ( 'NONE', #93, #347 ) ;
#124 = CIRCLE ( 'NONE', #857, 1.500000000000001332 ) ;
#125 = VERTEX_POINT ( 'NONE', #385 ) ;
#126 = LINE ( 'NONE', #201, #220 ) ;
#127 = LOCAL_TIME ( 20, 57, 15.00000000000000000, #631 ) ;
#128 = ORIENTED_EDGE ( 'NONE', *, *, #248, .F. ) ;
#129 = CYLINDRICAL_SURFACE ( 'NONE', #671, 1.500000000000001332 ) ;
#130 = ORIENTED_EDGE ( 'NONE', *, *, #924, .T. ) ;
#131 = CYLINDRICAL_SURFACE ( 'NONE', #284, 1.500000000000001332 ) ;
#132 = EDGE_LOOP ( 'NONE', ( #216, #47 ) ) ;
#133 = DIRECTION ( 'NONE',  ( 0.000000000000000000, 0.000000000000000000, -1.000000000000000000 ) ) ;
#134 = ORIENTED_EDGE ( 'NONE', *, *, #830, .T. ) ;
#135 = DIRECTION ( 'NONE',  ( -1.000000000000000000, 0.000000000000000000, 0.000000000000000000 ) ) ;
#136 = ORIENTED_EDGE ( 'NONE', *, *, #1047, .T. ) ;
#137 = CARTESIAN_POINT ( 'NONE',  ( -12.00000000000000355, 3.000000000000000000, -16.50000000000000000 ) ) ;
#138 = EDGE_CURVE ( 'NONE', #252, #606, #309, .T. ) ;
#139 = PERSON_AND_ORGANIZATION_ROLE ( 'creator' ) ;
#140 = CARTESIAN_POINT ( 'NONE',  ( -17.99999999999999645, 15.50000000000000000, 15.49999999999999822 ) ) ;
#141 = CARTESIAN_POINT ( 'NONE',  ( -17.99999999999999645, 47.00000000000000711, 19.99999999999998934 ) ) ;
#142 = VECTOR ( 'NONE', #105, 1000.000000000000000 ) ;
#143 = CIRCLE ( 'NONE', #704, 1.500000000000001332 ) ;
#144 = AXIS2_PLACEMENT_3D ( 'NONE', #957, #536, #929 ) ;
#145 = DIRECTION ( 'NONE',  ( 0.000000000000000000, 0.000000000000000000, -1.000000000000000000 ) ) ;
#146 = CARTESIAN_POINT ( 'NONE',  ( -17.99999999999999645, 3.000000000000000000, -20.00000000000000355 ) ) ;
#147 = FACE_OUTER_BOUND ( 'NONE', #1003, .T. ) ;
#148 = EDGE_CURVE ( 'NONE', #1055, #976, #825, .T. ) ;
#149 = DIRECTION ( 'NONE',  ( 0.000000000000000000, 0.000000000000000000, -1.000000000000000000 ) ) ;
#150 = CARTESIAN_POINT ( 'NONE',  ( 21.00000000000000711, 3.000000000000000000, 14.99999999999999645 ) ) ;
#151 = DIRECTION ( 'NONE',  ( 1.000000000000000000, -0.000000000000000000, -0.000000000000000000 ) ) ;
#152 = EDGE_CURVE ( 'NONE', #92, #213, #1, .T. ) ;
#153 = DIRECTION ( 'NONE',  ( 0.000000000000000000, -1.000000000000000000, 0.000000000000000000 ) ) ;
#154 = VECTOR ( 'NONE', #939, 1000.000000000000000 ) ;
#155 = CIRCLE ( 'NONE', #587, 1.499999999999999556 ) ;
#156 = AXIS2_PLACEMENT_3D ( 'NONE', #310, #1011, #404 ) ;
#157 = CIRCLE ( 'NONE', #103, 1.500000000000001332 ) ;
#158 = CALENDAR_DATE ( 2026, 7, 5 ) ;
#159 = DIRECTION ( 'NONE',  ( -1.000000000000000000, 0.000000000000000000, 0.000000000000000000 ) ) ;
#160 = FACE_OUTER_BOUND ( 'NONE', #916, .T. ) ;
#161 = EDGE_CURVE ( 'NONE', #282, #784, #346, .T. ) ;
#162 = DIRECTION ( 'NONE',  ( -1.000000000000000000, 0.000000000000000000, 0.000000000000000000 ) ) ;
#163 = FACE_BOUND ( 'NONE', #317, .T. ) ;
#164 = FACE_OUTER_BOUND ( 'NONE', #622, .T. ) ;
#165 = PLANE ( 'NONE',  #759 ) ;
#166 = DIRECTION ( 'NONE',  ( 1.000000000000000000, -0.000000000000000000, -0.000000000000000000 ) ) ;
#167 = CC_DESIGN_PERSON_AND_ORGANIZATION_ASSIGNMENT ( #986, #139, ( #257 ) ) ;
#168 = ORIENTED_EDGE ( 'NONE', *, *, #933, .F. ) ;
#169 = DIRECTION ( 'NONE',  ( -1.000000000000000000, 0.000000000000000000, 0.000000000000000000 ) ) ;
#170 = ORIENTED_EDGE ( 'NONE', *, *, #280, .T. ) ;
#171 = CARTESIAN_POINT ( 'NONE',  ( 11.99999999999999645, 3.000000000000000000, -15.00000000000000355 ) ) ;
#172 = DIRECTION ( 'NONE',  ( 0.000000000000000000, 0.000000000000000000, 1.000000000000000000 ) ) ;
#173 = AXIS2_PLACEMENT_3D ( 'NONE', #570, #665, #911 ) ;
#174 = ORIENTED_EDGE ( 'NONE', *, *, #766, .T. ) ;
#175 = AXIS2_PLACEMENT_3D ( 'NONE', #755, #995, #749 ) ;
#176 = AXIS2_PLACEMENT_3D ( 'NONE', #667, #1009, #580 ) ;
#177 = EDGE_LOOP ( 'NONE', ( #351, #553 ) ) ;
#178 = DIRECTION ( 'NONE',  ( 0.000000000000000000, -1.000000000000000000, 0.000000000000000000 ) ) ;
#179 = ORIENTED_EDGE ( 'NONE', *, *, #390, .T. ) ;
#180 = ORIENTED_EDGE ( 'NONE', *, *, #57, .T. ) ;
#181 = ADVANCED_BREP_SHAPE_REPRESENTATION ( '42\X2\6b658fdb7535673a652f67b6\X0\', ( #247, #416 ), #288 ) ;
#182 = ORIENTED_EDGE ( 'NONE', *, *, #618, .T. ) ;
#183 = DIRECTION ( 'NONE',  ( 0.000000000000000000, -1.000000000000000000, 0.000000000000000000 ) ) ;
#184 = LINE ( 'NONE', #533, #630 ) ;
#185 = EDGE_CURVE ( 'NONE', #852, #732, #278, .T. ) ;
#186 = DIRECTION ( 'NONE',  ( -1.000000000000000000, 0.000000000000000000, 0.000000000000000000 ) ) ;
#187 = CARTESIAN_POINT ( 'NONE',  ( -12.00000000000000355, 0.000000000000000000, 15.00000000000000000 ) ) ;
#188 = VERTEX_POINT ( 'NONE', #1057 ) ;
#189 = VERTEX_POINT ( 'NONE', #897 ) ;
#190 = ORIENTED_EDGE ( 'NONE', *, *, #797, .T. ) ;
#191 = ORIENTED_EDGE ( 'NONE', *, *, #87, .F. ) ;
#192 = CARTESIAN_POINT ( 'NONE',  ( -20.99999999999999289, 46.50000000000000000, 15.50000000000000000 ) ) ;
#193 = DIRECTION ( 'NONE',  ( 0.000000000000000000, 0.000000000000000000, -1.000000000000000000 ) ) ;
#194 = ORIENTED_EDGE ( 'NONE', *, *, #185, .F. ) ;
#195 = DIRECTION ( 'NONE',  ( 1.000000000000000000, 0.000000000000000000, -0.000000000000000000 ) ) ;
#196 = VECTOR ( 'NONE', #574, 1000.000000000000000 ) ;
#197 = CARTESIAN_POINT ( 'NONE',  ( 12.00000000000000355, 0.000000000000000000, 13.49999999999999822 ) ) ;
#198 = CYLINDRICAL_SURFACE ( 'NONE', #591, 1.500000000000001332 ) ;
#199 = AXIS2_PLACEMENT_3D ( 'NONE', #242, #701, #1105 ) ;
#200 = EDGE_LOOP ( 'NONE', ( #190, #203 ) ) ;
#201 = CARTESIAN_POINT ( 'NONE',  ( -17.99999999999999645, 3.000000000000000000, -20.00000000000000355 ) ) ;
#202 = ADVANCED_FACE ( 'NONE', ( #635 ), #389, .F. ) ;
#203 = ORIENTED_EDGE ( 'NONE', *, *, #161, .T. ) ;
#204 = DIRECTION ( 'NONE',  ( 0.000000000000000000, -1.000000000000000000, 0.000000000000000000 ) ) ;
#205 = APPROVAL_DATE_TIME ( #973, #855 ) ;
#206 = DIRECTION ( 'NONE',  ( 0.000000000000000000, 0.000000000000000000, -1.000000000000000000 ) ) ;
#207 = VERTEX_POINT ( 'NONE', #730 ) ;
#208 = DIRECTION ( 'NONE',  ( -0.000000000000000000, -1.000000000000000000, -0.000000000000000000 ) ) ;
#209 = ADVANCED_FACE ( 'NONE', ( #641 ), #984, .F. ) ;
#210 = ORIENTED_EDGE ( 'NONE', *, *, #652, .T. ) ;
#211 = ADVANCED_FACE ( 'NONE', ( #543 ), #795, .F. ) ;
#212 =( NAMED_UNIT ( * ) PLANE_ANGLE_UNIT ( ) SI_UNIT ( $, .RADIAN. ) );
#213 = VERTEX_POINT ( 'NONE', #581 ) ;
#214 = DIRECTION ( 'NONE',  ( 0.000000000000000000, 1.000000000000000000, 0.000000000000000000 ) ) ;
#215 = DIRECTION ( 'NONE',  ( 1.000000000000000000, 0.000000000000000000, -0.000000000000000000 ) ) ;
#216 = ORIENTED_EDGE ( 'NONE', *, *, #243, .T. ) ;
#217 = CARTESIAN_POINT ( 'NONE',  ( -12.00000000000000355, 3.000000000000000000, 15.00000000000000000 ) ) ;
#218 = CARTESIAN_POINT ( 'NONE',  ( 16.00000000000000711, 3.000000000000000000, 14.99999999999999645 ) ) ;
#219 = APPROVAL_DATE_TIME ( #395, #926 ) ;
#220 = VECTOR ( 'NONE', #816, 1000.000000000000000 ) ;
#221 = LINE ( 'NONE', #67, #467 ) ;
#222 = DIRECTION ( 'NONE',  ( 0.000000000000000000, 1.000000000000000000, -0.000000000000000000 ) ) ;
#223 = VECTOR ( 'NONE', #27, 1000.000000000000000 ) ;
#224 = EDGE_LOOP ( 'NONE', ( #514, #436, #718, #341 ) ) ;
#225 = EDGE_CURVE ( 'NONE', #315, #852, #833, .T. ) ;
#226 = VERTEX_POINT ( 'NONE', #928 ) ;
#227 = CARTESIAN_POINT ( 'NONE',  ( -17.99999999999999645, 31.00000000000000000, 11.50000000000000178 ) ) ;
#228 = ORIENTED_EDGE ( 'NONE', *, *, #603, .T. ) ;
#229 = CARTESIAN_POINT ( 'NONE',  ( -20.99999999999999289, 47.00000000000000711, 19.99999999999999645 ) ) ;
#230 = VERTEX_POINT ( 'NONE', #137 ) ;
#231 = DIRECTION ( 'NONE',  ( 0.000000000000000000, 0.000000000000000000, -1.000000000000000000 ) ) ;
#232 = EDGE_LOOP ( 'NONE', ( #828, #1104, #194, #908, #792, #725 ) ) ;
#233 = CARTESIAN_POINT ( 'NONE',  ( -17.99999999999999645, 31.00000000000000000, 0.000000000000000000 ) ) ;
#234 = PERSON_AND_ORGANIZATION ( #709, #335 ) ;
#235 = CYLINDRICAL_SURFACE ( 'NONE', #333, 1.499999999999999556 ) ;
#236 = LINE ( 'NONE', #578, #724 ) ;
#237 = EDGE_CURVE ( 'NONE', #1053, #712, #1056, .T. ) ;
#238 = CARTESIAN_POINT ( 'NONE',  ( 12.00000000000000355, 3.000000000000000000, 15.00000000000000000 ) ) ;
#239 = ORIENTED_EDGE ( 'NONE', *, *, #985, .T. ) ;
#240 = DIRECTION ( 'NONE',  ( 0.000000000000000000, 0.000000000000000000, 1.000000000000000000 ) ) ;
#241 = DIRECTION ( 'NONE',  ( 0.000000000000000000, 0.000000000000000000, 1.000000000000000000 ) ) ;
#242 = CARTESIAN_POINT ( 'NONE',  ( -17.99999999999999645, 46.50000000000000000, 15.50000000000000000 ) ) ;
#243 = EDGE_CURVE ( 'NONE', #98, #516, #788, .T. ) ;
#244 = PRODUCT_RELATED_PRODUCT_CATEGORY ( 'detail', '', ( #1039 ) ) ;
#245 = SECURITY_CLASSIFICATION_LEVEL ( 'unclassified' ) ;
#246 = CARTESIAN_POINT ( 'NONE',  ( -20.99999999999999289, 47.00000000000000711, 14.99999999999999645 ) ) ;
#247 = MANIFOLD_SOLID_BREP ( '\X2\570689d2\X0\2', #506 ) ;
#248 = EDGE_CURVE ( 'NONE', #627, #230, #576, .T. ) ;
#249 = ORIENTED_EDGE ( 'NONE', *, *, #57, .F. ) ;
#250 = DIRECTION ( 'NONE',  ( 0.000000000000000000, 0.000000000000000000, -1.000000000000000000 ) ) ;
#251 = VERTEX_POINT ( 'NONE', #498 ) ;
#252 = VERTEX_POINT ( 'NONE', #48 ) ;
#253 = CIRCLE ( 'NONE', #380, 5.000000000000000888 ) ;
#254 = DIRECTION ( 'NONE',  ( -1.000000000000000000, 0.000000000000000000, 0.000000000000000000 ) ) ;
#255 = VECTOR ( 'NONE', #777, 1000.000000000000000 ) ;
#256 = CIRCLE ( 'NONE', #949, 1.500000000000001332 ) ;
#257 = PRODUCT_DEFINITION ( 'æœ', '', #950, #1019 ) ;
#258 = CARTESIAN_POINT ( 'NONE',  ( 11.99999999999999645, 0.000000000000000000, -15.00000000000000355 ) ) ;
#259 = VERTEX_POINT ( 'NONE', #141 ) ;
#260 = ORIENTED_EDGE ( 'NONE', *, *, #79, .F. ) ;
#261 = ORIENTED_EDGE ( 'NONE', *, *, #529, .T. ) ;
#262 = DIRECTION ( 'NONE',  ( -0.000000000000000000, -0.000000000000000000, -1.000000000000000000 ) ) ;
#263 = ORIENTED_EDGE ( 'NONE', *, *, #507, .F. ) ;
#264 = CARTESIAN_POINT ( 'NONE',  ( -17.99999999999999645, 52.00000000000000711, 14.99999999999999645 ) ) ;
#265 = CYLINDRICAL_SURFACE ( 'NONE', #1036, 1.500000000000001332 ) ;
#266 = EDGE_CURVE ( 'NONE', #491, #502, #997, .T. ) ;
#267 = ORIENTED_EDGE ( 'NONE', *, *, #453, .F. ) ;
#268 = LINE ( 'NONE', #628, #654 ) ;
#269 = CIRCLE ( 'NONE', #21, 1.500000000000003109 ) ;
#270 = AXIS2_PLACEMENT_3D ( 'NONE', #277, #215, #193 ) ;
#271 = DIRECTION ( 'NONE',  ( 0.000000000000000000, 0.000000000000000000, -1.000000000000000000 ) ) ;
#272 = DIRECTION ( 'NONE',  ( -0.000000000000000000, 0.000000000000000000, -1.000000000000000000 ) ) ;
#273 = ORIENTED_EDGE ( 'NONE', *, *, #618, .F. ) ;
#274 = DIRECTION ( 'NONE',  ( -0.000000000000000000, -1.000000000000000000, -0.000000000000000000 ) ) ;
#275 = APPLICATION_CONTEXT ( 'configuration controlled 3d designs of mechanical parts and assemblies' ) ;
#276 = DIRECTION ( 'NONE',  ( 0.000000000000000000, 1.000000000000000000, 0.000000000000000000 ) ) ;
#277 = CARTESIAN_POINT ( 'NONE',  ( -17.99999999999999645, 47.00000000000000711, 14.99999999999999645 ) ) ;
#278 = LINE ( 'NONE', #39, #969 ) ;
#279 = ORIENTED_EDGE ( 'NONE', *, *, #1007, .T. ) ;
#280 = EDGE_CURVE ( 'NONE', #92, #537, #758, .T. ) ;
#281 = FACE_OUTER_BOUND ( 'NONE', #993, .T. ) ;
#282 = VERTEX_POINT ( 'NONE', #330 ) ;
#283 = EDGE_LOOP ( 'NONE', ( #26, #1035, #424, #640 ) ) ;
#284 = AXIS2_PLACEMENT_3D ( 'NONE', #891, #789, #24 ) ;
#285 = APPROVAL_ROLE ( '' ) ;
#286 = CIRCLE ( 'NONE', #921, 1.500000000000001332 ) ;
#287 = CARTESIAN_POINT ( 'NONE',  ( -20.99999999999999289, 15.50000000000000000, -17.00000000000000000 ) ) ;
#288 =( GEOMETRIC_REPRESENTATION_CONTEXT ( 3 ) GLOBAL_UNCERTAINTY_ASSIGNED_CONTEXT ( ( #73 ) ) GLOBAL_UNIT_ASSIGNED_CONTEXT ( ( #381, #212, #888 ) ) REPRESENTATION_CONTEXT ( 'NONE', 'WORKASPACE' ) );
#289 = EDGE_CURVE ( 'NONE', #357, #96, #85, .T. ) ;
#290 = EDGE_LOOP ( 'NONE', ( #484, #956, #1070, #953 ) ) ;
#291 = CARTESIAN_POINT ( 'NONE',  ( 21.00000000000000711, 3.000000000000000000, 19.99999999999999645 ) ) ;
#292 = EDGE_CURVE ( 'NONE', #779, #778, #155, .T. ) ;
#293 = EDGE_LOOP ( 'NONE', ( #885, #981, #388, #304 ) ) ;
#294 = CARTESIAN_POINT ( 'NONE',  ( 11.99999999999999645, 0.000000000000000000, -13.50000000000000178 ) ) ;
#295 = CARTESIAN_POINT ( 'NONE',  ( -20.99999999999999289, 31.00000000000000000, -11.50000000000000178 ) ) ;
#296 = ORIENTED_EDGE ( 'NONE', *, *, #429, .F. ) ;
#297 = CARTESIAN_POINT ( 'NONE',  ( 15.99999999999999645, 0.000000000000000000, 19.99999999999999645 ) ) ;
#298 = ORIENTED_EDGE ( 'NONE', *, *, #830, .F. ) ;
#299 = CALENDAR_DATE ( 2026, 7, 5 ) ;
#300 = DIRECTION ( 'NONE',  ( -1.000000000000000000, 0.000000000000000000, 0.000000000000000000 ) ) ;
#301 = LINE ( 'NONE', #548, #858 ) ;
#302 = ORIENTED_EDGE ( 'NONE', *, *, #729, .F. ) ;
#303 = CYLINDRICAL_SURFACE ( 'NONE', #932, 1.500000000000001332 ) ;
#304 = ORIENTED_EDGE ( 'NONE', *, *, #674, .F. ) ;
#305 = FACE_OUTER_BOUND ( 'NONE', #1025, .T. ) ;
#306 = EDGE_CURVE ( 'NONE', #784, #1030, #236, .T. ) ;
#307 = FACE_OUTER_BOUND ( 'NONE', #540, .T. ) ;
#308 = CIRCLE ( 'NONE', #931, 1.500000000000001332 ) ;
#309 = CIRCLE ( 'NONE', #839, 5.000000000000000888 ) ;
#310 = CARTESIAN_POINT ( 'NONE',  ( 0.000000000000000000, 3.000000000000000000, 0.000000000000000000 ) ) ;
#311 = VECTOR ( 'NONE', #819, 1000.000000000000000 ) ;
#312 = ORIENTED_EDGE ( 'NONE', *, *, #763, .F. ) ;
#313 = CARTESIAN_POINT ( 'NONE',  ( -20.99999999999999289, 52.00000000000000711, -15.00000000000000355 ) ) ;
#314 = CIRCLE ( 'NONE', #384, 1.500000000000001332 ) ;
#315 = VERTEX_POINT ( 'NONE', #1077 ) ;
#316 = COORDINATED_UNIVERSAL_TIME_OFFSET ( 8, 0, .AHEAD. ) ;
#317 = EDGE_LOOP ( 'NONE', ( #735, #371 ) ) ;
#318 = CARTESIAN_POINT ( 'NONE',  ( -20.99999999999999289, 15.50000000000000000, 15.49999999999999822 ) ) ;
#319 = ORIENTED_EDGE ( 'NONE', *, *, #770, .T. ) ;
#320 = DIRECTION ( 'NONE',  ( -1.000000000000000000, 0.000000000000000000, -0.000000000000000000 ) ) ;
#321 = DIRECTION ( 'NONE',  ( 1.000000000000000000, -0.000000000000000000, 0.000000000000000000 ) ) ;
#322 = ORIENTED_EDGE ( 'NONE', *, *, #68, .F. ) ;
#323 = CARTESIAN_POINT ( 'NONE',  ( -20.99999999999999289, 46.50000000000000000, -13.99999999999999822 ) ) ;
#324 = EDGE_CURVE ( 'NONE', #852, #259, #1085, .T. ) ;
#325 = DIRECTION ( 'NONE',  ( 0.000000000000000000, 1.000000000000000000, -0.000000000000000000 ) ) ;
#326 = DIRECTION ( 'NONE',  ( 0.000000000000000000, 0.000000000000000000, -1.000000000000000000 ) ) ;
#327 = DIRECTION ( 'NONE',  ( 0.000000000000000000, 0.000000000000000000, 1.000000000000000000 ) ) ;
#328 = CIRCLE ( 'NONE', #1094, 1.500000000000001332 ) ;
#329 = ORIENTED_EDGE ( 'NONE', *, *, #575, .T. ) ;
#330 = CARTESIAN_POINT ( 'NONE',  ( -17.99999999999999645, 46.50000000000000000, 13.99999999999999822 ) ) ;
#331 = EDGE_CURVE ( 'NONE', #742, #559, #626, .T. ) ;
#332 = CIRCLE ( 'NONE', #86, 1.500000000000001332 ) ;
#333 = AXIS2_PLACEMENT_3D ( 'NONE', #140, #59, #327 ) ;
#334 = EDGE_CURVE ( 'NONE', #356, #643, #253, .T. ) ;
#335 = ORGANIZATION ( 'æœª', 'æœª', '' ) ;
#336 = DIRECTION ( 'NONE',  ( -1.000000000000000000, 0.000000000000000000, 0.000000000000000000 ) ) ;
#337 = ORIENTED_EDGE ( 'NONE', *, *, #289, .F. ) ;
#338 = FACE_BOUND ( 'NONE', #11, .T. ) ;
#339 = APPLICATION_CONTEXT ( 'configuration controlled 3d designs of mechanical parts and assemblies' ) ;
#340 = ORIENTED_EDGE ( 'NONE', *, *, #985, .F. ) ;
#341 = ORIENTED_EDGE ( 'NONE', *, *, #805, .F. ) ;
#342 = ADVANCED_FACE ( 'NONE', ( #479 ), #1001, .F. ) ;
#343 = DIRECTION ( 'NONE',  ( 0.000000000000000000, 0.000000000000000000, 1.000000000000000000 ) ) ;
#344 = ORIENTED_EDGE ( 'NONE', *, *, #1082, .F. ) ;
#345 = CARTESIAN_POINT ( 'NONE',  ( -20.99999999999999289, 0.000000000000000000, 19.99999999999999645 ) ) ;
#346 = CIRCLE ( 'NONE', #364, 1.500000000000001332 ) ;
#347 = VECTOR ( 'NONE', #471, 1000.000000000000000 ) ;
#348 = ORIENTED_EDGE ( 'NONE', *, *, #603, .F. ) ;
#349 = ORIENTED_EDGE ( 'NONE', *, *, #390, .F. ) ;
#350 = LINE ( 'NONE', #847, #841 ) ;
#351 = ORIENTED_EDGE ( 'NONE', *, *, #731, .F. ) ;
#352 = ORIENTED_EDGE ( 'NONE', *, *, #495, .F. ) ;
#353 = PLANE ( 'NONE',  #673 ) ;
#354 = LINE ( 'NONE', #695, #790 ) ;
#355 = EDGE_CURVE ( 'NONE', #937, #125, #669, .T. ) ;
#356 = VERTEX_POINT ( 'NONE', #313 ) ;
#357 = VERTEX_POINT ( 'NONE', #229 ) ;
#358 = LINE ( 'NONE', #804, #428 ) ;
#359 = ORIENTED_EDGE ( 'NONE', *, *, #225, .F. ) ;
#360 = CARTESIAN_POINT ( 'NONE',  ( -17.99999999999999645, 31.00000000000000000, 0.000000000000000000 ) ) ;
#361 = CARTESIAN_POINT ( 'NONE',  ( -12.00000000000000355, 3.000000000000000000, 13.49999999999999822 ) ) ;
#362 = LINE ( 'NONE', #5, #19 ) ;
#363 = EDGE_CURVE ( 'NONE', #803, #978, #1021, .T. ) ;
#364 = AXIS2_PLACEMENT_3D ( 'NONE', #464, #810, #474 ) ;
#365 = VERTEX_POINT ( 'NONE', #824 ) ;
#366 = AXIS2_PLACEMENT_3D ( 'NONE', #613, #89, #517 ) ;
#367 = VECTOR ( 'NONE', #722, 1000.000000000000000 ) ;
#368 = LINE ( 'NONE', #895, #1095 ) ;
#369 = ORIENTED_EDGE ( 'NONE', *, *, #87, .T. ) ;
#370 = CARTESIAN_POINT ( 'NONE',  ( -20.99999999999999289, 0.000000000000000000, 19.99999999999999645 ) ) ;
#371 = ORIENTED_EDGE ( 'NONE', *, *, #152, .T. ) ;
#372 = DIRECTION ( 'NONE',  ( -1.000000000000000000, 0.000000000000000000, 0.000000000000000000 ) ) ;
#373 = DIRECTION ( 'NONE',  ( -1.000000000000000000, 0.000000000000000000, 0.000000000000000000 ) ) ;
#374 = ORIENTED_EDGE ( 'NONE', *, *, #68, .T. ) ;
#375 = ADVANCED_FACE ( 'NONE', ( #65 ), #399, .T. ) ;
#376 = CARTESIAN_POINT ( 'NONE',  ( -12.00000000000000355, 3.000000000000000000, -13.49999999999999822 ) ) ;
#377 = DIRECTION ( 'NONE',  ( 0.000000000000000000, 0.000000000000000000, 1.000000000000000000 ) ) ;
#378 = EDGE_LOOP ( 'NONE', ( #263, #534, #279, #892, #16, #475 ) ) ;
#379 = DIRECTION ( 'NONE',  ( 0.000000000000000000, 1.000000000000000000, 0.000000000000000000 ) ) ;
#380 = AXIS2_PLACEMENT_3D ( 'NONE', #837, #753, #414 ) ;
#381 =( LENGTH_UNIT ( ) NAMED_UNIT ( * ) SI_UNIT ( .MILLI., .METRE. ) );
#382 = CIRCLE ( 'NONE', #40, 1.500000000000003109 ) ;
#383 = DIRECTION ( 'NONE',  ( -1.000000000000000000, 0.000000000000000000, 0.000000000000000000 ) ) ;
#384 = AXIS2_PLACEMENT_3D ( 'NONE', #889, #809, #133 ) ;
#385 = CARTESIAN_POINT ( 'NONE',  ( 11.99999999999999645, 0.000000000000000000, -16.50000000000000355 ) ) ;
#386 = EDGE_LOOP ( 'NONE', ( #260, #374, #874, #344 ) ) ;
#387 = PERSON_AND_ORGANIZATION ( #709, #335 ) ;
#388 = ORIENTED_EDGE ( 'NONE', *, *, #924, .F. ) ;
#389 = CYLINDRICAL_SURFACE ( 'NONE', #920, 1.500000000000001332 ) ;
#390 = EDGE_CURVE ( 'NONE', #125, #937, #328, .T. ) ;
#391 = ORIENTED_EDGE ( 'NONE', *, *, #237, .T. ) ;
#392 = CARTESIAN_POINT ( 'NONE',  ( 21.00000000000000711, 3.000000000000000000, 14.99999999999999645 ) ) ;
#393 = VERTEX_POINT ( 'NONE', #76 ) ;
#394 = ORIENTED_EDGE ( 'NONE', *, *, #266, .F. ) ;
#395 = DATE_AND_TIME ( #913, #901 ) ;
#396 = AXIS2_PLACEMENT_3D ( 'NONE', #246, #320, #584 ) ;
#397 = DIRECTION ( 'NONE',  ( -1.000000000000000000, 0.000000000000000000, 0.000000000000000000 ) ) ;
#398 = CIRCLE ( 'NONE', #726, 1.500000000000001332 ) ;
#399 = CYLINDRICAL_SURFACE ( 'NONE', #946, 5.000000000000000888 ) ;
#400 = AXIS2_PLACEMENT_3D ( 'NONE', #472, #222, #801 ) ;
#401 = PLANE ( 'NONE',  #56 ) ;
#402 = EDGE_CURVE ( 'NONE', #588, #107, #608, .T. ) ;
#403 = PERSON_AND_ORGANIZATION ( #709, #335 ) ;
#404 = DIRECTION ( 'NONE',  ( 0.000000000000000000, -0.000000000000000000, -1.000000000000000000 ) ) ;
#405 = CARTESIAN_POINT ( 'NONE',  ( -17.99999999999999645, 31.00000000000000000, 0.000000000000000000 ) ) ;
#406 = FACE_BOUND ( 'NONE', #965, .T. ) ;
#407 = ADVANCED_FACE ( 'NONE', ( #772, #338, #160, #422, #513 ), #165, .T. ) ;
#408 = DIRECTION ( 'NONE',  ( 0.000000000000000000, 0.000000000000000000, 1.000000000000000000 ) ) ;
#409 = ADVANCED_FACE ( 'NONE', ( #607 ), #265, .F. ) ;
#410 = CARTESIAN_POINT ( 'NONE',  ( -17.99999999999999645, 15.50000000000000000, 15.49999999999999822 ) ) ;
#411 = CARTESIAN_POINT ( 'NONE',  ( -20.99999999999999289, 0.000000000000000000, -20.00000000000000355 ) ) ;
#412 = VECTOR ( 'NONE', #492, 1000.000000000000000 ) ;
#413 = EDGE_LOOP ( 'NONE', ( #780, #769, #786, #340 ) ) ;
#414 = DIRECTION ( 'NONE',  ( 0.000000000000000000, 0.000000000000000000, -1.000000000000000000 ) ) ;
#415 = AXIS2_PLACEMENT_3D ( 'NONE', #425, #691, #843 ) ;
#416 = AXIS2_PLACEMENT_3D ( 'NONE', #556, #468, #1074 ) ;
#417 = PERSON_AND_ORGANIZATION ( #709, #335 ) ;
#418 = ORIENTED_EDGE ( 'NONE', *, *, #306, .T. ) ;
#419 = CYLINDRICAL_SURFACE ( 'NONE', #577, 1.500000000000001332 ) ;
#420 = EDGE_CURVE ( 'NONE', #914, #905, #898, .T. ) ;
#421 = CYLINDRICAL_SURFACE ( 'NONE', #144, 5.000000000000000888 ) ;
#422 = FACE_BOUND ( 'NONE', #775, .T. ) ;
#423 = CARTESIAN_POINT ( 'NONE',  ( -17.99999999999999645, 15.50000000000000000, 15.49999999999999822 ) ) ;
#424 = ORIENTED_EDGE ( 'NONE', *, *, #933, .T. ) ;
#425 = CARTESIAN_POINT ( 'NONE',  ( 16.00000000000000711, 3.000000000000000000, 14.99999999999999645 ) ) ;
#426 = AXIS2_PLACEMENT_3D ( 'NONE', #677, #336, #923 ) ;
#427 = ORIENTED_EDGE ( 'NONE', *, *, #37, .T. ) ;
#428 = VECTOR ( 'NONE', #623, 1000.000000000000000 ) ;
#429 = EDGE_CURVE ( 'NONE', #1084, #520, #1022, .T. ) ;
#430 = EDGE_LOOP ( 'NONE', ( #312, #602 ) ) ;
#431 = CARTESIAN_POINT ( 'NONE',  ( 12.00000000000000355, 3.000000000000000000, 13.49999999999999822 ) ) ;
#432 = ORIENTED_EDGE ( 'NONE', *, *, #243, .F. ) ;
#433 = ORIENTED_EDGE ( 'NONE', *, *, #138, .T. ) ;
#434 = EDGE_LOOP ( 'NONE', ( #394, #134, #910, #267 ) ) ;
#435 = EDGE_CURVE ( 'NONE', #96, #356, #350, .T. ) ;
#436 = ORIENTED_EDGE ( 'NONE', *, *, #8, .F. ) ;
#437 = DIRECTION ( 'NONE',  ( 0.000000000000000000, 0.000000000000000000, -1.000000000000000000 ) ) ;
#438 = PLANE ( 'NONE',  #41 ) ;
#439 = ORIENTED_EDGE ( 'NONE', *, *, #363, .F. ) ;
#440 = VERTEX_POINT ( 'NONE', #345 ) ;
#441 = DIRECTION ( 'NONE',  ( 0.000000000000000000, 0.000000000000000000, 1.000000000000000000 ) ) ;
#442 = LINE ( 'NONE', #666, #842 ) ;
#443 = ADVANCED_FACE ( 'NONE', ( #853 ), #1027, .F. ) ;
#444 = VECTOR ( 'NONE', #785, 1000.000000000000000 ) ;
#445 = AXIS2_PLACEMENT_3D ( 'NONE', #111, #373, #377 ) ;
#446 = ORIENTED_EDGE ( 'NONE', *, *, #1088, .F. ) ;
#447 = AXIS2_PLACEMENT_3D ( 'NONE', #1106, #75, #781 ) ;
#448 = CIRCLE ( 'NONE', #705, 1.500000000000001332 ) ;
#449 = DIRECTION ( 'NONE',  ( 0.000000000000000000, 0.000000000000000000, 1.000000000000000000 ) ) ;
#450 = DIRECTION ( 'NONE',  ( 0.000000000000000000, 0.000000000000000000, 1.000000000000000000 ) ) ;
#451 = LINE ( 'NONE', #794, #774 ) ;
#452 = CARTESIAN_POINT ( 'NONE',  ( -17.99999999999999645, 15.50000000000000000, 16.99999999999999645 ) ) ;
#453 = EDGE_CURVE ( 'NONE', #502, #539, #1078, .T. ) ;
#454 = ORIENTED_EDGE ( 'NONE', *, *, #797, .F. ) ;
#455 = CARTESIAN_POINT ( 'NONE',  ( -17.99999999999999645, 46.50000000000000000, 17.00000000000000000 ) ) ;
#456 = DIRECTION ( 'NONE',  ( 0.000000000000000000, 1.000000000000000000, -0.000000000000000000 ) ) ;
#457 = ORIENTED_EDGE ( 'NONE', *, *, #1102, .T. ) ;
#458 = CARTESIAN_POINT ( 'NONE',  ( -20.99999999999999289, 3.000000000000000000, 19.99999999999999645 ) ) ;
#459 = ORIENTED_EDGE ( 'NONE', *, *, #835, .T. ) ;
#460 = PLANE ( 'NONE',  #748 ) ;
#461 = CC_DESIGN_PERSON_AND_ORGANIZATION_ASSIGNMENT ( #403, #840, ( #950 ) ) ;
#462 = PERSON_AND_ORGANIZATION ( #709, #335 ) ;
#463 = CARTESIAN_POINT ( 'NONE',  ( -17.99999999999999645, 15.50000000000000000, 13.99999999999999822 ) ) ;
#464 = CARTESIAN_POINT ( 'NONE',  ( -17.99999999999999645, 46.50000000000000000, 15.50000000000000000 ) ) ;
#465 = EDGE_LOOP ( 'NONE', ( #552, #446 ) ) ;
#466 = CIRCLE ( 'NONE', #856, 1.499999999999999556 ) ;
#467 = VECTOR ( 'NONE', #490, 1000.000000000000000 ) ;
#468 = DIRECTION ( 'NONE',  ( 0.000000000000000000, 0.000000000000000000, 1.000000000000000000 ) ) ;
#469 = CIRCLE ( 'NONE', #827, 1.500000000000001332 ) ;
#470 = ADVANCED_FACE ( 'NONE', ( #1037 ), #601, .T. ) ;
#471 = DIRECTION ( 'NONE',  ( -1.000000000000000000, 0.000000000000000000, 0.000000000000000000 ) ) ;
#472 = CARTESIAN_POINT ( 'NONE',  ( -17.99999999999999645, 52.00000000000000711, -20.00000000000000355 ) ) ;
#473 = APPROVAL_PERSON_ORGANIZATION ( #1060, #855, #285 ) ;
#474 = DIRECTION ( 'NONE',  ( 0.000000000000000000, 0.000000000000000000, -1.000000000000000000 ) ) ;
#475 = ORIENTED_EDGE ( 'NONE', *, *, #119, .T. ) ;
#476 = DIRECTION ( 'NONE',  ( -0.000000000000000000, 1.000000000000000000, -0.000000000000000000 ) ) ;
#477 = DIRECTION ( 'NONE',  ( -1.000000000000000000, 0.000000000000000000, 0.000000000000000000 ) ) ;
#478 = ORIENTED_EDGE ( 'NONE', *, *, #562, .F. ) ;
#479 = FACE_OUTER_BOUND ( 'NONE', #943, .T. ) ;
#480 = CC_DESIGN_PERSON_AND_ORGANIZATION_ASSIGNMENT ( #234, #681, ( #563 ) ) ;
#481 = ORIENTED_EDGE ( 'NONE', *, *, #1034, .T. ) ;
#482 = FACE_BOUND ( 'NONE', #177, .T. ) ;
#483 = CARTESIAN_POINT ( 'NONE',  ( -12.00000000000000355, 3.000000000000000000, 15.00000000000000000 ) ) ;
#484 = ORIENTED_EDGE ( 'NONE', *, *, #860, .F. ) ;
#485 = LINE ( 'NONE', #392, #651 ) ;
#486 = CARTESIAN_POINT ( 'NONE',  ( -17.99999999999999645, 46.50000000000000000, -15.50000000000000000 ) ) ;
#487 = ADVANCED_FACE ( 'NONE', ( #941 ), #419, .F. ) ;
#488 = FACE_BOUND ( 'NONE', #942, .T. ) ;
#489 = CIRCLE ( 'NONE', #702, 1.500000000000003109 ) ;
#490 = DIRECTION ( 'NONE',  ( -1.000000000000000000, 0.000000000000000000, 0.000000000000000000 ) ) ;
#491 = VERTEX_POINT ( 'NONE', #589 ) ;
#492 = DIRECTION ( 'NONE',  ( -1.000000000000000000, 0.000000000000000000, 0.000000000000000000 ) ) ;
#493 = LOCAL_TIME ( 20, 57, 15.00000000000000000, #747 ) ;
#494 = EDGE_CURVE ( 'NONE', #707, #539, #934, .T. ) ;
#495 = EDGE_CURVE ( 'NONE', #230, #188, #354, .T. ) ;
#496 = APPROVAL_ROLE ( '' ) ;
#497 = DIRECTION ( 'NONE',  ( -1.000000000000000000, 0.000000000000000000, 0.000000000000000000 ) ) ;
#498 = CARTESIAN_POINT ( 'NONE',  ( -20.99999999999999289, 15.50000000000000000, -13.99999999999999467 ) ) ;
#499 = FACE_BOUND ( 'NONE', #694, .T. ) ;
#500 = FACE_OUTER_BOUND ( 'NONE', #690, .T. ) ;
#501 = CARTESIAN_POINT ( 'NONE',  ( -20.99999999999999289, 47.00000000000000711, -20.00000000000000355 ) ) ;
#502 = VERTEX_POINT ( 'NONE', #787 ) ;
#503 = DIRECTION ( 'NONE',  ( -1.000000000000000000, 0.000000000000000000, 0.000000000000000000 ) ) ;
#504 = DIRECTION ( 'NONE',  ( 0.000000000000000000, 1.000000000000000000, -0.000000000000000000 ) ) ;
#505 = CYLINDRICAL_SURFACE ( 'NONE', #72, 1.500000000000003109 ) ;
#506 = CLOSED_SHELL ( 'NONE', ( #113, #660, #902, #582, #342, #487, #542, #209, #95, #682, #407, #866, #821, #845, #84, #783, #409, #1028, #202, #1071, #1005, #443, #720, #211, #999, #961, #968, #636, #375, #470 ) ) ;
#507 = EDGE_CURVE ( 'NONE', #107, #315, #734, .T. ) ;
#508 = AXIS2_PLACEMENT_3D ( 'NONE', #486, #1016, #750 ) ;
#509 = ORIENTED_EDGE ( 'NONE', *, *, #954, .F. ) ;
#510 = CARTESIAN_POINT ( 'NONE',  ( 0.000000000000000000, 0.000000000000000000, 0.000000000000000000 ) ) ;
#511 = CIRCLE ( 'NONE', #812, 1.500000000000001332 ) ;
#512 = AXIS2_PLACEMENT_3D ( 'NONE', #764, #254, #593 ) ;
#513 = FACE_BOUND ( 'NONE', #1065, .T. ) ;
#514 = ORIENTED_EDGE ( 'NONE', *, *, #138, .F. ) ;
#515 = LINE ( 'NONE', #849, #70 ) ;
#516 = VERTEX_POINT ( 'NONE', #463 ) ;
#517 = DIRECTION ( 'NONE',  ( 0.000000000000000000, 0.000000000000000000, 1.000000000000000000 ) ) ;
#518 = PLANE ( 'NONE',  #20 ) ;
#519 = EDGE_CURVE ( 'NONE', #393, #1030, #629, .T. ) ;
#520 = VERTEX_POINT ( 'NONE', #295 ) ;
#521 = ORIENTED_EDGE ( 'NONE', *, *, #453, .T. ) ;
#522 = DIRECTION ( 'NONE',  ( 0.000000000000000000, 0.000000000000000000, -1.000000000000000000 ) ) ;
#523 = CARTESIAN_POINT ( 'NONE',  ( -12.00000000000000355, 3.000000000000000000, 16.50000000000000000 ) ) ;
#524 = AXIS2_PLACEMENT_3D ( 'NONE', #217, #964, #736 ) ;
#525 = AXIS2_PLACEMENT_3D ( 'NONE', #974, #383, #441 ) ;
#526 = EDGE_LOOP ( 'NONE', ( #1072, #60, #52, #684 ) ) ;
#527 = VECTOR ( 'NONE', #745, 1000.000000000000000 ) ;
#528 = EDGE_CURVE ( 'NONE', #627, #189, #116, .T. ) ;
#529 = EDGE_CURVE ( 'NONE', #958, #207, #332, .T. ) ;
#530 = DIRECTION ( 'NONE',  ( -0.000000000000000000, 1.000000000000000000, -0.000000000000000000 ) ) ;
#531 = DIRECTION ( 'NONE',  ( -0.000000000000000000, -1.000000000000000000, -0.000000000000000000 ) ) ;
#532 = ORIENTED_EDGE ( 'NONE', *, *, #642, .F. ) ;
#533 = CARTESIAN_POINT ( 'NONE',  ( -20.99999999999999289, 52.00000000000000711, -15.00000000000000355 ) ) ;
#534 = ORIENTED_EDGE ( 'NONE', *, *, #918, .T. ) ;
#535 = DIRECTION ( 'NONE',  ( 0.000000000000000000, 0.000000000000000000, 1.000000000000000000 ) ) ;
#536 = DIRECTION ( 'NONE',  ( 1.000000000000000000, -0.000000000000000000, 0.000000000000000000 ) ) ;
#537 = VERTEX_POINT ( 'NONE', #287 ) ;
#538 = CARTESIAN_POINT ( 'NONE',  ( -12.00000000000000355, 3.000000000000000000, -15.00000000000000000 ) ) ;
#539 = VERTEX_POINT ( 'NONE', #197 ) ;
#540 = EDGE_LOOP ( 'NONE', ( #757, #900, #1000, #612, #6, #1062 ) ) ;
#541 = CARTESIAN_POINT ( 'NONE',  ( -20.99999999999999289, 3.000000000000000000, -20.00000000000000355 ) ) ;
#542 = ADVANCED_FACE ( 'NONE', ( #632 ), #982, .F. ) ;
#543 = FACE_OUTER_BOUND ( 'NONE', #637, .T. ) ;
#544 = AXIS2_PLACEMENT_3D ( 'NONE', #410, #54, #657 ) ;
#545 = ORIENTED_EDGE ( 'NONE', *, *, #860, .T. ) ;
#546 = AXIS2_PLACEMENT_3D ( 'NONE', #793, #42, #962 ) ;
#547 = CYLINDRICAL_SURFACE ( 'NONE', #525, 1.500000000000001332 ) ;
#548 = CARTESIAN_POINT ( 'NONE',  ( 21.00000000000000711, 3.000000000000000000, -15.00000000000000711 ) ) ;
#549 = CARTESIAN_POINT ( 'NONE',  ( -17.99999999999999645, 47.00000000000000711, -15.00000000000000355 ) ) ;
#550 = CARTESIAN_POINT ( 'NONE',  ( -17.99999999999999645, 46.50000000000000000, -15.50000000000000000 ) ) ;
#551 = LINE ( 'NONE', #815, #367 ) ;
#552 = ORIENTED_EDGE ( 'NONE', *, *, #148, .F. ) ;
#553 = ORIENTED_EDGE ( 'NONE', *, *, #519, .F. ) ;
#554 = EDGE_CURVE ( 'NONE', #712, #1053, #143, .T. ) ;
#555 = LINE ( 'NONE', #912, #527 ) ;
#556 = CARTESIAN_POINT ( 'NONE',  ( 0.000000000000000000, 0.000000000000000000, 0.000000000000000000 ) ) ;
#557 = LINE ( 'NONE', #714, #223 ) ;
#558 = CARTESIAN_POINT ( 'NONE',  ( -17.99999999999999645, 46.50000000000000000, -13.99999999999999822 ) ) ;
#559 = VERTEX_POINT ( 'NONE', #1067 ) ;
#560 = ORIENTED_EDGE ( 'NONE', *, *, #1102, .F. ) ;
#561 = AXIS2_PLACEMENT_3D ( 'NONE', #9, #178, #437 ) ;
#562 = EDGE_CURVE ( 'NONE', #539, #502, #511, .T. ) ;
#563 = SECURITY_CLASSIFICATION ( '', '', #245 ) ;
#564 = CARTESIAN_POINT ( 'NONE',  ( -17.99999999999999645, 46.50000000000000000, -17.00000000000000000 ) ) ;
#565 = ORIENTED_EDGE ( 'NONE', *, *, #529, .F. ) ;
#566 = APPLICATION_PROTOCOL_DEFINITION ( 'international standard', 'config_control_design', 1994, #339 ) ;
#567 = FACE_OUTER_BOUND ( 'NONE', #386, .T. ) ;
#568 = EDGE_CURVE ( 'NONE', #643, #740, #557, .T. ) ;
#569 = EDGE_LOOP ( 'NONE', ( #963, #7 ) ) ;
#570 = CARTESIAN_POINT ( 'NONE',  ( -12.00000000000000355, 3.000000000000000000, 15.00000000000000000 ) ) ;
#571 = APPROVAL_STATUS ( 'not_yet_approved' ) ;
#572 = ORIENTED_EDGE ( 'NONE', *, *, #674, .T. ) ;
#573 = CARTESIAN_POINT ( 'NONE',  ( 16.00000000000001066, 3.000000000000000000, 19.99999999999999645 ) ) ;
#574 = DIRECTION ( 'NONE',  ( -0.000000000000000000, -1.000000000000000000, -0.000000000000000000 ) ) ;
#575 = EDGE_CURVE ( 'NONE', #282, #393, #368, .T. ) ;
#576 = CIRCLE ( 'NONE', #991, 1.500000000000001332 ) ;
#577 = AXIS2_PLACEMENT_3D ( 'NONE', #171, #1020, #522 ) ;
#578 = CARTESIAN_POINT ( 'NONE',  ( -17.99999999999999645, 46.50000000000000000, 17.00000000000000000 ) ) ;
#579 = CIRCLE ( 'NONE', #176, 11.50000000000000178 ) ;
#580 = DIRECTION ( 'NONE',  ( 0.000000000000000000, 0.000000000000000000, 1.000000000000000000 ) ) ;
#581 = CARTESIAN_POINT ( 'NONE',  ( -17.99999999999999645, 15.50000000000000000, -13.99999999999999467 ) ) ;
#582 = ADVANCED_FACE ( 'NONE', ( #281 ), #547, .F. ) ;
#583 = DATE_TIME_ROLE ( 'classification_date' ) ;
#584 = DIRECTION ( 'NONE',  ( 0.000000000000000000, 1.387778780781445478E-15, -1.000000000000000000 ) ) ;
#585 = DIRECTION ( 'NONE',  ( 0.000000000000000000, 0.000000000000000000, 1.000000000000000000 ) ) ;
#586 = APPROVAL_STATUS ( 'not_yet_approved' ) ;
#587 = AXIS2_PLACEMENT_3D ( 'NONE', #1012, #829, #149 ) ;
#588 = VERTEX_POINT ( 'NONE', #1043 ) ;
#589 = CARTESIAN_POINT ( 'NONE',  ( 12.00000000000000355, 3.000000000000000000, 16.50000000000000000 ) ) ;
#590 = VECTOR ( 'NONE', #135, 1000.000000000000000 ) ;
#591 = AXIS2_PLACEMENT_3D ( 'NONE', #715, #983, #620 ) ;
#592 = LINE ( 'NONE', #1029, #649 ) ;
#593 = DIRECTION ( 'NONE',  ( 0.000000000000000000, 0.000000000000000000, 1.000000000000000000 ) ) ;
#594 = LOCAL_TIME ( 20, 57, 15.00000000000000000, #754 ) ;
#595 = PERSON_AND_ORGANIZATION_ROLE ( 'creator' ) ;
#596 = CARTESIAN_POINT ( 'NONE',  ( 16.00000000000001066, 3.000000000000000000, -15.00000000000000355 ) ) ;
#597 = EDGE_CURVE ( 'NONE', #1053, #693, #123, .T. ) ;
#598 = FACE_OUTER_BOUND ( 'NONE', #232, .T. ) ;
#599 = EDGE_LOOP ( 'NONE', ( #110, #676, #348, #352 ) ) ;
#600 = CARTESIAN_POINT ( 'NONE',  ( -20.99999999999999289, 46.50000000000000000, -15.50000000000000000 ) ) ;
#601 = CYLINDRICAL_SURFACE ( 'NONE', #415, 5.000000000000000888 ) ;
#602 = ORIENTED_EDGE ( 'NONE', *, *, #766, .F. ) ;
#603 = EDGE_CURVE ( 'NONE', #188, #189, #398, .T. ) ;
#604 = EDGE_CURVE ( 'NONE', #251, #537, #269, .T. ) ;
#605 = ORIENTED_EDGE ( 'NONE', *, *, #731, .T. ) ;
#606 = VERTEX_POINT ( 'NONE', #619 ) ;
#607 = FACE_OUTER_BOUND ( 'NONE', #413, .T. ) ;
#608 = CIRCLE ( 'NONE', #121, 5.000000000000000888 ) ;
#609 = ORIENTED_EDGE ( 'NONE', *, *, #1007, .F. ) ;
#610 = CIRCLE ( 'NONE', #899, 1.500000000000001332 ) ;
#611 = CIRCLE ( 'NONE', #727, 5.000000000000000888 ) ;
#612 = ORIENTED_EDGE ( 'NONE', *, *, #808, .T. ) ;
#613 = CARTESIAN_POINT ( 'NONE',  ( 12.00000000000000355, 0.000000000000000000, 15.00000000000000000 ) ) ;
#614 = DIRECTION ( 'NONE',  ( 0.000000000000000000, 0.000000000000000000, -1.000000000000000000 ) ) ;
#615 = EDGE_LOOP ( 'NONE', ( #104, #1040, #337, #776 ) ) ;
#616 = ORIENTED_EDGE ( 'NONE', *, *, #225, .T. ) ;
#617 = DIRECTION ( 'NONE',  ( 0.000000000000000000, 0.000000000000000000, -1.000000000000000000 ) ) ;
#618 = EDGE_CURVE ( 'NONE', #559, #520, #966, .T. ) ;
#619 = CARTESIAN_POINT ( 'NONE',  ( -17.99999999999999645, 52.00000000000000711, -15.00000000000000355 ) ) ;
#620 = DIRECTION ( 'NONE',  ( 0.000000000000000000, 0.000000000000000000, -1.000000000000000000 ) ) ;
#621 = DIRECTION ( 'NONE',  ( 1.000000000000000000, 0.000000000000000000, 0.000000000000000000 ) ) ;
#622 = EDGE_LOOP ( 'NONE', ( #959, #1015, #191, #572 ) ) ;
#623 = DIRECTION ( 'NONE',  ( -0.000000000000000000, -1.000000000000000000, -0.000000000000000000 ) ) ;
#624 = CARTESIAN_POINT ( 'NONE',  ( -20.99999999999999289, 15.50000000000000000, -15.49999999999999822 ) ) ;
#625 = EDGE_LOOP ( 'NONE', ( #97, #298 ) ) ;
#626 = CIRCLE ( 'NONE', #744, 11.50000000000000178 ) ;
#627 = VERTEX_POINT ( 'NONE', #376 ) ;
#628 = CARTESIAN_POINT ( 'NONE',  ( 16.00000000000001066, 3.000000000000000000, -20.00000000000000355 ) ) ;
#629 = CIRCLE ( 'NONE', #876, 1.500000000000001332 ) ;
#630 = VECTOR ( 'NONE', #798, 1000.000000000000000 ) ;
#631 = COORDINATED_UNIVERSAL_TIME_OFFSET ( 8, 0, .AHEAD. ) ;
#632 = FACE_OUTER_BOUND ( 'NONE', #867, .T. ) ;
#633 = DIRECTION ( 'NONE',  ( -0.000000000000000000, -0.000000000000000000, -1.000000000000000000 ) ) ;
#634 = ORIENTED_EDGE ( 'NONE', *, *, #324, .F. ) ;
#635 = FACE_OUTER_BOUND ( 'NONE', #283, .T. ) ;
#636 = ADVANCED_FACE ( 'NONE', ( #881 ), #800, .T. ) ;
#637 = EDGE_LOOP ( 'NONE', ( #862, #532, #859, #696 ) ) ;
#638 = ORIENTED_EDGE ( 'NONE', *, *, #835, .F. ) ;
#639 = DIRECTION ( 'NONE',  ( -0.000000000000000000, -1.000000000000000000, -0.000000000000000000 ) ) ;
#640 = ORIENTED_EDGE ( 'NONE', *, *, #355, .F. ) ;
#641 = FACE_OUTER_BOUND ( 'NONE', #951, .T. ) ;
#642 = EDGE_CURVE ( 'NONE', #213, #92, #382, .T. ) ;
#643 = VERTEX_POINT ( 'NONE', #501 ) ;
#644 = LINE ( 'NONE', #846, #1097 ) ;
#645 = DIRECTION ( 'NONE',  ( 1.000000000000000000, 0.000000000000000000, 0.000000000000000000 ) ) ;
#646 = DIRECTION ( 'NONE',  ( 0.000000000000000000, 0.000000000000000000, 1.000000000000000000 ) ) ;
#647 = ORIENTED_EDGE ( 'NONE', *, *, #292, .F. ) ;
#648 = CARTESIAN_POINT ( 'NONE',  ( -12.00000000000000355, 3.000000000000000000, -15.00000000000000000 ) ) ;
#649 = VECTOR ( 'NONE', #531, 1000.000000000000000 ) ;
#650 = ORIENTED_EDGE ( 'NONE', *, *, #266, .T. ) ;
#651 = VECTOR ( 'NONE', #655, 1000.000000000000000 ) ;
#652 = EDGE_CURVE ( 'NONE', #189, #188, #124, .T. ) ;
#653 = MECHANICAL_CONTEXT ( 'NONE', #275, 'mechanical' ) ;
#654 = VECTOR ( 'NONE', #183, 1000.000000000000000 ) ;
#655 = DIRECTION ( 'NONE',  ( 0.000000000000000000, -1.000000000000000000, 0.000000000000000000 ) ) ;
#656 = CC_DESIGN_APPROVAL ( #17, ( #563 ) ) ;
#657 = DIRECTION ( 'NONE',  ( 0.000000000000000000, 0.000000000000000000, -1.000000000000000000 ) ) ;
#658 = ORIENTED_EDGE ( 'NONE', *, *, #597, .F. ) ;
#659 = FACE_BOUND ( 'NONE', #430, .T. ) ;
#660 = ADVANCED_FACE ( 'NONE', ( #567 ), #235, .F. ) ;
#661 = FACE_OUTER_BOUND ( 'NONE', #290, .T. ) ;
#662 = ORIENTED_EDGE ( 'NONE', *, *, #161, .F. ) ;
#663 = DIRECTION ( 'NONE',  ( 0.000000000000000000, 0.000000000000000000, 1.000000000000000000 ) ) ;
#664 = DIRECTION ( 'NONE',  ( -1.000000000000000000, 0.000000000000000000, 0.000000000000000000 ) ) ;
#665 = DIRECTION ( 'NONE',  ( 0.000000000000000000, 1.000000000000000000, -0.000000000000000000 ) ) ;
#666 = CARTESIAN_POINT ( 'NONE',  ( -20.99999999999999289, 0.000000000000000000, -20.00000000000000355 ) ) ;
#667 = CARTESIAN_POINT ( 'NONE',  ( -20.99999999999999289, 31.00000000000000000, 0.000000000000000000 ) ) ;
#668 = VECTOR ( 'NONE', #241, 1000.000000000000000 ) ;
#669 = CIRCLE ( 'NONE', #683, 1.500000000000001332 ) ;
#670 = FACE_OUTER_BOUND ( 'NONE', #1031, .T. ) ;
#671 = AXIS2_PLACEMENT_3D ( 'NONE', #739, #477, #832 ) ;
#672 = CARTESIAN_POINT ( 'NONE',  ( -17.99999999999999645, 52.00000000000000711, 19.99999999999998934 ) ) ;
#673 = AXIS2_PLACEMENT_3D ( 'NONE', #1096, #81, #585 ) ;
#674 = EDGE_CURVE ( 'NONE', #996, #1076, #485, .T. ) ;
#675 = CYLINDRICAL_SURFACE ( 'NONE', #199, 1.500000000000001332 ) ;
#676 = ORIENTED_EDGE ( 'NONE', *, *, #528, .T. ) ;
#677 = CARTESIAN_POINT ( 'NONE',  ( -17.99999999999999645, 15.50000000000000000, -15.49999999999999822 ) ) ;
#678 = CARTESIAN_POINT ( 'NONE',  ( -12.00000000000000355, 3.000000000000000000, 15.00000000000000000 ) ) ;
#679 = LINE ( 'NONE', #523, #154 ) ;
#680 = FACE_BOUND ( 'NONE', #132, .T. ) ;
#681 = PERSON_AND_ORGANIZATION_ROLE ( 'classification_officer' ) ;
#682 = ADVANCED_FACE ( 'NONE', ( #670, #1090, #1083, #1075, #909 ), #903, .F. ) ;
#683 = AXIS2_PLACEMENT_3D ( 'NONE', #1101, #325, #820 ) ;
#684 = ORIENTED_EDGE ( 'NONE', *, *, #918, .F. ) ;
#685 = CARTESIAN_POINT ( 'NONE',  ( 16.00000000000001066, 3.000000000000000000, -15.00000000000000355 ) ) ;
#686 = VECTOR ( 'NONE', #372, 1000.000000000000000 ) ;
#687 = VECTOR ( 'NONE', #35, 1000.000000000000000 ) ;
#688 = ORIENTED_EDGE ( 'NONE', *, *, #507, .T. ) ;
#689 = EDGE_CURVE ( 'NONE', #259, #357, #987, .T. ) ;
#690 = EDGE_LOOP ( 'NONE', ( #1026, #170, #180, #1033 ) ) ;
#691 = DIRECTION ( 'NONE',  ( 0.000000000000000000, -1.000000000000000000, 0.000000000000000000 ) ) ;
#692 = EDGE_CURVE ( 'NONE', #1076, #905, #1099, .T. ) ;
#693 = VERTEX_POINT ( 'NONE', #323 ) ;
#694 = EDGE_LOOP ( 'NONE', ( #391, #90 ) ) ;
#695 = CARTESIAN_POINT ( 'NONE',  ( -12.00000000000000355, 3.000000000000000000, -16.50000000000000000 ) ) ;
#696 = ORIENTED_EDGE ( 'NONE', *, *, #604, .T. ) ;
#697 = ORIENTED_EDGE ( 'NONE', *, *, #429, .T. ) ;
#698 = EDGE_LOOP ( 'NONE', ( #1049, #854, #796, #23 ) ) ;
#699 = CARTESIAN_POINT ( 'NONE',  ( -12.00000000000000355, 3.000000000000000000, -15.00000000000000000 ) ) ;
#700 = DIRECTION ( 'NONE',  ( -1.000000000000000000, 0.000000000000000000, 0.000000000000000000 ) ) ;
#701 = DIRECTION ( 'NONE',  ( -1.000000000000000000, 0.000000000000000000, 0.000000000000000000 ) ) ;
#702 = AXIS2_PLACEMENT_3D ( 'NONE', #935, #162, #703 ) ;
#703 = DIRECTION ( 'NONE',  ( 0.000000000000000000, 0.000000000000000000, 1.000000000000000000 ) ) ;
#704 = AXIS2_PLACEMENT_3D ( 'NONE', #550, #721, #1050 ) ;
#705 = AXIS2_PLACEMENT_3D ( 'NONE', #1054, #887, #960 ) ;
#706 = EDGE_CURVE ( 'NONE', #213, #251, #221, .T. ) ;
#707 = VERTEX_POINT ( 'NONE', #922 ) ;
#708 = DIRECTION ( 'NONE',  ( 0.000000000000000000, 0.000000000000000000, -1.000000000000000000 ) ) ;
#709 = PERSON ( 'æœª', 'æœª', 'æœª', ('æœª'), ('æœª'), ('æœª') ) ;
#710 = ORIENTED_EDGE ( 'NONE', *, *, #185, .T. ) ;
#711 = DIRECTION ( 'NONE',  ( 1.000000000000000000, 0.000000000000000000, -0.000000000000000000 ) ) ;
#712 = VERTEX_POINT ( 'NONE', #564 ) ;
#713 = FACE_OUTER_BOUND ( 'NONE', #378, .T. ) ;
#714 = CARTESIAN_POINT ( 'NONE',  ( -20.99999999999999289, 3.000000000000000000, -20.00000000000000355 ) ) ;
#715 = CARTESIAN_POINT ( 'NONE',  ( 12.00000000000000355, 3.000000000000000000, 15.00000000000000000 ) ) ;
#716 = ORIENTED_EDGE ( 'NONE', *, *, #494, .F. ) ;
#717 = DIRECTION ( 'NONE',  ( 0.000000000000000000, 0.000000000000000000, -1.000000000000000000 ) ) ;
#718 = ORIENTED_EDGE ( 'NONE', *, *, #334, .F. ) ;
#719 = FACE_OUTER_BOUND ( 'NONE', #698, .T. ) ;
#720 = ADVANCED_FACE ( 'NONE', ( #661 ), #129, .F. ) ;
#721 = DIRECTION ( 'NONE',  ( -1.000000000000000000, 0.000000000000000000, 0.000000000000000000 ) ) ;
#722 = DIRECTION ( 'NONE',  ( -1.000000000000000000, 0.000000000000000000, 0.000000000000000000 ) ) ;
#723 = FACE_OUTER_BOUND ( 'NONE', #34, .T. ) ;
#724 = VECTOR ( 'NONE', #930, 1000.000000000000000 ) ;
#725 = ORIENTED_EDGE ( 'NONE', *, *, #25, .T. ) ;
#726 = AXIS2_PLACEMENT_3D ( 'NONE', #814, #276, #450 ) ;
#727 = AXIS2_PLACEMENT_3D ( 'NONE', #218, #476, #906 ) ;
#728 = DIRECTION ( 'NONE',  ( 0.000000000000000000, 0.000000000000000000, 1.000000000000000000 ) ) ;
#729 = EDGE_CURVE ( 'NONE', #559, #742, #826, .T. ) ;
#730 = CARTESIAN_POINT ( 'NONE',  ( -12.00000000000000355, 0.000000000000000000, 16.50000000000000000 ) ) ;
#731 = EDGE_CURVE ( 'NONE', #1030, #393, #811, .T. ) ;
#732 = VERTEX_POINT ( 'NONE', #53 ) ;
#733 = CALENDAR_DATE ( 2026, 7, 5 ) ;
#734 = LINE ( 'NONE', #541, #760 ) ;
#735 = ORIENTED_EDGE ( 'NONE', *, *, #642, .T. ) ;
#736 = DIRECTION ( 'NONE',  ( 0.000000000000000000, 0.000000000000000000, -1.000000000000000000 ) ) ;
#737 = ORIENTED_EDGE ( 'NONE', *, *, #1018, .T. ) ;
#738 = ORIENTED_EDGE ( 'NONE', *, *, #562, .T. ) ;
#739 = CARTESIAN_POINT ( 'NONE',  ( -17.99999999999999645, 46.50000000000000000, -15.50000000000000000 ) ) ;
#740 = VERTEX_POINT ( 'NONE', #411 ) ;
#741 = CARTESIAN_POINT ( 'NONE',  ( -17.99999999999999645, 15.50000000000000000, -17.00000000000000000 ) ) ;
#742 = VERTEX_POINT ( 'NONE', #227 ) ;
#743 = EDGE_CURVE ( 'NONE', #778, #779, #971, .T. ) ;
#744 = AXIS2_PLACEMENT_3D ( 'NONE', #405, #503, #663 ) ;
#745 = DIRECTION ( 'NONE',  ( -1.000000000000000000, 0.000000000000000000, 0.000000000000000000 ) ) ;
#746 = AXIS2_PLACEMENT_3D ( 'NONE', #318, #497, #231 ) ;
#747 = COORDINATED_UNIVERSAL_TIME_OFFSET ( 8, 0, .AHEAD. ) ;
#748 = AXIS2_PLACEMENT_3D ( 'NONE', #36, #1059, #195 ) ;
#749 = DIRECTION ( 'NONE',  ( 0.000000000000000000, 0.000000000000000000, -1.000000000000000000 ) ) ;
#750 = DIRECTION ( 'NONE',  ( 0.000000000000000000, 0.000000000000000000, 1.000000000000000000 ) ) ;
#751 = CARTESIAN_POINT ( 'NONE',  ( -20.99999999999999289, 3.000000000000000000, 19.99999999999999645 ) ) ;
#752 = CARTESIAN_POINT ( 'NONE',  ( -20.99999999999999289, 47.00000000000000711, 19.99999999999999645 ) ) ;
#753 = DIRECTION ( 'NONE',  ( -1.000000000000000000, 0.000000000000000000, -0.000000000000000000 ) ) ;
#754 = COORDINATED_UNIVERSAL_TIME_OFFSET ( 8, 0, .AHEAD. ) ;
#755 = CARTESIAN_POINT ( 'NONE',  ( -20.99999999999999289, 46.50000000000000000, 15.50000000000000000 ) ) ;
#756 = EDGE_CURVE ( 'NONE', #115, #732, #998, .T. ) ;
#757 = ORIENTED_EDGE ( 'NONE', *, *, #435, .T. ) ;
#758 = LINE ( 'NONE', #741, #412 ) ;
#759 = AXIS2_PLACEMENT_3D ( 'NONE', #510, #153, #4 ) ;
#760 = VECTOR ( 'NONE', #1061, 1000.000000000000000 ) ;
#761 = DIRECTION ( 'NONE',  ( 0.000000000000000000, 1.000000000000000000, 0.000000000000000000 ) ) ;
#762 = DIRECTION ( 'NONE',  ( 0.000000000000000000, 0.000000000000000000, 1.000000000000000000 ) ) ;
#763 = EDGE_CURVE ( 'NONE', #693, #365, #610, .T. ) ;
#764 = CARTESIAN_POINT ( 'NONE',  ( -17.99999999999999645, 15.50000000000000000, 15.49999999999999822 ) ) ;
#765 = CALENDAR_DATE ( 2026, 7, 5 ) ;
#766 = EDGE_CURVE ( 'NONE', #365, #693, #286, .T. ) ;
#767 = DIRECTION ( 'NONE',  ( 0.000000000000000000, 0.000000000000000000, -1.000000000000000000 ) ) ;
#768 = DIRECTION ( 'NONE',  ( -1.000000000000000000, 0.000000000000000000, 0.000000000000000000 ) ) ;
#769 = ORIENTED_EDGE ( 'NONE', *, *, #363, .T. ) ;
#770 = EDGE_CURVE ( 'NONE', #976, #937, #358, .T. ) ;
#771 = ORIENTED_EDGE ( 'NONE', *, *, #49, .F. ) ;
#772 = FACE_BOUND ( 'NONE', #1100, .T. ) ;
#773 = VECTOR ( 'NONE', #915, 1000.000000000000000 ) ;
#774 = VECTOR ( 'NONE', #633, 1000.000000000000000 ) ;
#775 = EDGE_LOOP ( 'NONE', ( #261, #239 ) ) ;
#776 = ORIENTED_EDGE ( 'NONE', *, *, #689, .F. ) ;
#777 = DIRECTION ( 'NONE',  ( -0.000000000000000000, -1.000000000000000000, -0.000000000000000000 ) ) ;
#778 = VERTEX_POINT ( 'NONE', #979 ) ;
#779 = VERTEX_POINT ( 'NONE', #955 ) ;
#780 = ORIENTED_EDGE ( 'NONE', *, *, #37, .F. ) ;
#781 = DIRECTION ( 'NONE',  ( 0.000000000000000000, 0.000000000000000000, 1.000000000000000000 ) ) ;
#782 = FACE_OUTER_BOUND ( 'NONE', #224, .T. ) ;
#783 = ADVANCED_FACE ( 'NONE', ( #719 ), #1042, .F. ) ;
#784 = VERTEX_POINT ( 'NONE', #455 ) ;
#785 = DIRECTION ( 'NONE',  ( -0.000000000000000000, -1.000000000000000000, -0.000000000000000000 ) ) ;
#786 = ORIENTED_EDGE ( 'NONE', *, *, #49, .T. ) ;
#787 = CARTESIAN_POINT ( 'NONE',  ( 12.00000000000000355, 0.000000000000000000, 16.50000000000000000 ) ) ;
#788 = CIRCLE ( 'NONE', #544, 1.499999999999999556 ) ;
#789 = DIRECTION ( 'NONE',  ( -1.000000000000000000, 0.000000000000000000, 0.000000000000000000 ) ) ;
#790 = VECTOR ( 'NONE', #1032, 1000.000000000000000 ) ;
#791 = CIRCLE ( 'NONE', #270, 5.000000000000000888 ) ;
#792 = ORIENTED_EDGE ( 'NONE', *, *, #689, .T. ) ;
#793 = CARTESIAN_POINT ( 'NONE',  ( 12.00000000000000355, 3.000000000000000000, 15.00000000000000000 ) ) ;
#794 = CARTESIAN_POINT ( 'NONE',  ( -17.99999999999999645, 52.00000000000000711, -20.00000000000000355 ) ) ;
#795 = CYLINDRICAL_SURFACE ( 'NONE', #426, 1.500000000000003109 ) ;
#796 = ORIENTED_EDGE ( 'NONE', *, *, #495, .T. ) ;
#797 = EDGE_CURVE ( 'NONE', #784, #282, #448, .T. ) ;
#798 = DIRECTION ( 'NONE',  ( -1.000000000000000000, 0.000000000000000000, 0.000000000000000000 ) ) ;
#799 = DATE_AND_TIME ( #733, #493 ) ;
#800 = CYLINDRICAL_SURFACE ( 'NONE', #947, 5.000000000000000888 ) ;
#801 = DIRECTION ( 'NONE',  ( 0.000000000000000000, 0.000000000000000000, 1.000000000000000000 ) ) ;
#802 = FACE_OUTER_BOUND ( 'NONE', #599, .T. ) ;
#803 = VERTEX_POINT ( 'NONE', #114 ) ;
#804 = CARTESIAN_POINT ( 'NONE',  ( 11.99999999999999645, 3.000000000000000000, -13.50000000000000178 ) ) ;
#805 = EDGE_CURVE ( 'NONE', #606, #356, #184, .T. ) ;
#806 = PERSON_AND_ORGANIZATION ( #709, #335 ) ;
#807 = CARTESIAN_POINT ( 'NONE',  ( -12.00000000000000355, 0.000000000000000000, 15.00000000000000000 ) ) ;
#808 = EDGE_CURVE ( 'NONE', #740, #440, #865, .T. ) ;
#809 = DIRECTION ( 'NONE',  ( 0.000000000000000000, 1.000000000000000000, -0.000000000000000000 ) ) ;
#810 = DIRECTION ( 'NONE',  ( -1.000000000000000000, 0.000000000000000000, 0.000000000000000000 ) ) ;
#811 = CIRCLE ( 'NONE', #175, 1.500000000000001332 ) ;
#812 = AXIS2_PLACEMENT_3D ( 'NONE', #868, #214, #108 ) ;
#813 = AXIS2_PLACEMENT_3D ( 'NONE', #699, #274, #617 ) ;
#814 = CARTESIAN_POINT ( 'NONE',  ( -12.00000000000000355, 0.000000000000000000, -15.00000000000000000 ) ) ;
#815 = CARTESIAN_POINT ( 'NONE',  ( -17.99999999999999645, 15.50000000000000000, 16.99999999999999645 ) ) ;
#816 = DIRECTION ( 'NONE',  ( -0.000000000000000000, -1.000000000000000000, -0.000000000000000000 ) ) ;
#817 = DIRECTION ( 'NONE',  ( 1.000000000000000000, 0.000000000000000000, 0.000000000000000000 ) ) ;
#818 = DIRECTION ( 'NONE',  ( 0.000000000000000000, 0.000000000000000000, -1.000000000000000000 ) ) ;
#819 = DIRECTION ( 'NONE',  ( 0.000000000000000000, 0.000000000000000000, -1.000000000000000000 ) ) ;
#820 = DIRECTION ( 'NONE',  ( 0.000000000000000000, 0.000000000000000000, -1.000000000000000000 ) ) ;
#821 = ADVANCED_FACE ( 'NONE', ( #713 ), #460, .F. ) ;
#822 = ORIENTED_EDGE ( 'NONE', *, *, #435, .F. ) ;
#823 = CARTESIAN_POINT ( 'NONE',  ( -17.99999999999999645, 31.00000000000000000, 0.000000000000000000 ) ) ;
#824 = CARTESIAN_POINT ( 'NONE',  ( -20.99999999999999289, 46.50000000000000000, -17.00000000000000000 ) ) ;
#825 = CIRCLE ( 'NONE', #55, 1.500000000000001332 ) ;
#826 = CIRCLE ( 'NONE', #101, 11.50000000000000178 ) ;
#827 = AXIS2_PLACEMENT_3D ( 'NONE', #187, #504, #614 ) ;
#828 = ORIENTED_EDGE ( 'NONE', *, *, #954, .T. ) ;
#829 = DIRECTION ( 'NONE',  ( -1.000000000000000000, 0.000000000000000000, 0.000000000000000000 ) ) ;
#830 = EDGE_CURVE ( 'NONE', #491, #707, #256, .T. ) ;
#831 = APPROVAL_DATE_TIME ( #1098, #17 ) ;
#832 = DIRECTION ( 'NONE',  ( 0.000000000000000000, 0.000000000000000000, 1.000000000000000000 ) ) ;
#833 = LINE ( 'NONE', #146, #668 ) ;
#834 = DIRECTION ( 'NONE',  ( -1.000000000000000000, 0.000000000000000000, 0.000000000000000000 ) ) ;
#835 = EDGE_CURVE ( 'NONE', #742, #1084, #555, .T. ) ;
#836 = CARTESIAN_POINT ( 'NONE',  ( -12.00000000000000355, 0.000000000000000000, -15.00000000000000000 ) ) ;
#837 = CARTESIAN_POINT ( 'NONE',  ( -20.99999999999999289, 47.00000000000000711, -15.00000000000000355 ) ) ;
#838 = CARTESIAN_POINT ( 'NONE',  ( -17.99999999999999645, 15.50000000000000000, -15.49999999999999822 ) ) ;
#839 = AXIS2_PLACEMENT_3D ( 'NONE', #549, #711, #117 ) ;
#840 = PERSON_AND_ORGANIZATION_ROLE ( 'design_supplier' ) ;
#841 = VECTOR ( 'NONE', #262, 1000.000000000000000 ) ;
#842 = VECTOR ( 'NONE', #1006, 1000.000000000000000 ) ;
#843 = DIRECTION ( 'NONE',  ( 0.000000000000000000, 0.000000000000000000, -1.000000000000000000 ) ) ;
#844 = LOCAL_TIME ( 20, 57, 15.00000000000000000, #1014 ) ;
#845 = ADVANCED_FACE ( 'NONE', ( #307, #482, #406, #51, #659, #488 ), #401, .F. ) ;
#846 = CARTESIAN_POINT ( 'NONE',  ( -17.99999999999999645, 46.50000000000000000, -17.00000000000000000 ) ) ;
#847 = CARTESIAN_POINT ( 'NONE',  ( -20.99999999999999289, 52.00000000000000711, -20.00000000000000355 ) ) ;
#848 = ORIENTED_EDGE ( 'NONE', *, *, #743, .T. ) ;
#849 = CARTESIAN_POINT ( 'NONE',  ( -17.99999999999999645, 15.50000000000000000, 13.99999999999999822 ) ) ;
#850 = EDGE_CURVE ( 'NONE', #520, #1084, #579, .T. ) ;
#851 = FACE_BOUND ( 'NONE', #569, .T. ) ;
#852 = VERTEX_POINT ( 'NONE', #925 ) ;
#853 = FACE_OUTER_BOUND ( 'NONE', #82, .T. ) ;
#854 = ORIENTED_EDGE ( 'NONE', *, *, #248, .T. ) ;
#855 = APPROVAL ( #1066, 'æœª' ) ;
#856 = AXIS2_PLACEMENT_3D ( 'NONE', #423, #768, #1107 ) ;
#857 = AXIS2_PLACEMENT_3D ( 'NONE', #836, #761, #240 ) ;
#858 = VECTOR ( 'NONE', #896, 1000.000000000000000 ) ;
#859 = ORIENTED_EDGE ( 'NONE', *, *, #706, .T. ) ;
#860 = EDGE_CURVE ( 'NONE', #712, #365, #644, .T. ) ;
#861 = DIRECTION ( 'NONE',  ( 0.000000000000000000, -1.000000000000000000, 0.000000000000000000 ) ) ;
#862 = ORIENTED_EDGE ( 'NONE', *, *, #280, .F. ) ;
#863 = DIRECTION ( 'NONE',  ( 0.000000000000000000, 1.000000000000000000, 0.000000000000000000 ) ) ;
#864 = ORIENTED_EDGE ( 'NONE', *, *, #331, .F. ) ;
#865 = LINE ( 'NONE', #370, #22 ) ;
#866 = ADVANCED_FACE ( 'NONE', ( #164 ), #353, .F. ) ;
#867 = EDGE_LOOP ( 'NONE', ( #737, #650, #478, #716 ) ) ;
#868 = CARTESIAN_POINT ( 'NONE',  ( 12.00000000000000355, 0.000000000000000000, 15.00000000000000000 ) ) ;
#869 = EDGE_LOOP ( 'NONE', ( #136, #1069, #822, #45 ) ) ;
#870 = EDGE_LOOP ( 'NONE', ( #560, #439 ) ) ;
#871 = CARTESIAN_POINT ( 'NONE',  ( 15.99999999999999645, 0.000000000000000000, -20.00000000000000355 ) ) ;
#872 = ORIENTED_EDGE ( 'NONE', *, *, #692, .F. ) ;
#873 = DIRECTION ( 'NONE',  ( -1.000000000000000000, 0.000000000000000000, 0.000000000000000000 ) ) ;
#874 = ORIENTED_EDGE ( 'NONE', *, *, #292, .T. ) ;
#875 = CARTESIAN_POINT ( 'NONE',  ( 11.99999999999999645, 3.000000000000000000, -15.00000000000000355 ) ) ;
#876 = AXIS2_PLACEMENT_3D ( 'NONE', #192, #873, #206 ) ;
#877 = EDGE_CURVE ( 'NONE', #96, #226, #1109, .T. ) ;
#878 = VECTOR ( 'NONE', #817, 1000.000000000000000 ) ;
#879 = ORIENTED_EDGE ( 'NONE', *, *, #575, .F. ) ;
#880 = CARTESIAN_POINT ( 'NONE',  ( 11.99999999999999645, 3.000000000000000000, -16.50000000000000355 ) ) ;
#881 = FACE_OUTER_BOUND ( 'NONE', #615, .T. ) ;
#882 = DIRECTION ( 'NONE',  ( 0.000000000000000000, 1.000000000000000000, 0.000000000000000000 ) ) ;
#883 = DIRECTION ( 'NONE',  ( 0.000000000000000000, 0.000000000000000000, -1.000000000000000000 ) ) ;
#884 = CC_DESIGN_DATE_AND_TIME_ASSIGNMENT ( #799, #31, ( #257 ) ) ;
#885 = ORIENTED_EDGE ( 'NONE', *, *, #944, .F. ) ;
#886 = DIRECTION ( 'NONE',  ( 0.000000000000000000, 0.000000000000000000, -1.000000000000000000 ) ) ;
#887 = DIRECTION ( 'NONE',  ( -1.000000000000000000, 0.000000000000000000, 0.000000000000000000 ) ) ;
#888 =( NAMED_UNIT ( * ) SI_UNIT ( $, .STERADIAN. ) SOLID_ANGLE_UNIT ( ) );
#889 = CARTESIAN_POINT ( 'NONE',  ( 11.99999999999999645, 3.000000000000000000, -15.00000000000000355 ) ) ;
#890 = ORIENTED_EDGE ( 'NONE', *, *, #306, .F. ) ;
#891 = CARTESIAN_POINT ( 'NONE',  ( -17.99999999999999645, 46.50000000000000000, 15.50000000000000000 ) ) ;
#892 = ORIENTED_EDGE ( 'NONE', *, *, #568, .F. ) ;
#893 = CARTESIAN_POINT ( 'NONE',  ( 12.00000000000000355, 3.000000000000000000, 15.00000000000000000 ) ) ;
#894 = APPLICATION_PROTOCOL_DEFINITION ( 'international standard', 'config_control_design', 1994, #275 ) ;
#895 = CARTESIAN_POINT ( 'NONE',  ( -17.99999999999999645, 46.50000000000000000, 13.99999999999999822 ) ) ;
#896 = DIRECTION ( 'NONE',  ( -0.000000000000000000, 1.000000000000000000, -0.000000000000000000 ) ) ;
#897 = CARTESIAN_POINT ( 'NONE',  ( -12.00000000000000355, 0.000000000000000000, -13.49999999999999822 ) ) ;
#898 = CIRCLE ( 'NONE', #561, 5.000000000000000888 ) ;
#899 = AXIS2_PLACEMENT_3D ( 'NONE', #63, #159, #343 ) ;
#900 = ORIENTED_EDGE ( 'NONE', *, *, #334, .T. ) ;
#901 = LOCAL_TIME ( 20, 57, 15.00000000000000000, #316 ) ;
#902 = ADVANCED_FACE ( 'NONE', ( #500 ), #505, .F. ) ;
#903 = PLANE ( 'NONE',  #156 ) ;
#904 = LINE ( 'NONE', #291, #142 ) ;
#905 = VERTEX_POINT ( 'NONE', #1103 ) ;
#906 = DIRECTION ( 'NONE',  ( 2.081668171172168119E-15, 0.000000000000000000, -1.000000000000000000 ) ) ;
#907 = APPROVAL_ROLE ( '' ) ;
#908 = ORIENTED_EDGE ( 'NONE', *, *, #324, .T. ) ;
#909 = FACE_BOUND ( 'NONE', #465, .T. ) ;
#910 = ORIENTED_EDGE ( 'NONE', *, *, #494, .T. ) ;
#911 = DIRECTION ( 'NONE',  ( 0.000000000000000000, 0.000000000000000000, -1.000000000000000000 ) ) ;
#912 = CARTESIAN_POINT ( 'NONE',  ( -17.99999999999999645, 31.00000000000000000, 11.50000000000000178 ) ) ;
#913 = CALENDAR_DATE ( 2026, 7, 5 ) ;
#914 = VERTEX_POINT ( 'NONE', #871 ) ;
#915 = DIRECTION ( 'NONE',  ( -0.000000000000000000, 1.000000000000000000, -0.000000000000000000 ) ) ;
#916 = EDGE_LOOP ( 'NONE', ( #609, #1058, #872, #130, #509, #1108 ) ) ;
#917 = DIRECTION ( 'NONE',  ( 0.000000000000000000, 0.000000000000000000, 1.000000000000000000 ) ) ;
#918 = EDGE_CURVE ( 'NONE', #107, #914, #268, .T. ) ;
#919 = CARTESIAN_POINT ( 'NONE',  ( -12.00000000000000355, 0.000000000000000000, 13.49999999999999822 ) ) ;
#920 = AXIS2_PLACEMENT_3D ( 'NONE', #875, #44, #977 ) ;
#921 = AXIS2_PLACEMENT_3D ( 'NONE', #600, #169, #449 ) ;
#922 = CARTESIAN_POINT ( 'NONE',  ( 12.00000000000000355, 3.000000000000000000, 13.49999999999999822 ) ) ;
#923 = DIRECTION ( 'NONE',  ( 0.000000000000000000, 0.000000000000000000, 1.000000000000000000 ) ) ;
#924 = EDGE_CURVE ( 'NONE', #1076, #115, #1081, .T. ) ;
#925 = CARTESIAN_POINT ( 'NONE',  ( -17.99999999999999645, 3.000000000000000000, 19.99999999999999645 ) ) ;
#926 = APPROVAL ( #571, 'æœª' ) ;
#927 = CARTESIAN_POINT ( 'NONE',  ( 21.00000000000000711, 0.000000000000000000, 19.99999999999999645 ) ) ;
#928 = CARTESIAN_POINT ( 'NONE',  ( -17.99999999999999645, 52.00000000000000711, 15.00000000000000000 ) ) ;
#929 = DIRECTION ( 'NONE',  ( 0.000000000000000000, 0.000000000000000000, -1.000000000000000000 ) ) ;
#930 = DIRECTION ( 'NONE',  ( -1.000000000000000000, 0.000000000000000000, 0.000000000000000000 ) ) ;
#931 = AXIS2_PLACEMENT_3D ( 'NONE', #538, #863, #172 ) ;
#932 = AXIS2_PLACEMENT_3D ( 'NONE', #648, #208, #717 ) ;
#933 = EDGE_CURVE ( 'NONE', #1055, #125, #1046, .T. ) ;
#934 = LINE ( 'NONE', #431, #255 ) ;
#935 = CARTESIAN_POINT ( 'NONE',  ( -20.99999999999999289, 15.50000000000000000, -15.49999999999999822 ) ) ;
#936 = CARTESIAN_POINT ( 'NONE',  ( 11.99999999999999645, 3.000000000000000000, -13.50000000000000178 ) ) ;
#937 = VERTEX_POINT ( 'NONE', #294 ) ;
#938 = DIRECTION ( 'NONE',  ( 9.020562075079395313E-15, 0.000000000000000000, -1.000000000000000000 ) ) ;
#939 = DIRECTION ( 'NONE',  ( -0.000000000000000000, -1.000000000000000000, -0.000000000000000000 ) ) ;
#940 = ORIENTED_EDGE ( 'NONE', *, *, #43, .F. ) ;
#941 = FACE_OUTER_BOUND ( 'NONE', #18, .T. ) ;
#942 = EDGE_LOOP ( 'NONE', ( #296, #952 ) ) ;
#943 = EDGE_LOOP ( 'NONE', ( #302, #182, #12, #638 ) ) ;
#944 = EDGE_CURVE ( 'NONE', #732, #996, #611, .T. ) ;
#945 = EDGE_LOOP ( 'NONE', ( #940, #128 ) ) ;
#946 = AXIS2_PLACEMENT_3D ( 'NONE', #685, #861, #250 ) ;
#947 = AXIS2_PLACEMENT_3D ( 'NONE', #1092, #645, #145 ) ;
#948 = DIRECTION ( 'NONE',  ( 0.000000000000000000, 1.000000000000000000, -0.000000000000000000 ) ) ;
#949 = AXIS2_PLACEMENT_3D ( 'NONE', #893, #379, #728 ) ;
#950 = PRODUCT_DEFINITION_FORMATION_WITH_SPECIFIED_SOURCE ( 'ä»', '', #1039, .NOT_KNOWN. ) ;
#951 = EDGE_LOOP ( 'NONE', ( #457, #427, #565, #771 ) ) ;
#952 = ORIENTED_EDGE ( 'NONE', *, *, #850, .F. ) ;
#953 = ORIENTED_EDGE ( 'NONE', *, *, #763, .T. ) ;
#954 = EDGE_CURVE ( 'NONE', #440, #115, #1080, .T. ) ;
#955 = CARTESIAN_POINT ( 'NONE',  ( -20.99999999999999289, 15.50000000000000000, 13.99999999999999822 ) ) ;
#956 = ORIENTED_EDGE ( 'NONE', *, *, #237, .F. ) ;
#957 = CARTESIAN_POINT ( 'NONE',  ( -17.99999999999999645, 47.00000000000000711, -15.00000000000000355 ) ) ;
#958 = VERTEX_POINT ( 'NONE', #919 ) ;
#959 = ORIENTED_EDGE ( 'NONE', *, *, #692, .T. ) ;
#960 = DIRECTION ( 'NONE',  ( 0.000000000000000000, 0.000000000000000000, -1.000000000000000000 ) ) ;
#961 = ADVANCED_FACE ( 'NONE', ( #305 ), #675, .F. ) ;
#962 = DIRECTION ( 'NONE',  ( 0.000000000000000000, 0.000000000000000000, -1.000000000000000000 ) ) ;
#963 = ORIENTED_EDGE ( 'NONE', *, *, #331, .T. ) ;
#964 = DIRECTION ( 'NONE',  ( -0.000000000000000000, -1.000000000000000000, -0.000000000000000000 ) ) ;
#965 = EDGE_LOOP ( 'NONE', ( #112, #647 ) ) ;
#966 = LINE ( 'NONE', #102, #686 ) ;
#967 = CARTESIAN_POINT ( 'NONE',  ( 11.99999999999999645, 3.000000000000000000, -16.50000000000000355 ) ) ;
#968 = ADVANCED_FACE ( 'NONE', ( #782 ), #421, .T. ) ;
#969 = VECTOR ( 'NONE', #621, 1000.000000000000000 ) ;
#970 = DIRECTION ( 'NONE',  ( 0.000000000000000000, 0.000000000000000000, -1.000000000000000000 ) ) ;
#971 = CIRCLE ( 'NONE', #746, 1.499999999999999556 ) ;
#972 = APPROVAL_PERSON_ORGANIZATION ( #387, #926, #907 ) ;
#973 = DATE_AND_TIME ( #299, #127 ) ;
#974 = CARTESIAN_POINT ( 'NONE',  ( -17.99999999999999645, 46.50000000000000000, -15.50000000000000000 ) ) ;
#975 = CARTESIAN_POINT ( 'NONE',  ( -20.99999999999999289, 31.00000000000000000, 11.50000000000000178 ) ) ;
#976 = VERTEX_POINT ( 'NONE', #936 ) ;
#977 = DIRECTION ( 'NONE',  ( 0.000000000000000000, 0.000000000000000000, -1.000000000000000000 ) ) ;
#978 = VERTEX_POINT ( 'NONE', #361 ) ;
#979 = CARTESIAN_POINT ( 'NONE',  ( -20.99999999999999289, 15.50000000000000000, 16.99999999999999645 ) ) ;
#980 = DIRECTION ( 'NONE',  ( 0.000000000000000000, 1.000000000000000000, -0.000000000000000000 ) ) ;
#981 = ORIENTED_EDGE ( 'NONE', *, *, #756, .F. ) ;
#982 = CYLINDRICAL_SURFACE ( 'NONE', #546, 1.500000000000001332 ) ;
#983 = DIRECTION ( 'NONE',  ( -0.000000000000000000, -1.000000000000000000, -0.000000000000000000 ) ) ;
#984 = CYLINDRICAL_SURFACE ( 'NONE', #524, 1.500000000000001332 ) ;
#985 = EDGE_CURVE ( 'NONE', #207, #958, #469, .T. ) ;
#986 = PERSON_AND_ORGANIZATION ( #709, #335 ) ;
#987 = LINE ( 'NONE', #752, #590 ) ;
#988 = CARTESIAN_POINT ( 'NONE',  ( -20.99999999999999289, 46.50000000000000000, 17.00000000000000000 ) ) ;
#989 = EDGE_LOOP ( 'NONE', ( #122, #249 ) ) ;
#990 = CARTESIAN_POINT ( 'NONE',  ( 15.99999999999999645, 3.000000000000000000, -20.00000000000000355 ) ) ;
#991 = AXIS2_PLACEMENT_3D ( 'NONE', #1004, #69, #917 ) ;
#992 = VECTOR ( 'NONE', #639, 1000.000000000000000 ) ;
#993 = EDGE_LOOP ( 'NONE', ( #64, #545, #174, #658 ) ) ;
#994 = CIRCLE ( 'NONE', #1023, 1.500000000000001332 ) ;
#995 = DIRECTION ( 'NONE',  ( -1.000000000000000000, 0.000000000000000000, 0.000000000000000000 ) ) ;
#996 = VERTEX_POINT ( 'NONE', #150 ) ;
#997 = LINE ( 'NONE', #1093, #196 ) ;
#998 = LINE ( 'NONE', #573, #773 ) ;
#999 = ADVANCED_FACE ( 'NONE', ( #147 ), #71, .F. ) ;
#1000 = ORIENTED_EDGE ( 'NONE', *, *, #568, .T. ) ;
#1001 = CYLINDRICAL_SURFACE ( 'NONE', #1008, 11.50000000000000178 ) ;
#1002 = DIRECTION ( 'NONE',  ( 0.000000000000000000, 0.000000000000000000, 1.000000000000000000 ) ) ;
#1003 = EDGE_LOOP ( 'NONE', ( #322, #432, #1045, #848 ) ) ;
#1004 = CARTESIAN_POINT ( 'NONE',  ( -12.00000000000000355, 3.000000000000000000, -15.00000000000000000 ) ) ;
#1005 = ADVANCED_FACE ( 'NONE', ( #1017, #680, #163, #499, #851, #78 ), #438, .T. ) ;
#1006 = DIRECTION ( 'NONE',  ( -1.000000000000000000, -0.000000000000000000, -0.000000000000000000 ) ) ;
#1007 = EDGE_CURVE ( 'NONE', #914, #740, #442, .T. ) ;
#1008 = AXIS2_PLACEMENT_3D ( 'NONE', #233, #1091, #762 ) ;
#1009 = DIRECTION ( 'NONE',  ( -1.000000000000000000, 0.000000000000000000, 0.000000000000000000 ) ) ;
#1010 = VECTOR ( 'NONE', #151, 1000.000000000000000 ) ;
#1011 = DIRECTION ( 'NONE',  ( 0.000000000000000000, -1.000000000000000000, 0.000000000000000000 ) ) ;
#1012 = CARTESIAN_POINT ( 'NONE',  ( -20.99999999999999289, 15.50000000000000000, 15.49999999999999822 ) ) ;
#1013 = ORIENTED_EDGE ( 'NONE', *, *, #944, .T. ) ;
#1014 = COORDINATED_UNIVERSAL_TIME_OFFSET ( 8, 0, .AHEAD. ) ;
#1015 = ORIENTED_EDGE ( 'NONE', *, *, #1064, .T. ) ;
#1016 = DIRECTION ( 'NONE',  ( -1.000000000000000000, 0.000000000000000000, 0.000000000000000000 ) ) ;
#1017 = FACE_BOUND ( 'NONE', #200, .T. ) ;
#1018 = EDGE_CURVE ( 'NONE', #707, #491, #157, .T. ) ;
#1019 = DESIGN_CONTEXT ( 'detailed design', #339, 'design' ) ;
#1020 = DIRECTION ( 'NONE',  ( -0.000000000000000000, -1.000000000000000000, -0.000000000000000000 ) ) ;
#1021 = CIRCLE ( 'NONE', #173, 1.500000000000001332 ) ;
#1022 = CIRCLE ( 'NONE', #447, 11.50000000000000178 ) ;
#1023 = AXIS2_PLACEMENT_3D ( 'NONE', #483, #980, #818 ) ;
#1024 = DIRECTION ( 'NONE',  ( 0.000000000000000000, 0.000000000000000000, 1.000000000000000000 ) ) ;
#1025 = EDGE_LOOP ( 'NONE', ( #879, #454, #418, #605 ) ) ;
#1026 = ORIENTED_EDGE ( 'NONE', *, *, #152, .F. ) ;
#1027 = CYLINDRICAL_SURFACE ( 'NONE', #2, 11.50000000000000178 ) ;
#1028 = ADVANCED_FACE ( 'NONE', ( #1068 ), #198, .F. ) ;
#1029 = CARTESIAN_POINT ( 'NONE',  ( -20.99999999999999289, 3.000000000000000000, 19.99999999999999645 ) ) ;
#1030 = VERTEX_POINT ( 'NONE', #988 ) ;
#1031 = EDGE_LOOP ( 'NONE', ( #369, #80, #688, #616, #710, #1013 ) ) ;
#1032 = DIRECTION ( 'NONE',  ( -0.000000000000000000, -1.000000000000000000, -0.000000000000000000 ) ) ;
#1033 = ORIENTED_EDGE ( 'NONE', *, *, #706, .F. ) ;
#1034 = EDGE_CURVE ( 'NONE', #226, #259, #791, .T. ) ;
#1035 = ORIENTED_EDGE ( 'NONE', *, *, #1088, .T. ) ;
#1036 = AXIS2_PLACEMENT_3D ( 'NONE', #678, #13, #271 ) ;
#1037 = FACE_OUTER_BOUND ( 'NONE', #293, .T. ) ;
#1038 = CC_DESIGN_APPROVAL ( #855, ( #950 ) ) ;
#1039 = PRODUCT ( '42\X2\6b658fdb7535673a652f67b6\X0\', '42\X2\6b658fdb7535673a652f67b6\X0\', '', ( #653 ) ) ;
#1040 = ORIENTED_EDGE ( 'NONE', *, *, #877, .F. ) ;
#1041 = CC_DESIGN_PERSON_AND_ORGANIZATION_ASSIGNMENT ( #806, #595, ( #950 ) ) ;
#1042 = CYLINDRICAL_SURFACE ( 'NONE', #813, 1.500000000000001332 ) ;
#1043 = CARTESIAN_POINT ( 'NONE',  ( 21.00000000000000711, 3.000000000000000000, -15.00000000000000711 ) ) ;
#1044 = DIRECTION ( 'NONE',  ( 0.000000000000000000, 1.000000000000000000, -0.000000000000000000 ) ) ;
#1045 = ORIENTED_EDGE ( 'NONE', *, *, #1082, .T. ) ;
#1046 = LINE ( 'NONE', #880, #687 ) ;
#1047 = EDGE_CURVE ( 'NONE', #226, #606, #451, .T. ) ;
#1048 = PRODUCT_DEFINITION_SHAPE ( 'NONE', 'NONE',  #257 ) ;
#1049 = ORIENTED_EDGE ( 'NONE', *, *, #528, .F. ) ;
#1050 = DIRECTION ( 'NONE',  ( 0.000000000000000000, 0.000000000000000000, 1.000000000000000000 ) ) ;
#1051 = PLANE ( 'NONE',  #400 ) ;
#1052 = CARTESIAN_POINT ( 'NONE',  ( -17.99999999999999645, 15.50000000000000000, -17.00000000000000000 ) ) ;
#1053 = VERTEX_POINT ( 'NONE', #558 ) ;
#1054 = CARTESIAN_POINT ( 'NONE',  ( -17.99999999999999645, 46.50000000000000000, 15.50000000000000000 ) ) ;
#1055 = VERTEX_POINT ( 'NONE', #967 ) ;
#1056 = CIRCLE ( 'NONE', #508, 1.500000000000001332 ) ;
#1057 = CARTESIAN_POINT ( 'NONE',  ( -12.00000000000000355, 0.000000000000000000, -16.50000000000000000 ) ) ;
#1058 = ORIENTED_EDGE ( 'NONE', *, *, #420, .T. ) ;
#1059 = DIRECTION ( 'NONE',  ( 0.000000000000000000, 0.000000000000000000, 1.000000000000000000 ) ) ;
#1060 = PERSON_AND_ORGANIZATION ( #709, #335 ) ;
#1061 = DIRECTION ( 'NONE',  ( -1.000000000000000000, -0.000000000000000000, -0.000000000000000000 ) ) ;
#1062 = ORIENTED_EDGE ( 'NONE', *, *, #289, .T. ) ;
#1063 = DIRECTION ( 'NONE',  ( -1.000000000000000000, 0.000000000000000000, -0.000000000000000000 ) ) ;
#1064 = EDGE_CURVE ( 'NONE', #905, #588, #301, .T. ) ;
#1065 = EDGE_LOOP ( 'NONE', ( #179, #118 ) ) ;
#1066 = APPROVAL_STATUS ( 'not_yet_approved' ) ;
#1067 = CARTESIAN_POINT ( 'NONE',  ( -17.99999999999999645, 31.00000000000000000, -11.50000000000000178 ) ) ;
#1068 = FACE_OUTER_BOUND ( 'NONE', #434, .T. ) ;
#1069 = ORIENTED_EDGE ( 'NONE', *, *, #805, .T. ) ;
#1070 = ORIENTED_EDGE ( 'NONE', *, *, #597, .T. ) ;
#1071 = ADVANCED_FACE ( 'NONE', ( #109 ), #1051, .T. ) ;
#1072 = ORIENTED_EDGE ( 'NONE', *, *, #402, .F. ) ;
#1073 = CC_DESIGN_DATE_AND_TIME_ASSIGNMENT ( #62, #583, ( #563 ) ) ;
#1074 = DIRECTION ( 'NONE',  ( 1.000000000000000000, 0.000000000000000000, 0.000000000000000000 ) ) ;
#1075 = FACE_BOUND ( 'NONE', #625, .T. ) ;
#1076 = VERTEX_POINT ( 'NONE', #32 ) ;
#1077 = CARTESIAN_POINT ( 'NONE',  ( -17.99999999999999645, 3.000000000000000000, -20.00000000000000355 ) ) ;
#1078 = CIRCLE ( 'NONE', #366, 1.500000000000001332 ) ;
#1079 = EDGE_LOOP ( 'NONE', ( #29, #433, #1089, #481, #634, #359 ) ) ;
#1080 = LINE ( 'NONE', #1086, #878 ) ;
#1081 = CIRCLE ( 'NONE', #88, 5.000000000000000888 ) ;
#1082 = EDGE_CURVE ( 'NONE', #98, #778, #551, .T. ) ;
#1083 = FACE_BOUND ( 'NONE', #870, .T. ) ;
#1084 = VERTEX_POINT ( 'NONE', #975 ) ;
#1085 = LINE ( 'NONE', #672, #100 ) ;
#1086 = CARTESIAN_POINT ( 'NONE',  ( -20.99999999999999289, 0.000000000000000000, 19.99999999999999645 ) ) ;
#1087 = SHAPE_DEFINITION_REPRESENTATION ( #1048, #181 ) ;
#1088 = EDGE_CURVE ( 'NONE', #976, #1055, #314, .T. ) ;
#1089 = ORIENTED_EDGE ( 'NONE', *, *, #1047, .F. ) ;
#1090 = FACE_BOUND ( 'NONE', #945, .T. ) ;
#1091 = DIRECTION ( 'NONE',  ( -1.000000000000000000, 0.000000000000000000, 0.000000000000000000 ) ) ;
#1092 = CARTESIAN_POINT ( 'NONE',  ( -20.99999999999999289, 47.00000000000000711, 14.99999999999999645 ) ) ;
#1093 = CARTESIAN_POINT ( 'NONE',  ( 12.00000000000000355, 3.000000000000000000, 16.50000000000000000 ) ) ;
#1094 = AXIS2_PLACEMENT_3D ( 'NONE', #258, #948, #767 ) ;
#1095 = VECTOR ( 'NONE', #300, 1000.000000000000000 ) ;
#1096 = CARTESIAN_POINT ( 'NONE',  ( 21.00000000000000711, 3.000000000000000000, 19.99999999999999645 ) ) ;
#1097 = VECTOR ( 'NONE', #83, 1000.000000000000000 ) ;
#1098 = DATE_AND_TIME ( #765, #594 ) ;
#1099 = LINE ( 'NONE', #927, #311 ) ;
#1100 = EDGE_LOOP ( 'NONE', ( #738, #521 ) ) ;
#1101 = CARTESIAN_POINT ( 'NONE',  ( 11.99999999999999645, 0.000000000000000000, -15.00000000000000355 ) ) ;
#1102 = EDGE_CURVE ( 'NONE', #978, #803, #994, .T. ) ;
#1103 = CARTESIAN_POINT ( 'NONE',  ( 21.00000000000000711, 0.000000000000000000, -15.00000000000000711 ) ) ;
#1104 = ORIENTED_EDGE ( 'NONE', *, *, #756, .T. ) ;
#1105 = DIRECTION ( 'NONE',  ( 0.000000000000000000, 0.000000000000000000, 1.000000000000000000 ) ) ;
#1106 = CARTESIAN_POINT ( 'NONE',  ( -20.99999999999999289, 31.00000000000000000, 0.000000000000000000 ) ) ;
#1107 = DIRECTION ( 'NONE',  ( 0.000000000000000000, 0.000000000000000000, -1.000000000000000000 ) ) ;
#1108 = ORIENTED_EDGE ( 'NONE', *, *, #808, .F. ) ;
#1109 = LINE ( 'NONE', #264, #1010 ) ;
ENDSEC;
END-ISO-10303-21;
