ISO-10303-21;
HEADER;
FILE_DESCRIPTION(('CATIA V5 STEP Exchange','CAx-IF Rec.Pracs.--- Composite Materials ---3.4---2017-06-13'),'2;1');

FILE_NAME('C:\\Users\\PH\\Desktop\\\X2\5DE5521B72696D418D446599\X0\\\1\X2\7ED367846A21578B53CA\X0\PCB\\\X2\7ED367846A21578B\X0\\\\X2\6253537090E84EF6\X0\\\gudinggouzhua.stp','2026-05-25T05:21:19+00:00',('none'),('none'),'CATIA Version 5-6 Release 2021 SP7','CATIA V5 STEP AP203 v2','none');

FILE_SCHEMA(('CONFIG_CONTROL_DESIGN'));

ENDSEC;
DATA;
#5=PRODUCT('Part1','','',(#2)) ;
#1=APPLICATION_CONTEXT('configuration controlled 3D design of mechanical parts and assemblies') ;
#14=PRODUCT_DEFINITION('',' ',#6,#3) ;
#16=SECURITY_CLASSIFICATION(' ',' ',#15) ;
#15=SECURITY_CLASSIFICATION_LEVEL('unclassified') ;
#46=CARTESIAN_POINT(' ',(0.,0.,0.)) ;
#51=CARTESIAN_POINT('Axis2P3D Location',(-13.6348058058,2.82679192885E-14,-7.25402183389)) ;
#56=CARTESIAN_POINT('Axis2P3D Location',(26.9455333857,261.906497005,-83.5296461812)) ;
#60=CARTESIAN_POINT('Vertex',(23.6389073301,267.906497005,-77.3144451282)) ;
#62=CARTESIAN_POINT('Vertex',(30.2521594413,267.906497005,-89.7448472342)) ;
#65=CARTESIAN_POINT('Line Origine',(26.9455333857,267.906497005,-83.5296461812)) ;
#75=CARTESIAN_POINT('Axis2P3D Location',(22.5313681711,261.906497005,-85.8780808638)) ;
#80=CARTESIAN_POINT('Line Origine',(19.2247421155,267.906497005,-79.6628798108)) ;
#84=CARTESIAN_POINT('Vertex',(18.5698011242,267.906497005,-80.0113230757)) ;
#87=CARTESIAN_POINT('Axis2P3D Location',(21.8764271798,261.906497005,-86.2265241287)) ;
#91=CARTESIAN_POINT('Vertex',(17.6403915268,263.961456629,-78.2643860433)) ;
#95=CARTESIAN_POINT('Control Point',(17.5533351827,262.906497005,-78.1102814258)) ;
#96=CARTESIAN_POINT('Control Point',(17.5731740733,263.261168945,-78.1434144084)) ;
#97=CARTESIAN_POINT('Control Point',(17.6031646843,263.61360379,-78.1944137192)) ;
#98=CARTESIAN_POINT('Control Point',(17.6403915268,263.961456629,-78.2643860433)) ;
#99=CARTESIAN_POINT('Vertex',(17.5533351827,262.906497005,-78.1102814258)) ;
#102=CARTESIAN_POINT('Line Origine',(18.2122271092,262.906497005,-77.759736175)) ;
#106=CARTESIAN_POINT('Vertex',(13.7980618946,262.906497005,-80.1081708576)) ;
#109=CARTESIAN_POINT('Axis2P3D Location',(18.1172029566,261.906497005,-88.2265155464)) ;
#113=CARTESIAN_POINT('Vertex',(22.4363440185,262.906497005,-96.3448602353)) ;
#116=CARTESIAN_POINT('Line Origine',(26.8505092331,262.906497005,-93.9964255527)) ;
#120=CARTESIAN_POINT('Vertex',(26.1955682418,262.906497005,-94.3448688175)) ;
#123=CARTESIAN_POINT('Axis2P3D Location',(21.8764271798,261.906497005,-86.2265241287)) ;
#127=CARTESIAN_POINT('Vertex',(25.1830532354,267.906497005,-92.4417251817)) ;
#130=CARTESIAN_POINT('Line Origine',(25.8379942267,267.906497005,-92.0932819168)) ;
#147=CARTESIAN_POINT('Axis2P3D Location',(-12.3475141027,1.00309610898E-14,-6.56915383842)) ;
#152=CARTESIAN_POINT('Line Origine',(34.2829333456,267.802429631,-94.2166837402)) ;
#156=CARTESIAN_POINT('Vertex',(34.2829333456,267.698362257,-94.2166837402)) ;
#158=CARTESIAN_POINT('Vertex',(34.2829333456,267.906497005,-94.2166837402)) ;
#161=CARTESIAN_POINT('Line Origine',(32.7799351487,267.906497005,-91.3916180029)) ;
#165=CARTESIAN_POINT('Vertex',(31.2769369518,267.906497005,-88.5665522655)) ;
#168=CARTESIAN_POINT('Line Origine',(31.2769369518,267.802429631,-88.5665522655)) ;
#172=CARTESIAN_POINT('Vertex',(31.2769369518,267.698362257,-88.5665522655)) ;
#175=CARTESIAN_POINT('Line Origine',(32.7799351487,267.698362257,-91.3916180029)) ;
#187=CARTESIAN_POINT('Axis2P3D Location',(46.6304474482,-3.30054793282E-14,-87.6475299018)) ;
#192=CARTESIAN_POINT('Line Origine',(34.2242328668,267.802429631,-94.2479137086)) ;
#196=CARTESIAN_POINT('Vertex',(34.1655323881,267.906497005,-94.279143677)) ;
#199=CARTESIAN_POINT('Line Origine',(29.5010760872,267.906497005,-96.760738819)) ;
#203=CARTESIAN_POINT('Vertex',(24.8366197864,267.906497005,-99.242333961)) ;
#206=CARTESIAN_POINT('Line Origine',(24.8366197864,265.406497005,-99.242333961)) ;
#210=CARTESIAN_POINT('Vertex',(24.8366197864,262.906497005,-99.242333961)) ;
#213=CARTESIAN_POINT('Line Origine',(24.5019654998,262.906497005,-99.4203775309)) ;
#217=CARTESIAN_POINT('Vertex',(24.1673112133,262.906497005,-99.5984211009)) ;
#220=CARTESIAN_POINT('Line Origine',(24.1673112133,267.906497005,-99.5984211009)) ;
#224=CARTESIAN_POINT('Vertex',(24.1673112133,272.906497005,-99.5984211009)) ;
#227=CARTESIAN_POINT('Line Origine',(30.3753790851,272.906497005,-96.2955900573)) ;
#231=CARTESIAN_POINT('Vertex',(36.5834469569,272.906497005,-92.9927590138)) ;
#234=CARTESIAN_POINT('Line Origine',(37.9936026191,270.406497005,-92.2425246424)) ;
#238=CARTESIAN_POINT('Vertex',(39.4037582813,267.906497005,-91.492290271)) ;
#241=CARTESIAN_POINT('Line Origine',(36.8433458134,267.906497005,-92.8544870056)) ;
#258=CARTESIAN_POINT('Axis2P3D Location',(24.9205390428,267.906497005,-91.9482982085)) ;
#263=CARTESIAN_POINT('Line Origine',(37.9007600844,267.906497005,-88.6672245336)) ;
#267=CARTESIAN_POINT('Vertex',(36.3977618876,267.906497005,-85.8421587963)) ;
#270=CARTESIAN_POINT('Line Origine',(33.8373494197,267.906497005,-87.2043555309)) ;
#282=CARTESIAN_POINT('Axis2P3D Location',(40.9881004239,215.656497005,-83.3999959638)) ;
#287=CARTESIAN_POINT('Line Origine',(49.816430853,225.886827036,-78.7031265986)) ;
#291=CARTESIAN_POINT('Vertex',(49.816430853,244.117157067,-78.7031265986)) ;
#293=CARTESIAN_POINT('Vertex',(49.816430853,207.656497005,-78.7031265986)) ;
#296=CARTESIAN_POINT('Line Origine',(43.6365995526,208.656497005,-81.9909351543)) ;
#300=CARTESIAN_POINT('Vertex',(37.4567682522,209.656497005,-85.2787437099)) ;
#303=CARTESIAN_POINT('Line Origine',(37.4567682522,212.656497005,-85.2787437099)) ;
#307=CARTESIAN_POINT('Vertex',(37.4567682522,215.656497005,-85.2787437099)) ;
#310=CARTESIAN_POINT('Line Origine',(41.4295169453,215.656497005,-83.1651524956)) ;
#314=CARTESIAN_POINT('Vertex',(45.4022656384,215.656497005,-81.0515612812)) ;
#317=CARTESIAN_POINT('Line Origine',(45.4022656384,229.156357432,-81.0515612812)) ;
#321=CARTESIAN_POINT('Vertex',(45.4022656384,242.656217859,-81.0515612812)) ;
#324=CARTESIAN_POINT('Line Origine',(38.3396012951,255.177290058,-84.8090567734)) ;
#329=CARTESIAN_POINT('Line Origine',(43.1070963703,256.011827036,-82.2726426975)) ;
#346=CARTESIAN_POINT('Axis2P3D Location',(31.1595359944,267.906497005,-88.6290122023)) ;
#351=CARTESIAN_POINT('Line Origine',(22.2941846792,267.802429631,-71.8239544186)) ;
#355=CARTESIAN_POINT('Vertex',(22.3528851579,267.698362257,-71.7927244502)) ;
#357=CARTESIAN_POINT('Vertex',(22.2354842005,267.906497005,-71.855184387)) ;
#360=CARTESIAN_POINT('Line Origine',(28.2005082943,267.906497005,-83.067164032)) ;
#365=CARTESIAN_POINT('Line Origine',(42.5841440193,242.656217859,-75.7545630237)) ;
#369=CARTESIAN_POINT('Vertex',(39.7660224002,242.656217859,-70.4575647662)) ;
#372=CARTESIAN_POINT('Line Origine',(32.7033580569,255.177290058,-74.2150602584)) ;
#376=CARTESIAN_POINT('Vertex',(25.6406937136,267.698362257,-77.9725557506)) ;
#379=CARTESIAN_POINT('Line Origine',(23.9967894357,267.698362257,-74.8826401004)) ;
#395=CARTESIAN_POINT('Line Origine',(25.7328421971,267.906497005,-93.4751196073)) ;
#399=CARTESIAN_POINT('Vertex',(26.2826311587,267.906497005,-94.5085140329)) ;
#402=CARTESIAN_POINT('Axis2P3D Location',(23.1927155085,267.906497005,-96.1524183108)) ;
#407=CARTESIAN_POINT('Line Origine',(17.5710278996,267.906497005,-74.336779529)) ;
#411=CARTESIAN_POINT('Vertex',(12.9065715987,267.906497005,-76.8183746709)) ;
#414=CARTESIAN_POINT('Axis2P3D Location',(14.5504758766,267.906497005,-79.9082903211)) ;
#418=CARTESIAN_POINT('Vertex',(17.6403915268,267.906497005,-78.2643860433)) ;
#421=CARTESIAN_POINT('Line Origine',(18.1050963255,267.906497005,-79.1378545595)) ;
#439=CARTESIAN_POINT('Axis2P3D Location',(23.1927155085,244.281497005,-96.1524183108)) ;
#444=CARTESIAN_POINT('Axis2P3D Location',(23.1927155085,262.906497005,-96.1524183108)) ;
#448=CARTESIAN_POINT('Vertex',(26.2826311587,262.906497005,-94.5085140329)) ;
#451=CARTESIAN_POINT('Line Origine',(26.2826311587,244.281497005,-94.5085140329)) ;
#463=CARTESIAN_POINT('Axis2P3D Location',(21.1613148196,262.906497005,-93.9482896262)) ;
#468=CARTESIAN_POINT('Line Origine',(23.3018276159,262.906497005,-97.9716406681)) ;
#473=CARTESIAN_POINT('Line Origine',(26.2390997003,262.906497005,-94.4266914252)) ;
#486=CARTESIAN_POINT('Axis2P3D Location',(21.1613148196,272.906497005,-93.9482896262)) ;
#491=CARTESIAN_POINT('Line Origine',(13.0176624601,262.906497005,-78.6413163342)) ;
#495=CARTESIAN_POINT('Vertex',(12.2372630257,262.906497005,-77.1744618108)) ;
#498=CARTESIAN_POINT('Line Origine',(12.2372630257,267.906497005,-77.1744618108)) ;
#502=CARTESIAN_POINT('Vertex',(12.2372630257,272.906497005,-77.1744618108)) ;
#505=CARTESIAN_POINT('Line Origine',(18.2022871195,272.906497005,-88.3864414559)) ;
#519=CARTESIAN_POINT('Axis2P3D Location',(33.5774505631,272.906497005,-87.3426275391)) ;
#524=CARTESIAN_POINT('Line Origine',(18.4453308975,272.906497005,-73.8716307673)) ;
#528=CARTESIAN_POINT('Vertex',(24.6533987692,272.906497005,-70.5687997237)) ;
#531=CARTESIAN_POINT('Line Origine',(30.6184228631,272.906497005,-81.7807793688)) ;
#543=CARTESIAN_POINT('Axis2P3D Location',(49.816430853,244.117157067,-78.7031265986)) ;
#548=CARTESIAN_POINT('Line Origine',(29.1176143715,267.906497005,-72.1582466311)) ;
#552=CARTESIAN_POINT('Vertex',(30.7615186493,267.906497005,-75.2481622813)) ;
#554=CARTESIAN_POINT('Vertex',(27.4737100937,267.906497005,-69.0683309809)) ;
#557=CARTESIAN_POINT('Line Origine',(37.470853132,256.011827036,-71.6786461825)) ;
#561=CARTESIAN_POINT('Vertex',(44.1801876148,244.117157067,-68.1091300836)) ;
#564=CARTESIAN_POINT('Line Origine',(46.9983092339,244.117157067,-73.4061283411)) ;
#569=CARTESIAN_POINT('Line Origine',(26.0635544314,270.406497005,-69.8185653523)) ;
#585=CARTESIAN_POINT('Axis2P3D Location',(6.1919797985,-1.63845020422E-14,3.29427182852)) ;
#590=CARTESIAN_POINT('Line Origine',(44.1801876148,225.886827036,-68.1091300836)) ;
#594=CARTESIAN_POINT('Vertex',(44.1801876148,207.656497005,-68.1091300836)) ;
#597=CARTESIAN_POINT('Line Origine',(46.9983092339,207.656497005,-73.4061283411)) ;
#609=CARTESIAN_POINT('Axis2P3D Location',(49.816430853,207.656497005,-78.7031265986)) ;
#614=CARTESIAN_POINT('Line Origine',(38.0003563144,208.656497005,-71.3969386393)) ;
#618=CARTESIAN_POINT('Vertex',(31.820525014,209.656497005,-74.6847471949)) ;
#621=CARTESIAN_POINT('Line Origine',(34.6386466331,209.656497005,-79.9817454524)) ;
#633=CARTESIAN_POINT('Axis2P3D Location',(-6.1676828023,-6.3436716693E-15,-3.28134528278)) ;
#638=CARTESIAN_POINT('Line Origine',(31.820525014,212.656497005,-74.6847471949)) ;
#642=CARTESIAN_POINT('Vertex',(31.820525014,215.656497005,-74.6847471949)) ;
#645=CARTESIAN_POINT('Line Origine',(32.1210092271,215.656497005,-75.2495433849)) ;
#649=CARTESIAN_POINT('Vertex',(32.4214934403,215.656497005,-75.8143395749)) ;
#652=CARTESIAN_POINT('Line Origine',(32.626981475,216.531497005,-76.2005790312)) ;
#656=CARTESIAN_POINT('Vertex',(32.8324695097,217.406497005,-76.5868184875)) ;
#659=CARTESIAN_POINT('Line Origine',(33.2295858235,217.406497005,-77.3332463237)) ;
#663=CARTESIAN_POINT('Vertex',(33.6267021373,217.406497005,-78.0796741599)) ;
#666=CARTESIAN_POINT('Line Origine',(33.8321901721,216.531497005,-78.4659136161)) ;
#670=CARTESIAN_POINT('Vertex',(34.0376782068,215.656497005,-78.8521530724)) ;
#673=CARTESIAN_POINT('Line Origine',(34.6386466331,215.656497005,-79.9817454524)) ;
#677=CARTESIAN_POINT('Vertex',(35.2396150594,215.656497005,-81.1113378324)) ;
#680=CARTESIAN_POINT('Line Origine',(35.4451030941,216.531497005,-81.4975772887)) ;
#684=CARTESIAN_POINT('Vertex',(35.6505911288,217.406497005,-81.883816745)) ;
#687=CARTESIAN_POINT('Line Origine',(36.0477074427,217.406497005,-82.6302445812)) ;
#691=CARTESIAN_POINT('Vertex',(36.4448237565,217.406497005,-83.3766724173)) ;
#694=CARTESIAN_POINT('Line Origine',(36.6503117912,216.531497005,-83.7629118736)) ;
#698=CARTESIAN_POINT('Vertex',(36.8557998259,215.656497005,-84.1491513299)) ;
#701=CARTESIAN_POINT('Line Origine',(37.1562840391,215.656497005,-84.7139475199)) ;
#721=CARTESIAN_POINT('Axis2P3D Location',(35.9528256119,215.656497005,-73.9355918288)) ;
#726=CARTESIAN_POINT('Line Origine',(45.1017814253,215.656497005,-80.4867650912)) ;
#730=CARTESIAN_POINT('Vertex',(44.8012972121,215.656497005,-79.9219689012)) ;
#733=CARTESIAN_POINT('Line Origine',(40.828548519,215.656497005,-82.0355601155)) ;
#745=CARTESIAN_POINT('Axis2P3D Location',(45.4022656384,242.656217859,-81.0515612812)) ;
#750=CARTESIAN_POINT('Line Origine',(39.7660224002,229.156357432,-70.4575647662)) ;
#754=CARTESIAN_POINT('Vertex',(39.7660224002,215.656497005,-70.4575647662)) ;
#757=CARTESIAN_POINT('Line Origine',(44.5958091774,216.531497005,-79.5357294449)) ;
#761=CARTESIAN_POINT('Vertex',(44.3903211427,217.406497005,-79.1494899887)) ;
#764=CARTESIAN_POINT('Line Origine',(43.9932048289,217.406497005,-78.4030621525)) ;
#768=CARTESIAN_POINT('Vertex',(43.5960885151,217.406497005,-77.6566343163)) ;
#771=CARTESIAN_POINT('Line Origine',(43.3906004803,216.531497005,-77.27039486)) ;
#775=CARTESIAN_POINT('Vertex',(43.1851124456,215.656497005,-76.8841554037)) ;
#778=CARTESIAN_POINT('Line Origine',(42.5841440193,215.656497005,-75.7545630237)) ;
#782=CARTESIAN_POINT('Vertex',(41.983175593,215.656497005,-74.6249706437)) ;
#785=CARTESIAN_POINT('Line Origine',(41.7776875583,216.531497005,-74.2387311874)) ;
#789=CARTESIAN_POINT('Vertex',(41.5721995236,217.406497005,-73.8524917312)) ;
#792=CARTESIAN_POINT('Line Origine',(41.1750832098,217.406497005,-73.106063895)) ;
#796=CARTESIAN_POINT('Vertex',(40.7779668959,217.406497005,-72.3596360588)) ;
#799=CARTESIAN_POINT('Line Origine',(40.5724788612,216.531497005,-71.9733966025)) ;
#803=CARTESIAN_POINT('Vertex',(40.3669908265,215.656497005,-71.5871571462)) ;
#806=CARTESIAN_POINT('Line Origine',(40.0665066133,215.656497005,-71.0223609562)) ;
#826=CARTESIAN_POINT('Line Origine',(23.9967894357,267.906497005,-74.8826401004)) ;
#830=CARTESIAN_POINT('Vertex',(25.6406937136,267.906497005,-77.9725557506)) ;
#832=CARTESIAN_POINT('Vertex',(22.3528851579,267.906497005,-71.7927244502)) ;
#835=CARTESIAN_POINT('Line Origine',(22.3528851579,267.802429631,-71.7927244502)) ;
#840=CARTESIAN_POINT('Line Origine',(25.6406937136,267.802429631,-77.9725557506)) ;
#852=CARTESIAN_POINT('Axis2P3D Location',(35.3518571856,211.656497005,-72.8059994488)) ;
#857=CARTESIAN_POINT('Line Origine',(28.2011061814,267.906497005,-76.610359016)) ;
#862=CARTESIAN_POINT('Line Origine',(35.7932737071,215.656497005,-72.5711559806)) ;
#879=CARTESIAN_POINT('Axis2P3D Location',(34.7003992606,-2.33136621596E-14,-65.2235706117)) ;
#884=CARTESIAN_POINT('Line Origine',(24.9132976258,267.906497005,-70.4305277156)) ;
#889=CARTESIAN_POINT('Line Origine',(12.5719173122,262.906497005,-76.9964182409)) ;
#893=CARTESIAN_POINT('Vertex',(12.9065715987,262.906497005,-76.8183746709)) ;
#896=CARTESIAN_POINT('Line Origine',(12.9065715987,265.406497005,-76.8183746709)) ;
#913=CARTESIAN_POINT('Axis2P3D Location',(24.9205390428,262.906497005,-91.9482982085)) ;
#918=CARTESIAN_POINT('Line Origine',(17.6403915268,265.933976817,-78.2643860433)) ;
#929=CARTESIAN_POINT('Axis2P3D Location',(14.5504758766,244.281497005,-79.9082903211)) ;
#934=CARTESIAN_POINT('Axis2P3D Location',(14.5504758766,262.906497005,-79.9082903211)) ;
#968=CARTESIAN_POINT('Line Origine',(36.3942421334,215.656497005,-73.7007483606)) ;
#980=CARTESIAN_POINT('Axis2P3D Location',(35.9528256119,215.656497005,-73.9355918288)) ;
#985=CARTESIAN_POINT('Line Origine',(36.8052182028,217.406497005,-74.4732272731)) ;
#997=CARTESIAN_POINT('Axis2P3D Location',(36.3638016814,217.406497005,-74.7080707414)) ;
#1002=CARTESIAN_POINT('Line Origine',(37.5994508305,217.406497005,-75.9660829455)) ;
#1014=CARTESIAN_POINT('Axis2P3D Location',(37.158034309,217.406497005,-76.2009264138)) ;
#1019=CARTESIAN_POINT('Line Origine',(38.0104268999,215.656497005,-76.7385618581)) ;
#1031=CARTESIAN_POINT('Line Origine',(39.2123637525,215.656497005,-78.9977466181)) ;
#1043=CARTESIAN_POINT('Axis2P3D Location',(38.770947231,215.656497005,-79.2325900863)) ;
#1048=CARTESIAN_POINT('Line Origine',(39.623339822,217.406497005,-79.7702255306)) ;
#1060=CARTESIAN_POINT('Line Origine',(40.4175724496,217.406497005,-81.263081203)) ;
#1072=CARTESIAN_POINT('Axis2P3D Location',(39.9761559281,217.406497005,-81.4979246713)) ;
#52=DIRECTION('Axis2P3D Direction',(-0.882833042914,7.1720216949E-16,-0.469686936521)) ;
#53=DIRECTION('Axis2P3D XDirection',(-8.12387093173E-16,-1.,1.21016523888E-31)) ;
#57=DIRECTION('Axis2P3D Direction',(-0.882833042914,7.1720216949E-16,-0.469686936521)) ;
#66=DIRECTION('Vector Direction',(0.469686936521,0.,-0.882833042914)) ;
#76=DIRECTION('Axis2P3D Direction',(-0.882833042914,7.1720216949E-16,-0.469686936521)) ;
#77=DIRECTION('Axis2P3D XDirection',(-0.469686936521,9.82906601791E-17,0.882833042914)) ;
#81=DIRECTION('Vector Direction',(-0.882833042914,0.,-0.469686936521)) ;
#88=DIRECTION('Axis2P3D Direction',(-0.882833042914,7.1720216949E-16,-0.469686936521)) ;
#103=DIRECTION('Vector Direction',(-0.882833042914,0.,-0.469686936521)) ;
#110=DIRECTION('Axis2P3D Direction',(-0.882833042914,7.1720216949E-16,-0.469686936521)) ;
#117=DIRECTION('Vector Direction',(-0.882833042914,0.,-0.469686936521)) ;
#124=DIRECTION('Axis2P3D Direction',(-0.882833042914,7.1720216949E-16,-0.469686936521)) ;
#131=DIRECTION('Vector Direction',(-0.882833042914,0.,-0.469686936521)) ;
#148=DIRECTION('Axis2P3D Direction',(0.882833042914,-7.1720216949E-16,0.469686936521)) ;
#149=DIRECTION('Axis2P3D XDirection',(8.12387093173E-16,1.,3.63280329882E-32)) ;
#153=DIRECTION('Vector Direction',(0.,-1.,0.)) ;
#162=DIRECTION('Vector Direction',(-0.469686936521,0.,0.882833042914)) ;
#169=DIRECTION('Vector Direction',(1.7069296261E-14,1.,0.)) ;
#176=DIRECTION('Vector Direction',(-0.469686936521,0.,0.882833042914)) ;
#188=DIRECTION('Axis2P3D Direction',(0.469686936521,-3.81567605061E-16,-0.882833042914)) ;
#189=DIRECTION('Axis2P3D XDirection',(8.12387093173E-16,1.,-1.29363141479E-31)) ;
#193=DIRECTION('Vector Direction',(0.475325822,-0.842683248979,0.252883975035)) ;
#200=DIRECTION('Vector Direction',(0.882833042914,0.,0.469686936521)) ;
#207=DIRECTION('Vector Direction',(1.42108547152E-15,1.,0.)) ;
#214=DIRECTION('Vector Direction',(0.882833042914,0.,0.469686936521)) ;
#221=DIRECTION('Vector Direction',(-7.1054273576E-16,-1.,0.)) ;
#228=DIRECTION('Vector Direction',(-0.882833042914,0.,-0.469686936521)) ;
#235=DIRECTION('Vector Direction',(-0.475325822,0.842683248979,-0.252883975035)) ;
#242=DIRECTION('Vector Direction',(-0.882833042914,0.,-0.469686936521)) ;
#259=DIRECTION('Axis2P3D Direction',(8.12387093173E-16,1.,-1.47911419729E-31)) ;
#260=DIRECTION('Axis2P3D XDirection',(0.882833042914,-7.1720216949E-16,0.469686936521)) ;
#264=DIRECTION('Vector Direction',(-0.469686936521,0.,0.882833042914)) ;
#271=DIRECTION('Vector Direction',(-0.882833042914,0.,-0.469686936521)) ;
#283=DIRECTION('Axis2P3D Direction',(0.469686936521,-3.81567605061E-16,-0.882833042914)) ;
#284=DIRECTION('Axis2P3D XDirection',(-8.12387093173E-16,-1.,-1.18329135783E-30)) ;
#288=DIRECTION('Vector Direction',(-7.79517139348E-16,-1.,0.)) ;
#297=DIRECTION('Vector Direction',(-0.87396012382,0.141421356237,-0.464966344988)) ;
#304=DIRECTION('Vector Direction',(-1.18423789293E-15,-1.,0.)) ;
#311=DIRECTION('Vector Direction',(-0.882833042914,0.,-0.469686936521)) ;
#318=DIRECTION('Vector Direction',(2.6316669702E-16,1.,0.)) ;
#325=DIRECTION('Vector Direction',(-0.475325822,0.842683248979,-0.252883975035)) ;
#330=DIRECTION('Vector Direction',(-0.475325822,0.842683248979,-0.252883975035)) ;
#347=DIRECTION('Axis2P3D Direction',(0.743948616909,0.538409641342,0.395797313671)) ;
#348=DIRECTION('Axis2P3D XDirection',(0.475325822,-0.842683248979,0.252883975035)) ;
#352=DIRECTION('Vector Direction',(0.475325822,-0.842683248979,0.252883975035)) ;
#361=DIRECTION('Vector Direction',(0.469686936521,0.,-0.882833042914)) ;
#366=DIRECTION('Vector Direction',(0.469686936521,0.,-0.882833042914)) ;
#373=DIRECTION('Vector Direction',(0.475325822,-0.842683248979,0.252883975035)) ;
#380=DIRECTION('Vector Direction',(0.469686936521,0.,-0.882833042914)) ;
#396=DIRECTION('Vector Direction',(0.469686936521,0.,-0.882833042914)) ;
#403=DIRECTION('Axis2P3D Direction',(8.12387093173E-16,1.,-1.47911419729E-31)) ;
#408=DIRECTION('Vector Direction',(0.882833042914,0.,0.469686936521)) ;
#415=DIRECTION('Axis2P3D Direction',(8.12387093173E-16,1.,-1.47911419729E-31)) ;
#422=DIRECTION('Vector Direction',(0.469686936521,0.,-0.882833042914)) ;
#440=DIRECTION('Axis2P3D Direction',(1.76013568956E-16,1.,-3.30838655694E-16)) ;
#441=DIRECTION('Axis2P3D XDirection',(0.882833042914,0.,0.469686936521)) ;
#445=DIRECTION('Axis2P3D Direction',(1.76013568956E-16,1.,-3.30838655694E-16)) ;
#452=DIRECTION('Vector Direction',(1.77303240364E-16,1.,-3.54606480729E-16)) ;
#464=DIRECTION('Axis2P3D Direction',(8.12387093173E-16,1.,-1.47911419729E-31)) ;
#465=DIRECTION('Axis2P3D XDirection',(0.882833042914,-7.1720216949E-16,0.469686936521)) ;
#469=DIRECTION('Vector Direction',(0.469686936521,0.,-0.882833042914)) ;
#474=DIRECTION('Vector Direction',(0.469686936521,0.,-0.882833042914)) ;
#487=DIRECTION('Axis2P3D Direction',(0.882833042914,-7.1720216949E-16,0.469686936521)) ;
#488=DIRECTION('Axis2P3D XDirection',(-8.12387093173E-16,-1.,1.29363141479E-31)) ;
#492=DIRECTION('Vector Direction',(0.469686936521,0.,-0.882833042914)) ;
#499=DIRECTION('Vector Direction',(-7.1054273576E-16,-1.,0.)) ;
#506=DIRECTION('Vector Direction',(0.469686936521,0.,-0.882833042914)) ;
#520=DIRECTION('Axis2P3D Direction',(-8.12387093173E-16,-1.,1.47911419729E-31)) ;
#521=DIRECTION('Axis2P3D XDirection',(-0.882833042914,7.1720216949E-16,-0.469686936521)) ;
#525=DIRECTION('Vector Direction',(-0.882833042914,0.,-0.469686936521)) ;
#532=DIRECTION('Vector Direction',(0.469686936521,0.,-0.882833042914)) ;
#544=DIRECTION('Axis2P3D Direction',(-0.743948616909,-0.538409641342,-0.395797313671)) ;
#545=DIRECTION('Axis2P3D XDirection',(-0.475325822,0.842683248979,-0.252883975035)) ;
#549=DIRECTION('Vector Direction',(-0.469686936521,0.,0.882833042914)) ;
#558=DIRECTION('Vector Direction',(-0.475325822,0.842683248979,-0.252883975035)) ;
#565=DIRECTION('Vector Direction',(0.469686936521,0.,-0.882833042914)) ;
#570=DIRECTION('Vector Direction',(-0.475325822,0.842683248979,-0.252883975035)) ;
#586=DIRECTION('Axis2P3D Direction',(-0.882833042914,7.1720216949E-16,-0.469686936521)) ;
#587=DIRECTION('Axis2P3D XDirection',(-8.12387093173E-16,-1.,-1.18329135783E-30)) ;
#591=DIRECTION('Vector Direction',(7.79517139348E-16,1.,0.)) ;
#598=DIRECTION('Vector Direction',(-0.469686936521,0.,0.882833042914)) ;
#610=DIRECTION('Axis2P3D Direction',(0.12485144626,0.989949493661,0.0664237635697)) ;
#611=DIRECTION('Axis2P3D XDirection',(-0.87396012382,0.141421356237,-0.464966344988)) ;
#615=DIRECTION('Vector Direction',(-0.87396012382,0.141421356237,-0.464966344988)) ;
#622=DIRECTION('Vector Direction',(-0.469686936521,0.,0.882833042914)) ;
#634=DIRECTION('Axis2P3D Direction',(-0.882833042914,7.1720216949E-16,-0.469686936521)) ;
#635=DIRECTION('Axis2P3D XDirection',(-8.12387093173E-16,-1.,-1.18329135783E-30)) ;
#639=DIRECTION('Vector Direction',(1.18423789293E-15,1.,0.)) ;
#646=DIRECTION('Vector Direction',(-0.469686936521,0.,0.882833042914)) ;
#653=DIRECTION('Vector Direction',(0.210050383641,0.894427191,-0.394814939348)) ;
#660=DIRECTION('Vector Direction',(0.469686936521,0.,-0.882833042914)) ;
#667=DIRECTION('Vector Direction',(0.210050383641,-0.894427191,-0.394814939348)) ;
#674=DIRECTION('Vector Direction',(0.469686936521,0.,-0.882833042914)) ;
#681=DIRECTION('Vector Direction',(0.210050383641,0.894427191,-0.394814939348)) ;
#688=DIRECTION('Vector Direction',(0.469686936521,0.,-0.882833042914)) ;
#695=DIRECTION('Vector Direction',(0.210050383641,-0.894427191,-0.394814939348)) ;
#702=DIRECTION('Vector Direction',(0.469686936521,-8.88519599296E-14,-0.882833042914)) ;
#722=DIRECTION('Axis2P3D Direction',(-8.12387093173E-16,-1.,-1.18329135783E-30)) ;
#723=DIRECTION('Axis2P3D XDirection',(-0.469686936521,3.81567605061E-16,0.882833042914)) ;
#727=DIRECTION('Vector Direction',(-0.469686936521,0.,0.882833042914)) ;
#734=DIRECTION('Vector Direction',(-0.882833042914,0.,-0.469686936521)) ;
#746=DIRECTION('Axis2P3D Direction',(0.882833042914,-7.1720216949E-16,0.469686936521)) ;
#747=DIRECTION('Axis2P3D XDirection',(-8.12387093173E-16,-1.,1.29363141479E-31)) ;
#751=DIRECTION('Vector Direction',(1.05266678808E-15,1.,0.)) ;
#758=DIRECTION('Vector Direction',(-0.210050383641,0.894427191,0.394814939348)) ;
#765=DIRECTION('Vector Direction',(0.469686936521,0.,-0.882833042914)) ;
#772=DIRECTION('Vector Direction',(0.210050383641,0.894427191,-0.394814939348)) ;
#779=DIRECTION('Vector Direction',(-0.469686936521,0.,0.882833042914)) ;
#786=DIRECTION('Vector Direction',(-0.210050383641,0.894427191,0.394814939348)) ;
#793=DIRECTION('Vector Direction',(0.469686936521,0.,-0.882833042914)) ;
#800=DIRECTION('Vector Direction',(0.210050383641,0.894427191,-0.394814939348)) ;
#807=DIRECTION('Vector Direction',(-0.469686936521,0.,0.882833042914)) ;
#827=DIRECTION('Vector Direction',(-0.469686936521,8.12048840869E-15,0.882833042914)) ;
#836=DIRECTION('Vector Direction',(1.7069296261E-14,1.,0.)) ;
#841=DIRECTION('Vector Direction',(-1.70692962609E-14,-1.,0.)) ;
#853=DIRECTION('Axis2P3D Direction',(-0.469686936521,3.81567605061E-16,0.882833042914)) ;
#854=DIRECTION('Axis2P3D XDirection',(8.12387093173E-16,1.,1.18329135783E-30)) ;
#858=DIRECTION('Vector Direction',(-0.882833042914,0.,-0.469686936521)) ;
#863=DIRECTION('Vector Direction',(-0.882833042914,0.,-0.469686936521)) ;
#880=DIRECTION('Axis2P3D Direction',(0.469686936521,-3.81567605061E-16,-0.882833042914)) ;
#881=DIRECTION('Axis2P3D XDirection',(8.12387093173E-16,1.,-1.29363141479E-31)) ;
#885=DIRECTION('Vector Direction',(-0.882833042914,0.,-0.469686936521)) ;
#890=DIRECTION('Vector Direction',(0.882833042914,0.,0.469686936521)) ;
#897=DIRECTION('Vector Direction',(1.42108547152E-15,1.,0.)) ;
#914=DIRECTION('Axis2P3D Direction',(-0.882833042914,7.1720216949E-16,-0.469686936521)) ;
#915=DIRECTION('Axis2P3D XDirection',(8.12387093173E-16,1.,-1.29363141479E-31)) ;
#919=DIRECTION('Vector Direction',(9.0055191837E-16,1.,0.)) ;
#930=DIRECTION('Axis2P3D Direction',(6.21851012684E-16,1.,3.30838655694E-16)) ;
#931=DIRECTION('Axis2P3D XDirection',(-0.469686936521,0.,0.882833042914)) ;
#935=DIRECTION('Axis2P3D Direction',(6.21851012684E-16,1.,3.30838655694E-16)) ;
#969=DIRECTION('Vector Direction',(-0.882833042914,0.,-0.469686936521)) ;
#981=DIRECTION('Axis2P3D Direction',(-0.420100767282,0.4472135955,0.789629878696)) ;
#982=DIRECTION('Axis2P3D XDirection',(0.210050383641,0.894427191,-0.394814939348)) ;
#986=DIRECTION('Vector Direction',(-0.882833042914,0.,-0.469686936521)) ;
#998=DIRECTION('Axis2P3D Direction',(8.12387093173E-16,1.,1.18329135783E-30)) ;
#999=DIRECTION('Axis2P3D XDirection',(0.469686936521,-3.81567605061E-16,-0.882833042914)) ;
#1003=DIRECTION('Vector Direction',(-0.882833042914,0.,-0.469686936521)) ;
#1015=DIRECTION('Axis2P3D Direction',(0.420100767282,0.4472135955,-0.789629878696)) ;
#1016=DIRECTION('Axis2P3D XDirection',(0.210050383641,-0.894427191,-0.394814939348)) ;
#1020=DIRECTION('Vector Direction',(-0.882833042914,0.,-0.469686936521)) ;
#1032=DIRECTION('Vector Direction',(-0.882833042914,0.,-0.469686936521)) ;
#1044=DIRECTION('Axis2P3D Direction',(-0.420100767282,0.4472135955,0.789629878696)) ;
#1045=DIRECTION('Axis2P3D XDirection',(0.210050383641,0.894427191,-0.394814939348)) ;
#1049=DIRECTION('Vector Direction',(-0.882833042914,0.,-0.469686936521)) ;
#1061=DIRECTION('Vector Direction',(-0.882833042914,0.,-0.469686936521)) ;
#1073=DIRECTION('Axis2P3D Direction',(0.420100767282,0.4472135955,-0.789629878696)) ;
#1074=DIRECTION('Axis2P3D XDirection',(0.210050383641,-0.894427191,-0.394814939348)) ;
#47=AXIS2_PLACEMENT_3D(' ',#46,$,$) ;
#54=AXIS2_PLACEMENT_3D('Plane Axis2P3D',#51,#52,#53) ;
#58=AXIS2_PLACEMENT_3D('Circle Axis2P3D',#56,#57,$) ;
#78=AXIS2_PLACEMENT_3D('Cylinder Axis2P3D',#75,#76,#77) ;
#89=AXIS2_PLACEMENT_3D('Circle Axis2P3D',#87,#88,$) ;
#111=AXIS2_PLACEMENT_3D('Circle Axis2P3D',#109,#110,$) ;
#125=AXIS2_PLACEMENT_3D('Circle Axis2P3D',#123,#124,$) ;
#150=AXIS2_PLACEMENT_3D('Plane Axis2P3D',#147,#148,#149) ;
#190=AXIS2_PLACEMENT_3D('Plane Axis2P3D',#187,#188,#189) ;
#261=AXIS2_PLACEMENT_3D('Plane Axis2P3D',#258,#259,#260) ;
#285=AXIS2_PLACEMENT_3D('Plane Axis2P3D',#282,#283,#284) ;
#349=AXIS2_PLACEMENT_3D('Plane Axis2P3D',#346,#347,#348) ;
#404=AXIS2_PLACEMENT_3D('Circle Axis2P3D',#402,#403,$) ;
#416=AXIS2_PLACEMENT_3D('Circle Axis2P3D',#414,#415,$) ;
#442=AXIS2_PLACEMENT_3D('Cylinder Axis2P3D',#439,#440,#441) ;
#446=AXIS2_PLACEMENT_3D('Circle Axis2P3D',#444,#445,$) ;
#466=AXIS2_PLACEMENT_3D('Plane Axis2P3D',#463,#464,#465) ;
#489=AXIS2_PLACEMENT_3D('Plane Axis2P3D',#486,#487,#488) ;
#522=AXIS2_PLACEMENT_3D('Plane Axis2P3D',#519,#520,#521) ;
#546=AXIS2_PLACEMENT_3D('Plane Axis2P3D',#543,#544,#545) ;
#588=AXIS2_PLACEMENT_3D('Plane Axis2P3D',#585,#586,#587) ;
#612=AXIS2_PLACEMENT_3D('Plane Axis2P3D',#609,#610,#611) ;
#636=AXIS2_PLACEMENT_3D('Plane Axis2P3D',#633,#634,#635) ;
#724=AXIS2_PLACEMENT_3D('Plane Axis2P3D',#721,#722,#723) ;
#748=AXIS2_PLACEMENT_3D('Plane Axis2P3D',#745,#746,#747) ;
#855=AXIS2_PLACEMENT_3D('Plane Axis2P3D',#852,#853,#854) ;
#882=AXIS2_PLACEMENT_3D('Plane Axis2P3D',#879,#880,#881) ;
#916=AXIS2_PLACEMENT_3D('Plane Axis2P3D',#913,#914,#915) ;
#932=AXIS2_PLACEMENT_3D('Cylinder Axis2P3D',#929,#930,#931) ;
#936=AXIS2_PLACEMENT_3D('Circle Axis2P3D',#934,#935,$) ;
#983=AXIS2_PLACEMENT_3D('Plane Axis2P3D',#980,#981,#982) ;
#1000=AXIS2_PLACEMENT_3D('Plane Axis2P3D',#997,#998,#999) ;
#1017=AXIS2_PLACEMENT_3D('Plane Axis2P3D',#1014,#1015,#1016) ;
#1046=AXIS2_PLACEMENT_3D('Plane Axis2P3D',#1043,#1044,#1045) ;
#1075=AXIS2_PLACEMENT_3D('Plane Axis2P3D',#1072,#1073,#1074) ;
#40=PRODUCT_DEFINITION_SHAPE(' ',' ',#14) ;
#31=APPROVAL_PERSON_ORGANIZATION(#25,#21,#19) ;
#25=PERSON_AND_ORGANIZATION(#22,#23) ;
#22=PERSON(' ',' ',' ',$,$,$) ;
#23=ORGANIZATION(' ',' ',' ') ;
#21=APPROVAL(#20,' ') ;
#20=APPROVAL_STATUS('not_yet_approved') ;
#19=APPROVAL_ROLE('APPROVER') ;
#13=DATE_AND_TIME(#11,#12) ;
#12=LOCAL_TIME(13,21,19.,#10) ;
#10=COORDINATED_UNIVERSAL_TIME_OFFSET(0,0,.AHEAD.) ;
#71=ORIENTED_EDGE('',*,*,#64,.T.) ;
#72=ORIENTED_EDGE('',*,*,#69,.F.) ;
#136=ORIENTED_EDGE('',*,*,#64,.F.) ;
#137=ORIENTED_EDGE('',*,*,#86,.F.) ;
#138=ORIENTED_EDGE('',*,*,#93,.F.) ;
#139=ORIENTED_EDGE('',*,*,#101,.F.) ;
#140=ORIENTED_EDGE('',*,*,#108,.F.) ;
#141=ORIENTED_EDGE('',*,*,#115,.T.) ;
#142=ORIENTED_EDGE('',*,*,#122,.T.) ;
#143=ORIENTED_EDGE('',*,*,#129,.F.) ;
#144=ORIENTED_EDGE('',*,*,#134,.T.) ;
#181=ORIENTED_EDGE('',*,*,#160,.T.) ;
#182=ORIENTED_EDGE('',*,*,#167,.T.) ;
#183=ORIENTED_EDGE('',*,*,#174,.T.) ;
#184=ORIENTED_EDGE('',*,*,#179,.F.) ;
#247=ORIENTED_EDGE('',*,*,#198,.T.) ;
#248=ORIENTED_EDGE('',*,*,#205,.F.) ;
#249=ORIENTED_EDGE('',*,*,#212,.T.) ;
#250=ORIENTED_EDGE('',*,*,#219,.T.) ;
#251=ORIENTED_EDGE('',*,*,#226,.T.) ;
#252=ORIENTED_EDGE('',*,*,#233,.T.) ;
#253=ORIENTED_EDGE('',*,*,#240,.T.) ;
#254=ORIENTED_EDGE('',*,*,#245,.T.) ;
#255=ORIENTED_EDGE('',*,*,#160,.F.) ;
#276=ORIENTED_EDGE('',*,*,#269,.T.) ;
#277=ORIENTED_EDGE('',*,*,#274,.T.) ;
#278=ORIENTED_EDGE('',*,*,#167,.F.) ;
#279=ORIENTED_EDGE('',*,*,#245,.F.) ;
#335=ORIENTED_EDGE('',*,*,#295,.T.) ;
#336=ORIENTED_EDGE('',*,*,#302,.T.) ;
#337=ORIENTED_EDGE('',*,*,#309,.F.) ;
#338=ORIENTED_EDGE('',*,*,#316,.F.) ;
#339=ORIENTED_EDGE('',*,*,#323,.T.) ;
#340=ORIENTED_EDGE('',*,*,#328,.T.) ;
#341=ORIENTED_EDGE('',*,*,#174,.F.) ;
#342=ORIENTED_EDGE('',*,*,#274,.F.) ;
#343=ORIENTED_EDGE('',*,*,#333,.F.) ;
#385=ORIENTED_EDGE('',*,*,#359,.T.) ;
#386=ORIENTED_EDGE('',*,*,#364,.T.) ;
#387=ORIENTED_EDGE('',*,*,#198,.F.) ;
#388=ORIENTED_EDGE('',*,*,#179,.T.) ;
#389=ORIENTED_EDGE('',*,*,#328,.F.) ;
#390=ORIENTED_EDGE('',*,*,#371,.F.) ;
#391=ORIENTED_EDGE('',*,*,#378,.F.) ;
#392=ORIENTED_EDGE('',*,*,#383,.F.) ;
#427=ORIENTED_EDGE('',*,*,#86,.T.) ;
#428=ORIENTED_EDGE('',*,*,#69,.T.) ;
#429=ORIENTED_EDGE('',*,*,#134,.F.) ;
#430=ORIENTED_EDGE('',*,*,#401,.T.) ;
#431=ORIENTED_EDGE('',*,*,#406,.F.) ;
#432=ORIENTED_EDGE('',*,*,#205,.T.) ;
#433=ORIENTED_EDGE('',*,*,#364,.F.) ;
#434=ORIENTED_EDGE('',*,*,#413,.T.) ;
#435=ORIENTED_EDGE('',*,*,#420,.F.) ;
#436=ORIENTED_EDGE('',*,*,#425,.T.) ;
#457=ORIENTED_EDGE('',*,*,#450,.T.) ;
#458=ORIENTED_EDGE('',*,*,#212,.F.) ;
#459=ORIENTED_EDGE('',*,*,#406,.T.) ;
#460=ORIENTED_EDGE('',*,*,#455,.T.) ;
#479=ORIENTED_EDGE('',*,*,#122,.F.) ;
#480=ORIENTED_EDGE('',*,*,#472,.T.) ;
#481=ORIENTED_EDGE('',*,*,#219,.F.) ;
#482=ORIENTED_EDGE('',*,*,#450,.F.) ;
#483=ORIENTED_EDGE('',*,*,#477,.F.) ;
#511=ORIENTED_EDGE('',*,*,#115,.F.) ;
#512=ORIENTED_EDGE('',*,*,#497,.F.) ;
#513=ORIENTED_EDGE('',*,*,#504,.T.) ;
#514=ORIENTED_EDGE('',*,*,#509,.T.) ;
#515=ORIENTED_EDGE('',*,*,#226,.F.) ;
#516=ORIENTED_EDGE('',*,*,#472,.F.) ;
#537=ORIENTED_EDGE('',*,*,#530,.T.) ;
#538=ORIENTED_EDGE('',*,*,#535,.T.) ;
#539=ORIENTED_EDGE('',*,*,#233,.F.) ;
#540=ORIENTED_EDGE('',*,*,#509,.F.) ;
#575=ORIENTED_EDGE('',*,*,#556,.F.) ;
#576=ORIENTED_EDGE('',*,*,#563,.F.) ;
#577=ORIENTED_EDGE('',*,*,#568,.T.) ;
#578=ORIENTED_EDGE('',*,*,#333,.T.) ;
#579=ORIENTED_EDGE('',*,*,#269,.F.) ;
#580=ORIENTED_EDGE('',*,*,#240,.F.) ;
#581=ORIENTED_EDGE('',*,*,#535,.F.) ;
#582=ORIENTED_EDGE('',*,*,#573,.T.) ;
#603=ORIENTED_EDGE('',*,*,#596,.F.) ;
#604=ORIENTED_EDGE('',*,*,#601,.F.) ;
#605=ORIENTED_EDGE('',*,*,#295,.F.) ;
#606=ORIENTED_EDGE('',*,*,#568,.F.) ;
#627=ORIENTED_EDGE('',*,*,#620,.T.) ;
#628=ORIENTED_EDGE('',*,*,#625,.F.) ;
#629=ORIENTED_EDGE('',*,*,#302,.F.) ;
#630=ORIENTED_EDGE('',*,*,#601,.T.) ;
#707=ORIENTED_EDGE('',*,*,#644,.T.) ;
#708=ORIENTED_EDGE('',*,*,#651,.T.) ;
#709=ORIENTED_EDGE('',*,*,#658,.T.) ;
#710=ORIENTED_EDGE('',*,*,#665,.T.) ;
#711=ORIENTED_EDGE('',*,*,#672,.T.) ;
#712=ORIENTED_EDGE('',*,*,#679,.T.) ;
#713=ORIENTED_EDGE('',*,*,#686,.T.) ;
#714=ORIENTED_EDGE('',*,*,#693,.T.) ;
#715=ORIENTED_EDGE('',*,*,#700,.T.) ;
#716=ORIENTED_EDGE('',*,*,#705,.T.) ;
#717=ORIENTED_EDGE('',*,*,#309,.T.) ;
#718=ORIENTED_EDGE('',*,*,#625,.T.) ;
#739=ORIENTED_EDGE('',*,*,#732,.F.) ;
#740=ORIENTED_EDGE('',*,*,#316,.T.) ;
#741=ORIENTED_EDGE('',*,*,#705,.F.) ;
#742=ORIENTED_EDGE('',*,*,#737,.F.) ;
#812=ORIENTED_EDGE('',*,*,#756,.T.) ;
#813=ORIENTED_EDGE('',*,*,#371,.T.) ;
#814=ORIENTED_EDGE('',*,*,#323,.F.) ;
#815=ORIENTED_EDGE('',*,*,#732,.T.) ;
#816=ORIENTED_EDGE('',*,*,#763,.T.) ;
#817=ORIENTED_EDGE('',*,*,#770,.F.) ;
#818=ORIENTED_EDGE('',*,*,#777,.F.) ;
#819=ORIENTED_EDGE('',*,*,#784,.T.) ;
#820=ORIENTED_EDGE('',*,*,#791,.T.) ;
#821=ORIENTED_EDGE('',*,*,#798,.F.) ;
#822=ORIENTED_EDGE('',*,*,#805,.F.) ;
#823=ORIENTED_EDGE('',*,*,#810,.T.) ;
#846=ORIENTED_EDGE('',*,*,#834,.T.) ;
#847=ORIENTED_EDGE('',*,*,#839,.F.) ;
#848=ORIENTED_EDGE('',*,*,#383,.T.) ;
#849=ORIENTED_EDGE('',*,*,#844,.T.) ;
#868=ORIENTED_EDGE('',*,*,#563,.T.) ;
#869=ORIENTED_EDGE('',*,*,#861,.T.) ;
#870=ORIENTED_EDGE('',*,*,#844,.F.) ;
#871=ORIENTED_EDGE('',*,*,#378,.T.) ;
#872=ORIENTED_EDGE('',*,*,#756,.F.) ;
#873=ORIENTED_EDGE('',*,*,#866,.T.) ;
#874=ORIENTED_EDGE('',*,*,#644,.F.) ;
#875=ORIENTED_EDGE('',*,*,#620,.F.) ;
#876=ORIENTED_EDGE('',*,*,#596,.T.) ;
#902=ORIENTED_EDGE('',*,*,#839,.T.) ;
#903=ORIENTED_EDGE('',*,*,#888,.F.) ;
#904=ORIENTED_EDGE('',*,*,#573,.F.) ;
#905=ORIENTED_EDGE('',*,*,#530,.F.) ;
#906=ORIENTED_EDGE('',*,*,#504,.F.) ;
#907=ORIENTED_EDGE('',*,*,#895,.F.) ;
#908=ORIENTED_EDGE('',*,*,#900,.F.) ;
#909=ORIENTED_EDGE('',*,*,#413,.F.) ;
#910=ORIENTED_EDGE('',*,*,#359,.F.) ;
#924=ORIENTED_EDGE('',*,*,#93,.T.) ;
#925=ORIENTED_EDGE('',*,*,#425,.F.) ;
#926=ORIENTED_EDGE('',*,*,#922,.T.) ;
#940=ORIENTED_EDGE('',*,*,#922,.F.) ;
#941=ORIENTED_EDGE('',*,*,#420,.T.) ;
#942=ORIENTED_EDGE('',*,*,#900,.T.) ;
#943=ORIENTED_EDGE('',*,*,#938,.T.) ;
#944=ORIENTED_EDGE('',*,*,#101,.T.) ;
#948=ORIENTED_EDGE('',*,*,#129,.T.) ;
#949=ORIENTED_EDGE('',*,*,#477,.T.) ;
#950=ORIENTED_EDGE('',*,*,#455,.F.) ;
#951=ORIENTED_EDGE('',*,*,#401,.F.) ;
#955=ORIENTED_EDGE('',*,*,#108,.T.) ;
#956=ORIENTED_EDGE('',*,*,#938,.F.) ;
#957=ORIENTED_EDGE('',*,*,#895,.T.) ;
#958=ORIENTED_EDGE('',*,*,#497,.T.) ;
#962=ORIENTED_EDGE('',*,*,#556,.T.) ;
#963=ORIENTED_EDGE('',*,*,#888,.T.) ;
#964=ORIENTED_EDGE('',*,*,#834,.F.) ;
#965=ORIENTED_EDGE('',*,*,#861,.F.) ;
#974=ORIENTED_EDGE('',*,*,#810,.F.) ;
#975=ORIENTED_EDGE('',*,*,#972,.T.) ;
#976=ORIENTED_EDGE('',*,*,#651,.F.) ;
#977=ORIENTED_EDGE('',*,*,#866,.F.) ;
#991=ORIENTED_EDGE('',*,*,#989,.T.) ;
#992=ORIENTED_EDGE('',*,*,#658,.F.) ;
#993=ORIENTED_EDGE('',*,*,#972,.F.) ;
#994=ORIENTED_EDGE('',*,*,#805,.T.) ;
#1008=ORIENTED_EDGE('',*,*,#1006,.T.) ;
#1009=ORIENTED_EDGE('',*,*,#665,.F.) ;
#1010=ORIENTED_EDGE('',*,*,#989,.F.) ;
#1011=ORIENTED_EDGE('',*,*,#798,.T.) ;
#1025=ORIENTED_EDGE('',*,*,#1023,.T.) ;
#1026=ORIENTED_EDGE('',*,*,#672,.F.) ;
#1027=ORIENTED_EDGE('',*,*,#1006,.F.) ;
#1028=ORIENTED_EDGE('',*,*,#791,.F.) ;
#1037=ORIENTED_EDGE('',*,*,#784,.F.) ;
#1038=ORIENTED_EDGE('',*,*,#1035,.T.) ;
#1039=ORIENTED_EDGE('',*,*,#679,.F.) ;
#1040=ORIENTED_EDGE('',*,*,#1023,.F.) ;
#1054=ORIENTED_EDGE('',*,*,#1052,.T.) ;
#1055=ORIENTED_EDGE('',*,*,#686,.F.) ;
#1056=ORIENTED_EDGE('',*,*,#1035,.F.) ;
#1057=ORIENTED_EDGE('',*,*,#777,.T.) ;
#1066=ORIENTED_EDGE('',*,*,#1064,.T.) ;
#1067=ORIENTED_EDGE('',*,*,#693,.F.) ;
#1068=ORIENTED_EDGE('',*,*,#1052,.F.) ;
#1069=ORIENTED_EDGE('',*,*,#770,.T.) ;
#1078=ORIENTED_EDGE('',*,*,#737,.T.) ;
#1079=ORIENTED_EDGE('',*,*,#700,.F.) ;
#1080=ORIENTED_EDGE('',*,*,#1064,.F.) ;
#1081=ORIENTED_EDGE('',*,*,#763,.F.) ;
#50=CLOSED_SHELL('Closed Shell',(#74,#146,#186,#257,#281,#345,#394,#438,#462,#485,#518,#542,#584,#608,#632,#720,#744,#825,#851,#878,#912,#928,#946,#953,#960,#967,#979,#996,#1013,#1030,#1042,#1059,#1071,#1083)) ;
#67=VECTOR('Line Direction',#66,1.) ;
#82=VECTOR('Line Direction',#81,1.) ;
#104=VECTOR('Line Direction',#103,1.) ;
#118=VECTOR('Line Direction',#117,1.) ;
#132=VECTOR('Line Direction',#131,1.) ;
#154=VECTOR('Line Direction',#153,1.) ;
#163=VECTOR('Line Direction',#162,1.) ;
#170=VECTOR('Line Direction',#169,1.) ;
#177=VECTOR('Line Direction',#176,1.) ;
#194=VECTOR('Line Direction',#193,1.) ;
#201=VECTOR('Line Direction',#200,1.) ;
#208=VECTOR('Line Direction',#207,1.) ;
#215=VECTOR('Line Direction',#214,1.) ;
#222=VECTOR('Line Direction',#221,1.) ;
#229=VECTOR('Line Direction',#228,1.) ;
#236=VECTOR('Line Direction',#235,1.) ;
#243=VECTOR('Line Direction',#242,1.) ;
#265=VECTOR('Line Direction',#264,1.) ;
#272=VECTOR('Line Direction',#271,1.) ;
#289=VECTOR('Line Direction',#288,1.) ;
#298=VECTOR('Line Direction',#297,1.) ;
#305=VECTOR('Line Direction',#304,1.) ;
#312=VECTOR('Line Direction',#311,1.) ;
#319=VECTOR('Line Direction',#318,1.) ;
#326=VECTOR('Line Direction',#325,1.) ;
#331=VECTOR('Line Direction',#330,1.) ;
#353=VECTOR('Line Direction',#352,1.) ;
#362=VECTOR('Line Direction',#361,1.) ;
#367=VECTOR('Line Direction',#366,1.) ;
#374=VECTOR('Line Direction',#373,1.) ;
#381=VECTOR('Line Direction',#380,1.) ;
#397=VECTOR('Line Direction',#396,1.) ;
#409=VECTOR('Line Direction',#408,1.) ;
#423=VECTOR('Line Direction',#422,1.) ;
#453=VECTOR('Line Direction',#452,1.) ;
#470=VECTOR('Line Direction',#469,1.) ;
#475=VECTOR('Line Direction',#474,1.) ;
#493=VECTOR('Line Direction',#492,1.) ;
#500=VECTOR('Line Direction',#499,1.) ;
#507=VECTOR('Line Direction',#506,1.) ;
#526=VECTOR('Line Direction',#525,1.) ;
#533=VECTOR('Line Direction',#532,1.) ;
#550=VECTOR('Line Direction',#549,1.) ;
#559=VECTOR('Line Direction',#558,1.) ;
#566=VECTOR('Line Direction',#565,1.) ;
#571=VECTOR('Line Direction',#570,1.) ;
#592=VECTOR('Line Direction',#591,1.) ;
#599=VECTOR('Line Direction',#598,1.) ;
#616=VECTOR('Line Direction',#615,1.) ;
#623=VECTOR('Line Direction',#622,1.) ;
#640=VECTOR('Line Direction',#639,1.) ;
#647=VECTOR('Line Direction',#646,1.) ;
#654=VECTOR('Line Direction',#653,1.) ;
#661=VECTOR('Line Direction',#660,1.) ;
#668=VECTOR('Line Direction',#667,1.) ;
#675=VECTOR('Line Direction',#674,1.) ;
#682=VECTOR('Line Direction',#681,1.) ;
#689=VECTOR('Line Direction',#688,1.) ;
#696=VECTOR('Line Direction',#695,1.) ;
#703=VECTOR('Line Direction',#702,1.) ;
#728=VECTOR('Line Direction',#727,1.) ;
#735=VECTOR('Line Direction',#734,1.) ;
#752=VECTOR('Line Direction',#751,1.) ;
#759=VECTOR('Line Direction',#758,1.) ;
#766=VECTOR('Line Direction',#765,1.) ;
#773=VECTOR('Line Direction',#772,1.) ;
#780=VECTOR('Line Direction',#779,1.) ;
#787=VECTOR('Line Direction',#786,1.) ;
#794=VECTOR('Line Direction',#793,1.) ;
#801=VECTOR('Line Direction',#800,1.) ;
#808=VECTOR('Line Direction',#807,1.) ;
#828=VECTOR('Line Direction',#827,1.) ;
#837=VECTOR('Line Direction',#836,1.) ;
#842=VECTOR('Line Direction',#841,1.) ;
#859=VECTOR('Line Direction',#858,1.) ;
#864=VECTOR('Line Direction',#863,1.) ;
#886=VECTOR('Line Direction',#885,1.) ;
#891=VECTOR('Line Direction',#890,1.) ;
#898=VECTOR('Line Direction',#897,1.) ;
#920=VECTOR('Line Direction',#919,1.) ;
#970=VECTOR('Line Direction',#969,1.) ;
#987=VECTOR('Line Direction',#986,1.) ;
#1004=VECTOR('Line Direction',#1003,1.) ;
#1021=VECTOR('Line Direction',#1020,1.) ;
#1033=VECTOR('Line Direction',#1032,1.) ;
#1050=VECTOR('Line Direction',#1049,1.) ;
#1062=VECTOR('Line Direction',#1061,1.) ;
#1085=ADVANCED_BREP_SHAPE_REPRESENTATION('NONE',(#1084),#45) ;
#48=SHAPE_REPRESENTATION(' ',(#47),#45) ;
#74=ADVANCED_FACE('\X2\96F64EF651E04F554F53\X0\',(#73),#55,.T.) ;
#146=ADVANCED_FACE('\X2\96F64EF651E04F554F53\X0\',(#145),#79,.F.) ;
#186=ADVANCED_FACE('\X2\96F64EF651E04F554F53\X0\',(#185),#151,.T.) ;
#257=ADVANCED_FACE('\X2\96F64EF651E04F554F53\X0\',(#256),#191,.T.) ;
#281=ADVANCED_FACE('\X2\96F64EF651E04F554F53\X0\',(#280),#262,.F.) ;
#345=ADVANCED_FACE('\X2\96F64EF651E04F554F53\X0\',(#344),#286,.T.) ;
#394=ADVANCED_FACE('\X2\96F64EF651E04F554F53\X0\',(#393),#350,.F.) ;
#438=ADVANCED_FACE('\X2\96F64EF651E04F554F53\X0\',(#437),#262,.F.) ;
#462=ADVANCED_FACE('\X2\96F64EF651E04F554F53\X0\',(#461),#443,.T.) ;
#485=ADVANCED_FACE('\X2\96F64EF651E04F554F53\X0\',(#484),#467,.F.) ;
#518=ADVANCED_FACE('\X2\96F64EF651E04F554F53\X0\',(#517),#490,.F.) ;
#542=ADVANCED_FACE('\X2\96F64EF651E04F554F53\X0\',(#541),#523,.F.) ;
#584=ADVANCED_FACE('\X2\96F64EF651E04F554F53\X0\',(#583),#547,.F.) ;
#608=ADVANCED_FACE('\X2\96F64EF651E04F554F53\X0\',(#607),#589,.F.) ;
#632=ADVANCED_FACE('\X2\96F64EF651E04F554F53\X0\',(#631),#613,.F.) ;
#720=ADVANCED_FACE('\X2\96F64EF651E04F554F53\X0\',(#719),#637,.T.) ;
#744=ADVANCED_FACE('\X2\96F64EF651E04F554F53\X0\',(#743),#725,.F.) ;
#825=ADVANCED_FACE('\X2\96F64EF651E04F554F53\X0\',(#824),#749,.F.) ;
#851=ADVANCED_FACE('\X2\96F64EF651E04F554F53\X0\',(#850),#151,.T.) ;
#878=ADVANCED_FACE('\X2\96F64EF651E04F554F53\X0\',(#877),#856,.T.) ;
#912=ADVANCED_FACE('\X2\96F64EF651E04F554F53\X0\',(#911),#883,.F.) ;
#928=ADVANCED_FACE('\X2\96F64EF651E04F554F53\X0\',(#927),#917,.F.) ;
#946=ADVANCED_FACE('\X2\96F64EF651E04F554F53\X0\',(#945),#933,.T.) ;
#953=ADVANCED_FACE('\X2\96F64EF651E04F554F53\X0\',(#952),#917,.F.) ;
#960=ADVANCED_FACE('\X2\96F64EF651E04F554F53\X0\',(#959),#467,.F.) ;
#967=ADVANCED_FACE('\X2\96F64EF651E04F554F53\X0\',(#966),#262,.F.) ;
#979=ADVANCED_FACE('\X2\96F64EF651E04F554F53\X0\',(#978),#725,.F.) ;
#996=ADVANCED_FACE('\X2\96F64EF651E04F554F53\X0\',(#995),#984,.T.) ;
#1013=ADVANCED_FACE('\X2\96F64EF651E04F554F53\X0\',(#1012),#1001,.T.) ;
#1030=ADVANCED_FACE('\X2\96F64EF651E04F554F53\X0\',(#1029),#1018,.T.) ;
#1042=ADVANCED_FACE('\X2\96F64EF651E04F554F53\X0\',(#1041),#725,.F.) ;
#1059=ADVANCED_FACE('\X2\96F64EF651E04F554F53\X0\',(#1058),#1047,.T.) ;
#1071=ADVANCED_FACE('\X2\96F64EF651E04F554F53\X0\',(#1070),#1001,.T.) ;
#1083=ADVANCED_FACE('\X2\96F64EF651E04F554F53\X0\',(#1082),#1076,.T.) ;
#4=APPLICATION_PROTOCOL_DEFINITION('international standard','config_control_design',1994,#1) ;
#32=APPROVAL_DATE_TIME(#13,#21) ;
#94=B_SPLINE_CURVE_WITH_KNOTS('',3,(#95,#96,#97,#98),.UNSPECIFIED.,.F.,.U.,(4,4),(0.,1.51363935756),.UNSPECIFIED.) ;
#1084=MANIFOLD_SOLID_BREP('\X2\96F64EF651E04F554F53\X0\',#50) ;
#11=CALENDAR_DATE(2026,25,5) ;
#30=CC_DESIGN_APPROVAL(#21,(#16,#6,#14)) ;
#18=CC_DESIGN_DATE_AND_TIME_ASSIGNMENT(#13,#17,(#16)) ;
#29=CC_DESIGN_DATE_AND_TIME_ASSIGNMENT(#13,#28,(#14)) ;
#17=DATE_TIME_ROLE('classification_date') ;
#28=DATE_TIME_ROLE('creation_date') ;
#27=CC_DESIGN_PERSON_AND_ORGANIZATION_ASSIGNMENT(#25,#26,(#16)) ;
#33=CC_DESIGN_PERSON_AND_ORGANIZATION_ASSIGNMENT(#25,#34,(#6)) ;
#35=CC_DESIGN_PERSON_AND_ORGANIZATION_ASSIGNMENT(#25,#36,(#6,#14)) ;
#37=CC_DESIGN_PERSON_AND_ORGANIZATION_ASSIGNMENT(#25,#38,(#5)) ;
#26=PERSON_AND_ORGANIZATION_ROLE('classification_officer') ;
#34=PERSON_AND_ORGANIZATION_ROLE('design_supplier') ;
#36=PERSON_AND_ORGANIZATION_ROLE('creator') ;
#38=PERSON_AND_ORGANIZATION_ROLE('design_owner') ;
#39=CC_DESIGN_SECURITY_CLASSIFICATION(#16,(#6)) ;
#59=CIRCLE('generated circle',#58,9.25) ;
#90=CIRCLE('generated circle',#89,9.25) ;
#112=CIRCLE('generated circle',#111,9.25) ;
#126=CIRCLE('generated circle',#125,9.25) ;
#405=CIRCLE('generated circle',#404,3.5) ;
#417=CIRCLE('generated circle',#416,3.5) ;
#447=CIRCLE('generated circle',#446,3.5) ;
#937=CIRCLE('generated circle',#936,3.5) ;
#1086=SHAPE_REPRESENTATION_RELATIONSHIP(' ',' ',#48,#1085) ;
#79=CYLINDRICAL_SURFACE('generated cylinder',#78,9.25) ;
#443=CYLINDRICAL_SURFACE('generated cylinder',#442,3.5) ;
#933=CYLINDRICAL_SURFACE('generated cylinder',#932,3.5) ;
#3=DESIGN_CONTEXT(' ',#1,'design') ;
#64=EDGE_CURVE('',#61,#63,#59,.T.) ;
#69=EDGE_CURVE('',#61,#63,#68,.T.) ;
#86=EDGE_CURVE('',#85,#61,#83,.F.) ;
#93=EDGE_CURVE('',#92,#85,#90,.T.) ;
#101=EDGE_CURVE('',#100,#92,#94,.T.) ;
#108=EDGE_CURVE('',#107,#100,#105,.F.) ;
#115=EDGE_CURVE('',#107,#114,#112,.T.) ;
#122=EDGE_CURVE('',#114,#121,#119,.F.) ;
#129=EDGE_CURVE('',#128,#121,#126,.T.) ;
#134=EDGE_CURVE('',#128,#63,#133,.F.) ;
#160=EDGE_CURVE('',#157,#159,#155,.F.) ;
#167=EDGE_CURVE('',#159,#166,#164,.T.) ;
#174=EDGE_CURVE('',#166,#173,#171,.F.) ;
#179=EDGE_CURVE('',#157,#173,#178,.T.) ;
#198=EDGE_CURVE('',#157,#197,#195,.F.) ;
#205=EDGE_CURVE('',#204,#197,#202,.T.) ;
#212=EDGE_CURVE('',#204,#211,#209,.F.) ;
#219=EDGE_CURVE('',#211,#218,#216,.F.) ;
#226=EDGE_CURVE('',#218,#225,#223,.F.) ;
#233=EDGE_CURVE('',#225,#232,#230,.F.) ;
#240=EDGE_CURVE('',#232,#239,#237,.F.) ;
#245=EDGE_CURVE('',#239,#159,#244,.T.) ;
#269=EDGE_CURVE('',#239,#268,#266,.T.) ;
#274=EDGE_CURVE('',#268,#166,#273,.T.) ;
#295=EDGE_CURVE('',#292,#294,#290,.T.) ;
#302=EDGE_CURVE('',#294,#301,#299,.T.) ;
#309=EDGE_CURVE('',#308,#301,#306,.T.) ;
#316=EDGE_CURVE('',#315,#308,#313,.T.) ;
#323=EDGE_CURVE('',#315,#322,#320,.T.) ;
#328=EDGE_CURVE('',#322,#173,#327,.T.) ;
#333=EDGE_CURVE('',#292,#268,#332,.T.) ;
#359=EDGE_CURVE('',#356,#358,#354,.F.) ;
#364=EDGE_CURVE('',#358,#197,#363,.T.) ;
#371=EDGE_CURVE('',#370,#322,#368,.T.) ;
#378=EDGE_CURVE('',#377,#370,#375,.T.) ;
#383=EDGE_CURVE('',#356,#377,#382,.T.) ;
#401=EDGE_CURVE('',#128,#400,#398,.T.) ;
#406=EDGE_CURVE('',#204,#400,#405,.F.) ;
#413=EDGE_CURVE('',#358,#412,#410,.F.) ;
#420=EDGE_CURVE('',#419,#412,#417,.F.) ;
#425=EDGE_CURVE('',#419,#85,#424,.T.) ;
#450=EDGE_CURVE('',#449,#211,#447,.T.) ;
#455=EDGE_CURVE('',#400,#449,#454,.F.) ;
#472=EDGE_CURVE('',#114,#218,#471,.T.) ;
#477=EDGE_CURVE('',#121,#449,#476,.T.) ;
#497=EDGE_CURVE('',#496,#107,#494,.T.) ;
#504=EDGE_CURVE('',#496,#503,#501,.F.) ;
#509=EDGE_CURVE('',#503,#225,#508,.T.) ;
#530=EDGE_CURVE('',#503,#529,#527,.F.) ;
#535=EDGE_CURVE('',#529,#232,#534,.T.) ;
#556=EDGE_CURVE('',#553,#555,#551,.T.) ;
#563=EDGE_CURVE('',#562,#553,#560,.T.) ;
#568=EDGE_CURVE('',#562,#292,#567,.T.) ;
#573=EDGE_CURVE('',#529,#555,#572,.F.) ;
#596=EDGE_CURVE('',#595,#562,#593,.T.) ;
#601=EDGE_CURVE('',#294,#595,#600,.T.) ;
#620=EDGE_CURVE('',#595,#619,#617,.T.) ;
#625=EDGE_CURVE('',#301,#619,#624,.T.) ;
#644=EDGE_CURVE('',#619,#643,#641,.T.) ;
#651=EDGE_CURVE('',#643,#650,#648,.F.) ;
#658=EDGE_CURVE('',#650,#657,#655,.T.) ;
#665=EDGE_CURVE('',#657,#664,#662,.T.) ;
#672=EDGE_CURVE('',#664,#671,#669,.T.) ;
#679=EDGE_CURVE('',#671,#678,#676,.T.) ;
#686=EDGE_CURVE('',#678,#685,#683,.T.) ;
#693=EDGE_CURVE('',#685,#692,#690,.T.) ;
#700=EDGE_CURVE('',#692,#699,#697,.T.) ;
#705=EDGE_CURVE('',#699,#308,#704,.T.) ;
#732=EDGE_CURVE('',#315,#731,#729,.T.) ;
#737=EDGE_CURVE('',#731,#699,#736,.T.) ;
#756=EDGE_CURVE('',#755,#370,#753,.T.) ;
#763=EDGE_CURVE('',#731,#762,#760,.T.) ;
#770=EDGE_CURVE('',#769,#762,#767,.T.) ;
#777=EDGE_CURVE('',#776,#769,#774,.T.) ;
#784=EDGE_CURVE('',#776,#783,#781,.T.) ;
#791=EDGE_CURVE('',#783,#790,#788,.T.) ;
#798=EDGE_CURVE('',#797,#790,#795,.T.) ;
#805=EDGE_CURVE('',#804,#797,#802,.T.) ;
#810=EDGE_CURVE('',#804,#755,#809,.T.) ;
#834=EDGE_CURVE('',#831,#833,#829,.T.) ;
#839=EDGE_CURVE('',#356,#833,#838,.T.) ;
#844=EDGE_CURVE('',#377,#831,#843,.F.) ;
#861=EDGE_CURVE('',#553,#831,#860,.T.) ;
#866=EDGE_CURVE('',#755,#643,#865,.T.) ;
#888=EDGE_CURVE('',#555,#833,#887,.T.) ;
#895=EDGE_CURVE('',#894,#496,#892,.F.) ;
#900=EDGE_CURVE('',#412,#894,#899,.F.) ;
#922=EDGE_CURVE('',#419,#92,#921,.F.) ;
#938=EDGE_CURVE('',#894,#100,#937,.T.) ;
#972=EDGE_CURVE('',#804,#650,#971,.T.) ;
#989=EDGE_CURVE('',#797,#657,#988,.T.) ;
#1006=EDGE_CURVE('',#790,#664,#1005,.T.) ;
#1023=EDGE_CURVE('',#783,#671,#1022,.T.) ;
#1035=EDGE_CURVE('',#776,#678,#1034,.T.) ;
#1052=EDGE_CURVE('',#769,#685,#1051,.T.) ;
#1064=EDGE_CURVE('',#762,#692,#1063,.T.) ;
#70=EDGE_LOOP('',(#71,#72)) ;
#135=EDGE_LOOP('',(#136,#137,#138,#139,#140,#141,#142,#143,#144)) ;
#180=EDGE_LOOP('',(#181,#182,#183,#184)) ;
#246=EDGE_LOOP('',(#247,#248,#249,#250,#251,#252,#253,#254,#255)) ;
#275=EDGE_LOOP('',(#276,#277,#278,#279)) ;
#334=EDGE_LOOP('',(#335,#336,#337,#338,#339,#340,#341,#342,#343)) ;
#384=EDGE_LOOP('',(#385,#386,#387,#388,#389,#390,#391,#392)) ;
#426=EDGE_LOOP('',(#427,#428,#429,#430,#431,#432,#433,#434,#435,#436)) ;
#456=EDGE_LOOP('',(#457,#458,#459,#460)) ;
#478=EDGE_LOOP('',(#479,#480,#481,#482,#483)) ;
#510=EDGE_LOOP('',(#511,#512,#513,#514,#515,#516)) ;
#536=EDGE_LOOP('',(#537,#538,#539,#540)) ;
#574=EDGE_LOOP('',(#575,#576,#577,#578,#579,#580,#581,#582)) ;
#602=EDGE_LOOP('',(#603,#604,#605,#606)) ;
#626=EDGE_LOOP('',(#627,#628,#629,#630)) ;
#706=EDGE_LOOP('',(#707,#708,#709,#710,#711,#712,#713,#714,#715,#716,#717,#718)) ;
#738=EDGE_LOOP('',(#739,#740,#741,#742)) ;
#811=EDGE_LOOP('',(#812,#813,#814,#815,#816,#817,#818,#819,#820,#821,#822,#823)) ;
#845=EDGE_LOOP('',(#846,#847,#848,#849)) ;
#867=EDGE_LOOP('',(#868,#869,#870,#871,#872,#873,#874,#875,#876)) ;
#901=EDGE_LOOP('',(#902,#903,#904,#905,#906,#907,#908,#909,#910)) ;
#923=EDGE_LOOP('',(#924,#925,#926)) ;
#939=EDGE_LOOP('',(#940,#941,#942,#943,#944)) ;
#947=EDGE_LOOP('',(#948,#949,#950,#951)) ;
#954=EDGE_LOOP('',(#955,#956,#957,#958)) ;
#961=EDGE_LOOP('',(#962,#963,#964,#965)) ;
#973=EDGE_LOOP('',(#974,#975,#976,#977)) ;
#990=EDGE_LOOP('',(#991,#992,#993,#994)) ;
#1007=EDGE_LOOP('',(#1008,#1009,#1010,#1011)) ;
#1024=EDGE_LOOP('',(#1025,#1026,#1027,#1028)) ;
#1036=EDGE_LOOP('',(#1037,#1038,#1039,#1040)) ;
#1053=EDGE_LOOP('',(#1054,#1055,#1056,#1057)) ;
#1065=EDGE_LOOP('',(#1066,#1067,#1068,#1069)) ;
#1077=EDGE_LOOP('',(#1078,#1079,#1080,#1081)) ;
#73=FACE_OUTER_BOUND('',#70,.T.) ;
#145=FACE_OUTER_BOUND('',#135,.T.) ;
#185=FACE_OUTER_BOUND('',#180,.T.) ;
#256=FACE_OUTER_BOUND('',#246,.T.) ;
#280=FACE_OUTER_BOUND('',#275,.T.) ;
#344=FACE_OUTER_BOUND('',#334,.T.) ;
#393=FACE_OUTER_BOUND('',#384,.T.) ;
#437=FACE_OUTER_BOUND('',#426,.T.) ;
#461=FACE_OUTER_BOUND('',#456,.T.) ;
#484=FACE_OUTER_BOUND('',#478,.T.) ;
#517=FACE_OUTER_BOUND('',#510,.T.) ;
#541=FACE_OUTER_BOUND('',#536,.T.) ;
#583=FACE_OUTER_BOUND('',#574,.T.) ;
#607=FACE_OUTER_BOUND('',#602,.T.) ;
#631=FACE_OUTER_BOUND('',#626,.T.) ;
#719=FACE_OUTER_BOUND('',#706,.T.) ;
#743=FACE_OUTER_BOUND('',#738,.T.) ;
#824=FACE_OUTER_BOUND('',#811,.T.) ;
#850=FACE_OUTER_BOUND('',#845,.T.) ;
#877=FACE_OUTER_BOUND('',#867,.T.) ;
#911=FACE_OUTER_BOUND('',#901,.T.) ;
#927=FACE_OUTER_BOUND('',#923,.T.) ;
#945=FACE_OUTER_BOUND('',#939,.T.) ;
#952=FACE_OUTER_BOUND('',#947,.T.) ;
#959=FACE_OUTER_BOUND('',#954,.T.) ;
#966=FACE_OUTER_BOUND('',#961,.T.) ;
#978=FACE_OUTER_BOUND('',#973,.T.) ;
#995=FACE_OUTER_BOUND('',#990,.T.) ;
#1012=FACE_OUTER_BOUND('',#1007,.T.) ;
#1029=FACE_OUTER_BOUND('',#1024,.T.) ;
#1041=FACE_OUTER_BOUND('',#1036,.T.) ;
#1058=FACE_OUTER_BOUND('',#1053,.T.) ;
#1070=FACE_OUTER_BOUND('',#1065,.T.) ;
#1082=FACE_OUTER_BOUND('',#1077,.T.) ;
#44=UNCERTAINTY_MEASURE_WITH_UNIT(LENGTH_MEASURE(0.005),#41,'distance_accuracy_value','CONFUSED CURVE UNCERTAINTY') ;
#68=LINE('Line',#65,#67) ;
#83=LINE('Line',#80,#82) ;
#105=LINE('Line',#102,#104) ;
#119=LINE('Line',#116,#118) ;
#133=LINE('Line',#130,#132) ;
#155=LINE('Line',#152,#154) ;
#164=LINE('Line',#161,#163) ;
#171=LINE('Line',#168,#170) ;
#178=LINE('Line',#175,#177) ;
#195=LINE('Line',#192,#194) ;
#202=LINE('Line',#199,#201) ;
#209=LINE('Line',#206,#208) ;
#216=LINE('Line',#213,#215) ;
#223=LINE('Line',#220,#222) ;
#230=LINE('Line',#227,#229) ;
#237=LINE('Line',#234,#236) ;
#244=LINE('Line',#241,#243) ;
#266=LINE('Line',#263,#265) ;
#273=LINE('Line',#270,#272) ;
#290=LINE('Line',#287,#289) ;
#299=LINE('Line',#296,#298) ;
#306=LINE('Line',#303,#305) ;
#313=LINE('Line',#310,#312) ;
#320=LINE('Line',#317,#319) ;
#327=LINE('Line',#324,#326) ;
#332=LINE('Line',#329,#331) ;
#354=LINE('Line',#351,#353) ;
#363=LINE('Line',#360,#362) ;
#368=LINE('Line',#365,#367) ;
#375=LINE('Line',#372,#374) ;
#382=LINE('Line',#379,#381) ;
#398=LINE('Line',#395,#397) ;
#410=LINE('Line',#407,#409) ;
#424=LINE('Line',#421,#423) ;
#454=LINE('Line',#451,#453) ;
#471=LINE('Line',#468,#470) ;
#476=LINE('Line',#473,#475) ;
#494=LINE('Line',#491,#493) ;
#501=LINE('Line',#498,#500) ;
#508=LINE('Line',#505,#507) ;
#527=LINE('Line',#524,#526) ;
#534=LINE('Line',#531,#533) ;
#551=LINE('Line',#548,#550) ;
#560=LINE('Line',#557,#559) ;
#567=LINE('Line',#564,#566) ;
#572=LINE('Line',#569,#571) ;
#593=LINE('Line',#590,#592) ;
#600=LINE('Line',#597,#599) ;
#617=LINE('Line',#614,#616) ;
#624=LINE('Line',#621,#623) ;
#641=LINE('Line',#638,#640) ;
#648=LINE('Line',#645,#647) ;
#655=LINE('Line',#652,#654) ;
#662=LINE('Line',#659,#661) ;
#669=LINE('Line',#666,#668) ;
#676=LINE('Line',#673,#675) ;
#683=LINE('Line',#680,#682) ;
#690=LINE('Line',#687,#689) ;
#697=LINE('Line',#694,#696) ;
#704=LINE('Line',#701,#703) ;
#729=LINE('Line',#726,#728) ;
#736=LINE('Line',#733,#735) ;
#753=LINE('Line',#750,#752) ;
#760=LINE('Line',#757,#759) ;
#767=LINE('Line',#764,#766) ;
#774=LINE('Line',#771,#773) ;
#781=LINE('Line',#778,#780) ;
#788=LINE('Line',#785,#787) ;
#795=LINE('Line',#792,#794) ;
#802=LINE('Line',#799,#801) ;
#809=LINE('Line',#806,#808) ;
#829=LINE('Line',#826,#828) ;
#838=LINE('Line',#835,#837) ;
#843=LINE('Line',#840,#842) ;
#860=LINE('Line',#857,#859) ;
#865=LINE('Line',#862,#864) ;
#887=LINE('Line',#884,#886) ;
#892=LINE('Line',#889,#891) ;
#899=LINE('Line',#896,#898) ;
#921=LINE('Line',#918,#920) ;
#971=LINE('Line',#968,#970) ;
#988=LINE('Line',#985,#987) ;
#1005=LINE('Line',#1002,#1004) ;
#1022=LINE('Line',#1019,#1021) ;
#1034=LINE('Line',#1031,#1033) ;
#1051=LINE('Line',#1048,#1050) ;
#1063=LINE('Line',#1060,#1062) ;
#2=MECHANICAL_CONTEXT(' ',#1,'mechanical') ;
#24=PERSONAL_ADDRESS(' ',' ',' ',' ',' ',' ',' ',' ',' ',' ',' ',' ',(#22),' ') ;
#55=PLANE('',#54) ;
#151=PLANE('',#150) ;
#191=PLANE('',#190) ;
#262=PLANE('',#261) ;
#286=PLANE('',#285) ;
#350=PLANE('',#349) ;
#467=PLANE('',#466) ;
#490=PLANE('',#489) ;
#523=PLANE('',#522) ;
#547=PLANE('',#546) ;
#589=PLANE('',#588) ;
#613=PLANE('',#612) ;
#637=PLANE('',#636) ;
#725=PLANE('',#724) ;
#749=PLANE('',#748) ;
#856=PLANE('',#855) ;
#883=PLANE('',#882) ;
#917=PLANE('',#916) ;
#984=PLANE('',#983) ;
#1001=PLANE('',#1000) ;
#1018=PLANE('',#1017) ;
#1047=PLANE('',#1046) ;
#1076=PLANE('',#1075) ;
#7=PRODUCT_CATEGORY('part',$) ;
#9=PRODUCT_CATEGORY_RELATIONSHIP(' ',' ',#7,#8) ;
#6=PRODUCT_DEFINITION_FORMATION_WITH_SPECIFIED_SOURCE('',' ',#5,.NOT_KNOWN.) ;
#8=PRODUCT_RELATED_PRODUCT_CATEGORY('detail',$,(#5)) ;
#49=SHAPE_DEFINITION_REPRESENTATION(#40,#48) ;
#61=VERTEX_POINT('',#60) ;
#63=VERTEX_POINT('',#62) ;
#85=VERTEX_POINT('',#84) ;
#92=VERTEX_POINT('',#91) ;
#100=VERTEX_POINT('',#99) ;
#107=VERTEX_POINT('',#106) ;
#114=VERTEX_POINT('',#113) ;
#121=VERTEX_POINT('',#120) ;
#128=VERTEX_POINT('',#127) ;
#157=VERTEX_POINT('',#156) ;
#159=VERTEX_POINT('',#158) ;
#166=VERTEX_POINT('',#165) ;
#173=VERTEX_POINT('',#172) ;
#197=VERTEX_POINT('',#196) ;
#204=VERTEX_POINT('',#203) ;
#211=VERTEX_POINT('',#210) ;
#218=VERTEX_POINT('',#217) ;
#225=VERTEX_POINT('',#224) ;
#232=VERTEX_POINT('',#231) ;
#239=VERTEX_POINT('',#238) ;
#268=VERTEX_POINT('',#267) ;
#292=VERTEX_POINT('',#291) ;
#294=VERTEX_POINT('',#293) ;
#301=VERTEX_POINT('',#300) ;
#308=VERTEX_POINT('',#307) ;
#315=VERTEX_POINT('',#314) ;
#322=VERTEX_POINT('',#321) ;
#356=VERTEX_POINT('',#355) ;
#358=VERTEX_POINT('',#357) ;
#370=VERTEX_POINT('',#369) ;
#377=VERTEX_POINT('',#376) ;
#400=VERTEX_POINT('',#399) ;
#412=VERTEX_POINT('',#411) ;
#419=VERTEX_POINT('',#418) ;
#449=VERTEX_POINT('',#448) ;
#496=VERTEX_POINT('',#495) ;
#503=VERTEX_POINT('',#502) ;
#529=VERTEX_POINT('',#528) ;
#553=VERTEX_POINT('',#552) ;
#555=VERTEX_POINT('',#554) ;
#562=VERTEX_POINT('',#561) ;
#595=VERTEX_POINT('',#594) ;
#619=VERTEX_POINT('',#618) ;
#643=VERTEX_POINT('',#642) ;
#650=VERTEX_POINT('',#649) ;
#657=VERTEX_POINT('',#656) ;
#664=VERTEX_POINT('',#663) ;
#671=VERTEX_POINT('',#670) ;
#678=VERTEX_POINT('',#677) ;
#685=VERTEX_POINT('',#684) ;
#692=VERTEX_POINT('',#691) ;
#699=VERTEX_POINT('',#698) ;
#731=VERTEX_POINT('',#730) ;
#755=VERTEX_POINT('',#754) ;
#762=VERTEX_POINT('',#761) ;
#769=VERTEX_POINT('',#768) ;
#776=VERTEX_POINT('',#775) ;
#783=VERTEX_POINT('',#782) ;
#790=VERTEX_POINT('',#789) ;
#797=VERTEX_POINT('',#796) ;
#804=VERTEX_POINT('',#803) ;
#831=VERTEX_POINT('',#830) ;
#833=VERTEX_POINT('',#832) ;
#894=VERTEX_POINT('',#893) ;
#41=(LENGTH_UNIT()NAMED_UNIT(*)SI_UNIT(.MILLI.,.METRE.)) ;
#42=(NAMED_UNIT(*)PLANE_ANGLE_UNIT()SI_UNIT($,.RADIAN.)) ;
#43=(NAMED_UNIT(*)SI_UNIT($,.STERADIAN.)SOLID_ANGLE_UNIT()) ;
#45=(GEOMETRIC_REPRESENTATION_CONTEXT(3)GLOBAL_UNCERTAINTY_ASSIGNED_CONTEXT((#44))GLOBAL_UNIT_ASSIGNED_CONTEXT((#41,#42,#43))REPRESENTATION_CONTEXT(' ',' ')) ;
ENDSEC;
END-ISO-10303-21;
