ISO-10303-21;
HEADER;
FILE_DESCRIPTION(('CATIA V5 STEP Exchange','CAx-IF Rec.Pracs.--- Composite Materials ---3.4---2017-06-13'),'2;1');

FILE_NAME('C:\\Users\\PH\\Desktop\\\X2\5DE5521B72696D418D446599\X0\\\1\X2\7ED367846A21578B53CA\X0\PCB\\\X2\7ED367846A21578B\X0\\\\X2\6253537090E84EF6\X0\\\lianjie1.stp','2026-05-13T13:41:14+00:00',('none'),('none'),'CATIA Version 5-6 Release 2021 SP7','CATIA V5 STEP AP203 v2','none');

FILE_SCHEMA(('CONFIG_CONTROL_DESIGN'));

ENDSEC;
DATA;
#5=PRODUCT('\X2\5E95677F8FDE63A54EF6\X0\1','\X2\5E95677F8FDE63A54EF6\X0\1','',(#2)) ;
#1=APPLICATION_CONTEXT('configuration controlled 3D design of mechanical parts and assemblies') ;
#14=PRODUCT_DEFINITION('\X2\93C8\X0\',' ',#6,#3) ;
#16=SECURITY_CLASSIFICATION(' ',' ',#15) ;
#15=SECURITY_CLASSIFICATION_LEVEL('unclassified') ;
#46=CARTESIAN_POINT(' ',(0.,0.,0.)) ;
#51=CARTESIAN_POINT('Axis2P3D Location',(30.9403587668,3.,1.5)) ;
#56=CARTESIAN_POINT('Line Origine',(29.9403587668,0.,1.5)) ;
#60=CARTESIAN_POINT('Vertex',(30.9403587668,0.,1.5)) ;
#62=CARTESIAN_POINT('Vertex',(28.9403587668,0.,1.5)) ;
#65=CARTESIAN_POINT('Line Origine',(28.9403587668,1.5,1.5)) ;
#69=CARTESIAN_POINT('Vertex',(28.9403587668,3.,1.5)) ;
#72=CARTESIAN_POINT('Line Origine',(29.9403587668,3.,1.5)) ;
#76=CARTESIAN_POINT('Vertex',(30.9403587668,3.,1.5)) ;
#79=CARTESIAN_POINT('Line Origine',(30.9403587668,1.5,1.5)) ;
#91=CARTESIAN_POINT('Axis2P3D Location',(30.9403587668,-7.,0.)) ;
#96=CARTESIAN_POINT('Axis2P3D Location',(30.9403587668,0.,0.)) ;
#100=CARTESIAN_POINT('Vertex',(30.9403587668,0.,-1.5)) ;
#103=CARTESIAN_POINT('Axis2P3D Location',(30.9403587668,3.,0.)) ;
#107=CARTESIAN_POINT('Vertex',(30.9403587668,3.,-1.5)) ;
#110=CARTESIAN_POINT('Line Origine',(30.9403587668,-7.,-1.5)) ;
#122=CARTESIAN_POINT('Axis2P3D Location',(28.9403587668,-7.,0.)) ;
#127=CARTESIAN_POINT('Axis2P3D Location',(28.9403587668,0.,0.)) ;
#131=CARTESIAN_POINT('Vertex',(28.9403587668,0.,-1.5)) ;
#134=CARTESIAN_POINT('Line Origine',(28.9403587668,-7.,-1.5)) ;
#138=CARTESIAN_POINT('Vertex',(28.9403587668,3.,-1.5)) ;
#141=CARTESIAN_POINT('Axis2P3D Location',(28.9403587668,3.,0.)) ;
#153=CARTESIAN_POINT('Axis2P3D Location',(28.9403587668,3.,-1.5)) ;
#158=CARTESIAN_POINT('Line Origine',(29.9403587668,0.,-1.5)) ;
#163=CARTESIAN_POINT('Line Origine',(29.9403587668,3.,-1.5)) ;
#175=CARTESIAN_POINT('Axis2P3D Location',(-30.,0.,0.)) ;
#180=CARTESIAN_POINT('Axis2P3D Location',(-43.5,0.,-8.881784197E-16)) ;
#184=CARTESIAN_POINT('Vertex',(-43.5,0.,-4.)) ;
#186=CARTESIAN_POINT('Vertex',(-47.5,0.,-1.62296649919E-15)) ;
#189=CARTESIAN_POINT('Line Origine',(-7.1054273576E-15,0.,-4.)) ;
#193=CARTESIAN_POINT('Vertex',(43.5,0.,-4.)) ;
#196=CARTESIAN_POINT('Axis2P3D Location',(43.5,0.,-8.881784197E-16)) ;
#200=CARTESIAN_POINT('Vertex',(47.5,0.,-1.53142747957E-15)) ;
#203=CARTESIAN_POINT('Axis2P3D Location',(43.5,0.,8.881784197E-16)) ;
#207=CARTESIAN_POINT('Vertex',(43.5,0.,4.)) ;
#210=CARTESIAN_POINT('Line Origine',(0.,0.,4.)) ;
#214=CARTESIAN_POINT('Vertex',(-43.5,0.,4.)) ;
#217=CARTESIAN_POINT('Axis2P3D Location',(-43.5,0.,8.881784197E-16)) ;
#230=CARTESIAN_POINT('Line Origine',(-30.0596412332,0.,-1.5)) ;
#234=CARTESIAN_POINT('Vertex',(-31.0596412332,0.,-1.5)) ;
#236=CARTESIAN_POINT('Vertex',(-29.0596412332,0.,-1.5)) ;
#239=CARTESIAN_POINT('Axis2P3D Location',(-31.0596412332,0.,0.)) ;
#243=CARTESIAN_POINT('Vertex',(-31.0596412332,0.,1.5)) ;
#246=CARTESIAN_POINT('Line Origine',(-30.0596412332,0.,1.5)) ;
#250=CARTESIAN_POINT('Vertex',(-29.0596412332,0.,1.5)) ;
#253=CARTESIAN_POINT('Axis2P3D Location',(-29.0596412332,0.,0.)) ;
#264=CARTESIAN_POINT('Line Origine',(-15.0596412332,0.,-1.5)) ;
#268=CARTESIAN_POINT('Vertex',(-16.0596412332,0.,-1.5)) ;
#270=CARTESIAN_POINT('Vertex',(-14.0596412332,0.,-1.5)) ;
#273=CARTESIAN_POINT('Axis2P3D Location',(-16.0596412332,0.,0.)) ;
#277=CARTESIAN_POINT('Vertex',(-16.0596412332,0.,1.5)) ;
#280=CARTESIAN_POINT('Line Origine',(-15.0596412332,0.,1.5)) ;
#284=CARTESIAN_POINT('Vertex',(-14.0596412332,0.,1.5)) ;
#287=CARTESIAN_POINT('Axis2P3D Location',(-14.0596412332,0.,0.)) ;
#298=CARTESIAN_POINT('Line Origine',(14.9403587668,0.,-1.5)) ;
#302=CARTESIAN_POINT('Vertex',(13.9403587668,0.,-1.5)) ;
#304=CARTESIAN_POINT('Vertex',(15.9403587668,0.,-1.5)) ;
#307=CARTESIAN_POINT('Axis2P3D Location',(13.9403587668,0.,0.)) ;
#311=CARTESIAN_POINT('Vertex',(13.9403587668,0.,1.5)) ;
#314=CARTESIAN_POINT('Line Origine',(14.9403587668,0.,1.5)) ;
#318=CARTESIAN_POINT('Vertex',(15.9403587668,0.,1.5)) ;
#321=CARTESIAN_POINT('Axis2P3D Location',(15.9403587668,0.,0.)) ;
#339=CARTESIAN_POINT('Axis2P3D Location',(-30.,3.,0.)) ;
#344=CARTESIAN_POINT('Axis2P3D Location',(-43.5,3.,8.881784197E-16)) ;
#348=CARTESIAN_POINT('Vertex',(-43.5,3.,4.)) ;
#350=CARTESIAN_POINT('Vertex',(-47.5,3.,-1.62296649919E-15)) ;
#353=CARTESIAN_POINT('Line Origine',(0.,3.,4.)) ;
#357=CARTESIAN_POINT('Vertex',(43.5,3.,4.)) ;
#360=CARTESIAN_POINT('Axis2P3D Location',(43.5,3.,8.881784197E-16)) ;
#364=CARTESIAN_POINT('Vertex',(47.5,3.,-1.53142747957E-15)) ;
#367=CARTESIAN_POINT('Axis2P3D Location',(43.5,3.,-8.881784197E-16)) ;
#371=CARTESIAN_POINT('Vertex',(43.5,3.,-4.)) ;
#374=CARTESIAN_POINT('Line Origine',(-7.1054273576E-15,3.,-4.)) ;
#378=CARTESIAN_POINT('Vertex',(-43.5,3.,-4.)) ;
#381=CARTESIAN_POINT('Axis2P3D Location',(-43.5,3.,-8.881784197E-16)) ;
#394=CARTESIAN_POINT('Axis2P3D Location',(-31.0596412332,3.,0.)) ;
#398=CARTESIAN_POINT('Vertex',(-31.0596412332,3.,-1.5)) ;
#400=CARTESIAN_POINT('Vertex',(-31.0596412332,3.,1.5)) ;
#403=CARTESIAN_POINT('Line Origine',(-30.0596412332,3.,-1.5)) ;
#407=CARTESIAN_POINT('Vertex',(-29.0596412332,3.,-1.5)) ;
#410=CARTESIAN_POINT('Axis2P3D Location',(-29.0596412332,3.,0.)) ;
#414=CARTESIAN_POINT('Vertex',(-29.0596412332,3.,1.5)) ;
#417=CARTESIAN_POINT('Line Origine',(-30.0596412332,3.,1.5)) ;
#428=CARTESIAN_POINT('Axis2P3D Location',(-16.0596412332,3.,0.)) ;
#432=CARTESIAN_POINT('Vertex',(-16.0596412332,3.,-1.5)) ;
#434=CARTESIAN_POINT('Vertex',(-16.0596412332,3.,1.5)) ;
#437=CARTESIAN_POINT('Line Origine',(-15.0596412332,3.,-1.5)) ;
#441=CARTESIAN_POINT('Vertex',(-14.0596412332,3.,-1.5)) ;
#444=CARTESIAN_POINT('Axis2P3D Location',(-14.0596412332,3.,0.)) ;
#448=CARTESIAN_POINT('Vertex',(-14.0596412332,3.,1.5)) ;
#451=CARTESIAN_POINT('Line Origine',(-15.0596412332,3.,1.5)) ;
#462=CARTESIAN_POINT('Axis2P3D Location',(13.9403587668,3.,0.)) ;
#466=CARTESIAN_POINT('Vertex',(13.9403587668,3.,-1.5)) ;
#468=CARTESIAN_POINT('Vertex',(13.9403587668,3.,1.5)) ;
#471=CARTESIAN_POINT('Line Origine',(14.9403587668,3.,-1.5)) ;
#475=CARTESIAN_POINT('Vertex',(15.9403587668,3.,-1.5)) ;
#478=CARTESIAN_POINT('Axis2P3D Location',(15.9403587668,3.,0.)) ;
#482=CARTESIAN_POINT('Vertex',(15.9403587668,3.,1.5)) ;
#485=CARTESIAN_POINT('Line Origine',(14.9403587668,3.,1.5)) ;
#503=CARTESIAN_POINT('Axis2P3D Location',(-30.,3.,-4.)) ;
#508=CARTESIAN_POINT('Line Origine',(-43.5,1.5,-4.)) ;
#513=CARTESIAN_POINT('Line Origine',(43.5,1.5,-4.)) ;
#525=CARTESIAN_POINT('Axis2P3D Location',(-43.5,1.5,-8.881784197E-16)) ;
#530=CARTESIAN_POINT('Line Origine',(-47.5,1.5,-1.53390340212E-16)) ;
#542=CARTESIAN_POINT('Axis2P3D Location',(43.5,1.5,-8.881784197E-16)) ;
#547=CARTESIAN_POINT('Line Origine',(47.5,1.5,-1.86789585902E-15)) ;
#559=CARTESIAN_POINT('Axis2P3D Location',(-30.,3.,4.)) ;
#564=CARTESIAN_POINT('Line Origine',(-43.5,1.5,4.)) ;
#569=CARTESIAN_POINT('Line Origine',(43.5,1.5,4.)) ;
#581=CARTESIAN_POINT('Axis2P3D Location',(-43.5,1.5,8.881784197E-16)) ;
#593=CARTESIAN_POINT('Axis2P3D Location',(43.5,1.5,8.881784197E-16)) ;
#605=CARTESIAN_POINT('Line Origine',(13.9403587668,1.5,1.5)) ;
#610=CARTESIAN_POINT('Line Origine',(15.9403587668,1.5,1.5)) ;
#622=CARTESIAN_POINT('Axis2P3D Location',(13.9403587668,-7.,0.)) ;
#627=CARTESIAN_POINT('Line Origine',(13.9403587668,-7.,-1.5)) ;
#639=CARTESIAN_POINT('Line Origine',(15.9403587668,1.5,-1.5)) ;
#651=CARTESIAN_POINT('Axis2P3D Location',(15.9403587668,-7.,0.)) ;
#663=CARTESIAN_POINT('Line Origine',(-16.0596412332,1.5,1.5)) ;
#668=CARTESIAN_POINT('Line Origine',(-14.0596412332,1.5,1.5)) ;
#680=CARTESIAN_POINT('Axis2P3D Location',(-16.0596412332,-7.,0.)) ;
#685=CARTESIAN_POINT('Line Origine',(-16.0596412332,-7.,-1.5)) ;
#697=CARTESIAN_POINT('Line Origine',(-14.0596412332,1.5,-1.5)) ;
#709=CARTESIAN_POINT('Axis2P3D Location',(-14.0596412332,-7.,0.)) ;
#721=CARTESIAN_POINT('Line Origine',(-31.0596412332,1.5,1.5)) ;
#726=CARTESIAN_POINT('Line Origine',(-29.0596412332,1.5,1.5)) ;
#738=CARTESIAN_POINT('Axis2P3D Location',(-31.0596412332,-7.,0.)) ;
#743=CARTESIAN_POINT('Line Origine',(-31.0596412332,-7.,-1.5)) ;
#755=CARTESIAN_POINT('Line Origine',(-29.0596412332,1.5,-1.5)) ;
#767=CARTESIAN_POINT('Axis2P3D Location',(-29.0596412332,-7.,0.)) ;
#52=DIRECTION('Axis2P3D Direction',(0.,0.,1.)) ;
#53=DIRECTION('Axis2P3D XDirection',(-1.,-0.,0.)) ;
#57=DIRECTION('Vector Direction',(-1.,0.,0.)) ;
#66=DIRECTION('Vector Direction',(0.,-1.,0.)) ;
#73=DIRECTION('Vector Direction',(-1.,0.,0.)) ;
#80=DIRECTION('Vector Direction',(0.,-1.,0.)) ;
#92=DIRECTION('Axis2P3D Direction',(0.,1.,0.)) ;
#93=DIRECTION('Axis2P3D XDirection',(6.38876138785E-14,0.,1.)) ;
#97=DIRECTION('Axis2P3D Direction',(0.,1.,0.)) ;
#104=DIRECTION('Axis2P3D Direction',(0.,1.,0.)) ;
#111=DIRECTION('Vector Direction',(0.,1.,0.)) ;
#123=DIRECTION('Axis2P3D Direction',(0.,1.,0.)) ;
#124=DIRECTION('Axis2P3D XDirection',(1.83697019872E-16,0.,-1.)) ;
#128=DIRECTION('Axis2P3D Direction',(0.,1.,0.)) ;
#135=DIRECTION('Vector Direction',(0.,1.,0.)) ;
#142=DIRECTION('Axis2P3D Direction',(0.,1.,0.)) ;
#154=DIRECTION('Axis2P3D Direction',(0.,0.,-1.)) ;
#155=DIRECTION('Axis2P3D XDirection',(1.,0.,0.)) ;
#159=DIRECTION('Vector Direction',(1.,0.,0.)) ;
#164=DIRECTION('Vector Direction',(1.,0.,0.)) ;
#176=DIRECTION('Axis2P3D Direction',(0.,1.,0.)) ;
#177=DIRECTION('Axis2P3D XDirection',(0.,-0.,1.)) ;
#181=DIRECTION('Axis2P3D Direction',(0.,1.,0.)) ;
#190=DIRECTION('Vector Direction',(1.,0.,0.)) ;
#197=DIRECTION('Axis2P3D Direction',(0.,1.,0.)) ;
#204=DIRECTION('Axis2P3D Direction',(0.,1.,0.)) ;
#211=DIRECTION('Vector Direction',(-1.,0.,0.)) ;
#218=DIRECTION('Axis2P3D Direction',(0.,1.,0.)) ;
#231=DIRECTION('Vector Direction',(1.,0.,0.)) ;
#240=DIRECTION('Axis2P3D Direction',(0.,1.,0.)) ;
#247=DIRECTION('Vector Direction',(-1.,0.,0.)) ;
#254=DIRECTION('Axis2P3D Direction',(0.,1.,0.)) ;
#265=DIRECTION('Vector Direction',(1.,0.,0.)) ;
#274=DIRECTION('Axis2P3D Direction',(0.,1.,0.)) ;
#281=DIRECTION('Vector Direction',(-1.,0.,0.)) ;
#288=DIRECTION('Axis2P3D Direction',(0.,1.,0.)) ;
#299=DIRECTION('Vector Direction',(1.,0.,0.)) ;
#308=DIRECTION('Axis2P3D Direction',(0.,1.,0.)) ;
#315=DIRECTION('Vector Direction',(-1.,0.,0.)) ;
#322=DIRECTION('Axis2P3D Direction',(0.,1.,0.)) ;
#340=DIRECTION('Axis2P3D Direction',(0.,1.,0.)) ;
#341=DIRECTION('Axis2P3D XDirection',(0.,-0.,1.)) ;
#345=DIRECTION('Axis2P3D Direction',(0.,1.,0.)) ;
#354=DIRECTION('Vector Direction',(-1.,0.,0.)) ;
#361=DIRECTION('Axis2P3D Direction',(0.,1.,0.)) ;
#368=DIRECTION('Axis2P3D Direction',(0.,1.,0.)) ;
#375=DIRECTION('Vector Direction',(1.,0.,0.)) ;
#382=DIRECTION('Axis2P3D Direction',(0.,1.,0.)) ;
#395=DIRECTION('Axis2P3D Direction',(0.,1.,0.)) ;
#404=DIRECTION('Vector Direction',(1.,0.,0.)) ;
#411=DIRECTION('Axis2P3D Direction',(0.,1.,0.)) ;
#418=DIRECTION('Vector Direction',(-1.,0.,0.)) ;
#429=DIRECTION('Axis2P3D Direction',(0.,1.,0.)) ;
#438=DIRECTION('Vector Direction',(1.,0.,0.)) ;
#445=DIRECTION('Axis2P3D Direction',(0.,1.,0.)) ;
#452=DIRECTION('Vector Direction',(-1.,0.,0.)) ;
#463=DIRECTION('Axis2P3D Direction',(0.,1.,0.)) ;
#472=DIRECTION('Vector Direction',(1.,0.,0.)) ;
#479=DIRECTION('Axis2P3D Direction',(0.,1.,0.)) ;
#486=DIRECTION('Vector Direction',(-1.,0.,0.)) ;
#504=DIRECTION('Axis2P3D Direction',(0.,0.,1.)) ;
#505=DIRECTION('Axis2P3D XDirection',(1.,0.,-0.)) ;
#509=DIRECTION('Vector Direction',(0.,-1.,0.)) ;
#514=DIRECTION('Vector Direction',(0.,-1.,0.)) ;
#526=DIRECTION('Axis2P3D Direction',(0.,-1.,0.)) ;
#527=DIRECTION('Axis2P3D XDirection',(-1.,-0.,1.83697019872E-16)) ;
#531=DIRECTION('Vector Direction',(0.,-1.,0.)) ;
#543=DIRECTION('Axis2P3D Direction',(0.,-1.,0.)) ;
#544=DIRECTION('Axis2P3D XDirection',(-1.83697019872E-16,-0.,-1.)) ;
#548=DIRECTION('Vector Direction',(0.,-1.,0.)) ;
#560=DIRECTION('Axis2P3D Direction',(0.,0.,-1.)) ;
#561=DIRECTION('Axis2P3D XDirection',(-1.,0.,-0.)) ;
#565=DIRECTION('Vector Direction',(0.,-1.,0.)) ;
#570=DIRECTION('Vector Direction',(0.,-1.,0.)) ;
#582=DIRECTION('Axis2P3D Direction',(0.,-1.,0.)) ;
#583=DIRECTION('Axis2P3D XDirection',(1.83697019872E-16,0.,1.)) ;
#594=DIRECTION('Axis2P3D Direction',(0.,-1.,0.)) ;
#595=DIRECTION('Axis2P3D XDirection',(1.,-0.,-1.83697019872E-16)) ;
#606=DIRECTION('Vector Direction',(0.,-1.,0.)) ;
#611=DIRECTION('Vector Direction',(0.,-1.,0.)) ;
#623=DIRECTION('Axis2P3D Direction',(0.,1.,0.)) ;
#624=DIRECTION('Axis2P3D XDirection',(1.83697019872E-16,0.,-1.)) ;
#628=DIRECTION('Vector Direction',(0.,1.,0.)) ;
#640=DIRECTION('Vector Direction',(0.,-1.,0.)) ;
#652=DIRECTION('Axis2P3D Direction',(0.,1.,0.)) ;
#653=DIRECTION('Axis2P3D XDirection',(6.38876138785E-14,0.,1.)) ;
#664=DIRECTION('Vector Direction',(0.,-1.,0.)) ;
#669=DIRECTION('Vector Direction',(0.,-1.,0.)) ;
#681=DIRECTION('Axis2P3D Direction',(0.,1.,0.)) ;
#682=DIRECTION('Axis2P3D XDirection',(1.83697019872E-16,0.,-1.)) ;
#686=DIRECTION('Vector Direction',(0.,1.,0.)) ;
#698=DIRECTION('Vector Direction',(0.,-1.,0.)) ;
#710=DIRECTION('Axis2P3D Direction',(0.,1.,0.)) ;
#711=DIRECTION('Axis2P3D XDirection',(6.38876138785E-14,0.,1.)) ;
#722=DIRECTION('Vector Direction',(0.,-1.,0.)) ;
#727=DIRECTION('Vector Direction',(0.,-1.,0.)) ;
#739=DIRECTION('Axis2P3D Direction',(0.,1.,0.)) ;
#740=DIRECTION('Axis2P3D XDirection',(1.83697019872E-16,0.,-1.)) ;
#744=DIRECTION('Vector Direction',(0.,1.,0.)) ;
#756=DIRECTION('Vector Direction',(0.,-1.,0.)) ;
#768=DIRECTION('Axis2P3D Direction',(0.,1.,0.)) ;
#769=DIRECTION('Axis2P3D XDirection',(6.38876138785E-14,0.,1.)) ;
#47=AXIS2_PLACEMENT_3D(' ',#46,$,$) ;
#54=AXIS2_PLACEMENT_3D('Plane Axis2P3D',#51,#52,#53) ;
#94=AXIS2_PLACEMENT_3D('Cylinder Axis2P3D',#91,#92,#93) ;
#98=AXIS2_PLACEMENT_3D('Circle Axis2P3D',#96,#97,$) ;
#105=AXIS2_PLACEMENT_3D('Circle Axis2P3D',#103,#104,$) ;
#125=AXIS2_PLACEMENT_3D('Cylinder Axis2P3D',#122,#123,#124) ;
#129=AXIS2_PLACEMENT_3D('Circle Axis2P3D',#127,#128,$) ;
#143=AXIS2_PLACEMENT_3D('Circle Axis2P3D',#141,#142,$) ;
#156=AXIS2_PLACEMENT_3D('Plane Axis2P3D',#153,#154,#155) ;
#178=AXIS2_PLACEMENT_3D('Plane Axis2P3D',#175,#176,#177) ;
#182=AXIS2_PLACEMENT_3D('Circle Axis2P3D',#180,#181,$) ;
#198=AXIS2_PLACEMENT_3D('Circle Axis2P3D',#196,#197,$) ;
#205=AXIS2_PLACEMENT_3D('Circle Axis2P3D',#203,#204,$) ;
#219=AXIS2_PLACEMENT_3D('Circle Axis2P3D',#217,#218,$) ;
#241=AXIS2_PLACEMENT_3D('Circle Axis2P3D',#239,#240,$) ;
#255=AXIS2_PLACEMENT_3D('Circle Axis2P3D',#253,#254,$) ;
#275=AXIS2_PLACEMENT_3D('Circle Axis2P3D',#273,#274,$) ;
#289=AXIS2_PLACEMENT_3D('Circle Axis2P3D',#287,#288,$) ;
#309=AXIS2_PLACEMENT_3D('Circle Axis2P3D',#307,#308,$) ;
#323=AXIS2_PLACEMENT_3D('Circle Axis2P3D',#321,#322,$) ;
#342=AXIS2_PLACEMENT_3D('Plane Axis2P3D',#339,#340,#341) ;
#346=AXIS2_PLACEMENT_3D('Circle Axis2P3D',#344,#345,$) ;
#362=AXIS2_PLACEMENT_3D('Circle Axis2P3D',#360,#361,$) ;
#369=AXIS2_PLACEMENT_3D('Circle Axis2P3D',#367,#368,$) ;
#383=AXIS2_PLACEMENT_3D('Circle Axis2P3D',#381,#382,$) ;
#396=AXIS2_PLACEMENT_3D('Circle Axis2P3D',#394,#395,$) ;
#412=AXIS2_PLACEMENT_3D('Circle Axis2P3D',#410,#411,$) ;
#430=AXIS2_PLACEMENT_3D('Circle Axis2P3D',#428,#429,$) ;
#446=AXIS2_PLACEMENT_3D('Circle Axis2P3D',#444,#445,$) ;
#464=AXIS2_PLACEMENT_3D('Circle Axis2P3D',#462,#463,$) ;
#480=AXIS2_PLACEMENT_3D('Circle Axis2P3D',#478,#479,$) ;
#506=AXIS2_PLACEMENT_3D('Plane Axis2P3D',#503,#504,#505) ;
#528=AXIS2_PLACEMENT_3D('Cylinder Axis2P3D',#525,#526,#527) ;
#545=AXIS2_PLACEMENT_3D('Cylinder Axis2P3D',#542,#543,#544) ;
#562=AXIS2_PLACEMENT_3D('Plane Axis2P3D',#559,#560,#561) ;
#584=AXIS2_PLACEMENT_3D('Cylinder Axis2P3D',#581,#582,#583) ;
#596=AXIS2_PLACEMENT_3D('Cylinder Axis2P3D',#593,#594,#595) ;
#625=AXIS2_PLACEMENT_3D('Cylinder Axis2P3D',#622,#623,#624) ;
#654=AXIS2_PLACEMENT_3D('Cylinder Axis2P3D',#651,#652,#653) ;
#683=AXIS2_PLACEMENT_3D('Cylinder Axis2P3D',#680,#681,#682) ;
#712=AXIS2_PLACEMENT_3D('Cylinder Axis2P3D',#709,#710,#711) ;
#741=AXIS2_PLACEMENT_3D('Cylinder Axis2P3D',#738,#739,#740) ;
#770=AXIS2_PLACEMENT_3D('Cylinder Axis2P3D',#767,#768,#769) ;
#40=PRODUCT_DEFINITION_SHAPE(' ',' ',#14) ;
#31=APPROVAL_PERSON_ORGANIZATION(#25,#21,#19) ;
#25=PERSON_AND_ORGANIZATION(#22,#23) ;
#22=PERSON(' ',' ',' ',$,$,$) ;
#23=ORGANIZATION(' ',' ',' ') ;
#21=APPROVAL(#20,' ') ;
#20=APPROVAL_STATUS('not_yet_approved') ;
#19=APPROVAL_ROLE('APPROVER') ;
#13=DATE_AND_TIME(#11,#12) ;
#12=LOCAL_TIME(21,41,14.,#10) ;
#10=COORDINATED_UNIVERSAL_TIME_OFFSET(0,0,.AHEAD.) ;
#85=ORIENTED_EDGE('',*,*,#64,.T.) ;
#86=ORIENTED_EDGE('',*,*,#71,.F.) ;
#87=ORIENTED_EDGE('',*,*,#78,.T.) ;
#88=ORIENTED_EDGE('',*,*,#83,.T.) ;
#116=ORIENTED_EDGE('',*,*,#102,.F.) ;
#117=ORIENTED_EDGE('',*,*,#83,.F.) ;
#118=ORIENTED_EDGE('',*,*,#109,.T.) ;
#119=ORIENTED_EDGE('',*,*,#114,.T.) ;
#147=ORIENTED_EDGE('',*,*,#133,.F.) ;
#148=ORIENTED_EDGE('',*,*,#140,.F.) ;
#149=ORIENTED_EDGE('',*,*,#145,.T.) ;
#150=ORIENTED_EDGE('',*,*,#71,.T.) ;
#169=ORIENTED_EDGE('',*,*,#162,.T.) ;
#170=ORIENTED_EDGE('',*,*,#114,.F.) ;
#171=ORIENTED_EDGE('',*,*,#167,.T.) ;
#172=ORIENTED_EDGE('',*,*,#140,.T.) ;
#223=ORIENTED_EDGE('',*,*,#188,.F.) ;
#224=ORIENTED_EDGE('',*,*,#195,.F.) ;
#225=ORIENTED_EDGE('',*,*,#202,.F.) ;
#226=ORIENTED_EDGE('',*,*,#209,.F.) ;
#227=ORIENTED_EDGE('',*,*,#216,.F.) ;
#228=ORIENTED_EDGE('',*,*,#221,.F.) ;
#259=ORIENTED_EDGE('',*,*,#238,.F.) ;
#260=ORIENTED_EDGE('',*,*,#245,.T.) ;
#261=ORIENTED_EDGE('',*,*,#252,.F.) ;
#262=ORIENTED_EDGE('',*,*,#257,.T.) ;
#293=ORIENTED_EDGE('',*,*,#272,.F.) ;
#294=ORIENTED_EDGE('',*,*,#279,.T.) ;
#295=ORIENTED_EDGE('',*,*,#286,.F.) ;
#296=ORIENTED_EDGE('',*,*,#291,.T.) ;
#327=ORIENTED_EDGE('',*,*,#306,.F.) ;
#328=ORIENTED_EDGE('',*,*,#313,.T.) ;
#329=ORIENTED_EDGE('',*,*,#320,.F.) ;
#330=ORIENTED_EDGE('',*,*,#325,.T.) ;
#333=ORIENTED_EDGE('',*,*,#64,.F.) ;
#334=ORIENTED_EDGE('',*,*,#102,.T.) ;
#335=ORIENTED_EDGE('',*,*,#162,.F.) ;
#336=ORIENTED_EDGE('',*,*,#133,.T.) ;
#387=ORIENTED_EDGE('',*,*,#352,.F.) ;
#388=ORIENTED_EDGE('',*,*,#359,.T.) ;
#389=ORIENTED_EDGE('',*,*,#366,.F.) ;
#390=ORIENTED_EDGE('',*,*,#373,.F.) ;
#391=ORIENTED_EDGE('',*,*,#380,.T.) ;
#392=ORIENTED_EDGE('',*,*,#385,.F.) ;
#423=ORIENTED_EDGE('',*,*,#402,.F.) ;
#424=ORIENTED_EDGE('',*,*,#409,.F.) ;
#425=ORIENTED_EDGE('',*,*,#416,.F.) ;
#426=ORIENTED_EDGE('',*,*,#421,.F.) ;
#457=ORIENTED_EDGE('',*,*,#436,.F.) ;
#458=ORIENTED_EDGE('',*,*,#443,.F.) ;
#459=ORIENTED_EDGE('',*,*,#450,.F.) ;
#460=ORIENTED_EDGE('',*,*,#455,.F.) ;
#491=ORIENTED_EDGE('',*,*,#470,.F.) ;
#492=ORIENTED_EDGE('',*,*,#477,.F.) ;
#493=ORIENTED_EDGE('',*,*,#484,.F.) ;
#494=ORIENTED_EDGE('',*,*,#489,.F.) ;
#497=ORIENTED_EDGE('',*,*,#145,.F.) ;
#498=ORIENTED_EDGE('',*,*,#167,.F.) ;
#499=ORIENTED_EDGE('',*,*,#109,.F.) ;
#500=ORIENTED_EDGE('',*,*,#78,.F.) ;
#519=ORIENTED_EDGE('',*,*,#512,.F.) ;
#520=ORIENTED_EDGE('',*,*,#380,.F.) ;
#521=ORIENTED_EDGE('',*,*,#517,.T.) ;
#522=ORIENTED_EDGE('',*,*,#195,.T.) ;
#536=ORIENTED_EDGE('',*,*,#188,.T.) ;
#537=ORIENTED_EDGE('',*,*,#534,.F.) ;
#538=ORIENTED_EDGE('',*,*,#385,.T.) ;
#539=ORIENTED_EDGE('',*,*,#512,.T.) ;
#553=ORIENTED_EDGE('',*,*,#202,.T.) ;
#554=ORIENTED_EDGE('',*,*,#517,.F.) ;
#555=ORIENTED_EDGE('',*,*,#373,.T.) ;
#556=ORIENTED_EDGE('',*,*,#551,.T.) ;
#575=ORIENTED_EDGE('',*,*,#568,.T.) ;
#576=ORIENTED_EDGE('',*,*,#216,.T.) ;
#577=ORIENTED_EDGE('',*,*,#573,.F.) ;
#578=ORIENTED_EDGE('',*,*,#359,.F.) ;
#587=ORIENTED_EDGE('',*,*,#221,.T.) ;
#588=ORIENTED_EDGE('',*,*,#568,.F.) ;
#589=ORIENTED_EDGE('',*,*,#352,.T.) ;
#590=ORIENTED_EDGE('',*,*,#534,.T.) ;
#599=ORIENTED_EDGE('',*,*,#209,.T.) ;
#600=ORIENTED_EDGE('',*,*,#551,.F.) ;
#601=ORIENTED_EDGE('',*,*,#366,.T.) ;
#602=ORIENTED_EDGE('',*,*,#573,.T.) ;
#616=ORIENTED_EDGE('',*,*,#320,.T.) ;
#617=ORIENTED_EDGE('',*,*,#609,.F.) ;
#618=ORIENTED_EDGE('',*,*,#489,.T.) ;
#619=ORIENTED_EDGE('',*,*,#614,.T.) ;
#633=ORIENTED_EDGE('',*,*,#313,.F.) ;
#634=ORIENTED_EDGE('',*,*,#631,.F.) ;
#635=ORIENTED_EDGE('',*,*,#470,.T.) ;
#636=ORIENTED_EDGE('',*,*,#609,.T.) ;
#645=ORIENTED_EDGE('',*,*,#306,.T.) ;
#646=ORIENTED_EDGE('',*,*,#643,.F.) ;
#647=ORIENTED_EDGE('',*,*,#477,.T.) ;
#648=ORIENTED_EDGE('',*,*,#631,.T.) ;
#657=ORIENTED_EDGE('',*,*,#325,.F.) ;
#658=ORIENTED_EDGE('',*,*,#614,.F.) ;
#659=ORIENTED_EDGE('',*,*,#484,.T.) ;
#660=ORIENTED_EDGE('',*,*,#643,.T.) ;
#674=ORIENTED_EDGE('',*,*,#286,.T.) ;
#675=ORIENTED_EDGE('',*,*,#667,.F.) ;
#676=ORIENTED_EDGE('',*,*,#455,.T.) ;
#677=ORIENTED_EDGE('',*,*,#672,.T.) ;
#691=ORIENTED_EDGE('',*,*,#279,.F.) ;
#692=ORIENTED_EDGE('',*,*,#689,.F.) ;
#693=ORIENTED_EDGE('',*,*,#436,.T.) ;
#694=ORIENTED_EDGE('',*,*,#667,.T.) ;
#703=ORIENTED_EDGE('',*,*,#272,.T.) ;
#704=ORIENTED_EDGE('',*,*,#701,.F.) ;
#705=ORIENTED_EDGE('',*,*,#443,.T.) ;
#706=ORIENTED_EDGE('',*,*,#689,.T.) ;
#715=ORIENTED_EDGE('',*,*,#291,.F.) ;
#716=ORIENTED_EDGE('',*,*,#672,.F.) ;
#717=ORIENTED_EDGE('',*,*,#450,.T.) ;
#718=ORIENTED_EDGE('',*,*,#701,.T.) ;
#732=ORIENTED_EDGE('',*,*,#252,.T.) ;
#733=ORIENTED_EDGE('',*,*,#725,.F.) ;
#734=ORIENTED_EDGE('',*,*,#421,.T.) ;
#735=ORIENTED_EDGE('',*,*,#730,.T.) ;
#749=ORIENTED_EDGE('',*,*,#245,.F.) ;
#750=ORIENTED_EDGE('',*,*,#747,.F.) ;
#751=ORIENTED_EDGE('',*,*,#402,.T.) ;
#752=ORIENTED_EDGE('',*,*,#725,.T.) ;
#761=ORIENTED_EDGE('',*,*,#238,.T.) ;
#762=ORIENTED_EDGE('',*,*,#759,.F.) ;
#763=ORIENTED_EDGE('',*,*,#409,.T.) ;
#764=ORIENTED_EDGE('',*,*,#747,.T.) ;
#773=ORIENTED_EDGE('',*,*,#257,.F.) ;
#774=ORIENTED_EDGE('',*,*,#730,.F.) ;
#775=ORIENTED_EDGE('',*,*,#416,.T.) ;
#776=ORIENTED_EDGE('',*,*,#759,.T.) ;
#263=FACE_BOUND('',#258,.T.) ;
#297=FACE_BOUND('',#292,.T.) ;
#331=FACE_BOUND('',#326,.T.) ;
#337=FACE_BOUND('',#332,.T.) ;
#427=FACE_BOUND('',#422,.T.) ;
#461=FACE_BOUND('',#456,.T.) ;
#495=FACE_BOUND('',#490,.T.) ;
#501=FACE_BOUND('',#496,.T.) ;
#50=CLOSED_SHELL('Closed Shell',(#90,#121,#152,#174,#338,#502,#524,#541,#558,#580,#592,#604,#621,#638,#650,#662,#679,#696,#708,#720,#737,#754,#766,#778)) ;
#58=VECTOR('Line Direction',#57,1.) ;
#67=VECTOR('Line Direction',#66,1.) ;
#74=VECTOR('Line Direction',#73,1.) ;
#81=VECTOR('Line Direction',#80,1.) ;
#112=VECTOR('Line Direction',#111,1.) ;
#136=VECTOR('Line Direction',#135,1.) ;
#160=VECTOR('Line Direction',#159,1.) ;
#165=VECTOR('Line Direction',#164,1.) ;
#191=VECTOR('Line Direction',#190,1.) ;
#212=VECTOR('Line Direction',#211,1.) ;
#232=VECTOR('Line Direction',#231,1.) ;
#248=VECTOR('Line Direction',#247,1.) ;
#266=VECTOR('Line Direction',#265,1.) ;
#282=VECTOR('Line Direction',#281,1.) ;
#300=VECTOR('Line Direction',#299,1.) ;
#316=VECTOR('Line Direction',#315,1.) ;
#355=VECTOR('Line Direction',#354,1.) ;
#376=VECTOR('Line Direction',#375,1.) ;
#405=VECTOR('Line Direction',#404,1.) ;
#419=VECTOR('Line Direction',#418,1.) ;
#439=VECTOR('Line Direction',#438,1.) ;
#453=VECTOR('Line Direction',#452,1.) ;
#473=VECTOR('Line Direction',#472,1.) ;
#487=VECTOR('Line Direction',#486,1.) ;
#510=VECTOR('Line Direction',#509,1.) ;
#515=VECTOR('Line Direction',#514,1.) ;
#532=VECTOR('Line Direction',#531,1.) ;
#549=VECTOR('Line Direction',#548,1.) ;
#566=VECTOR('Line Direction',#565,1.) ;
#571=VECTOR('Line Direction',#570,1.) ;
#607=VECTOR('Line Direction',#606,1.) ;
#612=VECTOR('Line Direction',#611,1.) ;
#629=VECTOR('Line Direction',#628,1.) ;
#641=VECTOR('Line Direction',#640,1.) ;
#665=VECTOR('Line Direction',#664,1.) ;
#670=VECTOR('Line Direction',#669,1.) ;
#687=VECTOR('Line Direction',#686,1.) ;
#699=VECTOR('Line Direction',#698,1.) ;
#723=VECTOR('Line Direction',#722,1.) ;
#728=VECTOR('Line Direction',#727,1.) ;
#745=VECTOR('Line Direction',#744,1.) ;
#757=VECTOR('Line Direction',#756,1.) ;
#780=ADVANCED_BREP_SHAPE_REPRESENTATION('NONE',(#779),#45) ;
#48=SHAPE_REPRESENTATION(' ',(#47),#45) ;
#90=ADVANCED_FACE('\X2\52079664\X0\-\X2\62C94F38\X0\1',(#89),#55,.F.) ;
#121=ADVANCED_FACE('\X2\52079664\X0\-\X2\62C94F38\X0\1',(#120),#95,.F.) ;
#152=ADVANCED_FACE('\X2\52079664\X0\-\X2\62C94F38\X0\1',(#151),#126,.F.) ;
#174=ADVANCED_FACE('\X2\52079664\X0\-\X2\62C94F38\X0\1',(#173),#157,.F.) ;
#338=ADVANCED_FACE('\X2\52079664\X0\-\X2\62C94F38\X0\1',(#229,#263,#297,#331,#337),#179,.F.) ;
#502=ADVANCED_FACE('\X2\52079664\X0\-\X2\62C94F38\X0\1',(#393,#427,#461,#495,#501),#343,.T.) ;
#524=ADVANCED_FACE('\X2\52079664\X0\-\X2\62C94F38\X0\1',(#523),#507,.F.) ;
#541=ADVANCED_FACE('\X2\52079664\X0\-\X2\62C94F38\X0\1',(#540),#529,.T.) ;
#558=ADVANCED_FACE('\X2\52079664\X0\-\X2\62C94F38\X0\1',(#557),#546,.T.) ;
#580=ADVANCED_FACE('\X2\52079664\X0\-\X2\62C94F38\X0\1',(#579),#563,.F.) ;
#592=ADVANCED_FACE('\X2\52079664\X0\-\X2\62C94F38\X0\1',(#591),#585,.T.) ;
#604=ADVANCED_FACE('\X2\52079664\X0\-\X2\62C94F38\X0\1',(#603),#597,.T.) ;
#621=ADVANCED_FACE('\X2\52079664\X0\-\X2\62C94F38\X0\1',(#620),#55,.F.) ;
#638=ADVANCED_FACE('\X2\52079664\X0\-\X2\62C94F38\X0\1',(#637),#626,.F.) ;
#650=ADVANCED_FACE('\X2\52079664\X0\-\X2\62C94F38\X0\1',(#649),#157,.F.) ;
#662=ADVANCED_FACE('\X2\52079664\X0\-\X2\62C94F38\X0\1',(#661),#655,.F.) ;
#679=ADVANCED_FACE('\X2\52079664\X0\-\X2\62C94F38\X0\1',(#678),#55,.F.) ;
#696=ADVANCED_FACE('\X2\52079664\X0\-\X2\62C94F38\X0\1',(#695),#684,.F.) ;
#708=ADVANCED_FACE('\X2\52079664\X0\-\X2\62C94F38\X0\1',(#707),#157,.F.) ;
#720=ADVANCED_FACE('\X2\52079664\X0\-\X2\62C94F38\X0\1',(#719),#713,.F.) ;
#737=ADVANCED_FACE('\X2\52079664\X0\-\X2\62C94F38\X0\1',(#736),#55,.F.) ;
#754=ADVANCED_FACE('\X2\52079664\X0\-\X2\62C94F38\X0\1',(#753),#742,.F.) ;
#766=ADVANCED_FACE('\X2\52079664\X0\-\X2\62C94F38\X0\1',(#765),#157,.F.) ;
#778=ADVANCED_FACE('\X2\52079664\X0\-\X2\62C94F38\X0\1',(#777),#771,.F.) ;
#4=APPLICATION_PROTOCOL_DEFINITION('international standard','config_control_design',1994,#1) ;
#32=APPROVAL_DATE_TIME(#13,#21) ;
#779=MANIFOLD_SOLID_BREP('\X2\52079664\X0\-\X2\62C94F38\X0\1',#50) ;
#11=CALENDAR_DATE(2026,13,5) ;
#30=CC_DESIGN_APPROVAL(#21,(#16,#6,#14)) ;
#18=CC_DESIGN_DATE_AND_TIME_ASSIGNMENT(#13,#17,(#16)) ;
#29=CC_DESIGN_DATE_AND_TIME_ASSIGNMENT(#13,#28,(#14)) ;
#17=DATE_TIME_ROLE('classification_date') ;
#28=DATE_TIME_ROLE('creation_date') ;
#27=CC_DESIGN_PERSON_AND_ORGANIZATION_ASSIGNMENT(#25,#26,(#16)) ;
#33=CC_DESIGN_PERSON_AND_ORGANIZATION_ASSIGNMENT(#25,#34,(#6)) ;
#35=CC_DESIGN_PERSON_AND_ORGANIZATION_ASSIGNMENT(#25,#36,(#6,#14)) ;
#37=CC_DESIGN_PERSON_AND_ORGANIZATION_ASSIGNMENT(#25,#38,(#5)) ;
#26=PERSON_AND_ORGANIZATION_ROLE('classification_officer') ;
#34=PERSON_AND_ORGANIZATION_ROLE('design_supplier') ;
#36=PERSON_AND_ORGANIZATION_ROLE('creator') ;
#38=PERSON_AND_ORGANIZATION_ROLE('design_owner') ;
#39=CC_DESIGN_SECURITY_CLASSIFICATION(#16,(#6)) ;
#99=CIRCLE('generated circle',#98,1.5) ;
#106=CIRCLE('generated circle',#105,1.5) ;
#130=CIRCLE('generated circle',#129,1.5) ;
#144=CIRCLE('generated circle',#143,1.5) ;
#183=CIRCLE('generated circle',#182,4.) ;
#199=CIRCLE('generated circle',#198,4.) ;
#206=CIRCLE('generated circle',#205,4.) ;
#220=CIRCLE('generated circle',#219,4.) ;
#242=CIRCLE('generated circle',#241,1.5) ;
#256=CIRCLE('generated circle',#255,1.5) ;
#276=CIRCLE('generated circle',#275,1.5) ;
#290=CIRCLE('generated circle',#289,1.5) ;
#310=CIRCLE('generated circle',#309,1.5) ;
#324=CIRCLE('generated circle',#323,1.5) ;
#347=CIRCLE('generated circle',#346,4.) ;
#363=CIRCLE('generated circle',#362,4.) ;
#370=CIRCLE('generated circle',#369,4.) ;
#384=CIRCLE('generated circle',#383,4.) ;
#397=CIRCLE('generated circle',#396,1.5) ;
#413=CIRCLE('generated circle',#412,1.5) ;
#431=CIRCLE('generated circle',#430,1.5) ;
#447=CIRCLE('generated circle',#446,1.5) ;
#465=CIRCLE('generated circle',#464,1.5) ;
#481=CIRCLE('generated circle',#480,1.5) ;
#781=SHAPE_REPRESENTATION_RELATIONSHIP(' ',' ',#48,#780) ;
#95=CYLINDRICAL_SURFACE('generated cylinder',#94,1.5) ;
#126=CYLINDRICAL_SURFACE('generated cylinder',#125,1.5) ;
#529=CYLINDRICAL_SURFACE('generated cylinder',#528,4.) ;
#546=CYLINDRICAL_SURFACE('generated cylinder',#545,4.) ;
#585=CYLINDRICAL_SURFACE('generated cylinder',#584,4.) ;
#597=CYLINDRICAL_SURFACE('generated cylinder',#596,4.) ;
#626=CYLINDRICAL_SURFACE('generated cylinder',#625,1.5) ;
#655=CYLINDRICAL_SURFACE('generated cylinder',#654,1.5) ;
#684=CYLINDRICAL_SURFACE('generated cylinder',#683,1.5) ;
#713=CYLINDRICAL_SURFACE('generated cylinder',#712,1.5) ;
#742=CYLINDRICAL_SURFACE('generated cylinder',#741,1.5) ;
#771=CYLINDRICAL_SURFACE('generated cylinder',#770,1.5) ;
#3=DESIGN_CONTEXT(' ',#1,'design') ;
#64=EDGE_CURVE('',#61,#63,#59,.T.) ;
#71=EDGE_CURVE('',#70,#63,#68,.T.) ;
#78=EDGE_CURVE('',#70,#77,#75,.F.) ;
#83=EDGE_CURVE('',#77,#61,#82,.T.) ;
#102=EDGE_CURVE('',#61,#101,#99,.T.) ;
#109=EDGE_CURVE('',#77,#108,#106,.T.) ;
#114=EDGE_CURVE('',#108,#101,#113,.F.) ;
#133=EDGE_CURVE('',#132,#63,#130,.T.) ;
#140=EDGE_CURVE('',#139,#132,#137,.F.) ;
#145=EDGE_CURVE('',#139,#70,#144,.T.) ;
#162=EDGE_CURVE('',#132,#101,#161,.T.) ;
#167=EDGE_CURVE('',#108,#139,#166,.F.) ;
#188=EDGE_CURVE('',#185,#187,#183,.T.) ;
#195=EDGE_CURVE('',#194,#185,#192,.F.) ;
#202=EDGE_CURVE('',#201,#194,#199,.T.) ;
#209=EDGE_CURVE('',#208,#201,#206,.T.) ;
#216=EDGE_CURVE('',#215,#208,#213,.F.) ;
#221=EDGE_CURVE('',#187,#215,#220,.T.) ;
#238=EDGE_CURVE('',#235,#237,#233,.T.) ;
#245=EDGE_CURVE('',#235,#244,#242,.T.) ;
#252=EDGE_CURVE('',#251,#244,#249,.T.) ;
#257=EDGE_CURVE('',#251,#237,#256,.T.) ;
#272=EDGE_CURVE('',#269,#271,#267,.T.) ;
#279=EDGE_CURVE('',#269,#278,#276,.T.) ;
#286=EDGE_CURVE('',#285,#278,#283,.T.) ;
#291=EDGE_CURVE('',#285,#271,#290,.T.) ;
#306=EDGE_CURVE('',#303,#305,#301,.T.) ;
#313=EDGE_CURVE('',#303,#312,#310,.T.) ;
#320=EDGE_CURVE('',#319,#312,#317,.T.) ;
#325=EDGE_CURVE('',#319,#305,#324,.T.) ;
#352=EDGE_CURVE('',#349,#351,#347,.F.) ;
#359=EDGE_CURVE('',#349,#358,#356,.F.) ;
#366=EDGE_CURVE('',#365,#358,#363,.F.) ;
#373=EDGE_CURVE('',#372,#365,#370,.F.) ;
#380=EDGE_CURVE('',#372,#379,#377,.F.) ;
#385=EDGE_CURVE('',#351,#379,#384,.F.) ;
#402=EDGE_CURVE('',#399,#401,#397,.T.) ;
#409=EDGE_CURVE('',#408,#399,#406,.F.) ;
#416=EDGE_CURVE('',#415,#408,#413,.T.) ;
#421=EDGE_CURVE('',#401,#415,#420,.F.) ;
#436=EDGE_CURVE('',#433,#435,#431,.T.) ;
#443=EDGE_CURVE('',#442,#433,#440,.F.) ;
#450=EDGE_CURVE('',#449,#442,#447,.T.) ;
#455=EDGE_CURVE('',#435,#449,#454,.F.) ;
#470=EDGE_CURVE('',#467,#469,#465,.T.) ;
#477=EDGE_CURVE('',#476,#467,#474,.F.) ;
#484=EDGE_CURVE('',#483,#476,#481,.T.) ;
#489=EDGE_CURVE('',#469,#483,#488,.F.) ;
#512=EDGE_CURVE('',#379,#185,#511,.T.) ;
#517=EDGE_CURVE('',#372,#194,#516,.T.) ;
#534=EDGE_CURVE('',#351,#187,#533,.T.) ;
#551=EDGE_CURVE('',#365,#201,#550,.T.) ;
#568=EDGE_CURVE('',#349,#215,#567,.T.) ;
#573=EDGE_CURVE('',#358,#208,#572,.T.) ;
#609=EDGE_CURVE('',#469,#312,#608,.T.) ;
#614=EDGE_CURVE('',#483,#319,#613,.T.) ;
#631=EDGE_CURVE('',#467,#303,#630,.F.) ;
#643=EDGE_CURVE('',#476,#305,#642,.T.) ;
#667=EDGE_CURVE('',#435,#278,#666,.T.) ;
#672=EDGE_CURVE('',#449,#285,#671,.T.) ;
#689=EDGE_CURVE('',#433,#269,#688,.F.) ;
#701=EDGE_CURVE('',#442,#271,#700,.T.) ;
#725=EDGE_CURVE('',#401,#244,#724,.T.) ;
#730=EDGE_CURVE('',#415,#251,#729,.T.) ;
#747=EDGE_CURVE('',#399,#235,#746,.F.) ;
#759=EDGE_CURVE('',#408,#237,#758,.T.) ;
#84=EDGE_LOOP('',(#85,#86,#87,#88)) ;
#115=EDGE_LOOP('',(#116,#117,#118,#119)) ;
#146=EDGE_LOOP('',(#147,#148,#149,#150)) ;
#168=EDGE_LOOP('',(#169,#170,#171,#172)) ;
#222=EDGE_LOOP('',(#223,#224,#225,#226,#227,#228)) ;
#258=EDGE_LOOP('',(#259,#260,#261,#262)) ;
#292=EDGE_LOOP('',(#293,#294,#295,#296)) ;
#326=EDGE_LOOP('',(#327,#328,#329,#330)) ;
#332=EDGE_LOOP('',(#333,#334,#335,#336)) ;
#386=EDGE_LOOP('',(#387,#388,#389,#390,#391,#392)) ;
#422=EDGE_LOOP('',(#423,#424,#425,#426)) ;
#456=EDGE_LOOP('',(#457,#458,#459,#460)) ;
#490=EDGE_LOOP('',(#491,#492,#493,#494)) ;
#496=EDGE_LOOP('',(#497,#498,#499,#500)) ;
#518=EDGE_LOOP('',(#519,#520,#521,#522)) ;
#535=EDGE_LOOP('',(#536,#537,#538,#539)) ;
#552=EDGE_LOOP('',(#553,#554,#555,#556)) ;
#574=EDGE_LOOP('',(#575,#576,#577,#578)) ;
#586=EDGE_LOOP('',(#587,#588,#589,#590)) ;
#598=EDGE_LOOP('',(#599,#600,#601,#602)) ;
#615=EDGE_LOOP('',(#616,#617,#618,#619)) ;
#632=EDGE_LOOP('',(#633,#634,#635,#636)) ;
#644=EDGE_LOOP('',(#645,#646,#647,#648)) ;
#656=EDGE_LOOP('',(#657,#658,#659,#660)) ;
#673=EDGE_LOOP('',(#674,#675,#676,#677)) ;
#690=EDGE_LOOP('',(#691,#692,#693,#694)) ;
#702=EDGE_LOOP('',(#703,#704,#705,#706)) ;
#714=EDGE_LOOP('',(#715,#716,#717,#718)) ;
#731=EDGE_LOOP('',(#732,#733,#734,#735)) ;
#748=EDGE_LOOP('',(#749,#750,#751,#752)) ;
#760=EDGE_LOOP('',(#761,#762,#763,#764)) ;
#772=EDGE_LOOP('',(#773,#774,#775,#776)) ;
#89=FACE_OUTER_BOUND('',#84,.T.) ;
#120=FACE_OUTER_BOUND('',#115,.T.) ;
#151=FACE_OUTER_BOUND('',#146,.T.) ;
#173=FACE_OUTER_BOUND('',#168,.T.) ;
#229=FACE_OUTER_BOUND('',#222,.T.) ;
#393=FACE_OUTER_BOUND('',#386,.T.) ;
#523=FACE_OUTER_BOUND('',#518,.T.) ;
#540=FACE_OUTER_BOUND('',#535,.T.) ;
#557=FACE_OUTER_BOUND('',#552,.T.) ;
#579=FACE_OUTER_BOUND('',#574,.T.) ;
#591=FACE_OUTER_BOUND('',#586,.T.) ;
#603=FACE_OUTER_BOUND('',#598,.T.) ;
#620=FACE_OUTER_BOUND('',#615,.T.) ;
#637=FACE_OUTER_BOUND('',#632,.T.) ;
#649=FACE_OUTER_BOUND('',#644,.T.) ;
#661=FACE_OUTER_BOUND('',#656,.T.) ;
#678=FACE_OUTER_BOUND('',#673,.T.) ;
#695=FACE_OUTER_BOUND('',#690,.T.) ;
#707=FACE_OUTER_BOUND('',#702,.T.) ;
#719=FACE_OUTER_BOUND('',#714,.T.) ;
#736=FACE_OUTER_BOUND('',#731,.T.) ;
#753=FACE_OUTER_BOUND('',#748,.T.) ;
#765=FACE_OUTER_BOUND('',#760,.T.) ;
#777=FACE_OUTER_BOUND('',#772,.T.) ;
#44=UNCERTAINTY_MEASURE_WITH_UNIT(LENGTH_MEASURE(0.005),#41,'distance_accuracy_value','CONFUSED CURVE UNCERTAINTY') ;
#59=LINE('Line',#56,#58) ;
#68=LINE('Line',#65,#67) ;
#75=LINE('Line',#72,#74) ;
#82=LINE('Line',#79,#81) ;
#113=LINE('Line',#110,#112) ;
#137=LINE('Line',#134,#136) ;
#161=LINE('Line',#158,#160) ;
#166=LINE('Line',#163,#165) ;
#192=LINE('Line',#189,#191) ;
#213=LINE('Line',#210,#212) ;
#233=LINE('Line',#230,#232) ;
#249=LINE('Line',#246,#248) ;
#267=LINE('Line',#264,#266) ;
#283=LINE('Line',#280,#282) ;
#301=LINE('Line',#298,#300) ;
#317=LINE('Line',#314,#316) ;
#356=LINE('Line',#353,#355) ;
#377=LINE('Line',#374,#376) ;
#406=LINE('Line',#403,#405) ;
#420=LINE('Line',#417,#419) ;
#440=LINE('Line',#437,#439) ;
#454=LINE('Line',#451,#453) ;
#474=LINE('Line',#471,#473) ;
#488=LINE('Line',#485,#487) ;
#511=LINE('Line',#508,#510) ;
#516=LINE('Line',#513,#515) ;
#533=LINE('Line',#530,#532) ;
#550=LINE('Line',#547,#549) ;
#567=LINE('Line',#564,#566) ;
#572=LINE('Line',#569,#571) ;
#608=LINE('Line',#605,#607) ;
#613=LINE('Line',#610,#612) ;
#630=LINE('Line',#627,#629) ;
#642=LINE('Line',#639,#641) ;
#666=LINE('Line',#663,#665) ;
#671=LINE('Line',#668,#670) ;
#688=LINE('Line',#685,#687) ;
#700=LINE('Line',#697,#699) ;
#724=LINE('Line',#721,#723) ;
#729=LINE('Line',#726,#728) ;
#746=LINE('Line',#743,#745) ;
#758=LINE('Line',#755,#757) ;
#2=MECHANICAL_CONTEXT(' ',#1,'mechanical') ;
#24=PERSONAL_ADDRESS(' ',' ',' ',' ',' ',' ',' ',' ',' ',' ',' ',' ',(#22),' ') ;
#55=PLANE('',#54) ;
#157=PLANE('',#156) ;
#179=PLANE('',#178) ;
#343=PLANE('',#342) ;
#507=PLANE('',#506) ;
#563=PLANE('',#562) ;
#7=PRODUCT_CATEGORY('part',$) ;
#9=PRODUCT_CATEGORY_RELATIONSHIP(' ',' ',#7,#8) ;
#6=PRODUCT_DEFINITION_FORMATION_WITH_SPECIFIED_SOURCE('\X2\6D60\X0\',' ',#5,.NOT_KNOWN.) ;
#8=PRODUCT_RELATED_PRODUCT_CATEGORY('detail',$,(#5)) ;
#49=SHAPE_DEFINITION_REPRESENTATION(#40,#48) ;
#61=VERTEX_POINT('',#60) ;
#63=VERTEX_POINT('',#62) ;
#70=VERTEX_POINT('',#69) ;
#77=VERTEX_POINT('',#76) ;
#101=VERTEX_POINT('',#100) ;
#108=VERTEX_POINT('',#107) ;
#132=VERTEX_POINT('',#131) ;
#139=VERTEX_POINT('',#138) ;
#185=VERTEX_POINT('',#184) ;
#187=VERTEX_POINT('',#186) ;
#194=VERTEX_POINT('',#193) ;
#201=VERTEX_POINT('',#200) ;
#208=VERTEX_POINT('',#207) ;
#215=VERTEX_POINT('',#214) ;
#235=VERTEX_POINT('',#234) ;
#237=VERTEX_POINT('',#236) ;
#244=VERTEX_POINT('',#243) ;
#251=VERTEX_POINT('',#250) ;
#269=VERTEX_POINT('',#268) ;
#271=VERTEX_POINT('',#270) ;
#278=VERTEX_POINT('',#277) ;
#285=VERTEX_POINT('',#284) ;
#303=VERTEX_POINT('',#302) ;
#305=VERTEX_POINT('',#304) ;
#312=VERTEX_POINT('',#311) ;
#319=VERTEX_POINT('',#318) ;
#349=VERTEX_POINT('',#348) ;
#351=VERTEX_POINT('',#350) ;
#358=VERTEX_POINT('',#357) ;
#365=VERTEX_POINT('',#364) ;
#372=VERTEX_POINT('',#371) ;
#379=VERTEX_POINT('',#378) ;
#399=VERTEX_POINT('',#398) ;
#401=VERTEX_POINT('',#400) ;
#408=VERTEX_POINT('',#407) ;
#415=VERTEX_POINT('',#414) ;
#433=VERTEX_POINT('',#432) ;
#435=VERTEX_POINT('',#434) ;
#442=VERTEX_POINT('',#441) ;
#449=VERTEX_POINT('',#448) ;
#467=VERTEX_POINT('',#466) ;
#469=VERTEX_POINT('',#468) ;
#476=VERTEX_POINT('',#475) ;
#483=VERTEX_POINT('',#482) ;
#41=(LENGTH_UNIT()NAMED_UNIT(*)SI_UNIT(.MILLI.,.METRE.)) ;
#42=(NAMED_UNIT(*)PLANE_ANGLE_UNIT()SI_UNIT($,.RADIAN.)) ;
#43=(NAMED_UNIT(*)SI_UNIT($,.STERADIAN.)SOLID_ANGLE_UNIT()) ;
#45=(GEOMETRIC_REPRESENTATION_CONTEXT(3)GLOBAL_UNCERTAINTY_ASSIGNED_CONTEXT((#44))GLOBAL_UNIT_ASSIGNED_CONTEXT((#41,#42,#43))REPRESENTATION_CONTEXT(' ',' ')) ;
ENDSEC;
END-ISO-10303-21;
