ISO-10303-21;
HEADER;
FILE_DESCRIPTION(('CATIA V5 STEP Exchange','CAx-IF Rec.Pracs.--- Composite Materials ---3.4---2017-06-13'),'2;1');

FILE_NAME('C:\\Users\\PH\\Desktop\\\X2\5DE5521B72696D418D446599\X0\\\1\X2\7ED367846A21578B53CA\X0\PCB\\\X2\7ED367846A21578B\X0\\\\X2\6253537090E84EF6\X0\\\lianjie2.stp','2026-05-13T13:36:14+00:00',('none'),('none'),'CATIA Version 5-6 Release 2021 SP7','CATIA V5 STEP AP203 v2','none');

FILE_SCHEMA(('CONFIG_CONTROL_DESIGN'));

ENDSEC;
DATA;
#5=PRODUCT('\X2\5E95677F8FDE63A54EF6\X0\2','\X2\5E95677F8FDE63A54EF6\X0\2','',(#2)) ;
#1=APPLICATION_CONTEXT('configuration controlled 3D design of mechanical parts and assemblies') ;
#14=PRODUCT_DEFINITION('\X2\93C8\X0\',' ',#6,#3) ;
#16=SECURITY_CLASSIFICATION(' ',' ',#15) ;
#15=SECURITY_CLASSIFICATION_LEVEL('unclassified') ;
#46=CARTESIAN_POINT(' ',(0.,0.,0.)) ;
#51=CARTESIAN_POINT('Axis2P3D Location',(-14.0321797661,3.,16.5)) ;
#56=CARTESIAN_POINT('Line Origine',(-15.0321797661,0.,16.5)) ;
#60=CARTESIAN_POINT('Vertex',(-14.0321797661,0.,16.5)) ;
#62=CARTESIAN_POINT('Vertex',(-16.0321797661,0.,16.5)) ;
#65=CARTESIAN_POINT('Line Origine',(-16.0321797661,1.5,16.5)) ;
#69=CARTESIAN_POINT('Vertex',(-16.0321797661,3.,16.5)) ;
#72=CARTESIAN_POINT('Line Origine',(-15.0321797661,3.,16.5)) ;
#76=CARTESIAN_POINT('Vertex',(-14.0321797661,3.,16.5)) ;
#79=CARTESIAN_POINT('Line Origine',(-14.0321797661,1.5,16.5)) ;
#91=CARTESIAN_POINT('Axis2P3D Location',(-14.0321797661,-7.,15.)) ;
#96=CARTESIAN_POINT('Axis2P3D Location',(-14.0321797661,0.,15.)) ;
#100=CARTESIAN_POINT('Vertex',(-14.0321797661,0.,13.5)) ;
#103=CARTESIAN_POINT('Axis2P3D Location',(-14.0321797661,3.,15.)) ;
#107=CARTESIAN_POINT('Vertex',(-14.0321797661,3.,13.5)) ;
#110=CARTESIAN_POINT('Line Origine',(-14.0321797661,-7.,13.5)) ;
#122=CARTESIAN_POINT('Axis2P3D Location',(-16.0321797661,-7.,15.)) ;
#127=CARTESIAN_POINT('Axis2P3D Location',(-16.0321797661,0.,15.)) ;
#131=CARTESIAN_POINT('Vertex',(-16.0321797661,0.,13.5)) ;
#134=CARTESIAN_POINT('Line Origine',(-16.0321797661,-7.,13.5)) ;
#138=CARTESIAN_POINT('Vertex',(-16.0321797661,3.,13.5)) ;
#141=CARTESIAN_POINT('Axis2P3D Location',(-16.0321797661,3.,15.)) ;
#153=CARTESIAN_POINT('Axis2P3D Location',(-16.0321797661,3.,13.5)) ;
#158=CARTESIAN_POINT('Line Origine',(-15.0321797661,0.,13.5)) ;
#163=CARTESIAN_POINT('Line Origine',(-15.0321797661,3.,13.5)) ;
#175=CARTESIAN_POINT('Axis2P3D Location',(0.,0.,0.)) ;
#180=CARTESIAN_POINT('Axis2P3D Location',(42.5,0.,-12.5)) ;
#184=CARTESIAN_POINT('Vertex',(47.5,0.,-12.5)) ;
#186=CARTESIAN_POINT('Vertex',(42.5,0.,-17.5)) ;
#189=CARTESIAN_POINT('Line Origine',(47.5,0.,1.7763568394E-15)) ;
#193=CARTESIAN_POINT('Vertex',(47.5,0.,12.5)) ;
#196=CARTESIAN_POINT('Axis2P3D Location',(42.5,0.,12.5)) ;
#200=CARTESIAN_POINT('Vertex',(42.5,0.,17.5)) ;
#203=CARTESIAN_POINT('Line Origine',(0.,0.,17.5)) ;
#207=CARTESIAN_POINT('Vertex',(-42.5,0.,17.5)) ;
#210=CARTESIAN_POINT('Axis2P3D Location',(-42.5,0.,12.5)) ;
#214=CARTESIAN_POINT('Vertex',(-47.5,0.,12.5)) ;
#217=CARTESIAN_POINT('Line Origine',(-47.5,0.,-1.7763568394E-15)) ;
#221=CARTESIAN_POINT('Vertex',(-47.5,0.,-12.5)) ;
#224=CARTESIAN_POINT('Axis2P3D Location',(-42.5,0.,-12.5)) ;
#228=CARTESIAN_POINT('Vertex',(-42.5,0.,-17.5)) ;
#231=CARTESIAN_POINT('Line Origine',(0.,0.,-17.5)) ;
#246=CARTESIAN_POINT('Line Origine',(-30.0321797661,0.,16.5)) ;
#250=CARTESIAN_POINT('Vertex',(-29.0321797661,0.,16.5)) ;
#252=CARTESIAN_POINT('Vertex',(-31.0321797661,0.,16.5)) ;
#255=CARTESIAN_POINT('Axis2P3D Location',(-29.0321797661,0.,15.)) ;
#259=CARTESIAN_POINT('Vertex',(-29.0321797661,0.,13.5)) ;
#262=CARTESIAN_POINT('Line Origine',(-30.0321797661,0.,13.5)) ;
#266=CARTESIAN_POINT('Vertex',(-31.0321797661,0.,13.5)) ;
#269=CARTESIAN_POINT('Axis2P3D Location',(-31.0321797661,0.,15.)) ;
#280=CARTESIAN_POINT('Line Origine',(29.9678202339,0.,16.5)) ;
#284=CARTESIAN_POINT('Vertex',(30.9678202339,0.,16.5)) ;
#286=CARTESIAN_POINT('Vertex',(28.9678202339,0.,16.5)) ;
#289=CARTESIAN_POINT('Axis2P3D Location',(30.9678202339,0.,15.)) ;
#293=CARTESIAN_POINT('Vertex',(30.9678202339,0.,13.5)) ;
#296=CARTESIAN_POINT('Line Origine',(29.9678202339,0.,13.5)) ;
#300=CARTESIAN_POINT('Vertex',(28.9678202339,0.,13.5)) ;
#303=CARTESIAN_POINT('Axis2P3D Location',(28.9678202339,0.,15.)) ;
#314=CARTESIAN_POINT('Line Origine',(14.9678202339,0.,16.5)) ;
#318=CARTESIAN_POINT('Vertex',(15.9678202339,0.,16.5)) ;
#320=CARTESIAN_POINT('Vertex',(13.9678202339,0.,16.5)) ;
#323=CARTESIAN_POINT('Axis2P3D Location',(15.9678202339,0.,15.)) ;
#327=CARTESIAN_POINT('Vertex',(15.9678202339,0.,13.5)) ;
#330=CARTESIAN_POINT('Line Origine',(14.9678202339,0.,13.5)) ;
#334=CARTESIAN_POINT('Vertex',(13.9678202339,0.,13.5)) ;
#337=CARTESIAN_POINT('Axis2P3D Location',(13.9678202339,0.,15.)) ;
#354=CARTESIAN_POINT('Line Origine',(-15.0321797661,0.,1.5)) ;
#358=CARTESIAN_POINT('Vertex',(-14.0321797661,0.,1.5)) ;
#360=CARTESIAN_POINT('Vertex',(-16.0321797661,0.,1.5)) ;
#363=CARTESIAN_POINT('Axis2P3D Location',(-14.0321797661,0.,-1.7763568394E-15)) ;
#367=CARTESIAN_POINT('Vertex',(-14.0321797661,0.,-1.5)) ;
#370=CARTESIAN_POINT('Line Origine',(-15.0321797661,0.,-1.5)) ;
#374=CARTESIAN_POINT('Vertex',(-16.0321797661,0.,-1.5)) ;
#377=CARTESIAN_POINT('Axis2P3D Location',(-16.0321797661,0.,-1.7763568394E-15)) ;
#388=CARTESIAN_POINT('Line Origine',(14.9678202339,0.,1.5)) ;
#392=CARTESIAN_POINT('Vertex',(15.9678202339,0.,1.5)) ;
#394=CARTESIAN_POINT('Vertex',(13.9678202339,0.,1.5)) ;
#397=CARTESIAN_POINT('Axis2P3D Location',(15.9678202339,0.,-1.7763568394E-15)) ;
#401=CARTESIAN_POINT('Vertex',(15.9678202339,0.,-1.5)) ;
#404=CARTESIAN_POINT('Line Origine',(14.9678202339,0.,-1.5)) ;
#408=CARTESIAN_POINT('Vertex',(13.9678202339,0.,-1.5)) ;
#411=CARTESIAN_POINT('Axis2P3D Location',(13.9678202339,0.,-1.7763568394E-15)) ;
#422=CARTESIAN_POINT('Line Origine',(-15.0321797661,0.,-13.5)) ;
#426=CARTESIAN_POINT('Vertex',(-14.0321797661,0.,-13.5)) ;
#428=CARTESIAN_POINT('Vertex',(-16.0321797661,0.,-13.5)) ;
#431=CARTESIAN_POINT('Axis2P3D Location',(-14.0321797661,0.,-15.)) ;
#435=CARTESIAN_POINT('Vertex',(-14.0321797661,0.,-16.5)) ;
#438=CARTESIAN_POINT('Line Origine',(-15.0321797661,0.,-16.5)) ;
#442=CARTESIAN_POINT('Vertex',(-16.0321797661,0.,-16.5)) ;
#445=CARTESIAN_POINT('Axis2P3D Location',(-16.0321797661,0.,-15.)) ;
#456=CARTESIAN_POINT('Line Origine',(14.9678202339,0.,-13.5)) ;
#460=CARTESIAN_POINT('Vertex',(15.9678202339,0.,-13.5)) ;
#462=CARTESIAN_POINT('Vertex',(13.9678202339,0.,-13.5)) ;
#465=CARTESIAN_POINT('Axis2P3D Location',(15.9678202339,0.,-15.)) ;
#469=CARTESIAN_POINT('Vertex',(15.9678202339,0.,-16.5)) ;
#472=CARTESIAN_POINT('Line Origine',(14.9678202339,0.,-16.5)) ;
#476=CARTESIAN_POINT('Vertex',(13.9678202339,0.,-16.5)) ;
#479=CARTESIAN_POINT('Axis2P3D Location',(13.9678202339,0.,-15.)) ;
#490=CARTESIAN_POINT('Line Origine',(29.9678202339,0.,1.5)) ;
#494=CARTESIAN_POINT('Vertex',(30.9678202339,0.,1.5)) ;
#496=CARTESIAN_POINT('Vertex',(28.9678202339,0.,1.5)) ;
#499=CARTESIAN_POINT('Axis2P3D Location',(30.9678202339,0.,-1.7763568394E-15)) ;
#503=CARTESIAN_POINT('Vertex',(30.9678202339,0.,-1.5)) ;
#506=CARTESIAN_POINT('Line Origine',(29.9678202339,0.,-1.5)) ;
#510=CARTESIAN_POINT('Vertex',(28.9678202339,0.,-1.5)) ;
#513=CARTESIAN_POINT('Axis2P3D Location',(28.9678202339,0.,-1.7763568394E-15)) ;
#524=CARTESIAN_POINT('Line Origine',(29.9678202339,0.,-13.5)) ;
#528=CARTESIAN_POINT('Vertex',(30.9678202339,0.,-13.5)) ;
#530=CARTESIAN_POINT('Vertex',(28.9678202339,0.,-13.5)) ;
#533=CARTESIAN_POINT('Axis2P3D Location',(30.9678202339,0.,-15.)) ;
#537=CARTESIAN_POINT('Vertex',(30.9678202339,0.,-16.5)) ;
#540=CARTESIAN_POINT('Line Origine',(29.9678202339,0.,-16.5)) ;
#544=CARTESIAN_POINT('Vertex',(28.9678202339,0.,-16.5)) ;
#547=CARTESIAN_POINT('Axis2P3D Location',(28.9678202339,0.,-15.)) ;
#558=CARTESIAN_POINT('Line Origine',(-30.0321797661,0.,1.5)) ;
#562=CARTESIAN_POINT('Vertex',(-29.0321797661,0.,1.5)) ;
#564=CARTESIAN_POINT('Vertex',(-31.0321797661,0.,1.5)) ;
#567=CARTESIAN_POINT('Axis2P3D Location',(-29.0321797661,0.,-1.7763568394E-15)) ;
#571=CARTESIAN_POINT('Vertex',(-29.0321797661,0.,-1.5)) ;
#574=CARTESIAN_POINT('Line Origine',(-30.0321797661,0.,-1.5)) ;
#578=CARTESIAN_POINT('Vertex',(-31.0321797661,0.,-1.5)) ;
#581=CARTESIAN_POINT('Axis2P3D Location',(-31.0321797661,0.,-1.7763568394E-15)) ;
#592=CARTESIAN_POINT('Line Origine',(-30.0321797661,0.,-13.5)) ;
#596=CARTESIAN_POINT('Vertex',(-29.0321797661,0.,-13.5)) ;
#598=CARTESIAN_POINT('Vertex',(-31.0321797661,0.,-13.5)) ;
#601=CARTESIAN_POINT('Axis2P3D Location',(-29.0321797661,0.,-15.)) ;
#605=CARTESIAN_POINT('Vertex',(-29.0321797661,0.,-16.5)) ;
#608=CARTESIAN_POINT('Line Origine',(-30.0321797661,0.,-16.5)) ;
#612=CARTESIAN_POINT('Vertex',(-31.0321797661,0.,-16.5)) ;
#615=CARTESIAN_POINT('Axis2P3D Location',(-31.0321797661,0.,-15.)) ;
#627=CARTESIAN_POINT('Axis2P3D Location',(0.,3.,0.)) ;
#632=CARTESIAN_POINT('Line Origine',(0.,3.,-17.5)) ;
#636=CARTESIAN_POINT('Vertex',(42.5,3.,-17.5)) ;
#638=CARTESIAN_POINT('Vertex',(-42.5,3.,-17.5)) ;
#641=CARTESIAN_POINT('Axis2P3D Location',(-42.5,3.,-12.5)) ;
#645=CARTESIAN_POINT('Vertex',(-47.5,3.,-12.5)) ;
#648=CARTESIAN_POINT('Line Origine',(-47.5,3.,-1.7763568394E-15)) ;
#652=CARTESIAN_POINT('Vertex',(-47.5,3.,12.5)) ;
#655=CARTESIAN_POINT('Axis2P3D Location',(-42.5,3.,12.5)) ;
#659=CARTESIAN_POINT('Vertex',(-42.5,3.,17.5)) ;
#662=CARTESIAN_POINT('Line Origine',(0.,3.,17.5)) ;
#666=CARTESIAN_POINT('Vertex',(42.5,3.,17.5)) ;
#669=CARTESIAN_POINT('Axis2P3D Location',(42.5,3.,12.5)) ;
#673=CARTESIAN_POINT('Vertex',(47.5,3.,12.5)) ;
#676=CARTESIAN_POINT('Line Origine',(47.5,3.,1.7763568394E-15)) ;
#680=CARTESIAN_POINT('Vertex',(47.5,3.,-12.5)) ;
#683=CARTESIAN_POINT('Axis2P3D Location',(42.5,3.,-12.5)) ;
#698=CARTESIAN_POINT('Axis2P3D Location',(-31.0321797661,3.,15.)) ;
#702=CARTESIAN_POINT('Vertex',(-31.0321797661,3.,13.5)) ;
#704=CARTESIAN_POINT('Vertex',(-31.0321797661,3.,16.5)) ;
#707=CARTESIAN_POINT('Line Origine',(-30.0321797661,3.,13.5)) ;
#711=CARTESIAN_POINT('Vertex',(-29.0321797661,3.,13.5)) ;
#714=CARTESIAN_POINT('Axis2P3D Location',(-29.0321797661,3.,15.)) ;
#718=CARTESIAN_POINT('Vertex',(-29.0321797661,3.,16.5)) ;
#721=CARTESIAN_POINT('Line Origine',(-30.0321797661,3.,16.5)) ;
#732=CARTESIAN_POINT('Axis2P3D Location',(28.9678202339,3.,15.)) ;
#736=CARTESIAN_POINT('Vertex',(28.9678202339,3.,13.5)) ;
#738=CARTESIAN_POINT('Vertex',(28.9678202339,3.,16.5)) ;
#741=CARTESIAN_POINT('Line Origine',(29.9678202339,3.,13.5)) ;
#745=CARTESIAN_POINT('Vertex',(30.9678202339,3.,13.5)) ;
#748=CARTESIAN_POINT('Axis2P3D Location',(30.9678202339,3.,15.)) ;
#752=CARTESIAN_POINT('Vertex',(30.9678202339,3.,16.5)) ;
#755=CARTESIAN_POINT('Line Origine',(29.9678202339,3.,16.5)) ;
#766=CARTESIAN_POINT('Axis2P3D Location',(13.9678202339,3.,15.)) ;
#770=CARTESIAN_POINT('Vertex',(13.9678202339,3.,13.5)) ;
#772=CARTESIAN_POINT('Vertex',(13.9678202339,3.,16.5)) ;
#775=CARTESIAN_POINT('Line Origine',(14.9678202339,3.,13.5)) ;
#779=CARTESIAN_POINT('Vertex',(15.9678202339,3.,13.5)) ;
#782=CARTESIAN_POINT('Axis2P3D Location',(15.9678202339,3.,15.)) ;
#786=CARTESIAN_POINT('Vertex',(15.9678202339,3.,16.5)) ;
#789=CARTESIAN_POINT('Line Origine',(14.9678202339,3.,16.5)) ;
#806=CARTESIAN_POINT('Axis2P3D Location',(-16.0321797661,3.,-1.7763568394E-15)) ;
#810=CARTESIAN_POINT('Vertex',(-16.0321797661,3.,-1.5)) ;
#812=CARTESIAN_POINT('Vertex',(-16.0321797661,3.,1.5)) ;
#815=CARTESIAN_POINT('Line Origine',(-15.0321797661,3.,-1.5)) ;
#819=CARTESIAN_POINT('Vertex',(-14.0321797661,3.,-1.5)) ;
#822=CARTESIAN_POINT('Axis2P3D Location',(-14.0321797661,3.,-1.7763568394E-15)) ;
#826=CARTESIAN_POINT('Vertex',(-14.0321797661,3.,1.5)) ;
#829=CARTESIAN_POINT('Line Origine',(-15.0321797661,3.,1.5)) ;
#840=CARTESIAN_POINT('Axis2P3D Location',(13.9678202339,3.,-1.7763568394E-15)) ;
#844=CARTESIAN_POINT('Vertex',(13.9678202339,3.,-1.5)) ;
#846=CARTESIAN_POINT('Vertex',(13.9678202339,3.,1.5)) ;
#849=CARTESIAN_POINT('Line Origine',(14.9678202339,3.,-1.5)) ;
#853=CARTESIAN_POINT('Vertex',(15.9678202339,3.,-1.5)) ;
#856=CARTESIAN_POINT('Axis2P3D Location',(15.9678202339,3.,-1.7763568394E-15)) ;
#860=CARTESIAN_POINT('Vertex',(15.9678202339,3.,1.5)) ;
#863=CARTESIAN_POINT('Line Origine',(14.9678202339,3.,1.5)) ;
#874=CARTESIAN_POINT('Axis2P3D Location',(-16.0321797661,3.,-15.)) ;
#878=CARTESIAN_POINT('Vertex',(-16.0321797661,3.,-16.5)) ;
#880=CARTESIAN_POINT('Vertex',(-16.0321797661,3.,-13.5)) ;
#883=CARTESIAN_POINT('Line Origine',(-15.0321797661,3.,-16.5)) ;
#887=CARTESIAN_POINT('Vertex',(-14.0321797661,3.,-16.5)) ;
#890=CARTESIAN_POINT('Axis2P3D Location',(-14.0321797661,3.,-15.)) ;
#894=CARTESIAN_POINT('Vertex',(-14.0321797661,3.,-13.5)) ;
#897=CARTESIAN_POINT('Line Origine',(-15.0321797661,3.,-13.5)) ;
#908=CARTESIAN_POINT('Axis2P3D Location',(13.9678202339,3.,-15.)) ;
#912=CARTESIAN_POINT('Vertex',(13.9678202339,3.,-16.5)) ;
#914=CARTESIAN_POINT('Vertex',(13.9678202339,3.,-13.5)) ;
#917=CARTESIAN_POINT('Line Origine',(14.9678202339,3.,-16.5)) ;
#921=CARTESIAN_POINT('Vertex',(15.9678202339,3.,-16.5)) ;
#924=CARTESIAN_POINT('Axis2P3D Location',(15.9678202339,3.,-15.)) ;
#928=CARTESIAN_POINT('Vertex',(15.9678202339,3.,-13.5)) ;
#931=CARTESIAN_POINT('Line Origine',(14.9678202339,3.,-13.5)) ;
#942=CARTESIAN_POINT('Axis2P3D Location',(28.9678202339,3.,-1.7763568394E-15)) ;
#946=CARTESIAN_POINT('Vertex',(28.9678202339,3.,-1.5)) ;
#948=CARTESIAN_POINT('Vertex',(28.9678202339,3.,1.5)) ;
#951=CARTESIAN_POINT('Line Origine',(29.9678202339,3.,-1.5)) ;
#955=CARTESIAN_POINT('Vertex',(30.9678202339,3.,-1.5)) ;
#958=CARTESIAN_POINT('Axis2P3D Location',(30.9678202339,3.,-1.7763568394E-15)) ;
#962=CARTESIAN_POINT('Vertex',(30.9678202339,3.,1.5)) ;
#965=CARTESIAN_POINT('Line Origine',(29.9678202339,3.,1.5)) ;
#976=CARTESIAN_POINT('Axis2P3D Location',(28.9678202339,3.,-15.)) ;
#980=CARTESIAN_POINT('Vertex',(28.9678202339,3.,-16.5)) ;
#982=CARTESIAN_POINT('Vertex',(28.9678202339,3.,-13.5)) ;
#985=CARTESIAN_POINT('Line Origine',(29.9678202339,3.,-16.5)) ;
#989=CARTESIAN_POINT('Vertex',(30.9678202339,3.,-16.5)) ;
#992=CARTESIAN_POINT('Axis2P3D Location',(30.9678202339,3.,-15.)) ;
#996=CARTESIAN_POINT('Vertex',(30.9678202339,3.,-13.5)) ;
#999=CARTESIAN_POINT('Line Origine',(29.9678202339,3.,-13.5)) ;
#1010=CARTESIAN_POINT('Axis2P3D Location',(-31.0321797661,3.,-1.7763568394E-15)) ;
#1014=CARTESIAN_POINT('Vertex',(-31.0321797661,3.,-1.5)) ;
#1016=CARTESIAN_POINT('Vertex',(-31.0321797661,3.,1.5)) ;
#1019=CARTESIAN_POINT('Line Origine',(-30.0321797661,3.,-1.5)) ;
#1023=CARTESIAN_POINT('Vertex',(-29.0321797661,3.,-1.5)) ;
#1026=CARTESIAN_POINT('Axis2P3D Location',(-29.0321797661,3.,-1.7763568394E-15)) ;
#1030=CARTESIAN_POINT('Vertex',(-29.0321797661,3.,1.5)) ;
#1033=CARTESIAN_POINT('Line Origine',(-30.0321797661,3.,1.5)) ;
#1044=CARTESIAN_POINT('Axis2P3D Location',(-31.0321797661,3.,-15.)) ;
#1048=CARTESIAN_POINT('Vertex',(-31.0321797661,3.,-16.5)) ;
#1050=CARTESIAN_POINT('Vertex',(-31.0321797661,3.,-13.5)) ;
#1053=CARTESIAN_POINT('Line Origine',(-30.0321797661,3.,-16.5)) ;
#1057=CARTESIAN_POINT('Vertex',(-29.0321797661,3.,-16.5)) ;
#1060=CARTESIAN_POINT('Axis2P3D Location',(-29.0321797661,3.,-15.)) ;
#1064=CARTESIAN_POINT('Vertex',(-29.0321797661,3.,-13.5)) ;
#1067=CARTESIAN_POINT('Line Origine',(-30.0321797661,3.,-13.5)) ;
#1079=CARTESIAN_POINT('Axis2P3D Location',(-32.5,3.,-17.5)) ;
#1084=CARTESIAN_POINT('Line Origine',(42.5,1.5,-17.5)) ;
#1089=CARTESIAN_POINT('Line Origine',(-42.5,1.5,-17.5)) ;
#1101=CARTESIAN_POINT('Axis2P3D Location',(42.5,1.5,-12.5)) ;
#1106=CARTESIAN_POINT('Line Origine',(47.5,1.5,-12.5)) ;
#1118=CARTESIAN_POINT('Axis2P3D Location',(-42.5,1.5,-12.5)) ;
#1123=CARTESIAN_POINT('Line Origine',(-47.5,1.5,-12.5)) ;
#1135=CARTESIAN_POINT('Axis2P3D Location',(-32.5,3.,17.5)) ;
#1140=CARTESIAN_POINT('Line Origine',(42.5,1.5,17.5)) ;
#1145=CARTESIAN_POINT('Line Origine',(-42.5,1.5,17.5)) ;
#1157=CARTESIAN_POINT('Axis2P3D Location',(42.5,1.5,12.5)) ;
#1162=CARTESIAN_POINT('Line Origine',(47.5,1.5,12.5)) ;
#1174=CARTESIAN_POINT('Axis2P3D Location',(-42.5,1.5,12.5)) ;
#1179=CARTESIAN_POINT('Line Origine',(-47.5,1.5,12.5)) ;
#1191=CARTESIAN_POINT('Axis2P3D Location',(47.5,3.,-17.5)) ;
#1203=CARTESIAN_POINT('Axis2P3D Location',(-47.5,3.,17.5)) ;
#1215=CARTESIAN_POINT('Axis2P3D Location',(15.9678202339,-7.,15.)) ;
#1220=CARTESIAN_POINT('Line Origine',(15.9678202339,-7.,16.5)) ;
#1225=CARTESIAN_POINT('Line Origine',(15.9678202339,-7.,13.5)) ;
#1237=CARTESIAN_POINT('Line Origine',(13.9678202339,1.5,13.5)) ;
#1249=CARTESIAN_POINT('Line Origine',(13.9678202339,1.5,16.5)) ;
#1261=CARTESIAN_POINT('Axis2P3D Location',(13.9678202339,-7.,15.)) ;
#1273=CARTESIAN_POINT('Axis2P3D Location',(-14.0321797661,-7.,-1.7763568394E-15)) ;
#1278=CARTESIAN_POINT('Line Origine',(-14.0321797661,-7.,1.5)) ;
#1283=CARTESIAN_POINT('Line Origine',(-14.0321797661,-7.,-1.5)) ;
#1295=CARTESIAN_POINT('Axis2P3D Location',(-46.0321797661,3.,-1.5)) ;
#1300=CARTESIAN_POINT('Line Origine',(-16.0321797661,1.5,-1.5)) ;
#1312=CARTESIAN_POINT('Axis2P3D Location',(-44.0321797661,3.,1.5)) ;
#1317=CARTESIAN_POINT('Line Origine',(-16.0321797661,1.5,1.5)) ;
#1329=CARTESIAN_POINT('Axis2P3D Location',(-16.0321797661,-7.,-1.7763568394E-15)) ;
#1341=CARTESIAN_POINT('Axis2P3D Location',(15.9678202339,-7.,-1.7763568394E-15)) ;
#1346=CARTESIAN_POINT('Line Origine',(15.9678202339,-7.,1.5)) ;
#1351=CARTESIAN_POINT('Line Origine',(15.9678202339,-7.,-1.5)) ;
#1363=CARTESIAN_POINT('Axis2P3D Location',(-16.0321797661,3.,-1.5)) ;
#1368=CARTESIAN_POINT('Line Origine',(13.9678202339,1.5,-1.5)) ;
#1380=CARTESIAN_POINT('Axis2P3D Location',(-14.0321797661,3.,1.5)) ;
#1385=CARTESIAN_POINT('Line Origine',(13.9678202339,1.5,1.5)) ;
#1397=CARTESIAN_POINT('Axis2P3D Location',(13.9678202339,-7.,-1.7763568394E-15)) ;
#1409=CARTESIAN_POINT('Axis2P3D Location',(-14.0321797661,-7.,-15.)) ;
#1414=CARTESIAN_POINT('Line Origine',(-14.0321797661,-7.,-13.5)) ;
#1419=CARTESIAN_POINT('Line Origine',(-14.0321797661,-7.,-16.5)) ;
#1431=CARTESIAN_POINT('Axis2P3D Location',(-46.0321797661,3.,-16.5)) ;
#1436=CARTESIAN_POINT('Line Origine',(-16.0321797661,1.5,-16.5)) ;
#1448=CARTESIAN_POINT('Axis2P3D Location',(-44.0321797661,3.,-13.5)) ;
#1453=CARTESIAN_POINT('Line Origine',(-16.0321797661,1.5,-13.5)) ;
#1465=CARTESIAN_POINT('Axis2P3D Location',(-16.0321797661,-7.,-15.)) ;
#1477=CARTESIAN_POINT('Axis2P3D Location',(15.9678202339,-7.,-15.)) ;
#1482=CARTESIAN_POINT('Line Origine',(15.9678202339,-7.,-13.5)) ;
#1487=CARTESIAN_POINT('Line Origine',(15.9678202339,-7.,-16.5)) ;
#1499=CARTESIAN_POINT('Axis2P3D Location',(-16.0321797661,3.,-16.5)) ;
#1504=CARTESIAN_POINT('Line Origine',(13.9678202339,1.5,-16.5)) ;
#1516=CARTESIAN_POINT('Axis2P3D Location',(-14.0321797661,3.,-13.5)) ;
#1521=CARTESIAN_POINT('Line Origine',(13.9678202339,1.5,-13.5)) ;
#1533=CARTESIAN_POINT('Axis2P3D Location',(13.9678202339,-7.,-15.)) ;
#1545=CARTESIAN_POINT('Axis2P3D Location',(30.9678202339,-7.,15.)) ;
#1550=CARTESIAN_POINT('Line Origine',(30.9678202339,-7.,16.5)) ;
#1555=CARTESIAN_POINT('Line Origine',(30.9678202339,-7.,13.5)) ;
#1567=CARTESIAN_POINT('Line Origine',(28.9678202339,1.5,13.5)) ;
#1579=CARTESIAN_POINT('Line Origine',(28.9678202339,1.5,16.5)) ;
#1591=CARTESIAN_POINT('Axis2P3D Location',(28.9678202339,-7.,15.)) ;
#1603=CARTESIAN_POINT('Axis2P3D Location',(30.9678202339,-7.,-1.7763568394E-15)) ;
#1608=CARTESIAN_POINT('Line Origine',(30.9678202339,-7.,1.5)) ;
#1613=CARTESIAN_POINT('Line Origine',(30.9678202339,-7.,-1.5)) ;
#1625=CARTESIAN_POINT('Axis2P3D Location',(-16.0321797661,3.,-1.5)) ;
#1630=CARTESIAN_POINT('Line Origine',(28.9678202339,1.5,-1.5)) ;
#1642=CARTESIAN_POINT('Axis2P3D Location',(-14.0321797661,3.,1.5)) ;
#1647=CARTESIAN_POINT('Line Origine',(28.9678202339,1.5,1.5)) ;
#1659=CARTESIAN_POINT('Axis2P3D Location',(28.9678202339,-7.,-1.7763568394E-15)) ;
#1671=CARTESIAN_POINT('Axis2P3D Location',(30.9678202339,-7.,-15.)) ;
#1676=CARTESIAN_POINT('Line Origine',(30.9678202339,-7.,-13.5)) ;
#1681=CARTESIAN_POINT('Line Origine',(30.9678202339,-7.,-16.5)) ;
#1693=CARTESIAN_POINT('Axis2P3D Location',(-16.0321797661,3.,-16.5)) ;
#1698=CARTESIAN_POINT('Line Origine',(28.9678202339,1.5,-16.5)) ;
#1710=CARTESIAN_POINT('Axis2P3D Location',(-14.0321797661,3.,-13.5)) ;
#1715=CARTESIAN_POINT('Line Origine',(28.9678202339,1.5,-13.5)) ;
#1727=CARTESIAN_POINT('Axis2P3D Location',(28.9678202339,-7.,-15.)) ;
#1739=CARTESIAN_POINT('Axis2P3D Location',(-29.0321797661,-7.,15.)) ;
#1744=CARTESIAN_POINT('Line Origine',(-29.0321797661,-7.,16.5)) ;
#1749=CARTESIAN_POINT('Line Origine',(-29.0321797661,-7.,13.5)) ;
#1761=CARTESIAN_POINT('Line Origine',(-31.0321797661,1.5,13.5)) ;
#1773=CARTESIAN_POINT('Line Origine',(-31.0321797661,1.5,16.5)) ;
#1785=CARTESIAN_POINT('Axis2P3D Location',(-31.0321797661,-7.,15.)) ;
#1797=CARTESIAN_POINT('Axis2P3D Location',(-29.0321797661,-7.,-1.7763568394E-15)) ;
#1802=CARTESIAN_POINT('Line Origine',(-29.0321797661,-7.,1.5)) ;
#1807=CARTESIAN_POINT('Line Origine',(-29.0321797661,-7.,-1.5)) ;
#1819=CARTESIAN_POINT('Axis2P3D Location',(-16.0321797661,3.,-1.5)) ;
#1824=CARTESIAN_POINT('Line Origine',(-31.0321797661,1.5,-1.5)) ;
#1836=CARTESIAN_POINT('Axis2P3D Location',(-14.0321797661,3.,1.5)) ;
#1841=CARTESIAN_POINT('Line Origine',(-31.0321797661,1.5,1.5)) ;
#1853=CARTESIAN_POINT('Axis2P3D Location',(-31.0321797661,-7.,-1.7763568394E-15)) ;
#1865=CARTESIAN_POINT('Axis2P3D Location',(-29.0321797661,-7.,-15.)) ;
#1870=CARTESIAN_POINT('Line Origine',(-29.0321797661,-7.,-13.5)) ;
#1875=CARTESIAN_POINT('Line Origine',(-29.0321797661,-7.,-16.5)) ;
#1887=CARTESIAN_POINT('Axis2P3D Location',(-16.0321797661,3.,-16.5)) ;
#1892=CARTESIAN_POINT('Line Origine',(-31.0321797661,1.5,-16.5)) ;
#1904=CARTESIAN_POINT('Axis2P3D Location',(-14.0321797661,3.,-13.5)) ;
#1909=CARTESIAN_POINT('Line Origine',(-31.0321797661,1.5,-13.5)) ;
#1921=CARTESIAN_POINT('Axis2P3D Location',(-31.0321797661,-7.,-15.)) ;
#52=DIRECTION('Axis2P3D Direction',(0.,0.,1.)) ;
#53=DIRECTION('Axis2P3D XDirection',(-1.,0.,0.)) ;
#57=DIRECTION('Vector Direction',(-1.,0.,0.)) ;
#66=DIRECTION('Vector Direction',(0.,-1.,0.)) ;
#73=DIRECTION('Vector Direction',(-1.,0.,0.)) ;
#80=DIRECTION('Vector Direction',(0.,-1.,0.)) ;
#92=DIRECTION('Axis2P3D Direction',(0.,1.,0.)) ;
#93=DIRECTION('Axis2P3D XDirection',(-6.12323399574E-17,0.,1.)) ;
#97=DIRECTION('Axis2P3D Direction',(0.,1.,0.)) ;
#104=DIRECTION('Axis2P3D Direction',(0.,1.,0.)) ;
#111=DIRECTION('Vector Direction',(0.,1.,0.)) ;
#123=DIRECTION('Axis2P3D Direction',(0.,1.,0.)) ;
#124=DIRECTION('Axis2P3D XDirection',(1.83697019872E-16,0.,-1.)) ;
#128=DIRECTION('Axis2P3D Direction',(0.,1.,0.)) ;
#135=DIRECTION('Vector Direction',(0.,1.,0.)) ;
#142=DIRECTION('Axis2P3D Direction',(0.,1.,0.)) ;
#154=DIRECTION('Axis2P3D Direction',(0.,0.,-1.)) ;
#155=DIRECTION('Axis2P3D XDirection',(1.,-0.,0.)) ;
#159=DIRECTION('Vector Direction',(1.,0.,0.)) ;
#164=DIRECTION('Vector Direction',(1.,0.,0.)) ;
#176=DIRECTION('Axis2P3D Direction',(0.,1.,0.)) ;
#177=DIRECTION('Axis2P3D XDirection',(0.,-0.,1.)) ;
#181=DIRECTION('Axis2P3D Direction',(0.,1.,0.)) ;
#190=DIRECTION('Vector Direction',(0.,0.,1.)) ;
#197=DIRECTION('Axis2P3D Direction',(0.,1.,0.)) ;
#204=DIRECTION('Vector Direction',(-1.,0.,0.)) ;
#211=DIRECTION('Axis2P3D Direction',(0.,1.,0.)) ;
#218=DIRECTION('Vector Direction',(0.,0.,-1.)) ;
#225=DIRECTION('Axis2P3D Direction',(0.,1.,0.)) ;
#232=DIRECTION('Vector Direction',(1.,0.,0.)) ;
#247=DIRECTION('Vector Direction',(-1.,0.,0.)) ;
#256=DIRECTION('Axis2P3D Direction',(0.,1.,0.)) ;
#263=DIRECTION('Vector Direction',(1.,0.,0.)) ;
#270=DIRECTION('Axis2P3D Direction',(0.,1.,0.)) ;
#281=DIRECTION('Vector Direction',(-1.,0.,0.)) ;
#290=DIRECTION('Axis2P3D Direction',(0.,1.,0.)) ;
#297=DIRECTION('Vector Direction',(1.,0.,0.)) ;
#304=DIRECTION('Axis2P3D Direction',(0.,1.,0.)) ;
#315=DIRECTION('Vector Direction',(-1.,0.,0.)) ;
#324=DIRECTION('Axis2P3D Direction',(0.,1.,0.)) ;
#331=DIRECTION('Vector Direction',(1.,0.,0.)) ;
#338=DIRECTION('Axis2P3D Direction',(0.,1.,0.)) ;
#355=DIRECTION('Vector Direction',(-1.,0.,0.)) ;
#364=DIRECTION('Axis2P3D Direction',(0.,1.,0.)) ;
#371=DIRECTION('Vector Direction',(1.,0.,0.)) ;
#378=DIRECTION('Axis2P3D Direction',(0.,1.,0.)) ;
#389=DIRECTION('Vector Direction',(-1.,0.,0.)) ;
#398=DIRECTION('Axis2P3D Direction',(0.,1.,0.)) ;
#405=DIRECTION('Vector Direction',(1.,0.,0.)) ;
#412=DIRECTION('Axis2P3D Direction',(0.,1.,0.)) ;
#423=DIRECTION('Vector Direction',(-1.,0.,0.)) ;
#432=DIRECTION('Axis2P3D Direction',(0.,1.,0.)) ;
#439=DIRECTION('Vector Direction',(1.,0.,0.)) ;
#446=DIRECTION('Axis2P3D Direction',(0.,1.,0.)) ;
#457=DIRECTION('Vector Direction',(-1.,0.,0.)) ;
#466=DIRECTION('Axis2P3D Direction',(0.,1.,0.)) ;
#473=DIRECTION('Vector Direction',(1.,0.,0.)) ;
#480=DIRECTION('Axis2P3D Direction',(0.,1.,0.)) ;
#491=DIRECTION('Vector Direction',(-1.,0.,0.)) ;
#500=DIRECTION('Axis2P3D Direction',(0.,1.,0.)) ;
#507=DIRECTION('Vector Direction',(1.,0.,0.)) ;
#514=DIRECTION('Axis2P3D Direction',(0.,1.,0.)) ;
#525=DIRECTION('Vector Direction',(-1.,0.,0.)) ;
#534=DIRECTION('Axis2P3D Direction',(0.,1.,0.)) ;
#541=DIRECTION('Vector Direction',(1.,0.,0.)) ;
#548=DIRECTION('Axis2P3D Direction',(0.,1.,0.)) ;
#559=DIRECTION('Vector Direction',(-1.,0.,0.)) ;
#568=DIRECTION('Axis2P3D Direction',(0.,1.,0.)) ;
#575=DIRECTION('Vector Direction',(1.,0.,0.)) ;
#582=DIRECTION('Axis2P3D Direction',(0.,1.,0.)) ;
#593=DIRECTION('Vector Direction',(-1.,0.,0.)) ;
#602=DIRECTION('Axis2P3D Direction',(0.,1.,0.)) ;
#609=DIRECTION('Vector Direction',(1.,0.,0.)) ;
#616=DIRECTION('Axis2P3D Direction',(0.,1.,0.)) ;
#628=DIRECTION('Axis2P3D Direction',(0.,1.,0.)) ;
#629=DIRECTION('Axis2P3D XDirection',(0.,-0.,1.)) ;
#633=DIRECTION('Vector Direction',(1.,0.,0.)) ;
#642=DIRECTION('Axis2P3D Direction',(0.,1.,0.)) ;
#649=DIRECTION('Vector Direction',(0.,0.,-1.)) ;
#656=DIRECTION('Axis2P3D Direction',(0.,1.,0.)) ;
#663=DIRECTION('Vector Direction',(-1.,0.,0.)) ;
#670=DIRECTION('Axis2P3D Direction',(0.,1.,0.)) ;
#677=DIRECTION('Vector Direction',(0.,0.,1.)) ;
#684=DIRECTION('Axis2P3D Direction',(0.,1.,0.)) ;
#699=DIRECTION('Axis2P3D Direction',(0.,1.,0.)) ;
#708=DIRECTION('Vector Direction',(1.,0.,0.)) ;
#715=DIRECTION('Axis2P3D Direction',(0.,1.,0.)) ;
#722=DIRECTION('Vector Direction',(-1.,0.,0.)) ;
#733=DIRECTION('Axis2P3D Direction',(0.,1.,0.)) ;
#742=DIRECTION('Vector Direction',(1.,0.,0.)) ;
#749=DIRECTION('Axis2P3D Direction',(0.,1.,0.)) ;
#756=DIRECTION('Vector Direction',(-1.,0.,0.)) ;
#767=DIRECTION('Axis2P3D Direction',(0.,1.,0.)) ;
#776=DIRECTION('Vector Direction',(1.,0.,0.)) ;
#783=DIRECTION('Axis2P3D Direction',(0.,1.,0.)) ;
#790=DIRECTION('Vector Direction',(-1.,0.,0.)) ;
#807=DIRECTION('Axis2P3D Direction',(0.,1.,0.)) ;
#816=DIRECTION('Vector Direction',(1.,0.,0.)) ;
#823=DIRECTION('Axis2P3D Direction',(0.,1.,0.)) ;
#830=DIRECTION('Vector Direction',(-1.,0.,0.)) ;
#841=DIRECTION('Axis2P3D Direction',(0.,1.,0.)) ;
#850=DIRECTION('Vector Direction',(1.,0.,0.)) ;
#857=DIRECTION('Axis2P3D Direction',(0.,1.,0.)) ;
#864=DIRECTION('Vector Direction',(-1.,0.,0.)) ;
#875=DIRECTION('Axis2P3D Direction',(0.,1.,0.)) ;
#884=DIRECTION('Vector Direction',(1.,0.,0.)) ;
#891=DIRECTION('Axis2P3D Direction',(0.,1.,0.)) ;
#898=DIRECTION('Vector Direction',(-1.,0.,0.)) ;
#909=DIRECTION('Axis2P3D Direction',(0.,1.,0.)) ;
#918=DIRECTION('Vector Direction',(1.,0.,0.)) ;
#925=DIRECTION('Axis2P3D Direction',(0.,1.,0.)) ;
#932=DIRECTION('Vector Direction',(-1.,0.,0.)) ;
#943=DIRECTION('Axis2P3D Direction',(0.,1.,0.)) ;
#952=DIRECTION('Vector Direction',(1.,0.,0.)) ;
#959=DIRECTION('Axis2P3D Direction',(0.,1.,0.)) ;
#966=DIRECTION('Vector Direction',(-1.,0.,0.)) ;
#977=DIRECTION('Axis2P3D Direction',(0.,1.,0.)) ;
#986=DIRECTION('Vector Direction',(1.,0.,0.)) ;
#993=DIRECTION('Axis2P3D Direction',(0.,1.,0.)) ;
#1000=DIRECTION('Vector Direction',(-1.,0.,0.)) ;
#1011=DIRECTION('Axis2P3D Direction',(0.,1.,0.)) ;
#1020=DIRECTION('Vector Direction',(1.,0.,0.)) ;
#1027=DIRECTION('Axis2P3D Direction',(0.,1.,0.)) ;
#1034=DIRECTION('Vector Direction',(-1.,0.,0.)) ;
#1045=DIRECTION('Axis2P3D Direction',(0.,1.,0.)) ;
#1054=DIRECTION('Vector Direction',(1.,0.,0.)) ;
#1061=DIRECTION('Axis2P3D Direction',(0.,1.,0.)) ;
#1068=DIRECTION('Vector Direction',(-1.,0.,0.)) ;
#1080=DIRECTION('Axis2P3D Direction',(0.,0.,1.)) ;
#1081=DIRECTION('Axis2P3D XDirection',(1.,0.,-0.)) ;
#1085=DIRECTION('Vector Direction',(0.,-1.,0.)) ;
#1090=DIRECTION('Vector Direction',(0.,-1.,0.)) ;
#1102=DIRECTION('Axis2P3D Direction',(0.,-1.,0.)) ;
#1103=DIRECTION('Axis2P3D XDirection',(-1.83697019872E-16,-0.,-1.)) ;
#1107=DIRECTION('Vector Direction',(0.,-1.,0.)) ;
#1119=DIRECTION('Axis2P3D Direction',(0.,-1.,0.)) ;
#1120=DIRECTION('Axis2P3D XDirection',(-1.,-0.,1.83697019872E-16)) ;
#1124=DIRECTION('Vector Direction',(0.,-1.,0.)) ;
#1136=DIRECTION('Axis2P3D Direction',(0.,0.,-1.)) ;
#1137=DIRECTION('Axis2P3D XDirection',(-1.,0.,-0.)) ;
#1141=DIRECTION('Vector Direction',(0.,-1.,0.)) ;
#1146=DIRECTION('Vector Direction',(0.,-1.,0.)) ;
#1158=DIRECTION('Axis2P3D Direction',(0.,-1.,0.)) ;
#1159=DIRECTION('Axis2P3D XDirection',(1.,-0.,-1.83697019872E-16)) ;
#1163=DIRECTION('Vector Direction',(0.,-1.,0.)) ;
#1175=DIRECTION('Axis2P3D Direction',(0.,-1.,0.)) ;
#1176=DIRECTION('Axis2P3D XDirection',(1.83697019872E-16,0.,1.)) ;
#1180=DIRECTION('Vector Direction',(0.,-1.,0.)) ;
#1192=DIRECTION('Axis2P3D Direction',(1.,0.,-0.)) ;
#1193=DIRECTION('Axis2P3D XDirection',(0.,0.,1.)) ;
#1204=DIRECTION('Axis2P3D Direction',(-1.,0.,0.)) ;
#1205=DIRECTION('Axis2P3D XDirection',(-0.,0.,-1.)) ;
#1216=DIRECTION('Axis2P3D Direction',(0.,1.,0.)) ;
#1217=DIRECTION('Axis2P3D XDirection',(-6.12323399574E-17,0.,1.)) ;
#1221=DIRECTION('Vector Direction',(0.,1.,0.)) ;
#1226=DIRECTION('Vector Direction',(0.,1.,0.)) ;
#1238=DIRECTION('Vector Direction',(0.,-1.,0.)) ;
#1250=DIRECTION('Vector Direction',(0.,-1.,0.)) ;
#1262=DIRECTION('Axis2P3D Direction',(0.,1.,0.)) ;
#1263=DIRECTION('Axis2P3D XDirection',(1.83697019872E-16,0.,-1.)) ;
#1274=DIRECTION('Axis2P3D Direction',(0.,1.,-0.)) ;
#1275=DIRECTION('Axis2P3D XDirection',(-6.12323399574E-17,0.,1.)) ;
#1279=DIRECTION('Vector Direction',(0.,1.,0.)) ;
#1284=DIRECTION('Vector Direction',(0.,1.,0.)) ;
#1296=DIRECTION('Axis2P3D Direction',(0.,0.,-1.)) ;
#1297=DIRECTION('Axis2P3D XDirection',(1.,0.,0.)) ;
#1301=DIRECTION('Vector Direction',(0.,-1.,0.)) ;
#1313=DIRECTION('Axis2P3D Direction',(0.,0.,1.)) ;
#1314=DIRECTION('Axis2P3D XDirection',(-1.,0.,0.)) ;
#1318=DIRECTION('Vector Direction',(0.,-1.,0.)) ;
#1330=DIRECTION('Axis2P3D Direction',(0.,1.,-0.)) ;
#1331=DIRECTION('Axis2P3D XDirection',(1.83697019872E-16,-0.,-1.)) ;
#1342=DIRECTION('Axis2P3D Direction',(0.,1.,-0.)) ;
#1343=DIRECTION('Axis2P3D XDirection',(-6.12323399574E-17,0.,1.)) ;
#1347=DIRECTION('Vector Direction',(0.,1.,0.)) ;
#1352=DIRECTION('Vector Direction',(0.,1.,0.)) ;
#1364=DIRECTION('Axis2P3D Direction',(0.,0.,-1.)) ;
#1365=DIRECTION('Axis2P3D XDirection',(1.,0.,0.)) ;
#1369=DIRECTION('Vector Direction',(0.,-1.,0.)) ;
#1381=DIRECTION('Axis2P3D Direction',(0.,0.,1.)) ;
#1382=DIRECTION('Axis2P3D XDirection',(-1.,0.,0.)) ;
#1386=DIRECTION('Vector Direction',(0.,-1.,0.)) ;
#1398=DIRECTION('Axis2P3D Direction',(0.,1.,-0.)) ;
#1399=DIRECTION('Axis2P3D XDirection',(1.83697019872E-16,-0.,-1.)) ;
#1410=DIRECTION('Axis2P3D Direction',(0.,1.,-0.)) ;
#1411=DIRECTION('Axis2P3D XDirection',(-6.12323399574E-17,0.,1.)) ;
#1415=DIRECTION('Vector Direction',(0.,1.,0.)) ;
#1420=DIRECTION('Vector Direction',(0.,1.,0.)) ;
#1432=DIRECTION('Axis2P3D Direction',(0.,0.,-1.)) ;
#1433=DIRECTION('Axis2P3D XDirection',(1.,0.,0.)) ;
#1437=DIRECTION('Vector Direction',(0.,-1.,0.)) ;
#1449=DIRECTION('Axis2P3D Direction',(0.,0.,1.)) ;
#1450=DIRECTION('Axis2P3D XDirection',(-1.,0.,0.)) ;
#1454=DIRECTION('Vector Direction',(0.,-1.,0.)) ;
#1466=DIRECTION('Axis2P3D Direction',(0.,1.,-0.)) ;
#1467=DIRECTION('Axis2P3D XDirection',(1.83697019872E-16,-0.,-1.)) ;
#1478=DIRECTION('Axis2P3D Direction',(0.,1.,-0.)) ;
#1479=DIRECTION('Axis2P3D XDirection',(-6.12323399574E-17,0.,1.)) ;
#1483=DIRECTION('Vector Direction',(0.,1.,0.)) ;
#1488=DIRECTION('Vector Direction',(0.,1.,0.)) ;
#1500=DIRECTION('Axis2P3D Direction',(0.,0.,-1.)) ;
#1501=DIRECTION('Axis2P3D XDirection',(1.,0.,0.)) ;
#1505=DIRECTION('Vector Direction',(0.,-1.,0.)) ;
#1517=DIRECTION('Axis2P3D Direction',(0.,0.,1.)) ;
#1518=DIRECTION('Axis2P3D XDirection',(-1.,0.,0.)) ;
#1522=DIRECTION('Vector Direction',(0.,-1.,0.)) ;
#1534=DIRECTION('Axis2P3D Direction',(0.,1.,-0.)) ;
#1535=DIRECTION('Axis2P3D XDirection',(1.83697019872E-16,-0.,-1.)) ;
#1546=DIRECTION('Axis2P3D Direction',(0.,1.,0.)) ;
#1547=DIRECTION('Axis2P3D XDirection',(-6.12323399574E-17,0.,1.)) ;
#1551=DIRECTION('Vector Direction',(0.,1.,0.)) ;
#1556=DIRECTION('Vector Direction',(0.,1.,0.)) ;
#1568=DIRECTION('Vector Direction',(0.,-1.,0.)) ;
#1580=DIRECTION('Vector Direction',(0.,-1.,0.)) ;
#1592=DIRECTION('Axis2P3D Direction',(0.,1.,0.)) ;
#1593=DIRECTION('Axis2P3D XDirection',(1.83697019872E-16,0.,-1.)) ;
#1604=DIRECTION('Axis2P3D Direction',(0.,1.,-0.)) ;
#1605=DIRECTION('Axis2P3D XDirection',(-6.12323399574E-17,0.,1.)) ;
#1609=DIRECTION('Vector Direction',(0.,1.,0.)) ;
#1614=DIRECTION('Vector Direction',(0.,1.,0.)) ;
#1626=DIRECTION('Axis2P3D Direction',(0.,0.,-1.)) ;
#1627=DIRECTION('Axis2P3D XDirection',(1.,0.,0.)) ;
#1631=DIRECTION('Vector Direction',(0.,-1.,0.)) ;
#1643=DIRECTION('Axis2P3D Direction',(0.,0.,1.)) ;
#1644=DIRECTION('Axis2P3D XDirection',(-1.,0.,0.)) ;
#1648=DIRECTION('Vector Direction',(0.,-1.,0.)) ;
#1660=DIRECTION('Axis2P3D Direction',(0.,1.,-0.)) ;
#1661=DIRECTION('Axis2P3D XDirection',(1.83697019872E-16,-0.,-1.)) ;
#1672=DIRECTION('Axis2P3D Direction',(0.,1.,-0.)) ;
#1673=DIRECTION('Axis2P3D XDirection',(-6.12323399574E-17,0.,1.)) ;
#1677=DIRECTION('Vector Direction',(0.,1.,0.)) ;
#1682=DIRECTION('Vector Direction',(0.,1.,0.)) ;
#1694=DIRECTION('Axis2P3D Direction',(0.,0.,-1.)) ;
#1695=DIRECTION('Axis2P3D XDirection',(1.,0.,0.)) ;
#1699=DIRECTION('Vector Direction',(0.,-1.,0.)) ;
#1711=DIRECTION('Axis2P3D Direction',(0.,0.,1.)) ;
#1712=DIRECTION('Axis2P3D XDirection',(-1.,0.,0.)) ;
#1716=DIRECTION('Vector Direction',(0.,-1.,0.)) ;
#1728=DIRECTION('Axis2P3D Direction',(0.,1.,-0.)) ;
#1729=DIRECTION('Axis2P3D XDirection',(1.83697019872E-16,-0.,-1.)) ;
#1740=DIRECTION('Axis2P3D Direction',(0.,1.,0.)) ;
#1741=DIRECTION('Axis2P3D XDirection',(-6.12323399574E-17,0.,1.)) ;
#1745=DIRECTION('Vector Direction',(0.,1.,0.)) ;
#1750=DIRECTION('Vector Direction',(0.,1.,0.)) ;
#1762=DIRECTION('Vector Direction',(0.,-1.,0.)) ;
#1774=DIRECTION('Vector Direction',(0.,-1.,0.)) ;
#1786=DIRECTION('Axis2P3D Direction',(0.,1.,0.)) ;
#1787=DIRECTION('Axis2P3D XDirection',(1.83697019872E-16,0.,-1.)) ;
#1798=DIRECTION('Axis2P3D Direction',(0.,1.,-0.)) ;
#1799=DIRECTION('Axis2P3D XDirection',(-6.12323399574E-17,0.,1.)) ;
#1803=DIRECTION('Vector Direction',(0.,1.,0.)) ;
#1808=DIRECTION('Vector Direction',(0.,1.,0.)) ;
#1820=DIRECTION('Axis2P3D Direction',(0.,0.,-1.)) ;
#1821=DIRECTION('Axis2P3D XDirection',(1.,0.,0.)) ;
#1825=DIRECTION('Vector Direction',(0.,-1.,0.)) ;
#1837=DIRECTION('Axis2P3D Direction',(0.,0.,1.)) ;
#1838=DIRECTION('Axis2P3D XDirection',(-1.,0.,0.)) ;
#1842=DIRECTION('Vector Direction',(0.,-1.,0.)) ;
#1854=DIRECTION('Axis2P3D Direction',(0.,1.,-0.)) ;
#1855=DIRECTION('Axis2P3D XDirection',(1.83697019872E-16,-0.,-1.)) ;
#1866=DIRECTION('Axis2P3D Direction',(0.,1.,-0.)) ;
#1867=DIRECTION('Axis2P3D XDirection',(-6.12323399574E-17,0.,1.)) ;
#1871=DIRECTION('Vector Direction',(0.,1.,0.)) ;
#1876=DIRECTION('Vector Direction',(0.,1.,0.)) ;
#1888=DIRECTION('Axis2P3D Direction',(0.,0.,-1.)) ;
#1889=DIRECTION('Axis2P3D XDirection',(1.,0.,0.)) ;
#1893=DIRECTION('Vector Direction',(0.,-1.,0.)) ;
#1905=DIRECTION('Axis2P3D Direction',(0.,0.,1.)) ;
#1906=DIRECTION('Axis2P3D XDirection',(-1.,0.,0.)) ;
#1910=DIRECTION('Vector Direction',(0.,-1.,0.)) ;
#1922=DIRECTION('Axis2P3D Direction',(0.,1.,-0.)) ;
#1923=DIRECTION('Axis2P3D XDirection',(1.83697019872E-16,-0.,-1.)) ;
#47=AXIS2_PLACEMENT_3D(' ',#46,$,$) ;
#54=AXIS2_PLACEMENT_3D('Plane Axis2P3D',#51,#52,#53) ;
#94=AXIS2_PLACEMENT_3D('Cylinder Axis2P3D',#91,#92,#93) ;
#98=AXIS2_PLACEMENT_3D('Circle Axis2P3D',#96,#97,$) ;
#105=AXIS2_PLACEMENT_3D('Circle Axis2P3D',#103,#104,$) ;
#125=AXIS2_PLACEMENT_3D('Cylinder Axis2P3D',#122,#123,#124) ;
#129=AXIS2_PLACEMENT_3D('Circle Axis2P3D',#127,#128,$) ;
#143=AXIS2_PLACEMENT_3D('Circle Axis2P3D',#141,#142,$) ;
#156=AXIS2_PLACEMENT_3D('Plane Axis2P3D',#153,#154,#155) ;
#178=AXIS2_PLACEMENT_3D('Plane Axis2P3D',#175,#176,#177) ;
#182=AXIS2_PLACEMENT_3D('Circle Axis2P3D',#180,#181,$) ;
#198=AXIS2_PLACEMENT_3D('Circle Axis2P3D',#196,#197,$) ;
#212=AXIS2_PLACEMENT_3D('Circle Axis2P3D',#210,#211,$) ;
#226=AXIS2_PLACEMENT_3D('Circle Axis2P3D',#224,#225,$) ;
#257=AXIS2_PLACEMENT_3D('Circle Axis2P3D',#255,#256,$) ;
#271=AXIS2_PLACEMENT_3D('Circle Axis2P3D',#269,#270,$) ;
#291=AXIS2_PLACEMENT_3D('Circle Axis2P3D',#289,#290,$) ;
#305=AXIS2_PLACEMENT_3D('Circle Axis2P3D',#303,#304,$) ;
#325=AXIS2_PLACEMENT_3D('Circle Axis2P3D',#323,#324,$) ;
#339=AXIS2_PLACEMENT_3D('Circle Axis2P3D',#337,#338,$) ;
#365=AXIS2_PLACEMENT_3D('Circle Axis2P3D',#363,#364,$) ;
#379=AXIS2_PLACEMENT_3D('Circle Axis2P3D',#377,#378,$) ;
#399=AXIS2_PLACEMENT_3D('Circle Axis2P3D',#397,#398,$) ;
#413=AXIS2_PLACEMENT_3D('Circle Axis2P3D',#411,#412,$) ;
#433=AXIS2_PLACEMENT_3D('Circle Axis2P3D',#431,#432,$) ;
#447=AXIS2_PLACEMENT_3D('Circle Axis2P3D',#445,#446,$) ;
#467=AXIS2_PLACEMENT_3D('Circle Axis2P3D',#465,#466,$) ;
#481=AXIS2_PLACEMENT_3D('Circle Axis2P3D',#479,#480,$) ;
#501=AXIS2_PLACEMENT_3D('Circle Axis2P3D',#499,#500,$) ;
#515=AXIS2_PLACEMENT_3D('Circle Axis2P3D',#513,#514,$) ;
#535=AXIS2_PLACEMENT_3D('Circle Axis2P3D',#533,#534,$) ;
#549=AXIS2_PLACEMENT_3D('Circle Axis2P3D',#547,#548,$) ;
#569=AXIS2_PLACEMENT_3D('Circle Axis2P3D',#567,#568,$) ;
#583=AXIS2_PLACEMENT_3D('Circle Axis2P3D',#581,#582,$) ;
#603=AXIS2_PLACEMENT_3D('Circle Axis2P3D',#601,#602,$) ;
#617=AXIS2_PLACEMENT_3D('Circle Axis2P3D',#615,#616,$) ;
#630=AXIS2_PLACEMENT_3D('Plane Axis2P3D',#627,#628,#629) ;
#643=AXIS2_PLACEMENT_3D('Circle Axis2P3D',#641,#642,$) ;
#657=AXIS2_PLACEMENT_3D('Circle Axis2P3D',#655,#656,$) ;
#671=AXIS2_PLACEMENT_3D('Circle Axis2P3D',#669,#670,$) ;
#685=AXIS2_PLACEMENT_3D('Circle Axis2P3D',#683,#684,$) ;
#700=AXIS2_PLACEMENT_3D('Circle Axis2P3D',#698,#699,$) ;
#716=AXIS2_PLACEMENT_3D('Circle Axis2P3D',#714,#715,$) ;
#734=AXIS2_PLACEMENT_3D('Circle Axis2P3D',#732,#733,$) ;
#750=AXIS2_PLACEMENT_3D('Circle Axis2P3D',#748,#749,$) ;
#768=AXIS2_PLACEMENT_3D('Circle Axis2P3D',#766,#767,$) ;
#784=AXIS2_PLACEMENT_3D('Circle Axis2P3D',#782,#783,$) ;
#808=AXIS2_PLACEMENT_3D('Circle Axis2P3D',#806,#807,$) ;
#824=AXIS2_PLACEMENT_3D('Circle Axis2P3D',#822,#823,$) ;
#842=AXIS2_PLACEMENT_3D('Circle Axis2P3D',#840,#841,$) ;
#858=AXIS2_PLACEMENT_3D('Circle Axis2P3D',#856,#857,$) ;
#876=AXIS2_PLACEMENT_3D('Circle Axis2P3D',#874,#875,$) ;
#892=AXIS2_PLACEMENT_3D('Circle Axis2P3D',#890,#891,$) ;
#910=AXIS2_PLACEMENT_3D('Circle Axis2P3D',#908,#909,$) ;
#926=AXIS2_PLACEMENT_3D('Circle Axis2P3D',#924,#925,$) ;
#944=AXIS2_PLACEMENT_3D('Circle Axis2P3D',#942,#943,$) ;
#960=AXIS2_PLACEMENT_3D('Circle Axis2P3D',#958,#959,$) ;
#978=AXIS2_PLACEMENT_3D('Circle Axis2P3D',#976,#977,$) ;
#994=AXIS2_PLACEMENT_3D('Circle Axis2P3D',#992,#993,$) ;
#1012=AXIS2_PLACEMENT_3D('Circle Axis2P3D',#1010,#1011,$) ;
#1028=AXIS2_PLACEMENT_3D('Circle Axis2P3D',#1026,#1027,$) ;
#1046=AXIS2_PLACEMENT_3D('Circle Axis2P3D',#1044,#1045,$) ;
#1062=AXIS2_PLACEMENT_3D('Circle Axis2P3D',#1060,#1061,$) ;
#1082=AXIS2_PLACEMENT_3D('Plane Axis2P3D',#1079,#1080,#1081) ;
#1104=AXIS2_PLACEMENT_3D('Cylinder Axis2P3D',#1101,#1102,#1103) ;
#1121=AXIS2_PLACEMENT_3D('Cylinder Axis2P3D',#1118,#1119,#1120) ;
#1138=AXIS2_PLACEMENT_3D('Plane Axis2P3D',#1135,#1136,#1137) ;
#1160=AXIS2_PLACEMENT_3D('Cylinder Axis2P3D',#1157,#1158,#1159) ;
#1177=AXIS2_PLACEMENT_3D('Cylinder Axis2P3D',#1174,#1175,#1176) ;
#1194=AXIS2_PLACEMENT_3D('Plane Axis2P3D',#1191,#1192,#1193) ;
#1206=AXIS2_PLACEMENT_3D('Plane Axis2P3D',#1203,#1204,#1205) ;
#1218=AXIS2_PLACEMENT_3D('Cylinder Axis2P3D',#1215,#1216,#1217) ;
#1264=AXIS2_PLACEMENT_3D('Cylinder Axis2P3D',#1261,#1262,#1263) ;
#1276=AXIS2_PLACEMENT_3D('Cylinder Axis2P3D',#1273,#1274,#1275) ;
#1298=AXIS2_PLACEMENT_3D('Plane Axis2P3D',#1295,#1296,#1297) ;
#1315=AXIS2_PLACEMENT_3D('Plane Axis2P3D',#1312,#1313,#1314) ;
#1332=AXIS2_PLACEMENT_3D('Cylinder Axis2P3D',#1329,#1330,#1331) ;
#1344=AXIS2_PLACEMENT_3D('Cylinder Axis2P3D',#1341,#1342,#1343) ;
#1366=AXIS2_PLACEMENT_3D('Plane Axis2P3D',#1363,#1364,#1365) ;
#1383=AXIS2_PLACEMENT_3D('Plane Axis2P3D',#1380,#1381,#1382) ;
#1400=AXIS2_PLACEMENT_3D('Cylinder Axis2P3D',#1397,#1398,#1399) ;
#1412=AXIS2_PLACEMENT_3D('Cylinder Axis2P3D',#1409,#1410,#1411) ;
#1434=AXIS2_PLACEMENT_3D('Plane Axis2P3D',#1431,#1432,#1433) ;
#1451=AXIS2_PLACEMENT_3D('Plane Axis2P3D',#1448,#1449,#1450) ;
#1468=AXIS2_PLACEMENT_3D('Cylinder Axis2P3D',#1465,#1466,#1467) ;
#1480=AXIS2_PLACEMENT_3D('Cylinder Axis2P3D',#1477,#1478,#1479) ;
#1502=AXIS2_PLACEMENT_3D('Plane Axis2P3D',#1499,#1500,#1501) ;
#1519=AXIS2_PLACEMENT_3D('Plane Axis2P3D',#1516,#1517,#1518) ;
#1536=AXIS2_PLACEMENT_3D('Cylinder Axis2P3D',#1533,#1534,#1535) ;
#1548=AXIS2_PLACEMENT_3D('Cylinder Axis2P3D',#1545,#1546,#1547) ;
#1594=AXIS2_PLACEMENT_3D('Cylinder Axis2P3D',#1591,#1592,#1593) ;
#1606=AXIS2_PLACEMENT_3D('Cylinder Axis2P3D',#1603,#1604,#1605) ;
#1628=AXIS2_PLACEMENT_3D('Plane Axis2P3D',#1625,#1626,#1627) ;
#1645=AXIS2_PLACEMENT_3D('Plane Axis2P3D',#1642,#1643,#1644) ;
#1662=AXIS2_PLACEMENT_3D('Cylinder Axis2P3D',#1659,#1660,#1661) ;
#1674=AXIS2_PLACEMENT_3D('Cylinder Axis2P3D',#1671,#1672,#1673) ;
#1696=AXIS2_PLACEMENT_3D('Plane Axis2P3D',#1693,#1694,#1695) ;
#1713=AXIS2_PLACEMENT_3D('Plane Axis2P3D',#1710,#1711,#1712) ;
#1730=AXIS2_PLACEMENT_3D('Cylinder Axis2P3D',#1727,#1728,#1729) ;
#1742=AXIS2_PLACEMENT_3D('Cylinder Axis2P3D',#1739,#1740,#1741) ;
#1788=AXIS2_PLACEMENT_3D('Cylinder Axis2P3D',#1785,#1786,#1787) ;
#1800=AXIS2_PLACEMENT_3D('Cylinder Axis2P3D',#1797,#1798,#1799) ;
#1822=AXIS2_PLACEMENT_3D('Plane Axis2P3D',#1819,#1820,#1821) ;
#1839=AXIS2_PLACEMENT_3D('Plane Axis2P3D',#1836,#1837,#1838) ;
#1856=AXIS2_PLACEMENT_3D('Cylinder Axis2P3D',#1853,#1854,#1855) ;
#1868=AXIS2_PLACEMENT_3D('Cylinder Axis2P3D',#1865,#1866,#1867) ;
#1890=AXIS2_PLACEMENT_3D('Plane Axis2P3D',#1887,#1888,#1889) ;
#1907=AXIS2_PLACEMENT_3D('Plane Axis2P3D',#1904,#1905,#1906) ;
#1924=AXIS2_PLACEMENT_3D('Cylinder Axis2P3D',#1921,#1922,#1923) ;
#40=PRODUCT_DEFINITION_SHAPE(' ',' ',#14) ;
#31=APPROVAL_PERSON_ORGANIZATION(#25,#21,#19) ;
#25=PERSON_AND_ORGANIZATION(#22,#23) ;
#22=PERSON(' ',' ',' ',$,$,$) ;
#23=ORGANIZATION(' ',' ',' ') ;
#21=APPROVAL(#20,' ') ;
#20=APPROVAL_STATUS('not_yet_approved') ;
#19=APPROVAL_ROLE('APPROVER') ;
#13=DATE_AND_TIME(#11,#12) ;
#12=LOCAL_TIME(21,36,14.,#10) ;
#10=COORDINATED_UNIVERSAL_TIME_OFFSET(0,0,.AHEAD.) ;
#85=ORIENTED_EDGE('',*,*,#64,.T.) ;
#86=ORIENTED_EDGE('',*,*,#71,.F.) ;
#87=ORIENTED_EDGE('',*,*,#78,.T.) ;
#88=ORIENTED_EDGE('',*,*,#83,.T.) ;
#116=ORIENTED_EDGE('',*,*,#102,.F.) ;
#117=ORIENTED_EDGE('',*,*,#83,.F.) ;
#118=ORIENTED_EDGE('',*,*,#109,.T.) ;
#119=ORIENTED_EDGE('',*,*,#114,.T.) ;
#147=ORIENTED_EDGE('',*,*,#133,.F.) ;
#148=ORIENTED_EDGE('',*,*,#140,.F.) ;
#149=ORIENTED_EDGE('',*,*,#145,.T.) ;
#150=ORIENTED_EDGE('',*,*,#71,.T.) ;
#169=ORIENTED_EDGE('',*,*,#162,.T.) ;
#170=ORIENTED_EDGE('',*,*,#114,.F.) ;
#171=ORIENTED_EDGE('',*,*,#167,.T.) ;
#172=ORIENTED_EDGE('',*,*,#140,.T.) ;
#237=ORIENTED_EDGE('',*,*,#188,.F.) ;
#238=ORIENTED_EDGE('',*,*,#195,.F.) ;
#239=ORIENTED_EDGE('',*,*,#202,.F.) ;
#240=ORIENTED_EDGE('',*,*,#209,.F.) ;
#241=ORIENTED_EDGE('',*,*,#216,.F.) ;
#242=ORIENTED_EDGE('',*,*,#223,.F.) ;
#243=ORIENTED_EDGE('',*,*,#230,.F.) ;
#244=ORIENTED_EDGE('',*,*,#235,.F.) ;
#275=ORIENTED_EDGE('',*,*,#254,.F.) ;
#276=ORIENTED_EDGE('',*,*,#261,.T.) ;
#277=ORIENTED_EDGE('',*,*,#268,.F.) ;
#278=ORIENTED_EDGE('',*,*,#273,.T.) ;
#309=ORIENTED_EDGE('',*,*,#288,.F.) ;
#310=ORIENTED_EDGE('',*,*,#295,.T.) ;
#311=ORIENTED_EDGE('',*,*,#302,.F.) ;
#312=ORIENTED_EDGE('',*,*,#307,.T.) ;
#343=ORIENTED_EDGE('',*,*,#322,.F.) ;
#344=ORIENTED_EDGE('',*,*,#329,.T.) ;
#345=ORIENTED_EDGE('',*,*,#336,.F.) ;
#346=ORIENTED_EDGE('',*,*,#341,.T.) ;
#349=ORIENTED_EDGE('',*,*,#64,.F.) ;
#350=ORIENTED_EDGE('',*,*,#102,.T.) ;
#351=ORIENTED_EDGE('',*,*,#162,.F.) ;
#352=ORIENTED_EDGE('',*,*,#133,.T.) ;
#383=ORIENTED_EDGE('',*,*,#362,.F.) ;
#384=ORIENTED_EDGE('',*,*,#369,.T.) ;
#385=ORIENTED_EDGE('',*,*,#376,.F.) ;
#386=ORIENTED_EDGE('',*,*,#381,.T.) ;
#417=ORIENTED_EDGE('',*,*,#396,.F.) ;
#418=ORIENTED_EDGE('',*,*,#403,.T.) ;
#419=ORIENTED_EDGE('',*,*,#410,.F.) ;
#420=ORIENTED_EDGE('',*,*,#415,.T.) ;
#451=ORIENTED_EDGE('',*,*,#430,.F.) ;
#452=ORIENTED_EDGE('',*,*,#437,.T.) ;
#453=ORIENTED_EDGE('',*,*,#444,.F.) ;
#454=ORIENTED_EDGE('',*,*,#449,.T.) ;
#485=ORIENTED_EDGE('',*,*,#464,.F.) ;
#486=ORIENTED_EDGE('',*,*,#471,.T.) ;
#487=ORIENTED_EDGE('',*,*,#478,.F.) ;
#488=ORIENTED_EDGE('',*,*,#483,.T.) ;
#519=ORIENTED_EDGE('',*,*,#498,.F.) ;
#520=ORIENTED_EDGE('',*,*,#505,.T.) ;
#521=ORIENTED_EDGE('',*,*,#512,.F.) ;
#522=ORIENTED_EDGE('',*,*,#517,.T.) ;
#553=ORIENTED_EDGE('',*,*,#532,.F.) ;
#554=ORIENTED_EDGE('',*,*,#539,.T.) ;
#555=ORIENTED_EDGE('',*,*,#546,.F.) ;
#556=ORIENTED_EDGE('',*,*,#551,.T.) ;
#587=ORIENTED_EDGE('',*,*,#566,.F.) ;
#588=ORIENTED_EDGE('',*,*,#573,.T.) ;
#589=ORIENTED_EDGE('',*,*,#580,.F.) ;
#590=ORIENTED_EDGE('',*,*,#585,.T.) ;
#621=ORIENTED_EDGE('',*,*,#600,.F.) ;
#622=ORIENTED_EDGE('',*,*,#607,.T.) ;
#623=ORIENTED_EDGE('',*,*,#614,.F.) ;
#624=ORIENTED_EDGE('',*,*,#619,.T.) ;
#689=ORIENTED_EDGE('',*,*,#640,.T.) ;
#690=ORIENTED_EDGE('',*,*,#647,.F.) ;
#691=ORIENTED_EDGE('',*,*,#654,.T.) ;
#692=ORIENTED_EDGE('',*,*,#661,.F.) ;
#693=ORIENTED_EDGE('',*,*,#668,.T.) ;
#694=ORIENTED_EDGE('',*,*,#675,.F.) ;
#695=ORIENTED_EDGE('',*,*,#682,.T.) ;
#696=ORIENTED_EDGE('',*,*,#687,.F.) ;
#727=ORIENTED_EDGE('',*,*,#706,.F.) ;
#728=ORIENTED_EDGE('',*,*,#713,.F.) ;
#729=ORIENTED_EDGE('',*,*,#720,.F.) ;
#730=ORIENTED_EDGE('',*,*,#725,.F.) ;
#761=ORIENTED_EDGE('',*,*,#740,.F.) ;
#762=ORIENTED_EDGE('',*,*,#747,.F.) ;
#763=ORIENTED_EDGE('',*,*,#754,.F.) ;
#764=ORIENTED_EDGE('',*,*,#759,.F.) ;
#795=ORIENTED_EDGE('',*,*,#774,.F.) ;
#796=ORIENTED_EDGE('',*,*,#781,.F.) ;
#797=ORIENTED_EDGE('',*,*,#788,.F.) ;
#798=ORIENTED_EDGE('',*,*,#793,.F.) ;
#801=ORIENTED_EDGE('',*,*,#145,.F.) ;
#802=ORIENTED_EDGE('',*,*,#167,.F.) ;
#803=ORIENTED_EDGE('',*,*,#109,.F.) ;
#804=ORIENTED_EDGE('',*,*,#78,.F.) ;
#835=ORIENTED_EDGE('',*,*,#814,.F.) ;
#836=ORIENTED_EDGE('',*,*,#821,.F.) ;
#837=ORIENTED_EDGE('',*,*,#828,.F.) ;
#838=ORIENTED_EDGE('',*,*,#833,.F.) ;
#869=ORIENTED_EDGE('',*,*,#848,.F.) ;
#870=ORIENTED_EDGE('',*,*,#855,.F.) ;
#871=ORIENTED_EDGE('',*,*,#862,.F.) ;
#872=ORIENTED_EDGE('',*,*,#867,.F.) ;
#903=ORIENTED_EDGE('',*,*,#882,.F.) ;
#904=ORIENTED_EDGE('',*,*,#889,.F.) ;
#905=ORIENTED_EDGE('',*,*,#896,.F.) ;
#906=ORIENTED_EDGE('',*,*,#901,.F.) ;
#937=ORIENTED_EDGE('',*,*,#916,.F.) ;
#938=ORIENTED_EDGE('',*,*,#923,.F.) ;
#939=ORIENTED_EDGE('',*,*,#930,.F.) ;
#940=ORIENTED_EDGE('',*,*,#935,.F.) ;
#971=ORIENTED_EDGE('',*,*,#950,.F.) ;
#972=ORIENTED_EDGE('',*,*,#957,.F.) ;
#973=ORIENTED_EDGE('',*,*,#964,.F.) ;
#974=ORIENTED_EDGE('',*,*,#969,.F.) ;
#1005=ORIENTED_EDGE('',*,*,#984,.F.) ;
#1006=ORIENTED_EDGE('',*,*,#991,.F.) ;
#1007=ORIENTED_EDGE('',*,*,#998,.F.) ;
#1008=ORIENTED_EDGE('',*,*,#1003,.F.) ;
#1039=ORIENTED_EDGE('',*,*,#1018,.F.) ;
#1040=ORIENTED_EDGE('',*,*,#1025,.F.) ;
#1041=ORIENTED_EDGE('',*,*,#1032,.F.) ;
#1042=ORIENTED_EDGE('',*,*,#1037,.F.) ;
#1073=ORIENTED_EDGE('',*,*,#1052,.F.) ;
#1074=ORIENTED_EDGE('',*,*,#1059,.F.) ;
#1075=ORIENTED_EDGE('',*,*,#1066,.F.) ;
#1076=ORIENTED_EDGE('',*,*,#1071,.F.) ;
#1095=ORIENTED_EDGE('',*,*,#1088,.T.) ;
#1096=ORIENTED_EDGE('',*,*,#235,.T.) ;
#1097=ORIENTED_EDGE('',*,*,#1093,.F.) ;
#1098=ORIENTED_EDGE('',*,*,#640,.F.) ;
#1112=ORIENTED_EDGE('',*,*,#188,.T.) ;
#1113=ORIENTED_EDGE('',*,*,#1088,.F.) ;
#1114=ORIENTED_EDGE('',*,*,#687,.T.) ;
#1115=ORIENTED_EDGE('',*,*,#1110,.T.) ;
#1129=ORIENTED_EDGE('',*,*,#230,.T.) ;
#1130=ORIENTED_EDGE('',*,*,#1127,.F.) ;
#1131=ORIENTED_EDGE('',*,*,#647,.T.) ;
#1132=ORIENTED_EDGE('',*,*,#1093,.T.) ;
#1151=ORIENTED_EDGE('',*,*,#1144,.F.) ;
#1152=ORIENTED_EDGE('',*,*,#668,.F.) ;
#1153=ORIENTED_EDGE('',*,*,#1149,.T.) ;
#1154=ORIENTED_EDGE('',*,*,#209,.T.) ;
#1168=ORIENTED_EDGE('',*,*,#202,.T.) ;
#1169=ORIENTED_EDGE('',*,*,#1166,.F.) ;
#1170=ORIENTED_EDGE('',*,*,#675,.T.) ;
#1171=ORIENTED_EDGE('',*,*,#1144,.T.) ;
#1185=ORIENTED_EDGE('',*,*,#216,.T.) ;
#1186=ORIENTED_EDGE('',*,*,#1149,.F.) ;
#1187=ORIENTED_EDGE('',*,*,#661,.T.) ;
#1188=ORIENTED_EDGE('',*,*,#1183,.T.) ;
#1197=ORIENTED_EDGE('',*,*,#682,.F.) ;
#1198=ORIENTED_EDGE('',*,*,#1166,.T.) ;
#1199=ORIENTED_EDGE('',*,*,#195,.T.) ;
#1200=ORIENTED_EDGE('',*,*,#1110,.F.) ;
#1209=ORIENTED_EDGE('',*,*,#654,.F.) ;
#1210=ORIENTED_EDGE('',*,*,#1127,.T.) ;
#1211=ORIENTED_EDGE('',*,*,#223,.T.) ;
#1212=ORIENTED_EDGE('',*,*,#1183,.F.) ;
#1231=ORIENTED_EDGE('',*,*,#329,.F.) ;
#1232=ORIENTED_EDGE('',*,*,#1224,.F.) ;
#1233=ORIENTED_EDGE('',*,*,#788,.T.) ;
#1234=ORIENTED_EDGE('',*,*,#1229,.T.) ;
#1243=ORIENTED_EDGE('',*,*,#336,.T.) ;
#1244=ORIENTED_EDGE('',*,*,#1229,.F.) ;
#1245=ORIENTED_EDGE('',*,*,#781,.T.) ;
#1246=ORIENTED_EDGE('',*,*,#1241,.T.) ;
#1255=ORIENTED_EDGE('',*,*,#322,.T.) ;
#1256=ORIENTED_EDGE('',*,*,#1253,.F.) ;
#1257=ORIENTED_EDGE('',*,*,#793,.T.) ;
#1258=ORIENTED_EDGE('',*,*,#1224,.T.) ;
#1267=ORIENTED_EDGE('',*,*,#341,.F.) ;
#1268=ORIENTED_EDGE('',*,*,#1241,.F.) ;
#1269=ORIENTED_EDGE('',*,*,#774,.T.) ;
#1270=ORIENTED_EDGE('',*,*,#1253,.T.) ;
#1289=ORIENTED_EDGE('',*,*,#369,.F.) ;
#1290=ORIENTED_EDGE('',*,*,#1282,.F.) ;
#1291=ORIENTED_EDGE('',*,*,#828,.T.) ;
#1292=ORIENTED_EDGE('',*,*,#1287,.T.) ;
#1306=ORIENTED_EDGE('',*,*,#376,.T.) ;
#1307=ORIENTED_EDGE('',*,*,#1287,.F.) ;
#1308=ORIENTED_EDGE('',*,*,#821,.T.) ;
#1309=ORIENTED_EDGE('',*,*,#1304,.T.) ;
#1323=ORIENTED_EDGE('',*,*,#362,.T.) ;
#1324=ORIENTED_EDGE('',*,*,#1321,.F.) ;
#1325=ORIENTED_EDGE('',*,*,#833,.T.) ;
#1326=ORIENTED_EDGE('',*,*,#1282,.T.) ;
#1335=ORIENTED_EDGE('',*,*,#381,.F.) ;
#1336=ORIENTED_EDGE('',*,*,#1304,.F.) ;
#1337=ORIENTED_EDGE('',*,*,#814,.T.) ;
#1338=ORIENTED_EDGE('',*,*,#1321,.T.) ;
#1357=ORIENTED_EDGE('',*,*,#403,.F.) ;
#1358=ORIENTED_EDGE('',*,*,#1350,.F.) ;
#1359=ORIENTED_EDGE('',*,*,#862,.T.) ;
#1360=ORIENTED_EDGE('',*,*,#1355,.T.) ;
#1374=ORIENTED_EDGE('',*,*,#410,.T.) ;
#1375=ORIENTED_EDGE('',*,*,#1355,.F.) ;
#1376=ORIENTED_EDGE('',*,*,#855,.T.) ;
#1377=ORIENTED_EDGE('',*,*,#1372,.T.) ;
#1391=ORIENTED_EDGE('',*,*,#396,.T.) ;
#1392=ORIENTED_EDGE('',*,*,#1389,.F.) ;
#1393=ORIENTED_EDGE('',*,*,#867,.T.) ;
#1394=ORIENTED_EDGE('',*,*,#1350,.T.) ;
#1403=ORIENTED_EDGE('',*,*,#415,.F.) ;
#1404=ORIENTED_EDGE('',*,*,#1372,.F.) ;
#1405=ORIENTED_EDGE('',*,*,#848,.T.) ;
#1406=ORIENTED_EDGE('',*,*,#1389,.T.) ;
#1425=ORIENTED_EDGE('',*,*,#437,.F.) ;
#1426=ORIENTED_EDGE('',*,*,#1418,.F.) ;
#1427=ORIENTED_EDGE('',*,*,#896,.T.) ;
#1428=ORIENTED_EDGE('',*,*,#1423,.T.) ;
#1442=ORIENTED_EDGE('',*,*,#444,.T.) ;
#1443=ORIENTED_EDGE('',*,*,#1423,.F.) ;
#1444=ORIENTED_EDGE('',*,*,#889,.T.) ;
#1445=ORIENTED_EDGE('',*,*,#1440,.T.) ;
#1459=ORIENTED_EDGE('',*,*,#430,.T.) ;
#1460=ORIENTED_EDGE('',*,*,#1457,.F.) ;
#1461=ORIENTED_EDGE('',*,*,#901,.T.) ;
#1462=ORIENTED_EDGE('',*,*,#1418,.T.) ;
#1471=ORIENTED_EDGE('',*,*,#449,.F.) ;
#1472=ORIENTED_EDGE('',*,*,#1440,.F.) ;
#1473=ORIENTED_EDGE('',*,*,#882,.T.) ;
#1474=ORIENTED_EDGE('',*,*,#1457,.T.) ;
#1493=ORIENTED_EDGE('',*,*,#471,.F.) ;
#1494=ORIENTED_EDGE('',*,*,#1486,.F.) ;
#1495=ORIENTED_EDGE('',*,*,#930,.T.) ;
#1496=ORIENTED_EDGE('',*,*,#1491,.T.) ;
#1510=ORIENTED_EDGE('',*,*,#478,.T.) ;
#1511=ORIENTED_EDGE('',*,*,#1491,.F.) ;
#1512=ORIENTED_EDGE('',*,*,#923,.T.) ;
#1513=ORIENTED_EDGE('',*,*,#1508,.T.) ;
#1527=ORIENTED_EDGE('',*,*,#464,.T.) ;
#1528=ORIENTED_EDGE('',*,*,#1525,.F.) ;
#1529=ORIENTED_EDGE('',*,*,#935,.T.) ;
#1530=ORIENTED_EDGE('',*,*,#1486,.T.) ;
#1539=ORIENTED_EDGE('',*,*,#483,.F.) ;
#1540=ORIENTED_EDGE('',*,*,#1508,.F.) ;
#1541=ORIENTED_EDGE('',*,*,#916,.T.) ;
#1542=ORIENTED_EDGE('',*,*,#1525,.T.) ;
#1561=ORIENTED_EDGE('',*,*,#295,.F.) ;
#1562=ORIENTED_EDGE('',*,*,#1554,.F.) ;
#1563=ORIENTED_EDGE('',*,*,#754,.T.) ;
#1564=ORIENTED_EDGE('',*,*,#1559,.T.) ;
#1573=ORIENTED_EDGE('',*,*,#302,.T.) ;
#1574=ORIENTED_EDGE('',*,*,#1559,.F.) ;
#1575=ORIENTED_EDGE('',*,*,#747,.T.) ;
#1576=ORIENTED_EDGE('',*,*,#1571,.T.) ;
#1585=ORIENTED_EDGE('',*,*,#288,.T.) ;
#1586=ORIENTED_EDGE('',*,*,#1583,.F.) ;
#1587=ORIENTED_EDGE('',*,*,#759,.T.) ;
#1588=ORIENTED_EDGE('',*,*,#1554,.T.) ;
#1597=ORIENTED_EDGE('',*,*,#307,.F.) ;
#1598=ORIENTED_EDGE('',*,*,#1571,.F.) ;
#1599=ORIENTED_EDGE('',*,*,#740,.T.) ;
#1600=ORIENTED_EDGE('',*,*,#1583,.T.) ;
#1619=ORIENTED_EDGE('',*,*,#505,.F.) ;
#1620=ORIENTED_EDGE('',*,*,#1612,.F.) ;
#1621=ORIENTED_EDGE('',*,*,#964,.T.) ;
#1622=ORIENTED_EDGE('',*,*,#1617,.T.) ;
#1636=ORIENTED_EDGE('',*,*,#512,.T.) ;
#1637=ORIENTED_EDGE('',*,*,#1617,.F.) ;
#1638=ORIENTED_EDGE('',*,*,#957,.T.) ;
#1639=ORIENTED_EDGE('',*,*,#1634,.T.) ;
#1653=ORIENTED_EDGE('',*,*,#498,.T.) ;
#1654=ORIENTED_EDGE('',*,*,#1651,.F.) ;
#1655=ORIENTED_EDGE('',*,*,#969,.T.) ;
#1656=ORIENTED_EDGE('',*,*,#1612,.T.) ;
#1665=ORIENTED_EDGE('',*,*,#517,.F.) ;
#1666=ORIENTED_EDGE('',*,*,#1634,.F.) ;
#1667=ORIENTED_EDGE('',*,*,#950,.T.) ;
#1668=ORIENTED_EDGE('',*,*,#1651,.T.) ;
#1687=ORIENTED_EDGE('',*,*,#539,.F.) ;
#1688=ORIENTED_EDGE('',*,*,#1680,.F.) ;
#1689=ORIENTED_EDGE('',*,*,#998,.T.) ;
#1690=ORIENTED_EDGE('',*,*,#1685,.T.) ;
#1704=ORIENTED_EDGE('',*,*,#546,.T.) ;
#1705=ORIENTED_EDGE('',*,*,#1685,.F.) ;
#1706=ORIENTED_EDGE('',*,*,#991,.T.) ;
#1707=ORIENTED_EDGE('',*,*,#1702,.T.) ;
#1721=ORIENTED_EDGE('',*,*,#532,.T.) ;
#1722=ORIENTED_EDGE('',*,*,#1719,.F.) ;
#1723=ORIENTED_EDGE('',*,*,#1003,.T.) ;
#1724=ORIENTED_EDGE('',*,*,#1680,.T.) ;
#1733=ORIENTED_EDGE('',*,*,#551,.F.) ;
#1734=ORIENTED_EDGE('',*,*,#1702,.F.) ;
#1735=ORIENTED_EDGE('',*,*,#984,.T.) ;
#1736=ORIENTED_EDGE('',*,*,#1719,.T.) ;
#1755=ORIENTED_EDGE('',*,*,#261,.F.) ;
#1756=ORIENTED_EDGE('',*,*,#1748,.F.) ;
#1757=ORIENTED_EDGE('',*,*,#720,.T.) ;
#1758=ORIENTED_EDGE('',*,*,#1753,.T.) ;
#1767=ORIENTED_EDGE('',*,*,#268,.T.) ;
#1768=ORIENTED_EDGE('',*,*,#1753,.F.) ;
#1769=ORIENTED_EDGE('',*,*,#713,.T.) ;
#1770=ORIENTED_EDGE('',*,*,#1765,.T.) ;
#1779=ORIENTED_EDGE('',*,*,#254,.T.) ;
#1780=ORIENTED_EDGE('',*,*,#1777,.F.) ;
#1781=ORIENTED_EDGE('',*,*,#725,.T.) ;
#1782=ORIENTED_EDGE('',*,*,#1748,.T.) ;
#1791=ORIENTED_EDGE('',*,*,#273,.F.) ;
#1792=ORIENTED_EDGE('',*,*,#1765,.F.) ;
#1793=ORIENTED_EDGE('',*,*,#706,.T.) ;
#1794=ORIENTED_EDGE('',*,*,#1777,.T.) ;
#1813=ORIENTED_EDGE('',*,*,#573,.F.) ;
#1814=ORIENTED_EDGE('',*,*,#1806,.F.) ;
#1815=ORIENTED_EDGE('',*,*,#1032,.T.) ;
#1816=ORIENTED_EDGE('',*,*,#1811,.T.) ;
#1830=ORIENTED_EDGE('',*,*,#580,.T.) ;
#1831=ORIENTED_EDGE('',*,*,#1811,.F.) ;
#1832=ORIENTED_EDGE('',*,*,#1025,.T.) ;
#1833=ORIENTED_EDGE('',*,*,#1828,.T.) ;
#1847=ORIENTED_EDGE('',*,*,#566,.T.) ;
#1848=ORIENTED_EDGE('',*,*,#1845,.F.) ;
#1849=ORIENTED_EDGE('',*,*,#1037,.T.) ;
#1850=ORIENTED_EDGE('',*,*,#1806,.T.) ;
#1859=ORIENTED_EDGE('',*,*,#585,.F.) ;
#1860=ORIENTED_EDGE('',*,*,#1828,.F.) ;
#1861=ORIENTED_EDGE('',*,*,#1018,.T.) ;
#1862=ORIENTED_EDGE('',*,*,#1845,.T.) ;
#1881=ORIENTED_EDGE('',*,*,#607,.F.) ;
#1882=ORIENTED_EDGE('',*,*,#1874,.F.) ;
#1883=ORIENTED_EDGE('',*,*,#1066,.T.) ;
#1884=ORIENTED_EDGE('',*,*,#1879,.T.) ;
#1898=ORIENTED_EDGE('',*,*,#614,.T.) ;
#1899=ORIENTED_EDGE('',*,*,#1879,.F.) ;
#1900=ORIENTED_EDGE('',*,*,#1059,.T.) ;
#1901=ORIENTED_EDGE('',*,*,#1896,.T.) ;
#1915=ORIENTED_EDGE('',*,*,#600,.T.) ;
#1916=ORIENTED_EDGE('',*,*,#1913,.F.) ;
#1917=ORIENTED_EDGE('',*,*,#1071,.T.) ;
#1918=ORIENTED_EDGE('',*,*,#1874,.T.) ;
#1927=ORIENTED_EDGE('',*,*,#619,.F.) ;
#1928=ORIENTED_EDGE('',*,*,#1896,.F.) ;
#1929=ORIENTED_EDGE('',*,*,#1052,.T.) ;
#1930=ORIENTED_EDGE('',*,*,#1913,.T.) ;
#279=FACE_BOUND('',#274,.T.) ;
#313=FACE_BOUND('',#308,.T.) ;
#347=FACE_BOUND('',#342,.T.) ;
#353=FACE_BOUND('',#348,.T.) ;
#387=FACE_BOUND('',#382,.T.) ;
#421=FACE_BOUND('',#416,.T.) ;
#455=FACE_BOUND('',#450,.T.) ;
#489=FACE_BOUND('',#484,.T.) ;
#523=FACE_BOUND('',#518,.T.) ;
#557=FACE_BOUND('',#552,.T.) ;
#591=FACE_BOUND('',#586,.T.) ;
#625=FACE_BOUND('',#620,.T.) ;
#731=FACE_BOUND('',#726,.T.) ;
#765=FACE_BOUND('',#760,.T.) ;
#799=FACE_BOUND('',#794,.T.) ;
#805=FACE_BOUND('',#800,.T.) ;
#839=FACE_BOUND('',#834,.T.) ;
#873=FACE_BOUND('',#868,.T.) ;
#907=FACE_BOUND('',#902,.T.) ;
#941=FACE_BOUND('',#936,.T.) ;
#975=FACE_BOUND('',#970,.T.) ;
#1009=FACE_BOUND('',#1004,.T.) ;
#1043=FACE_BOUND('',#1038,.T.) ;
#1077=FACE_BOUND('',#1072,.T.) ;
#50=CLOSED_SHELL('Closed Shell',(#90,#121,#152,#174,#626,#1078,#1100,#1117,#1134,#1156,#1173,#1190,#1202,#1214,#1236,#1248,#1260,#1272,#1294,#1311,#1328,#1340,#1362,#1379,#1396,#1408,#1430,#1447,#1464,#1476,#1498,#1515,#1532,#1544,#1566,#1578,#1590,#1602,#1624,#1641,#1658,#1670,#1692,#1709,#1726,#1738,#1760,#1772,#1784,#1796,#1818,#1835,#1852,#1864,#1886,#1903,#1920,#1932)) ;
#58=VECTOR('Line Direction',#57,1.) ;
#67=VECTOR('Line Direction',#66,1.) ;
#74=VECTOR('Line Direction',#73,1.) ;
#81=VECTOR('Line Direction',#80,1.) ;
#112=VECTOR('Line Direction',#111,1.) ;
#136=VECTOR('Line Direction',#135,1.) ;
#160=VECTOR('Line Direction',#159,1.) ;
#165=VECTOR('Line Direction',#164,1.) ;
#191=VECTOR('Line Direction',#190,1.) ;
#205=VECTOR('Line Direction',#204,1.) ;
#219=VECTOR('Line Direction',#218,1.) ;
#233=VECTOR('Line Direction',#232,1.) ;
#248=VECTOR('Line Direction',#247,1.) ;
#264=VECTOR('Line Direction',#263,1.) ;
#282=VECTOR('Line Direction',#281,1.) ;
#298=VECTOR('Line Direction',#297,1.) ;
#316=VECTOR('Line Direction',#315,1.) ;
#332=VECTOR('Line Direction',#331,1.) ;
#356=VECTOR('Line Direction',#355,1.) ;
#372=VECTOR('Line Direction',#371,1.) ;
#390=VECTOR('Line Direction',#389,1.) ;
#406=VECTOR('Line Direction',#405,1.) ;
#424=VECTOR('Line Direction',#423,1.) ;
#440=VECTOR('Line Direction',#439,1.) ;
#458=VECTOR('Line Direction',#457,1.) ;
#474=VECTOR('Line Direction',#473,1.) ;
#492=VECTOR('Line Direction',#491,1.) ;
#508=VECTOR('Line Direction',#507,1.) ;
#526=VECTOR('Line Direction',#525,1.) ;
#542=VECTOR('Line Direction',#541,1.) ;
#560=VECTOR('Line Direction',#559,1.) ;
#576=VECTOR('Line Direction',#575,1.) ;
#594=VECTOR('Line Direction',#593,1.) ;
#610=VECTOR('Line Direction',#609,1.) ;
#634=VECTOR('Line Direction',#633,1.) ;
#650=VECTOR('Line Direction',#649,1.) ;
#664=VECTOR('Line Direction',#663,1.) ;
#678=VECTOR('Line Direction',#677,1.) ;
#709=VECTOR('Line Direction',#708,1.) ;
#723=VECTOR('Line Direction',#722,1.) ;
#743=VECTOR('Line Direction',#742,1.) ;
#757=VECTOR('Line Direction',#756,1.) ;
#777=VECTOR('Line Direction',#776,1.) ;
#791=VECTOR('Line Direction',#790,1.) ;
#817=VECTOR('Line Direction',#816,1.) ;
#831=VECTOR('Line Direction',#830,1.) ;
#851=VECTOR('Line Direction',#850,1.) ;
#865=VECTOR('Line Direction',#864,1.) ;
#885=VECTOR('Line Direction',#884,1.) ;
#899=VECTOR('Line Direction',#898,1.) ;
#919=VECTOR('Line Direction',#918,1.) ;
#933=VECTOR('Line Direction',#932,1.) ;
#953=VECTOR('Line Direction',#952,1.) ;
#967=VECTOR('Line Direction',#966,1.) ;
#987=VECTOR('Line Direction',#986,1.) ;
#1001=VECTOR('Line Direction',#1000,1.) ;
#1021=VECTOR('Line Direction',#1020,1.) ;
#1035=VECTOR('Line Direction',#1034,1.) ;
#1055=VECTOR('Line Direction',#1054,1.) ;
#1069=VECTOR('Line Direction',#1068,1.) ;
#1086=VECTOR('Line Direction',#1085,1.) ;
#1091=VECTOR('Line Direction',#1090,1.) ;
#1108=VECTOR('Line Direction',#1107,1.) ;
#1125=VECTOR('Line Direction',#1124,1.) ;
#1142=VECTOR('Line Direction',#1141,1.) ;
#1147=VECTOR('Line Direction',#1146,1.) ;
#1164=VECTOR('Line Direction',#1163,1.) ;
#1181=VECTOR('Line Direction',#1180,1.) ;
#1222=VECTOR('Line Direction',#1221,1.) ;
#1227=VECTOR('Line Direction',#1226,1.) ;
#1239=VECTOR('Line Direction',#1238,1.) ;
#1251=VECTOR('Line Direction',#1250,1.) ;
#1280=VECTOR('Line Direction',#1279,1.) ;
#1285=VECTOR('Line Direction',#1284,1.) ;
#1302=VECTOR('Line Direction',#1301,1.) ;
#1319=VECTOR('Line Direction',#1318,1.) ;
#1348=VECTOR('Line Direction',#1347,1.) ;
#1353=VECTOR('Line Direction',#1352,1.) ;
#1370=VECTOR('Line Direction',#1369,1.) ;
#1387=VECTOR('Line Direction',#1386,1.) ;
#1416=VECTOR('Line Direction',#1415,1.) ;
#1421=VECTOR('Line Direction',#1420,1.) ;
#1438=VECTOR('Line Direction',#1437,1.) ;
#1455=VECTOR('Line Direction',#1454,1.) ;
#1484=VECTOR('Line Direction',#1483,1.) ;
#1489=VECTOR('Line Direction',#1488,1.) ;
#1506=VECTOR('Line Direction',#1505,1.) ;
#1523=VECTOR('Line Direction',#1522,1.) ;
#1552=VECTOR('Line Direction',#1551,1.) ;
#1557=VECTOR('Line Direction',#1556,1.) ;
#1569=VECTOR('Line Direction',#1568,1.) ;
#1581=VECTOR('Line Direction',#1580,1.) ;
#1610=VECTOR('Line Direction',#1609,1.) ;
#1615=VECTOR('Line Direction',#1614,1.) ;
#1632=VECTOR('Line Direction',#1631,1.) ;
#1649=VECTOR('Line Direction',#1648,1.) ;
#1678=VECTOR('Line Direction',#1677,1.) ;
#1683=VECTOR('Line Direction',#1682,1.) ;
#1700=VECTOR('Line Direction',#1699,1.) ;
#1717=VECTOR('Line Direction',#1716,1.) ;
#1746=VECTOR('Line Direction',#1745,1.) ;
#1751=VECTOR('Line Direction',#1750,1.) ;
#1763=VECTOR('Line Direction',#1762,1.) ;
#1775=VECTOR('Line Direction',#1774,1.) ;
#1804=VECTOR('Line Direction',#1803,1.) ;
#1809=VECTOR('Line Direction',#1808,1.) ;
#1826=VECTOR('Line Direction',#1825,1.) ;
#1843=VECTOR('Line Direction',#1842,1.) ;
#1872=VECTOR('Line Direction',#1871,1.) ;
#1877=VECTOR('Line Direction',#1876,1.) ;
#1894=VECTOR('Line Direction',#1893,1.) ;
#1911=VECTOR('Line Direction',#1910,1.) ;
#1934=ADVANCED_BREP_SHAPE_REPRESENTATION('NONE',(#1933),#45) ;
#48=SHAPE_REPRESENTATION(' ',(#47),#45) ;
#90=ADVANCED_FACE('\X2\96355217\X0\(\X2\7EBF6027\X0\)1',(#89),#55,.F.) ;
#121=ADVANCED_FACE('\X2\96355217\X0\(\X2\7EBF6027\X0\)1',(#120),#95,.F.) ;
#152=ADVANCED_FACE('\X2\96355217\X0\(\X2\7EBF6027\X0\)1',(#151),#126,.F.) ;
#174=ADVANCED_FACE('\X2\96355217\X0\(\X2\7EBF6027\X0\)1',(#173),#157,.F.) ;
#626=ADVANCED_FACE('\X2\96355217\X0\(\X2\7EBF6027\X0\)1',(#245,#279,#313,#347,#353,#387,#421,#455,#489,#523,#557,#591,#625),#179,.F.) ;
#1078=ADVANCED_FACE('\X2\96355217\X0\(\X2\7EBF6027\X0\)1',(#697,#731,#765,#799,#805,#839,#873,#907,#941,#975,#1009,#1043,#1077),#631,.T.) ;
#1100=ADVANCED_FACE('\X2\96355217\X0\(\X2\7EBF6027\X0\)1',(#1099),#1083,.F.) ;
#1117=ADVANCED_FACE('\X2\96355217\X0\(\X2\7EBF6027\X0\)1',(#1116),#1105,.T.) ;
#1134=ADVANCED_FACE('\X2\96355217\X0\(\X2\7EBF6027\X0\)1',(#1133),#1122,.T.) ;
#1156=ADVANCED_FACE('\X2\96355217\X0\(\X2\7EBF6027\X0\)1',(#1155),#1139,.F.) ;
#1173=ADVANCED_FACE('\X2\96355217\X0\(\X2\7EBF6027\X0\)1',(#1172),#1161,.T.) ;
#1190=ADVANCED_FACE('\X2\96355217\X0\(\X2\7EBF6027\X0\)1',(#1189),#1178,.T.) ;
#1202=ADVANCED_FACE('\X2\96355217\X0\(\X2\7EBF6027\X0\)1',(#1201),#1195,.T.) ;
#1214=ADVANCED_FACE('\X2\96355217\X0\(\X2\7EBF6027\X0\)1',(#1213),#1207,.T.) ;
#1236=ADVANCED_FACE('\X2\96355217\X0\(\X2\7EBF6027\X0\)1',(#1235),#1219,.F.) ;
#1248=ADVANCED_FACE('\X2\96355217\X0\(\X2\7EBF6027\X0\)1',(#1247),#157,.F.) ;
#1260=ADVANCED_FACE('\X2\96355217\X0\(\X2\7EBF6027\X0\)1',(#1259),#55,.F.) ;
#1272=ADVANCED_FACE('\X2\96355217\X0\(\X2\7EBF6027\X0\)1',(#1271),#1265,.F.) ;
#1294=ADVANCED_FACE('\X2\96355217\X0\(\X2\7EBF6027\X0\)1',(#1293),#1277,.F.) ;
#1311=ADVANCED_FACE('\X2\96355217\X0\(\X2\7EBF6027\X0\)1',(#1310),#1299,.F.) ;
#1328=ADVANCED_FACE('\X2\96355217\X0\(\X2\7EBF6027\X0\)1',(#1327),#1316,.F.) ;
#1340=ADVANCED_FACE('\X2\96355217\X0\(\X2\7EBF6027\X0\)1',(#1339),#1333,.F.) ;
#1362=ADVANCED_FACE('\X2\96355217\X0\(\X2\7EBF6027\X0\)1',(#1361),#1345,.F.) ;
#1379=ADVANCED_FACE('\X2\96355217\X0\(\X2\7EBF6027\X0\)1',(#1378),#1367,.F.) ;
#1396=ADVANCED_FACE('\X2\96355217\X0\(\X2\7EBF6027\X0\)1',(#1395),#1384,.F.) ;
#1408=ADVANCED_FACE('\X2\96355217\X0\(\X2\7EBF6027\X0\)1',(#1407),#1401,.F.) ;
#1430=ADVANCED_FACE('\X2\96355217\X0\(\X2\7EBF6027\X0\)1',(#1429),#1413,.F.) ;
#1447=ADVANCED_FACE('\X2\96355217\X0\(\X2\7EBF6027\X0\)1',(#1446),#1435,.F.) ;
#1464=ADVANCED_FACE('\X2\96355217\X0\(\X2\7EBF6027\X0\)1',(#1463),#1452,.F.) ;
#1476=ADVANCED_FACE('\X2\96355217\X0\(\X2\7EBF6027\X0\)1',(#1475),#1469,.F.) ;
#1498=ADVANCED_FACE('\X2\96355217\X0\(\X2\7EBF6027\X0\)1',(#1497),#1481,.F.) ;
#1515=ADVANCED_FACE('\X2\96355217\X0\(\X2\7EBF6027\X0\)1',(#1514),#1503,.F.) ;
#1532=ADVANCED_FACE('\X2\96355217\X0\(\X2\7EBF6027\X0\)1',(#1531),#1520,.F.) ;
#1544=ADVANCED_FACE('\X2\96355217\X0\(\X2\7EBF6027\X0\)1',(#1543),#1537,.F.) ;
#1566=ADVANCED_FACE('\X2\96355217\X0\(\X2\7EBF6027\X0\)1',(#1565),#1549,.F.) ;
#1578=ADVANCED_FACE('\X2\96355217\X0\(\X2\7EBF6027\X0\)1',(#1577),#157,.F.) ;
#1590=ADVANCED_FACE('\X2\96355217\X0\(\X2\7EBF6027\X0\)1',(#1589),#55,.F.) ;
#1602=ADVANCED_FACE('\X2\96355217\X0\(\X2\7EBF6027\X0\)1',(#1601),#1595,.F.) ;
#1624=ADVANCED_FACE('\X2\96355217\X0\(\X2\7EBF6027\X0\)1',(#1623),#1607,.F.) ;
#1641=ADVANCED_FACE('\X2\96355217\X0\(\X2\7EBF6027\X0\)1',(#1640),#1629,.F.) ;
#1658=ADVANCED_FACE('\X2\96355217\X0\(\X2\7EBF6027\X0\)1',(#1657),#1646,.F.) ;
#1670=ADVANCED_FACE('\X2\96355217\X0\(\X2\7EBF6027\X0\)1',(#1669),#1663,.F.) ;
#1692=ADVANCED_FACE('\X2\96355217\X0\(\X2\7EBF6027\X0\)1',(#1691),#1675,.F.) ;
#1709=ADVANCED_FACE('\X2\96355217\X0\(\X2\7EBF6027\X0\)1',(#1708),#1697,.F.) ;
#1726=ADVANCED_FACE('\X2\96355217\X0\(\X2\7EBF6027\X0\)1',(#1725),#1714,.F.) ;
#1738=ADVANCED_FACE('\X2\96355217\X0\(\X2\7EBF6027\X0\)1',(#1737),#1731,.F.) ;
#1760=ADVANCED_FACE('\X2\96355217\X0\(\X2\7EBF6027\X0\)1',(#1759),#1743,.F.) ;
#1772=ADVANCED_FACE('\X2\96355217\X0\(\X2\7EBF6027\X0\)1',(#1771),#157,.F.) ;
#1784=ADVANCED_FACE('\X2\96355217\X0\(\X2\7EBF6027\X0\)1',(#1783),#55,.F.) ;
#1796=ADVANCED_FACE('\X2\96355217\X0\(\X2\7EBF6027\X0\)1',(#1795),#1789,.F.) ;
#1818=ADVANCED_FACE('\X2\96355217\X0\(\X2\7EBF6027\X0\)1',(#1817),#1801,.F.) ;
#1835=ADVANCED_FACE('\X2\96355217\X0\(\X2\7EBF6027\X0\)1',(#1834),#1823,.F.) ;
#1852=ADVANCED_FACE('\X2\96355217\X0\(\X2\7EBF6027\X0\)1',(#1851),#1840,.F.) ;
#1864=ADVANCED_FACE('\X2\96355217\X0\(\X2\7EBF6027\X0\)1',(#1863),#1857,.F.) ;
#1886=ADVANCED_FACE('\X2\96355217\X0\(\X2\7EBF6027\X0\)1',(#1885),#1869,.F.) ;
#1903=ADVANCED_FACE('\X2\96355217\X0\(\X2\7EBF6027\X0\)1',(#1902),#1891,.F.) ;
#1920=ADVANCED_FACE('\X2\96355217\X0\(\X2\7EBF6027\X0\)1',(#1919),#1908,.F.) ;
#1932=ADVANCED_FACE('\X2\96355217\X0\(\X2\7EBF6027\X0\)1',(#1931),#1925,.F.) ;
#4=APPLICATION_PROTOCOL_DEFINITION('international standard','config_control_design',1994,#1) ;
#32=APPROVAL_DATE_TIME(#13,#21) ;
#1933=MANIFOLD_SOLID_BREP('\X2\96355217\X0\(\X2\7EBF6027\X0\)1',#50) ;
#11=CALENDAR_DATE(2026,13,5) ;
#30=CC_DESIGN_APPROVAL(#21,(#16,#6,#14)) ;
#18=CC_DESIGN_DATE_AND_TIME_ASSIGNMENT(#13,#17,(#16)) ;
#29=CC_DESIGN_DATE_AND_TIME_ASSIGNMENT(#13,#28,(#14)) ;
#17=DATE_TIME_ROLE('classification_date') ;
#28=DATE_TIME_ROLE('creation_date') ;
#27=CC_DESIGN_PERSON_AND_ORGANIZATION_ASSIGNMENT(#25,#26,(#16)) ;
#33=CC_DESIGN_PERSON_AND_ORGANIZATION_ASSIGNMENT(#25,#34,(#6)) ;
#35=CC_DESIGN_PERSON_AND_ORGANIZATION_ASSIGNMENT(#25,#36,(#6,#14)) ;
#37=CC_DESIGN_PERSON_AND_ORGANIZATION_ASSIGNMENT(#25,#38,(#5)) ;
#26=PERSON_AND_ORGANIZATION_ROLE('classification_officer') ;
#34=PERSON_AND_ORGANIZATION_ROLE('design_supplier') ;
#36=PERSON_AND_ORGANIZATION_ROLE('creator') ;
#38=PERSON_AND_ORGANIZATION_ROLE('design_owner') ;
#39=CC_DESIGN_SECURITY_CLASSIFICATION(#16,(#6)) ;
#99=CIRCLE('generated circle',#98,1.5) ;
#106=CIRCLE('generated circle',#105,1.5) ;
#130=CIRCLE('generated circle',#129,1.5) ;
#144=CIRCLE('generated circle',#143,1.5) ;
#183=CIRCLE('generated circle',#182,5.) ;
#199=CIRCLE('generated circle',#198,5.) ;
#213=CIRCLE('generated circle',#212,5.) ;
#227=CIRCLE('generated circle',#226,5.) ;
#258=CIRCLE('generated circle',#257,1.5) ;
#272=CIRCLE('generated circle',#271,1.5) ;
#292=CIRCLE('generated circle',#291,1.5) ;
#306=CIRCLE('generated circle',#305,1.5) ;
#326=CIRCLE('generated circle',#325,1.5) ;
#340=CIRCLE('generated circle',#339,1.5) ;
#366=CIRCLE('generated circle',#365,1.5) ;
#380=CIRCLE('generated circle',#379,1.5) ;
#400=CIRCLE('generated circle',#399,1.5) ;
#414=CIRCLE('generated circle',#413,1.5) ;
#434=CIRCLE('generated circle',#433,1.5) ;
#448=CIRCLE('generated circle',#447,1.5) ;
#468=CIRCLE('generated circle',#467,1.5) ;
#482=CIRCLE('generated circle',#481,1.5) ;
#502=CIRCLE('generated circle',#501,1.5) ;
#516=CIRCLE('generated circle',#515,1.5) ;
#536=CIRCLE('generated circle',#535,1.5) ;
#550=CIRCLE('generated circle',#549,1.5) ;
#570=CIRCLE('generated circle',#569,1.5) ;
#584=CIRCLE('generated circle',#583,1.5) ;
#604=CIRCLE('generated circle',#603,1.5) ;
#618=CIRCLE('generated circle',#617,1.5) ;
#644=CIRCLE('generated circle',#643,5.) ;
#658=CIRCLE('generated circle',#657,5.) ;
#672=CIRCLE('generated circle',#671,5.) ;
#686=CIRCLE('generated circle',#685,5.) ;
#701=CIRCLE('generated circle',#700,1.5) ;
#717=CIRCLE('generated circle',#716,1.5) ;
#735=CIRCLE('generated circle',#734,1.5) ;
#751=CIRCLE('generated circle',#750,1.5) ;
#769=CIRCLE('generated circle',#768,1.5) ;
#785=CIRCLE('generated circle',#784,1.5) ;
#809=CIRCLE('generated circle',#808,1.5) ;
#825=CIRCLE('generated circle',#824,1.5) ;
#843=CIRCLE('generated circle',#842,1.5) ;
#859=CIRCLE('generated circle',#858,1.5) ;
#877=CIRCLE('generated circle',#876,1.5) ;
#893=CIRCLE('generated circle',#892,1.5) ;
#911=CIRCLE('generated circle',#910,1.5) ;
#927=CIRCLE('generated circle',#926,1.5) ;
#945=CIRCLE('generated circle',#944,1.5) ;
#961=CIRCLE('generated circle',#960,1.5) ;
#979=CIRCLE('generated circle',#978,1.5) ;
#995=CIRCLE('generated circle',#994,1.5) ;
#1013=CIRCLE('generated circle',#1012,1.5) ;
#1029=CIRCLE('generated circle',#1028,1.5) ;
#1047=CIRCLE('generated circle',#1046,1.5) ;
#1063=CIRCLE('generated circle',#1062,1.5) ;
#1935=SHAPE_REPRESENTATION_RELATIONSHIP(' ',' ',#48,#1934) ;
#95=CYLINDRICAL_SURFACE('generated cylinder',#94,1.5) ;
#126=CYLINDRICAL_SURFACE('generated cylinder',#125,1.5) ;
#1105=CYLINDRICAL_SURFACE('generated cylinder',#1104,5.) ;
#1122=CYLINDRICAL_SURFACE('generated cylinder',#1121,5.) ;
#1161=CYLINDRICAL_SURFACE('generated cylinder',#1160,5.) ;
#1178=CYLINDRICAL_SURFACE('generated cylinder',#1177,5.) ;
#1219=CYLINDRICAL_SURFACE('generated cylinder',#1218,1.5) ;
#1265=CYLINDRICAL_SURFACE('generated cylinder',#1264,1.5) ;
#1277=CYLINDRICAL_SURFACE('generated cylinder',#1276,1.5) ;
#1333=CYLINDRICAL_SURFACE('generated cylinder',#1332,1.5) ;
#1345=CYLINDRICAL_SURFACE('generated cylinder',#1344,1.5) ;
#1401=CYLINDRICAL_SURFACE('generated cylinder',#1400,1.5) ;
#1413=CYLINDRICAL_SURFACE('generated cylinder',#1412,1.5) ;
#1469=CYLINDRICAL_SURFACE('generated cylinder',#1468,1.5) ;
#1481=CYLINDRICAL_SURFACE('generated cylinder',#1480,1.5) ;
#1537=CYLINDRICAL_SURFACE('generated cylinder',#1536,1.5) ;
#1549=CYLINDRICAL_SURFACE('generated cylinder',#1548,1.5) ;
#1595=CYLINDRICAL_SURFACE('generated cylinder',#1594,1.5) ;
#1607=CYLINDRICAL_SURFACE('generated cylinder',#1606,1.5) ;
#1663=CYLINDRICAL_SURFACE('generated cylinder',#1662,1.5) ;
#1675=CYLINDRICAL_SURFACE('generated cylinder',#1674,1.5) ;
#1731=CYLINDRICAL_SURFACE('generated cylinder',#1730,1.5) ;
#1743=CYLINDRICAL_SURFACE('generated cylinder',#1742,1.5) ;
#1789=CYLINDRICAL_SURFACE('generated cylinder',#1788,1.5) ;
#1801=CYLINDRICAL_SURFACE('generated cylinder',#1800,1.5) ;
#1857=CYLINDRICAL_SURFACE('generated cylinder',#1856,1.5) ;
#1869=CYLINDRICAL_SURFACE('generated cylinder',#1868,1.5) ;
#1925=CYLINDRICAL_SURFACE('generated cylinder',#1924,1.5) ;
#3=DESIGN_CONTEXT(' ',#1,'design') ;
#64=EDGE_CURVE('',#61,#63,#59,.T.) ;
#71=EDGE_CURVE('',#70,#63,#68,.T.) ;
#78=EDGE_CURVE('',#70,#77,#75,.F.) ;
#83=EDGE_CURVE('',#77,#61,#82,.T.) ;
#102=EDGE_CURVE('',#61,#101,#99,.T.) ;
#109=EDGE_CURVE('',#77,#108,#106,.T.) ;
#114=EDGE_CURVE('',#108,#101,#113,.F.) ;
#133=EDGE_CURVE('',#132,#63,#130,.T.) ;
#140=EDGE_CURVE('',#139,#132,#137,.F.) ;
#145=EDGE_CURVE('',#139,#70,#144,.T.) ;
#162=EDGE_CURVE('',#132,#101,#161,.T.) ;
#167=EDGE_CURVE('',#108,#139,#166,.F.) ;
#188=EDGE_CURVE('',#185,#187,#183,.T.) ;
#195=EDGE_CURVE('',#194,#185,#192,.F.) ;
#202=EDGE_CURVE('',#201,#194,#199,.T.) ;
#209=EDGE_CURVE('',#208,#201,#206,.F.) ;
#216=EDGE_CURVE('',#215,#208,#213,.T.) ;
#223=EDGE_CURVE('',#222,#215,#220,.F.) ;
#230=EDGE_CURVE('',#229,#222,#227,.T.) ;
#235=EDGE_CURVE('',#187,#229,#234,.F.) ;
#254=EDGE_CURVE('',#251,#253,#249,.T.) ;
#261=EDGE_CURVE('',#251,#260,#258,.T.) ;
#268=EDGE_CURVE('',#267,#260,#265,.T.) ;
#273=EDGE_CURVE('',#267,#253,#272,.T.) ;
#288=EDGE_CURVE('',#285,#287,#283,.T.) ;
#295=EDGE_CURVE('',#285,#294,#292,.T.) ;
#302=EDGE_CURVE('',#301,#294,#299,.T.) ;
#307=EDGE_CURVE('',#301,#287,#306,.T.) ;
#322=EDGE_CURVE('',#319,#321,#317,.T.) ;
#329=EDGE_CURVE('',#319,#328,#326,.T.) ;
#336=EDGE_CURVE('',#335,#328,#333,.T.) ;
#341=EDGE_CURVE('',#335,#321,#340,.T.) ;
#362=EDGE_CURVE('',#359,#361,#357,.T.) ;
#369=EDGE_CURVE('',#359,#368,#366,.T.) ;
#376=EDGE_CURVE('',#375,#368,#373,.T.) ;
#381=EDGE_CURVE('',#375,#361,#380,.T.) ;
#396=EDGE_CURVE('',#393,#395,#391,.T.) ;
#403=EDGE_CURVE('',#393,#402,#400,.T.) ;
#410=EDGE_CURVE('',#409,#402,#407,.T.) ;
#415=EDGE_CURVE('',#409,#395,#414,.T.) ;
#430=EDGE_CURVE('',#427,#429,#425,.T.) ;
#437=EDGE_CURVE('',#427,#436,#434,.T.) ;
#444=EDGE_CURVE('',#443,#436,#441,.T.) ;
#449=EDGE_CURVE('',#443,#429,#448,.T.) ;
#464=EDGE_CURVE('',#461,#463,#459,.T.) ;
#471=EDGE_CURVE('',#461,#470,#468,.T.) ;
#478=EDGE_CURVE('',#477,#470,#475,.T.) ;
#483=EDGE_CURVE('',#477,#463,#482,.T.) ;
#498=EDGE_CURVE('',#495,#497,#493,.T.) ;
#505=EDGE_CURVE('',#495,#504,#502,.T.) ;
#512=EDGE_CURVE('',#511,#504,#509,.T.) ;
#517=EDGE_CURVE('',#511,#497,#516,.T.) ;
#532=EDGE_CURVE('',#529,#531,#527,.T.) ;
#539=EDGE_CURVE('',#529,#538,#536,.T.) ;
#546=EDGE_CURVE('',#545,#538,#543,.T.) ;
#551=EDGE_CURVE('',#545,#531,#550,.T.) ;
#566=EDGE_CURVE('',#563,#565,#561,.T.) ;
#573=EDGE_CURVE('',#563,#572,#570,.T.) ;
#580=EDGE_CURVE('',#579,#572,#577,.T.) ;
#585=EDGE_CURVE('',#579,#565,#584,.T.) ;
#600=EDGE_CURVE('',#597,#599,#595,.T.) ;
#607=EDGE_CURVE('',#597,#606,#604,.T.) ;
#614=EDGE_CURVE('',#613,#606,#611,.T.) ;
#619=EDGE_CURVE('',#613,#599,#618,.T.) ;
#640=EDGE_CURVE('',#637,#639,#635,.F.) ;
#647=EDGE_CURVE('',#646,#639,#644,.F.) ;
#654=EDGE_CURVE('',#646,#653,#651,.F.) ;
#661=EDGE_CURVE('',#660,#653,#658,.F.) ;
#668=EDGE_CURVE('',#660,#667,#665,.F.) ;
#675=EDGE_CURVE('',#674,#667,#672,.F.) ;
#682=EDGE_CURVE('',#674,#681,#679,.F.) ;
#687=EDGE_CURVE('',#637,#681,#686,.F.) ;
#706=EDGE_CURVE('',#703,#705,#701,.T.) ;
#713=EDGE_CURVE('',#712,#703,#710,.F.) ;
#720=EDGE_CURVE('',#719,#712,#717,.T.) ;
#725=EDGE_CURVE('',#705,#719,#724,.F.) ;
#740=EDGE_CURVE('',#737,#739,#735,.T.) ;
#747=EDGE_CURVE('',#746,#737,#744,.F.) ;
#754=EDGE_CURVE('',#753,#746,#751,.T.) ;
#759=EDGE_CURVE('',#739,#753,#758,.F.) ;
#774=EDGE_CURVE('',#771,#773,#769,.T.) ;
#781=EDGE_CURVE('',#780,#771,#778,.F.) ;
#788=EDGE_CURVE('',#787,#780,#785,.T.) ;
#793=EDGE_CURVE('',#773,#787,#792,.F.) ;
#814=EDGE_CURVE('',#811,#813,#809,.T.) ;
#821=EDGE_CURVE('',#820,#811,#818,.F.) ;
#828=EDGE_CURVE('',#827,#820,#825,.T.) ;
#833=EDGE_CURVE('',#813,#827,#832,.F.) ;
#848=EDGE_CURVE('',#845,#847,#843,.T.) ;
#855=EDGE_CURVE('',#854,#845,#852,.F.) ;
#862=EDGE_CURVE('',#861,#854,#859,.T.) ;
#867=EDGE_CURVE('',#847,#861,#866,.F.) ;
#882=EDGE_CURVE('',#879,#881,#877,.T.) ;
#889=EDGE_CURVE('',#888,#879,#886,.F.) ;
#896=EDGE_CURVE('',#895,#888,#893,.T.) ;
#901=EDGE_CURVE('',#881,#895,#900,.F.) ;
#916=EDGE_CURVE('',#913,#915,#911,.T.) ;
#923=EDGE_CURVE('',#922,#913,#920,.F.) ;
#930=EDGE_CURVE('',#929,#922,#927,.T.) ;
#935=EDGE_CURVE('',#915,#929,#934,.F.) ;
#950=EDGE_CURVE('',#947,#949,#945,.T.) ;
#957=EDGE_CURVE('',#956,#947,#954,.F.) ;
#964=EDGE_CURVE('',#963,#956,#961,.T.) ;
#969=EDGE_CURVE('',#949,#963,#968,.F.) ;
#984=EDGE_CURVE('',#981,#983,#979,.T.) ;
#991=EDGE_CURVE('',#990,#981,#988,.F.) ;
#998=EDGE_CURVE('',#997,#990,#995,.T.) ;
#1003=EDGE_CURVE('',#983,#997,#1002,.F.) ;
#1018=EDGE_CURVE('',#1015,#1017,#1013,.T.) ;
#1025=EDGE_CURVE('',#1024,#1015,#1022,.F.) ;
#1032=EDGE_CURVE('',#1031,#1024,#1029,.T.) ;
#1037=EDGE_CURVE('',#1017,#1031,#1036,.F.) ;
#1052=EDGE_CURVE('',#1049,#1051,#1047,.T.) ;
#1059=EDGE_CURVE('',#1058,#1049,#1056,.F.) ;
#1066=EDGE_CURVE('',#1065,#1058,#1063,.T.) ;
#1071=EDGE_CURVE('',#1051,#1065,#1070,.F.) ;
#1088=EDGE_CURVE('',#637,#187,#1087,.T.) ;
#1093=EDGE_CURVE('',#639,#229,#1092,.T.) ;
#1110=EDGE_CURVE('',#681,#185,#1109,.T.) ;
#1127=EDGE_CURVE('',#646,#222,#1126,.T.) ;
#1144=EDGE_CURVE('',#667,#201,#1143,.T.) ;
#1149=EDGE_CURVE('',#660,#208,#1148,.T.) ;
#1166=EDGE_CURVE('',#674,#194,#1165,.T.) ;
#1183=EDGE_CURVE('',#653,#215,#1182,.T.) ;
#1224=EDGE_CURVE('',#787,#319,#1223,.F.) ;
#1229=EDGE_CURVE('',#780,#328,#1228,.F.) ;
#1241=EDGE_CURVE('',#771,#335,#1240,.T.) ;
#1253=EDGE_CURVE('',#773,#321,#1252,.T.) ;
#1282=EDGE_CURVE('',#827,#359,#1281,.F.) ;
#1287=EDGE_CURVE('',#820,#368,#1286,.F.) ;
#1304=EDGE_CURVE('',#811,#375,#1303,.T.) ;
#1321=EDGE_CURVE('',#813,#361,#1320,.T.) ;
#1350=EDGE_CURVE('',#861,#393,#1349,.F.) ;
#1355=EDGE_CURVE('',#854,#402,#1354,.F.) ;
#1372=EDGE_CURVE('',#845,#409,#1371,.T.) ;
#1389=EDGE_CURVE('',#847,#395,#1388,.T.) ;
#1418=EDGE_CURVE('',#895,#427,#1417,.F.) ;
#1423=EDGE_CURVE('',#888,#436,#1422,.F.) ;
#1440=EDGE_CURVE('',#879,#443,#1439,.T.) ;
#1457=EDGE_CURVE('',#881,#429,#1456,.T.) ;
#1486=EDGE_CURVE('',#929,#461,#1485,.F.) ;
#1491=EDGE_CURVE('',#922,#470,#1490,.F.) ;
#1508=EDGE_CURVE('',#913,#477,#1507,.T.) ;
#1525=EDGE_CURVE('',#915,#463,#1524,.T.) ;
#1554=EDGE_CURVE('',#753,#285,#1553,.F.) ;
#1559=EDGE_CURVE('',#746,#294,#1558,.F.) ;
#1571=EDGE_CURVE('',#737,#301,#1570,.T.) ;
#1583=EDGE_CURVE('',#739,#287,#1582,.T.) ;
#1612=EDGE_CURVE('',#963,#495,#1611,.F.) ;
#1617=EDGE_CURVE('',#956,#504,#1616,.F.) ;
#1634=EDGE_CURVE('',#947,#511,#1633,.T.) ;
#1651=EDGE_CURVE('',#949,#497,#1650,.T.) ;
#1680=EDGE_CURVE('',#997,#529,#1679,.F.) ;
#1685=EDGE_CURVE('',#990,#538,#1684,.F.) ;
#1702=EDGE_CURVE('',#981,#545,#1701,.T.) ;
#1719=EDGE_CURVE('',#983,#531,#1718,.T.) ;
#1748=EDGE_CURVE('',#719,#251,#1747,.F.) ;
#1753=EDGE_CURVE('',#712,#260,#1752,.F.) ;
#1765=EDGE_CURVE('',#703,#267,#1764,.T.) ;
#1777=EDGE_CURVE('',#705,#253,#1776,.T.) ;
#1806=EDGE_CURVE('',#1031,#563,#1805,.F.) ;
#1811=EDGE_CURVE('',#1024,#572,#1810,.F.) ;
#1828=EDGE_CURVE('',#1015,#579,#1827,.T.) ;
#1845=EDGE_CURVE('',#1017,#565,#1844,.T.) ;
#1874=EDGE_CURVE('',#1065,#597,#1873,.F.) ;
#1879=EDGE_CURVE('',#1058,#606,#1878,.F.) ;
#1896=EDGE_CURVE('',#1049,#613,#1895,.T.) ;
#1913=EDGE_CURVE('',#1051,#599,#1912,.T.) ;
#84=EDGE_LOOP('',(#85,#86,#87,#88)) ;
#115=EDGE_LOOP('',(#116,#117,#118,#119)) ;
#146=EDGE_LOOP('',(#147,#148,#149,#150)) ;
#168=EDGE_LOOP('',(#169,#170,#171,#172)) ;
#236=EDGE_LOOP('',(#237,#238,#239,#240,#241,#242,#243,#244)) ;
#274=EDGE_LOOP('',(#275,#276,#277,#278)) ;
#308=EDGE_LOOP('',(#309,#310,#311,#312)) ;
#342=EDGE_LOOP('',(#343,#344,#345,#346)) ;
#348=EDGE_LOOP('',(#349,#350,#351,#352)) ;
#382=EDGE_LOOP('',(#383,#384,#385,#386)) ;
#416=EDGE_LOOP('',(#417,#418,#419,#420)) ;
#450=EDGE_LOOP('',(#451,#452,#453,#454)) ;
#484=EDGE_LOOP('',(#485,#486,#487,#488)) ;
#518=EDGE_LOOP('',(#519,#520,#521,#522)) ;
#552=EDGE_LOOP('',(#553,#554,#555,#556)) ;
#586=EDGE_LOOP('',(#587,#588,#589,#590)) ;
#620=EDGE_LOOP('',(#621,#622,#623,#624)) ;
#688=EDGE_LOOP('',(#689,#690,#691,#692,#693,#694,#695,#696)) ;
#726=EDGE_LOOP('',(#727,#728,#729,#730)) ;
#760=EDGE_LOOP('',(#761,#762,#763,#764)) ;
#794=EDGE_LOOP('',(#795,#796,#797,#798)) ;
#800=EDGE_LOOP('',(#801,#802,#803,#804)) ;
#834=EDGE_LOOP('',(#835,#836,#837,#838)) ;
#868=EDGE_LOOP('',(#869,#870,#871,#872)) ;
#902=EDGE_LOOP('',(#903,#904,#905,#906)) ;
#936=EDGE_LOOP('',(#937,#938,#939,#940)) ;
#970=EDGE_LOOP('',(#971,#972,#973,#974)) ;
#1004=EDGE_LOOP('',(#1005,#1006,#1007,#1008)) ;
#1038=EDGE_LOOP('',(#1039,#1040,#1041,#1042)) ;
#1072=EDGE_LOOP('',(#1073,#1074,#1075,#1076)) ;
#1094=EDGE_LOOP('',(#1095,#1096,#1097,#1098)) ;
#1111=EDGE_LOOP('',(#1112,#1113,#1114,#1115)) ;
#1128=EDGE_LOOP('',(#1129,#1130,#1131,#1132)) ;
#1150=EDGE_LOOP('',(#1151,#1152,#1153,#1154)) ;
#1167=EDGE_LOOP('',(#1168,#1169,#1170,#1171)) ;
#1184=EDGE_LOOP('',(#1185,#1186,#1187,#1188)) ;
#1196=EDGE_LOOP('',(#1197,#1198,#1199,#1200)) ;
#1208=EDGE_LOOP('',(#1209,#1210,#1211,#1212)) ;
#1230=EDGE_LOOP('',(#1231,#1232,#1233,#1234)) ;
#1242=EDGE_LOOP('',(#1243,#1244,#1245,#1246)) ;
#1254=EDGE_LOOP('',(#1255,#1256,#1257,#1258)) ;
#1266=EDGE_LOOP('',(#1267,#1268,#1269,#1270)) ;
#1288=EDGE_LOOP('',(#1289,#1290,#1291,#1292)) ;
#1305=EDGE_LOOP('',(#1306,#1307,#1308,#1309)) ;
#1322=EDGE_LOOP('',(#1323,#1324,#1325,#1326)) ;
#1334=EDGE_LOOP('',(#1335,#1336,#1337,#1338)) ;
#1356=EDGE_LOOP('',(#1357,#1358,#1359,#1360)) ;
#1373=EDGE_LOOP('',(#1374,#1375,#1376,#1377)) ;
#1390=EDGE_LOOP('',(#1391,#1392,#1393,#1394)) ;
#1402=EDGE_LOOP('',(#1403,#1404,#1405,#1406)) ;
#1424=EDGE_LOOP('',(#1425,#1426,#1427,#1428)) ;
#1441=EDGE_LOOP('',(#1442,#1443,#1444,#1445)) ;
#1458=EDGE_LOOP('',(#1459,#1460,#1461,#1462)) ;
#1470=EDGE_LOOP('',(#1471,#1472,#1473,#1474)) ;
#1492=EDGE_LOOP('',(#1493,#1494,#1495,#1496)) ;
#1509=EDGE_LOOP('',(#1510,#1511,#1512,#1513)) ;
#1526=EDGE_LOOP('',(#1527,#1528,#1529,#1530)) ;
#1538=EDGE_LOOP('',(#1539,#1540,#1541,#1542)) ;
#1560=EDGE_LOOP('',(#1561,#1562,#1563,#1564)) ;
#1572=EDGE_LOOP('',(#1573,#1574,#1575,#1576)) ;
#1584=EDGE_LOOP('',(#1585,#1586,#1587,#1588)) ;
#1596=EDGE_LOOP('',(#1597,#1598,#1599,#1600)) ;
#1618=EDGE_LOOP('',(#1619,#1620,#1621,#1622)) ;
#1635=EDGE_LOOP('',(#1636,#1637,#1638,#1639)) ;
#1652=EDGE_LOOP('',(#1653,#1654,#1655,#1656)) ;
#1664=EDGE_LOOP('',(#1665,#1666,#1667,#1668)) ;
#1686=EDGE_LOOP('',(#1687,#1688,#1689,#1690)) ;
#1703=EDGE_LOOP('',(#1704,#1705,#1706,#1707)) ;
#1720=EDGE_LOOP('',(#1721,#1722,#1723,#1724)) ;
#1732=EDGE_LOOP('',(#1733,#1734,#1735,#1736)) ;
#1754=EDGE_LOOP('',(#1755,#1756,#1757,#1758)) ;
#1766=EDGE_LOOP('',(#1767,#1768,#1769,#1770)) ;
#1778=EDGE_LOOP('',(#1779,#1780,#1781,#1782)) ;
#1790=EDGE_LOOP('',(#1791,#1792,#1793,#1794)) ;
#1812=EDGE_LOOP('',(#1813,#1814,#1815,#1816)) ;
#1829=EDGE_LOOP('',(#1830,#1831,#1832,#1833)) ;
#1846=EDGE_LOOP('',(#1847,#1848,#1849,#1850)) ;
#1858=EDGE_LOOP('',(#1859,#1860,#1861,#1862)) ;
#1880=EDGE_LOOP('',(#1881,#1882,#1883,#1884)) ;
#1897=EDGE_LOOP('',(#1898,#1899,#1900,#1901)) ;
#1914=EDGE_LOOP('',(#1915,#1916,#1917,#1918)) ;
#1926=EDGE_LOOP('',(#1927,#1928,#1929,#1930)) ;
#89=FACE_OUTER_BOUND('',#84,.T.) ;
#120=FACE_OUTER_BOUND('',#115,.T.) ;
#151=FACE_OUTER_BOUND('',#146,.T.) ;
#173=FACE_OUTER_BOUND('',#168,.T.) ;
#245=FACE_OUTER_BOUND('',#236,.T.) ;
#697=FACE_OUTER_BOUND('',#688,.T.) ;
#1099=FACE_OUTER_BOUND('',#1094,.T.) ;
#1116=FACE_OUTER_BOUND('',#1111,.T.) ;
#1133=FACE_OUTER_BOUND('',#1128,.T.) ;
#1155=FACE_OUTER_BOUND('',#1150,.T.) ;
#1172=FACE_OUTER_BOUND('',#1167,.T.) ;
#1189=FACE_OUTER_BOUND('',#1184,.T.) ;
#1201=FACE_OUTER_BOUND('',#1196,.T.) ;
#1213=FACE_OUTER_BOUND('',#1208,.T.) ;
#1235=FACE_OUTER_BOUND('',#1230,.T.) ;
#1247=FACE_OUTER_BOUND('',#1242,.T.) ;
#1259=FACE_OUTER_BOUND('',#1254,.T.) ;
#1271=FACE_OUTER_BOUND('',#1266,.T.) ;
#1293=FACE_OUTER_BOUND('',#1288,.T.) ;
#1310=FACE_OUTER_BOUND('',#1305,.T.) ;
#1327=FACE_OUTER_BOUND('',#1322,.T.) ;
#1339=FACE_OUTER_BOUND('',#1334,.T.) ;
#1361=FACE_OUTER_BOUND('',#1356,.T.) ;
#1378=FACE_OUTER_BOUND('',#1373,.T.) ;
#1395=FACE_OUTER_BOUND('',#1390,.T.) ;
#1407=FACE_OUTER_BOUND('',#1402,.T.) ;
#1429=FACE_OUTER_BOUND('',#1424,.T.) ;
#1446=FACE_OUTER_BOUND('',#1441,.T.) ;
#1463=FACE_OUTER_BOUND('',#1458,.T.) ;
#1475=FACE_OUTER_BOUND('',#1470,.T.) ;
#1497=FACE_OUTER_BOUND('',#1492,.T.) ;
#1514=FACE_OUTER_BOUND('',#1509,.T.) ;
#1531=FACE_OUTER_BOUND('',#1526,.T.) ;
#1543=FACE_OUTER_BOUND('',#1538,.T.) ;
#1565=FACE_OUTER_BOUND('',#1560,.T.) ;
#1577=FACE_OUTER_BOUND('',#1572,.T.) ;
#1589=FACE_OUTER_BOUND('',#1584,.T.) ;
#1601=FACE_OUTER_BOUND('',#1596,.T.) ;
#1623=FACE_OUTER_BOUND('',#1618,.T.) ;
#1640=FACE_OUTER_BOUND('',#1635,.T.) ;
#1657=FACE_OUTER_BOUND('',#1652,.T.) ;
#1669=FACE_OUTER_BOUND('',#1664,.T.) ;
#1691=FACE_OUTER_BOUND('',#1686,.T.) ;
#1708=FACE_OUTER_BOUND('',#1703,.T.) ;
#1725=FACE_OUTER_BOUND('',#1720,.T.) ;
#1737=FACE_OUTER_BOUND('',#1732,.T.) ;
#1759=FACE_OUTER_BOUND('',#1754,.T.) ;
#1771=FACE_OUTER_BOUND('',#1766,.T.) ;
#1783=FACE_OUTER_BOUND('',#1778,.T.) ;
#1795=FACE_OUTER_BOUND('',#1790,.T.) ;
#1817=FACE_OUTER_BOUND('',#1812,.T.) ;
#1834=FACE_OUTER_BOUND('',#1829,.T.) ;
#1851=FACE_OUTER_BOUND('',#1846,.T.) ;
#1863=FACE_OUTER_BOUND('',#1858,.T.) ;
#1885=FACE_OUTER_BOUND('',#1880,.T.) ;
#1902=FACE_OUTER_BOUND('',#1897,.T.) ;
#1919=FACE_OUTER_BOUND('',#1914,.T.) ;
#1931=FACE_OUTER_BOUND('',#1926,.T.) ;
#44=UNCERTAINTY_MEASURE_WITH_UNIT(LENGTH_MEASURE(0.005),#41,'distance_accuracy_value','CONFUSED CURVE UNCERTAINTY') ;
#59=LINE('Line',#56,#58) ;
#68=LINE('Line',#65,#67) ;
#75=LINE('Line',#72,#74) ;
#82=LINE('Line',#79,#81) ;
#113=LINE('Line',#110,#112) ;
#137=LINE('Line',#134,#136) ;
#161=LINE('Line',#158,#160) ;
#166=LINE('Line',#163,#165) ;
#192=LINE('Line',#189,#191) ;
#206=LINE('Line',#203,#205) ;
#220=LINE('Line',#217,#219) ;
#234=LINE('Line',#231,#233) ;
#249=LINE('Line',#246,#248) ;
#265=LINE('Line',#262,#264) ;
#283=LINE('Line',#280,#282) ;
#299=LINE('Line',#296,#298) ;
#317=LINE('Line',#314,#316) ;
#333=LINE('Line',#330,#332) ;
#357=LINE('Line',#354,#356) ;
#373=LINE('Line',#370,#372) ;
#391=LINE('Line',#388,#390) ;
#407=LINE('Line',#404,#406) ;
#425=LINE('Line',#422,#424) ;
#441=LINE('Line',#438,#440) ;
#459=LINE('Line',#456,#458) ;
#475=LINE('Line',#472,#474) ;
#493=LINE('Line',#490,#492) ;
#509=LINE('Line',#506,#508) ;
#527=LINE('Line',#524,#526) ;
#543=LINE('Line',#540,#542) ;
#561=LINE('Line',#558,#560) ;
#577=LINE('Line',#574,#576) ;
#595=LINE('Line',#592,#594) ;
#611=LINE('Line',#608,#610) ;
#635=LINE('Line',#632,#634) ;
#651=LINE('Line',#648,#650) ;
#665=LINE('Line',#662,#664) ;
#679=LINE('Line',#676,#678) ;
#710=LINE('Line',#707,#709) ;
#724=LINE('Line',#721,#723) ;
#744=LINE('Line',#741,#743) ;
#758=LINE('Line',#755,#757) ;
#778=LINE('Line',#775,#777) ;
#792=LINE('Line',#789,#791) ;
#818=LINE('Line',#815,#817) ;
#832=LINE('Line',#829,#831) ;
#852=LINE('Line',#849,#851) ;
#866=LINE('Line',#863,#865) ;
#886=LINE('Line',#883,#885) ;
#900=LINE('Line',#897,#899) ;
#920=LINE('Line',#917,#919) ;
#934=LINE('Line',#931,#933) ;
#954=LINE('Line',#951,#953) ;
#968=LINE('Line',#965,#967) ;
#988=LINE('Line',#985,#987) ;
#1002=LINE('Line',#999,#1001) ;
#1022=LINE('Line',#1019,#1021) ;
#1036=LINE('Line',#1033,#1035) ;
#1056=LINE('Line',#1053,#1055) ;
#1070=LINE('Line',#1067,#1069) ;
#1087=LINE('Line',#1084,#1086) ;
#1092=LINE('Line',#1089,#1091) ;
#1109=LINE('Line',#1106,#1108) ;
#1126=LINE('Line',#1123,#1125) ;
#1143=LINE('Line',#1140,#1142) ;
#1148=LINE('Line',#1145,#1147) ;
#1165=LINE('Line',#1162,#1164) ;
#1182=LINE('Line',#1179,#1181) ;
#1223=LINE('Line',#1220,#1222) ;
#1228=LINE('Line',#1225,#1227) ;
#1240=LINE('Line',#1237,#1239) ;
#1252=LINE('Line',#1249,#1251) ;
#1281=LINE('Line',#1278,#1280) ;
#1286=LINE('Line',#1283,#1285) ;
#1303=LINE('Line',#1300,#1302) ;
#1320=LINE('Line',#1317,#1319) ;
#1349=LINE('Line',#1346,#1348) ;
#1354=LINE('Line',#1351,#1353) ;
#1371=LINE('Line',#1368,#1370) ;
#1388=LINE('Line',#1385,#1387) ;
#1417=LINE('Line',#1414,#1416) ;
#1422=LINE('Line',#1419,#1421) ;
#1439=LINE('Line',#1436,#1438) ;
#1456=LINE('Line',#1453,#1455) ;
#1485=LINE('Line',#1482,#1484) ;
#1490=LINE('Line',#1487,#1489) ;
#1507=LINE('Line',#1504,#1506) ;
#1524=LINE('Line',#1521,#1523) ;
#1553=LINE('Line',#1550,#1552) ;
#1558=LINE('Line',#1555,#1557) ;
#1570=LINE('Line',#1567,#1569) ;
#1582=LINE('Line',#1579,#1581) ;
#1611=LINE('Line',#1608,#1610) ;
#1616=LINE('Line',#1613,#1615) ;
#1633=LINE('Line',#1630,#1632) ;
#1650=LINE('Line',#1647,#1649) ;
#1679=LINE('Line',#1676,#1678) ;
#1684=LINE('Line',#1681,#1683) ;
#1701=LINE('Line',#1698,#1700) ;
#1718=LINE('Line',#1715,#1717) ;
#1747=LINE('Line',#1744,#1746) ;
#1752=LINE('Line',#1749,#1751) ;
#1764=LINE('Line',#1761,#1763) ;
#1776=LINE('Line',#1773,#1775) ;
#1805=LINE('Line',#1802,#1804) ;
#1810=LINE('Line',#1807,#1809) ;
#1827=LINE('Line',#1824,#1826) ;
#1844=LINE('Line',#1841,#1843) ;
#1873=LINE('Line',#1870,#1872) ;
#1878=LINE('Line',#1875,#1877) ;
#1895=LINE('Line',#1892,#1894) ;
#1912=LINE('Line',#1909,#1911) ;
#2=MECHANICAL_CONTEXT(' ',#1,'mechanical') ;
#24=PERSONAL_ADDRESS(' ',' ',' ',' ',' ',' ',' ',' ',' ',' ',' ',' ',(#22),' ') ;
#55=PLANE('',#54) ;
#157=PLANE('',#156) ;
#179=PLANE('',#178) ;
#631=PLANE('',#630) ;
#1083=PLANE('',#1082) ;
#1139=PLANE('',#1138) ;
#1195=PLANE('',#1194) ;
#1207=PLANE('',#1206) ;
#1299=PLANE('',#1298) ;
#1316=PLANE('',#1315) ;
#1367=PLANE('',#1366) ;
#1384=PLANE('',#1383) ;
#1435=PLANE('',#1434) ;
#1452=PLANE('',#1451) ;
#1503=PLANE('',#1502) ;
#1520=PLANE('',#1519) ;
#1629=PLANE('',#1628) ;
#1646=PLANE('',#1645) ;
#1697=PLANE('',#1696) ;
#1714=PLANE('',#1713) ;
#1823=PLANE('',#1822) ;
#1840=PLANE('',#1839) ;
#1891=PLANE('',#1890) ;
#1908=PLANE('',#1907) ;
#7=PRODUCT_CATEGORY('part',$) ;
#9=PRODUCT_CATEGORY_RELATIONSHIP(' ',' ',#7,#8) ;
#6=PRODUCT_DEFINITION_FORMATION_WITH_SPECIFIED_SOURCE('\X2\6D60\X0\',' ',#5,.NOT_KNOWN.) ;
#8=PRODUCT_RELATED_PRODUCT_CATEGORY('detail',$,(#5)) ;
#49=SHAPE_DEFINITION_REPRESENTATION(#40,#48) ;
#61=VERTEX_POINT('',#60) ;
#63=VERTEX_POINT('',#62) ;
#70=VERTEX_POINT('',#69) ;
#77=VERTEX_POINT('',#76) ;
#101=VERTEX_POINT('',#100) ;
#108=VERTEX_POINT('',#107) ;
#132=VERTEX_POINT('',#131) ;
#139=VERTEX_POINT('',#138) ;
#185=VERTEX_POINT('',#184) ;
#187=VERTEX_POINT('',#186) ;
#194=VERTEX_POINT('',#193) ;
#201=VERTEX_POINT('',#200) ;
#208=VERTEX_POINT('',#207) ;
#215=VERTEX_POINT('',#214) ;
#222=VERTEX_POINT('',#221) ;
#229=VERTEX_POINT('',#228) ;
#251=VERTEX_POINT('',#250) ;
#253=VERTEX_POINT('',#252) ;
#260=VERTEX_POINT('',#259) ;
#267=VERTEX_POINT('',#266) ;
#285=VERTEX_POINT('',#284) ;
#287=VERTEX_POINT('',#286) ;
#294=VERTEX_POINT('',#293) ;
#301=VERTEX_POINT('',#300) ;
#319=VERTEX_POINT('',#318) ;
#321=VERTEX_POINT('',#320) ;
#328=VERTEX_POINT('',#327) ;
#335=VERTEX_POINT('',#334) ;
#359=VERTEX_POINT('',#358) ;
#361=VERTEX_POINT('',#360) ;
#368=VERTEX_POINT('',#367) ;
#375=VERTEX_POINT('',#374) ;
#393=VERTEX_POINT('',#392) ;
#395=VERTEX_POINT('',#394) ;
#402=VERTEX_POINT('',#401) ;
#409=VERTEX_POINT('',#408) ;
#427=VERTEX_POINT('',#426) ;
#429=VERTEX_POINT('',#428) ;
#436=VERTEX_POINT('',#435) ;
#443=VERTEX_POINT('',#442) ;
#461=VERTEX_POINT('',#460) ;
#463=VERTEX_POINT('',#462) ;
#470=VERTEX_POINT('',#469) ;
#477=VERTEX_POINT('',#476) ;
#495=VERTEX_POINT('',#494) ;
#497=VERTEX_POINT('',#496) ;
#504=VERTEX_POINT('',#503) ;
#511=VERTEX_POINT('',#510) ;
#529=VERTEX_POINT('',#528) ;
#531=VERTEX_POINT('',#530) ;
#538=VERTEX_POINT('',#537) ;
#545=VERTEX_POINT('',#544) ;
#563=VERTEX_POINT('',#562) ;
#565=VERTEX_POINT('',#564) ;
#572=VERTEX_POINT('',#571) ;
#579=VERTEX_POINT('',#578) ;
#597=VERTEX_POINT('',#596) ;
#599=VERTEX_POINT('',#598) ;
#606=VERTEX_POINT('',#605) ;
#613=VERTEX_POINT('',#612) ;
#637=VERTEX_POINT('',#636) ;
#639=VERTEX_POINT('',#638) ;
#646=VERTEX_POINT('',#645) ;
#653=VERTEX_POINT('',#652) ;
#660=VERTEX_POINT('',#659) ;
#667=VERTEX_POINT('',#666) ;
#674=VERTEX_POINT('',#673) ;
#681=VERTEX_POINT('',#680) ;
#703=VERTEX_POINT('',#702) ;
#705=VERTEX_POINT('',#704) ;
#712=VERTEX_POINT('',#711) ;
#719=VERTEX_POINT('',#718) ;
#737=VERTEX_POINT('',#736) ;
#739=VERTEX_POINT('',#738) ;
#746=VERTEX_POINT('',#745) ;
#753=VERTEX_POINT('',#752) ;
#771=VERTEX_POINT('',#770) ;
#773=VERTEX_POINT('',#772) ;
#780=VERTEX_POINT('',#779) ;
#787=VERTEX_POINT('',#786) ;
#811=VERTEX_POINT('',#810) ;
#813=VERTEX_POINT('',#812) ;
#820=VERTEX_POINT('',#819) ;
#827=VERTEX_POINT('',#826) ;
#845=VERTEX_POINT('',#844) ;
#847=VERTEX_POINT('',#846) ;
#854=VERTEX_POINT('',#853) ;
#861=VERTEX_POINT('',#860) ;
#879=VERTEX_POINT('',#878) ;
#881=VERTEX_POINT('',#880) ;
#888=VERTEX_POINT('',#887) ;
#895=VERTEX_POINT('',#894) ;
#913=VERTEX_POINT('',#912) ;
#915=VERTEX_POINT('',#914) ;
#922=VERTEX_POINT('',#921) ;
#929=VERTEX_POINT('',#928) ;
#947=VERTEX_POINT('',#946) ;
#949=VERTEX_POINT('',#948) ;
#956=VERTEX_POINT('',#955) ;
#963=VERTEX_POINT('',#962) ;
#981=VERTEX_POINT('',#980) ;
#983=VERTEX_POINT('',#982) ;
#990=VERTEX_POINT('',#989) ;
#997=VERTEX_POINT('',#996) ;
#1015=VERTEX_POINT('',#1014) ;
#1017=VERTEX_POINT('',#1016) ;
#1024=VERTEX_POINT('',#1023) ;
#1031=VERTEX_POINT('',#1030) ;
#1049=VERTEX_POINT('',#1048) ;
#1051=VERTEX_POINT('',#1050) ;
#1058=VERTEX_POINT('',#1057) ;
#1065=VERTEX_POINT('',#1064) ;
#41=(LENGTH_UNIT()NAMED_UNIT(*)SI_UNIT(.MILLI.,.METRE.)) ;
#42=(NAMED_UNIT(*)PLANE_ANGLE_UNIT()SI_UNIT($,.RADIAN.)) ;
#43=(NAMED_UNIT(*)SI_UNIT($,.STERADIAN.)SOLID_ANGLE_UNIT()) ;
#45=(GEOMETRIC_REPRESENTATION_CONTEXT(3)GLOBAL_UNCERTAINTY_ASSIGNED_CONTEXT((#44))GLOBAL_UNIT_ASSIGNED_CONTEXT((#41,#42,#43))REPRESENTATION_CONTEXT(' ',' ')) ;
ENDSEC;
END-ISO-10303-21;
