ISO-10303-21;
HEADER;
FILE_DESCRIPTION(('CATIA V5 STEP Exchange','CAx-IF Rec.Pracs.--- Composite Materials ---3.4---2017-06-13'),'2;1');

FILE_NAME('C:\\Users\\PH\\Desktop\\\X2\5DE5521B72696D418D446599\X0\\\1\X2\7ED367846A21578B53CA\X0\PCB\\\X2\7ED367846A21578B\X0\\\\X2\6253537090E84EF6\X0\\\lianjie3.stp','2026-05-13T13:45:49+00:00',('none'),('none'),'CATIA Version 5-6 Release 2021 SP7','CATIA V5 STEP AP203 v2','none');

FILE_SCHEMA(('CONFIG_CONTROL_DESIGN'));

ENDSEC;
DATA;
#5=PRODUCT('\X2\5E95677F8FDE63A54EF6\X0\3','\X2\5E95677F8FDE63A54EF6\X0\3','',(#2)) ;
#1=APPLICATION_CONTEXT('configuration controlled 3D design of mechanical parts and assemblies') ;
#14=PRODUCT_DEFINITION('\X2\93C8\X0\',' ',#6,#3) ;
#16=SECURITY_CLASSIFICATION(' ',' ',#15) ;
#15=SECURITY_CLASSIFICATION_LEVEL('unclassified') ;
#46=CARTESIAN_POINT(' ',(0.,0.,0.)) ;
#51=CARTESIAN_POINT('Axis2P3D Location',(30.9931398964,3.,6.5)) ;
#56=CARTESIAN_POINT('Line Origine',(29.9931398964,0.,6.5)) ;
#60=CARTESIAN_POINT('Vertex',(30.9931398964,0.,6.5)) ;
#62=CARTESIAN_POINT('Vertex',(28.9931398964,0.,6.5)) ;
#65=CARTESIAN_POINT('Line Origine',(28.9931398964,1.5,6.5)) ;
#69=CARTESIAN_POINT('Vertex',(28.9931398964,3.,6.5)) ;
#72=CARTESIAN_POINT('Line Origine',(29.9931398964,3.,6.5)) ;
#76=CARTESIAN_POINT('Vertex',(30.9931398964,3.,6.5)) ;
#79=CARTESIAN_POINT('Line Origine',(30.9931398964,1.5,6.5)) ;
#91=CARTESIAN_POINT('Axis2P3D Location',(30.9931398964,-7.,5.)) ;
#96=CARTESIAN_POINT('Axis2P3D Location',(30.9931398964,0.,5.)) ;
#100=CARTESIAN_POINT('Vertex',(30.9931398964,0.,3.5)) ;
#103=CARTESIAN_POINT('Axis2P3D Location',(30.9931398964,3.,5.)) ;
#107=CARTESIAN_POINT('Vertex',(30.9931398964,3.,3.5)) ;
#110=CARTESIAN_POINT('Line Origine',(30.9931398964,-7.,3.5)) ;
#122=CARTESIAN_POINT('Axis2P3D Location',(28.9931398964,-7.,5.)) ;
#127=CARTESIAN_POINT('Axis2P3D Location',(28.9931398964,0.,5.)) ;
#131=CARTESIAN_POINT('Vertex',(28.9931398964,0.,3.5)) ;
#134=CARTESIAN_POINT('Line Origine',(28.9931398964,-7.,3.5)) ;
#138=CARTESIAN_POINT('Vertex',(28.9931398964,3.,3.5)) ;
#141=CARTESIAN_POINT('Axis2P3D Location',(28.9931398964,3.,5.)) ;
#153=CARTESIAN_POINT('Axis2P3D Location',(28.9931398964,3.,3.5)) ;
#158=CARTESIAN_POINT('Line Origine',(29.9931398964,0.,3.5)) ;
#163=CARTESIAN_POINT('Line Origine',(29.9931398964,3.,3.5)) ;
#175=CARTESIAN_POINT('Axis2P3D Location',(0.,0.,0.)) ;
#180=CARTESIAN_POINT('Axis2P3D Location',(-44.5,0.,-4.5)) ;
#184=CARTESIAN_POINT('Vertex',(-44.5,0.,-7.5)) ;
#186=CARTESIAN_POINT('Vertex',(-47.5,0.,-4.5)) ;
#189=CARTESIAN_POINT('Line Origine',(0.,0.,-7.5)) ;
#193=CARTESIAN_POINT('Vertex',(44.5,0.,-7.5)) ;
#196=CARTESIAN_POINT('Axis2P3D Location',(44.5,0.,-4.5)) ;
#200=CARTESIAN_POINT('Vertex',(47.5,0.,-4.5)) ;
#203=CARTESIAN_POINT('Line Origine',(47.5,0.,0.)) ;
#207=CARTESIAN_POINT('Vertex',(47.5,0.,4.5)) ;
#210=CARTESIAN_POINT('Axis2P3D Location',(44.5,0.,4.5)) ;
#214=CARTESIAN_POINT('Vertex',(44.5,0.,7.5)) ;
#217=CARTESIAN_POINT('Line Origine',(0.,0.,7.5)) ;
#221=CARTESIAN_POINT('Vertex',(-44.5,0.,7.5)) ;
#224=CARTESIAN_POINT('Axis2P3D Location',(-44.5,0.,4.5)) ;
#228=CARTESIAN_POINT('Vertex',(-47.5,0.,4.5)) ;
#231=CARTESIAN_POINT('Line Origine',(-47.5,0.,0.)) ;
#252=CARTESIAN_POINT('Line Origine',(14.9931398964,0.,3.5)) ;
#256=CARTESIAN_POINT('Vertex',(13.9931398964,0.,3.5)) ;
#258=CARTESIAN_POINT('Vertex',(15.9931398964,0.,3.5)) ;
#261=CARTESIAN_POINT('Axis2P3D Location',(13.9931398964,0.,5.)) ;
#265=CARTESIAN_POINT('Vertex',(13.9931398964,0.,6.5)) ;
#268=CARTESIAN_POINT('Line Origine',(14.9931398964,0.,6.5)) ;
#272=CARTESIAN_POINT('Vertex',(15.9931398964,0.,6.5)) ;
#275=CARTESIAN_POINT('Axis2P3D Location',(15.9931398964,0.,5.)) ;
#286=CARTESIAN_POINT('Line Origine',(29.9931398964,0.,-6.5)) ;
#290=CARTESIAN_POINT('Vertex',(28.9931398964,0.,-6.5)) ;
#292=CARTESIAN_POINT('Vertex',(30.9931398964,0.,-6.5)) ;
#295=CARTESIAN_POINT('Axis2P3D Location',(28.9931398964,0.,-5.)) ;
#299=CARTESIAN_POINT('Vertex',(28.9931398964,0.,-3.5)) ;
#302=CARTESIAN_POINT('Line Origine',(29.9931398964,0.,-3.5)) ;
#306=CARTESIAN_POINT('Vertex',(30.9931398964,0.,-3.5)) ;
#309=CARTESIAN_POINT('Axis2P3D Location',(30.9931398964,0.,-5.)) ;
#320=CARTESIAN_POINT('Line Origine',(14.9931398964,0.,-6.5)) ;
#324=CARTESIAN_POINT('Vertex',(13.9931398964,0.,-6.5)) ;
#326=CARTESIAN_POINT('Vertex',(15.9931398964,0.,-6.5)) ;
#329=CARTESIAN_POINT('Axis2P3D Location',(13.9931398964,0.,-5.)) ;
#333=CARTESIAN_POINT('Vertex',(13.9931398964,0.,-3.5)) ;
#336=CARTESIAN_POINT('Line Origine',(14.9931398964,0.,-3.5)) ;
#340=CARTESIAN_POINT('Vertex',(15.9931398964,0.,-3.5)) ;
#343=CARTESIAN_POINT('Axis2P3D Location',(15.9931398964,0.,-5.)) ;
#354=CARTESIAN_POINT('Line Origine',(-15.0068601036,0.,3.5)) ;
#358=CARTESIAN_POINT('Vertex',(-16.0068601036,0.,3.5)) ;
#360=CARTESIAN_POINT('Vertex',(-14.0068601036,0.,3.5)) ;
#363=CARTESIAN_POINT('Axis2P3D Location',(-16.0068601036,0.,5.)) ;
#367=CARTESIAN_POINT('Vertex',(-16.0068601036,0.,6.5)) ;
#370=CARTESIAN_POINT('Line Origine',(-15.0068601036,0.,6.5)) ;
#374=CARTESIAN_POINT('Vertex',(-14.0068601036,0.,6.5)) ;
#377=CARTESIAN_POINT('Axis2P3D Location',(-14.0068601036,0.,5.)) ;
#388=CARTESIAN_POINT('Line Origine',(-15.0068601036,0.,-6.5)) ;
#392=CARTESIAN_POINT('Vertex',(-16.0068601036,0.,-6.5)) ;
#394=CARTESIAN_POINT('Vertex',(-14.0068601036,0.,-6.5)) ;
#397=CARTESIAN_POINT('Axis2P3D Location',(-16.0068601036,0.,-5.)) ;
#401=CARTESIAN_POINT('Vertex',(-16.0068601036,0.,-3.5)) ;
#404=CARTESIAN_POINT('Line Origine',(-15.0068601036,0.,-3.5)) ;
#408=CARTESIAN_POINT('Vertex',(-14.0068601036,0.,-3.5)) ;
#411=CARTESIAN_POINT('Axis2P3D Location',(-14.0068601036,0.,-5.)) ;
#422=CARTESIAN_POINT('Line Origine',(-30.0068601036,0.,3.5)) ;
#426=CARTESIAN_POINT('Vertex',(-31.0068601036,0.,3.5)) ;
#428=CARTESIAN_POINT('Vertex',(-29.0068601036,0.,3.5)) ;
#431=CARTESIAN_POINT('Axis2P3D Location',(-31.0068601036,0.,5.)) ;
#435=CARTESIAN_POINT('Vertex',(-31.0068601036,0.,6.5)) ;
#438=CARTESIAN_POINT('Line Origine',(-30.0068601036,0.,6.5)) ;
#442=CARTESIAN_POINT('Vertex',(-29.0068601036,0.,6.5)) ;
#445=CARTESIAN_POINT('Axis2P3D Location',(-29.0068601036,0.,5.)) ;
#456=CARTESIAN_POINT('Line Origine',(-30.0068601036,0.,-6.5)) ;
#460=CARTESIAN_POINT('Vertex',(-31.0068601036,0.,-6.5)) ;
#462=CARTESIAN_POINT('Vertex',(-29.0068601036,0.,-6.5)) ;
#465=CARTESIAN_POINT('Axis2P3D Location',(-31.0068601036,0.,-5.)) ;
#469=CARTESIAN_POINT('Vertex',(-31.0068601036,0.,-3.5)) ;
#472=CARTESIAN_POINT('Line Origine',(-30.0068601036,0.,-3.5)) ;
#476=CARTESIAN_POINT('Vertex',(-29.0068601036,0.,-3.5)) ;
#479=CARTESIAN_POINT('Axis2P3D Location',(-29.0068601036,0.,-5.)) ;
#491=CARTESIAN_POINT('Axis2P3D Location',(0.,3.,0.)) ;
#496=CARTESIAN_POINT('Line Origine',(-47.5,3.,0.)) ;
#500=CARTESIAN_POINT('Vertex',(-47.5,3.,-4.5)) ;
#502=CARTESIAN_POINT('Vertex',(-47.5,3.,4.5)) ;
#505=CARTESIAN_POINT('Axis2P3D Location',(-44.5,3.,4.5)) ;
#509=CARTESIAN_POINT('Vertex',(-44.5,3.,7.5)) ;
#512=CARTESIAN_POINT('Line Origine',(0.,3.,7.5)) ;
#516=CARTESIAN_POINT('Vertex',(44.5,3.,7.5)) ;
#519=CARTESIAN_POINT('Axis2P3D Location',(44.5,3.,4.5)) ;
#523=CARTESIAN_POINT('Vertex',(47.5,3.,4.5)) ;
#526=CARTESIAN_POINT('Line Origine',(47.5,3.,0.)) ;
#530=CARTESIAN_POINT('Vertex',(47.5,3.,-4.5)) ;
#533=CARTESIAN_POINT('Axis2P3D Location',(44.5,3.,-4.5)) ;
#537=CARTESIAN_POINT('Vertex',(44.5,3.,-7.5)) ;
#540=CARTESIAN_POINT('Line Origine',(0.,3.,-7.5)) ;
#544=CARTESIAN_POINT('Vertex',(-44.5,3.,-7.5)) ;
#547=CARTESIAN_POINT('Axis2P3D Location',(-44.5,3.,-4.5)) ;
#568=CARTESIAN_POINT('Axis2P3D Location',(13.9931398964,3.,5.)) ;
#572=CARTESIAN_POINT('Vertex',(13.9931398964,3.,3.5)) ;
#574=CARTESIAN_POINT('Vertex',(13.9931398964,3.,6.5)) ;
#577=CARTESIAN_POINT('Line Origine',(14.9931398964,3.,3.5)) ;
#581=CARTESIAN_POINT('Vertex',(15.9931398964,3.,3.5)) ;
#584=CARTESIAN_POINT('Axis2P3D Location',(15.9931398964,3.,5.)) ;
#588=CARTESIAN_POINT('Vertex',(15.9931398964,3.,6.5)) ;
#591=CARTESIAN_POINT('Line Origine',(14.9931398964,3.,6.5)) ;
#602=CARTESIAN_POINT('Axis2P3D Location',(28.9931398964,3.,-5.)) ;
#606=CARTESIAN_POINT('Vertex',(28.9931398964,3.,-6.5)) ;
#608=CARTESIAN_POINT('Vertex',(28.9931398964,3.,-3.5)) ;
#611=CARTESIAN_POINT('Line Origine',(29.9931398964,3.,-6.5)) ;
#615=CARTESIAN_POINT('Vertex',(30.9931398964,3.,-6.5)) ;
#618=CARTESIAN_POINT('Axis2P3D Location',(30.9931398964,3.,-5.)) ;
#622=CARTESIAN_POINT('Vertex',(30.9931398964,3.,-3.5)) ;
#625=CARTESIAN_POINT('Line Origine',(29.9931398964,3.,-3.5)) ;
#636=CARTESIAN_POINT('Axis2P3D Location',(13.9931398964,3.,-5.)) ;
#640=CARTESIAN_POINT('Vertex',(13.9931398964,3.,-6.5)) ;
#642=CARTESIAN_POINT('Vertex',(13.9931398964,3.,-3.5)) ;
#645=CARTESIAN_POINT('Line Origine',(14.9931398964,3.,-6.5)) ;
#649=CARTESIAN_POINT('Vertex',(15.9931398964,3.,-6.5)) ;
#652=CARTESIAN_POINT('Axis2P3D Location',(15.9931398964,3.,-5.)) ;
#656=CARTESIAN_POINT('Vertex',(15.9931398964,3.,-3.5)) ;
#659=CARTESIAN_POINT('Line Origine',(14.9931398964,3.,-3.5)) ;
#670=CARTESIAN_POINT('Axis2P3D Location',(-16.0068601036,3.,5.)) ;
#674=CARTESIAN_POINT('Vertex',(-16.0068601036,3.,3.5)) ;
#676=CARTESIAN_POINT('Vertex',(-16.0068601036,3.,6.5)) ;
#679=CARTESIAN_POINT('Line Origine',(-15.0068601036,3.,3.5)) ;
#683=CARTESIAN_POINT('Vertex',(-14.0068601036,3.,3.5)) ;
#686=CARTESIAN_POINT('Axis2P3D Location',(-14.0068601036,3.,5.)) ;
#690=CARTESIAN_POINT('Vertex',(-14.0068601036,3.,6.5)) ;
#693=CARTESIAN_POINT('Line Origine',(-15.0068601036,3.,6.5)) ;
#704=CARTESIAN_POINT('Axis2P3D Location',(-16.0068601036,3.,-5.)) ;
#708=CARTESIAN_POINT('Vertex',(-16.0068601036,3.,-6.5)) ;
#710=CARTESIAN_POINT('Vertex',(-16.0068601036,3.,-3.5)) ;
#713=CARTESIAN_POINT('Line Origine',(-15.0068601036,3.,-6.5)) ;
#717=CARTESIAN_POINT('Vertex',(-14.0068601036,3.,-6.5)) ;
#720=CARTESIAN_POINT('Axis2P3D Location',(-14.0068601036,3.,-5.)) ;
#724=CARTESIAN_POINT('Vertex',(-14.0068601036,3.,-3.5)) ;
#727=CARTESIAN_POINT('Line Origine',(-15.0068601036,3.,-3.5)) ;
#738=CARTESIAN_POINT('Axis2P3D Location',(-31.0068601036,3.,5.)) ;
#742=CARTESIAN_POINT('Vertex',(-31.0068601036,3.,3.5)) ;
#744=CARTESIAN_POINT('Vertex',(-31.0068601036,3.,6.5)) ;
#747=CARTESIAN_POINT('Line Origine',(-30.0068601036,3.,3.5)) ;
#751=CARTESIAN_POINT('Vertex',(-29.0068601036,3.,3.5)) ;
#754=CARTESIAN_POINT('Axis2P3D Location',(-29.0068601036,3.,5.)) ;
#758=CARTESIAN_POINT('Vertex',(-29.0068601036,3.,6.5)) ;
#761=CARTESIAN_POINT('Line Origine',(-30.0068601036,3.,6.5)) ;
#772=CARTESIAN_POINT('Axis2P3D Location',(-31.0068601036,3.,-5.)) ;
#776=CARTESIAN_POINT('Vertex',(-31.0068601036,3.,-6.5)) ;
#778=CARTESIAN_POINT('Vertex',(-31.0068601036,3.,-3.5)) ;
#781=CARTESIAN_POINT('Line Origine',(-30.0068601036,3.,-6.5)) ;
#785=CARTESIAN_POINT('Vertex',(-29.0068601036,3.,-6.5)) ;
#788=CARTESIAN_POINT('Axis2P3D Location',(-29.0068601036,3.,-5.)) ;
#792=CARTESIAN_POINT('Vertex',(-29.0068601036,3.,-3.5)) ;
#795=CARTESIAN_POINT('Line Origine',(-30.0068601036,3.,-3.5)) ;
#807=CARTESIAN_POINT('Axis2P3D Location',(-32.5,3.,-7.5)) ;
#812=CARTESIAN_POINT('Line Origine',(-44.5,1.5,-7.5)) ;
#817=CARTESIAN_POINT('Line Origine',(44.5,1.5,-7.5)) ;
#829=CARTESIAN_POINT('Axis2P3D Location',(44.5,1.5,-4.5)) ;
#834=CARTESIAN_POINT('Line Origine',(47.5,1.5,-4.5)) ;
#846=CARTESIAN_POINT('Axis2P3D Location',(-44.5,1.5,-4.5)) ;
#851=CARTESIAN_POINT('Line Origine',(-47.5,1.5,-4.5)) ;
#863=CARTESIAN_POINT('Axis2P3D Location',(-32.5,3.,7.5)) ;
#868=CARTESIAN_POINT('Line Origine',(-44.5,1.5,7.5)) ;
#873=CARTESIAN_POINT('Line Origine',(44.5,1.5,7.5)) ;
#885=CARTESIAN_POINT('Axis2P3D Location',(44.5,1.5,4.5)) ;
#890=CARTESIAN_POINT('Line Origine',(47.5,1.5,4.5)) ;
#902=CARTESIAN_POINT('Axis2P3D Location',(-44.5,1.5,4.5)) ;
#907=CARTESIAN_POINT('Line Origine',(-47.5,1.5,4.5)) ;
#919=CARTESIAN_POINT('Axis2P3D Location',(47.5,3.,-7.5)) ;
#931=CARTESIAN_POINT('Axis2P3D Location',(-47.5,3.,7.5)) ;
#943=CARTESIAN_POINT('Line Origine',(13.9931398964,1.5,6.5)) ;
#948=CARTESIAN_POINT('Line Origine',(15.9931398964,1.5,6.5)) ;
#960=CARTESIAN_POINT('Axis2P3D Location',(13.9931398964,-7.,5.)) ;
#965=CARTESIAN_POINT('Line Origine',(13.9931398964,-7.,3.5)) ;
#977=CARTESIAN_POINT('Line Origine',(15.9931398964,1.5,3.5)) ;
#989=CARTESIAN_POINT('Axis2P3D Location',(15.9931398964,-7.,5.)) ;
#1001=CARTESIAN_POINT('Axis2P3D Location',(30.9931398964,3.,-3.5)) ;
#1006=CARTESIAN_POINT('Line Origine',(28.9931398964,1.5,-3.5)) ;
#1011=CARTESIAN_POINT('Line Origine',(30.9931398964,1.5,-3.5)) ;
#1023=CARTESIAN_POINT('Axis2P3D Location',(28.9931398964,-7.,-5.)) ;
#1028=CARTESIAN_POINT('Line Origine',(28.9931398964,-7.,-6.5)) ;
#1040=CARTESIAN_POINT('Axis2P3D Location',(28.9931398964,3.,-6.5)) ;
#1045=CARTESIAN_POINT('Line Origine',(30.9931398964,1.5,-6.5)) ;
#1057=CARTESIAN_POINT('Axis2P3D Location',(30.9931398964,-7.,-5.)) ;
#1069=CARTESIAN_POINT('Axis2P3D Location',(15.9931398964,3.,-3.5)) ;
#1074=CARTESIAN_POINT('Line Origine',(13.9931398964,1.5,-3.5)) ;
#1079=CARTESIAN_POINT('Line Origine',(15.9931398964,1.5,-3.5)) ;
#1091=CARTESIAN_POINT('Axis2P3D Location',(13.9931398964,-7.,-5.)) ;
#1096=CARTESIAN_POINT('Line Origine',(13.9931398964,-7.,-6.5)) ;
#1108=CARTESIAN_POINT('Axis2P3D Location',(13.9931398964,3.,-6.5)) ;
#1113=CARTESIAN_POINT('Line Origine',(15.9931398964,1.5,-6.5)) ;
#1125=CARTESIAN_POINT('Axis2P3D Location',(15.9931398964,-7.,-5.)) ;
#1137=CARTESIAN_POINT('Line Origine',(-16.0068601036,1.5,6.5)) ;
#1142=CARTESIAN_POINT('Line Origine',(-14.0068601036,1.5,6.5)) ;
#1154=CARTESIAN_POINT('Axis2P3D Location',(-16.0068601036,-7.,5.)) ;
#1159=CARTESIAN_POINT('Line Origine',(-16.0068601036,-7.,3.5)) ;
#1171=CARTESIAN_POINT('Line Origine',(-14.0068601036,1.5,3.5)) ;
#1183=CARTESIAN_POINT('Axis2P3D Location',(-14.0068601036,-7.,5.)) ;
#1195=CARTESIAN_POINT('Axis2P3D Location',(-14.0068601036,3.,-3.5)) ;
#1200=CARTESIAN_POINT('Line Origine',(-16.0068601036,1.5,-3.5)) ;
#1205=CARTESIAN_POINT('Line Origine',(-14.0068601036,1.5,-3.5)) ;
#1217=CARTESIAN_POINT('Axis2P3D Location',(-16.0068601036,-7.,-5.)) ;
#1222=CARTESIAN_POINT('Line Origine',(-16.0068601036,-7.,-6.5)) ;
#1234=CARTESIAN_POINT('Axis2P3D Location',(-16.0068601036,3.,-6.5)) ;
#1239=CARTESIAN_POINT('Line Origine',(-14.0068601036,1.5,-6.5)) ;
#1251=CARTESIAN_POINT('Axis2P3D Location',(-14.0068601036,-7.,-5.)) ;
#1263=CARTESIAN_POINT('Line Origine',(-31.0068601036,1.5,6.5)) ;
#1268=CARTESIAN_POINT('Line Origine',(-29.0068601036,1.5,6.5)) ;
#1280=CARTESIAN_POINT('Axis2P3D Location',(-31.0068601036,-7.,5.)) ;
#1285=CARTESIAN_POINT('Line Origine',(-31.0068601036,-7.,3.5)) ;
#1297=CARTESIAN_POINT('Line Origine',(-29.0068601036,1.5,3.5)) ;
#1309=CARTESIAN_POINT('Axis2P3D Location',(-29.0068601036,-7.,5.)) ;
#1321=CARTESIAN_POINT('Axis2P3D Location',(-29.0068601036,3.,-3.5)) ;
#1326=CARTESIAN_POINT('Line Origine',(-31.0068601036,1.5,-3.5)) ;
#1331=CARTESIAN_POINT('Line Origine',(-29.0068601036,1.5,-3.5)) ;
#1343=CARTESIAN_POINT('Axis2P3D Location',(-31.0068601036,-7.,-5.)) ;
#1348=CARTESIAN_POINT('Line Origine',(-31.0068601036,-7.,-6.5)) ;
#1360=CARTESIAN_POINT('Axis2P3D Location',(-31.0068601036,3.,-6.5)) ;
#1365=CARTESIAN_POINT('Line Origine',(-29.0068601036,1.5,-6.5)) ;
#1377=CARTESIAN_POINT('Axis2P3D Location',(-29.0068601036,-7.,-5.)) ;
#52=DIRECTION('Axis2P3D Direction',(0.,0.,1.)) ;
#53=DIRECTION('Axis2P3D XDirection',(-1.,-0.,0.)) ;
#57=DIRECTION('Vector Direction',(-1.,0.,0.)) ;
#66=DIRECTION('Vector Direction',(0.,-1.,0.)) ;
#73=DIRECTION('Vector Direction',(-1.,0.,0.)) ;
#80=DIRECTION('Vector Direction',(0.,-1.,0.)) ;
#92=DIRECTION('Axis2P3D Direction',(0.,1.,0.)) ;
#93=DIRECTION('Axis2P3D XDirection',(-6.12323399574E-17,-0.,1.)) ;
#97=DIRECTION('Axis2P3D Direction',(0.,1.,0.)) ;
#104=DIRECTION('Axis2P3D Direction',(0.,1.,0.)) ;
#111=DIRECTION('Vector Direction',(0.,1.,0.)) ;
#123=DIRECTION('Axis2P3D Direction',(0.,1.,0.)) ;
#124=DIRECTION('Axis2P3D XDirection',(1.83697019872E-16,0.,-1.)) ;
#128=DIRECTION('Axis2P3D Direction',(0.,1.,0.)) ;
#135=DIRECTION('Vector Direction',(0.,1.,0.)) ;
#142=DIRECTION('Axis2P3D Direction',(0.,1.,0.)) ;
#154=DIRECTION('Axis2P3D Direction',(0.,0.,-1.)) ;
#155=DIRECTION('Axis2P3D XDirection',(1.,0.,0.)) ;
#159=DIRECTION('Vector Direction',(1.,0.,0.)) ;
#164=DIRECTION('Vector Direction',(1.,0.,0.)) ;
#176=DIRECTION('Axis2P3D Direction',(0.,1.,0.)) ;
#177=DIRECTION('Axis2P3D XDirection',(0.,-0.,1.)) ;
#181=DIRECTION('Axis2P3D Direction',(0.,1.,0.)) ;
#190=DIRECTION('Vector Direction',(1.,0.,0.)) ;
#197=DIRECTION('Axis2P3D Direction',(0.,1.,0.)) ;
#204=DIRECTION('Vector Direction',(0.,0.,1.)) ;
#211=DIRECTION('Axis2P3D Direction',(0.,1.,0.)) ;
#218=DIRECTION('Vector Direction',(-1.,0.,0.)) ;
#225=DIRECTION('Axis2P3D Direction',(0.,1.,0.)) ;
#232=DIRECTION('Vector Direction',(0.,0.,-1.)) ;
#253=DIRECTION('Vector Direction',(1.,0.,0.)) ;
#262=DIRECTION('Axis2P3D Direction',(0.,1.,0.)) ;
#269=DIRECTION('Vector Direction',(-1.,0.,0.)) ;
#276=DIRECTION('Axis2P3D Direction',(0.,1.,0.)) ;
#287=DIRECTION('Vector Direction',(1.,0.,0.)) ;
#296=DIRECTION('Axis2P3D Direction',(0.,1.,0.)) ;
#303=DIRECTION('Vector Direction',(-1.,0.,0.)) ;
#310=DIRECTION('Axis2P3D Direction',(0.,1.,0.)) ;
#321=DIRECTION('Vector Direction',(1.,0.,0.)) ;
#330=DIRECTION('Axis2P3D Direction',(0.,1.,0.)) ;
#337=DIRECTION('Vector Direction',(-1.,0.,0.)) ;
#344=DIRECTION('Axis2P3D Direction',(0.,1.,0.)) ;
#355=DIRECTION('Vector Direction',(1.,0.,0.)) ;
#364=DIRECTION('Axis2P3D Direction',(0.,1.,0.)) ;
#371=DIRECTION('Vector Direction',(-1.,0.,0.)) ;
#378=DIRECTION('Axis2P3D Direction',(0.,1.,0.)) ;
#389=DIRECTION('Vector Direction',(1.,0.,0.)) ;
#398=DIRECTION('Axis2P3D Direction',(0.,1.,0.)) ;
#405=DIRECTION('Vector Direction',(-1.,0.,0.)) ;
#412=DIRECTION('Axis2P3D Direction',(0.,1.,0.)) ;
#423=DIRECTION('Vector Direction',(1.,0.,0.)) ;
#432=DIRECTION('Axis2P3D Direction',(0.,1.,0.)) ;
#439=DIRECTION('Vector Direction',(-1.,0.,0.)) ;
#446=DIRECTION('Axis2P3D Direction',(0.,1.,0.)) ;
#457=DIRECTION('Vector Direction',(1.,0.,0.)) ;
#466=DIRECTION('Axis2P3D Direction',(0.,1.,0.)) ;
#473=DIRECTION('Vector Direction',(-1.,0.,0.)) ;
#480=DIRECTION('Axis2P3D Direction',(0.,1.,0.)) ;
#492=DIRECTION('Axis2P3D Direction',(0.,1.,0.)) ;
#493=DIRECTION('Axis2P3D XDirection',(0.,-0.,1.)) ;
#497=DIRECTION('Vector Direction',(0.,0.,-1.)) ;
#506=DIRECTION('Axis2P3D Direction',(0.,1.,0.)) ;
#513=DIRECTION('Vector Direction',(-1.,0.,0.)) ;
#520=DIRECTION('Axis2P3D Direction',(0.,1.,0.)) ;
#527=DIRECTION('Vector Direction',(0.,0.,1.)) ;
#534=DIRECTION('Axis2P3D Direction',(0.,1.,0.)) ;
#541=DIRECTION('Vector Direction',(1.,0.,0.)) ;
#548=DIRECTION('Axis2P3D Direction',(0.,1.,0.)) ;
#569=DIRECTION('Axis2P3D Direction',(0.,1.,0.)) ;
#578=DIRECTION('Vector Direction',(1.,0.,0.)) ;
#585=DIRECTION('Axis2P3D Direction',(0.,1.,0.)) ;
#592=DIRECTION('Vector Direction',(-1.,0.,0.)) ;
#603=DIRECTION('Axis2P3D Direction',(0.,1.,0.)) ;
#612=DIRECTION('Vector Direction',(1.,0.,0.)) ;
#619=DIRECTION('Axis2P3D Direction',(0.,1.,0.)) ;
#626=DIRECTION('Vector Direction',(-1.,0.,0.)) ;
#637=DIRECTION('Axis2P3D Direction',(0.,1.,0.)) ;
#646=DIRECTION('Vector Direction',(1.,0.,0.)) ;
#653=DIRECTION('Axis2P3D Direction',(0.,1.,0.)) ;
#660=DIRECTION('Vector Direction',(-1.,0.,0.)) ;
#671=DIRECTION('Axis2P3D Direction',(0.,1.,0.)) ;
#680=DIRECTION('Vector Direction',(1.,0.,0.)) ;
#687=DIRECTION('Axis2P3D Direction',(0.,1.,0.)) ;
#694=DIRECTION('Vector Direction',(-1.,0.,0.)) ;
#705=DIRECTION('Axis2P3D Direction',(0.,1.,0.)) ;
#714=DIRECTION('Vector Direction',(1.,0.,0.)) ;
#721=DIRECTION('Axis2P3D Direction',(0.,1.,0.)) ;
#728=DIRECTION('Vector Direction',(-1.,0.,0.)) ;
#739=DIRECTION('Axis2P3D Direction',(0.,1.,0.)) ;
#748=DIRECTION('Vector Direction',(1.,0.,0.)) ;
#755=DIRECTION('Axis2P3D Direction',(0.,1.,0.)) ;
#762=DIRECTION('Vector Direction',(-1.,0.,0.)) ;
#773=DIRECTION('Axis2P3D Direction',(0.,1.,0.)) ;
#782=DIRECTION('Vector Direction',(1.,0.,0.)) ;
#789=DIRECTION('Axis2P3D Direction',(0.,1.,0.)) ;
#796=DIRECTION('Vector Direction',(-1.,0.,0.)) ;
#808=DIRECTION('Axis2P3D Direction',(0.,0.,1.)) ;
#809=DIRECTION('Axis2P3D XDirection',(1.,0.,-0.)) ;
#813=DIRECTION('Vector Direction',(0.,-1.,0.)) ;
#818=DIRECTION('Vector Direction',(0.,-1.,0.)) ;
#830=DIRECTION('Axis2P3D Direction',(0.,-1.,0.)) ;
#831=DIRECTION('Axis2P3D XDirection',(-1.83697019872E-16,-0.,-1.)) ;
#835=DIRECTION('Vector Direction',(0.,-1.,0.)) ;
#847=DIRECTION('Axis2P3D Direction',(0.,-1.,0.)) ;
#848=DIRECTION('Axis2P3D XDirection',(-1.,-0.,1.83697019872E-16)) ;
#852=DIRECTION('Vector Direction',(0.,-1.,0.)) ;
#864=DIRECTION('Axis2P3D Direction',(0.,0.,-1.)) ;
#865=DIRECTION('Axis2P3D XDirection',(-1.,0.,-0.)) ;
#869=DIRECTION('Vector Direction',(0.,-1.,0.)) ;
#874=DIRECTION('Vector Direction',(0.,-1.,0.)) ;
#886=DIRECTION('Axis2P3D Direction',(0.,-1.,0.)) ;
#887=DIRECTION('Axis2P3D XDirection',(1.,-0.,-1.83697019872E-16)) ;
#891=DIRECTION('Vector Direction',(0.,-1.,0.)) ;
#903=DIRECTION('Axis2P3D Direction',(0.,-1.,0.)) ;
#904=DIRECTION('Axis2P3D XDirection',(1.83697019872E-16,0.,1.)) ;
#908=DIRECTION('Vector Direction',(0.,-1.,0.)) ;
#920=DIRECTION('Axis2P3D Direction',(1.,0.,-0.)) ;
#921=DIRECTION('Axis2P3D XDirection',(0.,0.,1.)) ;
#932=DIRECTION('Axis2P3D Direction',(-1.,0.,0.)) ;
#933=DIRECTION('Axis2P3D XDirection',(-0.,0.,-1.)) ;
#944=DIRECTION('Vector Direction',(0.,-1.,0.)) ;
#949=DIRECTION('Vector Direction',(0.,-1.,0.)) ;
#961=DIRECTION('Axis2P3D Direction',(0.,1.,0.)) ;
#962=DIRECTION('Axis2P3D XDirection',(1.83697019872E-16,0.,-1.)) ;
#966=DIRECTION('Vector Direction',(0.,1.,0.)) ;
#978=DIRECTION('Vector Direction',(0.,-1.,0.)) ;
#990=DIRECTION('Axis2P3D Direction',(0.,1.,0.)) ;
#991=DIRECTION('Axis2P3D XDirection',(-6.12323399574E-17,-0.,1.)) ;
#1002=DIRECTION('Axis2P3D Direction',(0.,0.,1.)) ;
#1003=DIRECTION('Axis2P3D XDirection',(-1.,-0.,0.)) ;
#1007=DIRECTION('Vector Direction',(0.,-1.,0.)) ;
#1012=DIRECTION('Vector Direction',(0.,-1.,0.)) ;
#1024=DIRECTION('Axis2P3D Direction',(0.,1.,0.)) ;
#1025=DIRECTION('Axis2P3D XDirection',(1.83697019872E-16,0.,-1.)) ;
#1029=DIRECTION('Vector Direction',(0.,1.,0.)) ;
#1041=DIRECTION('Axis2P3D Direction',(0.,0.,-1.)) ;
#1042=DIRECTION('Axis2P3D XDirection',(1.,0.,0.)) ;
#1046=DIRECTION('Vector Direction',(0.,-1.,0.)) ;
#1058=DIRECTION('Axis2P3D Direction',(0.,1.,0.)) ;
#1059=DIRECTION('Axis2P3D XDirection',(-6.12323399574E-17,-0.,1.)) ;
#1070=DIRECTION('Axis2P3D Direction',(0.,0.,1.)) ;
#1071=DIRECTION('Axis2P3D XDirection',(-1.,-0.,0.)) ;
#1075=DIRECTION('Vector Direction',(0.,-1.,0.)) ;
#1080=DIRECTION('Vector Direction',(0.,-1.,0.)) ;
#1092=DIRECTION('Axis2P3D Direction',(0.,1.,0.)) ;
#1093=DIRECTION('Axis2P3D XDirection',(1.83697019872E-16,0.,-1.)) ;
#1097=DIRECTION('Vector Direction',(0.,1.,0.)) ;
#1109=DIRECTION('Axis2P3D Direction',(0.,0.,-1.)) ;
#1110=DIRECTION('Axis2P3D XDirection',(1.,0.,0.)) ;
#1114=DIRECTION('Vector Direction',(0.,-1.,0.)) ;
#1126=DIRECTION('Axis2P3D Direction',(0.,1.,0.)) ;
#1127=DIRECTION('Axis2P3D XDirection',(-6.12323399574E-17,-0.,1.)) ;
#1138=DIRECTION('Vector Direction',(0.,-1.,0.)) ;
#1143=DIRECTION('Vector Direction',(0.,-1.,0.)) ;
#1155=DIRECTION('Axis2P3D Direction',(0.,1.,0.)) ;
#1156=DIRECTION('Axis2P3D XDirection',(1.83697019872E-16,0.,-1.)) ;
#1160=DIRECTION('Vector Direction',(0.,1.,0.)) ;
#1172=DIRECTION('Vector Direction',(0.,-1.,0.)) ;
#1184=DIRECTION('Axis2P3D Direction',(0.,1.,0.)) ;
#1185=DIRECTION('Axis2P3D XDirection',(-6.12323399574E-17,-0.,1.)) ;
#1196=DIRECTION('Axis2P3D Direction',(0.,0.,1.)) ;
#1197=DIRECTION('Axis2P3D XDirection',(-1.,-0.,0.)) ;
#1201=DIRECTION('Vector Direction',(0.,-1.,0.)) ;
#1206=DIRECTION('Vector Direction',(0.,-1.,0.)) ;
#1218=DIRECTION('Axis2P3D Direction',(0.,1.,0.)) ;
#1219=DIRECTION('Axis2P3D XDirection',(1.83697019872E-16,0.,-1.)) ;
#1223=DIRECTION('Vector Direction',(0.,1.,0.)) ;
#1235=DIRECTION('Axis2P3D Direction',(0.,0.,-1.)) ;
#1236=DIRECTION('Axis2P3D XDirection',(1.,0.,0.)) ;
#1240=DIRECTION('Vector Direction',(0.,-1.,0.)) ;
#1252=DIRECTION('Axis2P3D Direction',(0.,1.,0.)) ;
#1253=DIRECTION('Axis2P3D XDirection',(-6.12323399574E-17,-0.,1.)) ;
#1264=DIRECTION('Vector Direction',(0.,-1.,0.)) ;
#1269=DIRECTION('Vector Direction',(0.,-1.,0.)) ;
#1281=DIRECTION('Axis2P3D Direction',(0.,1.,0.)) ;
#1282=DIRECTION('Axis2P3D XDirection',(1.83697019872E-16,0.,-1.)) ;
#1286=DIRECTION('Vector Direction',(0.,1.,0.)) ;
#1298=DIRECTION('Vector Direction',(0.,-1.,0.)) ;
#1310=DIRECTION('Axis2P3D Direction',(0.,1.,0.)) ;
#1311=DIRECTION('Axis2P3D XDirection',(-6.12323399574E-17,-0.,1.)) ;
#1322=DIRECTION('Axis2P3D Direction',(0.,0.,1.)) ;
#1323=DIRECTION('Axis2P3D XDirection',(-1.,-0.,0.)) ;
#1327=DIRECTION('Vector Direction',(0.,-1.,0.)) ;
#1332=DIRECTION('Vector Direction',(0.,-1.,0.)) ;
#1344=DIRECTION('Axis2P3D Direction',(0.,1.,0.)) ;
#1345=DIRECTION('Axis2P3D XDirection',(1.83697019872E-16,0.,-1.)) ;
#1349=DIRECTION('Vector Direction',(0.,1.,0.)) ;
#1361=DIRECTION('Axis2P3D Direction',(0.,0.,-1.)) ;
#1362=DIRECTION('Axis2P3D XDirection',(1.,0.,0.)) ;
#1366=DIRECTION('Vector Direction',(0.,-1.,0.)) ;
#1378=DIRECTION('Axis2P3D Direction',(0.,1.,0.)) ;
#1379=DIRECTION('Axis2P3D XDirection',(-6.12323399574E-17,-0.,1.)) ;
#47=AXIS2_PLACEMENT_3D(' ',#46,$,$) ;
#54=AXIS2_PLACEMENT_3D('Plane Axis2P3D',#51,#52,#53) ;
#94=AXIS2_PLACEMENT_3D('Cylinder Axis2P3D',#91,#92,#93) ;
#98=AXIS2_PLACEMENT_3D('Circle Axis2P3D',#96,#97,$) ;
#105=AXIS2_PLACEMENT_3D('Circle Axis2P3D',#103,#104,$) ;
#125=AXIS2_PLACEMENT_3D('Cylinder Axis2P3D',#122,#123,#124) ;
#129=AXIS2_PLACEMENT_3D('Circle Axis2P3D',#127,#128,$) ;
#143=AXIS2_PLACEMENT_3D('Circle Axis2P3D',#141,#142,$) ;
#156=AXIS2_PLACEMENT_3D('Plane Axis2P3D',#153,#154,#155) ;
#178=AXIS2_PLACEMENT_3D('Plane Axis2P3D',#175,#176,#177) ;
#182=AXIS2_PLACEMENT_3D('Circle Axis2P3D',#180,#181,$) ;
#198=AXIS2_PLACEMENT_3D('Circle Axis2P3D',#196,#197,$) ;
#212=AXIS2_PLACEMENT_3D('Circle Axis2P3D',#210,#211,$) ;
#226=AXIS2_PLACEMENT_3D('Circle Axis2P3D',#224,#225,$) ;
#263=AXIS2_PLACEMENT_3D('Circle Axis2P3D',#261,#262,$) ;
#277=AXIS2_PLACEMENT_3D('Circle Axis2P3D',#275,#276,$) ;
#297=AXIS2_PLACEMENT_3D('Circle Axis2P3D',#295,#296,$) ;
#311=AXIS2_PLACEMENT_3D('Circle Axis2P3D',#309,#310,$) ;
#331=AXIS2_PLACEMENT_3D('Circle Axis2P3D',#329,#330,$) ;
#345=AXIS2_PLACEMENT_3D('Circle Axis2P3D',#343,#344,$) ;
#365=AXIS2_PLACEMENT_3D('Circle Axis2P3D',#363,#364,$) ;
#379=AXIS2_PLACEMENT_3D('Circle Axis2P3D',#377,#378,$) ;
#399=AXIS2_PLACEMENT_3D('Circle Axis2P3D',#397,#398,$) ;
#413=AXIS2_PLACEMENT_3D('Circle Axis2P3D',#411,#412,$) ;
#433=AXIS2_PLACEMENT_3D('Circle Axis2P3D',#431,#432,$) ;
#447=AXIS2_PLACEMENT_3D('Circle Axis2P3D',#445,#446,$) ;
#467=AXIS2_PLACEMENT_3D('Circle Axis2P3D',#465,#466,$) ;
#481=AXIS2_PLACEMENT_3D('Circle Axis2P3D',#479,#480,$) ;
#494=AXIS2_PLACEMENT_3D('Plane Axis2P3D',#491,#492,#493) ;
#507=AXIS2_PLACEMENT_3D('Circle Axis2P3D',#505,#506,$) ;
#521=AXIS2_PLACEMENT_3D('Circle Axis2P3D',#519,#520,$) ;
#535=AXIS2_PLACEMENT_3D('Circle Axis2P3D',#533,#534,$) ;
#549=AXIS2_PLACEMENT_3D('Circle Axis2P3D',#547,#548,$) ;
#570=AXIS2_PLACEMENT_3D('Circle Axis2P3D',#568,#569,$) ;
#586=AXIS2_PLACEMENT_3D('Circle Axis2P3D',#584,#585,$) ;
#604=AXIS2_PLACEMENT_3D('Circle Axis2P3D',#602,#603,$) ;
#620=AXIS2_PLACEMENT_3D('Circle Axis2P3D',#618,#619,$) ;
#638=AXIS2_PLACEMENT_3D('Circle Axis2P3D',#636,#637,$) ;
#654=AXIS2_PLACEMENT_3D('Circle Axis2P3D',#652,#653,$) ;
#672=AXIS2_PLACEMENT_3D('Circle Axis2P3D',#670,#671,$) ;
#688=AXIS2_PLACEMENT_3D('Circle Axis2P3D',#686,#687,$) ;
#706=AXIS2_PLACEMENT_3D('Circle Axis2P3D',#704,#705,$) ;
#722=AXIS2_PLACEMENT_3D('Circle Axis2P3D',#720,#721,$) ;
#740=AXIS2_PLACEMENT_3D('Circle Axis2P3D',#738,#739,$) ;
#756=AXIS2_PLACEMENT_3D('Circle Axis2P3D',#754,#755,$) ;
#774=AXIS2_PLACEMENT_3D('Circle Axis2P3D',#772,#773,$) ;
#790=AXIS2_PLACEMENT_3D('Circle Axis2P3D',#788,#789,$) ;
#810=AXIS2_PLACEMENT_3D('Plane Axis2P3D',#807,#808,#809) ;
#832=AXIS2_PLACEMENT_3D('Cylinder Axis2P3D',#829,#830,#831) ;
#849=AXIS2_PLACEMENT_3D('Cylinder Axis2P3D',#846,#847,#848) ;
#866=AXIS2_PLACEMENT_3D('Plane Axis2P3D',#863,#864,#865) ;
#888=AXIS2_PLACEMENT_3D('Cylinder Axis2P3D',#885,#886,#887) ;
#905=AXIS2_PLACEMENT_3D('Cylinder Axis2P3D',#902,#903,#904) ;
#922=AXIS2_PLACEMENT_3D('Plane Axis2P3D',#919,#920,#921) ;
#934=AXIS2_PLACEMENT_3D('Plane Axis2P3D',#931,#932,#933) ;
#963=AXIS2_PLACEMENT_3D('Cylinder Axis2P3D',#960,#961,#962) ;
#992=AXIS2_PLACEMENT_3D('Cylinder Axis2P3D',#989,#990,#991) ;
#1004=AXIS2_PLACEMENT_3D('Plane Axis2P3D',#1001,#1002,#1003) ;
#1026=AXIS2_PLACEMENT_3D('Cylinder Axis2P3D',#1023,#1024,#1025) ;
#1043=AXIS2_PLACEMENT_3D('Plane Axis2P3D',#1040,#1041,#1042) ;
#1060=AXIS2_PLACEMENT_3D('Cylinder Axis2P3D',#1057,#1058,#1059) ;
#1072=AXIS2_PLACEMENT_3D('Plane Axis2P3D',#1069,#1070,#1071) ;
#1094=AXIS2_PLACEMENT_3D('Cylinder Axis2P3D',#1091,#1092,#1093) ;
#1111=AXIS2_PLACEMENT_3D('Plane Axis2P3D',#1108,#1109,#1110) ;
#1128=AXIS2_PLACEMENT_3D('Cylinder Axis2P3D',#1125,#1126,#1127) ;
#1157=AXIS2_PLACEMENT_3D('Cylinder Axis2P3D',#1154,#1155,#1156) ;
#1186=AXIS2_PLACEMENT_3D('Cylinder Axis2P3D',#1183,#1184,#1185) ;
#1198=AXIS2_PLACEMENT_3D('Plane Axis2P3D',#1195,#1196,#1197) ;
#1220=AXIS2_PLACEMENT_3D('Cylinder Axis2P3D',#1217,#1218,#1219) ;
#1237=AXIS2_PLACEMENT_3D('Plane Axis2P3D',#1234,#1235,#1236) ;
#1254=AXIS2_PLACEMENT_3D('Cylinder Axis2P3D',#1251,#1252,#1253) ;
#1283=AXIS2_PLACEMENT_3D('Cylinder Axis2P3D',#1280,#1281,#1282) ;
#1312=AXIS2_PLACEMENT_3D('Cylinder Axis2P3D',#1309,#1310,#1311) ;
#1324=AXIS2_PLACEMENT_3D('Plane Axis2P3D',#1321,#1322,#1323) ;
#1346=AXIS2_PLACEMENT_3D('Cylinder Axis2P3D',#1343,#1344,#1345) ;
#1363=AXIS2_PLACEMENT_3D('Plane Axis2P3D',#1360,#1361,#1362) ;
#1380=AXIS2_PLACEMENT_3D('Cylinder Axis2P3D',#1377,#1378,#1379) ;
#40=PRODUCT_DEFINITION_SHAPE(' ',' ',#14) ;
#31=APPROVAL_PERSON_ORGANIZATION(#25,#21,#19) ;
#25=PERSON_AND_ORGANIZATION(#22,#23) ;
#22=PERSON(' ',' ',' ',$,$,$) ;
#23=ORGANIZATION(' ',' ',' ') ;
#21=APPROVAL(#20,' ') ;
#20=APPROVAL_STATUS('not_yet_approved') ;
#19=APPROVAL_ROLE('APPROVER') ;
#13=DATE_AND_TIME(#11,#12) ;
#12=LOCAL_TIME(21,45,49.,#10) ;
#10=COORDINATED_UNIVERSAL_TIME_OFFSET(0,0,.AHEAD.) ;
#85=ORIENTED_EDGE('',*,*,#64,.T.) ;
#86=ORIENTED_EDGE('',*,*,#71,.F.) ;
#87=ORIENTED_EDGE('',*,*,#78,.T.) ;
#88=ORIENTED_EDGE('',*,*,#83,.T.) ;
#116=ORIENTED_EDGE('',*,*,#102,.F.) ;
#117=ORIENTED_EDGE('',*,*,#83,.F.) ;
#118=ORIENTED_EDGE('',*,*,#109,.T.) ;
#119=ORIENTED_EDGE('',*,*,#114,.T.) ;
#147=ORIENTED_EDGE('',*,*,#133,.F.) ;
#148=ORIENTED_EDGE('',*,*,#140,.F.) ;
#149=ORIENTED_EDGE('',*,*,#145,.T.) ;
#150=ORIENTED_EDGE('',*,*,#71,.T.) ;
#169=ORIENTED_EDGE('',*,*,#162,.T.) ;
#170=ORIENTED_EDGE('',*,*,#114,.F.) ;
#171=ORIENTED_EDGE('',*,*,#167,.T.) ;
#172=ORIENTED_EDGE('',*,*,#140,.T.) ;
#237=ORIENTED_EDGE('',*,*,#188,.F.) ;
#238=ORIENTED_EDGE('',*,*,#195,.F.) ;
#239=ORIENTED_EDGE('',*,*,#202,.F.) ;
#240=ORIENTED_EDGE('',*,*,#209,.F.) ;
#241=ORIENTED_EDGE('',*,*,#216,.F.) ;
#242=ORIENTED_EDGE('',*,*,#223,.F.) ;
#243=ORIENTED_EDGE('',*,*,#230,.F.) ;
#244=ORIENTED_EDGE('',*,*,#235,.F.) ;
#247=ORIENTED_EDGE('',*,*,#64,.F.) ;
#248=ORIENTED_EDGE('',*,*,#102,.T.) ;
#249=ORIENTED_EDGE('',*,*,#162,.F.) ;
#250=ORIENTED_EDGE('',*,*,#133,.T.) ;
#281=ORIENTED_EDGE('',*,*,#260,.F.) ;
#282=ORIENTED_EDGE('',*,*,#267,.T.) ;
#283=ORIENTED_EDGE('',*,*,#274,.F.) ;
#284=ORIENTED_EDGE('',*,*,#279,.T.) ;
#315=ORIENTED_EDGE('',*,*,#294,.F.) ;
#316=ORIENTED_EDGE('',*,*,#301,.T.) ;
#317=ORIENTED_EDGE('',*,*,#308,.F.) ;
#318=ORIENTED_EDGE('',*,*,#313,.T.) ;
#349=ORIENTED_EDGE('',*,*,#328,.F.) ;
#350=ORIENTED_EDGE('',*,*,#335,.T.) ;
#351=ORIENTED_EDGE('',*,*,#342,.F.) ;
#352=ORIENTED_EDGE('',*,*,#347,.T.) ;
#383=ORIENTED_EDGE('',*,*,#362,.F.) ;
#384=ORIENTED_EDGE('',*,*,#369,.T.) ;
#385=ORIENTED_EDGE('',*,*,#376,.F.) ;
#386=ORIENTED_EDGE('',*,*,#381,.T.) ;
#417=ORIENTED_EDGE('',*,*,#396,.F.) ;
#418=ORIENTED_EDGE('',*,*,#403,.T.) ;
#419=ORIENTED_EDGE('',*,*,#410,.F.) ;
#420=ORIENTED_EDGE('',*,*,#415,.T.) ;
#451=ORIENTED_EDGE('',*,*,#430,.F.) ;
#452=ORIENTED_EDGE('',*,*,#437,.T.) ;
#453=ORIENTED_EDGE('',*,*,#444,.F.) ;
#454=ORIENTED_EDGE('',*,*,#449,.T.) ;
#485=ORIENTED_EDGE('',*,*,#464,.F.) ;
#486=ORIENTED_EDGE('',*,*,#471,.T.) ;
#487=ORIENTED_EDGE('',*,*,#478,.F.) ;
#488=ORIENTED_EDGE('',*,*,#483,.T.) ;
#553=ORIENTED_EDGE('',*,*,#504,.T.) ;
#554=ORIENTED_EDGE('',*,*,#511,.F.) ;
#555=ORIENTED_EDGE('',*,*,#518,.T.) ;
#556=ORIENTED_EDGE('',*,*,#525,.F.) ;
#557=ORIENTED_EDGE('',*,*,#532,.T.) ;
#558=ORIENTED_EDGE('',*,*,#539,.F.) ;
#559=ORIENTED_EDGE('',*,*,#546,.T.) ;
#560=ORIENTED_EDGE('',*,*,#551,.F.) ;
#563=ORIENTED_EDGE('',*,*,#145,.F.) ;
#564=ORIENTED_EDGE('',*,*,#167,.F.) ;
#565=ORIENTED_EDGE('',*,*,#109,.F.) ;
#566=ORIENTED_EDGE('',*,*,#78,.F.) ;
#597=ORIENTED_EDGE('',*,*,#576,.F.) ;
#598=ORIENTED_EDGE('',*,*,#583,.F.) ;
#599=ORIENTED_EDGE('',*,*,#590,.F.) ;
#600=ORIENTED_EDGE('',*,*,#595,.F.) ;
#631=ORIENTED_EDGE('',*,*,#610,.F.) ;
#632=ORIENTED_EDGE('',*,*,#617,.F.) ;
#633=ORIENTED_EDGE('',*,*,#624,.F.) ;
#634=ORIENTED_EDGE('',*,*,#629,.F.) ;
#665=ORIENTED_EDGE('',*,*,#644,.F.) ;
#666=ORIENTED_EDGE('',*,*,#651,.F.) ;
#667=ORIENTED_EDGE('',*,*,#658,.F.) ;
#668=ORIENTED_EDGE('',*,*,#663,.F.) ;
#699=ORIENTED_EDGE('',*,*,#678,.F.) ;
#700=ORIENTED_EDGE('',*,*,#685,.F.) ;
#701=ORIENTED_EDGE('',*,*,#692,.F.) ;
#702=ORIENTED_EDGE('',*,*,#697,.F.) ;
#733=ORIENTED_EDGE('',*,*,#712,.F.) ;
#734=ORIENTED_EDGE('',*,*,#719,.F.) ;
#735=ORIENTED_EDGE('',*,*,#726,.F.) ;
#736=ORIENTED_EDGE('',*,*,#731,.F.) ;
#767=ORIENTED_EDGE('',*,*,#746,.F.) ;
#768=ORIENTED_EDGE('',*,*,#753,.F.) ;
#769=ORIENTED_EDGE('',*,*,#760,.F.) ;
#770=ORIENTED_EDGE('',*,*,#765,.F.) ;
#801=ORIENTED_EDGE('',*,*,#780,.F.) ;
#802=ORIENTED_EDGE('',*,*,#787,.F.) ;
#803=ORIENTED_EDGE('',*,*,#794,.F.) ;
#804=ORIENTED_EDGE('',*,*,#799,.F.) ;
#823=ORIENTED_EDGE('',*,*,#816,.F.) ;
#824=ORIENTED_EDGE('',*,*,#546,.F.) ;
#825=ORIENTED_EDGE('',*,*,#821,.T.) ;
#826=ORIENTED_EDGE('',*,*,#195,.T.) ;
#840=ORIENTED_EDGE('',*,*,#202,.T.) ;
#841=ORIENTED_EDGE('',*,*,#821,.F.) ;
#842=ORIENTED_EDGE('',*,*,#539,.T.) ;
#843=ORIENTED_EDGE('',*,*,#838,.T.) ;
#857=ORIENTED_EDGE('',*,*,#188,.T.) ;
#858=ORIENTED_EDGE('',*,*,#855,.F.) ;
#859=ORIENTED_EDGE('',*,*,#551,.T.) ;
#860=ORIENTED_EDGE('',*,*,#816,.T.) ;
#879=ORIENTED_EDGE('',*,*,#872,.T.) ;
#880=ORIENTED_EDGE('',*,*,#223,.T.) ;
#881=ORIENTED_EDGE('',*,*,#877,.F.) ;
#882=ORIENTED_EDGE('',*,*,#518,.F.) ;
#896=ORIENTED_EDGE('',*,*,#216,.T.) ;
#897=ORIENTED_EDGE('',*,*,#894,.F.) ;
#898=ORIENTED_EDGE('',*,*,#525,.T.) ;
#899=ORIENTED_EDGE('',*,*,#877,.T.) ;
#913=ORIENTED_EDGE('',*,*,#230,.T.) ;
#914=ORIENTED_EDGE('',*,*,#872,.F.) ;
#915=ORIENTED_EDGE('',*,*,#511,.T.) ;
#916=ORIENTED_EDGE('',*,*,#911,.T.) ;
#925=ORIENTED_EDGE('',*,*,#532,.F.) ;
#926=ORIENTED_EDGE('',*,*,#894,.T.) ;
#927=ORIENTED_EDGE('',*,*,#209,.T.) ;
#928=ORIENTED_EDGE('',*,*,#838,.F.) ;
#937=ORIENTED_EDGE('',*,*,#235,.T.) ;
#938=ORIENTED_EDGE('',*,*,#911,.F.) ;
#939=ORIENTED_EDGE('',*,*,#504,.F.) ;
#940=ORIENTED_EDGE('',*,*,#855,.T.) ;
#954=ORIENTED_EDGE('',*,*,#274,.T.) ;
#955=ORIENTED_EDGE('',*,*,#947,.F.) ;
#956=ORIENTED_EDGE('',*,*,#595,.T.) ;
#957=ORIENTED_EDGE('',*,*,#952,.T.) ;
#971=ORIENTED_EDGE('',*,*,#267,.F.) ;
#972=ORIENTED_EDGE('',*,*,#969,.F.) ;
#973=ORIENTED_EDGE('',*,*,#576,.T.) ;
#974=ORIENTED_EDGE('',*,*,#947,.T.) ;
#983=ORIENTED_EDGE('',*,*,#260,.T.) ;
#984=ORIENTED_EDGE('',*,*,#981,.F.) ;
#985=ORIENTED_EDGE('',*,*,#583,.T.) ;
#986=ORIENTED_EDGE('',*,*,#969,.T.) ;
#995=ORIENTED_EDGE('',*,*,#279,.F.) ;
#996=ORIENTED_EDGE('',*,*,#952,.F.) ;
#997=ORIENTED_EDGE('',*,*,#590,.T.) ;
#998=ORIENTED_EDGE('',*,*,#981,.T.) ;
#1017=ORIENTED_EDGE('',*,*,#308,.T.) ;
#1018=ORIENTED_EDGE('',*,*,#1010,.F.) ;
#1019=ORIENTED_EDGE('',*,*,#629,.T.) ;
#1020=ORIENTED_EDGE('',*,*,#1015,.T.) ;
#1034=ORIENTED_EDGE('',*,*,#301,.F.) ;
#1035=ORIENTED_EDGE('',*,*,#1032,.F.) ;
#1036=ORIENTED_EDGE('',*,*,#610,.T.) ;
#1037=ORIENTED_EDGE('',*,*,#1010,.T.) ;
#1051=ORIENTED_EDGE('',*,*,#294,.T.) ;
#1052=ORIENTED_EDGE('',*,*,#1049,.F.) ;
#1053=ORIENTED_EDGE('',*,*,#617,.T.) ;
#1054=ORIENTED_EDGE('',*,*,#1032,.T.) ;
#1063=ORIENTED_EDGE('',*,*,#313,.F.) ;
#1064=ORIENTED_EDGE('',*,*,#1015,.F.) ;
#1065=ORIENTED_EDGE('',*,*,#624,.T.) ;
#1066=ORIENTED_EDGE('',*,*,#1049,.T.) ;
#1085=ORIENTED_EDGE('',*,*,#342,.T.) ;
#1086=ORIENTED_EDGE('',*,*,#1078,.F.) ;
#1087=ORIENTED_EDGE('',*,*,#663,.T.) ;
#1088=ORIENTED_EDGE('',*,*,#1083,.T.) ;
#1102=ORIENTED_EDGE('',*,*,#335,.F.) ;
#1103=ORIENTED_EDGE('',*,*,#1100,.F.) ;
#1104=ORIENTED_EDGE('',*,*,#644,.T.) ;
#1105=ORIENTED_EDGE('',*,*,#1078,.T.) ;
#1119=ORIENTED_EDGE('',*,*,#328,.T.) ;
#1120=ORIENTED_EDGE('',*,*,#1117,.F.) ;
#1121=ORIENTED_EDGE('',*,*,#651,.T.) ;
#1122=ORIENTED_EDGE('',*,*,#1100,.T.) ;
#1131=ORIENTED_EDGE('',*,*,#347,.F.) ;
#1132=ORIENTED_EDGE('',*,*,#1083,.F.) ;
#1133=ORIENTED_EDGE('',*,*,#658,.T.) ;
#1134=ORIENTED_EDGE('',*,*,#1117,.T.) ;
#1148=ORIENTED_EDGE('',*,*,#376,.T.) ;
#1149=ORIENTED_EDGE('',*,*,#1141,.F.) ;
#1150=ORIENTED_EDGE('',*,*,#697,.T.) ;
#1151=ORIENTED_EDGE('',*,*,#1146,.T.) ;
#1165=ORIENTED_EDGE('',*,*,#369,.F.) ;
#1166=ORIENTED_EDGE('',*,*,#1163,.F.) ;
#1167=ORIENTED_EDGE('',*,*,#678,.T.) ;
#1168=ORIENTED_EDGE('',*,*,#1141,.T.) ;
#1177=ORIENTED_EDGE('',*,*,#362,.T.) ;
#1178=ORIENTED_EDGE('',*,*,#1175,.F.) ;
#1179=ORIENTED_EDGE('',*,*,#685,.T.) ;
#1180=ORIENTED_EDGE('',*,*,#1163,.T.) ;
#1189=ORIENTED_EDGE('',*,*,#381,.F.) ;
#1190=ORIENTED_EDGE('',*,*,#1146,.F.) ;
#1191=ORIENTED_EDGE('',*,*,#692,.T.) ;
#1192=ORIENTED_EDGE('',*,*,#1175,.T.) ;
#1211=ORIENTED_EDGE('',*,*,#410,.T.) ;
#1212=ORIENTED_EDGE('',*,*,#1204,.F.) ;
#1213=ORIENTED_EDGE('',*,*,#731,.T.) ;
#1214=ORIENTED_EDGE('',*,*,#1209,.T.) ;
#1228=ORIENTED_EDGE('',*,*,#403,.F.) ;
#1229=ORIENTED_EDGE('',*,*,#1226,.F.) ;
#1230=ORIENTED_EDGE('',*,*,#712,.T.) ;
#1231=ORIENTED_EDGE('',*,*,#1204,.T.) ;
#1245=ORIENTED_EDGE('',*,*,#396,.T.) ;
#1246=ORIENTED_EDGE('',*,*,#1243,.F.) ;
#1247=ORIENTED_EDGE('',*,*,#719,.T.) ;
#1248=ORIENTED_EDGE('',*,*,#1226,.T.) ;
#1257=ORIENTED_EDGE('',*,*,#415,.F.) ;
#1258=ORIENTED_EDGE('',*,*,#1209,.F.) ;
#1259=ORIENTED_EDGE('',*,*,#726,.T.) ;
#1260=ORIENTED_EDGE('',*,*,#1243,.T.) ;
#1274=ORIENTED_EDGE('',*,*,#444,.T.) ;
#1275=ORIENTED_EDGE('',*,*,#1267,.F.) ;
#1276=ORIENTED_EDGE('',*,*,#765,.T.) ;
#1277=ORIENTED_EDGE('',*,*,#1272,.T.) ;
#1291=ORIENTED_EDGE('',*,*,#437,.F.) ;
#1292=ORIENTED_EDGE('',*,*,#1289,.F.) ;
#1293=ORIENTED_EDGE('',*,*,#746,.T.) ;
#1294=ORIENTED_EDGE('',*,*,#1267,.T.) ;
#1303=ORIENTED_EDGE('',*,*,#430,.T.) ;
#1304=ORIENTED_EDGE('',*,*,#1301,.F.) ;
#1305=ORIENTED_EDGE('',*,*,#753,.T.) ;
#1306=ORIENTED_EDGE('',*,*,#1289,.T.) ;
#1315=ORIENTED_EDGE('',*,*,#449,.F.) ;
#1316=ORIENTED_EDGE('',*,*,#1272,.F.) ;
#1317=ORIENTED_EDGE('',*,*,#760,.T.) ;
#1318=ORIENTED_EDGE('',*,*,#1301,.T.) ;
#1337=ORIENTED_EDGE('',*,*,#478,.T.) ;
#1338=ORIENTED_EDGE('',*,*,#1330,.F.) ;
#1339=ORIENTED_EDGE('',*,*,#799,.T.) ;
#1340=ORIENTED_EDGE('',*,*,#1335,.T.) ;
#1354=ORIENTED_EDGE('',*,*,#471,.F.) ;
#1355=ORIENTED_EDGE('',*,*,#1352,.F.) ;
#1356=ORIENTED_EDGE('',*,*,#780,.T.) ;
#1357=ORIENTED_EDGE('',*,*,#1330,.T.) ;
#1371=ORIENTED_EDGE('',*,*,#464,.T.) ;
#1372=ORIENTED_EDGE('',*,*,#1369,.F.) ;
#1373=ORIENTED_EDGE('',*,*,#787,.T.) ;
#1374=ORIENTED_EDGE('',*,*,#1352,.T.) ;
#1383=ORIENTED_EDGE('',*,*,#483,.F.) ;
#1384=ORIENTED_EDGE('',*,*,#1335,.F.) ;
#1385=ORIENTED_EDGE('',*,*,#794,.T.) ;
#1386=ORIENTED_EDGE('',*,*,#1369,.T.) ;
#251=FACE_BOUND('',#246,.T.) ;
#285=FACE_BOUND('',#280,.T.) ;
#319=FACE_BOUND('',#314,.T.) ;
#353=FACE_BOUND('',#348,.T.) ;
#387=FACE_BOUND('',#382,.T.) ;
#421=FACE_BOUND('',#416,.T.) ;
#455=FACE_BOUND('',#450,.T.) ;
#489=FACE_BOUND('',#484,.T.) ;
#567=FACE_BOUND('',#562,.T.) ;
#601=FACE_BOUND('',#596,.T.) ;
#635=FACE_BOUND('',#630,.T.) ;
#669=FACE_BOUND('',#664,.T.) ;
#703=FACE_BOUND('',#698,.T.) ;
#737=FACE_BOUND('',#732,.T.) ;
#771=FACE_BOUND('',#766,.T.) ;
#805=FACE_BOUND('',#800,.T.) ;
#50=CLOSED_SHELL('Closed Shell',(#90,#121,#152,#174,#490,#806,#828,#845,#862,#884,#901,#918,#930,#942,#959,#976,#988,#1000,#1022,#1039,#1056,#1068,#1090,#1107,#1124,#1136,#1153,#1170,#1182,#1194,#1216,#1233,#1250,#1262,#1279,#1296,#1308,#1320,#1342,#1359,#1376,#1388)) ;
#58=VECTOR('Line Direction',#57,1.) ;
#67=VECTOR('Line Direction',#66,1.) ;
#74=VECTOR('Line Direction',#73,1.) ;
#81=VECTOR('Line Direction',#80,1.) ;
#112=VECTOR('Line Direction',#111,1.) ;
#136=VECTOR('Line Direction',#135,1.) ;
#160=VECTOR('Line Direction',#159,1.) ;
#165=VECTOR('Line Direction',#164,1.) ;
#191=VECTOR('Line Direction',#190,1.) ;
#205=VECTOR('Line Direction',#204,1.) ;
#219=VECTOR('Line Direction',#218,1.) ;
#233=VECTOR('Line Direction',#232,1.) ;
#254=VECTOR('Line Direction',#253,1.) ;
#270=VECTOR('Line Direction',#269,1.) ;
#288=VECTOR('Line Direction',#287,1.) ;
#304=VECTOR('Line Direction',#303,1.) ;
#322=VECTOR('Line Direction',#321,1.) ;
#338=VECTOR('Line Direction',#337,1.) ;
#356=VECTOR('Line Direction',#355,1.) ;
#372=VECTOR('Line Direction',#371,1.) ;
#390=VECTOR('Line Direction',#389,1.) ;
#406=VECTOR('Line Direction',#405,1.) ;
#424=VECTOR('Line Direction',#423,1.) ;
#440=VECTOR('Line Direction',#439,1.) ;
#458=VECTOR('Line Direction',#457,1.) ;
#474=VECTOR('Line Direction',#473,1.) ;
#498=VECTOR('Line Direction',#497,1.) ;
#514=VECTOR('Line Direction',#513,1.) ;
#528=VECTOR('Line Direction',#527,1.) ;
#542=VECTOR('Line Direction',#541,1.) ;
#579=VECTOR('Line Direction',#578,1.) ;
#593=VECTOR('Line Direction',#592,1.) ;
#613=VECTOR('Line Direction',#612,1.) ;
#627=VECTOR('Line Direction',#626,1.) ;
#647=VECTOR('Line Direction',#646,1.) ;
#661=VECTOR('Line Direction',#660,1.) ;
#681=VECTOR('Line Direction',#680,1.) ;
#695=VECTOR('Line Direction',#694,1.) ;
#715=VECTOR('Line Direction',#714,1.) ;
#729=VECTOR('Line Direction',#728,1.) ;
#749=VECTOR('Line Direction',#748,1.) ;
#763=VECTOR('Line Direction',#762,1.) ;
#783=VECTOR('Line Direction',#782,1.) ;
#797=VECTOR('Line Direction',#796,1.) ;
#814=VECTOR('Line Direction',#813,1.) ;
#819=VECTOR('Line Direction',#818,1.) ;
#836=VECTOR('Line Direction',#835,1.) ;
#853=VECTOR('Line Direction',#852,1.) ;
#870=VECTOR('Line Direction',#869,1.) ;
#875=VECTOR('Line Direction',#874,1.) ;
#892=VECTOR('Line Direction',#891,1.) ;
#909=VECTOR('Line Direction',#908,1.) ;
#945=VECTOR('Line Direction',#944,1.) ;
#950=VECTOR('Line Direction',#949,1.) ;
#967=VECTOR('Line Direction',#966,1.) ;
#979=VECTOR('Line Direction',#978,1.) ;
#1008=VECTOR('Line Direction',#1007,1.) ;
#1013=VECTOR('Line Direction',#1012,1.) ;
#1030=VECTOR('Line Direction',#1029,1.) ;
#1047=VECTOR('Line Direction',#1046,1.) ;
#1076=VECTOR('Line Direction',#1075,1.) ;
#1081=VECTOR('Line Direction',#1080,1.) ;
#1098=VECTOR('Line Direction',#1097,1.) ;
#1115=VECTOR('Line Direction',#1114,1.) ;
#1139=VECTOR('Line Direction',#1138,1.) ;
#1144=VECTOR('Line Direction',#1143,1.) ;
#1161=VECTOR('Line Direction',#1160,1.) ;
#1173=VECTOR('Line Direction',#1172,1.) ;
#1202=VECTOR('Line Direction',#1201,1.) ;
#1207=VECTOR('Line Direction',#1206,1.) ;
#1224=VECTOR('Line Direction',#1223,1.) ;
#1241=VECTOR('Line Direction',#1240,1.) ;
#1265=VECTOR('Line Direction',#1264,1.) ;
#1270=VECTOR('Line Direction',#1269,1.) ;
#1287=VECTOR('Line Direction',#1286,1.) ;
#1299=VECTOR('Line Direction',#1298,1.) ;
#1328=VECTOR('Line Direction',#1327,1.) ;
#1333=VECTOR('Line Direction',#1332,1.) ;
#1350=VECTOR('Line Direction',#1349,1.) ;
#1367=VECTOR('Line Direction',#1366,1.) ;
#1390=ADVANCED_BREP_SHAPE_REPRESENTATION('NONE',(#1389),#45) ;
#48=SHAPE_REPRESENTATION(' ',(#47),#45) ;
#90=ADVANCED_FACE('\X2\96355217\X0\(\X2\7EBF6027\X0\)2',(#89),#55,.F.) ;
#121=ADVANCED_FACE('\X2\96355217\X0\(\X2\7EBF6027\X0\)2',(#120),#95,.F.) ;
#152=ADVANCED_FACE('\X2\96355217\X0\(\X2\7EBF6027\X0\)2',(#151),#126,.F.) ;
#174=ADVANCED_FACE('\X2\96355217\X0\(\X2\7EBF6027\X0\)2',(#173),#157,.F.) ;
#490=ADVANCED_FACE('\X2\96355217\X0\(\X2\7EBF6027\X0\)2',(#245,#251,#285,#319,#353,#387,#421,#455,#489),#179,.F.) ;
#806=ADVANCED_FACE('\X2\96355217\X0\(\X2\7EBF6027\X0\)2',(#561,#567,#601,#635,#669,#703,#737,#771,#805),#495,.T.) ;
#828=ADVANCED_FACE('\X2\96355217\X0\(\X2\7EBF6027\X0\)2',(#827),#811,.F.) ;
#845=ADVANCED_FACE('\X2\96355217\X0\(\X2\7EBF6027\X0\)2',(#844),#833,.T.) ;
#862=ADVANCED_FACE('\X2\96355217\X0\(\X2\7EBF6027\X0\)2',(#861),#850,.T.) ;
#884=ADVANCED_FACE('\X2\96355217\X0\(\X2\7EBF6027\X0\)2',(#883),#867,.F.) ;
#901=ADVANCED_FACE('\X2\96355217\X0\(\X2\7EBF6027\X0\)2',(#900),#889,.T.) ;
#918=ADVANCED_FACE('\X2\96355217\X0\(\X2\7EBF6027\X0\)2',(#917),#906,.T.) ;
#930=ADVANCED_FACE('\X2\96355217\X0\(\X2\7EBF6027\X0\)2',(#929),#923,.T.) ;
#942=ADVANCED_FACE('\X2\96355217\X0\(\X2\7EBF6027\X0\)2',(#941),#935,.T.) ;
#959=ADVANCED_FACE('\X2\96355217\X0\(\X2\7EBF6027\X0\)2',(#958),#55,.F.) ;
#976=ADVANCED_FACE('\X2\96355217\X0\(\X2\7EBF6027\X0\)2',(#975),#964,.F.) ;
#988=ADVANCED_FACE('\X2\96355217\X0\(\X2\7EBF6027\X0\)2',(#987),#157,.F.) ;
#1000=ADVANCED_FACE('\X2\96355217\X0\(\X2\7EBF6027\X0\)2',(#999),#993,.F.) ;
#1022=ADVANCED_FACE('\X2\96355217\X0\(\X2\7EBF6027\X0\)2',(#1021),#1005,.F.) ;
#1039=ADVANCED_FACE('\X2\96355217\X0\(\X2\7EBF6027\X0\)2',(#1038),#1027,.F.) ;
#1056=ADVANCED_FACE('\X2\96355217\X0\(\X2\7EBF6027\X0\)2',(#1055),#1044,.F.) ;
#1068=ADVANCED_FACE('\X2\96355217\X0\(\X2\7EBF6027\X0\)2',(#1067),#1061,.F.) ;
#1090=ADVANCED_FACE('\X2\96355217\X0\(\X2\7EBF6027\X0\)2',(#1089),#1073,.F.) ;
#1107=ADVANCED_FACE('\X2\96355217\X0\(\X2\7EBF6027\X0\)2',(#1106),#1095,.F.) ;
#1124=ADVANCED_FACE('\X2\96355217\X0\(\X2\7EBF6027\X0\)2',(#1123),#1112,.F.) ;
#1136=ADVANCED_FACE('\X2\96355217\X0\(\X2\7EBF6027\X0\)2',(#1135),#1129,.F.) ;
#1153=ADVANCED_FACE('\X2\96355217\X0\(\X2\7EBF6027\X0\)2',(#1152),#55,.F.) ;
#1170=ADVANCED_FACE('\X2\96355217\X0\(\X2\7EBF6027\X0\)2',(#1169),#1158,.F.) ;
#1182=ADVANCED_FACE('\X2\96355217\X0\(\X2\7EBF6027\X0\)2',(#1181),#157,.F.) ;
#1194=ADVANCED_FACE('\X2\96355217\X0\(\X2\7EBF6027\X0\)2',(#1193),#1187,.F.) ;
#1216=ADVANCED_FACE('\X2\96355217\X0\(\X2\7EBF6027\X0\)2',(#1215),#1199,.F.) ;
#1233=ADVANCED_FACE('\X2\96355217\X0\(\X2\7EBF6027\X0\)2',(#1232),#1221,.F.) ;
#1250=ADVANCED_FACE('\X2\96355217\X0\(\X2\7EBF6027\X0\)2',(#1249),#1238,.F.) ;
#1262=ADVANCED_FACE('\X2\96355217\X0\(\X2\7EBF6027\X0\)2',(#1261),#1255,.F.) ;
#1279=ADVANCED_FACE('\X2\96355217\X0\(\X2\7EBF6027\X0\)2',(#1278),#55,.F.) ;
#1296=ADVANCED_FACE('\X2\96355217\X0\(\X2\7EBF6027\X0\)2',(#1295),#1284,.F.) ;
#1308=ADVANCED_FACE('\X2\96355217\X0\(\X2\7EBF6027\X0\)2',(#1307),#157,.F.) ;
#1320=ADVANCED_FACE('\X2\96355217\X0\(\X2\7EBF6027\X0\)2',(#1319),#1313,.F.) ;
#1342=ADVANCED_FACE('\X2\96355217\X0\(\X2\7EBF6027\X0\)2',(#1341),#1325,.F.) ;
#1359=ADVANCED_FACE('\X2\96355217\X0\(\X2\7EBF6027\X0\)2',(#1358),#1347,.F.) ;
#1376=ADVANCED_FACE('\X2\96355217\X0\(\X2\7EBF6027\X0\)2',(#1375),#1364,.F.) ;
#1388=ADVANCED_FACE('\X2\96355217\X0\(\X2\7EBF6027\X0\)2',(#1387),#1381,.F.) ;
#4=APPLICATION_PROTOCOL_DEFINITION('international standard','config_control_design',1994,#1) ;
#32=APPROVAL_DATE_TIME(#13,#21) ;
#1389=MANIFOLD_SOLID_BREP('\X2\96355217\X0\(\X2\7EBF6027\X0\)2',#50) ;
#11=CALENDAR_DATE(2026,13,5) ;
#30=CC_DESIGN_APPROVAL(#21,(#16,#6,#14)) ;
#18=CC_DESIGN_DATE_AND_TIME_ASSIGNMENT(#13,#17,(#16)) ;
#29=CC_DESIGN_DATE_AND_TIME_ASSIGNMENT(#13,#28,(#14)) ;
#17=DATE_TIME_ROLE('classification_date') ;
#28=DATE_TIME_ROLE('creation_date') ;
#27=CC_DESIGN_PERSON_AND_ORGANIZATION_ASSIGNMENT(#25,#26,(#16)) ;
#33=CC_DESIGN_PERSON_AND_ORGANIZATION_ASSIGNMENT(#25,#34,(#6)) ;
#35=CC_DESIGN_PERSON_AND_ORGANIZATION_ASSIGNMENT(#25,#36,(#6,#14)) ;
#37=CC_DESIGN_PERSON_AND_ORGANIZATION_ASSIGNMENT(#25,#38,(#5)) ;
#26=PERSON_AND_ORGANIZATION_ROLE('classification_officer') ;
#34=PERSON_AND_ORGANIZATION_ROLE('design_supplier') ;
#36=PERSON_AND_ORGANIZATION_ROLE('creator') ;
#38=PERSON_AND_ORGANIZATION_ROLE('design_owner') ;
#39=CC_DESIGN_SECURITY_CLASSIFICATION(#16,(#6)) ;
#99=CIRCLE('generated circle',#98,1.5) ;
#106=CIRCLE('generated circle',#105,1.5) ;
#130=CIRCLE('generated circle',#129,1.5) ;
#144=CIRCLE('generated circle',#143,1.5) ;
#183=CIRCLE('generated circle',#182,3.) ;
#199=CIRCLE('generated circle',#198,3.) ;
#213=CIRCLE('generated circle',#212,3.) ;
#227=CIRCLE('generated circle',#226,3.) ;
#264=CIRCLE('generated circle',#263,1.5) ;
#278=CIRCLE('generated circle',#277,1.5) ;
#298=CIRCLE('generated circle',#297,1.5) ;
#312=CIRCLE('generated circle',#311,1.5) ;
#332=CIRCLE('generated circle',#331,1.5) ;
#346=CIRCLE('generated circle',#345,1.5) ;
#366=CIRCLE('generated circle',#365,1.5) ;
#380=CIRCLE('generated circle',#379,1.5) ;
#400=CIRCLE('generated circle',#399,1.5) ;
#414=CIRCLE('generated circle',#413,1.5) ;
#434=CIRCLE('generated circle',#433,1.5) ;
#448=CIRCLE('generated circle',#447,1.5) ;
#468=CIRCLE('generated circle',#467,1.5) ;
#482=CIRCLE('generated circle',#481,1.5) ;
#508=CIRCLE('generated circle',#507,3.) ;
#522=CIRCLE('generated circle',#521,3.) ;
#536=CIRCLE('generated circle',#535,3.) ;
#550=CIRCLE('generated circle',#549,3.) ;
#571=CIRCLE('generated circle',#570,1.5) ;
#587=CIRCLE('generated circle',#586,1.5) ;
#605=CIRCLE('generated circle',#604,1.5) ;
#621=CIRCLE('generated circle',#620,1.5) ;
#639=CIRCLE('generated circle',#638,1.5) ;
#655=CIRCLE('generated circle',#654,1.5) ;
#673=CIRCLE('generated circle',#672,1.5) ;
#689=CIRCLE('generated circle',#688,1.5) ;
#707=CIRCLE('generated circle',#706,1.5) ;
#723=CIRCLE('generated circle',#722,1.5) ;
#741=CIRCLE('generated circle',#740,1.5) ;
#757=CIRCLE('generated circle',#756,1.5) ;
#775=CIRCLE('generated circle',#774,1.5) ;
#791=CIRCLE('generated circle',#790,1.5) ;
#1391=SHAPE_REPRESENTATION_RELATIONSHIP(' ',' ',#48,#1390) ;
#95=CYLINDRICAL_SURFACE('generated cylinder',#94,1.5) ;
#126=CYLINDRICAL_SURFACE('generated cylinder',#125,1.5) ;
#833=CYLINDRICAL_SURFACE('generated cylinder',#832,3.) ;
#850=CYLINDRICAL_SURFACE('generated cylinder',#849,3.) ;
#889=CYLINDRICAL_SURFACE('generated cylinder',#888,3.) ;
#906=CYLINDRICAL_SURFACE('generated cylinder',#905,3.) ;
#964=CYLINDRICAL_SURFACE('generated cylinder',#963,1.5) ;
#993=CYLINDRICAL_SURFACE('generated cylinder',#992,1.5) ;
#1027=CYLINDRICAL_SURFACE('generated cylinder',#1026,1.5) ;
#1061=CYLINDRICAL_SURFACE('generated cylinder',#1060,1.5) ;
#1095=CYLINDRICAL_SURFACE('generated cylinder',#1094,1.5) ;
#1129=CYLINDRICAL_SURFACE('generated cylinder',#1128,1.5) ;
#1158=CYLINDRICAL_SURFACE('generated cylinder',#1157,1.5) ;
#1187=CYLINDRICAL_SURFACE('generated cylinder',#1186,1.5) ;
#1221=CYLINDRICAL_SURFACE('generated cylinder',#1220,1.5) ;
#1255=CYLINDRICAL_SURFACE('generated cylinder',#1254,1.5) ;
#1284=CYLINDRICAL_SURFACE('generated cylinder',#1283,1.5) ;
#1313=CYLINDRICAL_SURFACE('generated cylinder',#1312,1.5) ;
#1347=CYLINDRICAL_SURFACE('generated cylinder',#1346,1.5) ;
#1381=CYLINDRICAL_SURFACE('generated cylinder',#1380,1.5) ;
#3=DESIGN_CONTEXT(' ',#1,'design') ;
#64=EDGE_CURVE('',#61,#63,#59,.T.) ;
#71=EDGE_CURVE('',#70,#63,#68,.T.) ;
#78=EDGE_CURVE('',#70,#77,#75,.F.) ;
#83=EDGE_CURVE('',#77,#61,#82,.T.) ;
#102=EDGE_CURVE('',#61,#101,#99,.T.) ;
#109=EDGE_CURVE('',#77,#108,#106,.T.) ;
#114=EDGE_CURVE('',#108,#101,#113,.F.) ;
#133=EDGE_CURVE('',#132,#63,#130,.T.) ;
#140=EDGE_CURVE('',#139,#132,#137,.F.) ;
#145=EDGE_CURVE('',#139,#70,#144,.T.) ;
#162=EDGE_CURVE('',#132,#101,#161,.T.) ;
#167=EDGE_CURVE('',#108,#139,#166,.F.) ;
#188=EDGE_CURVE('',#185,#187,#183,.T.) ;
#195=EDGE_CURVE('',#194,#185,#192,.F.) ;
#202=EDGE_CURVE('',#201,#194,#199,.T.) ;
#209=EDGE_CURVE('',#208,#201,#206,.F.) ;
#216=EDGE_CURVE('',#215,#208,#213,.T.) ;
#223=EDGE_CURVE('',#222,#215,#220,.F.) ;
#230=EDGE_CURVE('',#229,#222,#227,.T.) ;
#235=EDGE_CURVE('',#187,#229,#234,.F.) ;
#260=EDGE_CURVE('',#257,#259,#255,.T.) ;
#267=EDGE_CURVE('',#257,#266,#264,.T.) ;
#274=EDGE_CURVE('',#273,#266,#271,.T.) ;
#279=EDGE_CURVE('',#273,#259,#278,.T.) ;
#294=EDGE_CURVE('',#291,#293,#289,.T.) ;
#301=EDGE_CURVE('',#291,#300,#298,.T.) ;
#308=EDGE_CURVE('',#307,#300,#305,.T.) ;
#313=EDGE_CURVE('',#307,#293,#312,.T.) ;
#328=EDGE_CURVE('',#325,#327,#323,.T.) ;
#335=EDGE_CURVE('',#325,#334,#332,.T.) ;
#342=EDGE_CURVE('',#341,#334,#339,.T.) ;
#347=EDGE_CURVE('',#341,#327,#346,.T.) ;
#362=EDGE_CURVE('',#359,#361,#357,.T.) ;
#369=EDGE_CURVE('',#359,#368,#366,.T.) ;
#376=EDGE_CURVE('',#375,#368,#373,.T.) ;
#381=EDGE_CURVE('',#375,#361,#380,.T.) ;
#396=EDGE_CURVE('',#393,#395,#391,.T.) ;
#403=EDGE_CURVE('',#393,#402,#400,.T.) ;
#410=EDGE_CURVE('',#409,#402,#407,.T.) ;
#415=EDGE_CURVE('',#409,#395,#414,.T.) ;
#430=EDGE_CURVE('',#427,#429,#425,.T.) ;
#437=EDGE_CURVE('',#427,#436,#434,.T.) ;
#444=EDGE_CURVE('',#443,#436,#441,.T.) ;
#449=EDGE_CURVE('',#443,#429,#448,.T.) ;
#464=EDGE_CURVE('',#461,#463,#459,.T.) ;
#471=EDGE_CURVE('',#461,#470,#468,.T.) ;
#478=EDGE_CURVE('',#477,#470,#475,.T.) ;
#483=EDGE_CURVE('',#477,#463,#482,.T.) ;
#504=EDGE_CURVE('',#501,#503,#499,.F.) ;
#511=EDGE_CURVE('',#510,#503,#508,.F.) ;
#518=EDGE_CURVE('',#510,#517,#515,.F.) ;
#525=EDGE_CURVE('',#524,#517,#522,.F.) ;
#532=EDGE_CURVE('',#524,#531,#529,.F.) ;
#539=EDGE_CURVE('',#538,#531,#536,.F.) ;
#546=EDGE_CURVE('',#538,#545,#543,.F.) ;
#551=EDGE_CURVE('',#501,#545,#550,.F.) ;
#576=EDGE_CURVE('',#573,#575,#571,.T.) ;
#583=EDGE_CURVE('',#582,#573,#580,.F.) ;
#590=EDGE_CURVE('',#589,#582,#587,.T.) ;
#595=EDGE_CURVE('',#575,#589,#594,.F.) ;
#610=EDGE_CURVE('',#607,#609,#605,.T.) ;
#617=EDGE_CURVE('',#616,#607,#614,.F.) ;
#624=EDGE_CURVE('',#623,#616,#621,.T.) ;
#629=EDGE_CURVE('',#609,#623,#628,.F.) ;
#644=EDGE_CURVE('',#641,#643,#639,.T.) ;
#651=EDGE_CURVE('',#650,#641,#648,.F.) ;
#658=EDGE_CURVE('',#657,#650,#655,.T.) ;
#663=EDGE_CURVE('',#643,#657,#662,.F.) ;
#678=EDGE_CURVE('',#675,#677,#673,.T.) ;
#685=EDGE_CURVE('',#684,#675,#682,.F.) ;
#692=EDGE_CURVE('',#691,#684,#689,.T.) ;
#697=EDGE_CURVE('',#677,#691,#696,.F.) ;
#712=EDGE_CURVE('',#709,#711,#707,.T.) ;
#719=EDGE_CURVE('',#718,#709,#716,.F.) ;
#726=EDGE_CURVE('',#725,#718,#723,.T.) ;
#731=EDGE_CURVE('',#711,#725,#730,.F.) ;
#746=EDGE_CURVE('',#743,#745,#741,.T.) ;
#753=EDGE_CURVE('',#752,#743,#750,.F.) ;
#760=EDGE_CURVE('',#759,#752,#757,.T.) ;
#765=EDGE_CURVE('',#745,#759,#764,.F.) ;
#780=EDGE_CURVE('',#777,#779,#775,.T.) ;
#787=EDGE_CURVE('',#786,#777,#784,.F.) ;
#794=EDGE_CURVE('',#793,#786,#791,.T.) ;
#799=EDGE_CURVE('',#779,#793,#798,.F.) ;
#816=EDGE_CURVE('',#545,#185,#815,.T.) ;
#821=EDGE_CURVE('',#538,#194,#820,.T.) ;
#838=EDGE_CURVE('',#531,#201,#837,.T.) ;
#855=EDGE_CURVE('',#501,#187,#854,.T.) ;
#872=EDGE_CURVE('',#510,#222,#871,.T.) ;
#877=EDGE_CURVE('',#517,#215,#876,.T.) ;
#894=EDGE_CURVE('',#524,#208,#893,.T.) ;
#911=EDGE_CURVE('',#503,#229,#910,.T.) ;
#947=EDGE_CURVE('',#575,#266,#946,.T.) ;
#952=EDGE_CURVE('',#589,#273,#951,.T.) ;
#969=EDGE_CURVE('',#573,#257,#968,.F.) ;
#981=EDGE_CURVE('',#582,#259,#980,.T.) ;
#1010=EDGE_CURVE('',#609,#300,#1009,.T.) ;
#1015=EDGE_CURVE('',#623,#307,#1014,.T.) ;
#1032=EDGE_CURVE('',#607,#291,#1031,.F.) ;
#1049=EDGE_CURVE('',#616,#293,#1048,.T.) ;
#1078=EDGE_CURVE('',#643,#334,#1077,.T.) ;
#1083=EDGE_CURVE('',#657,#341,#1082,.T.) ;
#1100=EDGE_CURVE('',#641,#325,#1099,.F.) ;
#1117=EDGE_CURVE('',#650,#327,#1116,.T.) ;
#1141=EDGE_CURVE('',#677,#368,#1140,.T.) ;
#1146=EDGE_CURVE('',#691,#375,#1145,.T.) ;
#1163=EDGE_CURVE('',#675,#359,#1162,.F.) ;
#1175=EDGE_CURVE('',#684,#361,#1174,.T.) ;
#1204=EDGE_CURVE('',#711,#402,#1203,.T.) ;
#1209=EDGE_CURVE('',#725,#409,#1208,.T.) ;
#1226=EDGE_CURVE('',#709,#393,#1225,.F.) ;
#1243=EDGE_CURVE('',#718,#395,#1242,.T.) ;
#1267=EDGE_CURVE('',#745,#436,#1266,.T.) ;
#1272=EDGE_CURVE('',#759,#443,#1271,.T.) ;
#1289=EDGE_CURVE('',#743,#427,#1288,.F.) ;
#1301=EDGE_CURVE('',#752,#429,#1300,.T.) ;
#1330=EDGE_CURVE('',#779,#470,#1329,.T.) ;
#1335=EDGE_CURVE('',#793,#477,#1334,.T.) ;
#1352=EDGE_CURVE('',#777,#461,#1351,.F.) ;
#1369=EDGE_CURVE('',#786,#463,#1368,.T.) ;
#84=EDGE_LOOP('',(#85,#86,#87,#88)) ;
#115=EDGE_LOOP('',(#116,#117,#118,#119)) ;
#146=EDGE_LOOP('',(#147,#148,#149,#150)) ;
#168=EDGE_LOOP('',(#169,#170,#171,#172)) ;
#236=EDGE_LOOP('',(#237,#238,#239,#240,#241,#242,#243,#244)) ;
#246=EDGE_LOOP('',(#247,#248,#249,#250)) ;
#280=EDGE_LOOP('',(#281,#282,#283,#284)) ;
#314=EDGE_LOOP('',(#315,#316,#317,#318)) ;
#348=EDGE_LOOP('',(#349,#350,#351,#352)) ;
#382=EDGE_LOOP('',(#383,#384,#385,#386)) ;
#416=EDGE_LOOP('',(#417,#418,#419,#420)) ;
#450=EDGE_LOOP('',(#451,#452,#453,#454)) ;
#484=EDGE_LOOP('',(#485,#486,#487,#488)) ;
#552=EDGE_LOOP('',(#553,#554,#555,#556,#557,#558,#559,#560)) ;
#562=EDGE_LOOP('',(#563,#564,#565,#566)) ;
#596=EDGE_LOOP('',(#597,#598,#599,#600)) ;
#630=EDGE_LOOP('',(#631,#632,#633,#634)) ;
#664=EDGE_LOOP('',(#665,#666,#667,#668)) ;
#698=EDGE_LOOP('',(#699,#700,#701,#702)) ;
#732=EDGE_LOOP('',(#733,#734,#735,#736)) ;
#766=EDGE_LOOP('',(#767,#768,#769,#770)) ;
#800=EDGE_LOOP('',(#801,#802,#803,#804)) ;
#822=EDGE_LOOP('',(#823,#824,#825,#826)) ;
#839=EDGE_LOOP('',(#840,#841,#842,#843)) ;
#856=EDGE_LOOP('',(#857,#858,#859,#860)) ;
#878=EDGE_LOOP('',(#879,#880,#881,#882)) ;
#895=EDGE_LOOP('',(#896,#897,#898,#899)) ;
#912=EDGE_LOOP('',(#913,#914,#915,#916)) ;
#924=EDGE_LOOP('',(#925,#926,#927,#928)) ;
#936=EDGE_LOOP('',(#937,#938,#939,#940)) ;
#953=EDGE_LOOP('',(#954,#955,#956,#957)) ;
#970=EDGE_LOOP('',(#971,#972,#973,#974)) ;
#982=EDGE_LOOP('',(#983,#984,#985,#986)) ;
#994=EDGE_LOOP('',(#995,#996,#997,#998)) ;
#1016=EDGE_LOOP('',(#1017,#1018,#1019,#1020)) ;
#1033=EDGE_LOOP('',(#1034,#1035,#1036,#1037)) ;
#1050=EDGE_LOOP('',(#1051,#1052,#1053,#1054)) ;
#1062=EDGE_LOOP('',(#1063,#1064,#1065,#1066)) ;
#1084=EDGE_LOOP('',(#1085,#1086,#1087,#1088)) ;
#1101=EDGE_LOOP('',(#1102,#1103,#1104,#1105)) ;
#1118=EDGE_LOOP('',(#1119,#1120,#1121,#1122)) ;
#1130=EDGE_LOOP('',(#1131,#1132,#1133,#1134)) ;
#1147=EDGE_LOOP('',(#1148,#1149,#1150,#1151)) ;
#1164=EDGE_LOOP('',(#1165,#1166,#1167,#1168)) ;
#1176=EDGE_LOOP('',(#1177,#1178,#1179,#1180)) ;
#1188=EDGE_LOOP('',(#1189,#1190,#1191,#1192)) ;
#1210=EDGE_LOOP('',(#1211,#1212,#1213,#1214)) ;
#1227=EDGE_LOOP('',(#1228,#1229,#1230,#1231)) ;
#1244=EDGE_LOOP('',(#1245,#1246,#1247,#1248)) ;
#1256=EDGE_LOOP('',(#1257,#1258,#1259,#1260)) ;
#1273=EDGE_LOOP('',(#1274,#1275,#1276,#1277)) ;
#1290=EDGE_LOOP('',(#1291,#1292,#1293,#1294)) ;
#1302=EDGE_LOOP('',(#1303,#1304,#1305,#1306)) ;
#1314=EDGE_LOOP('',(#1315,#1316,#1317,#1318)) ;
#1336=EDGE_LOOP('',(#1337,#1338,#1339,#1340)) ;
#1353=EDGE_LOOP('',(#1354,#1355,#1356,#1357)) ;
#1370=EDGE_LOOP('',(#1371,#1372,#1373,#1374)) ;
#1382=EDGE_LOOP('',(#1383,#1384,#1385,#1386)) ;
#89=FACE_OUTER_BOUND('',#84,.T.) ;
#120=FACE_OUTER_BOUND('',#115,.T.) ;
#151=FACE_OUTER_BOUND('',#146,.T.) ;
#173=FACE_OUTER_BOUND('',#168,.T.) ;
#245=FACE_OUTER_BOUND('',#236,.T.) ;
#561=FACE_OUTER_BOUND('',#552,.T.) ;
#827=FACE_OUTER_BOUND('',#822,.T.) ;
#844=FACE_OUTER_BOUND('',#839,.T.) ;
#861=FACE_OUTER_BOUND('',#856,.T.) ;
#883=FACE_OUTER_BOUND('',#878,.T.) ;
#900=FACE_OUTER_BOUND('',#895,.T.) ;
#917=FACE_OUTER_BOUND('',#912,.T.) ;
#929=FACE_OUTER_BOUND('',#924,.T.) ;
#941=FACE_OUTER_BOUND('',#936,.T.) ;
#958=FACE_OUTER_BOUND('',#953,.T.) ;
#975=FACE_OUTER_BOUND('',#970,.T.) ;
#987=FACE_OUTER_BOUND('',#982,.T.) ;
#999=FACE_OUTER_BOUND('',#994,.T.) ;
#1021=FACE_OUTER_BOUND('',#1016,.T.) ;
#1038=FACE_OUTER_BOUND('',#1033,.T.) ;
#1055=FACE_OUTER_BOUND('',#1050,.T.) ;
#1067=FACE_OUTER_BOUND('',#1062,.T.) ;
#1089=FACE_OUTER_BOUND('',#1084,.T.) ;
#1106=FACE_OUTER_BOUND('',#1101,.T.) ;
#1123=FACE_OUTER_BOUND('',#1118,.T.) ;
#1135=FACE_OUTER_BOUND('',#1130,.T.) ;
#1152=FACE_OUTER_BOUND('',#1147,.T.) ;
#1169=FACE_OUTER_BOUND('',#1164,.T.) ;
#1181=FACE_OUTER_BOUND('',#1176,.T.) ;
#1193=FACE_OUTER_BOUND('',#1188,.T.) ;
#1215=FACE_OUTER_BOUND('',#1210,.T.) ;
#1232=FACE_OUTER_BOUND('',#1227,.T.) ;
#1249=FACE_OUTER_BOUND('',#1244,.T.) ;
#1261=FACE_OUTER_BOUND('',#1256,.T.) ;
#1278=FACE_OUTER_BOUND('',#1273,.T.) ;
#1295=FACE_OUTER_BOUND('',#1290,.T.) ;
#1307=FACE_OUTER_BOUND('',#1302,.T.) ;
#1319=FACE_OUTER_BOUND('',#1314,.T.) ;
#1341=FACE_OUTER_BOUND('',#1336,.T.) ;
#1358=FACE_OUTER_BOUND('',#1353,.T.) ;
#1375=FACE_OUTER_BOUND('',#1370,.T.) ;
#1387=FACE_OUTER_BOUND('',#1382,.T.) ;
#44=UNCERTAINTY_MEASURE_WITH_UNIT(LENGTH_MEASURE(0.005),#41,'distance_accuracy_value','CONFUSED CURVE UNCERTAINTY') ;
#59=LINE('Line',#56,#58) ;
#68=LINE('Line',#65,#67) ;
#75=LINE('Line',#72,#74) ;
#82=LINE('Line',#79,#81) ;
#113=LINE('Line',#110,#112) ;
#137=LINE('Line',#134,#136) ;
#161=LINE('Line',#158,#160) ;
#166=LINE('Line',#163,#165) ;
#192=LINE('Line',#189,#191) ;
#206=LINE('Line',#203,#205) ;
#220=LINE('Line',#217,#219) ;
#234=LINE('Line',#231,#233) ;
#255=LINE('Line',#252,#254) ;
#271=LINE('Line',#268,#270) ;
#289=LINE('Line',#286,#288) ;
#305=LINE('Line',#302,#304) ;
#323=LINE('Line',#320,#322) ;
#339=LINE('Line',#336,#338) ;
#357=LINE('Line',#354,#356) ;
#373=LINE('Line',#370,#372) ;
#391=LINE('Line',#388,#390) ;
#407=LINE('Line',#404,#406) ;
#425=LINE('Line',#422,#424) ;
#441=LINE('Line',#438,#440) ;
#459=LINE('Line',#456,#458) ;
#475=LINE('Line',#472,#474) ;
#499=LINE('Line',#496,#498) ;
#515=LINE('Line',#512,#514) ;
#529=LINE('Line',#526,#528) ;
#543=LINE('Line',#540,#542) ;
#580=LINE('Line',#577,#579) ;
#594=LINE('Line',#591,#593) ;
#614=LINE('Line',#611,#613) ;
#628=LINE('Line',#625,#627) ;
#648=LINE('Line',#645,#647) ;
#662=LINE('Line',#659,#661) ;
#682=LINE('Line',#679,#681) ;
#696=LINE('Line',#693,#695) ;
#716=LINE('Line',#713,#715) ;
#730=LINE('Line',#727,#729) ;
#750=LINE('Line',#747,#749) ;
#764=LINE('Line',#761,#763) ;
#784=LINE('Line',#781,#783) ;
#798=LINE('Line',#795,#797) ;
#815=LINE('Line',#812,#814) ;
#820=LINE('Line',#817,#819) ;
#837=LINE('Line',#834,#836) ;
#854=LINE('Line',#851,#853) ;
#871=LINE('Line',#868,#870) ;
#876=LINE('Line',#873,#875) ;
#893=LINE('Line',#890,#892) ;
#910=LINE('Line',#907,#909) ;
#946=LINE('Line',#943,#945) ;
#951=LINE('Line',#948,#950) ;
#968=LINE('Line',#965,#967) ;
#980=LINE('Line',#977,#979) ;
#1009=LINE('Line',#1006,#1008) ;
#1014=LINE('Line',#1011,#1013) ;
#1031=LINE('Line',#1028,#1030) ;
#1048=LINE('Line',#1045,#1047) ;
#1077=LINE('Line',#1074,#1076) ;
#1082=LINE('Line',#1079,#1081) ;
#1099=LINE('Line',#1096,#1098) ;
#1116=LINE('Line',#1113,#1115) ;
#1140=LINE('Line',#1137,#1139) ;
#1145=LINE('Line',#1142,#1144) ;
#1162=LINE('Line',#1159,#1161) ;
#1174=LINE('Line',#1171,#1173) ;
#1203=LINE('Line',#1200,#1202) ;
#1208=LINE('Line',#1205,#1207) ;
#1225=LINE('Line',#1222,#1224) ;
#1242=LINE('Line',#1239,#1241) ;
#1266=LINE('Line',#1263,#1265) ;
#1271=LINE('Line',#1268,#1270) ;
#1288=LINE('Line',#1285,#1287) ;
#1300=LINE('Line',#1297,#1299) ;
#1329=LINE('Line',#1326,#1328) ;
#1334=LINE('Line',#1331,#1333) ;
#1351=LINE('Line',#1348,#1350) ;
#1368=LINE('Line',#1365,#1367) ;
#2=MECHANICAL_CONTEXT(' ',#1,'mechanical') ;
#24=PERSONAL_ADDRESS(' ',' ',' ',' ',' ',' ',' ',' ',' ',' ',' ',' ',(#22),' ') ;
#55=PLANE('',#54) ;
#157=PLANE('',#156) ;
#179=PLANE('',#178) ;
#495=PLANE('',#494) ;
#811=PLANE('',#810) ;
#867=PLANE('',#866) ;
#923=PLANE('',#922) ;
#935=PLANE('',#934) ;
#1005=PLANE('',#1004) ;
#1044=PLANE('',#1043) ;
#1073=PLANE('',#1072) ;
#1112=PLANE('',#1111) ;
#1199=PLANE('',#1198) ;
#1238=PLANE('',#1237) ;
#1325=PLANE('',#1324) ;
#1364=PLANE('',#1363) ;
#7=PRODUCT_CATEGORY('part',$) ;
#9=PRODUCT_CATEGORY_RELATIONSHIP(' ',' ',#7,#8) ;
#6=PRODUCT_DEFINITION_FORMATION_WITH_SPECIFIED_SOURCE('\X2\6D60\X0\',' ',#5,.NOT_KNOWN.) ;
#8=PRODUCT_RELATED_PRODUCT_CATEGORY('detail',$,(#5)) ;
#49=SHAPE_DEFINITION_REPRESENTATION(#40,#48) ;
#61=VERTEX_POINT('',#60) ;
#63=VERTEX_POINT('',#62) ;
#70=VERTEX_POINT('',#69) ;
#77=VERTEX_POINT('',#76) ;
#101=VERTEX_POINT('',#100) ;
#108=VERTEX_POINT('',#107) ;
#132=VERTEX_POINT('',#131) ;
#139=VERTEX_POINT('',#138) ;
#185=VERTEX_POINT('',#184) ;
#187=VERTEX_POINT('',#186) ;
#194=VERTEX_POINT('',#193) ;
#201=VERTEX_POINT('',#200) ;
#208=VERTEX_POINT('',#207) ;
#215=VERTEX_POINT('',#214) ;
#222=VERTEX_POINT('',#221) ;
#229=VERTEX_POINT('',#228) ;
#257=VERTEX_POINT('',#256) ;
#259=VERTEX_POINT('',#258) ;
#266=VERTEX_POINT('',#265) ;
#273=VERTEX_POINT('',#272) ;
#291=VERTEX_POINT('',#290) ;
#293=VERTEX_POINT('',#292) ;
#300=VERTEX_POINT('',#299) ;
#307=VERTEX_POINT('',#306) ;
#325=VERTEX_POINT('',#324) ;
#327=VERTEX_POINT('',#326) ;
#334=VERTEX_POINT('',#333) ;
#341=VERTEX_POINT('',#340) ;
#359=VERTEX_POINT('',#358) ;
#361=VERTEX_POINT('',#360) ;
#368=VERTEX_POINT('',#367) ;
#375=VERTEX_POINT('',#374) ;
#393=VERTEX_POINT('',#392) ;
#395=VERTEX_POINT('',#394) ;
#402=VERTEX_POINT('',#401) ;
#409=VERTEX_POINT('',#408) ;
#427=VERTEX_POINT('',#426) ;
#429=VERTEX_POINT('',#428) ;
#436=VERTEX_POINT('',#435) ;
#443=VERTEX_POINT('',#442) ;
#461=VERTEX_POINT('',#460) ;
#463=VERTEX_POINT('',#462) ;
#470=VERTEX_POINT('',#469) ;
#477=VERTEX_POINT('',#476) ;
#501=VERTEX_POINT('',#500) ;
#503=VERTEX_POINT('',#502) ;
#510=VERTEX_POINT('',#509) ;
#517=VERTEX_POINT('',#516) ;
#524=VERTEX_POINT('',#523) ;
#531=VERTEX_POINT('',#530) ;
#538=VERTEX_POINT('',#537) ;
#545=VERTEX_POINT('',#544) ;
#573=VERTEX_POINT('',#572) ;
#575=VERTEX_POINT('',#574) ;
#582=VERTEX_POINT('',#581) ;
#589=VERTEX_POINT('',#588) ;
#607=VERTEX_POINT('',#606) ;
#609=VERTEX_POINT('',#608) ;
#616=VERTEX_POINT('',#615) ;
#623=VERTEX_POINT('',#622) ;
#641=VERTEX_POINT('',#640) ;
#643=VERTEX_POINT('',#642) ;
#650=VERTEX_POINT('',#649) ;
#657=VERTEX_POINT('',#656) ;
#675=VERTEX_POINT('',#674) ;
#677=VERTEX_POINT('',#676) ;
#684=VERTEX_POINT('',#683) ;
#691=VERTEX_POINT('',#690) ;
#709=VERTEX_POINT('',#708) ;
#711=VERTEX_POINT('',#710) ;
#718=VERTEX_POINT('',#717) ;
#725=VERTEX_POINT('',#724) ;
#743=VERTEX_POINT('',#742) ;
#745=VERTEX_POINT('',#744) ;
#752=VERTEX_POINT('',#751) ;
#759=VERTEX_POINT('',#758) ;
#777=VERTEX_POINT('',#776) ;
#779=VERTEX_POINT('',#778) ;
#786=VERTEX_POINT('',#785) ;
#793=VERTEX_POINT('',#792) ;
#41=(LENGTH_UNIT()NAMED_UNIT(*)SI_UNIT(.MILLI.,.METRE.)) ;
#42=(NAMED_UNIT(*)PLANE_ANGLE_UNIT()SI_UNIT($,.RADIAN.)) ;
#43=(NAMED_UNIT(*)SI_UNIT($,.STERADIAN.)SOLID_ANGLE_UNIT()) ;
#45=(GEOMETRIC_REPRESENTATION_CONTEXT(3)GLOBAL_UNCERTAINTY_ASSIGNED_CONTEXT((#44))GLOBAL_UNIT_ASSIGNED_CONTEXT((#41,#42,#43))REPRESENTATION_CONTEXT(' ',' ')) ;
ENDSEC;
END-ISO-10303-21;
