ISO-10303-21;
HEADER;
FILE_DESCRIPTION (( 'STEP AP203' ),
    '1' );
FILE_NAME ('Éý½µÌ¨×ª½Ó°å3A.STEP',
    '2026-05-11T16:34:51',
    ( '' ),
    ( '' ),
    'SwSTEP 2.0',
    'SolidWorks 2025',
    '' );
FILE_SCHEMA (( 'CONFIG_CONTROL_DESIGN' ));
ENDSEC;

DATA;
#1 = EDGE_LOOP ( 'NONE', ( #738, #1131 ) ) ;
#2 = ORIENTED_EDGE ( 'NONE', *, *, #1025, .F. ) ;
#3 = DIRECTION ( 'NONE',  ( -0.000000000000000000, 1.000000000000000000, -0.000000000000000000 ) ) ;
#4 = DIRECTION ( 'NONE',  ( 0.000000000000000000, 0.000000000000000000, -1.000000000000000000 ) ) ;
#5 = DIRECTION ( 'NONE',  ( 0.000000000000000000, 1.000000000000000000, -0.000000000000000000 ) ) ;
#6 = EDGE_LOOP ( 'NONE', ( #1157, #227, #522, #987 ) ) ;
#7 = CARTESIAN_POINT ( 'NONE',  ( -25.00000000000000000, 3.000000000000000000, 25.00000000000000000 ) ) ;
#8 = CALENDAR_DATE ( 2026, 12, 5 ) ;
#9 = ADVANCED_FACE ( 'NONE', ( #1129 ), #1120, .F. ) ;
#10 = EDGE_CURVE ( 'NONE', #778, #1136, #695, .T. ) ;
#11 = CARTESIAN_POINT ( 'NONE',  ( -35.00000000000000711, 3.000000000000000000, 35.00000000000000000 ) ) ;
#12 = AXIS2_PLACEMENT_3D ( 'NONE', #932, #1167, #729 ) ;
#13 = ORIENTED_EDGE ( 'NONE', *, *, #926, .F. ) ;
#14 = ORIENTED_EDGE ( 'NONE', *, *, #963, .F. ) ;
#15 = PERSON_AND_ORGANIZATION_ROLE ( 'creator' ) ;
#16 = AXIS2_PLACEMENT_3D ( 'NONE', #1023, #1033, #86 ) ;
#17 = AXIS2_PLACEMENT_3D ( 'NONE', #1283, #319, #331 ) ;
#18 = EDGE_CURVE ( 'NONE', #661, #786, #439, .T. ) ;
#19 = CIRCLE ( 'NONE', #1318, 1.500000000000000444 ) ;
#20 = CARTESIAN_POINT ( 'NONE',  ( -25.00000000000000711, 3.000000000000000000, 25.00000000000000000 ) ) ;
#21 = CARTESIAN_POINT ( 'NONE',  ( 25.00000000000000000, 3.000000000000000000, 23.50000000000000000 ) ) ;
#22 = ORIENTED_EDGE ( 'NONE', *, *, #141, .T. ) ;
#23 = APPROVAL_DATE_TIME ( #1071, #1060 ) ;
#24 = APPROVAL_PERSON_ORGANIZATION ( #851, #814, #864 ) ;
#25 = ORIENTED_EDGE ( 'NONE', *, *, #860, .T. ) ;
#26 = CARTESIAN_POINT ( 'NONE',  ( 25.00000000000000000, 3.000000000000000000, -26.50000000000000355 ) ) ;
#27 = ORIENTED_EDGE ( 'NONE', *, *, #963, .T. ) ;
#28 = PERSON_AND_ORGANIZATION_ROLE ( 'creator' ) ;
#29 = PRODUCT ( '\X2\5347964d53f08f6c63a5677f\X0\3A', '\X2\5347964d53f08f6c63a5677f\X0\3A', '', ( #300 ) ) ;
#30 = VERTEX_POINT ( 'NONE', #852 ) ;
#31 = FACE_OUTER_BOUND ( 'NONE', #1245, .T. ) ;
#32 = AXIS2_PLACEMENT_3D ( 'NONE', #1334, #1232, #84 ) ;
#33 = EDGE_CURVE ( 'NONE', #808, #669, #986, .T. ) ;
#34 = EDGE_LOOP ( 'NONE', ( #59, #22, #74, #757 ) ) ;
#35 = LINE ( 'NONE', #211, #284 ) ;
#36 = EDGE_CURVE ( 'NONE', #713, #1011, #710, .T. ) ;
#37 = EDGE_LOOP ( 'NONE', ( #1100, #471 ) ) ;
#38 = VECTOR ( 'NONE', #1308, 1000.000000000000000 ) ;
#39 = ORIENTED_EDGE ( 'NONE', *, *, #858, .F. ) ;
#40 = CC_DESIGN_PERSON_AND_ORGANIZATION_ASSIGNMENT ( #328, #646, ( #29 ) ) ;
#41 = DIRECTION ( 'NONE',  ( 0.000000000000000000, 1.000000000000000000, 0.000000000000000000 ) ) ;
#42 = AXIS2_PLACEMENT_3D ( 'NONE', #580, #181, #1092 ) ;
#43 = DIRECTION ( 'NONE',  ( -0.000000000000000000, 1.000000000000000000, -0.000000000000000000 ) ) ;
#44 = ORIENTED_EDGE ( 'NONE', *, *, #563, .T. ) ;
#45 = CIRCLE ( 'NONE', #287, 1.500000000000001332 ) ;
#46 = CARTESIAN_POINT ( 'NONE',  ( -6.999999999999999112, 3.000000000000000000, -1.893219326047058382E-15 ) ) ;
#47 = VERTEX_POINT ( 'NONE', #539 ) ;
#48 = DIRECTION ( 'NONE',  ( -0.000000000000000000, -1.000000000000000000, -0.000000000000000000 ) ) ;
#49 = CC_DESIGN_APPROVAL ( #85, ( #581 ) ) ;
#50 = CARTESIAN_POINT ( 'NONE',  ( 24.99999999999999289, 3.000000000000000000, 35.00000000000000000 ) ) ;
#51 = ORIENTED_EDGE ( 'NONE', *, *, #1299, .T. ) ;
#52 = ORIENTED_EDGE ( 'NONE', *, *, #637, .F. ) ;
#53 = ADVANCED_FACE ( 'NONE', ( #957 ), #747, .F. ) ;
#54 = CARTESIAN_POINT ( 'NONE',  ( 6.999999999999999112, 3.000000000000000000, 4.336808689942019708E-16 ) ) ;
#55 = ORIENTED_EDGE ( 'NONE', *, *, #946, .F. ) ;
#56 = PLANE ( 'NONE',  #1292 ) ;
#57 = EDGE_CURVE ( 'NONE', #1175, #778, #1061, .T. ) ;
#58 = CARTESIAN_POINT ( 'NONE',  ( 0.000000000000000000, -2.000000000000000000, 22.00000000000000000 ) ) ;
#59 = ORIENTED_EDGE ( 'NONE', *, *, #33, .F. ) ;
#60 = CARTESIAN_POINT ( 'NONE',  ( 25.00000000000000000, 3.000000000000000000, 23.50000000000000000 ) ) ;
#61 = DIRECTION ( 'NONE',  ( -0.000000000000000000, -1.000000000000000000, -0.000000000000000000 ) ) ;
#62 = EDGE_CURVE ( 'NONE', #1359, #955, #1282, .T. ) ;
#63 = CARTESIAN_POINT ( 'NONE',  ( 0.000000000000000000, -9.000000000000000000, 0.000000000000000000 ) ) ;
#64 = VECTOR ( 'NONE', #1235, 1000.000000000000000 ) ;
#65 = CARTESIAN_POINT ( 'NONE',  ( -4.211785596324486175E-15, -7.000000000000000000, -2.727108307582741808E-15 ) ) ;
#66 = AXIS2_PLACEMENT_3D ( 'NONE', #293, #407, #1140 ) ;
#67 = ORIENTED_EDGE ( 'NONE', *, *, #99, .T. ) ;
#68 = CIRCLE ( 'NONE', #1005, 10.00000000000000000 ) ;
#69 = DIRECTION ( 'NONE',  ( -0.000000000000000000, 1.000000000000000000, -0.000000000000000000 ) ) ;
#70 = CARTESIAN_POINT ( 'NONE',  ( -35.00000000000000711, 0.000000000000000000, 35.00000000000000000 ) ) ;
#71 = DIRECTION ( 'NONE',  ( 0.000000000000000000, 0.000000000000000000, -1.000000000000000000 ) ) ;
#72 = FACE_OUTER_BOUND ( 'NONE', #1158, .T. ) ;
#73 = DIRECTION ( 'NONE',  ( 0.000000000000000000, 0.000000000000000000, -1.000000000000000000 ) ) ;
#74 = ORIENTED_EDGE ( 'NONE', *, *, #375, .T. ) ;
#75 = EDGE_CURVE ( 'NONE', #756, #399, #395, .T. ) ;
#76 = CARTESIAN_POINT ( 'NONE',  ( 0.000000000000000000, 1.000000000000000000, 0.000000000000000000 ) ) ;
#77 = DIRECTION ( 'NONE',  ( 0.000000000000000000, -1.000000000000000000, 0.000000000000000000 ) ) ;
#78 = DIRECTION ( 'NONE',  ( -0.000000000000000000, -1.000000000000000000, -0.000000000000000000 ) ) ;
#79 = CYLINDRICAL_SURFACE ( 'NONE', #1026, 32.00000000000000000 ) ;
#80 = EDGE_LOOP ( 'NONE', ( #991, #698 ) ) ;
#81 = DIRECTION ( 'NONE',  ( -0.000000000000000000, 1.000000000000000000, -0.000000000000000000 ) ) ;
#82 = CARTESIAN_POINT ( 'NONE',  ( -25.00000000000000000, 3.000000000000000000, 26.50000000000000355 ) ) ;
#83 = AXIS2_PLACEMENT_3D ( 'NONE', #1058, #531, #1253 ) ;
#84 = DIRECTION ( 'NONE',  ( 0.000000000000000000, 0.000000000000000000, -1.000000000000000000 ) ) ;
#85 = APPROVAL ( #653, 'æœª' ) ;
#86 = DIRECTION ( 'NONE',  ( 0.000000000000000000, 0.000000000000000000, -1.000000000000000000 ) ) ;
#87 = ORIENTED_EDGE ( 'NONE', *, *, #375, .F. ) ;
#88 = AXIS2_PLACEMENT_3D ( 'NONE', #230, #1185, #238 ) ;
#89 = AXIS2_PLACEMENT_3D ( 'NONE', #668, #1326, #990 ) ;
#90 = EDGE_LOOP ( 'NONE', ( #1301, #249 ) ) ;
#91 = CARTESIAN_POINT ( 'NONE',  ( 0.000000000000000000, 3.000000000000000000, 10.00000000000000000 ) ) ;
#92 = DIRECTION ( 'NONE',  ( -0.000000000000000000, -1.000000000000000000, -0.000000000000000000 ) ) ;
#93 = DIRECTION ( 'NONE',  ( 0.000000000000000000, -0.000000000000000000, 1.000000000000000000 ) ) ;
#94 = CARTESIAN_POINT ( 'NONE',  ( -4.211785596324486175E-15, 1.000000000000000000, -2.727108307582741808E-15 ) ) ;
#95 = ORIENTED_EDGE ( 'NONE', *, *, #749, .T. ) ;
#96 = DIRECTION ( 'NONE',  ( 0.000000000000000000, 0.000000000000000000, -1.000000000000000000 ) ) ;
#97 = CYLINDRICAL_SURFACE ( 'NONE', #1030, 1.500000000000001332 ) ;
#98 = ADVANCED_FACE ( 'NONE', ( #893, #72, #823, #1230, #1238, #592 ), #285, .F. ) ;
#99 = EDGE_CURVE ( 'NONE', #865, #611, #641, .T. ) ;
#100 = LINE ( 'NONE', #613, #1353 ) ;
#101 = CARTESIAN_POINT ( 'NONE',  ( -6.999999999999999112, 1.000000000000000000, -1.893219326047058382E-15 ) ) ;
#102 = EDGE_LOOP ( 'NONE', ( #887, #1093, #1291, #597 ) ) ;
#103 = ORIENTED_EDGE ( 'NONE', *, *, #1031, .F. ) ;
#104 = DIRECTION ( 'NONE',  ( 0.000000000000000000, 0.000000000000000000, -1.000000000000000000 ) ) ;
#105 = FACE_OUTER_BOUND ( 'NONE', #1153, .T. ) ;
#106 = AXIS2_PLACEMENT_3D ( 'NONE', #588, #1015, #188 ) ;
#107 = DIRECTION ( 'NONE',  ( 0.000000000000000000, -1.000000000000000000, 0.000000000000000000 ) ) ;
#108 = VECTOR ( 'NONE', #453, 1000.000000000000000 ) ;
#109 = VERTEX_POINT ( 'NONE', #191 ) ;
#110 = CYLINDRICAL_SURFACE ( 'NONE', #255, 15.00000000000000000 ) ;
#111 = DIRECTION ( 'NONE',  ( 0.000000000000000000, 0.000000000000000000, -1.000000000000000000 ) ) ;
#112 = ORGANIZATION ( 'æœª', 'æœª', '' ) ;
#113 = AXIS2_PLACEMENT_3D ( 'NONE', #1002, #69, #482 ) ;
#114 = CARTESIAN_POINT ( 'NONE',  ( -25.00000000000000000, 0.000000000000000000, -25.00000000000000000 ) ) ;
#115 = ORIENTED_EDGE ( 'NONE', *, *, #880, .F. ) ;
#116 = EDGE_CURVE ( 'NONE', #1091, #215, #820, .T. ) ;
#117 = ORIENTED_EDGE ( 'NONE', *, *, #1181, .F. ) ;
#118 = CARTESIAN_POINT ( 'NONE',  ( -35.00000000000000711, 3.000000000000000000, -25.00000000000000000 ) ) ;
#119 = APPROVAL_ROLE ( '' ) ;
#120 = EDGE_CURVE ( 'NONE', #565, #1111, #1132, .T. ) ;
#121 = DIRECTION ( 'NONE',  ( -0.000000000000000000, -1.000000000000000000, -0.000000000000000000 ) ) ;
#122 = ORIENTED_EDGE ( 'NONE', *, *, #690, .F. ) ;
#123 = ADVANCED_FACE ( 'NONE', ( #911, #400 ), #265, .T. ) ;
#124 = ORIENTED_EDGE ( 'NONE', *, *, #598, .T. ) ;
#125 = COORDINATED_UNIVERSAL_TIME_OFFSET ( 8, 0, .AHEAD. ) ;
#126 = DIRECTION ( 'NONE',  ( 0.000000000000000000, -1.000000000000000000, 0.000000000000000000 ) ) ;
#127 = VECTOR ( 'NONE', #1048, 1000.000000000000000 ) ;
#128 = ORIENTED_EDGE ( 'NONE', *, *, #318, .T. ) ;
#129 = ORIENTED_EDGE ( 'NONE', *, *, #1192, .F. ) ;
#130 = PERSON_AND_ORGANIZATION ( #329, #112 ) ;
#131 = AXIS2_PLACEMENT_3D ( 'NONE', #101, #1130, #726 ) ;
#132 = CIRCLE ( 'NONE', #1097, 32.00000000000000000 ) ;
#133 = CIRCLE ( 'NONE', #365, 15.00000000000000000 ) ;
#134 = DIRECTION ( 'NONE',  ( 0.000000000000000000, 1.000000000000000000, 0.000000000000000000 ) ) ;
#135 = DIRECTION ( 'NONE',  ( -0.000000000000000000, -1.000000000000000000, -0.000000000000000000 ) ) ;
#136 = EDGE_LOOP ( 'NONE', ( #1041, #1267, #623, #259 ) ) ;
#137 = APPROVAL_DATE_TIME ( #547, #85 ) ;
#138 = EDGE_CURVE ( 'NONE', #870, #204, #239, .T. ) ;
#139 = ORIENTED_EDGE ( 'NONE', *, *, #393, .T. ) ;
#140 = ADVANCED_FACE ( 'NONE', ( #708 ), #599, .F. ) ;
#141 = EDGE_CURVE ( 'NONE', #808, #316, #173, .T. ) ;
#142 = CARTESIAN_POINT ( 'NONE',  ( 0.000000000000000000, -9.000000000000000000, 0.000000000000000000 ) ) ;
#143 = ORIENTED_EDGE ( 'NONE', *, *, #1112, .T. ) ;
#144 = DIRECTION ( 'NONE',  ( -0.000000000000000000, -1.000000000000000000, -0.000000000000000000 ) ) ;
#145 = ORIENTED_EDGE ( 'NONE', *, *, #62, .T. ) ;
#146 = DATE_TIME_ROLE ( 'creation_date' ) ;
#147 = CARTESIAN_POINT ( 'NONE',  ( 0.000000000000000000, -2.000000000000000000, 0.000000000000000000 ) ) ;
#148 = VERTEX_POINT ( 'NONE', #822 ) ;
#149 = CARTESIAN_POINT ( 'NONE',  ( -25.00000000000000000, 3.000000000000000000, 25.00000000000000000 ) ) ;
#150 = ORIENTED_EDGE ( 'NONE', *, *, #563, .F. ) ;
#151 = AXIS2_PLACEMENT_3D ( 'NONE', #984, #41, #267 ) ;
#152 = DIRECTION ( 'NONE',  ( 0.000000000000000000, -0.000000000000000000, -1.000000000000000000 ) ) ;
#153 = EDGE_LOOP ( 'NONE', ( #989, #658, #315, #856 ) ) ;
#154 = VECTOR ( 'NONE', #226, 1000.000000000000000 ) ;
#155 = CARTESIAN_POINT ( 'NONE',  ( 2.694222958124176809E-15, -2.000000000000000000, -22.00000000000000000 ) ) ;
#156 = CARTESIAN_POINT ( 'NONE',  ( 0.000000000000000000, -9.000000000000000000, 22.00000000000000000 ) ) ;
#157 = EDGE_CURVE ( 'NONE', #669, #808, #68, .T. ) ;
#158 = VERTEX_POINT ( 'NONE', #1027 ) ;
#159 = AXIS2_PLACEMENT_3D ( 'NONE', #1316, #902, #367 ) ;
#160 = EDGE_CURVE ( 'NONE', #109, #530, #683, .T. ) ;
#161 = CARTESIAN_POINT ( 'NONE',  ( -35.00000000000000711, 3.000000000000000000, 25.00000000000000000 ) ) ;
#162 = ORIENTED_EDGE ( 'NONE', *, *, #36, .T. ) ;
#163 = LINE ( 'NONE', #351, #108 ) ;
#164 = CARTESIAN_POINT ( 'NONE',  ( 34.99999999999999289, 3.000000000000000000, 25.00000000000000000 ) ) ;
#165 = VERTEX_POINT ( 'NONE', #91 ) ;
#166 = EDGE_CURVE ( 'NONE', #464, #444, #925, .T. ) ;
#167 = DIRECTION ( 'NONE',  ( 0.000000000000000000, 1.000000000000000000, 0.000000000000000000 ) ) ;
#168 = CARTESIAN_POINT ( 'NONE',  ( 24.99999999999999289, 0.000000000000000000, 25.00000000000000000 ) ) ;
#169 = CARTESIAN_POINT ( 'NONE',  ( -6.999999999999999112, 1.000000000000000000, 1.499999999999998890 ) ) ;
#170 = FACE_OUTER_BOUND ( 'NONE', #1204, .T. ) ;
#171 = CIRCLE ( 'NONE', #32, 1.500000000000000666 ) ;
#172 = EDGE_LOOP ( 'NONE', ( #117, #2 ) ) ;
#173 = LINE ( 'NONE', #292, #704 ) ;
#174 = DIRECTION ( 'NONE',  ( 0.000000000000000000, 0.000000000000000000, -1.000000000000000000 ) ) ;
#175 = CARTESIAN_POINT ( 'NONE',  ( 25.00000000000000000, 3.000000000000000000, -25.00000000000000000 ) ) ;
#176 = DIRECTION ( 'NONE',  ( -0.000000000000000000, 1.000000000000000000, -0.000000000000000000 ) ) ;
#177 = CIRCLE ( 'NONE', #1276, 1.500000000000001332 ) ;
#178 = EDGE_LOOP ( 'NONE', ( #145, #143, #327, #419 ) ) ;
#179 = CIRCLE ( 'NONE', #479, 10.00000000000000178 ) ;
#180 = CARTESIAN_POINT ( 'NONE',  ( 0.000000000000000000, -9.000000000000000000, 22.00000000000000000 ) ) ;
#181 = DIRECTION ( 'NONE',  ( -0.000000000000000000, 1.000000000000000000, -0.000000000000000000 ) ) ;
#182 = CYLINDRICAL_SURFACE ( 'NONE', #693, 3.500000000000003553 ) ;
#183 = EDGE_CURVE ( 'NONE', #745, #231, #578, .T. ) ;
#184 = CARTESIAN_POINT ( 'NONE',  ( -4.211785596324486175E-15, 1.000000000000000000, -3.500000000000006217 ) ) ;
#185 = ORIENTED_EDGE ( 'NONE', *, *, #1314, .F. ) ;
#186 = DIRECTION ( 'NONE',  ( 0.000000000000000000, -0.000000000000000000, -1.000000000000000000 ) ) ;
#187 = DIRECTION ( 'NONE',  ( 0.000000000000000000, 0.000000000000000000, -1.000000000000000000 ) ) ;
#188 = DIRECTION ( 'NONE',  ( 0.000000000000000000, 0.000000000000000000, 1.000000000000000000 ) ) ;
#189 = DIRECTION ( 'NONE',  ( 0.000000000000000000, 0.000000000000000000, -1.000000000000000000 ) ) ;
#190 = ORIENTED_EDGE ( 'NONE', *, *, #138, .T. ) ;
#191 = CARTESIAN_POINT ( 'NONE',  ( 25.00000000000000000, 3.000000000000000000, -23.50000000000000000 ) ) ;
#192 = DIRECTION ( 'NONE',  ( 0.000000000000000000, 1.000000000000000000, 0.000000000000000000 ) ) ;
#193 = AXIS2_PLACEMENT_3D ( 'NONE', #1270, #313, #317 ) ;
#194 = LINE ( 'NONE', #280, #1094 ) ;
#195 = DIRECTION ( 'NONE',  ( 0.000000000000000000, 1.000000000000000000, -0.000000000000000000 ) ) ;
#196 = CIRCLE ( 'NONE', #16, 1.499999999999999556 ) ;
#197 = VERTEX_POINT ( 'NONE', #60 ) ;
#198 = VECTOR ( 'NONE', #748, 1000.000000000000000 ) ;
#199 = CIRCLE ( 'NONE', #1123, 1.500000000000001332 ) ;
#200 = EDGE_CURVE ( 'NONE', #1011, #713, #413, .T. ) ;
#201 = CARTESIAN_POINT ( 'NONE',  ( 0.000000000000000000, -9.000000000000000000, 0.000000000000000000 ) ) ;
#202 = CARTESIAN_POINT ( 'NONE',  ( 1.836970198721029589E-15, -7.000000000000000000, -15.00000000000000000 ) ) ;
#203 = CARTESIAN_POINT ( 'NONE',  ( 25.00000000000000000, 3.000000000000000000, 26.50000000000000355 ) ) ;
#204 = VERTEX_POINT ( 'NONE', #796 ) ;
#205 = ORIENTED_EDGE ( 'NONE', *, *, #635, .F. ) ;
#206 = DIRECTION ( 'NONE',  ( 0.000000000000000000, 0.000000000000000000, 1.000000000000000000 ) ) ;
#207 = DIRECTION ( 'NONE',  ( 0.000000000000000000, 0.000000000000000000, 1.000000000000000000 ) ) ;
#208 = DIRECTION ( 'NONE',  ( 0.000000000000000000, 0.000000000000000000, 1.000000000000000000 ) ) ;
#209 = CARTESIAN_POINT ( 'NONE',  ( -25.00000000000000000, 0.000000000000000000, -26.50000000000000355 ) ) ;
#210 = EDGE_LOOP ( 'NONE', ( #850, #1293, #103, #577 ) ) ;
#211 = CARTESIAN_POINT ( 'NONE',  ( -25.00000000000000000, 3.000000000000000000, -23.50000000000000000 ) ) ;
#212 = DIRECTION ( 'NONE',  ( 0.000000000000000000, -1.000000000000000000, 0.000000000000000000 ) ) ;
#213 = AXIS2_PLACEMENT_3D ( 'NONE', #569, #892, #364 ) ;
#214 = EDGE_CURVE ( 'NONE', #399, #546, #899, .T. ) ;
#215 = VERTEX_POINT ( 'NONE', #1115 ) ;
#216 = EDGE_LOOP ( 'NONE', ( #360, #67, #950, #1057 ) ) ;
#217 = DIRECTION ( 'NONE',  ( 0.000000000000000000, 1.000000000000000000, 0.000000000000000000 ) ) ;
#218 = CALENDAR_DATE ( 2026, 12, 5 ) ;
#219 = LINE ( 'NONE', #634, #1148 ) ;
#220 = AXIS2_PLACEMENT_3D ( 'NONE', #1213, #43, #455 ) ;
#221 = CLOSED_SHELL ( 'NONE', ( #140, #681, #334, #398, #376, #9, #793, #373, #1177, #1137, #1007, #356, #53, #1266, #1161, #1072, #908, #1145, #1009, #98, #980, #766, #979, #890, #785, #1262, #332, #885, #1259, #123, #883, #1214, #935, #263, #537, #827, #495, #1261, #298, #1052 ) ) ;
#222 = ORIENTED_EDGE ( 'NONE', *, *, #662, .T. ) ;
#223 = CC_DESIGN_SECURITY_CLASSIFICATION ( #594, ( #581 ) ) ;
#224 = APPROVAL_STATUS ( 'not_yet_approved' ) ;
#225 = CC_DESIGN_DATE_AND_TIME_ASSIGNMENT ( #1271, #752, ( #594 ) ) ;
#226 = DIRECTION ( 'NONE',  ( 0.000000000000000000, 0.000000000000000000, -1.000000000000000000 ) ) ;
#227 = ORIENTED_EDGE ( 'NONE', *, *, #1112, .F. ) ;
#228 = ORIENTED_EDGE ( 'NONE', *, *, #637, .T. ) ;
#229 = DATE_AND_TIME ( #1168, #371 ) ;
#230 = CARTESIAN_POINT ( 'NONE',  ( 25.00000000000000000, 3.000000000000000000, 25.00000000000000000 ) ) ;
#231 = VERTEX_POINT ( 'NONE', #270 ) ;
#232 = EDGE_LOOP ( 'NONE', ( #122, #660 ) ) ;
#233 = PERSON_AND_ORGANIZATION ( #329, #112 ) ;
#234 = EDGE_CURVE ( 'NONE', #1298, #158, #1189, .T. ) ;
#235 = AXIS2_PLACEMENT_3D ( 'NONE', #610, #1134, #189 ) ;
#236 = VERTEX_POINT ( 'NONE', #904 ) ;
#237 = DIRECTION ( 'NONE',  ( 0.000000000000000000, -1.000000000000000000, 0.000000000000000000 ) ) ;
#238 = DIRECTION ( 'NONE',  ( 0.000000000000000000, 0.000000000000000000, 1.000000000000000000 ) ) ;
#239 = CIRCLE ( 'NONE', #589, 1.500000000000000888 ) ;
#240 = ORIENTED_EDGE ( 'NONE', *, *, #1356, .F. ) ;
#241 = DIRECTION ( 'NONE',  ( 0.000000000000000000, 0.000000000000000000, 1.000000000000000000 ) ) ;
#242 = VERTEX_POINT ( 'NONE', #180 ) ;
#243 = APPROVAL_DATE_TIME ( #229, #814 ) ;
#244 = APPROVAL_PERSON_ORGANIZATION ( #1065, #85, #119 ) ;
#245 = ORIENTED_EDGE ( 'NONE', *, *, #1114, .F. ) ;
#246 = DIRECTION ( 'NONE',  ( -1.000000000000000000, -0.000000000000000000, -9.912705577010325549E-17 ) ) ;
#247 = VERTEX_POINT ( 'NONE', #118 ) ;
#248 = DIRECTION ( 'NONE',  ( 0.000000000000000000, 0.000000000000000000, -1.000000000000000000 ) ) ;
#249 = ORIENTED_EDGE ( 'NONE', *, *, #521, .T. ) ;
#250 = CARTESIAN_POINT ( 'NONE',  ( -35.00000000000000711, 3.000000000000000000, 35.00000000000000000 ) ) ;
#251 = EDGE_LOOP ( 'NONE', ( #682, #930, #1170, #554 ) ) ;
#252 = DIRECTION ( 'NONE',  ( 0.000000000000000000, 0.000000000000000000, -1.000000000000000000 ) ) ;
#253 = CARTESIAN_POINT ( 'NONE',  ( 24.99999999999999289, 0.000000000000000000, 35.00000000000000000 ) ) ;
#254 = EDGE_CURVE ( 'NONE', #1136, #1328, #943, .T. ) ;
#255 = AXIS2_PLACEMENT_3D ( 'NONE', #201, #3, #761 ) ;
#256 = EDGE_CURVE ( 'NONE', #312, #955, #179, .T. ) ;
#257 = ORIENTED_EDGE ( 'NONE', *, *, #1333, .T. ) ;
#258 = CARTESIAN_POINT ( 'NONE',  ( 25.00000000000000000, 3.000000000000000000, 25.00000000000000000 ) ) ;
#259 = ORIENTED_EDGE ( 'NONE', *, *, #809, .F. ) ;
#260 = VECTOR ( 'NONE', #135, 1000.000000000000000 ) ;
#261 = CYLINDRICAL_SURFACE ( 'NONE', #1165, 22.00000000000000000 ) ;
#262 = FACE_OUTER_BOUND ( 'NONE', #6, .T. ) ;
#263 = ADVANCED_FACE ( 'NONE', ( #526 ), #846, .T. ) ;
#264 = ORIENTED_EDGE ( 'NONE', *, *, #616, .F. ) ;
#265 = PLANE ( 'NONE',  #454 ) ;
#266 = CYLINDRICAL_SURFACE ( 'NONE', #431, 10.00000000000000178 ) ;
#267 = DIRECTION ( 'NONE',  ( 0.000000000000000000, 0.000000000000000000, 1.000000000000000000 ) ) ;
#268 = CARTESIAN_POINT ( 'NONE',  ( 0.000000000000000000, -9.000000000000000000, 0.000000000000000000 ) ) ;
#269 = ORIENTED_EDGE ( 'NONE', *, *, #620, .T. ) ;
#270 = CARTESIAN_POINT ( 'NONE',  ( 3.918869757271530263E-15, 0.000000000000000000, -32.00000000000000000 ) ) ;
#271 = FACE_BOUND ( 'NONE', #90, .T. ) ;
#272 = DIRECTION ( 'NONE',  ( 0.000000000000000000, 0.000000000000000000, -1.000000000000000000 ) ) ;
#273 = CARTESIAN_POINT ( 'NONE',  ( 0.000000000000000000, -2.000000000000000000, 0.000000000000000000 ) ) ;
#274 = EDGE_LOOP ( 'NONE', ( #689, #264 ) ) ;
#275 = EDGE_CURVE ( 'NONE', #756, #47, #35, .T. ) ;
#276 = AXIS2_PLACEMENT_3D ( 'NONE', #63, #575, #272 ) ;
#277 = DIRECTION ( 'NONE',  ( 0.000000000000000000, 0.000000000000000000, 1.000000000000000000 ) ) ;
#278 = EDGE_CURVE ( 'NONE', #1229, #1183, #1249, .T. ) ;
#279 = FACE_BOUND ( 'NONE', #1279, .T. ) ;
#280 = CARTESIAN_POINT ( 'NONE',  ( -35.00000000000000711, 0.000000000000000000, 35.00000000000000000 ) ) ;
#281 = DIRECTION ( 'NONE',  ( 0.000000000000000000, 1.000000000000000000, -0.000000000000000000 ) ) ;
#282 = CC_DESIGN_APPROVAL ( #1060, ( #568 ) ) ;
#283 = ORIENTED_EDGE ( 'NONE', *, *, #138, .F. ) ;
#284 = VECTOR ( 'NONE', #144, 1000.000000000000000 ) ;
#285 = PLANE ( 'NONE',  #462 ) ;
#286 = CARTESIAN_POINT ( 'NONE',  ( 25.00000000000000000, 3.000000000000000000, 25.00000000000000000 ) ) ;
#287 = AXIS2_PLACEMENT_3D ( 'NONE', #876, #352, #985 ) ;
#288 = CYLINDRICAL_SURFACE ( 'NONE', #518, 3.500000000000003553 ) ;
#289 = DIRECTION ( 'NONE',  ( -0.000000000000000000, 1.000000000000000000, -0.000000000000000000 ) ) ;
#290 = EDGE_LOOP ( 'NONE', ( #751, #1194 ) ) ;
#291 = AXIS2_PLACEMENT_3D ( 'NONE', #1008, #366, #1109 ) ;
#292 = CARTESIAN_POINT ( 'NONE',  ( 1.224646799147353256E-15, 1.000000000000000000, -10.00000000000000000 ) ) ;
#293 = CARTESIAN_POINT ( 'NONE',  ( 0.000000000000000000, -2.000000000000000000, 0.000000000000000000 ) ) ;
#294 = DIRECTION ( 'NONE',  ( 0.000000000000000000, 1.000000000000000000, 0.000000000000000000 ) ) ;
#295 = CARTESIAN_POINT ( 'NONE',  ( -4.211785596324486175E-15, 3.000000000000000000, -3.500000000000006217 ) ) ;
#296 = EDGE_CURVE ( 'NONE', #1111, #678, #719, .T. ) ;
#297 = ORIENTED_EDGE ( 'NONE', *, *, #619, .T. ) ;
#298 = ADVANCED_FACE ( 'NONE', ( #1147 ), #940, .F. ) ;
#299 = DIRECTION ( 'NONE',  ( -0.000000000000000000, 1.000000000000000000, -0.000000000000000000 ) ) ;
#300 = MECHANICAL_CONTEXT ( 'NONE', #1268, 'mechanical' ) ;
#301 = CIRCLE ( 'NONE', #193, 10.00000000000000000 ) ;
#302 = DIRECTION ( 'NONE',  ( 0.000000000000000000, -1.000000000000000000, 0.000000000000000000 ) ) ;
#303 = LINE ( 'NONE', #397, #787 ) ;
#304 = CIRCLE ( 'NONE', #131, 1.500000000000000888 ) ;
#305 = EDGE_LOOP ( 'NONE', ( #240, #457, #129, #509 ) ) ;
#306 = EDGE_CURVE ( 'NONE', #215, #1229, #626, .T. ) ;
#307 = CARTESIAN_POINT ( 'NONE',  ( -25.00000000000000711, 0.000000000000000000, 25.00000000000000000 ) ) ;
#308 = DIRECTION ( 'NONE',  ( -0.000000000000000000, 1.000000000000000000, -0.000000000000000000 ) ) ;
#309 = FACE_OUTER_BOUND ( 'NONE', #251, .T. ) ;
#310 = DIRECTION ( 'NONE',  ( 0.000000000000000000, 0.000000000000000000, -1.000000000000000000 ) ) ;
#311 = ORIENTED_EDGE ( 'NONE', *, *, #598, .F. ) ;
#312 = VERTEX_POINT ( 'NONE', #1351 ) ;
#313 = DIRECTION ( 'NONE',  ( 0.000000000000000000, 1.000000000000000000, 0.000000000000000000 ) ) ;
#314 = CARTESIAN_POINT ( 'NONE',  ( 25.00000000000000000, 3.000000000000000000, -25.00000000000000000 ) ) ;
#315 = ORIENTED_EDGE ( 'NONE', *, *, #843, .F. ) ;
#316 = VERTEX_POINT ( 'NONE', #970 ) ;
#317 = DIRECTION ( 'NONE',  ( 0.000000000000000000, 0.000000000000000000, 1.000000000000000000 ) ) ;
#318 = EDGE_CURVE ( 'NONE', #1076, #655, #1264, .T. ) ;
#319 = DIRECTION ( 'NONE',  ( -0.000000000000000000, -1.000000000000000000, -0.000000000000000000 ) ) ;
#320 = AXIS2_PLACEMENT_3D ( 'NONE', #445, #790, #867 ) ;
#321 = CC_DESIGN_PERSON_AND_ORGANIZATION_ASSIGNMENT ( #532, #1286, ( #581 ) ) ;
#322 = VECTOR ( 'NONE', #1273, 1000.000000000000000 ) ;
#323 = LINE ( 'NONE', #529, #260 ) ;
#324 = AXIS2_PLACEMENT_3D ( 'NONE', #800, #1010, #576 ) ;
#325 = EDGE_LOOP ( 'NONE', ( #190, #780 ) ) ;
#326 = AXIS2_PLACEMENT_3D ( 'NONE', #1073, #134, #1080 ) ;
#327 = ORIENTED_EDGE ( 'NONE', *, *, #764, .F. ) ;
#328 = PERSON_AND_ORGANIZATION ( #329, #112 ) ;
#329 = PERSON ( 'æœª', 'æœª', 'æœª', ('æœª'), ('æœª'), ('æœª') ) ;
#330 = DIRECTION ( 'NONE',  ( -0.000000000000000000, -1.000000000000000000, -0.000000000000000000 ) ) ;
#331 = DIRECTION ( 'NONE',  ( 0.000000000000000000, 0.000000000000000000, -1.000000000000000000 ) ) ;
#332 = ADVANCED_FACE ( 'NONE', ( #558 ), #1246, .F. ) ;
#333 = ORIENTED_EDGE ( 'NONE', *, *, #1284, .F. ) ;
#334 = ADVANCED_FACE ( 'NONE', ( #720 ), #110, .F. ) ;
#335 = ORIENTED_EDGE ( 'NONE', *, *, #120, .T. ) ;
#336 = CIRCLE ( 'NONE', #1113, 15.00000000000000000 ) ;
#337 = ORIENTED_EDGE ( 'NONE', *, *, #496, .T. ) ;
#338 = FACE_OUTER_BOUND ( 'NONE', #210, .T. ) ;
#339 = EDGE_LOOP ( 'NONE', ( #978, #734, #1330, #524 ) ) ;
#340 = DIRECTION ( 'NONE',  ( -0.000000000000000000, 1.000000000000000000, -0.000000000000000000 ) ) ;
#341 = EDGE_LOOP ( 'NONE', ( #1122, #87 ) ) ;
#342 = ORIENTED_EDGE ( 'NONE', *, *, #1116, .F. ) ;
#343 = AXIS2_PLACEMENT_3D ( 'NONE', #517, #1239, #1361 ) ;
#344 = CYLINDRICAL_SURFACE ( 'NONE', #383, 1.500000000000000444 ) ;
#345 = ORIENTED_EDGE ( 'NONE', *, *, #350, .T. ) ;
#346 = CARTESIAN_POINT ( 'NONE',  ( -9.771303196415186345E-16, -7.000000000000000000, 6.999999999999999112 ) ) ;
#347 = CIRCLE ( 'NONE', #1128, 1.500000000000000444 ) ;
#348 = ORIENTED_EDGE ( 'NONE', *, *, #1174, .F. ) ;
#349 = ORIENTED_EDGE ( 'NONE', *, *, #120, .F. ) ;
#350 = EDGE_CURVE ( 'NONE', #165, #316, #301, .T. ) ;
#351 = CARTESIAN_POINT ( 'NONE',  ( -35.00000000000000711, 3.000000000000000000, 25.00000000000000000 ) ) ;
#352 = DIRECTION ( 'NONE',  ( 0.000000000000000000, 1.000000000000000000, -0.000000000000000000 ) ) ;
#353 = EDGE_LOOP ( 'NONE', ( #124, #667, #283, #1338 ) ) ;
#354 = DIRECTION ( 'NONE',  ( -0.000000000000000000, 1.000000000000000000, -0.000000000000000000 ) ) ;
#355 = VERTEX_POINT ( 'NONE', #739 ) ;
#356 = ADVANCED_FACE ( 'NONE', ( #612 ), #1035, .F. ) ;
#357 = CARTESIAN_POINT ( 'NONE',  ( -35.00000000000000711, 3.000000000000000000, -35.00000000000000000 ) ) ;
#358 = DIRECTION ( 'NONE',  ( 0.000000000000000000, 0.000000000000000000, -1.000000000000000000 ) ) ;
#359 = VECTOR ( 'NONE', #977, 1000.000000000000000 ) ;
#360 = ORIENTED_EDGE ( 'NONE', *, *, #643, .F. ) ;
#361 = CARTESIAN_POINT ( 'NONE',  ( -25.00000000000000711, 3.000000000000000000, -25.00000000000000000 ) ) ;
#362 = AXIS2_PLACEMENT_3D ( 'NONE', #94, #1243, #1357 ) ;
#363 = CIRCLE ( 'NONE', #1275, 1.500000000000001332 ) ;
#364 = DIRECTION ( 'NONE',  ( 0.000000000000000000, 0.000000000000000000, 1.000000000000000000 ) ) ;
#365 = AXIS2_PLACEMENT_3D ( 'NONE', #1211, #465, #905 ) ;
#366 = DIRECTION ( 'NONE',  ( 0.000000000000000000, 1.000000000000000000, -0.000000000000000000 ) ) ;
#367 = DIRECTION ( 'NONE',  ( 0.000000000000000000, 0.000000000000000000, -1.000000000000000000 ) ) ;
#368 = ORIENTED_EDGE ( 'NONE', *, *, #1114, .T. ) ;
#369 = CARTESIAN_POINT ( 'NONE',  ( -6.999999999999999112, 1.000000000000000000, -1.893219326047058382E-15 ) ) ;
#370 = FACE_OUTER_BOUND ( 'NONE', #353, .T. ) ;
#371 = LOCAL_TIME ( 0, 34, 51.00000000000000000, #956 ) ;
#372 = PLANE ( 'NONE',  #213 ) ;
#373 = ADVANCED_FACE ( 'NONE', ( #1188 ), #1083, .F. ) ;
#374 = CYLINDRICAL_SURFACE ( 'NONE', #874, 10.00000000000000000 ) ;
#375 = EDGE_CURVE ( 'NONE', #316, #165, #427, .T. ) ;
#376 = ADVANCED_FACE ( 'NONE', ( #426 ), #618, .F. ) ;
#377 = ORIENTED_EDGE ( 'NONE', *, *, #306, .T. ) ;
#378 = DIRECTION ( 'NONE',  ( -0.000000000000000000, -1.000000000000000000, -0.000000000000000000 ) ) ;
#379 = CYLINDRICAL_SURFACE ( 'NONE', #405, 1.500000000000000888 ) ;
#380 = DIRECTION ( 'NONE',  ( 0.000000000000000000, 1.000000000000000000, 0.000000000000000000 ) ) ;
#381 = LINE ( 'NONE', #1258, #1315 ) ;
#382 = VERTEX_POINT ( 'NONE', #58 ) ;
#383 = AXIS2_PLACEMENT_3D ( 'NONE', #1101, #875, #1313 ) ;
#384 = CARTESIAN_POINT ( 'NONE',  ( -25.00000000000000000, 3.000000000000000000, -26.50000000000000355 ) ) ;
#385 = CARTESIAN_POINT ( 'NONE',  ( 6.999999999999999112, -7.000000000000000000, -1.500000000000000222 ) ) ;
#386 = CARTESIAN_POINT ( 'NONE',  ( 6.999999999999999112, 1.000000000000000000, 1.500000000000001110 ) ) ;
#387 = APPLICATION_CONTEXT ( 'configuration controlled 3d designs of mechanical parts and assemblies' ) ;
#388 = DIRECTION ( 'NONE',  ( -0.000000000000000000, -1.000000000000000000, 0.000000000000000000 ) ) ;
#389 = ORIENTED_EDGE ( 'NONE', *, *, #306, .F. ) ;
#390 = CARTESIAN_POINT ( 'NONE',  ( -6.999999999999999112, -7.000000000000000000, -1.893219326047058382E-15 ) ) ;
#391 = DIRECTION ( 'NONE',  ( -0.000000000000000000, -1.000000000000000000, -0.000000000000000000 ) ) ;
#392 = CIRCLE ( 'NONE', #1342, 32.00000000000000000 ) ;
#393 = EDGE_CURVE ( 'NONE', #603, #678, #894, .T. ) ;
#394 = DIRECTION ( 'NONE',  ( 0.000000000000000000, 0.000000000000000000, 1.000000000000000000 ) ) ;
#395 = CIRCLE ( 'NONE', #291, 1.500000000000001332 ) ;
#396 = EDGE_CURVE ( 'NONE', #109, #1084, #1311, .T. ) ;
#397 = CARTESIAN_POINT ( 'NONE',  ( 0.000000000000000000, 1.000000000000000000, 10.00000000000000000 ) ) ;
#398 = ADVANCED_FACE ( 'NONE', ( #1096 ), #792, .T. ) ;
#399 = VERTEX_POINT ( 'NONE', #1195 ) ;
#400 = FACE_BOUND ( 'NONE', #172, .T. ) ;
#401 = CARTESIAN_POINT ( 'NONE',  ( 25.00000000000000000, 3.000000000000000000, -26.50000000000000355 ) ) ;
#402 = EDGE_CURVE ( 'NONE', #1166, #1359, #480, .T. ) ;
#403 = DIRECTION ( 'NONE',  ( -0.000000000000000000, -1.000000000000000000, -0.000000000000000000 ) ) ;
#404 = ORIENTED_EDGE ( 'NONE', *, *, #496, .F. ) ;
#405 = AXIS2_PLACEMENT_3D ( 'NONE', #489, #1125, #996 ) ;
#406 = DIRECTION ( 'NONE',  ( -0.000000000000000000, 1.000000000000000000, -0.000000000000000000 ) ) ;
#407 = DIRECTION ( 'NONE',  ( 0.000000000000000000, -1.000000000000000000, 0.000000000000000000 ) ) ;
#408 = FACE_BOUND ( 'NONE', #1190, .T. ) ;
#409 = LINE ( 'NONE', #834, #429 ) ;
#410 = ORIENTED_EDGE ( 'NONE', *, *, #1090, .T. ) ;
#411 = AXIS2_PLACEMENT_3D ( 'NONE', #168, #459, #881 ) ;
#412 = MANIFOLD_SOLID_BREP ( '\X2\52079664\X0\-\X2\62c94f38\X0\1', #221 ) ;
#413 = CIRCLE ( 'NONE', #835, 1.499999999999999556 ) ;
#414 = DIRECTION ( 'NONE',  ( 0.000000000000000000, -1.000000000000000000, 0.000000000000000000 ) ) ;
#415 = DIRECTION ( 'NONE',  ( 0.000000000000000000, 1.000000000000000000, -0.000000000000000000 ) ) ;
#416 = CARTESIAN_POINT ( 'NONE',  ( 6.173778888663042986E-16, -7.000000000000000000, -5.499999999999999112 ) ) ;
#417 = EDGE_LOOP ( 'NONE', ( #1064, #1221 ) ) ;
#418 = EDGE_CURVE ( 'NONE', #449, #745, #392, .T. ) ;
#419 = ORIENTED_EDGE ( 'NONE', *, *, #402, .T. ) ;
#420 = CARTESIAN_POINT ( 'NONE',  ( 24.99999999999999289, 0.000000000000000000, -24.99999999999999289 ) ) ;
#421 = COORDINATED_UNIVERSAL_TIME_OFFSET ( 8, 0, .AHEAD. ) ;
#422 = CARTESIAN_POINT ( 'NONE',  ( -25.00000000000000000, 3.000000000000000000, -23.50000000000000000 ) ) ;
#423 = CC_DESIGN_PERSON_AND_ORGANIZATION_ASSIGNMENT ( #130, #28, ( #568 ) ) ;
#424 = ORIENTED_EDGE ( 'NONE', *, *, #929, .F. ) ;
#425 = EDGE_LOOP ( 'NONE', ( #185, #342 ) ) ;
#426 = FACE_OUTER_BOUND ( 'NONE', #153, .T. ) ;
#427 = CIRCLE ( 'NONE', #781, 10.00000000000000000 ) ;
#428 = CARTESIAN_POINT ( 'NONE',  ( -35.00000000000000711, 3.000000000000000000, -35.00000000000000000 ) ) ;
#429 = VECTOR ( 'NONE', #596, 1000.000000000000000 ) ;
#430 = ORIENTED_EDGE ( 'NONE', *, *, #640, .F. ) ;
#431 = AXIS2_PLACEMENT_3D ( 'NONE', #361, #685, #111 ) ;
#432 = PERSON_AND_ORGANIZATION ( #329, #112 ) ;
#433 = EDGE_CURVE ( 'NONE', #944, #382, #1300, .T. ) ;
#434 = UNCERTAINTY_MEASURE_WITH_UNIT (LENGTH_MEASURE( 1.000000000000000082E-05 ), #721, 'distance_accuracy_value', 'NONE');
#435 = CARTESIAN_POINT ( 'NONE',  ( -25.00000000000000000, 3.000000000000000000, -25.00000000000000000 ) ) ;
#436 = EDGE_CURVE ( 'NONE', #655, #631, #45, .T. ) ;
#437 = EDGE_LOOP ( 'NONE', ( #559, #591 ) ) ;
#438 = EDGE_LOOP ( 'NONE', ( #534, #1285 ) ) ;
#439 = LINE ( 'NONE', #1184, #877 ) ;
#440 = DIRECTION ( 'NONE',  ( 0.000000000000000000, 0.000000000000000000, -1.000000000000000000 ) ) ;
#441 = EDGE_LOOP ( 'NONE', ( #1251, #44 ) ) ;
#442 = PERSON_AND_ORGANIZATION ( #329, #112 ) ;
#443 = CIRCLE ( 'NONE', #1290, 1.500000000000001332 ) ;
#444 = VERTEX_POINT ( 'NONE', #1110 ) ;
#445 = CARTESIAN_POINT ( 'NONE',  ( -35.00000000000000711, 3.000000000000000000, 35.00000000000000000 ) ) ;
#446 = AXIS2_PLACEMENT_3D ( 'NONE', #461, #671, #901 ) ;
#447 = VERTEX_POINT ( 'NONE', #1220 ) ;
#448 = CARTESIAN_POINT ( 'NONE',  ( -25.00000000000000000, 3.000000000000000000, 23.50000000000000000 ) ) ;
#449 = VERTEX_POINT ( 'NONE', #1089 ) ;
#450 = EDGE_CURVE ( 'NONE', #1076, #973, #1171, .T. ) ;
#451 = ORIENTED_EDGE ( 'NONE', *, *, #18, .T. ) ;
#452 = VECTOR ( 'NONE', #692, 1000.000000000000000 ) ;
#453 = DIRECTION ( 'NONE',  ( 0.000000000000000000, 1.000000000000000000, -0.000000000000000000 ) ) ;
#454 = AXIS2_PLACEMENT_3D ( 'NONE', #918, #1325, #186 ) ;
#455 = DIRECTION ( 'NONE',  ( 0.000000000000000000, 0.000000000000000000, -1.000000000000000000 ) ) ;
#456 = CIRCLE ( 'NONE', #159, 15.00000000000000000 ) ;
#457 = ORIENTED_EDGE ( 'NONE', *, *, #1162, .F. ) ;
#458 = AXIS2_PLACEMENT_3D ( 'NONE', #20, #647, #853 ) ;
#459 = DIRECTION ( 'NONE',  ( 0.000000000000000000, -1.000000000000000000, 0.000000000000000000 ) ) ;
#460 = ORIENTED_EDGE ( 'NONE', *, *, #436, .F. ) ;
#461 = CARTESIAN_POINT ( 'NONE',  ( -25.00000000000000711, 3.000000000000000000, -25.00000000000000000 ) ) ;
#462 = AXIS2_PLACEMENT_3D ( 'NONE', #1013, #1139, #488 ) ;
#463 = DIRECTION ( 'NONE',  ( 0.000000000000000000, -1.000000000000000000, 0.000000000000000000 ) ) ;
#464 = VERTEX_POINT ( 'NONE', #1121 ) ;
#465 = DIRECTION ( 'NONE',  ( 0.000000000000000000, -1.000000000000000000, 0.000000000000000000 ) ) ;
#466 = EDGE_LOOP ( 'NONE', ( #969, #1201, #1227, #95 ) ) ;
#467 = FACE_OUTER_BOUND ( 'NONE', #178, .T. ) ;
#468 = DIRECTION ( 'NONE',  ( 0.000000000000000000, 0.000000000000000000, -1.000000000000000000 ) ) ;
#469 = DIRECTION ( 'NONE',  ( 0.000000000000000000, 0.000000000000000000, 1.000000000000000000 ) ) ;
#470 = AXIS2_PLACEMENT_3D ( 'NONE', #7, #510, #947 ) ;
#471 = ORIENTED_EDGE ( 'NONE', *, *, #396, .F. ) ;
#472 = DIRECTION ( 'NONE',  ( 0.000000000000000000, 1.000000000000000000, 0.000000000000000000 ) ) ;
#473 = FACE_OUTER_BOUND ( 'NONE', #1310, .T. ) ;
#474 = VECTOR ( 'NONE', #388, 1000.000000000000000 ) ;
#475 = EDGE_CURVE ( 'NONE', #678, #1111, #456, .T. ) ;
#476 = PLANE ( 'NONE',  #320 ) ;
#477 = VECTOR ( 'NONE', #1332, 1000.000000000000000 ) ;
#478 = EDGE_CURVE ( 'NONE', #204, #870, #707, .T. ) ;
#479 = AXIS2_PLACEMENT_3D ( 'NONE', #420, #414, #837 ) ;
#480 = LINE ( 'NONE', #164, #983 ) ;
#481 = VERTEX_POINT ( 'NONE', #253 ) ;
#482 = DIRECTION ( 'NONE',  ( 0.000000000000000000, 0.000000000000000000, -1.000000000000000000 ) ) ;
#483 = CYLINDRICAL_SURFACE ( 'NONE', #725, 1.500000000000000888 ) ;
#484 = FACE_BOUND ( 'NONE', #425, .T. ) ;
#485 = ORIENTED_EDGE ( 'NONE', *, *, #254, .F. ) ;
#486 = CARTESIAN_POINT ( 'NONE',  ( -25.00000000000000000, 0.000000000000000000, 23.50000000000000000 ) ) ;
#487 = ORIENTED_EDGE ( 'NONE', *, *, #858, .T. ) ;
#488 = DIRECTION ( 'NONE',  ( 0.000000000000000000, -0.000000000000000000, -1.000000000000000000 ) ) ;
#489 = CARTESIAN_POINT ( 'NONE',  ( -6.999999999999999112, 3.000000000000000000, -1.893219326047058382E-15 ) ) ;
#490 = FACE_BOUND ( 'NONE', #1172, .T. ) ;
#491 = LINE ( 'NONE', #705, #607 ) ;
#492 = VERTEX_POINT ( 'NONE', #50 ) ;
#493 = CARTESIAN_POINT ( 'NONE',  ( 25.00000000000000000, 3.000000000000000000, -23.50000000000000000 ) ) ;
#494 = CYLINDRICAL_SURFACE ( 'NONE', #1255, 1.499999999999999556 ) ;
#495 = ADVANCED_FACE ( 'NONE', ( #170 ), #374, .T. ) ;
#496 = EDGE_CURVE ( 'NONE', #236, #583, #1233, .T. ) ;
#497 = DIRECTION ( 'NONE',  ( 0.000000000000000000, -1.000000000000000000, 0.000000000000000000 ) ) ;
#498 = AXIS2_PLACEMENT_3D ( 'NONE', #1163, #212, #1053 ) ;
#499 = AXIS2_PLACEMENT_3D ( 'NONE', #54, #779, #1321 ) ;
#500 = DIRECTION ( 'NONE',  ( -0.000000000000000000, 1.000000000000000000, -0.000000000000000000 ) ) ;
#501 = ORIENTED_EDGE ( 'NONE', *, *, #1025, .T. ) ;
#502 = DIRECTION ( 'NONE',  ( 0.000000000000000000, 1.000000000000000000, 0.000000000000000000 ) ) ;
#503 = CARTESIAN_POINT ( 'NONE',  ( 34.99999999999999289, 0.000000000000000000, 25.00000000000000000 ) ) ;
#504 = EDGE_CURVE ( 'NONE', #242, #382, #1207, .T. ) ;
#505 = FACE_BOUND ( 'NONE', #274, .T. ) ;
#506 = AXIS2_PLACEMENT_3D ( 'NONE', #1288, #758, #555 ) ;
#507 = CARTESIAN_POINT ( 'NONE',  ( -7.934332997694156165E-16, 3.000000000000000000, 8.499999999999998224 ) ) ;
#508 = VERTEX_POINT ( 'NONE', #1296 ) ;
#509 = ORIENTED_EDGE ( 'NONE', *, *, #402, .F. ) ;
#510 = DIRECTION ( 'NONE',  ( -0.000000000000000000, -1.000000000000000000, -0.000000000000000000 ) ) ;
#511 = CARTESIAN_POINT ( 'NONE',  ( 4.336808689942013792E-16, 3.000000000000000000, -6.999999999999999112 ) ) ;
#512 = CARTESIAN_POINT ( 'NONE',  ( -4.211785596324486175E-15, 3.000000000000000000, -2.727108307582741808E-15 ) ) ;
#513 = CARTESIAN_POINT ( 'NONE',  ( -25.00000000000000000, 0.000000000000000000, 26.50000000000000355 ) ) ;
#514 = ORIENTED_EDGE ( 'NONE', *, *, #183, .T. ) ;
#515 = AXIS2_PLACEMENT_3D ( 'NONE', #694, #294, #93 ) ;
#516 = DIRECTION ( 'NONE',  ( 0.000000000000000000, 0.000000000000000000, -1.000000000000000000 ) ) ;
#517 = CARTESIAN_POINT ( 'NONE',  ( 25.00000000000000000, 0.000000000000000000, -25.00000000000000000 ) ) ;
#518 = AXIS2_PLACEMENT_3D ( 'NONE', #722, #78, #71 ) ;
#519 = EDGE_CURVE ( 'NONE', #215, #1091, #924, .T. ) ;
#520 = CARTESIAN_POINT ( 'NONE',  ( 3.918869757271530263E-15, -2.000000000000000000, -32.00000000000000000 ) ) ;
#521 = EDGE_CURVE ( 'NONE', #1182, #1063, #347, .T. ) ;
#522 = ORIENTED_EDGE ( 'NONE', *, *, #256, .F. ) ;
#523 = CIRCLE ( 'NONE', #343, 1.500000000000001332 ) ;
#524 = ORIENTED_EDGE ( 'NONE', *, *, #1277, .F. ) ;
#525 = AXIS2_PLACEMENT_3D ( 'NONE', #307, #1042, #104 ) ;
#526 = FACE_OUTER_BOUND ( 'NONE', #466, .T. ) ;
#527 = CARTESIAN_POINT ( 'NONE',  ( -35.00000000000000711, 0.000000000000000000, 25.00000000000000000 ) ) ;
#528 = CC_DESIGN_DATE_AND_TIME_ASSIGNMENT ( #842, #146, ( #568 ) ) ;
#529 = CARTESIAN_POINT ( 'NONE',  ( 6.999999999999999112, 3.000000000000000000, 1.500000000000001110 ) ) ;
#530 = VERTEX_POINT ( 'NONE', #784 ) ;
#531 = DIRECTION ( 'NONE',  ( -0.000000000000000000, -1.000000000000000000, -0.000000000000000000 ) ) ;
#532 = PERSON_AND_ORGANIZATION ( #329, #112 ) ;
#533 = CARTESIAN_POINT ( 'NONE',  ( -7.934332997694155179E-16, 1.000000000000000000, 8.499999999999998224 ) ) ;
#534 = ORIENTED_EDGE ( 'NONE', *, *, #749, .F. ) ;
#535 = ORIENTED_EDGE ( 'NONE', *, *, #157, .T. ) ;
#536 = COORDINATED_UNIVERSAL_TIME_OFFSET ( 8, 0, .AHEAD. ) ;
#537 = ADVANCED_FACE ( 'NONE', ( #262 ), #1102, .T. ) ;
#538 = AXIS2_PLACEMENT_3D ( 'NONE', #1200, #564, #590 ) ;
#539 = CARTESIAN_POINT ( 'NONE',  ( -25.00000000000000000, 0.000000000000000000, -23.50000000000000000 ) ) ;
#540 = EDGE_CURVE ( 'NONE', #158, #312, #491, .T. ) ;
#541 = DIRECTION ( 'NONE',  ( 0.000000000000000000, 0.000000000000000000, -1.000000000000000000 ) ) ;
#542 = CARTESIAN_POINT ( 'NONE',  ( 25.00000000000000000, 0.000000000000000000, 26.50000000000000355 ) ) ;
#543 = ORIENTED_EDGE ( 'NONE', *, *, #1234, .F. ) ;
#544 = CIRCLE ( 'NONE', #235, 22.00000000000000000 ) ;
#545 = VECTOR ( 'NONE', #1278, 1000.000000000000000 ) ;
#546 = VERTEX_POINT ( 'NONE', #209 ) ;
#547 = DATE_AND_TIME ( #218, #795 ) ;
#548 = EDGE_CURVE ( 'NONE', #669, #165, #303, .T. ) ;
#549 = ORIENTED_EDGE ( 'NONE', *, *, #1037, .T. ) ;
#550 = PLANE ( 'NONE',  #920 ) ;
#551 = EDGE_LOOP ( 'NONE', ( #966, #514, #1078, #424 ) ) ;
#552 = ORIENTED_EDGE ( 'NONE', *, *, #141, .F. ) ;
#553 = SHAPE_DEFINITION_REPRESENTATION ( #1105, #889 ) ;
#554 = ORIENTED_EDGE ( 'NONE', *, *, #684, .F. ) ;
#555 = DIRECTION ( 'NONE',  ( 0.000000000000000000, 0.000000000000000000, 1.000000000000000000 ) ) ;
#556 = CYLINDRICAL_SURFACE ( 'NONE', #1335, 1.500000000000001332 ) ;
#557 = ORIENTED_EDGE ( 'NONE', *, *, #1242, .F. ) ;
#558 = FACE_OUTER_BOUND ( 'NONE', #672, .T. ) ;
#559 = ORIENTED_EDGE ( 'NONE', *, *, #418, .T. ) ;
#560 = APPROVAL_ROLE ( '' ) ;
#561 = EDGE_LOOP ( 'NONE', ( #13, #1152, #487, #805 ) ) ;
#562 = DIRECTION ( 'NONE',  ( 0.000000000000000000, -0.000000000000000000, -1.000000000000000000 ) ) ;
#563 = EDGE_CURVE ( 'NONE', #355, #242, #544, .T. ) ;
#564 = DIRECTION ( 'NONE',  ( 0.000000000000000000, 1.000000000000000000, 0.000000000000000000 ) ) ;
#565 = VERTEX_POINT ( 'NONE', #922 ) ;
#566 = CARTESIAN_POINT ( 'NONE',  ( 24.99999999999999289, 3.000000000000000000, 35.00000000000000000 ) ) ;
#567 = ORIENTED_EDGE ( 'NONE', *, *, #393, .F. ) ;
#568 = PRODUCT_DEFINITION ( 'æœ', '', #581, #1272 ) ;
#569 = CARTESIAN_POINT ( 'NONE',  ( 34.99999999999999289, 3.000000000000000000, 35.00000000000000000 ) ) ;
#570 = CARTESIAN_POINT ( 'NONE',  ( 6.999999999999999112, 1.000000000000000000, 4.336808689942019708E-16 ) ) ;
#571 = AXIS2_PLACEMENT_3D ( 'NONE', #65, #176, #73 ) ;
#572 = ORIENTED_EDGE ( 'NONE', *, *, #475, .F. ) ;
#573 = DIRECTION ( 'NONE',  ( 0.000000000000000000, 0.000000000000000000, -1.000000000000000000 ) ) ;
#574 = EDGE_LOOP ( 'NONE', ( #1260, #967, #1055, #333 ) ) ;
#575 = DIRECTION ( 'NONE',  ( 0.000000000000000000, -1.000000000000000000, 0.000000000000000000 ) ) ;
#576 = DIRECTION ( 'NONE',  ( 0.000000000000000000, 0.000000000000000000, -1.000000000000000000 ) ) ;
#577 = ORIENTED_EDGE ( 'NONE', *, *, #744, .F. ) ;
#578 = LINE ( 'NONE', #1331, #654 ) ;
#579 = EDGE_CURVE ( 'NONE', #786, #444, #196, .T. ) ;
#580 = CARTESIAN_POINT ( 'NONE',  ( 0.000000000000000000, -9.000000000000000000, 0.000000000000000000 ) ) ;
#581 = PRODUCT_DEFINITION_FORMATION_WITH_SPECIFIED_SOURCE ( 'ä»', '', #29, .NOT_KNOWN. ) ;
#582 = DIRECTION ( 'NONE',  ( 1.000000000000000000, -0.000000000000000000, 0.000000000000000000 ) ) ;
#583 = VERTEX_POINT ( 'NONE', #614 ) ;
#584 = DIRECTION ( 'NONE',  ( -0.000000000000000000, -1.000000000000000000, -0.000000000000000000 ) ) ;
#585 = VERTEX_POINT ( 'NONE', #203 ) ;
#586 = DIRECTION ( 'NONE',  ( 0.000000000000000000, 0.000000000000000000, 1.000000000000000000 ) ) ;
#587 = CYLINDRICAL_SURFACE ( 'NONE', #499, 1.500000000000000666 ) ;
#588 = CARTESIAN_POINT ( 'NONE',  ( 25.00000000000000000, 0.000000000000000000, 25.00000000000000000 ) ) ;
#589 = AXIS2_PLACEMENT_3D ( 'NONE', #390, #691, #1223 ) ;
#590 = DIRECTION ( 'NONE',  ( 0.000000000000000000, 0.000000000000000000, 1.000000000000000000 ) ) ;
#591 = ORIENTED_EDGE ( 'NONE', *, *, #743, .T. ) ;
#592 = FACE_BOUND ( 'NONE', #417, .T. ) ;
#593 = DIRECTION ( 'NONE',  ( 0.000000000000000000, 0.000000000000000000, -1.000000000000000000 ) ) ;
#594 = SECURITY_CLASSIFICATION ( '', '', #1079 ) ;
#595 = FACE_OUTER_BOUND ( 'NONE', #1040, .T. ) ;
#596 = DIRECTION ( 'NONE',  ( -0.000000000000000000, -1.000000000000000000, -0.000000000000000000 ) ) ;
#597 = ORIENTED_EDGE ( 'NONE', *, *, #620, .F. ) ;
#598 = EDGE_CURVE ( 'NONE', #611, #865, #304, .T. ) ;
#599 = CYLINDRICAL_SURFACE ( 'NONE', #1077, 10.00000000000000000 ) ;
#600 = DIRECTION ( 'NONE',  ( 0.000000000000000000, 0.000000000000000000, -1.000000000000000000 ) ) ;
#601 = EDGE_LOOP ( 'NONE', ( #1068, #451, #543, #718 ) ) ;
#602 = DIRECTION ( 'NONE',  ( 0.000000000000000000, -1.000000000000000000, 0.000000000000000000 ) ) ;
#603 = VERTEX_POINT ( 'NONE', #1151 ) ;
#604 = DIRECTION ( 'NONE',  ( 0.000000000000000000, 1.000000000000000000, 0.000000000000000000 ) ) ;
#605 = DIRECTION ( 'NONE',  ( -0.000000000000000000, 1.000000000000000000, -0.000000000000000000 ) ) ;
#606 = CARTESIAN_POINT ( 'NONE',  ( 25.00000000000000000, 0.000000000000000000, -25.00000000000000000 ) ) ;
#607 = VECTOR ( 'NONE', #602, 1000.000000000000000 ) ;
#608 = VECTOR ( 'NONE', #121, 1000.000000000000000 ) ;
#609 = VECTOR ( 'NONE', #789, 1000.000000000000000 ) ;
#610 = CARTESIAN_POINT ( 'NONE',  ( 0.000000000000000000, -9.000000000000000000, 0.000000000000000000 ) ) ;
#611 = VERTEX_POINT ( 'NONE', #712 ) ;
#612 = FACE_OUTER_BOUND ( 'NONE', #1017, .T. ) ;
#613 = CARTESIAN_POINT ( 'NONE',  ( 34.99999999999999289, 3.000000000000000000, -24.99999999999999289 ) ) ;
#614 = CARTESIAN_POINT ( 'NONE',  ( -3.783159216622911578E-15, -7.000000000000000000, 3.500000000000000888 ) ) ;
#615 = ORIENTED_EDGE ( 'NONE', *, *, #504, .T. ) ;
#616 = EDGE_CURVE ( 'NONE', #148, #625, #1146, .T. ) ;
#617 = ORIENTED_EDGE ( 'NONE', *, *, #1031, .T. ) ;
#618 = CYLINDRICAL_SURFACE ( 'NONE', #1142, 1.500000000000001332 ) ;
#619 = EDGE_CURVE ( 'NONE', #625, #236, #1343, .T. ) ;
#620 = EDGE_CURVE ( 'NONE', #247, #1344, #1039, .T. ) ;
#621 = CYLINDRICAL_SURFACE ( 'NONE', #1179, 1.500000000000000444 ) ;
#622 = DIRECTION ( 'NONE',  ( 0.000000000000000000, -1.000000000000000000, 0.000000000000000000 ) ) ;
#623 = ORIENTED_EDGE ( 'NONE', *, *, #1037, .F. ) ;
#624 = AXIS2_PLACEMENT_3D ( 'NONE', #677, #354, #174 ) ;
#625 = VERTEX_POINT ( 'NONE', #184 ) ;
#626 = LINE ( 'NONE', #829, #127 ) ;
#627 = CARTESIAN_POINT ( 'NONE',  ( 0.000000000000000000, 0.000000000000000000, 0.000000000000000000 ) ) ;
#628 = CARTESIAN_POINT ( 'NONE',  ( -6.999999999999999112, 3.000000000000000000, -1.500000000000002887 ) ) ;
#629 = ORIENTED_EDGE ( 'NONE', *, *, #1242, .T. ) ;
#630 = LOCAL_TIME ( 0, 34, 51.00000000000000000, #421 ) ;
#631 = VERTEX_POINT ( 'NONE', #513 ) ;
#632 = CARTESIAN_POINT ( 'NONE',  ( 0.000000000000000000, -7.000000000000000000, 0.000000000000000000 ) ) ;
#633 = AXIS2_PLACEMENT_3D ( 'NONE', #268, #688, #469 ) ;
#634 = CARTESIAN_POINT ( 'NONE',  ( -35.00000000000000711, 0.000000000000000000, -35.00000000000000000 ) ) ;
#635 = EDGE_CURVE ( 'NONE', #713, #1182, #717, .T. ) ;
#636 = ORIENTED_EDGE ( 'NONE', *, *, #116, .F. ) ;
#637 = EDGE_CURVE ( 'NONE', #148, #583, #381, .T. ) ;
#638 = ORIENTED_EDGE ( 'NONE', *, *, #234, .T. ) ;
#639 = CALENDAR_DATE ( 2026, 12, 5 ) ;
#640 = EDGE_CURVE ( 'NONE', #973, #1076, #723, .T. ) ;
#641 = CIRCLE ( 'NONE', #1241, 1.500000000000000888 ) ;
#642 = CARTESIAN_POINT ( 'NONE',  ( 34.99999999999999289, 3.000000000000000000, 35.00000000000000000 ) ) ;
#643 = EDGE_CURVE ( 'NONE', #865, #204, #409, .T. ) ;
#644 = CIRCLE ( 'NONE', #1045, 1.500000000000000444 ) ;
#645 = ORIENTED_EDGE ( 'NONE', *, *, #684, .T. ) ;
#646 = PERSON_AND_ORGANIZATION_ROLE ( 'design_owner' ) ;
#647 = DIRECTION ( 'NONE',  ( -0.000000000000000000, 1.000000000000000000, -0.000000000000000000 ) ) ;
#648 = DIRECTION ( 'NONE',  ( 0.000000000000000000, 0.000000000000000000, -1.000000000000000000 ) ) ;
#649 = ORIENTED_EDGE ( 'NONE', *, *, #1234, .T. ) ;
#650 = VECTOR ( 'NONE', #289, 1000.000000000000000 ) ;
#651 = ORIENTED_EDGE ( 'NONE', *, *, #318, .F. ) ;
#652 = CIRCLE ( 'NONE', #1001, 10.00000000000000000 ) ;
#653 = APPROVAL_STATUS ( 'not_yet_approved' ) ;
#654 = VECTOR ( 'NONE', #995, 1000.000000000000000 ) ;
#655 = VERTEX_POINT ( 'NONE', #486 ) ;
#656 = DIRECTION ( 'NONE',  ( -0.000000000000000000, -1.000000000000000000, -0.000000000000000000 ) ) ;
#657 = LINE ( 'NONE', #628, #198 ) ;
#658 = ORIENTED_EDGE ( 'NONE', *, *, #275, .T. ) ;
#659 = DIRECTION ( 'NONE',  ( -0.000000000000000000, -1.000000000000000000, -0.000000000000000000 ) ) ;
#660 = ORIENTED_EDGE ( 'NONE', *, *, #1236, .F. ) ;
#661 = VERTEX_POINT ( 'NONE', #1250 ) ;
#662 = EDGE_CURVE ( 'NONE', #631, #655, #1206, .T. ) ;
#663 = EDGE_CURVE ( 'NONE', #447, #508, #732, .T. ) ;
#664 = CARTESIAN_POINT ( 'NONE',  ( 0.000000000000000000, -2.000000000000000000, 32.00000000000000000 ) ) ;
#665 = EDGE_LOOP ( 'NONE', ( #311, #703 ) ) ;
#666 = CARTESIAN_POINT ( 'NONE',  ( 0.000000000000000000, -9.000000000000000000, 15.00000000000000000 ) ) ;
#667 = ORIENTED_EDGE ( 'NONE', *, *, #643, .T. ) ;
#668 = CARTESIAN_POINT ( 'NONE',  ( 4.336808689942013792E-16, -7.000000000000000000, -6.999999999999999112 ) ) ;
#669 = VERTEX_POINT ( 'NONE', #907 ) ;
#670 = AXIS2_PLACEMENT_3D ( 'NONE', #952, #340, #96 ) ;
#671 = DIRECTION ( 'NONE',  ( -0.000000000000000000, 1.000000000000000000, -0.000000000000000000 ) ) ;
#672 = EDGE_LOOP ( 'NONE', ( #1210, #1104, #128, #999 ) ) ;
#673 = CARTESIAN_POINT ( 'NONE',  ( -25.00000000000000711, 3.000000000000000000, 25.00000000000000000 ) ) ;
#674 = ORIENTED_EDGE ( 'NONE', *, *, #946, .T. ) ;
#675 = CIRCLE ( 'NONE', #1029, 1.500000000000001332 ) ;
#676 = AXIS2_PLACEMENT_3D ( 'NONE', #627, #1049, #811 ) ;
#677 = CARTESIAN_POINT ( 'NONE',  ( -4.211785596324486175E-15, -7.000000000000000000, -2.727108307582741808E-15 ) ) ;
#678 = VERTEX_POINT ( 'NONE', #1046 ) ;
#679 = DIRECTION ( 'NONE',  ( 0.000000000000000000, 0.000000000000000000, 1.000000000000000000 ) ) ;
#680 = DIRECTION ( 'NONE',  ( 0.000000000000000000, 0.000000000000000000, -1.000000000000000000 ) ) ;
#681 = ADVANCED_FACE ( 'NONE', ( #1329 ), #79, .T. ) ;
#682 = ORIENTED_EDGE ( 'NONE', *, *, #200, .T. ) ;
#683 = LINE ( 'NONE', #493, #1126 ) ;
#684 = EDGE_CURVE ( 'NONE', #1011, #1063, #1337, .T. ) ;
#685 = DIRECTION ( 'NONE',  ( 0.000000000000000000, -1.000000000000000000, 0.000000000000000000 ) ) ;
#686 = CARTESIAN_POINT ( 'NONE',  ( -25.00000000000000000, 3.000000000000000000, 26.50000000000000355 ) ) ;
#687 = DIRECTION ( 'NONE',  ( 0.000000000000000000, 0.000000000000000000, -1.000000000000000000 ) ) ;
#688 = DIRECTION ( 'NONE',  ( -0.000000000000000000, 1.000000000000000000, -0.000000000000000000 ) ) ;
#689 = ORIENTED_EDGE ( 'NONE', *, *, #1355, .F. ) ;
#690 = EDGE_CURVE ( 'NONE', #197, #585, #832, .T. ) ;
#691 = DIRECTION ( 'NONE',  ( -0.000000000000000000, 1.000000000000000000, -0.000000000000000000 ) ) ;
#692 = DIRECTION ( 'NONE',  ( -0.000000000000000000, 1.000000000000000000, -0.000000000000000000 ) ) ;
#693 = AXIS2_PLACEMENT_3D ( 'NONE', #512, #1348, #600 ) ;
#694 = CARTESIAN_POINT ( 'NONE',  ( 0.000000000000000000, 1.000000000000000000, 0.000000000000000000 ) ) ;
#695 = LINE ( 'NONE', #857, #1302 ) ;
#696 = DIRECTION ( 'NONE',  ( 0.000000000000000000, 1.000000000000000000, -0.000000000000000000 ) ) ;
#697 = CIRCLE ( 'NONE', #276, 22.00000000000000000 ) ;
#698 = ORIENTED_EDGE ( 'NONE', *, *, #1284, .T. ) ;
#699 = DIRECTION ( 'NONE',  ( -0.000000000000000000, 1.000000000000000000, -0.000000000000000000 ) ) ;
#700 = PLANE ( 'NONE',  #849 ) ;
#701 = FACE_BOUND ( 'NONE', #438, .T. ) ;
#702 = EDGE_CURVE ( 'NONE', #611, #870, #657, .T. ) ;
#703 = ORIENTED_EDGE ( 'NONE', *, *, #99, .F. ) ;
#704 = VECTOR ( 'NONE', #816, 1000.000000000000000 ) ;
#705 = CARTESIAN_POINT ( 'NONE',  ( 24.99999999999999289, 3.000000000000000000, -34.99999999999999289 ) ) ;
#706 = EDGE_LOOP ( 'NONE', ( #1050, #1350, #377, #245 ) ) ;
#707 = CIRCLE ( 'NONE', #220, 1.500000000000000888 ) ;
#708 = FACE_OUTER_BOUND ( 'NONE', #34, .T. ) ;
#709 = DIRECTION ( 'NONE',  ( 0.000000000000000000, 1.000000000000000000, 0.000000000000000000 ) ) ;
#710 = CIRCLE ( 'NONE', #506, 1.499999999999999556 ) ;
#711 = FACE_BOUND ( 'NONE', #80, .T. ) ;
#712 = CARTESIAN_POINT ( 'NONE',  ( -6.999999999999999112, 1.000000000000000000, -1.500000000000002887 ) ) ;
#713 = VERTEX_POINT ( 'NONE', #533 ) ;
#714 = CARTESIAN_POINT ( 'NONE',  ( 0.000000000000000000, 1.000000000000000000, 0.000000000000000000 ) ) ;
#715 = DIRECTION ( 'NONE',  ( 0.000000000000000000, 0.000000000000000000, -1.000000000000000000 ) ) ;
#716 = CARTESIAN_POINT ( 'NONE',  ( 0.000000000000000000, -9.000000000000000000, 0.000000000000000000 ) ) ;
#717 = LINE ( 'NONE', #507, #958 ) ;
#718 = ORIENTED_EDGE ( 'NONE', *, *, #166, .F. ) ;
#719 = CIRCLE ( 'NONE', #1070, 15.00000000000000000 ) ;
#720 = FACE_OUTER_BOUND ( 'NONE', #923, .T. ) ;
#721 =( LENGTH_UNIT ( ) NAMED_UNIT ( * ) SI_UNIT ( .MILLI., .METRE. ) );
#722 = CARTESIAN_POINT ( 'NONE',  ( -4.211785596324486175E-15, 3.000000000000000000, -2.727108307582741808E-15 ) ) ;
#723 = CIRCLE ( 'NONE', #1252, 1.500000000000001332 ) ;
#724 = AXIS2_PLACEMENT_3D ( 'NONE', #1081, #1294, #252 ) ;
#725 = AXIS2_PLACEMENT_3D ( 'NONE', #46, #61, #573 ) ;
#726 = DIRECTION ( 'NONE',  ( 0.000000000000000000, 0.000000000000000000, 1.000000000000000000 ) ) ;
#727 = ORIENTED_EDGE ( 'NONE', *, *, #1277, .T. ) ;
#728 = EDGE_CURVE ( 'NONE', #1091, #1183, #323, .T. ) ;
#729 = DIRECTION ( 'NONE',  ( 0.000000000000000000, 0.000000000000000000, -1.000000000000000000 ) ) ;
#730 =( NAMED_UNIT ( * ) PLANE_ANGLE_UNIT ( ) SI_UNIT ( $, .RADIAN. ) );
#731 = CARTESIAN_POINT ( 'NONE',  ( -9.771303196415186345E-16, 3.000000000000000000, 6.999999999999999112 ) ) ;
#732 = LINE ( 'NONE', #1156, #650 ) ;
#733 = ORIENTED_EDGE ( 'NONE', *, *, #519, .F. ) ;
#734 = ORIENTED_EDGE ( 'NONE', *, *, #396, .T. ) ;
#735 = CARTESIAN_POINT ( 'NONE',  ( 0.000000000000000000, 1.000000000000000000, 0.000000000000000000 ) ) ;
#736 = DIRECTION ( 'NONE',  ( -0.000000000000000000, -1.000000000000000000, -0.000000000000000000 ) ) ;
#737 = ORIENTED_EDGE ( 'NONE', *, *, #166, .T. ) ;
#738 = ORIENTED_EDGE ( 'NONE', *, *, #200, .F. ) ;
#739 = CARTESIAN_POINT ( 'NONE',  ( 2.694222958124176809E-15, -9.000000000000000000, -22.00000000000000000 ) ) ;
#740 = APPROVAL_STATUS ( 'not_yet_approved' ) ;
#741 = CIRCLE ( 'NONE', #151, 1.500000000000001332 ) ;
#742 = DIRECTION ( 'NONE',  ( 0.000000000000000000, 0.000000000000000000, -1.000000000000000000 ) ) ;
#743 = EDGE_CURVE ( 'NONE', #745, #449, #132, .T. ) ;
#744 = EDGE_CURVE ( 'NONE', #197, #821, #1173, .T. ) ;
#745 = VERTEX_POINT ( 'NONE', #520 ) ;
#746 = VECTOR ( 'NONE', #869, 1000.000000000000000 ) ;
#747 = CYLINDRICAL_SURFACE ( 'NONE', #1345, 1.499999999999999556 ) ;
#748 = DIRECTION ( 'NONE',  ( -0.000000000000000000, -1.000000000000000000, -0.000000000000000000 ) ) ;
#749 = EDGE_CURVE ( 'NONE', #30, #231, #897, .T. ) ;
#750 = AXIS2_PLACEMENT_3D ( 'NONE', #1022, #791, #687 ) ;
#751 = ORIENTED_EDGE ( 'NONE', *, *, #1333, .F. ) ;
#752 = DATE_TIME_ROLE ( 'classification_date' ) ;
#753 = CARTESIAN_POINT ( 'NONE',  ( 34.99999999999999289, 0.000000000000000000, 35.00000000000000000 ) ) ;
#754 = DIRECTION ( 'NONE',  ( 0.000000000000000000, 1.000000000000000000, -0.000000000000000000 ) ) ;
#755 = CIRCLE ( 'NONE', #936, 1.500000000000001332 ) ;
#756 = VERTEX_POINT ( 'NONE', #422 ) ;
#757 = ORIENTED_EDGE ( 'NONE', *, *, #548, .F. ) ;
#758 = DIRECTION ( 'NONE',  ( 0.000000000000000000, 1.000000000000000000, 0.000000000000000000 ) ) ;
#759 = FACE_OUTER_BOUND ( 'NONE', #305, .T. ) ;
#760 = EDGE_LOOP ( 'NONE', ( #1180, #27, #557, #269 ) ) ;
#761 = DIRECTION ( 'NONE',  ( 0.000000000000000000, 0.000000000000000000, 1.000000000000000000 ) ) ;
#762 = ORIENTED_EDGE ( 'NONE', *, *, #616, .T. ) ;
#763 = APPROVAL_PERSON_ORGANIZATION ( #233, #1060, #560 ) ;
#764 = EDGE_CURVE ( 'NONE', #1166, #1298, #953, .T. ) ;
#765 = PERSON_AND_ORGANIZATION_ROLE ( 'classification_officer' ) ;
#766 = ADVANCED_FACE ( 'NONE', ( #942 ), #550, .F. ) ;
#767 = VECTOR ( 'NONE', #1320, 1000.000000000000000 ) ;
#768 = ORIENTED_EDGE ( 'NONE', *, *, #1355, .T. ) ;
#769 = FACE_OUTER_BOUND ( 'NONE', #574, .T. ) ;
#770 = PRODUCT_RELATED_PRODUCT_CATEGORY ( 'detail', '', ( #29 ) ) ;
#771 = EDGE_LOOP ( 'NONE', ( #150, #410, #845, #903 ) ) ;
#772 = DIRECTION ( 'NONE',  ( -0.000000000000000000, 1.000000000000000000, -0.000000000000000000 ) ) ;
#773 = CC_DESIGN_APPROVAL ( #814, ( #594 ) ) ;
#774 = VERTEX_POINT ( 'NONE', #542 ) ;
#775 = ORIENTED_EDGE ( 'NONE', *, *, #988, .T. ) ;
#776 = FACE_OUTER_BOUND ( 'NONE', #760, .T. ) ;
#777 = DIRECTION ( 'NONE',  ( 0.000000000000000000, 0.000000000000000000, -1.000000000000000000 ) ) ;
#778 = VERTEX_POINT ( 'NONE', #1169 ) ;
#779 = DIRECTION ( 'NONE',  ( -0.000000000000000000, -1.000000000000000000, -0.000000000000000000 ) ) ;
#780 = ORIENTED_EDGE ( 'NONE', *, *, #478, .T. ) ;
#781 = AXIS2_PLACEMENT_3D ( 'NONE', #1154, #217, #206 ) ;
#782 = CARTESIAN_POINT ( 'NONE',  ( -6.999999999999999112, -7.000000000000000000, -1.500000000000002887 ) ) ;
#783 = EDGE_CURVE ( 'NONE', #399, #756, #675, .T. ) ;
#784 = CARTESIAN_POINT ( 'NONE',  ( 25.00000000000000000, 0.000000000000000000, -23.50000000000000000 ) ) ;
#785 = ADVANCED_FACE ( 'NONE', ( #839 ), #1265, .F. ) ;
#786 = VERTEX_POINT ( 'NONE', #416 ) ;
#787 = VECTOR ( 'NONE', #500, 1000.000000000000000 ) ;
#788 = VECTOR ( 'NONE', #391, 1000.000000000000000 ) ;
#789 = DIRECTION ( 'NONE',  ( 1.000000000000000000, 0.000000000000000000, 0.000000000000000000 ) ) ;
#790 = DIRECTION ( 'NONE',  ( 0.000000000000000000, 0.000000000000000000, -1.000000000000000000 ) ) ;
#791 = DIRECTION ( 'NONE',  ( -0.000000000000000000, -1.000000000000000000, -0.000000000000000000 ) ) ;
#792 = CYLINDRICAL_SURFACE ( 'NONE', #633, 22.00000000000000000 ) ;
#793 = ADVANCED_FACE ( 'NONE', ( #338 ), #1178, .F. ) ;
#794 = ORIENTED_EDGE ( 'NONE', *, *, #278, .T. ) ;
#795 = LOCAL_TIME ( 0, 34, 51.00000000000000000, #972 ) ;
#796 = CARTESIAN_POINT ( 'NONE',  ( -6.999999999999999112, -7.000000000000000000, 1.499999999999998890 ) ) ;
#797 = CARTESIAN_POINT ( 'NONE',  ( 6.999999999999999112, -7.000000000000000000, 1.500000000000001110 ) ) ;
#798 = CARTESIAN_POINT ( 'NONE',  ( -25.00000000000000711, 0.000000000000000000, -25.00000000000000000 ) ) ;
#799 = ORIENTED_EDGE ( 'NONE', *, *, #1090, .F. ) ;
#800 = CARTESIAN_POINT ( 'NONE',  ( 0.000000000000000000, -2.000000000000000000, 0.000000000000000000 ) ) ;
#801 = ORIENTED_EDGE ( 'NONE', *, *, #157, .F. ) ;
#802 = CARTESIAN_POINT ( 'NONE',  ( -9.771303196415186345E-16, 1.000000000000000000, 6.999999999999999112 ) ) ;
#803 = FACE_BOUND ( 'NONE', #325, .T. ) ;
#804 = DIRECTION ( 'NONE',  ( 0.000000000000000000, 1.000000000000000000, 0.000000000000000000 ) ) ;
#805 = ORIENTED_EDGE ( 'NONE', *, *, #663, .T. ) ;
#806 = CARTESIAN_POINT ( 'NONE',  ( 0.000000000000000000, -2.000000000000000000, 0.000000000000000000 ) ) ;
#807 = AXIS2_PLACEMENT_3D ( 'NONE', #147, #1205, #562 ) ;
#808 = VERTEX_POINT ( 'NONE', #964 ) ;
#809 = EDGE_CURVE ( 'NONE', #1084, #938, #859, .T. ) ;
#810 = CARTESIAN_POINT ( 'NONE',  ( 1.836970198721029589E-15, -9.000000000000000000, -15.00000000000000000 ) ) ;
#811 = DIRECTION ( 'NONE',  ( 1.000000000000000000, 0.000000000000000000, 0.000000000000000000 ) ) ;
#812 = FACE_OUTER_BOUND ( 'NONE', #1244, .T. ) ;
#813 = CARTESIAN_POINT ( 'NONE',  ( -9.771303196415186345E-16, 3.000000000000000000, 5.499999999999999112 ) ) ;
#814 = APPROVAL ( #224, 'æœª' ) ;
#815 = EDGE_LOOP ( 'NONE', ( #549, #727 ) ) ;
#816 = DIRECTION ( 'NONE',  ( -0.000000000000000000, 1.000000000000000000, -0.000000000000000000 ) ) ;
#817 = DIRECTION ( 'NONE',  ( 0.000000000000000000, 0.000000000000000000, 1.000000000000000000 ) ) ;
#818 = DIRECTION ( 'NONE',  ( 0.000000000000000000, 0.000000000000000000, -1.000000000000000000 ) ) ;
#819 = CARTESIAN_POINT ( 'NONE',  ( -35.00000000000000711, 3.000000000000000000, -25.00000000000000000 ) ) ;
#820 = CIRCLE ( 'NONE', #1257, 1.500000000000000666 ) ;
#821 = VERTEX_POINT ( 'NONE', #1289 ) ;
#822 = CARTESIAN_POINT ( 'NONE',  ( -3.783159216622911578E-15, 1.000000000000000000, 3.500000000000000888 ) ) ;
#823 = FACE_BOUND ( 'NONE', #37, .T. ) ;
#824 = FACE_OUTER_BOUND ( 'NONE', #868, .T. ) ;
#825 = VECTOR ( 'NONE', #1327, 1000.000000000000000 ) ;
#826 = CARTESIAN_POINT ( 'NONE',  ( -25.00000000000000000, 3.000000000000000000, 25.00000000000000000 ) ) ;
#827 = ADVANCED_FACE ( 'NONE', ( #759 ), #844, .T. ) ;
#828 = ORIENTED_EDGE ( 'NONE', *, *, #1004, .F. ) ;
#829 = CARTESIAN_POINT ( 'NONE',  ( 6.999999999999999112, 3.000000000000000000, -1.500000000000000222 ) ) ;
#830 = LINE ( 'NONE', #1254, #960 ) ;
#831 = FACE_BOUND ( 'NONE', #1176, .T. ) ;
#832 = CIRCLE ( 'NONE', #88, 1.500000000000001332 ) ;
#833 = CIRCLE ( 'NONE', #89, 1.499999999999999556 ) ;
#834 = CARTESIAN_POINT ( 'NONE',  ( -6.999999999999999112, 3.000000000000000000, 1.499999999999998890 ) ) ;
#835 = AXIS2_PLACEMENT_3D ( 'NONE', #802, #472, #1124 ) ;
#836 = ORIENTED_EDGE ( 'NONE', *, *, #860, .F. ) ;
#837 = DIRECTION ( 'NONE',  ( 0.000000000000000000, 0.000000000000000000, -1.000000000000000000 ) ) ;
#838 = CARTESIAN_POINT ( 'NONE',  ( 24.99999999999999289, 3.000000000000000000, 25.00000000000000000 ) ) ;
#839 = FACE_OUTER_BOUND ( 'NONE', #339, .T. ) ;
#840 = ORIENTED_EDGE ( 'NONE', *, *, #254, .T. ) ;
#841 = DIRECTION ( 'NONE',  ( -0.000000000000000000, 1.000000000000000000, -0.000000000000000000 ) ) ;
#842 = DATE_AND_TIME ( #1085, #630 ) ;
#843 = EDGE_CURVE ( 'NONE', #546, #47, #363, .T. ) ;
#844 = CYLINDRICAL_SURFACE ( 'NONE', #498, 10.00000000000000000 ) ;
#845 = ORIENTED_EDGE ( 'NONE', *, *, #433, .T. ) ;
#846 = CYLINDRICAL_SURFACE ( 'NONE', #1054, 32.00000000000000000 ) ;
#847 = DIRECTION ( 'NONE',  ( -1.000000000000000000, -0.000000000000000000, -9.912705577010325549E-17 ) ) ;
#848 = AXIS2_PLACEMENT_3D ( 'NONE', #1067, #126, #440 ) ;
#849 = AXIS2_PLACEMENT_3D ( 'NONE', #1014, #77, #152 ) ;
#850 = ORIENTED_EDGE ( 'NONE', *, *, #690, .T. ) ;
#851 = PERSON_AND_ORGANIZATION ( #329, #112 ) ;
#852 = CARTESIAN_POINT ( 'NONE',  ( 0.000000000000000000, 0.000000000000000000, 32.00000000000000000 ) ) ;
#853 = DIRECTION ( 'NONE',  ( 1.040834085586084257E-15, 0.000000000000000000, -1.000000000000000000 ) ) ;
#854 = DIRECTION ( 'NONE',  ( 0.000000000000000000, 0.000000000000000000, -1.000000000000000000 ) ) ;
#855 = ORIENTED_EDGE ( 'NONE', *, *, #450, .F. ) ;
#856 = ORIENTED_EDGE ( 'NONE', *, *, #214, .F. ) ;
#857 = CARTESIAN_POINT ( 'NONE',  ( -25.00000000000000711, 3.000000000000000000, 35.00000000000000000 ) ) ;
#858 = EDGE_CURVE ( 'NONE', #312, #447, #219, .T. ) ;
#859 = LINE ( 'NONE', #26, #608 ) ;
#860 = EDGE_CURVE ( 'NONE', #778, #492, #1062, .T. ) ;
#861 = EDGE_CURVE ( 'NONE', #231, #30, #1317, .T. ) ;
#862 = CIRCLE ( 'NONE', #106, 1.500000000000001332 ) ;
#863 = ORIENTED_EDGE ( 'NONE', *, *, #1356, .T. ) ;
#864 = APPROVAL_ROLE ( '' ) ;
#865 = VERTEX_POINT ( 'NONE', #169 ) ;
#866 = CIRCLE ( 'NONE', #446, 10.00000000000000178 ) ;
#867 = DIRECTION ( 'NONE',  ( -1.000000000000000000, 0.000000000000000000, -0.000000000000000000 ) ) ;
#868 = EDGE_LOOP ( 'NONE', ( #768, #228, #404, #976 ) ) ;
#869 = DIRECTION ( 'NONE',  ( -0.000000000000000000, 1.000000000000000000, -0.000000000000000000 ) ) ;
#870 = VERTEX_POINT ( 'NONE', #782 ) ;
#871 = LOCAL_TIME ( 0, 34, 51.00000000000000000, #125 ) ;
#872 = VECTOR ( 'NONE', #1106, 1000.000000000000000 ) ;
#873 = ORIENTED_EDGE ( 'NONE', *, *, #436, .T. ) ;
#874 = AXIS2_PLACEMENT_3D ( 'NONE', #673, #998, #680 ) ;
#875 = DIRECTION ( 'NONE',  ( -0.000000000000000000, -1.000000000000000000, -0.000000000000000000 ) ) ;
#876 = CARTESIAN_POINT ( 'NONE',  ( -25.00000000000000000, 0.000000000000000000, 25.00000000000000000 ) ) ;
#877 = VECTOR ( 'NONE', #656, 1000.000000000000000 ) ;
#878 = LOCAL_TIME ( 0, 34, 51.00000000000000000, #536 ) ;
#879 = ORIENTED_EDGE ( 'NONE', *, *, #1138, .F. ) ;
#880 = EDGE_CURVE ( 'NONE', #242, #355, #697, .T. ) ;
#881 = DIRECTION ( 'NONE',  ( 0.000000000000000000, 0.000000000000000000, -1.000000000000000000 ) ) ;
#882 = ORIENTED_EDGE ( 'NONE', *, *, #1174, .T. ) ;
#883 = ADVANCED_FACE ( 'NONE', ( #968 ), #261, .T. ) ;
#884 = LINE ( 'NONE', #664, #38 ) ;
#885 = ADVANCED_FACE ( 'NONE', ( #769 ), #556, .F. ) ;
#886 = DIRECTION ( 'NONE',  ( 0.000000000000000000, 1.000000000000000000, 0.000000000000000000 ) ) ;
#887 = ORIENTED_EDGE ( 'NONE', *, *, #909, .F. ) ;
#888 = FACE_OUTER_BOUND ( 'NONE', #1324, .T. ) ;
#889 = ADVANCED_BREP_SHAPE_REPRESENTATION ( '\X2\5347964d53f08f6c63a5677f\X0\3A', ( #412, #676 ), #1362 ) ;
#890 = ADVANCED_FACE ( 'NONE', ( #31 ), #476, .F. ) ;
#891 = VECTOR ( 'NONE', #659, 1000.000000000000000 ) ;
#892 = DIRECTION ( 'NONE',  ( -1.000000000000000000, 0.000000000000000000, 0.000000000000000000 ) ) ;
#893 = FACE_BOUND ( 'NONE', #341, .T. ) ;
#894 = LINE ( 'NONE', #666, #359 ) ;
#895 = ORIENTED_EDGE ( 'NONE', *, *, #1181, .T. ) ;
#896 = AXIS2_PLACEMENT_3D ( 'NONE', #993, #622, #1349 ) ;
#897 = CIRCLE ( 'NONE', #848, 32.00000000000000000 ) ;
#898 = AXIS2_PLACEMENT_3D ( 'NONE', #1036, #192, #207 ) ;
#899 = LINE ( 'NONE', #384, #767 ) ;
#900 = DIRECTION ( 'NONE',  ( 0.000000000000000000, 1.000000000000000000, 0.000000000000000000 ) ) ;
#901 = DIRECTION ( 'NONE',  ( 0.000000000000000000, 0.000000000000000000, -1.000000000000000000 ) ) ;
#902 = DIRECTION ( 'NONE',  ( -0.000000000000000000, 1.000000000000000000, -0.000000000000000000 ) ) ;
#903 = ORIENTED_EDGE ( 'NONE', *, *, #504, .F. ) ;
#904 = CARTESIAN_POINT ( 'NONE',  ( -4.211785596324486175E-15, -7.000000000000000000, -3.500000000000006217 ) ) ;
#905 = DIRECTION ( 'NONE',  ( 0.000000000000000000, 0.000000000000000000, -1.000000000000000000 ) ) ;
#906 = FACE_BOUND ( 'NONE', #815, .T. ) ;
#907 = CARTESIAN_POINT ( 'NONE',  ( 0.000000000000000000, 1.000000000000000000, 10.00000000000000000 ) ) ;
#908 = ADVANCED_FACE ( 'NONE', ( #997 ), #344, .F. ) ;
#909 = EDGE_CURVE ( 'NONE', #508, #247, #866, .T. ) ;
#910 = EDGE_LOOP ( 'NONE', ( #649, #1215 ) ) ;
#911 = FACE_OUTER_BOUND ( 'NONE', #441, .T. ) ;
#912 = CARTESIAN_POINT ( 'NONE',  ( 34.99999999999999289, 3.000000000000000000, 25.00000000000000000 ) ) ;
#913 = DIRECTION ( 'NONE',  ( -0.000000000000000000, 1.000000000000000000, -0.000000000000000000 ) ) ;
#914 = ORIENTED_EDGE ( 'NONE', *, *, #1138, .T. ) ;
#915 = DIRECTION ( 'NONE',  ( 0.000000000000000000, 0.000000000000000000, 1.000000000000000000 ) ) ;
#916 = AXIS2_PLACEMENT_3D ( 'NONE', #798, #1225, #818 ) ;
#917 = ORIENTED_EDGE ( 'NONE', *, *, #521, .F. ) ;
#918 = CARTESIAN_POINT ( 'NONE',  ( 0.000000000000000000, -9.000000000000000000, 0.000000000000000000 ) ) ;
#919 = DIRECTION ( 'NONE',  ( -0.000000000000000000, -1.000000000000000000, -0.000000000000000000 ) ) ;
#920 = AXIS2_PLACEMENT_3D ( 'NONE', #428, #1363, #1075 ) ;
#921 = FACE_OUTER_BOUND ( 'NONE', #1069, .T. ) ;
#922 = CARTESIAN_POINT ( 'NONE',  ( 1.836970198721029589E-15, -9.000000000000000000, -15.00000000000000000 ) ) ;
#923 = EDGE_LOOP ( 'NONE', ( #895, #335, #965, #567 ) ) ;
#924 = CIRCLE ( 'NONE', #945, 1.500000000000000666 ) ;
#925 = LINE ( 'NONE', #1346, #872 ) ;
#926 = EDGE_CURVE ( 'NONE', #158, #508, #1193, .T. ) ;
#927 = CARTESIAN_POINT ( 'NONE',  ( -9.771303196415186345E-16, 1.000000000000000000, 5.499999999999999112 ) ) ;
#928 = DIRECTION ( 'NONE',  ( -0.000000000000000000, -1.000000000000000000, -0.000000000000000000 ) ) ;
#929 = EDGE_CURVE ( 'NONE', #449, #30, #884, .T. ) ;
#930 = ORIENTED_EDGE ( 'NONE', *, *, #635, .T. ) ;
#931 = EDGE_LOOP ( 'NONE', ( #552, #801, #1164, #345 ) ) ;
#932 = CARTESIAN_POINT ( 'NONE',  ( 25.00000000000000000, 3.000000000000000000, -25.00000000000000000 ) ) ;
#933 = CARTESIAN_POINT ( 'NONE',  ( -25.00000000000000000, 0.000000000000000000, -25.00000000000000000 ) ) ;
#934 = CARTESIAN_POINT ( 'NONE',  ( 4.336808689942013792E-16, 1.000000000000000000, -6.999999999999999112 ) ) ;
#935 = ADVANCED_FACE ( 'NONE', ( #1303, #1087 ), #992, .T. ) ;
#936 = AXIS2_PLACEMENT_3D ( 'NONE', #606, #380, #394 ) ;
#937 = DIRECTION ( 'NONE',  ( 0.000000000000000000, 0.000000000000000000, -1.000000000000000000 ) ) ;
#938 = VERTEX_POINT ( 'NONE', #975 ) ;
#939 = ORIENTED_EDGE ( 'NONE', *, *, #278, .F. ) ;
#940 = CYLINDRICAL_SURFACE ( 'NONE', #1021, 10.00000000000000000 ) ;
#941 = CARTESIAN_POINT ( 'NONE',  ( -35.00000000000000711, 0.000000000000000000, -25.00000000000000000 ) ) ;
#942 = FACE_OUTER_BOUND ( 'NONE', #561, .T. ) ;
#943 = CIRCLE ( 'NONE', #525, 10.00000000000000000 ) ;
#944 = VERTEX_POINT ( 'NONE', #155 ) ;
#945 = AXIS2_PLACEMENT_3D ( 'NONE', #570, #886, #1309 ) ;
#946 = EDGE_CURVE ( 'NONE', #774, #821, #741, .T. ) ;
#947 = DIRECTION ( 'NONE',  ( 0.000000000000000000, 0.000000000000000000, -1.000000000000000000 ) ) ;
#948 = CARTESIAN_POINT ( 'NONE',  ( 4.336808689942013792E-16, 1.000000000000000000, -6.999999999999999112 ) ) ;
#949 = CARTESIAN_POINT ( 'NONE',  ( 0.000000000000000000, -2.000000000000000000, 0.000000000000000000 ) ) ;
#950 = ORIENTED_EDGE ( 'NONE', *, *, #702, .T. ) ;
#951 = EDGE_LOOP ( 'NONE', ( #205, #162, #645, #917 ) ) ;
#952 = CARTESIAN_POINT ( 'NONE',  ( 6.999999999999999112, -7.000000000000000000, 4.336808689942019708E-16 ) ) ;
#953 = LINE ( 'NONE', #642, #154 ) ;
#954 = ORIENTED_EDGE ( 'NONE', *, *, #744, .T. ) ;
#955 = VERTEX_POINT ( 'NONE', #1322 ) ;
#956 = COORDINATED_UNIVERSAL_TIME_OFFSET ( 8, 0, .AHEAD. ) ;
#957 = FACE_OUTER_BOUND ( 'NONE', #601, .T. ) ;
#958 = VECTOR ( 'NONE', #928, 1000.000000000000000 ) ;
#959 = DIRECTION ( 'NONE',  ( 0.000000000000000000, 0.000000000000000000, -1.000000000000000000 ) ) ;
#960 = VECTOR ( 'NONE', #92, 1000.000000000000000 ) ;
#961 = ORIENTED_EDGE ( 'NONE', *, *, #296, .F. ) ;
#962 = ORIENTED_EDGE ( 'NONE', *, *, #1192, .T. ) ;
#963 = EDGE_CURVE ( 'NONE', #1328, #1175, #163, .T. ) ;
#964 = CARTESIAN_POINT ( 'NONE',  ( 1.224646799147353256E-15, 1.000000000000000000, -10.00000000000000000 ) ) ;
#965 = ORIENTED_EDGE ( 'NONE', *, *, #296, .T. ) ;
#966 = ORIENTED_EDGE ( 'NONE', *, *, #743, .F. ) ;
#967 = ORIENTED_EDGE ( 'NONE', *, *, #75, .T. ) ;
#968 = FACE_OUTER_BOUND ( 'NONE', #1088, .T. ) ;
#969 = ORIENTED_EDGE ( 'NONE', *, *, #183, .F. ) ;
#970 = CARTESIAN_POINT ( 'NONE',  ( 1.224646799147353256E-15, 3.000000000000000000, -10.00000000000000000 ) ) ;
#971 = ORIENTED_EDGE ( 'NONE', *, *, #579, .F. ) ;
#972 = COORDINATED_UNIVERSAL_TIME_OFFSET ( 8, 0, .AHEAD. ) ;
#973 = VERTEX_POINT ( 'NONE', #686 ) ;
#974 = CIRCLE ( 'NONE', #916, 10.00000000000000178 ) ;
#975 = CARTESIAN_POINT ( 'NONE',  ( 25.00000000000000000, 0.000000000000000000, -26.50000000000000355 ) ) ;
#976 = ORIENTED_EDGE ( 'NONE', *, *, #619, .F. ) ;
#977 = DIRECTION ( 'NONE',  ( -0.000000000000000000, 1.000000000000000000, -0.000000000000000000 ) ) ;
#978 = ORIENTED_EDGE ( 'NONE', *, *, #160, .F. ) ;
#979 = ADVANCED_FACE ( 'NONE', ( #776 ), #56, .F. ) ;
#980 = ADVANCED_FACE ( 'NONE', ( #467 ), #372, .F. ) ;
#981 = CARTESIAN_POINT ( 'NONE',  ( -7.934332997694155179E-16, -7.000000000000000000, 8.499999999999998224 ) ) ;
#982 = EDGE_LOOP ( 'NONE', ( #337, #914 ) ) ;
#983 = VECTOR ( 'NONE', #1304, 1000.000000000000000 ) ;
#984 = CARTESIAN_POINT ( 'NONE',  ( 25.00000000000000000, 0.000000000000000000, 25.00000000000000000 ) ) ;
#985 = DIRECTION ( 'NONE',  ( 0.000000000000000000, 0.000000000000000000, -1.000000000000000000 ) ) ;
#986 = CIRCLE ( 'NONE', #326, 10.00000000000000000 ) ;
#987 = ORIENTED_EDGE ( 'NONE', *, *, #540, .F. ) ;
#988 = EDGE_CURVE ( 'NONE', #1344, #447, #974, .T. ) ;
#989 = ORIENTED_EDGE ( 'NONE', *, *, #783, .T. ) ;
#990 = DIRECTION ( 'NONE',  ( 0.000000000000000000, 0.000000000000000000, -1.000000000000000000 ) ) ;
#991 = ORIENTED_EDGE ( 'NONE', *, *, #843, .T. ) ;
#992 = PLANE ( 'NONE',  #807 ) ;
#993 = CARTESIAN_POINT ( 'NONE',  ( 24.99999999999999289, 3.000000000000000000, -24.99999999999999289 ) ) ;
#994 = ORIENTED_EDGE ( 'NONE', *, *, #18, .F. ) ;
#995 = DIRECTION ( 'NONE',  ( -0.000000000000000000, 1.000000000000000000, -0.000000000000000000 ) ) ;
#996 = DIRECTION ( 'NONE',  ( 0.000000000000000000, 0.000000000000000000, -1.000000000000000000 ) ) ;
#997 = FACE_OUTER_BOUND ( 'NONE', #951, .T. ) ;
#998 = DIRECTION ( 'NONE',  ( 0.000000000000000000, -1.000000000000000000, 0.000000000000000000 ) ) ;
#999 = ORIENTED_EDGE ( 'NONE', *, *, #662, .F. ) ;
#1000 = AXIS2_PLACEMENT_3D ( 'NONE', #1016, #195, #310 ) ;
#1001 = AXIS2_PLACEMENT_3D ( 'NONE', #838, #605, #187 ) ;
#1002 = CARTESIAN_POINT ( 'NONE',  ( 24.99999999999999289, 3.000000000000000000, -24.99999999999999289 ) ) ;
#1003 = LINE ( 'NONE', #70, #609 ) ;
#1004 = EDGE_CURVE ( 'NONE', #1344, #1328, #194, .T. ) ;
#1005 = AXIS2_PLACEMENT_3D ( 'NONE', #76, #604, #277 ) ;
#1006 = FACE_BOUND ( 'NONE', #665, .T. ) ;
#1007 = ADVANCED_FACE ( 'NONE', ( #824 ), #288, .F. ) ;
#1008 = CARTESIAN_POINT ( 'NONE',  ( -25.00000000000000000, 3.000000000000000000, -25.00000000000000000 ) ) ;
#1009 = ADVANCED_FACE ( 'NONE', ( #701, #711, #831, #595, #906, #408 ), #1256, .T. ) ;
#1010 = DIRECTION ( 'NONE',  ( 0.000000000000000000, -1.000000000000000000, 0.000000000000000000 ) ) ;
#1011 = VERTEX_POINT ( 'NONE', #927 ) ;
#1012 = CC_DESIGN_PERSON_AND_ORGANIZATION_ASSIGNMENT ( #442, #15, ( #581 ) ) ;
#1013 = CARTESIAN_POINT ( 'NONE',  ( 0.000000000000000000, 3.000000000000000000, 0.000000000000000000 ) ) ;
#1014 = CARTESIAN_POINT ( 'NONE',  ( 0.000000000000000000, -7.000000000000000000, 0.000000000000000000 ) ) ;
#1015 = DIRECTION ( 'NONE',  ( 0.000000000000000000, 1.000000000000000000, 0.000000000000000000 ) ) ;
#1016 = CARTESIAN_POINT ( 'NONE',  ( -25.00000000000000000, 0.000000000000000000, 25.00000000000000000 ) ) ;
#1017 = EDGE_LOOP ( 'NONE', ( #1034, #1187, #939, #389 ) ) ;
#1018 = DIRECTION ( 'NONE',  ( 0.000000000000000000, 0.000000000000000000, 1.000000000000000000 ) ) ;
#1019 = DIRECTION ( 'NONE',  ( 0.000000000000000000, 0.000000000000000000, -1.000000000000000000 ) ) ;
#1020 = CARTESIAN_POINT ( 'NONE',  ( -25.00000000000000000, 3.000000000000000000, 23.50000000000000000 ) ) ;
#1021 = AXIS2_PLACEMENT_3D ( 'NONE', #735, #299, #1159 ) ;
#1022 = CARTESIAN_POINT ( 'NONE',  ( -25.00000000000000000, 3.000000000000000000, 25.00000000000000000 ) ) ;
#1023 = CARTESIAN_POINT ( 'NONE',  ( 4.336808689942013792E-16, -7.000000000000000000, -6.999999999999999112 ) ) ;
#1024 = EDGE_LOOP ( 'NONE', ( #855, #430 ) ) ;
#1025 = EDGE_CURVE ( 'NONE', #565, #603, #336, .T. ) ;
#1026 = AXIS2_PLACEMENT_3D ( 'NONE', #806, #1228, #915 ) ;
#1027 = CARTESIAN_POINT ( 'NONE',  ( 24.99999999999999289, 3.000000000000000000, -34.99999999999999289 ) ) ;
#1028 = FACE_OUTER_BOUND ( 'NONE', #1281, .T. ) ;
#1029 = AXIS2_PLACEMENT_3D ( 'NONE', #435, #754, #959 ) ;
#1030 = AXIS2_PLACEMENT_3D ( 'NONE', #286, #1043, #715 ) ;
#1031 = EDGE_CURVE ( 'NONE', #821, #774, #862, .T. ) ;
#1032 = PLANE ( 'NONE',  #515 ) ;
#1033 = DIRECTION ( 'NONE',  ( -0.000000000000000000, 1.000000000000000000, -0.000000000000000000 ) ) ;
#1034 = ORIENTED_EDGE ( 'NONE', *, *, #519, .T. ) ;
#1035 = CYLINDRICAL_SURFACE ( 'NONE', #83, 1.500000000000000666 ) ;
#1036 = CARTESIAN_POINT ( 'NONE',  ( -4.211785596324486175E-15, 1.000000000000000000, -2.727108307582741808E-15 ) ) ;
#1037 = EDGE_CURVE ( 'NONE', #938, #530, #755, .T. ) ;
#1038 = CARTESIAN_POINT ( 'NONE',  ( 0.000000000000000000, 0.000000000000000000, 0.000000000000000000 ) ) ;
#1039 = LINE ( 'NONE', #819, #474 ) ;
#1040 = EDGE_LOOP ( 'NONE', ( #39, #1287, #1082, #962, #348, #840, #828, #775 ) ) ;
#1041 = ORIENTED_EDGE ( 'NONE', *, *, #1135, .T. ) ;
#1042 = DIRECTION ( 'NONE',  ( 0.000000000000000000, -1.000000000000000000, 0.000000000000000000 ) ) ;
#1043 = DIRECTION ( 'NONE',  ( -0.000000000000000000, -1.000000000000000000, -0.000000000000000000 ) ) ;
#1044 = CARTESIAN_POINT ( 'NONE',  ( -25.00000000000000711, 0.000000000000000000, 35.00000000000000000 ) ) ;
#1045 = AXIS2_PLACEMENT_3D ( 'NONE', #934, #1354, #1118 ) ;
#1046 = CARTESIAN_POINT ( 'NONE',  ( 0.000000000000000000, -7.000000000000000000, 15.00000000000000000 ) ) ;
#1047 = ORIENTED_EDGE ( 'NONE', *, *, #1358, .F. ) ;
#1048 = DIRECTION ( 'NONE',  ( -0.000000000000000000, -1.000000000000000000, -0.000000000000000000 ) ) ;
#1049 = DIRECTION ( 'NONE',  ( 0.000000000000000000, 0.000000000000000000, 1.000000000000000000 ) ) ;
#1050 = ORIENTED_EDGE ( 'NONE', *, *, #728, .F. ) ;
#1051 = AXIS2_PLACEMENT_3D ( 'NONE', #948, #709, #817 ) ;
#1052 = ADVANCED_FACE ( 'NONE', ( #484, #490, #505, #1127, #1006, #921 ), #1032, .T. ) ;
#1053 = DIRECTION ( 'NONE',  ( 0.000000000000000000, 0.000000000000000000, -1.000000000000000000 ) ) ;
#1054 = AXIS2_PLACEMENT_3D ( 'NONE', #1360, #406, #241 ) ;
#1055 = ORIENTED_EDGE ( 'NONE', *, *, #214, .T. ) ;
#1056 = AXIS2_PLACEMENT_3D ( 'NONE', #149, #696, #1323 ) ;
#1057 = ORIENTED_EDGE ( 'NONE', *, *, #478, .F. ) ;
#1058 = CARTESIAN_POINT ( 'NONE',  ( 6.999999999999999112, 3.000000000000000000, 4.336808689942019708E-16 ) ) ;
#1059 = APPLICATION_PROTOCOL_DEFINITION ( 'international standard', 'config_control_design', 1994, #387 ) ;
#1060 = APPROVAL ( #740, 'æœª' ) ;
#1061 = CIRCLE ( 'NONE', #458, 10.00000000000000000 ) ;
#1062 = LINE ( 'NONE', #11, #545 ) ;
#1063 = VERTEX_POINT ( 'NONE', #1240 ) ;
#1064 = ORIENTED_EDGE ( 'NONE', *, *, #783, .F. ) ;
#1065 = PERSON_AND_ORGANIZATION ( #329, #112 ) ;
#1066 = CARTESIAN_POINT ( 'NONE',  ( 4.336808689942013792E-16, 3.000000000000000000, -6.999999999999999112 ) ) ;
#1067 = CARTESIAN_POINT ( 'NONE',  ( 0.000000000000000000, 0.000000000000000000, 0.000000000000000000 ) ) ;
#1068 = ORIENTED_EDGE ( 'NONE', *, *, #1314, .T. ) ;
#1069 = EDGE_LOOP ( 'NONE', ( #535, #1269 ) ) ;
#1070 = AXIS2_PLACEMENT_3D ( 'NONE', #632, #841, #516 ) ;
#1071 = DATE_AND_TIME ( #639, #871 ) ;
#1072 = ADVANCED_FACE ( 'NONE', ( #812 ), #182, .F. ) ;
#1073 = CARTESIAN_POINT ( 'NONE',  ( 0.000000000000000000, 1.000000000000000000, 0.000000000000000000 ) ) ;
#1074 = VECTOR ( 'NONE', #403, 1000.000000000000000 ) ;
#1075 = DIRECTION ( 'NONE',  ( 1.000000000000000000, 0.000000000000000000, 9.912705577010325549E-17 ) ) ;
#1076 = VERTEX_POINT ( 'NONE', #1020 ) ;
#1077 = AXIS2_PLACEMENT_3D ( 'NONE', #714, #699, #1018 ) ;
#1078 = ORIENTED_EDGE ( 'NONE', *, *, #861, .T. ) ;
#1079 = SECURITY_CLASSIFICATION_LEVEL ( 'unclassified' ) ;
#1080 = DIRECTION ( 'NONE',  ( 0.000000000000000000, 0.000000000000000000, 1.000000000000000000 ) ) ;
#1081 = CARTESIAN_POINT ( 'NONE',  ( 0.000000000000000000, 0.000000000000000000, 0.000000000000000000 ) ) ;
#1082 = ORIENTED_EDGE ( 'NONE', *, *, #62, .F. ) ;
#1083 = CYLINDRICAL_SURFACE ( 'NONE', #12, 1.500000000000001332 ) ;
#1084 = VERTEX_POINT ( 'NONE', #401 ) ;
#1085 = CALENDAR_DATE ( 2026, 12, 5 ) ;
#1086 = ORIENTED_EDGE ( 'NONE', *, *, #10, .F. ) ;
#1087 = FACE_OUTER_BOUND ( 'NONE', #437, .T. ) ;
#1088 = EDGE_LOOP ( 'NONE', ( #799, #115, #615, #257 ) ) ;
#1089 = CARTESIAN_POINT ( 'NONE',  ( 0.000000000000000000, -2.000000000000000000, 32.00000000000000000 ) ) ;
#1090 = EDGE_CURVE ( 'NONE', #355, #944, #1248, .T. ) ;
#1091 = VERTEX_POINT ( 'NONE', #386 ) ;
#1092 = DIRECTION ( 'NONE',  ( 0.000000000000000000, 0.000000000000000000, 1.000000000000000000 ) ) ;
#1093 = ORIENTED_EDGE ( 'NONE', *, *, #663, .F. ) ;
#1094 = VECTOR ( 'NONE', #1141, 1000.000000000000000 ) ;
#1095 = CARTESIAN_POINT ( 'NONE',  ( -35.00000000000000711, 3.000000000000000000, 35.00000000000000000 ) ) ;
#1096 = FACE_OUTER_BOUND ( 'NONE', #771, .T. ) ;
#1097 = AXIS2_PLACEMENT_3D ( 'NONE', #949, #107, #648 ) ;
#1098 = ORIENTED_EDGE ( 'NONE', *, *, #1236, .T. ) ;
#1099 = LINE ( 'NONE', #566, #452 ) ;
#1100 = ORIENTED_EDGE ( 'NONE', *, *, #1135, .F. ) ;
#1101 = CARTESIAN_POINT ( 'NONE',  ( -9.771303196415186345E-16, 3.000000000000000000, 6.999999999999999112 ) ) ;
#1102 = CYLINDRICAL_SURFACE ( 'NONE', #896, 10.00000000000000178 ) ;
#1103 = VECTOR ( 'NONE', #468, 1000.000000000000000 ) ;
#1104 = ORIENTED_EDGE ( 'NONE', *, *, #640, .T. ) ;
#1105 = PRODUCT_DEFINITION_SHAPE ( 'NONE', 'NONE',  #568 ) ;
#1106 = DIRECTION ( 'NONE',  ( -0.000000000000000000, -1.000000000000000000, -0.000000000000000000 ) ) ;
#1107 = FACE_OUTER_BOUND ( 'NONE', #216, .T. ) ;
#1108 = CARTESIAN_POINT ( 'NONE',  ( -25.00000000000000000, 3.000000000000000000, -25.00000000000000000 ) ) ;
#1109 = DIRECTION ( 'NONE',  ( 0.000000000000000000, 0.000000000000000000, -1.000000000000000000 ) ) ;
#1110 = CARTESIAN_POINT ( 'NONE',  ( 4.336808689942013792E-16, -7.000000000000000000, -8.499999999999998224 ) ) ;
#1111 = VERTEX_POINT ( 'NONE', #202 ) ;
#1112 = EDGE_CURVE ( 'NONE', #955, #1298, #100, .T. ) ;
#1113 = AXIS2_PLACEMENT_3D ( 'NONE', #716, #302, #1341 ) ;
#1114 = EDGE_CURVE ( 'NONE', #1183, #1229, #171, .T. ) ;
#1115 = CARTESIAN_POINT ( 'NONE',  ( 6.999999999999999112, 1.000000000000000000, -1.500000000000000222 ) ) ;
#1116 = EDGE_CURVE ( 'NONE', #661, #464, #644, .T. ) ;
#1117 = FACE_OUTER_BOUND ( 'NONE', #706, .T. ) ;
#1118 = DIRECTION ( 'NONE',  ( 0.000000000000000000, 0.000000000000000000, 1.000000000000000000 ) ) ;
#1119 = AXIS2_PLACEMENT_3D ( 'NONE', #1038, #497, #1133 ) ;
#1120 = CYLINDRICAL_SURFACE ( 'NONE', #750, 1.500000000000001332 ) ;
#1121 = CARTESIAN_POINT ( 'NONE',  ( 4.336808689942013792E-16, 1.000000000000000000, -8.499999999999998224 ) ) ;
#1122 = ORIENTED_EDGE ( 'NONE', *, *, #350, .F. ) ;
#1123 = AXIS2_PLACEMENT_3D ( 'NONE', #933, #415, #1019 ) ;
#1124 = DIRECTION ( 'NONE',  ( 0.000000000000000000, 0.000000000000000000, 1.000000000000000000 ) ) ;
#1125 = DIRECTION ( 'NONE',  ( -0.000000000000000000, -1.000000000000000000, -0.000000000000000000 ) ) ;
#1126 = VECTOR ( 'NONE', #378, 1000.000000000000000 ) ;
#1127 = FACE_BOUND ( 'NONE', #1, .T. ) ;
#1128 = AXIS2_PLACEMENT_3D ( 'NONE', #346, #772, #358 ) ;
#1129 = FACE_OUTER_BOUND ( 'NONE', #1219, .T. ) ;
#1130 = DIRECTION ( 'NONE',  ( 0.000000000000000000, 1.000000000000000000, 0.000000000000000000 ) ) ;
#1131 = ORIENTED_EDGE ( 'NONE', *, *, #36, .F. ) ;
#1132 = LINE ( 'NONE', #810, #1297 ) ;
#1133 = DIRECTION ( 'NONE',  ( 0.000000000000000000, -0.000000000000000000, -1.000000000000000000 ) ) ;
#1134 = DIRECTION ( 'NONE',  ( 0.000000000000000000, -1.000000000000000000, 0.000000000000000000 ) ) ;
#1135 = EDGE_CURVE ( 'NONE', #1084, #109, #443, .T. ) ;
#1136 = VERTEX_POINT ( 'NONE', #1044 ) ;
#1137 = ADVANCED_FACE ( 'NONE', ( #309 ), #621, .F. ) ;
#1138 = EDGE_CURVE ( 'NONE', #583, #236, #1222, .T. ) ;
#1139 = DIRECTION ( 'NONE',  ( 0.000000000000000000, -1.000000000000000000, 0.000000000000000000 ) ) ;
#1140 = DIRECTION ( 'NONE',  ( 0.000000000000000000, 0.000000000000000000, -1.000000000000000000 ) ) ;
#1141 = DIRECTION ( 'NONE',  ( -0.000000000000000000, -0.000000000000000000, 1.000000000000000000 ) ) ;
#1142 = AXIS2_PLACEMENT_3D ( 'NONE', #1274, #584, #248 ) ;
#1143 = DIRECTION ( 'NONE',  ( -0.000000000000000000, -1.000000000000000000, -0.000000000000000000 ) ) ;
#1144 = ORIENTED_EDGE ( 'NONE', *, *, #450, .T. ) ;
#1145 = ADVANCED_FACE ( 'NONE', ( #1107 ), #379, .F. ) ;
#1146 = CIRCLE ( 'NONE', #362, 3.500000000000003553 ) ;
#1147 = FACE_OUTER_BOUND ( 'NONE', #931, .T. ) ;
#1148 = VECTOR ( 'NONE', #847, 1000.000000000000000 ) ;
#1149 = CIRCLE ( 'NONE', #411, 10.00000000000000000 ) ;
#1150 = CARTESIAN_POINT ( 'NONE',  ( 2.694222958124176809E-15, -9.000000000000000000, -22.00000000000000000 ) ) ;
#1151 = CARTESIAN_POINT ( 'NONE',  ( 0.000000000000000000, -9.000000000000000000, 15.00000000000000000 ) ) ;
#1152 = ORIENTED_EDGE ( 'NONE', *, *, #540, .T. ) ;
#1153 = EDGE_LOOP ( 'NONE', ( #994, #1237, #737, #971 ) ) ;
#1154 = CARTESIAN_POINT ( 'NONE',  ( 0.000000000000000000, 3.000000000000000000, 0.000000000000000000 ) ) ;
#1155 = DIRECTION ( 'NONE',  ( -0.000000000000000000, -1.000000000000000000, -0.000000000000000000 ) ) ;
#1156 = CARTESIAN_POINT ( 'NONE',  ( -25.00000000000000711, 3.000000000000000000, -35.00000000000000000 ) ) ;
#1157 = ORIENTED_EDGE ( 'NONE', *, *, #234, .F. ) ;
#1158 = EDGE_LOOP ( 'NONE', ( #1196, #638, #1305, #1319, #629, #1263, #25, #863 ) ) ;
#1159 = DIRECTION ( 'NONE',  ( 0.000000000000000000, 0.000000000000000000, 1.000000000000000000 ) ) ;
#1160 = CARTESIAN_POINT ( 'NONE',  ( -9.771303196415186345E-16, -7.000000000000000000, 6.999999999999999112 ) ) ;
#1161 = ADVANCED_FACE ( 'NONE', ( #1117 ), #587, .F. ) ;
#1162 = EDGE_CURVE ( 'NONE', #481, #492, #1099, .T. ) ;
#1163 = CARTESIAN_POINT ( 'NONE',  ( 24.99999999999999289, 3.000000000000000000, 25.00000000000000000 ) ) ;
#1164 = ORIENTED_EDGE ( 'NONE', *, *, #548, .T. ) ;
#1165 = AXIS2_PLACEMENT_3D ( 'NONE', #142, #1212, #679 ) ;
#1166 = VERTEX_POINT ( 'NONE', #912 ) ;
#1167 = DIRECTION ( 'NONE',  ( -0.000000000000000000, -1.000000000000000000, -0.000000000000000000 ) ) ;
#1168 = CALENDAR_DATE ( 2026, 12, 5 ) ;
#1169 = CARTESIAN_POINT ( 'NONE',  ( -25.00000000000000711, 3.000000000000000000, 35.00000000000000000 ) ) ;
#1170 = ORIENTED_EDGE ( 'NONE', *, *, #1280, .F. ) ;
#1171 = CIRCLE ( 'NONE', #1056, 1.500000000000001332 ) ;
#1172 = EDGE_LOOP ( 'NONE', ( #733, #636 ) ) ;
#1173 = LINE ( 'NONE', #21, #322 ) ;
#1174 = EDGE_CURVE ( 'NONE', #1136, #481, #1003, .T. ) ;
#1175 = VERTEX_POINT ( 'NONE', #161 ) ;
#1176 = EDGE_LOOP ( 'NONE', ( #617, #674 ) ) ;
#1177 = ADVANCED_FACE ( 'NONE', ( #370 ), #483, .F. ) ;
#1178 = CYLINDRICAL_SURFACE ( 'NONE', #17, 1.500000000000001332 ) ;
#1179 = AXIS2_PLACEMENT_3D ( 'NONE', #731, #1155, #593 ) ;
#1180 = ORIENTED_EDGE ( 'NONE', *, *, #1004, .T. ) ;
#1181 = EDGE_CURVE ( 'NONE', #603, #565, #133, .T. ) ;
#1182 = VERTEX_POINT ( 'NONE', #981 ) ;
#1183 = VERTEX_POINT ( 'NONE', #797 ) ;
#1184 = CARTESIAN_POINT ( 'NONE',  ( 6.173778888663042986E-16, 3.000000000000000000, -5.499999999999999112 ) ) ;
#1185 = DIRECTION ( 'NONE',  ( 0.000000000000000000, 1.000000000000000000, 0.000000000000000000 ) ) ;
#1186 = CIRCLE ( 'NONE', #1051, 1.500000000000000444 ) ;
#1187 = ORIENTED_EDGE ( 'NONE', *, *, #728, .T. ) ;
#1188 = FACE_OUTER_BOUND ( 'NONE', #136, .T. ) ;
#1189 = CIRCLE ( 'NONE', #113, 10.00000000000000178 ) ;
#1190 = EDGE_LOOP ( 'NONE', ( #873, #222 ) ) ;
#1191 = ORIENTED_EDGE ( 'NONE', *, *, #57, .F. ) ;
#1192 = EDGE_CURVE ( 'NONE', #1359, #481, #1149, .T. ) ;
#1193 = LINE ( 'NONE', #357, #1226 ) ;
#1194 = ORIENTED_EDGE ( 'NONE', *, *, #433, .F. ) ;
#1195 = CARTESIAN_POINT ( 'NONE',  ( -25.00000000000000000, 3.000000000000000000, -26.50000000000000355 ) ) ;
#1196 = ORIENTED_EDGE ( 'NONE', *, *, #764, .T. ) ;
#1197 = FACE_BOUND ( 'NONE', #982, .T. ) ;
#1198 = ORIENTED_EDGE ( 'NONE', *, *, #475, .T. ) ;
#1199 = DIRECTION ( 'NONE',  ( 0.000000000000000000, 0.000000000000000000, -1.000000000000000000 ) ) ;
#1200 = CARTESIAN_POINT ( 'NONE',  ( 25.00000000000000000, 3.000000000000000000, -25.00000000000000000 ) ) ;
#1201 = ORIENTED_EDGE ( 'NONE', *, *, #418, .F. ) ;
#1202 = CC_DESIGN_PERSON_AND_ORGANIZATION_ASSIGNMENT ( #432, #765, ( #594 ) ) ;
#1203 = CYLINDRICAL_SURFACE ( 'NONE', #42, 15.00000000000000000 ) ;
#1204 = EDGE_LOOP ( 'NONE', ( #1191, #14, #485, #1086 ) ) ;
#1205 = DIRECTION ( 'NONE',  ( 0.000000000000000000, -1.000000000000000000, 0.000000000000000000 ) ) ;
#1206 = CIRCLE ( 'NONE', #1000, 1.500000000000001332 ) ;
#1207 = LINE ( 'NONE', #156, #746 ) ;
#1208 = AXIS2_PLACEMENT_3D ( 'NONE', #314, #736, #854 ) ;
#1209 = CIRCLE ( 'NONE', #898, 3.500000000000003553 ) ;
#1210 = ORIENTED_EDGE ( 'NONE', *, *, #1299, .F. ) ;
#1211 = CARTESIAN_POINT ( 'NONE',  ( 0.000000000000000000, -9.000000000000000000, 0.000000000000000000 ) ) ;
#1212 = DIRECTION ( 'NONE',  ( -0.000000000000000000, 1.000000000000000000, -0.000000000000000000 ) ) ;
#1213 = CARTESIAN_POINT ( 'NONE',  ( -6.999999999999999112, -7.000000000000000000, -1.893219326047058382E-15 ) ) ;
#1214 = ADVANCED_FACE ( 'NONE', ( #473 ), #1203, .F. ) ;
#1215 = ORIENTED_EDGE ( 'NONE', *, *, #579, .T. ) ;
#1216 = DIRECTION ( 'NONE',  ( 0.000000000000000000, 0.000000000000000000, 1.000000000000000000 ) ) ;
#1217 = DIRECTION ( 'NONE',  ( 0.000000000000000000, 0.000000000000000000, 1.000000000000000000 ) ) ;
#1218 = DIRECTION ( 'NONE',  ( 0.000000000000000000, 0.000000000000000000, -1.000000000000000000 ) ) ;
#1219 = EDGE_LOOP ( 'NONE', ( #1144, #51, #460, #651 ) ) ;
#1220 = CARTESIAN_POINT ( 'NONE',  ( -25.00000000000000711, 0.000000000000000000, -35.00000000000000000 ) ) ;
#1221 = ORIENTED_EDGE ( 'NONE', *, *, #75, .F. ) ;
#1222 = CIRCLE ( 'NONE', #624, 3.500000000000003553 ) ;
#1223 = DIRECTION ( 'NONE',  ( 0.000000000000000000, 0.000000000000000000, -1.000000000000000000 ) ) ;
#1224 = FACE_BOUND ( 'NONE', #910, .T. ) ;
#1225 = DIRECTION ( 'NONE',  ( 0.000000000000000000, -1.000000000000000000, 0.000000000000000000 ) ) ;
#1226 = VECTOR ( 'NONE', #246, 1000.000000000000000 ) ;
#1227 = ORIENTED_EDGE ( 'NONE', *, *, #929, .T. ) ;
#1228 = DIRECTION ( 'NONE',  ( -0.000000000000000000, 1.000000000000000000, -0.000000000000000000 ) ) ;
#1229 = VERTEX_POINT ( 'NONE', #385 ) ;
#1230 = FACE_BOUND ( 'NONE', #232, .T. ) ;
#1231 = APPLICATION_PROTOCOL_DEFINITION ( 'international standard', 'config_control_design', 1994, #1268 ) ;
#1232 = DIRECTION ( 'NONE',  ( -0.000000000000000000, 1.000000000000000000, -0.000000000000000000 ) ) ;
#1233 = CIRCLE ( 'NONE', #571, 3.500000000000003553 ) ;
#1234 = EDGE_CURVE ( 'NONE', #444, #786, #833, .T. ) ;
#1235 = DIRECTION ( 'NONE',  ( -0.000000000000000000, -1.000000000000000000, -0.000000000000000000 ) ) ;
#1236 = EDGE_CURVE ( 'NONE', #585, #197, #177, .T. ) ;
#1237 = ORIENTED_EDGE ( 'NONE', *, *, #1116, .T. ) ;
#1238 = FACE_BOUND ( 'NONE', #1024, .T. ) ;
#1239 = DIRECTION ( 'NONE',  ( 0.000000000000000000, 1.000000000000000000, 0.000000000000000000 ) ) ;
#1240 = CARTESIAN_POINT ( 'NONE',  ( -9.771303196415186345E-16, -7.000000000000000000, 5.499999999999999112 ) ) ;
#1241 = AXIS2_PLACEMENT_3D ( 'NONE', #369, #502, #1216 ) ;
#1242 = EDGE_CURVE ( 'NONE', #247, #1175, #1306, .T. ) ;
#1243 = DIRECTION ( 'NONE',  ( 0.000000000000000000, 1.000000000000000000, 0.000000000000000000 ) ) ;
#1244 = EDGE_LOOP ( 'NONE', ( #52, #762, #297, #879 ) ) ;
#1245 = EDGE_LOOP ( 'NONE', ( #882, #1336, #836, #1307 ) ) ;
#1246 = CYLINDRICAL_SURFACE ( 'NONE', #470, 1.500000000000001332 ) ;
#1247 = CARTESIAN_POINT ( 'NONE',  ( 34.99999999999999289, 3.000000000000000000, -24.99999999999999289 ) ) ;
#1248 = LINE ( 'NONE', #1150, #825 ) ;
#1249 = CIRCLE ( 'NONE', #670, 1.500000000000000666 ) ;
#1250 = CARTESIAN_POINT ( 'NONE',  ( 6.173778888663042986E-16, 1.000000000000000000, -5.499999999999999112 ) ) ;
#1251 = ORIENTED_EDGE ( 'NONE', *, *, #880, .T. ) ;
#1252 = AXIS2_PLACEMENT_3D ( 'NONE', #826, #281, #937 ) ;
#1253 = DIRECTION ( 'NONE',  ( 0.000000000000000000, 0.000000000000000000, -1.000000000000000000 ) ) ;
#1254 = CARTESIAN_POINT ( 'NONE',  ( 25.00000000000000000, 3.000000000000000000, 26.50000000000000355 ) ) ;
#1255 = AXIS2_PLACEMENT_3D ( 'NONE', #511, #919, #1340 ) ;
#1256 = PLANE ( 'NONE',  #1119 ) ;
#1257 = AXIS2_PLACEMENT_3D ( 'NONE', #1339, #167, #586 ) ;
#1258 = CARTESIAN_POINT ( 'NONE',  ( -3.783159216622911578E-15, 3.000000000000000000, 3.500000000000000888 ) ) ;
#1259 = ADVANCED_FACE ( 'NONE', ( #271, #1197, #803, #1224, #279, #888 ), #700, .T. ) ;
#1260 = ORIENTED_EDGE ( 'NONE', *, *, #275, .F. ) ;
#1261 = ADVANCED_FACE ( 'NONE', ( #1312 ), #266, .T. ) ;
#1262 = ADVANCED_FACE ( 'NONE', ( #1028 ), #97, .F. ) ;
#1263 = ORIENTED_EDGE ( 'NONE', *, *, #57, .T. ) ;
#1264 = LINE ( 'NONE', #448, #891 ) ;
#1265 = CYLINDRICAL_SURFACE ( 'NONE', #1208, 1.500000000000001332 ) ;
#1266 = ADVANCED_FACE ( 'NONE', ( #105 ), #494, .F. ) ;
#1267 = ORIENTED_EDGE ( 'NONE', *, *, #160, .T. ) ;
#1268 = APPLICATION_CONTEXT ( 'configuration controlled 3d designs of mechanical parts and assemblies' ) ;
#1269 = ORIENTED_EDGE ( 'NONE', *, *, #33, .T. ) ;
#1270 = CARTESIAN_POINT ( 'NONE',  ( 0.000000000000000000, 3.000000000000000000, 0.000000000000000000 ) ) ;
#1271 = DATE_AND_TIME ( #8, #878 ) ;
#1272 = DESIGN_CONTEXT ( 'detailed design', #387, 'design' ) ;
#1273 = DIRECTION ( 'NONE',  ( -0.000000000000000000, -1.000000000000000000, -0.000000000000000000 ) ) ;
#1274 = CARTESIAN_POINT ( 'NONE',  ( -25.00000000000000000, 3.000000000000000000, -25.00000000000000000 ) ) ;
#1275 = AXIS2_PLACEMENT_3D ( 'NONE', #114, #5, #742 ) ;
#1276 = AXIS2_PLACEMENT_3D ( 'NONE', #258, #900, #1217 ) ;
#1277 = EDGE_CURVE ( 'NONE', #530, #938, #523, .T. ) ;
#1278 = DIRECTION ( 'NONE',  ( 1.000000000000000000, 0.000000000000000000, 0.000000000000000000 ) ) ;
#1279 = EDGE_LOOP ( 'NONE', ( #794, #368 ) ) ;
#1280 = EDGE_CURVE ( 'NONE', #1063, #1182, #19, .T. ) ;
#1281 = EDGE_LOOP ( 'NONE', ( #1047, #1098, #954, #55 ) ) ;
#1282 = LINE ( 'NONE', #753, #1103 ) ;
#1283 = CARTESIAN_POINT ( 'NONE',  ( 25.00000000000000000, 3.000000000000000000, 25.00000000000000000 ) ) ;
#1284 = EDGE_CURVE ( 'NONE', #47, #546, #199, .T. ) ;
#1285 = ORIENTED_EDGE ( 'NONE', *, *, #861, .F. ) ;
#1286 = PERSON_AND_ORGANIZATION_ROLE ( 'design_supplier' ) ;
#1287 = ORIENTED_EDGE ( 'NONE', *, *, #256, .T. ) ;
#1288 = CARTESIAN_POINT ( 'NONE',  ( -9.771303196415186345E-16, 1.000000000000000000, 6.999999999999999112 ) ) ;
#1289 = CARTESIAN_POINT ( 'NONE',  ( 25.00000000000000000, 0.000000000000000000, 23.50000000000000000 ) ) ;
#1290 = AXIS2_PLACEMENT_3D ( 'NONE', #175, #804, #208 ) ;
#1291 = ORIENTED_EDGE ( 'NONE', *, *, #988, .F. ) ;
#1292 = AXIS2_PLACEMENT_3D ( 'NONE', #1095, #582, #1199 ) ;
#1293 = ORIENTED_EDGE ( 'NONE', *, *, #1358, .T. ) ;
#1294 = DIRECTION ( 'NONE',  ( 0.000000000000000000, -1.000000000000000000, 0.000000000000000000 ) ) ;
#1295 = CIRCLE ( 'NONE', #66, 22.00000000000000000 ) ;
#1296 = CARTESIAN_POINT ( 'NONE',  ( -25.00000000000000711, 3.000000000000000000, -35.00000000000000000 ) ) ;
#1297 = VECTOR ( 'NONE', #81, 1000.000000000000000 ) ;
#1298 = VERTEX_POINT ( 'NONE', #1247 ) ;
#1299 = EDGE_CURVE ( 'NONE', #973, #631, #1352, .T. ) ;
#1300 = CIRCLE ( 'NONE', #324, 22.00000000000000000 ) ;
#1301 = ORIENTED_EDGE ( 'NONE', *, *, #1280, .T. ) ;
#1302 = VECTOR ( 'NONE', #237, 1000.000000000000000 ) ;
#1303 = FACE_BOUND ( 'NONE', #290, .T. ) ;
#1304 = DIRECTION ( 'NONE',  ( 0.000000000000000000, -1.000000000000000000, 0.000000000000000000 ) ) ;
#1305 = ORIENTED_EDGE ( 'NONE', *, *, #926, .T. ) ;
#1306 = LINE ( 'NONE', #250, #477 ) ;
#1307 = ORIENTED_EDGE ( 'NONE', *, *, #10, .T. ) ;
#1308 = DIRECTION ( 'NONE',  ( -0.000000000000000000, 1.000000000000000000, -0.000000000000000000 ) ) ;
#1309 = DIRECTION ( 'NONE',  ( 0.000000000000000000, 0.000000000000000000, 1.000000000000000000 ) ) ;
#1310 = EDGE_LOOP ( 'NONE', ( #349, #501, #139, #1198 ) ) ;
#1311 = CIRCLE ( 'NONE', #538, 1.500000000000001332 ) ;
#1312 = FACE_OUTER_BOUND ( 'NONE', #102, .T. ) ;
#1313 = DIRECTION ( 'NONE',  ( 0.000000000000000000, 0.000000000000000000, -1.000000000000000000 ) ) ;
#1314 = EDGE_CURVE ( 'NONE', #464, #661, #1186, .T. ) ;
#1315 = VECTOR ( 'NONE', #1143, 1000.000000000000000 ) ;
#1316 = CARTESIAN_POINT ( 'NONE',  ( 0.000000000000000000, -7.000000000000000000, 0.000000000000000000 ) ) ;
#1317 = CIRCLE ( 'NONE', #724, 32.00000000000000000 ) ;
#1318 = AXIS2_PLACEMENT_3D ( 'NONE', #1160, #308, #4 ) ;
#1319 = ORIENTED_EDGE ( 'NONE', *, *, #909, .T. ) ;
#1320 = DIRECTION ( 'NONE',  ( -0.000000000000000000, -1.000000000000000000, -0.000000000000000000 ) ) ;
#1321 = DIRECTION ( 'NONE',  ( 0.000000000000000000, 0.000000000000000000, -1.000000000000000000 ) ) ;
#1322 = CARTESIAN_POINT ( 'NONE',  ( 34.99999999999999289, 0.000000000000000000, -24.99999999999999289 ) ) ;
#1323 = DIRECTION ( 'NONE',  ( 0.000000000000000000, 0.000000000000000000, -1.000000000000000000 ) ) ;
#1324 = EDGE_LOOP ( 'NONE', ( #572, #961 ) ) ;
#1325 = DIRECTION ( 'NONE',  ( 0.000000000000000000, -1.000000000000000000, 0.000000000000000000 ) ) ;
#1326 = DIRECTION ( 'NONE',  ( -0.000000000000000000, 1.000000000000000000, -0.000000000000000000 ) ) ;
#1327 = DIRECTION ( 'NONE',  ( -0.000000000000000000, 1.000000000000000000, -0.000000000000000000 ) ) ;
#1328 = VERTEX_POINT ( 'NONE', #527 ) ;
#1329 = FACE_OUTER_BOUND ( 'NONE', #551, .T. ) ;
#1330 = ORIENTED_EDGE ( 'NONE', *, *, #809, .T. ) ;
#1331 = CARTESIAN_POINT ( 'NONE',  ( 3.918869757271530263E-15, -2.000000000000000000, -32.00000000000000000 ) ) ;
#1332 = DIRECTION ( 'NONE',  ( -0.000000000000000000, -0.000000000000000000, 1.000000000000000000 ) ) ;
#1333 = EDGE_CURVE ( 'NONE', #382, #944, #1295, .T. ) ;
#1334 = CARTESIAN_POINT ( 'NONE',  ( 6.999999999999999112, -7.000000000000000000, 4.336808689942019708E-16 ) ) ;
#1335 = AXIS2_PLACEMENT_3D ( 'NONE', #1108, #48, #1218 ) ;
#1336 = ORIENTED_EDGE ( 'NONE', *, *, #1162, .T. ) ;
#1337 = LINE ( 'NONE', #813, #64 ) ;
#1338 = ORIENTED_EDGE ( 'NONE', *, *, #702, .F. ) ;
#1339 = CARTESIAN_POINT ( 'NONE',  ( 6.999999999999999112, 1.000000000000000000, 4.336808689942019708E-16 ) ) ;
#1340 = DIRECTION ( 'NONE',  ( 0.000000000000000000, 0.000000000000000000, -1.000000000000000000 ) ) ;
#1341 = DIRECTION ( 'NONE',  ( 0.000000000000000000, 0.000000000000000000, -1.000000000000000000 ) ) ;
#1342 = AXIS2_PLACEMENT_3D ( 'NONE', #273, #463, #777 ) ;
#1343 = LINE ( 'NONE', #295, #1074 ) ;
#1344 = VERTEX_POINT ( 'NONE', #941 ) ;
#1345 = AXIS2_PLACEMENT_3D ( 'NONE', #1066, #330, #541 ) ;
#1346 = CARTESIAN_POINT ( 'NONE',  ( 4.336808689942013792E-16, 3.000000000000000000, -8.499999999999998224 ) ) ;
#1347 =( NAMED_UNIT ( * ) SI_UNIT ( $, .STERADIAN. ) SOLID_ANGLE_UNIT ( ) );
#1348 = DIRECTION ( 'NONE',  ( -0.000000000000000000, -1.000000000000000000, -0.000000000000000000 ) ) ;
#1349 = DIRECTION ( 'NONE',  ( 0.000000000000000000, 0.000000000000000000, -1.000000000000000000 ) ) ;
#1350 = ORIENTED_EDGE ( 'NONE', *, *, #116, .T. ) ;
#1351 = CARTESIAN_POINT ( 'NONE',  ( 24.99999999999999289, 0.000000000000000000, -34.99999999999999289 ) ) ;
#1352 = LINE ( 'NONE', #82, #788 ) ;
#1353 = VECTOR ( 'NONE', #913, 1000.000000000000000 ) ;
#1354 = DIRECTION ( 'NONE',  ( 0.000000000000000000, 1.000000000000000000, 0.000000000000000000 ) ) ;
#1355 = EDGE_CURVE ( 'NONE', #625, #148, #1209, .T. ) ;
#1356 = EDGE_CURVE ( 'NONE', #492, #1166, #652, .T. ) ;
#1357 = DIRECTION ( 'NONE',  ( 0.000000000000000000, 0.000000000000000000, 1.000000000000000000 ) ) ;
#1358 = EDGE_CURVE ( 'NONE', #585, #774, #830, .T. ) ;
#1359 = VERTEX_POINT ( 'NONE', #503 ) ;
#1360 = CARTESIAN_POINT ( 'NONE',  ( 0.000000000000000000, -2.000000000000000000, 0.000000000000000000 ) ) ;
#1361 = DIRECTION ( 'NONE',  ( 0.000000000000000000, 0.000000000000000000, 1.000000000000000000 ) ) ;
#1362 =( GEOMETRIC_REPRESENTATION_CONTEXT ( 3 ) GLOBAL_UNCERTAINTY_ASSIGNED_CONTEXT ( ( #434 ) ) GLOBAL_UNIT_ASSIGNED_CONTEXT ( ( #721, #730, #1347 ) ) REPRESENTATION_CONTEXT ( 'NONE', 'WORKASPACE' ) );
#1363 = DIRECTION ( 'NONE',  ( -9.912705577010325549E-17, 0.000000000000000000, 1.000000000000000000 ) ) ;
ENDSEC;
END-ISO-10303-21;
