ISO-10303-21;
HEADER;
FILE_DESCRIPTION (( 'STEP AP203' ),
    '1' );
FILE_NAME ('µ×°åÁ¬½Ó¼þ2.STEP',
    '2026-05-08T11:44:15',
    ( '' ),
    ( '' ),
    'SwSTEP 2.0',
    'SolidWorks 2025',
    '' );
FILE_SCHEMA (( 'CONFIG_CONTROL_DESIGN' ));
ENDSEC;

DATA;
#1 = VECTOR ( 'NONE', #798, 1000.000000000000000 ) ;
#2 = CARTESIAN_POINT ( 'NONE',  ( 30.00000000000000000, 3.000000000000000000, 16.49999999999999645 ) ) ;
#3 = AXIS2_PLACEMENT_3D ( 'NONE', #883, #585, #93 ) ;
#4 = LINE ( 'NONE', #127, #313 ) ;
#5 = EDGE_CURVE ( 'NONE', #613, #820, #511, .T. ) ;
#6 = EDGE_LOOP ( 'NONE', ( #896, #7 ) ) ;
#7 = ORIENTED_EDGE ( 'NONE', *, *, #110, .F. ) ;
#8 = CIRCLE ( 'NONE', #673, 1.500000000000001332 ) ;
#9 = CYLINDRICAL_SURFACE ( 'NONE', #52, 1.499999999999997780 ) ;
#10 = CARTESIAN_POINT ( 'NONE',  ( -30.00000000000000000, -7.000000000000000000, 15.00000000000000000 ) ) ;
#11 = VERTEX_POINT ( 'NONE', #489 ) ;
#12 = DIRECTION ( 'NONE',  ( 0.000000000000000000, 1.000000000000000000, 0.000000000000000000 ) ) ;
#13 = DIRECTION ( 'NONE',  ( -0.000000000000000000, 1.000000000000000000, -0.000000000000000000 ) ) ;
#14 = EDGE_CURVE ( 'NONE', #1113, #700, #892, .T. ) ;
#15 = LINE ( 'NONE', #787, #166 ) ;
#16 = ORIENTED_EDGE ( 'NONE', *, *, #807, .F. ) ;
#17 = ORIENTED_EDGE ( 'NONE', *, *, #373, .T. ) ;
#18 = DIRECTION ( 'NONE',  ( 0.000000000000000000, 1.000000000000000000, 0.000000000000000000 ) ) ;
#19 = EDGE_CURVE ( 'NONE', #1159, #554, #988, .T. ) ;
#20 = CARTESIAN_POINT ( 'NONE',  ( -30.00000000000000000, -7.000000000000000000, -15.00000000000000000 ) ) ;
#21 = VECTOR ( 'NONE', #1195, 1000.000000000000000 ) ;
#22 = EDGE_LOOP ( 'NONE', ( #62, #993 ) ) ;
#23 = CARTESIAN_POINT ( 'NONE',  ( 30.00000000000000000, 3.000000000000000000, 1.499999999999997335 ) ) ;
#24 = EDGE_LOOP ( 'NONE', ( #734, #372 ) ) ;
#25 = CARTESIAN_POINT ( 'NONE',  ( 30.00000000000000000, 3.000000000000000000, -15.00000000000000000 ) ) ;
#26 = CARTESIAN_POINT ( 'NONE',  ( -32.50000000000000711, 3.000000000000000000, -17.50000000000000000 ) ) ;
#27 = ORIENTED_EDGE ( 'NONE', *, *, #674, .T. ) ;
#28 = CARTESIAN_POINT ( 'NONE',  ( 30.00000000000000000, 0.000000000000000000, 16.49999999999999645 ) ) ;
#29 = ORIENTED_EDGE ( 'NONE', *, *, #1064, .F. ) ;
#30 = CALENDAR_DATE ( 2026, 8, 5 ) ;
#31 = LINE ( 'NONE', #1108, #21 ) ;
#32 = CARTESIAN_POINT ( 'NONE',  ( 30.00000000000000000, 0.000000000000000000, 1.499999999999997335 ) ) ;
#33 = VECTOR ( 'NONE', #359, 1000.000000000000000 ) ;
#34 = EDGE_CURVE ( 'NONE', #920, #1214, #600, .T. ) ;
#35 = ORIENTED_EDGE ( 'NONE', *, *, #503, .T. ) ;
#36 = EDGE_CURVE ( 'NONE', #1038, #401, #1205, .T. ) ;
#37 = DIRECTION ( 'NONE',  ( -0.000000000000000000, 1.000000000000000000, -0.000000000000000000 ) ) ;
#38 = ORIENTED_EDGE ( 'NONE', *, *, #494, .F. ) ;
#39 = APPROVAL_STATUS ( 'not_yet_approved' ) ;
#40 = CARTESIAN_POINT ( 'NONE',  ( -30.00000000000000000, -7.000000000000000000, 16.50000000000000000 ) ) ;
#41 = LINE ( 'NONE', #428, #51 ) ;
#42 = ORIENTED_EDGE ( 'NONE', *, *, #135, .T. ) ;
#43 = EDGE_CURVE ( 'NONE', #820, #1063, #529, .T. ) ;
#44 = AXIS2_PLACEMENT_3D ( 'NONE', #947, #957, #289 ) ;
#45 = AXIS2_PLACEMENT_3D ( 'NONE', #658, #450, #749 ) ;
#46 = CARTESIAN_POINT ( 'NONE',  ( 30.00000000000000000, -7.000000000000000000, 0.000000000000000000 ) ) ;
#47 = EDGE_LOOP ( 'NONE', ( #190, #740, #281, #689 ) ) ;
#48 = PERSON_AND_ORGANIZATION_ROLE ( 'design_supplier' ) ;
#49 = CARTESIAN_POINT ( 'NONE',  ( 30.00000000000000000, 3.000000000000000000, -13.50000000000000178 ) ) ;
#50 = CARTESIAN_POINT ( 'NONE',  ( 15.00000000000000000, -7.000000000000000000, -1.500000000000000666 ) ) ;
#51 = VECTOR ( 'NONE', #542, 1000.000000000000000 ) ;
#52 = AXIS2_PLACEMENT_3D ( 'NONE', #603, #708, #1089 ) ;
#53 = VERTEX_POINT ( 'NONE', #145 ) ;
#54 = LINE ( 'NONE', #553, #980 ) ;
#55 = ORIENTED_EDGE ( 'NONE', *, *, #1078, .F. ) ;
#56 = PERSON_AND_ORGANIZATION_ROLE ( 'design_owner' ) ;
#57 = CYLINDRICAL_SURFACE ( 'NONE', #45, 1.500000000000001332 ) ;
#58 = CARTESIAN_POINT ( 'NONE',  ( -29.50000000000000355, 0.000000000000000000, 14.50000000000000178 ) ) ;
#59 = EDGE_CURVE ( 'NONE', #544, #754, #1100, .T. ) ;
#60 = CIRCLE ( 'NONE', #221, 1.499999999999997335 ) ;
#61 = AXIS2_PLACEMENT_3D ( 'NONE', #466, #257, #1239 ) ;
#62 = ORIENTED_EDGE ( 'NONE', *, *, #674, .F. ) ;
#63 = AXIS2_PLACEMENT_3D ( 'NONE', #872, #762, #750 ) ;
#64 = DIRECTION ( 'NONE',  ( 0.000000000000000000, 0.000000000000000000, -1.000000000000000000 ) ) ;
#65 = ORIENTED_EDGE ( 'NONE', *, *, #329, .F. ) ;
#66 = APPROVAL_STATUS ( 'not_yet_approved' ) ;
#67 = PRODUCT_DEFINITION ( 'æœ', '', #667, #303 ) ;
#68 = CARTESIAN_POINT ( 'NONE',  ( 30.00000000000000000, 3.000000000000000000, 0.000000000000000000 ) ) ;
#69 = CARTESIAN_POINT ( 'NONE',  ( 15.00000000000000000, -7.000000000000000000, -15.00000000000000000 ) ) ;
#70 = CYLINDRICAL_SURFACE ( 'NONE', #490, 1.500000000000001332 ) ;
#71 = ORIENTED_EDGE ( 'NONE', *, *, #640, .F. ) ;
#72 = CLOSED_SHELL ( 'NONE', ( #767, #271, #691, #181, #898, #1053, #256, #414, #954, #827, #1191, #154, #1027, #634, #199, #1262, #849, #307, #350, #383, #840, #744, #1226, #697, #277, #940, #1085, #385, #563, #1181, #1093, #1210, #143, #875 ) ) ;
#73 = CIRCLE ( 'NONE', #275, 2.999999999999999112 ) ;
#74 = CARTESIAN_POINT ( 'NONE',  ( -30.00000000000000000, 0.000000000000000000, 15.00000000000000000 ) ) ;
#75 = CARTESIAN_POINT ( 'NONE',  ( -32.50000000000000711, 0.000000000000000000, -14.50000000000000178 ) ) ;
#76 = FACE_OUTER_BOUND ( 'NONE', #1177, .T. ) ;
#77 = VERTEX_POINT ( 'NONE', #538 ) ;
#78 = CARTESIAN_POINT ( 'NONE',  ( 15.00000000000000000, 0.000000000000000000, -1.500000000000000666 ) ) ;
#79 = CARTESIAN_POINT ( 'NONE',  ( -30.00000000000000000, -7.000000000000000000, 0.000000000000000000 ) ) ;
#80 = CARTESIAN_POINT ( 'NONE',  ( 15.00000000000000000, 3.000000000000000000, 0.000000000000000000 ) ) ;
#81 = ORIENTED_EDGE ( 'NONE', *, *, #192, .F. ) ;
#82 = EDGE_CURVE ( 'NONE', #1087, #406, #202, .T. ) ;
#83 = CARTESIAN_POINT ( 'NONE',  ( 29.49999999999999289, 3.000000000000000000, -17.50000000000000000 ) ) ;
#84 = VERTEX_POINT ( 'NONE', #1185 ) ;
#85 = VECTOR ( 'NONE', #155, 1000.000000000000000 ) ;
#86 = DIRECTION ( 'NONE',  ( 0.000000000000000000, 1.000000000000000000, 0.000000000000000000 ) ) ;
#87 = AXIS2_PLACEMENT_3D ( 'NONE', #189, #796, #479 ) ;
#88 = ORIENTED_EDGE ( 'NONE', *, *, #1134, .F. ) ;
#89 = ORIENTED_EDGE ( 'NONE', *, *, #1020, .F. ) ;
#90 = FACE_BOUND ( 'NONE', #424, .T. ) ;
#91 = EDGE_CURVE ( 'NONE', #439, #1200, #1238, .T. ) ;
#92 = DIRECTION ( 'NONE',  ( -0.000000000000000000, 1.000000000000000000, -0.000000000000000000 ) ) ;
#93 = DIRECTION ( 'NONE',  ( 0.000000000000000000, 0.000000000000000000, 1.000000000000000000 ) ) ;
#94 = ORIENTED_EDGE ( 'NONE', *, *, #91, .F. ) ;
#95 = AXIS2_PLACEMENT_3D ( 'NONE', #1149, #676, #280 ) ;
#96 = DIRECTION ( 'NONE',  ( -0.000000000000000000, 1.000000000000000000, -0.000000000000000000 ) ) ;
#97 = APPROVAL ( #66, 'æœª' ) ;
#98 = FACE_OUTER_BOUND ( 'NONE', #536, .T. ) ;
#99 = EDGE_CURVE ( 'NONE', #560, #1214, #1094, .T. ) ;
#100 = AXIS2_PLACEMENT_3D ( 'NONE', #1131, #183, #471 ) ;
#101 = CARTESIAN_POINT ( 'NONE',  ( 15.00000000000000000, -7.000000000000000000, 0.000000000000000000 ) ) ;
#102 = DIRECTION ( 'NONE',  ( 0.000000000000000000, 1.000000000000000000, 0.000000000000000000 ) ) ;
#103 = VERTEX_POINT ( 'NONE', #1112 ) ;
#104 = ORIENTED_EDGE ( 'NONE', *, *, #459, .T. ) ;
#105 = CARTESIAN_POINT ( 'NONE',  ( -15.00000000000000000, -7.000000000000000000, 0.000000000000000000 ) ) ;
#106 = LOCAL_TIME ( 19, 44, 15.00000000000000000, #928 ) ;
#107 = DIRECTION ( 'NONE',  ( 0.000000000000000000, 0.000000000000000000, 1.000000000000000000 ) ) ;
#108 = AXIS2_PLACEMENT_3D ( 'NONE', #735, #237, #813 ) ;
#109 = EDGE_LOOP ( 'NONE', ( #586, #1171, #1154, #344 ) ) ;
#110 = EDGE_CURVE ( 'NONE', #138, #235, #302, .T. ) ;
#111 = AXIS2_PLACEMENT_3D ( 'NONE', #58, #239, #1003 ) ;
#112 = DIRECTION ( 'NONE',  ( 0.000000000000000000, 1.000000000000000000, 0.000000000000000000 ) ) ;
#113 = CARTESIAN_POINT ( 'NONE',  ( -15.00000000000000000, 0.000000000000000000, -13.49999999999999822 ) ) ;
#114 = LINE ( 'NONE', #1073, #1219 ) ;
#115 = VERTEX_POINT ( 'NONE', #1193 ) ;
#116 = ORIENTED_EDGE ( 'NONE', *, *, #752, .T. ) ;
#117 = EDGE_CURVE ( 'NONE', #481, #927, #1075, .T. ) ;
#118 = CARTESIAN_POINT ( 'NONE',  ( -30.00000000000000000, 3.000000000000000000, 15.00000000000000000 ) ) ;
#119 = VERTEX_POINT ( 'NONE', #23 ) ;
#120 = APPLICATION_CONTEXT ( 'configuration controlled 3d designs of mechanical parts and assemblies' ) ;
#121 = DIRECTION ( 'NONE',  ( 0.000000000000000000, 1.000000000000000000, 0.000000000000000000 ) ) ;
#122 = ORIENTED_EDGE ( 'NONE', *, *, #729, .T. ) ;
#123 = CYLINDRICAL_SURFACE ( 'NONE', #108, 1.499999999999997780 ) ;
#124 = DIRECTION ( 'NONE',  ( 0.000000000000000000, 0.000000000000000000, 1.000000000000000000 ) ) ;
#125 = SECURITY_CLASSIFICATION ( '', '', #1133 ) ;
#126 = CIRCLE ( 'NONE', #890, 2.999999999999999112 ) ;
#127 = CARTESIAN_POINT ( 'NONE',  ( 15.00000000000000000, -7.000000000000000000, -13.49999999999999822 ) ) ;
#128 = ORIENTED_EDGE ( 'NONE', *, *, #207, .F. ) ;
#129 = DIRECTION ( 'NONE',  ( 0.000000000000000000, 1.000000000000000000, 0.000000000000000000 ) ) ;
#130 = ORIENTED_EDGE ( 'NONE', *, *, #929, .T. ) ;
#131 = PERSON_AND_ORGANIZATION ( #1115, #1146 ) ;
#132 = LINE ( 'NONE', #40, #336 ) ;
#133 = LINE ( 'NONE', #223, #480 ) ;
#134 = MANIFOLD_SOLID_BREP ( '\X2\96355217\X0\(\X2\7ebf6027\X0\)1', #72 ) ;
#135 = EDGE_CURVE ( 'NONE', #1104, #1264, #1106, .T. ) ;
#136 = ORIENTED_EDGE ( 'NONE', *, *, #14, .T. ) ;
#137 = CARTESIAN_POINT ( 'NONE',  ( -30.00000000000000000, 3.000000000000000000, 15.00000000000000000 ) ) ;
#138 = VERTEX_POINT ( 'NONE', #1206 ) ;
#139 = APPROVAL_ROLE ( '' ) ;
#140 = CARTESIAN_POINT ( 'NONE',  ( -29.50000000000000711, 0.000000000000000000, -14.50000000000000178 ) ) ;
#141 = CC_DESIGN_PERSON_AND_ORGANIZATION_ASSIGNMENT ( #1039, #147, ( #67 ) ) ;
#142 = CARTESIAN_POINT ( 'NONE',  ( 30.00000000000000000, -7.000000000000000000, 15.00000000000000000 ) ) ;
#143 = ADVANCED_FACE ( 'NONE', ( #345 ), #322, .F. ) ;
#144 = VERTEX_POINT ( 'NONE', #921 ) ;
#145 = CARTESIAN_POINT ( 'NONE',  ( -30.00000000000000000, 3.000000000000000000, -13.49999999999999822 ) ) ;
#146 = ORIENTED_EDGE ( 'NONE', *, *, #571, .F. ) ;
#147 = PERSON_AND_ORGANIZATION_ROLE ( 'creator' ) ;
#148 = CYLINDRICAL_SURFACE ( 'NONE', #602, 1.500000000000001332 ) ;
#149 = DIRECTION ( 'NONE',  ( 0.000000000000000000, -1.000000000000000000, 0.000000000000000000 ) ) ;
#150 = ORIENTED_EDGE ( 'NONE', *, *, #736, .F. ) ;
#151 = DIRECTION ( 'NONE',  ( -0.000000000000000000, 1.000000000000000000, -0.000000000000000000 ) ) ;
#152 = EDGE_LOOP ( 'NONE', ( #747, #430 ) ) ;
#153 = DATE_AND_TIME ( #748, #1162 ) ;
#154 = ADVANCED_FACE ( 'NONE', ( #220 ), #545, .F. ) ;
#155 = DIRECTION ( 'NONE',  ( 0.000000000000000000, -1.000000000000000000, 0.000000000000000000 ) ) ;
#156 = DIRECTION ( 'NONE',  ( 0.000000000000000000, 0.000000000000000000, 1.000000000000000000 ) ) ;
#157 = VECTOR ( 'NONE', #591, 1000.000000000000000 ) ;
#158 = APPROVAL ( #39, 'æœª' ) ;
#159 = ORIENTED_EDGE ( 'NONE', *, *, #705, .T. ) ;
#160 = DIRECTION ( 'NONE',  ( 0.000000000000000000, 1.000000000000000000, 0.000000000000000000 ) ) ;
#161 = ORIENTED_EDGE ( 'NONE', *, *, #1057, .F. ) ;
#162 = COORDINATED_UNIVERSAL_TIME_OFFSET ( 8, 0, .AHEAD. ) ;
#163 = CYLINDRICAL_SURFACE ( 'NONE', #668, 1.499999999999997780 ) ;
#164 = EDGE_CURVE ( 'NONE', #481, #903, #1120, .T. ) ;
#165 = DIRECTION ( 'NONE',  ( 0.000000000000000000, 0.000000000000000000, 1.000000000000000000 ) ) ;
#166 = VECTOR ( 'NONE', #597, 1000.000000000000000 ) ;
#167 = CIRCLE ( 'NONE', #95, 1.500000000000001332 ) ;
#168 = AXIS2_PLACEMENT_3D ( 'NONE', #173, #357, #562 ) ;
#169 = CARTESIAN_POINT ( 'NONE',  ( -29.50000000000000355, 3.000000000000000000, 14.50000000000000178 ) ) ;
#170 = ORIENTED_EDGE ( 'NONE', *, *, #1118, .T. ) ;
#171 = VECTOR ( 'NONE', #1143, 1000.000000000000000 ) ;
#172 = CARTESIAN_POINT ( 'NONE',  ( -15.00000000000000000, 3.000000000000000000, -13.49999999999999822 ) ) ;
#173 = CARTESIAN_POINT ( 'NONE',  ( -15.00000000000000000, -7.000000000000000000, -15.00000000000000000 ) ) ;
#174 = FACE_BOUND ( 'NONE', #682, .T. ) ;
#175 = EDGE_LOOP ( 'NONE', ( #793, #945 ) ) ;
#176 = VECTOR ( 'NONE', #96, 1000.000000000000000 ) ;
#177 = CIRCLE ( 'NONE', #498, 1.499999999999997335 ) ;
#178 = LINE ( 'NONE', #1045, #580 ) ;
#179 = DIRECTION ( 'NONE',  ( 0.000000000000000000, -1.000000000000000000, 0.000000000000000000 ) ) ;
#180 = EDGE_CURVE ( 'NONE', #1198, #1178, #1030, .T. ) ;
#181 = ADVANCED_FACE ( 'NONE', ( #1014 ), #531, .F. ) ;
#182 = VECTOR ( 'NONE', #398, 1000.000000000000000 ) ;
#183 = DIRECTION ( 'NONE',  ( -0.000000000000000000, 1.000000000000000000, -0.000000000000000000 ) ) ;
#184 = VERTEX_POINT ( 'NONE', #28 ) ;
#185 = CYLINDRICAL_SURFACE ( 'NONE', #901, 2.999999999999999112 ) ;
#186 = CARTESIAN_POINT ( 'NONE',  ( -15.00000000000000000, 0.000000000000000000, 0.000000000000000000 ) ) ;
#187 = ORIENTED_EDGE ( 'NONE', *, *, #135, .F. ) ;
#188 = DIRECTION ( 'NONE',  ( -0.000000000000000000, 1.000000000000000000, -0.000000000000000000 ) ) ;
#189 = CARTESIAN_POINT ( 'NONE',  ( -32.50000000000000000, 3.000000000000000000, 17.50000000000000000 ) ) ;
#190 = ORIENTED_EDGE ( 'NONE', *, *, #321, .F. ) ;
#191 = ORIENTED_EDGE ( 'NONE', *, *, #19, .T. ) ;
#192 = EDGE_CURVE ( 'NONE', #925, #1088, #964, .T. ) ;
#193 = CIRCLE ( 'NONE', #769, 1.499999999999997780 ) ;
#194 = DIRECTION ( 'NONE',  ( -3.469446951953615372E-15, 0.000000000000000000, 1.000000000000000000 ) ) ;
#195 = DIRECTION ( 'NONE',  ( 1.000000000000000000, 0.000000000000000000, 0.000000000000000000 ) ) ;
#196 = CARTESIAN_POINT ( 'NONE',  ( 15.00000000000000000, -7.000000000000000000, -15.00000000000000000 ) ) ;
#197 = ORIENTED_EDGE ( 'NONE', *, *, #912, .F. ) ;
#198 = ORIENTED_EDGE ( 'NONE', *, *, #522, .F. ) ;
#199 = ADVANCED_FACE ( 'NONE', ( #423 ), #713, .F. ) ;
#200 = FACE_OUTER_BOUND ( 'NONE', #738, .T. ) ;
#201 = CARTESIAN_POINT ( 'NONE',  ( 15.00000000000000000, -7.000000000000000000, 1.500000000000000666 ) ) ;
#202 = CIRCLE ( 'NONE', #917, 1.500000000000001332 ) ;
#203 = ORIENTED_EDGE ( 'NONE', *, *, #802, .T. ) ;
#204 = EDGE_LOOP ( 'NONE', ( #643, #320 ) ) ;
#205 = LINE ( 'NONE', #785, #182 ) ;
#206 = DIRECTION ( 'NONE',  ( -0.000000000000000000, 1.000000000000000000, -0.000000000000000000 ) ) ;
#207 = EDGE_CURVE ( 'NONE', #799, #144, #431, .T. ) ;
#208 = EDGE_LOOP ( 'NONE', ( #1207, #462, #1008, #475 ) ) ;
#209 = CARTESIAN_POINT ( 'NONE',  ( 30.00000000000000000, 3.000000000000000000, 15.00000000000000000 ) ) ;
#210 = CARTESIAN_POINT ( 'NONE',  ( -15.00000000000000000, 3.000000000000000000, -1.500000000000000666 ) ) ;
#211 = DIRECTION ( 'NONE',  ( 0.000000000000000000, 1.000000000000000000, 0.000000000000000000 ) ) ;
#212 = EDGE_CURVE ( 'NONE', #635, #1071, #427, .T. ) ;
#213 = ORIENTED_EDGE ( 'NONE', *, *, #557, .F. ) ;
#214 = AXIS2_PLACEMENT_3D ( 'NONE', #26, #1117, #230 ) ;
#215 = ORIENTED_EDGE ( 'NONE', *, *, #616, .T. ) ;
#216 = AXIS2_PLACEMENT_3D ( 'NONE', #1145, #276, #282 ) ;
#217 = FACE_OUTER_BOUND ( 'NONE', #240, .T. ) ;
#218 = DIRECTION ( 'NONE',  ( 0.000000000000000000, 0.000000000000000000, 1.000000000000000000 ) ) ;
#219 = ORIENTED_EDGE ( 'NONE', *, *, #1187, .F. ) ;
#220 = FACE_OUTER_BOUND ( 'NONE', #815, .T. ) ;
#221 = AXIS2_PLACEMENT_3D ( 'NONE', #996, #1176, #308 ) ;
#222 = DIRECTION ( 'NONE',  ( 0.000000000000000000, 1.000000000000000000, 0.000000000000000000 ) ) ;
#223 = CARTESIAN_POINT ( 'NONE',  ( -32.50000000000000000, 3.000000000000000000, 17.50000000000000000 ) ) ;
#224 = AXIS2_PLACEMENT_3D ( 'NONE', #477, #86, #578 ) ;
#225 = ORIENTED_EDGE ( 'NONE', *, *, #652, .F. ) ;
#226 = DIRECTION ( 'NONE',  ( -1.000000000000000000, -0.000000000000000000, -0.000000000000000000 ) ) ;
#227 = ORIENTED_EDGE ( 'NONE', *, *, #1078, .T. ) ;
#228 = DIRECTION ( 'NONE',  ( 0.000000000000000000, 0.000000000000000000, 1.000000000000000000 ) ) ;
#229 = EDGE_CURVE ( 'NONE', #1063, #820, #370, .T. ) ;
#230 = DIRECTION ( 'NONE',  ( 1.000000000000000000, 0.000000000000000000, -0.000000000000000000 ) ) ;
#231 = APPROVAL_PERSON_ORGANIZATION ( #1229, #158, #938 ) ;
#232 = AXIS2_PLACEMENT_3D ( 'NONE', #1186, #916, #1217 ) ;
#233 = ORIENTED_EDGE ( 'NONE', *, *, #212, .T. ) ;
#234 = DIRECTION ( 'NONE',  ( 0.000000000000000000, 0.000000000000000000, 1.000000000000000000 ) ) ;
#235 = VERTEX_POINT ( 'NONE', #764 ) ;
#236 = DIRECTION ( 'NONE',  ( 1.000000000000000000, 0.000000000000000000, 0.000000000000000000 ) ) ;
#237 = DIRECTION ( 'NONE',  ( -0.000000000000000000, 1.000000000000000000, -0.000000000000000000 ) ) ;
#238 = EDGE_CURVE ( 'NONE', #77, #1198, #268, .T. ) ;
#239 = DIRECTION ( 'NONE',  ( -0.000000000000000000, -1.000000000000000000, -0.000000000000000000 ) ) ;
#240 = EDGE_LOOP ( 'NONE', ( #1059, #225, #89, #71 ) ) ;
#241 = CARTESIAN_POINT ( 'NONE',  ( 32.49999999999999289, 3.000000000000000000, -17.50000000000000000 ) ) ;
#242 = ORIENTED_EDGE ( 'NONE', *, *, #292, .T. ) ;
#243 = CARTESIAN_POINT ( 'NONE',  ( 15.00000000000000000, 3.000000000000000000, -15.00000000000000000 ) ) ;
#244 = DIRECTION ( 'NONE',  ( 0.000000000000000000, 1.000000000000000000, 0.000000000000000000 ) ) ;
#245 = EDGE_CURVE ( 'NONE', #422, #925, #272, .T. ) ;
#246 = ORIENTED_EDGE ( 'NONE', *, *, #1118, .F. ) ;
#247 = CARTESIAN_POINT ( 'NONE',  ( -15.00000000000000000, -7.000000000000000000, -16.50000000000000000 ) ) ;
#248 = ORIENTED_EDGE ( 'NONE', *, *, #1233, .F. ) ;
#249 = COORDINATED_UNIVERSAL_TIME_OFFSET ( 8, 0, .AHEAD. ) ;
#250 = DIRECTION ( 'NONE',  ( 0.000000000000000000, 0.000000000000000000, 1.000000000000000000 ) ) ;
#251 = CARTESIAN_POINT ( 'NONE',  ( -30.00000000000000000, -7.000000000000000000, -16.50000000000000000 ) ) ;
#252 = CC_DESIGN_PERSON_AND_ORGANIZATION_ASSIGNMENT ( #1016, #741, ( #667 ) ) ;
#253 = ORIENTED_EDGE ( 'NONE', *, *, #666, .T. ) ;
#254 = AXIS2_PLACEMENT_3D ( 'NONE', #312, #527, #721 ) ;
#255 = AXIS2_PLACEMENT_3D ( 'NONE', #421, #102, #1183 ) ;
#256 = ADVANCED_FACE ( 'NONE', ( #1137 ), #70, .F. ) ;
#257 = DIRECTION ( 'NONE',  ( 0.000000000000000000, 1.000000000000000000, 0.000000000000000000 ) ) ;
#258 = ORIENTED_EDGE ( 'NONE', *, *, #441, .T. ) ;
#259 = CARTESIAN_POINT ( 'NONE',  ( -15.00000000000000000, 3.000000000000000000, 15.00000000000000000 ) ) ;
#260 = DIRECTION ( 'NONE',  ( 0.000000000000000000, 1.000000000000000000, 0.000000000000000000 ) ) ;
#261 = CARTESIAN_POINT ( 'NONE',  ( -30.00000000000000000, -7.000000000000000000, -15.00000000000000000 ) ) ;
#262 = ORIENTED_EDGE ( 'NONE', *, *, #478, .F. ) ;
#263 = CARTESIAN_POINT ( 'NONE',  ( -32.50000000000000000, 0.000000000000000000, 14.49999999999999822 ) ) ;
#264 = AXIS2_PLACEMENT_3D ( 'NONE', #718, #151, #636 ) ;
#265 = CARTESIAN_POINT ( 'NONE',  ( -30.00000000000000000, 0.000000000000000000, 0.000000000000000000 ) ) ;
#266 = CYLINDRICAL_SURFACE ( 'NONE', #100, 1.500000000000001332 ) ;
#267 = ORIENTED_EDGE ( 'NONE', *, *, #378, .T. ) ;
#268 = CIRCLE ( 'NONE', #429, 1.500000000000001332 ) ;
#269 = DIRECTION ( 'NONE',  ( 0.000000000000000000, 0.000000000000000000, 1.000000000000000000 ) ) ;
#270 = DIRECTION ( 'NONE',  ( 0.000000000000000000, 0.000000000000000000, 1.000000000000000000 ) ) ;
#271 = ADVANCED_FACE ( 'NONE', ( #669 ), #266, .F. ) ;
#272 = LINE ( 'NONE', #461, #171 ) ;
#273 = EDGE_LOOP ( 'NONE', ( #146, #1240, #832, #88 ) ) ;
#274 = LOCAL_TIME ( 19, 44, 15.00000000000000000, #249 ) ;
#275 = AXIS2_PLACEMENT_3D ( 'NONE', #567, #1158, #653 ) ;
#276 = DIRECTION ( 'NONE',  ( 0.000000000000000000, 1.000000000000000000, 0.000000000000000000 ) ) ;
#277 = ADVANCED_FACE ( 'NONE', ( #375 ), #1234, .T. ) ;
#278 = CIRCLE ( 'NONE', #1212, 2.999999999999999112 ) ;
#279 = AXIS2_PLACEMENT_3D ( 'NONE', #118, #893, #1257 ) ;
#280 = DIRECTION ( 'NONE',  ( 0.000000000000000000, 0.000000000000000000, 1.000000000000000000 ) ) ;
#281 = ORIENTED_EDGE ( 'NONE', *, *, #245, .T. ) ;
#282 = DIRECTION ( 'NONE',  ( 0.000000000000000000, 0.000000000000000000, 1.000000000000000000 ) ) ;
#283 = AXIS2_PLACEMENT_3D ( 'NONE', #20, #206, #881 ) ;
#284 = EDGE_CURVE ( 'NONE', #406, #1087, #167, .T. ) ;
#285 = ORIENTED_EDGE ( 'NONE', *, *, #1174, .F. ) ;
#286 = AXIS2_PLACEMENT_3D ( 'NONE', #265, #369, #1225 ) ;
#287 = EDGE_LOOP ( 'NONE', ( #504, #981, #532, #1235 ) ) ;
#288 = FACE_BOUND ( 'NONE', #175, .T. ) ;
#289 = DIRECTION ( 'NONE',  ( 0.000000000000000000, 0.000000000000000000, 1.000000000000000000 ) ) ;
#290 = UNCERTAINTY_MEASURE_WITH_UNIT (LENGTH_MEASURE( 1.000000000000000082E-05 ), #1259, 'distance_accuracy_value', 'NONE');
#291 = ORIENTED_EDGE ( 'NONE', *, *, #705, .F. ) ;
#292 = EDGE_CURVE ( 'NONE', #11, #352, #1054, .T. ) ;
#293 = EDGE_LOOP ( 'NONE', ( #651, #716, #524, #311 ) ) ;
#294 = AXIS2_PLACEMENT_3D ( 'NONE', #309, #1190, #509 ) ;
#295 = AXIS2_PLACEMENT_3D ( 'NONE', #520, #1202, #1010 ) ;
#296 = CARTESIAN_POINT ( 'NONE',  ( -30.00000000000000000, 3.000000000000000000, -16.50000000000000000 ) ) ;
#297 = CARTESIAN_POINT ( 'NONE',  ( 30.00000000000000000, 0.000000000000000000, 15.00000000000000000 ) ) ;
#298 = LINE ( 'NONE', #387, #85 ) ;
#299 = ORIENTED_EDGE ( 'NONE', *, *, #420, .T. ) ;
#300 = ORIENTED_EDGE ( 'NONE', *, *, #1139, .T. ) ;
#301 = DIRECTION ( 'NONE',  ( -0.000000000000000000, 1.000000000000000000, -0.000000000000000000 ) ) ;
#302 = CIRCLE ( 'NONE', #655, 1.500000000000001332 ) ;
#303 = DESIGN_CONTEXT ( 'detailed design', #120, 'design' ) ;
#304 = ORIENTED_EDGE ( 'NONE', *, *, #929, .F. ) ;
#305 = DIRECTION ( 'NONE',  ( -3.965082230804130220E-16, -0.000000000000000000, -1.000000000000000000 ) ) ;
#306 = DIRECTION ( 'NONE',  ( 0.000000000000000000, 1.000000000000000000, 0.000000000000000000 ) ) ;
#307 = ADVANCED_FACE ( 'NONE', ( #1048, #174, #1126, #565, #770, #961, #955, #448, #864, #1042, #1222, #364, #76 ), #850, .F. ) ;
#308 = DIRECTION ( 'NONE',  ( 0.000000000000000000, 0.000000000000000000, 1.000000000000000000 ) ) ;
#309 = CARTESIAN_POINT ( 'NONE',  ( 15.00000000000000000, 3.000000000000000000, -15.00000000000000000 ) ) ;
#310 = EDGE_LOOP ( 'NONE', ( #128, #1121, #267, #657 ) ) ;
#311 = ORIENTED_EDGE ( 'NONE', *, *, #652, .T. ) ;
#312 = CARTESIAN_POINT ( 'NONE',  ( -29.50000000000000711, 3.000000000000000000, -14.50000000000000178 ) ) ;
#313 = VECTOR ( 'NONE', #502, 1000.000000000000000 ) ;
#314 = CYLINDRICAL_SURFACE ( 'NONE', #324, 1.500000000000000666 ) ;
#315 = VERTEX_POINT ( 'NONE', #1058 ) ;
#316 = VECTOR ( 'NONE', #149, 1000.000000000000000 ) ;
#317 = DIRECTION ( 'NONE',  ( 0.000000000000000000, 0.000000000000000000, 1.000000000000000000 ) ) ;
#318 = CARTESIAN_POINT ( 'NONE',  ( 30.00000000000000000, 0.000000000000000000, -13.50000000000000178 ) ) ;
#319 = DIRECTION ( 'NONE',  ( 0.000000000000000000, 1.000000000000000000, 0.000000000000000000 ) ) ;
#320 = ORIENTED_EDGE ( 'NONE', *, *, #1064, .T. ) ;
#321 = EDGE_CURVE ( 'NONE', #390, #1088, #1037, .T. ) ;
#322 = CYLINDRICAL_SURFACE ( 'NONE', #264, 1.500000000000001332 ) ;
#323 = EDGE_LOOP ( 'NONE', ( #609, #456 ) ) ;
#324 = AXIS2_PLACEMENT_3D ( 'NONE', #101, #92, #492 ) ;
#325 = CYLINDRICAL_SURFACE ( 'NONE', #232, 1.500000000000000666 ) ;
#326 = DIRECTION ( 'NONE',  ( 0.000000000000000000, 1.000000000000000000, 0.000000000000000000 ) ) ;
#327 = CIRCLE ( 'NONE', #1213, 1.499999999999997780 ) ;
#328 = ORIENTED_EDGE ( 'NONE', *, *, #1134, .T. ) ;
#329 = EDGE_CURVE ( 'NONE', #560, #970, #452, .T. ) ;
#330 = DIRECTION ( 'NONE',  ( 1.000000000000000000, 0.000000000000000000, -1.982541115402065110E-16 ) ) ;
#331 = ORIENTED_EDGE ( 'NONE', *, *, #99, .F. ) ;
#332 = APPROVAL_ROLE ( '' ) ;
#333 = DIRECTION ( 'NONE',  ( 0.000000000000000000, 0.000000000000000000, 1.000000000000000000 ) ) ;
#334 = CARTESIAN_POINT ( 'NONE',  ( 15.00000000000000000, 3.000000000000000000, -1.500000000000000666 ) ) ;
#335 = VECTOR ( 'NONE', #885, 1000.000000000000000 ) ;
#336 = VECTOR ( 'NONE', #830, 1000.000000000000000 ) ;
#337 = ORIENTED_EDGE ( 'NONE', *, *, #1020, .T. ) ;
#338 = CARTESIAN_POINT ( 'NONE',  ( 30.00000000000000000, -7.000000000000000000, -16.49999999999999645 ) ) ;
#339 = ORIENTED_EDGE ( 'NONE', *, *, #608, .F. ) ;
#340 = CARTESIAN_POINT ( 'NONE',  ( -15.00000000000000000, -7.000000000000000000, -13.49999999999999822 ) ) ;
#341 = CIRCLE ( 'NONE', #216, 1.500000000000000666 ) ;
#342 = CARTESIAN_POINT ( 'NONE',  ( 15.00000000000000000, 3.000000000000000000, 16.50000000000000000 ) ) ;
#343 = EDGE_CURVE ( 'NONE', #496, #1038, #54, .T. ) ;
#344 = ORIENTED_EDGE ( 'NONE', *, *, #1002, .F. ) ;
#345 = FACE_OUTER_BOUND ( 'NONE', #47, .T. ) ;
#346 = ORIENTED_EDGE ( 'NONE', *, *, #871, .T. ) ;
#347 = APPROVAL_DATE_TIME ( #1009, #846 ) ;
#348 = DIRECTION ( 'NONE',  ( 0.000000000000000000, 1.000000000000000000, 0.000000000000000000 ) ) ;
#349 = CARTESIAN_POINT ( 'NONE',  ( 30.00000000000000000, 0.000000000000000000, 13.50000000000000178 ) ) ;
#350 = ADVANCED_FACE ( 'NONE', ( #943 ), #455, .F. ) ;
#351 = CIRCLE ( 'NONE', #1221, 1.500000000000001332 ) ;
#352 = VERTEX_POINT ( 'NONE', #1086 ) ;
#353 = DIRECTION ( 'NONE',  ( 0.000000000000000000, 0.000000000000000000, 1.000000000000000000 ) ) ;
#354 = EDGE_LOOP ( 'NONE', ( #213, #437, #982, #1099 ) ) ;
#355 = APPROVAL_DATE_TIME ( #755, #97 ) ;
#356 = CARTESIAN_POINT ( 'NONE',  ( 29.49999999999999289, 0.000000000000000000, -14.50000000000000178 ) ) ;
#357 = DIRECTION ( 'NONE',  ( -0.000000000000000000, 1.000000000000000000, -0.000000000000000000 ) ) ;
#358 = CIRCLE ( 'NONE', #647, 1.500000000000001332 ) ;
#359 = DIRECTION ( 'NONE',  ( -0.000000000000000000, 1.000000000000000000, -0.000000000000000000 ) ) ;
#360 = ORIENTED_EDGE ( 'NONE', *, *, #863, .T. ) ;
#361 = APPLICATION_PROTOCOL_DEFINITION ( 'international standard', 'config_control_design', 1994, #120 ) ;
#362 = CARTESIAN_POINT ( 'NONE',  ( -15.00000000000000000, 3.000000000000000000, 13.49999999999999822 ) ) ;
#363 = CARTESIAN_POINT ( 'NONE',  ( -29.50000000000000711, 0.000000000000000000, -17.50000000000000000 ) ) ;
#364 = FACE_BOUND ( 'NONE', #1035, .T. ) ;
#365 = ORIENTED_EDGE ( 'NONE', *, *, #972, .T. ) ;
#366 = EDGE_CURVE ( 'NONE', #1071, #635, #659, .T. ) ;
#367 = CARTESIAN_POINT ( 'NONE',  ( 15.00000000000000000, 3.000000000000000000, 13.49999999999999822 ) ) ;
#368 = AXIS2_PLACEMENT_3D ( 'NONE', #1007, #1215, #936 ) ;
#369 = DIRECTION ( 'NONE',  ( 0.000000000000000000, 1.000000000000000000, 0.000000000000000000 ) ) ;
#370 = CIRCLE ( 'NONE', #701, 1.500000000000000666 ) ;
#371 = CARTESIAN_POINT ( 'NONE',  ( -30.00000000000000000, 3.000000000000000000, 0.000000000000000000 ) ) ;
#372 = ORIENTED_EDGE ( 'NONE', *, *, #985, .T. ) ;
#373 = EDGE_CURVE ( 'NONE', #970, #920, #114, .T. ) ;
#374 = CARTESIAN_POINT ( 'NONE',  ( -30.00000000000000000, 3.000000000000000000, -15.00000000000000000 ) ) ;
#375 = FACE_OUTER_BOUND ( 'NONE', #566, .T. ) ;
#376 = ORIENTED_EDGE ( 'NONE', *, *, #590, .T. ) ;
#377 = DIRECTION ( 'NONE',  ( 0.000000000000000000, 1.000000000000000000, 0.000000000000000000 ) ) ;
#378 = EDGE_CURVE ( 'NONE', #962, #1013, #685, .T. ) ;
#379 = PLANE ( 'NONE',  #87 ) ;
#380 = VECTOR ( 'NONE', #1218, 1000.000000000000000 ) ;
#381 = VECTOR ( 'NONE', #13, 1000.000000000000000 ) ;
#382 = EDGE_LOOP ( 'NONE', ( #16, #1184, #170, #506 ) ) ;
#383 = ADVANCED_FACE ( 'NONE', ( #894 ), #314, .F. ) ;
#384 = CARTESIAN_POINT ( 'NONE',  ( -15.00000000000000000, -7.000000000000000000, -15.00000000000000000 ) ) ;
#385 = ADVANCED_FACE ( 'NONE', ( #508 ), #900, .F. ) ;
#386 = CIRCLE ( 'NONE', #778, 1.500000000000001332 ) ;
#387 = CARTESIAN_POINT ( 'NONE',  ( 32.50000000000000711, 3.000000000000000000, 14.49999999999999822 ) ) ;
#388 = VERTEX_POINT ( 'NONE', #888 ) ;
#389 = AXIS2_PLACEMENT_3D ( 'NONE', #79, #953, #458 ) ;
#390 = VERTEX_POINT ( 'NONE', #709 ) ;
#391 = DIRECTION ( 'NONE',  ( 0.000000000000000000, 0.000000000000000000, 1.000000000000000000 ) ) ;
#392 = CYLINDRICAL_SURFACE ( 'NONE', #1197, 1.500000000000001332 ) ;
#393 = CARTESIAN_POINT ( 'NONE',  ( 32.50000000000000711, 3.000000000000000000, 14.49999999999999822 ) ) ;
#394 = ORIENTED_EDGE ( 'NONE', *, *, #1002, .T. ) ;
#395 = ORIENTED_EDGE ( 'NONE', *, *, #608, .T. ) ;
#396 =( GEOMETRIC_REPRESENTATION_CONTEXT ( 3 ) GLOBAL_UNCERTAINTY_ASSIGNED_CONTEXT ( ( #290 ) ) GLOBAL_UNIT_ASSIGNED_CONTEXT ( ( #1259, #887, #814 ) ) REPRESENTATION_CONTEXT ( 'NONE', 'WORKASPACE' ) );
#397 = AXIS2_PLACEMENT_3D ( 'NONE', #513, #645, #904 ) ;
#398 = DIRECTION ( 'NONE',  ( 1.982541115402065110E-16, 0.000000000000000000, 1.000000000000000000 ) ) ;
#399 = LINE ( 'NONE', #1260, #717 ) ;
#400 = EDGE_LOOP ( 'NONE', ( #884, #794 ) ) ;
#401 = VERTEX_POINT ( 'NONE', #2 ) ;
#402 = CARTESIAN_POINT ( 'NONE',  ( 0.000000000000000000, 0.000000000000000000, 0.000000000000000000 ) ) ;
#403 = EDGE_CURVE ( 'NONE', #1107, #1113, #399, .T. ) ;
#404 = LINE ( 'NONE', #801, #774 ) ;
#405 = DIRECTION ( 'NONE',  ( 0.000000000000000000, 1.000000000000000000, 0.000000000000000000 ) ) ;
#406 = VERTEX_POINT ( 'NONE', #905 ) ;
#407 = ORIENTED_EDGE ( 'NONE', *, *, #1057, .T. ) ;
#408 = CARTESIAN_POINT ( 'NONE',  ( 29.49999999999999289, 3.000000000000000000, -17.50000000000000000 ) ) ;
#409 = CARTESIAN_POINT ( 'NONE',  ( -15.00000000000000000, 0.000000000000000000, 15.00000000000000000 ) ) ;
#410 = ORIENTED_EDGE ( 'NONE', *, *, #537, .F. ) ;
#411 = DIRECTION ( 'NONE',  ( -0.000000000000000000, 1.000000000000000000, -0.000000000000000000 ) ) ;
#412 = DIRECTION ( 'NONE',  ( 0.000000000000000000, 1.000000000000000000, 0.000000000000000000 ) ) ;
#413 = FACE_OUTER_BOUND ( 'NONE', #1028, .T. ) ;
#414 = ADVANCED_FACE ( 'NONE', ( #413 ), #392, .F. ) ;
#415 = ORIENTED_EDGE ( 'NONE', *, *, #1168, .T. ) ;
#416 = DIRECTION ( 'NONE',  ( 0.000000000000000000, 0.000000000000000000, 1.000000000000000000 ) ) ;
#417 = ORIENTED_EDGE ( 'NONE', *, *, #180, .T. ) ;
#418 = CARTESIAN_POINT ( 'NONE',  ( -15.00000000000000000, 0.000000000000000000, -1.500000000000000666 ) ) ;
#419 = DIRECTION ( 'NONE',  ( 0.000000000000000000, 0.000000000000000000, 1.000000000000000000 ) ) ;
#420 = EDGE_CURVE ( 'NONE', #844, #53, #15, .T. ) ;
#421 = CARTESIAN_POINT ( 'NONE',  ( -15.00000000000000000, 0.000000000000000000, 0.000000000000000000 ) ) ;
#422 = VERTEX_POINT ( 'NONE', #803 ) ;
#423 = FACE_OUTER_BOUND ( 'NONE', #208, .T. ) ;
#424 = EDGE_LOOP ( 'NONE', ( #291, #1000 ) ) ;
#425 = PERSON_AND_ORGANIZATION ( #1115, #1146 ) ;
#426 = PLANE ( 'NONE',  #397 ) ;
#427 = CIRCLE ( 'NONE', #1022, 1.500000000000000666 ) ;
#428 = CARTESIAN_POINT ( 'NONE',  ( 15.00000000000000000, -7.000000000000000000, 13.49999999999999822 ) ) ;
#429 = AXIS2_PLACEMENT_3D ( 'NONE', #572, #753, #353 ) ;
#430 = ORIENTED_EDGE ( 'NONE', *, *, #1245, .T. ) ;
#431 = LINE ( 'NONE', #338, #33 ) ;
#432 = ORIENTED_EDGE ( 'NONE', *, *, #1245, .F. ) ;
#433 = EDGE_CURVE ( 'NONE', #422, #390, #386, .T. ) ;
#434 = DIRECTION ( 'NONE',  ( 0.000000000000000000, 1.000000000000000000, 0.000000000000000000 ) ) ;
#435 = CARTESIAN_POINT ( 'NONE',  ( 30.00000000000000000, 3.000000000000000000, 15.00000000000000000 ) ) ;
#436 = CIRCLE ( 'NONE', #294, 1.500000000000001332 ) ;
#437 = ORIENTED_EDGE ( 'NONE', *, *, #207, .T. ) ;
#438 = DIRECTION ( 'NONE',  ( 0.000000000000000000, 0.000000000000000000, 1.000000000000000000 ) ) ;
#439 = VERTEX_POINT ( 'NONE', #984 ) ;
#440 = DATE_AND_TIME ( #540, #476 ) ;
#441 = EDGE_CURVE ( 'NONE', #865, #53, #614, .T. ) ;
#442 = AXIS2_PLACEMENT_3D ( 'NONE', #435, #551, #124 ) ;
#443 = DIRECTION ( 'NONE',  ( 0.000000000000000000, 0.000000000000000000, 1.000000000000000000 ) ) ;
#444 = EDGE_CURVE ( 'NONE', #11, #482, #60, .T. ) ;
#445 = AXIS2_PLACEMENT_3D ( 'NONE', #384, #1169, #391 ) ;
#446 = DIRECTION ( 'NONE',  ( 0.000000000000000000, 0.000000000000000000, 1.000000000000000000 ) ) ;
#447 = ORIENTED_EDGE ( 'NONE', *, *, #1047, .F. ) ;
#448 = FACE_BOUND ( 'NONE', #784, .T. ) ;
#449 = ORIENTED_EDGE ( 'NONE', *, *, #666, .F. ) ;
#450 = DIRECTION ( 'NONE',  ( -0.000000000000000000, 1.000000000000000000, -0.000000000000000000 ) ) ;
#451 = AXIS2_PLACEMENT_3D ( 'NONE', #485, #1180, #107 ) ;
#452 = CIRCLE ( 'NONE', #758, 1.500000000000000666 ) ;
#453 = DIRECTION ( 'NONE',  ( -0.000000000000000000, 1.000000000000000000, -0.000000000000000000 ) ) ;
#454 = CIRCLE ( 'NONE', #224, 1.500000000000001332 ) ;
#455 = CYLINDRICAL_SURFACE ( 'NONE', #486, 1.499999999999997335 ) ;
#456 = ORIENTED_EDGE ( 'NONE', *, *, #34, .F. ) ;
#457 = DIRECTION ( 'NONE',  ( 0.000000000000000000, 1.000000000000000000, 0.000000000000000000 ) ) ;
#458 = DIRECTION ( 'NONE',  ( 0.000000000000000000, 0.000000000000000000, 1.000000000000000000 ) ) ;
#459 = EDGE_CURVE ( 'NONE', #1264, #937, #944, .T. ) ;
#460 = CIRCLE ( 'NONE', #1164, 2.999999999999999112 ) ;
#461 = CARTESIAN_POINT ( 'NONE',  ( -15.00000000000000000, -7.000000000000000000, 16.50000000000000000 ) ) ;
#462 = ORIENTED_EDGE ( 'NONE', *, *, #736, .T. ) ;
#463 = DIRECTION ( 'NONE',  ( 0.000000000000000000, 0.000000000000000000, 1.000000000000000000 ) ) ;
#464 = DIRECTION ( 'NONE',  ( 0.000000000000000000, 0.000000000000000000, -1.000000000000000000 ) ) ;
#465 = EDGE_CURVE ( 'NONE', #496, #184, #1097, .T. ) ;
#466 = CARTESIAN_POINT ( 'NONE',  ( 0.000000000000000000, 0.000000000000000000, 0.000000000000000000 ) ) ;
#467 = EDGE_LOOP ( 'NONE', ( #407, #1249 ) ) ;
#468 = CARTESIAN_POINT ( 'NONE',  ( -15.00000000000000000, 3.000000000000000000, 1.500000000000000666 ) ) ;
#469 = CARTESIAN_POINT ( 'NONE',  ( 15.00000000000000000, 3.000000000000000000, 15.00000000000000000 ) ) ;
#470 = AXIS2_PLACEMENT_3D ( 'NONE', #822, #330, #724 ) ;
#471 = DIRECTION ( 'NONE',  ( 0.000000000000000000, 0.000000000000000000, 1.000000000000000000 ) ) ;
#472 = EDGE_LOOP ( 'NONE', ( #122, #581 ) ) ;
#473 = EDGE_CURVE ( 'NONE', #937, #84, #516, .T. ) ;
#474 = CYLINDRICAL_SURFACE ( 'NONE', #389, 1.500000000000000666 ) ;
#475 = ORIENTED_EDGE ( 'NONE', *, *, #640, .T. ) ;
#476 = LOCAL_TIME ( 19, 44, 15.00000000000000000, #631 ) ;
#477 = CARTESIAN_POINT ( 'NONE',  ( -30.00000000000000000, 0.000000000000000000, 15.00000000000000000 ) ) ;
#478 = EDGE_CURVE ( 'NONE', #439, #1071, #693, .T. ) ;
#479 = DIRECTION ( 'NONE',  ( -1.000000000000000000, 0.000000000000000000, -0.000000000000000000 ) ) ;
#480 = VECTOR ( 'NONE', #918, 1000.000000000000000 ) ;
#481 = VERTEX_POINT ( 'NONE', #978 ) ;
#482 = VERTEX_POINT ( 'NONE', #32 ) ;
#483 = VECTOR ( 'NONE', #629, 1000.000000000000000 ) ;
#484 = FACE_BOUND ( 'NONE', #622, .T. ) ;
#485 = CARTESIAN_POINT ( 'NONE',  ( 15.00000000000000000, 3.000000000000000000, 0.000000000000000000 ) ) ;
#486 = AXIS2_PLACEMENT_3D ( 'NONE', #515, #699, #808 ) ;
#487 = FACE_OUTER_BOUND ( 'NONE', #641, .T. ) ;
#488 = EDGE_LOOP ( 'NONE', ( #81, #246 ) ) ;
#489 = CARTESIAN_POINT ( 'NONE',  ( 30.00000000000000000, 0.000000000000000000, -1.499999999999997335 ) ) ;
#490 = AXIS2_PLACEMENT_3D ( 'NONE', #261, #842, #858 ) ;
#491 = CARTESIAN_POINT ( 'NONE',  ( 29.50000000000000711, 0.000000000000000000, 14.49999999999999822 ) ) ;
#492 = DIRECTION ( 'NONE',  ( 0.000000000000000000, 0.000000000000000000, 1.000000000000000000 ) ) ;
#493 = LINE ( 'NONE', #889, #1 ) ;
#494 = EDGE_CURVE ( 'NONE', #144, #1013, #605, .T. ) ;
#495 = ORIENTED_EDGE ( 'NONE', *, *, #82, .F. ) ;
#496 = VERTEX_POINT ( 'NONE', #349 ) ;
#497 = AXIS2_PLACEMENT_3D ( 'NONE', #702, #112, #1083 ) ;
#498 = AXIS2_PLACEMENT_3D ( 'NONE', #68, #457, #463 ) ;
#499 = FACE_BOUND ( 'NONE', #1194, .T. ) ;
#500 = CARTESIAN_POINT ( 'NONE',  ( -30.00000000000000000, 3.000000000000000000, -15.00000000000000000 ) ) ;
#501 = AXIS2_PLACEMENT_3D ( 'NONE', #1109, #819, #156 ) ;
#502 = DIRECTION ( 'NONE',  ( -0.000000000000000000, 1.000000000000000000, -0.000000000000000000 ) ) ;
#503 = EDGE_CURVE ( 'NONE', #115, #1107, #1019, .T. ) ;
#504 = ORIENTED_EDGE ( 'NONE', *, *, #180, .F. ) ;
#505 = AXIS2_PLACEMENT_3D ( 'NONE', #469, #556, #270 ) ;
#506 = ORIENTED_EDGE ( 'NONE', *, *, #245, .F. ) ;
#507 = LINE ( 'NONE', #899, #381 ) ;
#508 = FACE_OUTER_BOUND ( 'NONE', #765, .T. ) ;
#509 = DIRECTION ( 'NONE',  ( 0.000000000000000000, 0.000000000000000000, 1.000000000000000000 ) ) ;
#510 = ORIENTED_EDGE ( 'NONE', *, *, #1047, .T. ) ;
#511 = LINE ( 'NONE', #594, #176 ) ;
#512 = VECTOR ( 'NONE', #188, 1000.000000000000000 ) ;
#513 = CARTESIAN_POINT ( 'NONE',  ( 32.49999999999999289, 3.000000000000000000, -17.50000000000000000 ) ) ;
#514 = EDGE_CURVE ( 'NONE', #1107, #1101, #1248, .T. ) ;
#515 = CARTESIAN_POINT ( 'NONE',  ( 30.00000000000000000, -7.000000000000000000, 0.000000000000000000 ) ) ;
#516 = LINE ( 'NONE', #1067, #1043 ) ;
#517 = ORIENTED_EDGE ( 'NONE', *, *, #866, .T. ) ;
#518 = DIRECTION ( 'NONE',  ( 0.000000000000000000, 0.000000000000000000, 1.000000000000000000 ) ) ;
#519 = EDGE_LOOP ( 'NONE', ( #29, #417, #915, #248 ) ) ;
#520 = CARTESIAN_POINT ( 'NONE',  ( -30.00000000000000000, 0.000000000000000000, -15.00000000000000000 ) ) ;
#521 = AXIS2_PLACEMENT_3D ( 'NONE', #243, #348, #742 ) ;
#522 = EDGE_CURVE ( 'NONE', #1200, #635, #848, .T. ) ;
#523 = CARTESIAN_POINT ( 'NONE',  ( 30.00000000000000000, -7.000000000000000000, 1.499999999999997335 ) ) ;
#524 = ORIENTED_EDGE ( 'NONE', *, *, #59, .T. ) ;
#525 = CARTESIAN_POINT ( 'NONE',  ( -15.00000000000000000, 0.000000000000000000, -15.00000000000000000 ) ) ;
#526 = SHAPE_DEFINITION_REPRESENTATION ( #959, #788 ) ;
#527 = DIRECTION ( 'NONE',  ( 0.000000000000000000, -1.000000000000000000, 0.000000000000000000 ) ) ;
#528 = CARTESIAN_POINT ( 'NONE',  ( -15.00000000000000000, 0.000000000000000000, 1.500000000000000666 ) ) ;
#529 = CIRCLE ( 'NONE', #1018, 1.500000000000000666 ) ;
#530 = EDGE_LOOP ( 'NONE', ( #637, #800 ) ) ;
#531 = CYLINDRICAL_SURFACE ( 'NONE', #1141, 1.500000000000001332 ) ;
#532 = ORIENTED_EDGE ( 'NONE', *, *, #1233, .T. ) ;
#533 = PERSON_AND_ORGANIZATION ( #1115, #1146 ) ;
#534 = FACE_OUTER_BOUND ( 'NONE', #902, .T. ) ;
#535 = CYLINDRICAL_SURFACE ( 'NONE', #548, 1.499999999999997780 ) ;
#536 = EDGE_LOOP ( 'NONE', ( #42, #104, #1263, #415, #346, #804, #1228, #1024 ) ) ;
#537 = EDGE_CURVE ( 'NONE', #119, #352, #934, .T. ) ;
#538 = CARTESIAN_POINT ( 'NONE',  ( 15.00000000000000000, 0.000000000000000000, -13.49999999999999822 ) ) ;
#539 = ORIENTED_EDGE ( 'NONE', *, *, #59, .F. ) ;
#540 = CALENDAR_DATE ( 2026, 8, 5 ) ;
#541 = CARTESIAN_POINT ( 'NONE',  ( -30.00000000000000000, -7.000000000000000000, 15.00000000000000000 ) ) ;
#542 = DIRECTION ( 'NONE',  ( -0.000000000000000000, 1.000000000000000000, -0.000000000000000000 ) ) ;
#543 = CIRCLE ( 'NONE', #255, 1.500000000000000666 ) ;
#544 = VERTEX_POINT ( 'NONE', #633 ) ;
#545 = CYLINDRICAL_SURFACE ( 'NONE', #1080, 1.499999999999997335 ) ;
#546 = ORIENTED_EDGE ( 'NONE', *, *, #292, .F. ) ;
#547 = DATE_TIME_ROLE ( 'classification_date' ) ;
#548 = AXIS2_PLACEMENT_3D ( 'NONE', #142, #453, #924 ) ;
#549 = CARTESIAN_POINT ( 'NONE',  ( 15.00000000000000000, 0.000000000000000000, -16.50000000000000000 ) ) ;
#550 = AXIS2_PLACEMENT_3D ( 'NONE', #879, #983, #1251 ) ;
#551 = DIRECTION ( 'NONE',  ( 0.000000000000000000, 1.000000000000000000, 0.000000000000000000 ) ) ;
#552 = EDGE_LOOP ( 'NONE', ( #877, #987, #258, #1256 ) ) ;
#553 = CARTESIAN_POINT ( 'NONE',  ( 30.00000000000000000, -7.000000000000000000, 13.50000000000000178 ) ) ;
#554 = VERTEX_POINT ( 'NONE', #1196 ) ;
#555 = DIRECTION ( 'NONE',  ( 0.000000000000000000, 0.000000000000000000, 1.000000000000000000 ) ) ;
#556 = DIRECTION ( 'NONE',  ( 0.000000000000000000, 1.000000000000000000, 0.000000000000000000 ) ) ;
#557 = EDGE_CURVE ( 'NONE', #799, #962, #1150, .T. ) ;
#558 = AXIS2_PLACEMENT_3D ( 'NONE', #1130, #260, #1041 ) ;
#559 = DIRECTION ( 'NONE',  ( 0.000000000000000000, 0.000000000000000000, 1.000000000000000000 ) ) ;
#560 = VERTEX_POINT ( 'NONE', #528 ) ;
#561 = DIRECTION ( 'NONE',  ( 1.156482317317871725E-15, 0.000000000000000000, 1.000000000000000000 ) ) ;
#562 = DIRECTION ( 'NONE',  ( 0.000000000000000000, 0.000000000000000000, 1.000000000000000000 ) ) ;
#563 = ADVANCED_FACE ( 'NONE', ( #1096 ), #535, .F. ) ;
#564 = AXIS2_PLACEMENT_3D ( 'NONE', #618, #1001, #1116 ) ;
#565 = FACE_BOUND ( 'NONE', #950, .T. ) ;
#566 = EDGE_LOOP ( 'NONE', ( #719, #150, #670, #810 ) ) ;
#567 = CARTESIAN_POINT ( 'NONE',  ( -29.50000000000000711, 3.000000000000000000, -14.50000000000000178 ) ) ;
#568 = DIRECTION ( 'NONE',  ( 0.000000000000000000, 0.000000000000000000, 1.000000000000000000 ) ) ;
#569 = CIRCLE ( 'NONE', #505, 1.500000000000001332 ) ;
#570 = PRODUCT ( '\X2\5e95677f8fde63a54ef6\X0\2', '\X2\5e95677f8fde63a54ef6\X0\2', '', ( #852 ) ) ;
#571 = EDGE_CURVE ( 'NONE', #700, #1104, #278, .T. ) ;
#572 = CARTESIAN_POINT ( 'NONE',  ( 15.00000000000000000, 0.000000000000000000, -15.00000000000000000 ) ) ;
#573 = ORIENTED_EDGE ( 'NONE', *, *, #36, .F. ) ;
#574 = CARTESIAN_POINT ( 'NONE',  ( 29.50000000000000711, 3.000000000000000000, 14.49999999999999822 ) ) ;
#575 = DIRECTION ( 'NONE',  ( 0.000000000000000000, 0.000000000000000000, 1.000000000000000000 ) ) ;
#576 = ORIENTED_EDGE ( 'NONE', *, *, #478, .T. ) ;
#577 = EDGE_CURVE ( 'NONE', #903, #1144, #710, .T. ) ;
#578 = DIRECTION ( 'NONE',  ( 0.000000000000000000, 0.000000000000000000, 1.000000000000000000 ) ) ;
#579 = PRODUCT_RELATED_PRODUCT_CATEGORY ( 'detail', '', ( #570 ) ) ;
#580 = VECTOR ( 'NONE', #847, 1000.000000000000000 ) ;
#581 = ORIENTED_EDGE ( 'NONE', *, *, #821, .T. ) ;
#582 = ORIENTED_EDGE ( 'NONE', *, *, #1153, .F. ) ;
#583 = FACE_BOUND ( 'NONE', #1031, .T. ) ;
#584 = DIRECTION ( 'NONE',  ( -1.000000000000000000, -0.000000000000000000, -0.000000000000000000 ) ) ;
#585 = DIRECTION ( 'NONE',  ( 0.000000000000000000, 1.000000000000000000, 0.000000000000000000 ) ) ;
#586 = ORIENTED_EDGE ( 'NONE', *, *, #117, .F. ) ;
#587 = EDGE_LOOP ( 'NONE', ( #994, #592, #695, #1204 ) ) ;
#588 = VECTOR ( 'NONE', #226, 1000.000000000000000 ) ;
#589 = DIRECTION ( 'NONE',  ( -0.000000000000000000, 1.000000000000000000, -0.000000000000000000 ) ) ;
#590 = EDGE_CURVE ( 'NONE', #1087, #1160, #41, .T. ) ;
#591 = DIRECTION ( 'NONE',  ( -0.000000000000000000, 1.000000000000000000, -0.000000000000000000 ) ) ;
#592 = ORIENTED_EDGE ( 'NONE', *, *, #343, .T. ) ;
#593 = VECTOR ( 'NONE', #642, 1000.000000000000000 ) ;
#594 = CARTESIAN_POINT ( 'NONE',  ( -30.00000000000000000, -7.000000000000000000, -1.500000000000000666 ) ) ;
#595 = CYLINDRICAL_SURFACE ( 'NONE', #834, 1.500000000000000666 ) ;
#596 = EDGE_CURVE ( 'NONE', #115, #700, #133, .T. ) ;
#597 = DIRECTION ( 'NONE',  ( -0.000000000000000000, 1.000000000000000000, -0.000000000000000000 ) ) ;
#598 = ORIENTED_EDGE ( 'NONE', *, *, #807, .T. ) ;
#599 = ORIENTED_EDGE ( 'NONE', *, *, #164, .F. ) ;
#600 = CIRCLE ( 'NONE', #497, 1.500000000000000666 ) ;
#601 = CC_DESIGN_APPROVAL ( #846, ( #67 ) ) ;
#602 = AXIS2_PLACEMENT_3D ( 'NONE', #541, #1230, #939 ) ;
#603 = CARTESIAN_POINT ( 'NONE',  ( 30.00000000000000000, -7.000000000000000000, -15.00000000000000000 ) ) ;
#604 = DIRECTION ( 'NONE',  ( 0.000000000000000000, 0.000000000000000000, 1.000000000000000000 ) ) ;
#605 = CIRCLE ( 'NONE', #833, 1.499999999999997780 ) ;
#606 = EDGE_LOOP ( 'NONE', ( #823, #909, #300, #365 ) ) ;
#607 = AXIS2_PLACEMENT_3D ( 'NONE', #105, #589, #692 ) ;
#608 = EDGE_CURVE ( 'NONE', #401, #1038, #990, .T. ) ;
#609 = ORIENTED_EDGE ( 'NONE', *, *, #752, .F. ) ;
#610 = FACE_BOUND ( 'NONE', #488, .T. ) ;
#611 = CARTESIAN_POINT ( 'NONE',  ( 29.49999999999999289, 3.000000000000000000, -14.50000000000000178 ) ) ;
#612 = EDGE_CURVE ( 'NONE', #1119, #865, #825, .T. ) ;
#613 = VERTEX_POINT ( 'NONE', #722 ) ;
#614 = CIRCLE ( 'NONE', #997, 1.500000000000001332 ) ;
#615 = DIRECTION ( 'NONE',  ( 0.000000000000000000, 0.000000000000000000, 1.000000000000000000 ) ) ;
#616 = EDGE_CURVE ( 'NONE', #482, #119, #1211, .T. ) ;
#617 = CIRCLE ( 'NONE', #63, 1.500000000000000666 ) ;
#618 = CARTESIAN_POINT ( 'NONE',  ( -15.00000000000000000, 0.000000000000000000, -15.00000000000000000 ) ) ;
#619 = CARTESIAN_POINT ( 'NONE',  ( -29.50000000000000355, 3.000000000000000000, 17.50000000000000000 ) ) ;
#620 = ORIENTED_EDGE ( 'NONE', *, *, #821, .F. ) ;
#621 = CARTESIAN_POINT ( 'NONE',  ( 15.00000000000000000, 0.000000000000000000, 15.00000000000000000 ) ) ;
#622 = EDGE_LOOP ( 'NONE', ( #339, #573 ) ) ;
#623 = PERSON_AND_ORGANIZATION_ROLE ( 'classification_officer' ) ;
#624 = CARTESIAN_POINT ( 'NONE',  ( 15.00000000000000000, 3.000000000000000000, 1.500000000000000666 ) ) ;
#625 = APPROVAL_PERSON_ORGANIZATION ( #533, #846, #139 ) ;
#626 = AXIS2_PLACEMENT_3D ( 'NONE', #1209, #412, #333 ) ;
#627 = CARTESIAN_POINT ( 'NONE',  ( 30.00000000000000000, 0.000000000000000000, -15.00000000000000000 ) ) ;
#628 = VERTEX_POINT ( 'NONE', #342 ) ;
#629 = DIRECTION ( 'NONE',  ( -3.965082230804130220E-16, -0.000000000000000000, -1.000000000000000000 ) ) ;
#630 = ORIENTED_EDGE ( 'NONE', *, *, #514, .T. ) ;
#631 = COORDINATED_UNIVERSAL_TIME_OFFSET ( 8, 0, .AHEAD. ) ;
#632 = CARTESIAN_POINT ( 'NONE',  ( -30.00000000000000000, 0.000000000000000000, 13.49999999999999822 ) ) ;
#633 = CARTESIAN_POINT ( 'NONE',  ( 29.49999999999999289, 0.000000000000000000, -17.50000000000000000 ) ) ;
#634 = ADVANCED_FACE ( 'NONE', ( #911 ), #737, .F. ) ;
#635 = VERTEX_POINT ( 'NONE', #334 ) ;
#636 = DIRECTION ( 'NONE',  ( 0.000000000000000000, 0.000000000000000000, 1.000000000000000000 ) ) ;
#637 = ORIENTED_EDGE ( 'NONE', *, *, #229, .F. ) ;
#638 = FACE_OUTER_BOUND ( 'NONE', #677, .T. ) ;
#639 = LINE ( 'NONE', #1026, #380 ) ;
#640 = EDGE_CURVE ( 'NONE', #315, #725, #639, .T. ) ;
#641 = EDGE_LOOP ( 'NONE', ( #285, #663, #233, #262 ) ) ;
#642 = DIRECTION ( 'NONE',  ( -0.000000000000000000, 1.000000000000000000, -0.000000000000000000 ) ) ;
#643 = ORIENTED_EDGE ( 'NONE', *, *, #238, .T. ) ;
#644 = COORDINATED_UNIVERSAL_TIME_OFFSET ( 8, 0, .AHEAD. ) ;
#645 = DIRECTION ( 'NONE',  ( -1.000000000000000000, 0.000000000000000000, 3.965082230804130220E-16 ) ) ;
#646 = LINE ( 'NONE', #1231, #512 ) ;
#647 = AXIS2_PLACEMENT_3D ( 'NONE', #259, #756, #876 ) ;
#648 = AXIS2_PLACEMENT_3D ( 'NONE', #974, #809, #979 ) ;
#649 = ORIENTED_EDGE ( 'NONE', *, *, #675, .F. ) ;
#650 = DIRECTION ( 'NONE',  ( 0.000000000000000000, 1.000000000000000000, 0.000000000000000000 ) ) ;
#651 = ORIENTED_EDGE ( 'NONE', *, *, #473, .F. ) ;
#652 = EDGE_CURVE ( 'NONE', #754, #84, #1034, .T. ) ;
#653 = DIRECTION ( 'NONE',  ( 0.000000000000000000, 0.000000000000000000, 1.000000000000000000 ) ) ;
#654 = CARTESIAN_POINT ( 'NONE',  ( -15.00000000000000000, 3.000000000000000000, -15.00000000000000000 ) ) ;
#655 = AXIS2_PLACEMENT_3D ( 'NONE', #137, #129, #518 ) ;
#656 = DIRECTION ( 'NONE',  ( 0.000000000000000000, -1.000000000000000000, 0.000000000000000000 ) ) ;
#657 = ORIENTED_EDGE ( 'NONE', *, *, #1011, .T. ) ;
#658 = CARTESIAN_POINT ( 'NONE',  ( 15.00000000000000000, -7.000000000000000000, 15.00000000000000000 ) ) ;
#659 = CIRCLE ( 'NONE', #451, 1.500000000000000666 ) ;
#660 = AXIS2_PLACEMENT_3D ( 'NONE', #169, #656, #64 ) ;
#661 = DIRECTION ( 'NONE',  ( -0.000000000000000000, 1.000000000000000000, -0.000000000000000000 ) ) ;
#662 = DIRECTION ( 'NONE',  ( -0.000000000000000000, 1.000000000000000000, -0.000000000000000000 ) ) ;
#663 = ORIENTED_EDGE ( 'NONE', *, *, #522, .T. ) ;
#664 = CARTESIAN_POINT ( 'NONE',  ( 29.50000000000001066, 0.000000000000000000, 17.50000000000000000 ) ) ;
#665 = LINE ( 'NONE', #83, #1061 ) ;
#666 = EDGE_CURVE ( 'NONE', #1049, #1063, #646, .T. ) ;
#667 = PRODUCT_DEFINITION_FORMATION_WITH_SPECIFIED_SOURCE ( 'ä»', '', #570, .NOT_KNOWN. ) ;
#668 = AXIS2_PLACEMENT_3D ( 'NONE', #781, #951, #555 ) ;
#669 = FACE_OUTER_BOUND ( 'NONE', #382, .T. ) ;
#670 = ORIENTED_EDGE ( 'NONE', *, *, #514, .F. ) ;
#671 = AXIS2_PLACEMENT_3D ( 'NONE', #839, #319, #715 ) ;
#672 = DIRECTION ( 'NONE',  ( 0.000000000000000000, 0.000000000000000000, 1.000000000000000000 ) ) ;
#673 = AXIS2_PLACEMENT_3D ( 'NONE', #867, #773, #568 ) ;
#674 = EDGE_CURVE ( 'NONE', #53, #865, #351, .T. ) ;
#675 = EDGE_CURVE ( 'NONE', #1125, #1065, #454, .T. ) ;
#676 = DIRECTION ( 'NONE',  ( 0.000000000000000000, 1.000000000000000000, 0.000000000000000000 ) ) ;
#677 = EDGE_LOOP ( 'NONE', ( #1166, #649, #227, #517 ) ) ;
#678 = FACE_OUTER_BOUND ( 'NONE', #976, .T. ) ;
#679 = CC_DESIGN_DATE_AND_TIME_ASSIGNMENT ( #946, #845, ( #67 ) ) ;
#680 = VECTOR ( 'NONE', #661, 1000.000000000000000 ) ;
#681 = ORIENTED_EDGE ( 'NONE', *, *, #5, .F. ) ;
#682 = EDGE_LOOP ( 'NONE', ( #805, #598 ) ) ;
#683 = DIRECTION ( 'NONE',  ( 0.000000000000000000, 0.000000000000000000, 1.000000000000000000 ) ) ;
#684 = CARTESIAN_POINT ( 'NONE',  ( 32.49999999999999289, 3.000000000000000000, -14.50000000000000355 ) ) ;
#685 = LINE ( 'NONE', #1170, #843 ) ;
#686 = FACE_OUTER_BOUND ( 'NONE', #1092, .T. ) ;
#687 = LOCAL_TIME ( 19, 44, 15.00000000000000000, #162 ) ;
#688 = CIRCLE ( 'NONE', #295, 1.500000000000001332 ) ;
#689 = ORIENTED_EDGE ( 'NONE', *, *, #192, .T. ) ;
#690 = ORIENTED_EDGE ( 'NONE', *, *, #444, .T. ) ;
#691 = ADVANCED_FACE ( 'NONE', ( #963 ), #1136, .F. ) ;
#692 = DIRECTION ( 'NONE',  ( 0.000000000000000000, 0.000000000000000000, 1.000000000000000000 ) ) ;
#693 = LINE ( 'NONE', #201, #157 ) ;
#694 = CARTESIAN_POINT ( 'NONE',  ( -30.00000000000000000, 0.000000000000000000, -16.50000000000000000 ) ) ;
#695 = ORIENTED_EDGE ( 'NONE', *, *, #36, .T. ) ;
#696 = CARTESIAN_POINT ( 'NONE',  ( 29.50000000000001066, 3.000000000000000000, 17.50000000000000000 ) ) ;
#697 = ADVANCED_FACE ( 'NONE', ( #1056 ), #185, .T. ) ;
#698 = FACE_OUTER_BOUND ( 'NONE', #851, .T. ) ;
#699 = DIRECTION ( 'NONE',  ( -0.000000000000000000, 1.000000000000000000, -0.000000000000000000 ) ) ;
#700 = VERTEX_POINT ( 'NONE', #958 ) ;
#701 = AXIS2_PLACEMENT_3D ( 'NONE', #371, #650, #949 ) ;
#702 = CARTESIAN_POINT ( 'NONE',  ( -15.00000000000000000, 3.000000000000000000, 0.000000000000000000 ) ) ;
#703 = FACE_BOUND ( 'NONE', #6, .T. ) ;
#704 = DIRECTION ( 'NONE',  ( 0.000000000000000000, 0.000000000000000000, 1.000000000000000000 ) ) ;
#705 = EDGE_CURVE ( 'NONE', #1144, #903, #1258, .T. ) ;
#706 = ORIENTED_EDGE ( 'NONE', *, *, #99, .T. ) ;
#707 = DIRECTION ( 'NONE',  ( 0.000000000000000000, 0.000000000000000000, 1.000000000000000000 ) ) ;
#708 = DIRECTION ( 'NONE',  ( -0.000000000000000000, 1.000000000000000000, -0.000000000000000000 ) ) ;
#709 = CARTESIAN_POINT ( 'NONE',  ( -15.00000000000000000, 0.000000000000000000, 13.49999999999999822 ) ) ;
#710 = CIRCLE ( 'NONE', #671, 1.500000000000001332 ) ;
#711 = EDGE_CURVE ( 'NONE', #937, #544, #665, .T. ) ;
#712 = ORIENTED_EDGE ( 'NONE', *, *, #1011, .F. ) ;
#713 = PLANE ( 'NONE',  #470 ) ;
#714 = DIRECTION ( 'NONE',  ( -0.000000000000000000, -1.000000000000000000, -0.000000000000000000 ) ) ;
#715 = DIRECTION ( 'NONE',  ( 0.000000000000000000, 0.000000000000000000, 1.000000000000000000 ) ) ;
#716 = ORIENTED_EDGE ( 'NONE', *, *, #711, .T. ) ;
#717 = VECTOR ( 'NONE', #195, 1000.000000000000000 ) ;
#718 = CARTESIAN_POINT ( 'NONE',  ( -15.00000000000000000, -7.000000000000000000, 15.00000000000000000 ) ) ;
#719 = ORIENTED_EDGE ( 'NONE', *, *, #1029, .F. ) ;
#720 = AXIS2_PLACEMENT_3D ( 'NONE', #654, #948, #861 ) ;
#721 = DIRECTION ( 'NONE',  ( 0.000000000000000000, 0.000000000000000000, -1.000000000000000000 ) ) ;
#722 = CARTESIAN_POINT ( 'NONE',  ( -30.00000000000000000, 0.000000000000000000, -1.500000000000000666 ) ) ;
#723 = ORIENTED_EDGE ( 'NONE', *, *, #675, .T. ) ;
#724 = DIRECTION ( 'NONE',  ( -1.982541115402065110E-16, 0.000000000000000000, -1.000000000000000000 ) ) ;
#725 = VERTEX_POINT ( 'NONE', #75 ) ;
#726 = APPLICATION_PROTOCOL_DEFINITION ( 'international standard', 'config_control_design', 1994, #856 ) ;
#727 = DIRECTION ( 'NONE',  ( 0.000000000000000000, 0.000000000000000000, 1.000000000000000000 ) ) ;
#728 = APPROVAL_PERSON_ORGANIZATION ( #425, #97, #332 ) ;
#729 = EDGE_CURVE ( 'NONE', #1049, #613, #1157, .T. ) ;
#730 = DIRECTION ( 'NONE',  ( -0.000000000000000000, 1.000000000000000000, -0.000000000000000000 ) ) ;
#731 = ORIENTED_EDGE ( 'NONE', *, *, #284, .T. ) ;
#732 = CIRCLE ( 'NONE', #279, 1.500000000000001332 ) ;
#733 = CARTESIAN_POINT ( 'NONE',  ( -32.50000000000000711, 0.000000000000000000, -17.50000000000000000 ) ) ;
#734 = ORIENTED_EDGE ( 'NONE', *, *, #782, .T. ) ;
#735 = CARTESIAN_POINT ( 'NONE',  ( 30.00000000000000000, -7.000000000000000000, 15.00000000000000000 ) ) ;
#736 = EDGE_CURVE ( 'NONE', #1101, #103, #854, .T. ) ;
#737 = PLANE ( 'NONE',  #214 ) ;
#738 = EDGE_LOOP ( 'NONE', ( #998, #65, #706, #116 ) ) ;
#739 = DIRECTION ( 'NONE',  ( -0.000000000000000000, 1.000000000000000000, -0.000000000000000000 ) ) ;
#740 = ORIENTED_EDGE ( 'NONE', *, *, #433, .F. ) ;
#741 = PERSON_AND_ORGANIZATION_ROLE ( 'creator' ) ;
#742 = DIRECTION ( 'NONE',  ( 0.000000000000000000, 0.000000000000000000, 1.000000000000000000 ) ) ;
#743 = CARTESIAN_POINT ( 'NONE',  ( -29.50000000000000711, 3.000000000000000000, -17.50000000000000000 ) ) ;
#744 = ADVANCED_FACE ( 'NONE', ( #1060 ), #474, .F. ) ;
#745 = EDGE_LOOP ( 'NONE', ( #198, #94, #576, #965 ) ) ;
#746 = CARTESIAN_POINT ( 'NONE',  ( 30.00000000000000000, -7.000000000000000000, -1.499999999999997335 ) ) ;
#747 = ORIENTED_EDGE ( 'NONE', *, *, #329, .T. ) ;
#748 = CALENDAR_DATE ( 2026, 8, 5 ) ;
#749 = DIRECTION ( 'NONE',  ( 0.000000000000000000, 0.000000000000000000, 1.000000000000000000 ) ) ;
#750 = DIRECTION ( 'NONE',  ( 0.000000000000000000, 0.000000000000000000, 1.000000000000000000 ) ) ;
#751 = CIRCLE ( 'NONE', #521, 1.500000000000001332 ) ;
#752 = EDGE_CURVE ( 'NONE', #1214, #920, #617, .T. ) ;
#753 = DIRECTION ( 'NONE',  ( 0.000000000000000000, 1.000000000000000000, 0.000000000000000000 ) ) ;
#754 = VERTEX_POINT ( 'NONE', #363 ) ;
#755 = DATE_AND_TIME ( #1201, #687 ) ;
#756 = DIRECTION ( 'NONE',  ( 0.000000000000000000, 1.000000000000000000, 0.000000000000000000 ) ) ;
#757 = DIRECTION ( 'NONE',  ( 0.000000000000000000, 0.000000000000000000, 1.000000000000000000 ) ) ;
#758 = AXIS2_PLACEMENT_3D ( 'NONE', #186, #160, #575 ) ;
#759 = DIRECTION ( 'NONE',  ( 0.000000000000000000, 1.000000000000000000, 0.000000000000000000 ) ) ;
#760 = ORIENTED_EDGE ( 'NONE', *, *, #91, .T. ) ;
#761 = DIRECTION ( 'NONE',  ( -0.000000000000000000, 1.000000000000000000, -0.000000000000000000 ) ) ;
#762 = DIRECTION ( 'NONE',  ( 0.000000000000000000, 1.000000000000000000, 0.000000000000000000 ) ) ;
#763 = AXIS2_PLACEMENT_3D ( 'NONE', #812, #999, #317 ) ;
#764 = CARTESIAN_POINT ( 'NONE',  ( -30.00000000000000000, 3.000000000000000000, 16.50000000000000000 ) ) ;
#765 = EDGE_LOOP ( 'NONE', ( #922, #1216, #299, #27 ) ) ;
#766 = CARTESIAN_POINT ( 'NONE',  ( -30.00000000000000000, 3.000000000000000000, -1.500000000000000666 ) ) ;
#767 = ADVANCED_FACE ( 'NONE', ( #1246 ), #1237, .F. ) ;
#768 = CC_DESIGN_APPROVAL ( #97, ( #667 ) ) ;
#769 = AXIS2_PLACEMENT_3D ( 'NONE', #25, #434, #250 ) ;
#770 = FACE_BOUND ( 'NONE', #870, .T. ) ;
#771 = ORIENTED_EDGE ( 'NONE', *, *, #366, .F. ) ;
#772 = VECTOR ( 'NONE', #932, 1000.000000000000000 ) ;
#773 = DIRECTION ( 'NONE',  ( 0.000000000000000000, 1.000000000000000000, 0.000000000000000000 ) ) ;
#774 = VECTOR ( 'NONE', #1175, 1000.000000000000000 ) ;
#775 = EDGE_LOOP ( 'NONE', ( #969, #136, #817, #35 ) ) ;
#776 = ORIENTED_EDGE ( 'NONE', *, *, #1148, .F. ) ;
#777 = CARTESIAN_POINT ( 'NONE',  ( -15.00000000000000000, 3.000000000000000000, -16.50000000000000000 ) ) ;
#778 = AXIS2_PLACEMENT_3D ( 'NONE', #409, #1189, #991 ) ;
#779 = VECTOR ( 'NONE', #662, 1000.000000000000000 ) ;
#780 = VECTOR ( 'NONE', #1124, 1000.000000000000000 ) ;
#781 = CARTESIAN_POINT ( 'NONE',  ( 30.00000000000000000, -7.000000000000000000, -15.00000000000000000 ) ) ;
#782 = EDGE_CURVE ( 'NONE', #844, #1119, #1098, .T. ) ;
#783 = ORIENTED_EDGE ( 'NONE', *, *, #616, .F. ) ;
#784 = EDGE_LOOP ( 'NONE', ( #723, #873 ) ) ;
#785 = CARTESIAN_POINT ( 'NONE',  ( -32.50000000000000711, 3.000000000000000000, -17.50000000000000000 ) ) ;
#786 = CC_DESIGN_PERSON_AND_ORGANIZATION_ASSIGNMENT ( #1114, #623, ( #125 ) ) ;
#787 = CARTESIAN_POINT ( 'NONE',  ( -30.00000000000000000, -7.000000000000000000, -13.49999999999999822 ) ) ;
#788 = ADVANCED_BREP_SHAPE_REPRESENTATION ( '\X2\5e95677f8fde63a54ef6\X0\2', ( #134, #1005 ), #396 ) ;
#789 = CARTESIAN_POINT ( 'NONE',  ( 32.50000000000000711, 0.000000000000000000, 14.49999999999999822 ) ) ;
#790 = EDGE_CURVE ( 'NONE', #184, #496, #327, .T. ) ;
#791 = AXIS2_PLACEMENT_3D ( 'NONE', #196, #761, #269 ) ;
#792 = AXIS2_PLACEMENT_3D ( 'NONE', #923, #818, #228 ) ;
#793 = ORIENTED_EDGE ( 'NONE', *, *, #972, .F. ) ;
#794 = ORIENTED_EDGE ( 'NONE', *, *, #465, .T. ) ;
#795 = CYLINDRICAL_SURFACE ( 'NONE', #445, 1.500000000000001332 ) ;
#796 = DIRECTION ( 'NONE',  ( 0.000000000000000000, 0.000000000000000000, -1.000000000000000000 ) ) ;
#797 = DIRECTION ( 'NONE',  ( -0.000000000000000000, 1.000000000000000000, -0.000000000000000000 ) ) ;
#798 = DIRECTION ( 'NONE',  ( -0.000000000000000000, 1.000000000000000000, -0.000000000000000000 ) ) ;
#799 = VERTEX_POINT ( 'NONE', #1052 ) ;
#800 = ORIENTED_EDGE ( 'NONE', *, *, #43, .F. ) ;
#801 = CARTESIAN_POINT ( 'NONE',  ( -32.50000000000000711, 0.000000000000000000, -17.50000000000000000 ) ) ;
#802 = EDGE_CURVE ( 'NONE', #1160, #628, #569, .T. ) ;
#803 = CARTESIAN_POINT ( 'NONE',  ( -15.00000000000000000, 0.000000000000000000, 16.50000000000000000 ) ) ;
#804 = ORIENTED_EDGE ( 'NONE', *, *, #1029, .T. ) ;
#805 = ORIENTED_EDGE ( 'NONE', *, *, #433, .T. ) ;
#806 = CARTESIAN_POINT ( 'NONE',  ( -30.00000000000000000, 0.000000000000000000, -13.49999999999999822 ) ) ;
#807 = EDGE_CURVE ( 'NONE', #390, #422, #8, .T. ) ;
#808 = DIRECTION ( 'NONE',  ( 0.000000000000000000, 0.000000000000000000, 1.000000000000000000 ) ) ;
#809 = DIRECTION ( 'NONE',  ( 0.000000000000000000, -1.000000000000000000, 0.000000000000000000 ) ) ;
#810 = ORIENTED_EDGE ( 'NONE', *, *, #503, .F. ) ;
#811 = AXIS2_PLACEMENT_3D ( 'NONE', #1123, #222, #930 ) ;
#812 = CARTESIAN_POINT ( 'NONE',  ( -15.00000000000000000, 3.000000000000000000, 15.00000000000000000 ) ) ;
#813 = DIRECTION ( 'NONE',  ( 0.000000000000000000, 0.000000000000000000, 1.000000000000000000 ) ) ;
#814 =( NAMED_UNIT ( * ) SI_UNIT ( $, .STERADIAN. ) SOLID_ANGLE_UNIT ( ) );
#815 = EDGE_LOOP ( 'NONE', ( #829, #242, #906, #783 ) ) ;
#816 = CARTESIAN_POINT ( 'NONE',  ( 15.00000000000000000, -7.000000000000000000, -16.50000000000000000 ) ) ;
#817 = ORIENTED_EDGE ( 'NONE', *, *, #596, .F. ) ;
#818 = DIRECTION ( 'NONE',  ( 0.000000000000000000, 1.000000000000000000, 0.000000000000000000 ) ) ;
#819 = DIRECTION ( 'NONE',  ( 0.000000000000000000, 1.000000000000000000, 0.000000000000000000 ) ) ;
#820 = VERTEX_POINT ( 'NONE', #766 ) ;
#821 = EDGE_CURVE ( 'NONE', #613, #1049, #341, .T. ) ;
#822 = CARTESIAN_POINT ( 'NONE',  ( -32.50000000000000711, 3.000000000000000000, -17.50000000000000000 ) ) ;
#823 = ORIENTED_EDGE ( 'NONE', *, *, #590, .F. ) ;
#824 = CARTESIAN_POINT ( 'NONE',  ( 30.00000000000000000, 3.000000000000000000, 13.50000000000000178 ) ) ;
#825 = LINE ( 'NONE', #251, #1090 ) ;
#826 = ORIENTED_EDGE ( 'NONE', *, *, #43, .T. ) ;
#827 = ADVANCED_FACE ( 'NONE', ( #678 ), #1156, .F. ) ;
#828 = CARTESIAN_POINT ( 'NONE',  ( -30.00000000000000000, 3.000000000000000000, 0.000000000000000000 ) ) ;
#829 = ORIENTED_EDGE ( 'NONE', *, *, #444, .F. ) ;
#830 = DIRECTION ( 'NONE',  ( -0.000000000000000000, 1.000000000000000000, -0.000000000000000000 ) ) ;
#831 = DIRECTION ( 'NONE',  ( -0.000000000000000000, 1.000000000000000000, -0.000000000000000000 ) ) ;
#832 = ORIENTED_EDGE ( 'NONE', *, *, #863, .F. ) ;
#833 = AXIS2_PLACEMENT_3D ( 'NONE', #1012, #326, #419 ) ;
#834 = AXIS2_PLACEMENT_3D ( 'NONE', #886, #301, #683 ) ;
#835 = DIRECTION ( 'NONE',  ( 0.000000000000000000, 0.000000000000000000, 1.000000000000000000 ) ) ;
#836 = EDGE_LOOP ( 'NONE', ( #760, #1155 ) ) ;
#837 = DIRECTION ( 'NONE',  ( 0.000000000000000000, 0.000000000000000000, 1.000000000000000000 ) ) ;
#838 = DIRECTION ( 'NONE',  ( -0.000000000000000000, 1.000000000000000000, -0.000000000000000000 ) ) ;
#839 = CARTESIAN_POINT ( 'NONE',  ( -15.00000000000000000, 3.000000000000000000, -15.00000000000000000 ) ) ;
#840 = ADVANCED_FACE ( 'NONE', ( #200 ), #595, .F. ) ;
#841 = EDGE_LOOP ( 'NONE', ( #1220, #975 ) ) ;
#842 = DIRECTION ( 'NONE',  ( -0.000000000000000000, 1.000000000000000000, -0.000000000000000000 ) ) ;
#843 = VECTOR ( 'NONE', #1079, 1000.000000000000000 ) ;
#844 = VERTEX_POINT ( 'NONE', #806 ) ;
#845 = DATE_TIME_ROLE ( 'creation_date' ) ;
#846 = APPROVAL ( #1223, 'æœª' ) ;
#847 = DIRECTION ( 'NONE',  ( -0.000000000000000000, 1.000000000000000000, -0.000000000000000000 ) ) ;
#848 = LINE ( 'NONE', #50, #1188 ) ;
#849 = ADVANCED_FACE ( 'NONE', ( #90, #610, #995, #288, #499, #484, #1072, #703, #1066, #977, #1161, #583, #98 ), #971, .T. ) ;
#850 = PLANE ( 'NONE',  #61 ) ;
#851 = EDGE_LOOP ( 'NONE', ( #599, #161, #394, #159 ) ) ;
#852 = MECHANICAL_CONTEXT ( 'NONE', #856, 'mechanical' ) ;
#853 = CYLINDRICAL_SURFACE ( 'NONE', #44, 1.500000000000000666 ) ;
#854 = LINE ( 'NONE', #1242, #680 ) ;
#855 = CC_DESIGN_APPROVAL ( #158, ( #125 ) ) ;
#856 = APPLICATION_CONTEXT ( 'configuration controlled 3d designs of mechanical parts and assemblies' ) ;
#857 = AXIS2_PLACEMENT_3D ( 'NONE', #74, #1224, #1050 ) ;
#858 = DIRECTION ( 'NONE',  ( 0.000000000000000000, 0.000000000000000000, 1.000000000000000000 ) ) ;
#859 = ORIENTED_EDGE ( 'NONE', *, *, #1153, .T. ) ;
#860 = FACE_OUTER_BOUND ( 'NONE', #287, .T. ) ;
#861 = DIRECTION ( 'NONE',  ( 0.000000000000000000, 0.000000000000000000, 1.000000000000000000 ) ) ;
#862 = VECTOR ( 'NONE', #739, 1000.000000000000000 ) ;
#863 = EDGE_CURVE ( 'NONE', #1159, #1113, #992, .T. ) ;
#864 = FACE_BOUND ( 'NONE', #472, .T. ) ;
#865 = VERTEX_POINT ( 'NONE', #296 ) ;
#866 = EDGE_CURVE ( 'NONE', #235, #138, #732, .T. ) ;
#867 = CARTESIAN_POINT ( 'NONE',  ( -15.00000000000000000, 0.000000000000000000, 15.00000000000000000 ) ) ;
#868 = VECTOR ( 'NONE', #914, 1000.000000000000000 ) ;
#869 = CARTESIAN_POINT ( 'NONE',  ( -15.00000000000000000, -7.000000000000000000, 13.49999999999999822 ) ) ;
#870 = EDGE_LOOP ( 'NONE', ( #1021, #1253 ) ) ;
#871 = EDGE_CURVE ( 'NONE', #315, #103, #205, .T. ) ;
#872 = CARTESIAN_POINT ( 'NONE',  ( -15.00000000000000000, 3.000000000000000000, 0.000000000000000000 ) ) ;
#873 = ORIENTED_EDGE ( 'NONE', *, *, #1148, .T. ) ;
#874 = CARTESIAN_POINT ( 'NONE',  ( 30.00000000000000000, 0.000000000000000000, -15.00000000000000000 ) ) ;
#875 = ADVANCED_FACE ( 'NONE', ( #698 ), #795, .F. ) ;
#876 = DIRECTION ( 'NONE',  ( 0.000000000000000000, 0.000000000000000000, 1.000000000000000000 ) ) ;
#877 = ORIENTED_EDGE ( 'NONE', *, *, #985, .F. ) ;
#878 = ORIENTED_EDGE ( 'NONE', *, *, #82, .T. ) ;
#879 = CARTESIAN_POINT ( 'NONE',  ( 0.000000000000000000, 3.000000000000000000, 0.000000000000000000 ) ) ;
#880 = AXIS2_PLACEMENT_3D ( 'NONE', #611, #1163, #704 ) ;
#881 = DIRECTION ( 'NONE',  ( 0.000000000000000000, 0.000000000000000000, 1.000000000000000000 ) ) ;
#882 = AXIS2_PLACEMENT_3D ( 'NONE', #69, #1046, #672 ) ;
#883 = CARTESIAN_POINT ( 'NONE',  ( 15.00000000000000000, 0.000000000000000000, 0.000000000000000000 ) ) ;
#884 = ORIENTED_EDGE ( 'NONE', *, *, #790, .T. ) ;
#885 = DIRECTION ( 'NONE',  ( -0.000000000000000000, 1.000000000000000000, -0.000000000000000000 ) ) ;
#886 = CARTESIAN_POINT ( 'NONE',  ( -15.00000000000000000, -7.000000000000000000, 0.000000000000000000 ) ) ;
#887 =( NAMED_UNIT ( * ) PLANE_ANGLE_UNIT ( ) SI_UNIT ( $, .RADIAN. ) );
#888 = CARTESIAN_POINT ( 'NONE',  ( 15.00000000000000000, 3.000000000000000000, -13.49999999999999822 ) ) ;
#889 = CARTESIAN_POINT ( 'NONE',  ( 30.00000000000000000, -7.000000000000000000, 16.49999999999999645 ) ) ;
#890 = AXIS2_PLACEMENT_3D ( 'NONE', #1025, #18, #443 ) ;
#891 = ORIENTED_EDGE ( 'NONE', *, *, #537, .T. ) ;
#892 = LINE ( 'NONE', #696, #335 ) ;
#893 = DIRECTION ( 'NONE',  ( 0.000000000000000000, 1.000000000000000000, 0.000000000000000000 ) ) ;
#894 = FACE_OUTER_BOUND ( 'NONE', #745, .T. ) ;
#895 = CIRCLE ( 'NONE', #935, 1.499999999999997780 ) ;
#896 = ORIENTED_EDGE ( 'NONE', *, *, #866, .F. ) ;
#897 = ORIENTED_EDGE ( 'NONE', *, *, #34, .T. ) ;
#898 = ADVANCED_FACE ( 'NONE', ( #1077 ), #9, .F. ) ;
#899 = CARTESIAN_POINT ( 'NONE',  ( 32.49999999999999289, 3.000000000000000000, -14.50000000000000355 ) ) ;
#900 = CYLINDRICAL_SURFACE ( 'NONE', #283, 1.500000000000001332 ) ;
#901 = AXIS2_PLACEMENT_3D ( 'NONE', #574, #967, #464 ) ;
#902 = EDGE_LOOP ( 'NONE', ( #191, #130, #187, #328 ) ) ;
#903 = VERTEX_POINT ( 'NONE', #777 ) ;
#904 = DIRECTION ( 'NONE',  ( 3.965082230804130220E-16, 0.000000000000000000, 1.000000000000000000 ) ) ;
#905 = CARTESIAN_POINT ( 'NONE',  ( 15.00000000000000000, 0.000000000000000000, 16.50000000000000000 ) ) ;
#906 = ORIENTED_EDGE ( 'NONE', *, *, #1187, .T. ) ;
#907 = CIRCLE ( 'NONE', #1128, 2.999999999999999112 ) ;
#908 = DIRECTION ( 'NONE',  ( 0.000000000000000000, 1.000000000000000000, 0.000000000000000000 ) ) ;
#909 = ORIENTED_EDGE ( 'NONE', *, *, #284, .F. ) ;
#910 = CARTESIAN_POINT ( 'NONE',  ( -30.00000000000000000, 3.000000000000000000, 1.500000000000000666 ) ) ;
#911 = FACE_OUTER_BOUND ( 'NONE', #293, .T. ) ;
#912 = EDGE_CURVE ( 'NONE', #725, #1101, #404, .T. ) ;
#913 = ORIENTED_EDGE ( 'NONE', *, *, #212, .F. ) ;
#914 = DIRECTION ( 'NONE',  ( -0.000000000000000000, 1.000000000000000000, -0.000000000000000000 ) ) ;
#915 = ORIENTED_EDGE ( 'NONE', *, *, #960, .T. ) ;
#916 = DIRECTION ( 'NONE',  ( -0.000000000000000000, 1.000000000000000000, -0.000000000000000000 ) ) ;
#917 = AXIS2_PLACEMENT_3D ( 'NONE', #621, #926, #835 ) ;
#918 = DIRECTION ( 'NONE',  ( 1.000000000000000000, 0.000000000000000000, 0.000000000000000000 ) ) ;
#919 = EDGE_CURVE ( 'NONE', #962, #799, #895, .T. ) ;
#920 = VERTEX_POINT ( 'NONE', #210 ) ;
#921 = CARTESIAN_POINT ( 'NONE',  ( 30.00000000000000000, 3.000000000000000000, -16.49999999999999645 ) ) ;
#922 = ORIENTED_EDGE ( 'NONE', *, *, #612, .F. ) ;
#923 = CARTESIAN_POINT ( 'NONE',  ( 15.00000000000000000, 0.000000000000000000, -15.00000000000000000 ) ) ;
#924 = DIRECTION ( 'NONE',  ( 0.000000000000000000, 0.000000000000000000, 1.000000000000000000 ) ) ;
#925 = VERTEX_POINT ( 'NONE', #989 ) ;
#926 = DIRECTION ( 'NONE',  ( 0.000000000000000000, 1.000000000000000000, 0.000000000000000000 ) ) ;
#927 = VERTEX_POINT ( 'NONE', #113 ) ;
#928 = COORDINATED_UNIVERSAL_TIME_OFFSET ( 8, 0, .AHEAD. ) ;
#929 = EDGE_CURVE ( 'NONE', #554, #1264, #507, .T. ) ;
#930 = DIRECTION ( 'NONE',  ( 0.000000000000000000, 0.000000000000000000, 1.000000000000000000 ) ) ;
#931 = CC_DESIGN_SECURITY_CLASSIFICATION ( #125, ( #667 ) ) ;
#932 = DIRECTION ( 'NONE',  ( -0.000000000000000000, 1.000000000000000000, -0.000000000000000000 ) ) ;
#933 = ORIENTED_EDGE ( 'NONE', *, *, #110, .T. ) ;
#934 = CIRCLE ( 'NONE', #501, 1.499999999999997335 ) ;
#935 = AXIS2_PLACEMENT_3D ( 'NONE', #874, #306, #1084 ) ;
#936 = DIRECTION ( 'NONE',  ( 0.000000000000000000, 0.000000000000000000, 1.000000000000000000 ) ) ;
#937 = VERTEX_POINT ( 'NONE', #408 ) ;
#938 = APPROVAL_ROLE ( '' ) ;
#939 = DIRECTION ( 'NONE',  ( 0.000000000000000000, 0.000000000000000000, 1.000000000000000000 ) ) ;
#940 = ADVANCED_FACE ( 'NONE', ( #217 ), #1179, .T. ) ;
#941 = DIRECTION ( 'NONE',  ( 0.000000000000000000, 0.000000000000000000, 1.000000000000000000 ) ) ;
#942 = EDGE_LOOP ( 'NONE', ( #771, #913 ) ) ;
#943 = FACE_OUTER_BOUND ( 'NONE', #1192, .T. ) ;
#944 = CIRCLE ( 'NONE', #880, 2.999999999999999112 ) ;
#945 = ORIENTED_EDGE ( 'NONE', *, *, #802, .F. ) ;
#946 = DATE_AND_TIME ( #1032, #106 ) ;
#947 = CARTESIAN_POINT ( 'NONE',  ( 15.00000000000000000, -7.000000000000000000, 0.000000000000000000 ) ) ;
#948 = DIRECTION ( 'NONE',  ( 0.000000000000000000, 1.000000000000000000, 0.000000000000000000 ) ) ;
#949 = DIRECTION ( 'NONE',  ( 0.000000000000000000, 0.000000000000000000, 1.000000000000000000 ) ) ;
#950 = EDGE_LOOP ( 'NONE', ( #731, #878 ) ) ;
#951 = DIRECTION ( 'NONE',  ( -0.000000000000000000, 1.000000000000000000, -0.000000000000000000 ) ) ;
#952 = AXIS2_PLACEMENT_3D ( 'NONE', #209, #12, #707 ) ;
#953 = DIRECTION ( 'NONE',  ( -0.000000000000000000, 1.000000000000000000, -0.000000000000000000 ) ) ;
#954 = ADVANCED_FACE ( 'NONE', ( #1033 ), #325, .F. ) ;
#955 = FACE_BOUND ( 'NONE', #24, .T. ) ;
#956 = ORIENTED_EDGE ( 'NONE', *, *, #1139, .F. ) ;
#957 = DIRECTION ( 'NONE',  ( -0.000000000000000000, 1.000000000000000000, -0.000000000000000000 ) ) ;
#958 = CARTESIAN_POINT ( 'NONE',  ( 29.50000000000001066, 3.000000000000000000, 17.50000000000000000 ) ) ;
#959 = PRODUCT_DEFINITION_SHAPE ( 'NONE', 'NONE',  #67 ) ;
#960 = EDGE_CURVE ( 'NONE', #1178, #388, #751, .T. ) ;
#961 = FACE_BOUND ( 'NONE', #400, .T. ) ;
#962 = VERTEX_POINT ( 'NONE', #318 ) ;
#963 = FACE_OUTER_BOUND ( 'NONE', #519, .T. ) ;
#964 = CIRCLE ( 'NONE', #763, 1.500000000000001332 ) ;
#965 = ORIENTED_EDGE ( 'NONE', *, *, #366, .T. ) ;
#966 = EDGE_CURVE ( 'NONE', #1065, #138, #31, .T. ) ;
#967 = DIRECTION ( 'NONE',  ( 0.000000000000000000, -1.000000000000000000, 0.000000000000000000 ) ) ;
#968 = VECTOR ( 'NONE', #838, 1000.000000000000000 ) ;
#969 = ORIENTED_EDGE ( 'NONE', *, *, #403, .T. ) ;
#970 = VERTEX_POINT ( 'NONE', #418 ) ;
#971 = PLANE ( 'NONE',  #550 ) ;
#972 = EDGE_CURVE ( 'NONE', #628, #1160, #1006, .T. ) ;
#973 = DIRECTION ( 'NONE',  ( -0.000000000000000000, 1.000000000000000000, -0.000000000000000000 ) ) ;
#974 = CARTESIAN_POINT ( 'NONE',  ( 29.49999999999999289, 3.000000000000000000, -14.50000000000000178 ) ) ;
#975 = ORIENTED_EDGE ( 'NONE', *, *, #960, .F. ) ;
#976 = EDGE_LOOP ( 'NONE', ( #432, #17, #897, #331 ) ) ;
#977 = FACE_BOUND ( 'NONE', #323, .T. ) ;
#978 = CARTESIAN_POINT ( 'NONE',  ( -15.00000000000000000, 0.000000000000000000, -16.50000000000000000 ) ) ;
#979 = DIRECTION ( 'NONE',  ( 0.000000000000000000, 0.000000000000000000, -1.000000000000000000 ) ) ;
#980 = VECTOR ( 'NONE', #1227, 1000.000000000000000 ) ;
#981 = ORIENTED_EDGE ( 'NONE', *, *, #238, .F. ) ;
#982 = ORIENTED_EDGE ( 'NONE', *, *, #494, .T. ) ;
#983 = DIRECTION ( 'NONE',  ( 0.000000000000000000, 1.000000000000000000, 0.000000000000000000 ) ) ;
#984 = CARTESIAN_POINT ( 'NONE',  ( 15.00000000000000000, 0.000000000000000000, 1.500000000000000666 ) ) ;
#985 = EDGE_CURVE ( 'NONE', #1119, #844, #688, .T. ) ;
#986 = CIRCLE ( 'NONE', #564, 1.500000000000001332 ) ;
#987 = ORIENTED_EDGE ( 'NONE', *, *, #612, .T. ) ;
#988 = LINE ( 'NONE', #1173, #1051 ) ;
#989 = CARTESIAN_POINT ( 'NONE',  ( -15.00000000000000000, 3.000000000000000000, 16.50000000000000000 ) ) ;
#990 = CIRCLE ( 'NONE', #442, 1.499999999999997780 ) ;
#991 = DIRECTION ( 'NONE',  ( 0.000000000000000000, 0.000000000000000000, 1.000000000000000000 ) ) ;
#992 = CIRCLE ( 'NONE', #1110, 2.999999999999999112 ) ;
#993 = ORIENTED_EDGE ( 'NONE', *, *, #441, .F. ) ;
#994 = ORIENTED_EDGE ( 'NONE', *, *, #465, .F. ) ;
#995 = FACE_BOUND ( 'NONE', #841, .T. ) ;
#996 = CARTESIAN_POINT ( 'NONE',  ( 30.00000000000000000, 0.000000000000000000, 0.000000000000000000 ) ) ;
#997 = AXIS2_PLACEMENT_3D ( 'NONE', #500, #405, #218 ) ;
#998 = ORIENTED_EDGE ( 'NONE', *, *, #373, .F. ) ;
#999 = DIRECTION ( 'NONE',  ( 0.000000000000000000, 1.000000000000000000, 0.000000000000000000 ) ) ;
#1000 = ORIENTED_EDGE ( 'NONE', *, *, #577, .F. ) ;
#1001 = DIRECTION ( 'NONE',  ( 0.000000000000000000, 1.000000000000000000, 0.000000000000000000 ) ) ;
#1002 = EDGE_CURVE ( 'NONE', #927, #1144, #1102, .T. ) ;
#1003 = DIRECTION ( 'NONE',  ( 0.000000000000000000, 0.000000000000000000, 1.000000000000000000 ) ) ;
#1004 = ORIENTED_EDGE ( 'NONE', *, *, #790, .F. ) ;
#1005 = AXIS2_PLACEMENT_3D ( 'NONE', #402, #837, #236 ) ;
#1006 = CIRCLE ( 'NONE', #811, 1.500000000000001332 ) ;
#1007 = CARTESIAN_POINT ( 'NONE',  ( 15.00000000000000000, 0.000000000000000000, 0.000000000000000000 ) ) ;
#1008 = ORIENTED_EDGE ( 'NONE', *, *, #871, .F. ) ;
#1009 = DATE_AND_TIME ( #30, #274 ) ;
#1010 = DIRECTION ( 'NONE',  ( 0.000000000000000000, 0.000000000000000000, 1.000000000000000000 ) ) ;
#1011 = EDGE_CURVE ( 'NONE', #1013, #144, #193, .T. ) ;
#1012 = CARTESIAN_POINT ( 'NONE',  ( 30.00000000000000000, 3.000000000000000000, -15.00000000000000000 ) ) ;
#1013 = VERTEX_POINT ( 'NONE', #49 ) ;
#1014 = FACE_OUTER_BOUND ( 'NONE', #1132, .T. ) ;
#1015 = ORIENTED_EDGE ( 'NONE', *, *, #1247, .T. ) ;
#1016 = PERSON_AND_ORGANIZATION ( #1115, #1146 ) ;
#1017 = FACE_OUTER_BOUND ( 'NONE', #587, .T. ) ;
#1018 = AXIS2_PLACEMENT_3D ( 'NONE', #828, #121, #416 ) ;
#1019 = LINE ( 'NONE', #619, #316 ) ;
#1020 = EDGE_CURVE ( 'NONE', #725, #754, #907, .T. ) ;
#1021 = ORIENTED_EDGE ( 'NONE', *, *, #919, .T. ) ;
#1022 = AXIS2_PLACEMENT_3D ( 'NONE', #80, #759, #559 ) ;
#1023 = CARTESIAN_POINT ( 'NONE',  ( -15.00000000000000000, -7.000000000000000000, 1.500000000000000666 ) ) ;
#1024 = ORIENTED_EDGE ( 'NONE', *, *, #571, .T. ) ;
#1025 = CARTESIAN_POINT ( 'NONE',  ( -29.50000000000000355, 3.000000000000000000, 14.50000000000000178 ) ) ;
#1026 = CARTESIAN_POINT ( 'NONE',  ( -32.50000000000000711, 3.000000000000000000, -14.50000000000000178 ) ) ;
#1027 = ADVANCED_FACE ( 'NONE', ( #534 ), #426, .F. ) ;
#1028 = EDGE_LOOP ( 'NONE', ( #776, #1167, #933, #55 ) ) ;
#1029 = EDGE_CURVE ( 'NONE', #103, #115, #126, .T. ) ;
#1030 = LINE ( 'NONE', #816, #868 ) ;
#1031 = EDGE_LOOP ( 'NONE', ( #410, #219 ) ) ;
#1032 = CALENDAR_DATE ( 2026, 8, 5 ) ;
#1033 = FACE_OUTER_BOUND ( 'NONE', #1151, .T. ) ;
#1034 = LINE ( 'NONE', #743, #780 ) ;
#1035 = EDGE_LOOP ( 'NONE', ( #510, #690 ) ) ;
#1036 = AXIS2_PLACEMENT_3D ( 'NONE', #627, #1203, #446 ) ;
#1037 = LINE ( 'NONE', #869, #1255 ) ;
#1038 = VERTEX_POINT ( 'NONE', #824 ) ;
#1039 = PERSON_AND_ORGANIZATION ( #1115, #1146 ) ;
#1040 = CARTESIAN_POINT ( 'NONE',  ( -29.50000000000000355, 0.000000000000000000, 17.50000000000000000 ) ) ;
#1041 = DIRECTION ( 'NONE',  ( 0.000000000000000000, 0.000000000000000000, 1.000000000000000000 ) ) ;
#1042 = FACE_BOUND ( 'NONE', #152, .T. ) ;
#1043 = VECTOR ( 'NONE', #584, 1000.000000000000000 ) ;
#1044 = ORIENTED_EDGE ( 'NONE', *, *, #5, .T. ) ;
#1045 = CARTESIAN_POINT ( 'NONE',  ( 15.00000000000000000, -7.000000000000000000, 16.50000000000000000 ) ) ;
#1046 = DIRECTION ( 'NONE',  ( -0.000000000000000000, 1.000000000000000000, -0.000000000000000000 ) ) ;
#1047 = EDGE_CURVE ( 'NONE', #482, #11, #1147, .T. ) ;
#1048 = FACE_BOUND ( 'NONE', #467, .T. ) ;
#1049 = VERTEX_POINT ( 'NONE', #1095 ) ;
#1050 = DIRECTION ( 'NONE',  ( 0.000000000000000000, 0.000000000000000000, 1.000000000000000000 ) ) ;
#1051 = VECTOR ( 'NONE', #305, 1000.000000000000000 ) ;
#1052 = CARTESIAN_POINT ( 'NONE',  ( 30.00000000000000000, 0.000000000000000000, -16.49999999999999645 ) ) ;
#1053 = ADVANCED_FACE ( 'NONE', ( #1017 ), #123, .F. ) ;
#1054 = LINE ( 'NONE', #746, #779 ) ;
#1055 = ORIENTED_EDGE ( 'NONE', *, *, #711, .F. ) ;
#1056 = FACE_OUTER_BOUND ( 'NONE', #273, .T. ) ;
#1057 = EDGE_CURVE ( 'NONE', #927, #481, #986, .T. ) ;
#1058 = CARTESIAN_POINT ( 'NONE',  ( -32.50000000000000711, 3.000000000000000000, -14.50000000000000178 ) ) ;
#1059 = ORIENTED_EDGE ( 'NONE', *, *, #1168, .F. ) ;
#1060 = FACE_OUTER_BOUND ( 'NONE', #1074, .T. ) ;
#1061 = VECTOR ( 'NONE', #179, 1000.000000000000000 ) ;
#1062 = CC_DESIGN_PERSON_AND_ORGANIZATION_ASSIGNMENT ( #131, #48, ( #667 ) ) ;
#1063 = VERTEX_POINT ( 'NONE', #910 ) ;
#1064 = EDGE_CURVE ( 'NONE', #1198, #77, #1182, .T. ) ;
#1065 = VERTEX_POINT ( 'NONE', #632 ) ;
#1066 = FACE_BOUND ( 'NONE', #530, .T. ) ;
#1067 = CARTESIAN_POINT ( 'NONE',  ( -32.50000000000000711, 3.000000000000000000, -17.50000000000000000 ) ) ;
#1068 = CIRCLE ( 'NONE', #857, 1.500000000000001332 ) ;
#1069 = CYLINDRICAL_SURFACE ( 'NONE', #648, 2.999999999999999112 ) ;
#1070 = ORIENTED_EDGE ( 'NONE', *, *, #403, .F. ) ;
#1071 = VERTEX_POINT ( 'NONE', #624 ) ;
#1072 = FACE_BOUND ( 'NONE', #22, .T. ) ;
#1073 = CARTESIAN_POINT ( 'NONE',  ( -15.00000000000000000, -7.000000000000000000, -1.500000000000000666 ) ) ;
#1074 = EDGE_LOOP ( 'NONE', ( #681, #1082, #253, #1076 ) ) ;
#1075 = CIRCLE ( 'NONE', #1172, 1.500000000000001332 ) ;
#1076 = ORIENTED_EDGE ( 'NONE', *, *, #229, .T. ) ;
#1077 = FACE_OUTER_BOUND ( 'NONE', #354, .T. ) ;
#1078 = EDGE_CURVE ( 'NONE', #1125, #235, #132, .T. ) ;
#1079 = DIRECTION ( 'NONE',  ( -0.000000000000000000, 1.000000000000000000, -0.000000000000000000 ) ) ;
#1080 = AXIS2_PLACEMENT_3D ( 'NONE', #46, #37, #438 ) ;
#1081 = FACE_OUTER_BOUND ( 'NONE', #775, .T. ) ;
#1082 = ORIENTED_EDGE ( 'NONE', *, *, #729, .F. ) ;
#1083 = DIRECTION ( 'NONE',  ( 0.000000000000000000, 0.000000000000000000, 1.000000000000000000 ) ) ;
#1084 = DIRECTION ( 'NONE',  ( 0.000000000000000000, 0.000000000000000000, 1.000000000000000000 ) ) ;
#1085 = ADVANCED_FACE ( 'NONE', ( #638 ), #148, .F. ) ;
#1086 = CARTESIAN_POINT ( 'NONE',  ( 30.00000000000000000, 3.000000000000000000, -1.499999999999997335 ) ) ;
#1087 = VERTEX_POINT ( 'NONE', #1261 ) ;
#1088 = VERTEX_POINT ( 'NONE', #362 ) ;
#1089 = DIRECTION ( 'NONE',  ( 0.000000000000000000, 0.000000000000000000, 1.000000000000000000 ) ) ;
#1090 = VECTOR ( 'NONE', #831, 1000.000000000000000 ) ;
#1091 = DIRECTION ( 'NONE',  ( 0.000000000000000000, 0.000000000000000000, 1.000000000000000000 ) ) ;
#1092 = EDGE_LOOP ( 'NONE', ( #1244, #304, #582, #1055 ) ) ;
#1093 = ADVANCED_FACE ( 'NONE', ( #1252 ), #57, .F. ) ;
#1094 = LINE ( 'NONE', #1023, #862 ) ;
#1095 = CARTESIAN_POINT ( 'NONE',  ( -30.00000000000000000, 0.000000000000000000, 1.500000000000000666 ) ) ;
#1096 = FACE_OUTER_BOUND ( 'NONE', #1138, .T. ) ;
#1097 = CIRCLE ( 'NONE', #1254, 1.499999999999997780 ) ;
#1098 = CIRCLE ( 'NONE', #558, 1.500000000000001332 ) ;
#1099 = ORIENTED_EDGE ( 'NONE', *, *, #378, .F. ) ;
#1100 = LINE ( 'NONE', #733, #588 ) ;
#1101 = VERTEX_POINT ( 'NONE', #263 ) ;
#1102 = LINE ( 'NONE', #340, #968 ) ;
#1103 = CARTESIAN_POINT ( 'NONE',  ( 29.50000000000000711, 3.000000000000000000, 14.49999999999999822 ) ) ;
#1104 = VERTEX_POINT ( 'NONE', #393 ) ;
#1105 = CIRCLE ( 'NONE', #3, 1.500000000000000666 ) ;
#1106 = LINE ( 'NONE', #241, #483 ) ;
#1107 = VERTEX_POINT ( 'NONE', #1040 ) ;
#1108 = CARTESIAN_POINT ( 'NONE',  ( -30.00000000000000000, -7.000000000000000000, 13.49999999999999822 ) ) ;
#1109 = CARTESIAN_POINT ( 'NONE',  ( 30.00000000000000000, 3.000000000000000000, 0.000000000000000000 ) ) ;
#1110 = AXIS2_PLACEMENT_3D ( 'NONE', #491, #1265, #194 ) ;
#1111 = ORIENTED_EDGE ( 'NONE', *, *, #19, .F. ) ;
#1112 = CARTESIAN_POINT ( 'NONE',  ( -32.50000000000000000, 3.000000000000000000, 14.49999999999999822 ) ) ;
#1113 = VERTEX_POINT ( 'NONE', #664 ) ;
#1114 = PERSON_AND_ORGANIZATION ( #1115, #1146 ) ;
#1115 = PERSON ( 'æœª', 'æœª', 'æœª', ('æœª'), ('æœª'), ('æœª') ) ;
#1116 = DIRECTION ( 'NONE',  ( 0.000000000000000000, 0.000000000000000000, 1.000000000000000000 ) ) ;
#1117 = DIRECTION ( 'NONE',  ( 0.000000000000000000, 0.000000000000000000, 1.000000000000000000 ) ) ;
#1118 = EDGE_CURVE ( 'NONE', #1088, #925, #358, .T. ) ;
#1119 = VERTEX_POINT ( 'NONE', #694 ) ;
#1120 = LINE ( 'NONE', #247, #593 ) ;
#1121 = ORIENTED_EDGE ( 'NONE', *, *, #919, .F. ) ;
#1122 = PERSON_AND_ORGANIZATION ( #1115, #1146 ) ;
#1123 = CARTESIAN_POINT ( 'NONE',  ( 15.00000000000000000, 3.000000000000000000, 15.00000000000000000 ) ) ;
#1124 = DIRECTION ( 'NONE',  ( -0.000000000000000000, 1.000000000000000000, -0.000000000000000000 ) ) ;
#1125 = VERTEX_POINT ( 'NONE', #1135 ) ;
#1126 = FACE_BOUND ( 'NONE', #204, .T. ) ;
#1127 = ORIENTED_EDGE ( 'NONE', *, *, #343, .F. ) ;
#1128 = AXIS2_PLACEMENT_3D ( 'NONE', #140, #714, #727 ) ;
#1129 = DIRECTION ( 'NONE',  ( -0.000000000000000000, -1.000000000000000000, -0.000000000000000000 ) ) ;
#1130 = CARTESIAN_POINT ( 'NONE',  ( -30.00000000000000000, 0.000000000000000000, -15.00000000000000000 ) ) ;
#1131 = CARTESIAN_POINT ( 'NONE',  ( -15.00000000000000000, -7.000000000000000000, 15.00000000000000000 ) ) ;
#1132 = EDGE_LOOP ( 'NONE', ( #495, #376, #203, #956 ) ) ;
#1133 = SECURITY_CLASSIFICATION_LEVEL ( 'unclassified' ) ;
#1134 = EDGE_CURVE ( 'NONE', #1104, #1159, #298, .T. ) ;
#1135 = CARTESIAN_POINT ( 'NONE',  ( -30.00000000000000000, 0.000000000000000000, 16.50000000000000000 ) ) ;
#1136 = CYLINDRICAL_SURFACE ( 'NONE', #882, 1.500000000000001332 ) ;
#1137 = FACE_OUTER_BOUND ( 'NONE', #552, .T. ) ;
#1138 = EDGE_LOOP ( 'NONE', ( #1127, #1004, #1015, #395 ) ) ;
#1139 = EDGE_CURVE ( 'NONE', #406, #628, #178, .T. ) ;
#1140 = CARTESIAN_POINT ( 'NONE',  ( 15.00000000000000000, 3.000000000000000000, -16.50000000000000000 ) ) ;
#1141 = AXIS2_PLACEMENT_3D ( 'NONE', #1199, #411, #615 ) ;
#1142 = CARTESIAN_POINT ( 'NONE',  ( 30.00000000000000000, 0.000000000000000000, 15.00000000000000000 ) ) ;
#1143 = DIRECTION ( 'NONE',  ( -0.000000000000000000, 1.000000000000000000, -0.000000000000000000 ) ) ;
#1144 = VERTEX_POINT ( 'NONE', #172 ) ;
#1145 = CARTESIAN_POINT ( 'NONE',  ( -30.00000000000000000, 0.000000000000000000, 0.000000000000000000 ) ) ;
#1146 = ORGANIZATION ( 'æœª', 'æœª', '' ) ;
#1147 = CIRCLE ( 'NONE', #626, 1.499999999999997335 ) ;
#1148 = EDGE_CURVE ( 'NONE', #1065, #1125, #1068, .T. ) ;
#1149 = CARTESIAN_POINT ( 'NONE',  ( 15.00000000000000000, 0.000000000000000000, 15.00000000000000000 ) ) ;
#1150 = CIRCLE ( 'NONE', #1036, 1.499999999999997780 ) ;
#1151 = EDGE_LOOP ( 'NONE', ( #620, #1044, #826, #449 ) ) ;
#1152 = DIRECTION ( 'NONE',  ( 0.000000000000000000, 1.000000000000000000, 0.000000000000000000 ) ) ;
#1153 = EDGE_CURVE ( 'NONE', #544, #554, #460, .T. ) ;
#1154 = ORIENTED_EDGE ( 'NONE', *, *, #577, .T. ) ;
#1155 = ORIENTED_EDGE ( 'NONE', *, *, #1174, .T. ) ;
#1156 = CYLINDRICAL_SURFACE ( 'NONE', #607, 1.500000000000000666 ) ;
#1157 = CIRCLE ( 'NONE', #286, 1.500000000000000666 ) ;
#1158 = DIRECTION ( 'NONE',  ( 0.000000000000000000, 1.000000000000000000, 0.000000000000000000 ) ) ;
#1159 = VERTEX_POINT ( 'NONE', #789 ) ;
#1160 = VERTEX_POINT ( 'NONE', #367 ) ;
#1161 = FACE_BOUND ( 'NONE', #942, .T. ) ;
#1162 = LOCAL_TIME ( 19, 44, 15.00000000000000000, #644 ) ;
#1163 = DIRECTION ( 'NONE',  ( 0.000000000000000000, 1.000000000000000000, 0.000000000000000000 ) ) ;
#1164 = AXIS2_PLACEMENT_3D ( 'NONE', #356, #1129, #561 ) ;
#1165 = FACE_OUTER_BOUND ( 'NONE', #310, .T. ) ;
#1166 = ORIENTED_EDGE ( 'NONE', *, *, #966, .F. ) ;
#1167 = ORIENTED_EDGE ( 'NONE', *, *, #966, .T. ) ;
#1168 = EDGE_CURVE ( 'NONE', #84, #315, #73, .T. ) ;
#1169 = DIRECTION ( 'NONE',  ( -0.000000000000000000, 1.000000000000000000, -0.000000000000000000 ) ) ;
#1170 = CARTESIAN_POINT ( 'NONE',  ( 30.00000000000000000, -7.000000000000000000, -13.50000000000000178 ) ) ;
#1171 = ORIENTED_EDGE ( 'NONE', *, *, #164, .T. ) ;
#1172 = AXIS2_PLACEMENT_3D ( 'NONE', #525, #908, #234 ) ;
#1173 = CARTESIAN_POINT ( 'NONE',  ( 32.49999999999999289, 0.000000000000000000, -17.50000000000000000 ) ) ;
#1174 = EDGE_CURVE ( 'NONE', #1200, #439, #1105, .T. ) ;
#1175 = DIRECTION ( 'NONE',  ( 1.982541115402065110E-16, 0.000000000000000000, 1.000000000000000000 ) ) ;
#1176 = DIRECTION ( 'NONE',  ( 0.000000000000000000, 1.000000000000000000, 0.000000000000000000 ) ) ;
#1177 = EDGE_LOOP ( 'NONE', ( #539, #859, #1111, #360, #1070, #630, #197, #337 ) ) ;
#1178 = VERTEX_POINT ( 'NONE', #1140 ) ;
#1179 = CYLINDRICAL_SURFACE ( 'NONE', #254, 2.999999999999999112 ) ;
#1180 = DIRECTION ( 'NONE',  ( 0.000000000000000000, 1.000000000000000000, 0.000000000000000000 ) ) ;
#1181 = ADVANCED_FACE ( 'NONE', ( #1165 ), #163, .F. ) ;
#1182 = CIRCLE ( 'NONE', #792, 1.500000000000001332 ) ;
#1183 = DIRECTION ( 'NONE',  ( 0.000000000000000000, 0.000000000000000000, 1.000000000000000000 ) ) ;
#1184 = ORIENTED_EDGE ( 'NONE', *, *, #321, .T. ) ;
#1185 = CARTESIAN_POINT ( 'NONE',  ( -29.50000000000000711, 3.000000000000000000, -17.50000000000000000 ) ) ;
#1186 = CARTESIAN_POINT ( 'NONE',  ( -30.00000000000000000, -7.000000000000000000, 0.000000000000000000 ) ) ;
#1187 = EDGE_CURVE ( 'NONE', #352, #119, #177, .T. ) ;
#1188 = VECTOR ( 'NONE', #730, 1000.000000000000000 ) ;
#1189 = DIRECTION ( 'NONE',  ( 0.000000000000000000, 1.000000000000000000, 0.000000000000000000 ) ) ;
#1190 = DIRECTION ( 'NONE',  ( 0.000000000000000000, 1.000000000000000000, 0.000000000000000000 ) ) ;
#1191 = ADVANCED_FACE ( 'NONE', ( #487 ), #853, .F. ) ;
#1192 = EDGE_LOOP ( 'NONE', ( #546, #447, #215, #891 ) ) ;
#1193 = CARTESIAN_POINT ( 'NONE',  ( -29.50000000000000355, 3.000000000000000000, 17.50000000000000000 ) ) ;
#1194 = EDGE_LOOP ( 'NONE', ( #712, #38 ) ) ;
#1195 = DIRECTION ( 'NONE',  ( -0.000000000000000000, 1.000000000000000000, -0.000000000000000000 ) ) ;
#1196 = CARTESIAN_POINT ( 'NONE',  ( 32.49999999999999289, 0.000000000000000000, -14.50000000000000355 ) ) ;
#1197 = AXIS2_PLACEMENT_3D ( 'NONE', #10, #797, #1091 ) ;
#1198 = VERTEX_POINT ( 'NONE', #549 ) ;
#1199 = CARTESIAN_POINT ( 'NONE',  ( 15.00000000000000000, -7.000000000000000000, 15.00000000000000000 ) ) ;
#1200 = VERTEX_POINT ( 'NONE', #78 ) ;
#1201 = CALENDAR_DATE ( 2026, 8, 5 ) ;
#1202 = DIRECTION ( 'NONE',  ( 0.000000000000000000, 1.000000000000000000, 0.000000000000000000 ) ) ;
#1203 = DIRECTION ( 'NONE',  ( 0.000000000000000000, 1.000000000000000000, 0.000000000000000000 ) ) ;
#1204 = ORIENTED_EDGE ( 'NONE', *, *, #1247, .F. ) ;
#1205 = CIRCLE ( 'NONE', #952, 1.499999999999997780 ) ;
#1206 = CARTESIAN_POINT ( 'NONE',  ( -30.00000000000000000, 3.000000000000000000, 13.49999999999999822 ) ) ;
#1207 = ORIENTED_EDGE ( 'NONE', *, *, #912, .T. ) ;
#1208 = APPROVAL_DATE_TIME ( #440, #158 ) ;
#1209 = CARTESIAN_POINT ( 'NONE',  ( 30.00000000000000000, 0.000000000000000000, 0.000000000000000000 ) ) ;
#1210 = ADVANCED_FACE ( 'NONE', ( #860 ), #1236, .F. ) ;
#1211 = LINE ( 'NONE', #523, #772 ) ;
#1212 = AXIS2_PLACEMENT_3D ( 'NONE', #1103, #244, #941 ) ;
#1213 = AXIS2_PLACEMENT_3D ( 'NONE', #1142, #377, #165 ) ;
#1214 = VERTEX_POINT ( 'NONE', #468 ) ;
#1215 = DIRECTION ( 'NONE',  ( 0.000000000000000000, 1.000000000000000000, 0.000000000000000000 ) ) ;
#1216 = ORIENTED_EDGE ( 'NONE', *, *, #782, .F. ) ;
#1217 = DIRECTION ( 'NONE',  ( 0.000000000000000000, 0.000000000000000000, 1.000000000000000000 ) ) ;
#1218 = DIRECTION ( 'NONE',  ( 0.000000000000000000, -1.000000000000000000, 0.000000000000000000 ) ) ;
#1219 = VECTOR ( 'NONE', #973, 1000.000000000000000 ) ;
#1220 = ORIENTED_EDGE ( 'NONE', *, *, #1241, .F. ) ;
#1221 = AXIS2_PLACEMENT_3D ( 'NONE', #374, #1152, #757 ) ;
#1222 = FACE_BOUND ( 'NONE', #836, .T. ) ;
#1223 = APPROVAL_STATUS ( 'not_yet_approved' ) ;
#1224 = DIRECTION ( 'NONE',  ( 0.000000000000000000, 1.000000000000000000, 0.000000000000000000 ) ) ;
#1225 = DIRECTION ( 'NONE',  ( 0.000000000000000000, 0.000000000000000000, 1.000000000000000000 ) ) ;
#1226 = ADVANCED_FACE ( 'NONE', ( #686 ), #1069, .T. ) ;
#1227 = DIRECTION ( 'NONE',  ( -0.000000000000000000, 1.000000000000000000, -0.000000000000000000 ) ) ;
#1228 = ORIENTED_EDGE ( 'NONE', *, *, #596, .T. ) ;
#1229 = PERSON_AND_ORGANIZATION ( #1115, #1146 ) ;
#1230 = DIRECTION ( 'NONE',  ( -0.000000000000000000, 1.000000000000000000, -0.000000000000000000 ) ) ;
#1231 = CARTESIAN_POINT ( 'NONE',  ( -30.00000000000000000, -7.000000000000000000, 1.500000000000000666 ) ) ;
#1232 = CC_DESIGN_DATE_AND_TIME_ASSIGNMENT ( #153, #547, ( #125 ) ) ;
#1233 = EDGE_CURVE ( 'NONE', #77, #388, #4, .T. ) ;
#1234 = CYLINDRICAL_SURFACE ( 'NONE', #660, 2.999999999999999112 ) ;
#1235 = ORIENTED_EDGE ( 'NONE', *, *, #1241, .T. ) ;
#1236 = CYLINDRICAL_SURFACE ( 'NONE', #791, 1.500000000000001332 ) ;
#1237 = CYLINDRICAL_SURFACE ( 'NONE', #168, 1.500000000000001332 ) ;
#1238 = CIRCLE ( 'NONE', #368, 1.500000000000000666 ) ;
#1239 = DIRECTION ( 'NONE',  ( 0.000000000000000000, -0.000000000000000000, 1.000000000000000000 ) ) ;
#1240 = ORIENTED_EDGE ( 'NONE', *, *, #14, .F. ) ;
#1241 = EDGE_CURVE ( 'NONE', #388, #1178, #436, .T. ) ;
#1242 = CARTESIAN_POINT ( 'NONE',  ( -32.50000000000000000, 3.000000000000000000, 14.49999999999999822 ) ) ;
#1243 = DIRECTION ( 'NONE',  ( -0.000000000000000000, 1.000000000000000000, -0.000000000000000000 ) ) ;
#1244 = ORIENTED_EDGE ( 'NONE', *, *, #459, .F. ) ;
#1245 = EDGE_CURVE ( 'NONE', #970, #560, #543, .T. ) ;
#1246 = FACE_OUTER_BOUND ( 'NONE', #109, .T. ) ;
#1247 = EDGE_CURVE ( 'NONE', #184, #401, #493, .T. ) ;
#1248 = CIRCLE ( 'NONE', #111, 2.999999999999999112 ) ;
#1249 = ORIENTED_EDGE ( 'NONE', *, *, #117, .T. ) ;
#1250 = CC_DESIGN_PERSON_AND_ORGANIZATION_ASSIGNMENT ( #1122, #56, ( #570 ) ) ;
#1251 = DIRECTION ( 'NONE',  ( 0.000000000000000000, -0.000000000000000000, 1.000000000000000000 ) ) ;
#1252 = FACE_OUTER_BOUND ( 'NONE', #606, .T. ) ;
#1253 = ORIENTED_EDGE ( 'NONE', *, *, #557, .T. ) ;
#1254 = AXIS2_PLACEMENT_3D ( 'NONE', #297, #211, #604 ) ;
#1255 = VECTOR ( 'NONE', #1243, 1000.000000000000000 ) ;
#1256 = ORIENTED_EDGE ( 'NONE', *, *, #420, .F. ) ;
#1257 = DIRECTION ( 'NONE',  ( 0.000000000000000000, 0.000000000000000000, 1.000000000000000000 ) ) ;
#1258 = CIRCLE ( 'NONE', #720, 1.500000000000001332 ) ;
#1259 =( LENGTH_UNIT ( ) NAMED_UNIT ( * ) SI_UNIT ( .MILLI., .METRE. ) );
#1260 = CARTESIAN_POINT ( 'NONE',  ( -32.50000000000000000, 0.000000000000000000, 17.50000000000000000 ) ) ;
#1261 = CARTESIAN_POINT ( 'NONE',  ( 15.00000000000000000, 0.000000000000000000, 13.49999999999999822 ) ) ;
#1262 = ADVANCED_FACE ( 'NONE', ( #1081 ), #379, .F. ) ;
#1263 = ORIENTED_EDGE ( 'NONE', *, *, #473, .T. ) ;
#1264 = VERTEX_POINT ( 'NONE', #684 ) ;
#1265 = DIRECTION ( 'NONE',  ( -0.000000000000000000, -1.000000000000000000, -0.000000000000000000 ) ) ;
ENDSEC;
END-ISO-10303-21;
