ISO-10303-21;
HEADER;
FILE_DESCRIPTION (( 'STEP AP203' ),
    '1' );
FILE_NAME ('µ×°åÁ¬½Ó¼þ1.STEP',
    '2026-05-08T11:36:59',
    ( '' ),
    ( '' ),
    'SwSTEP 2.0',
    'SolidWorks 2025',
    '' );
FILE_SCHEMA (( 'CONFIG_CONTROL_DESIGN' ));
ENDSEC;

DATA;
#1 = ORIENTED_EDGE ( 'NONE', *, *, #351, .T. ) ;
#2 = AXIS2_PLACEMENT_3D ( 'NONE', #446, #35, #205 ) ;
#3 = VECTOR ( 'NONE', #61, 1000.000000000000000 ) ;
#4 = VERTEX_POINT ( 'NONE', #183 ) ;
#5 = APPROVAL_PERSON_ORGANIZATION ( #503, #177, #298 ) ;
#6 = APPROVAL_DATE_TIME ( #459, #177 ) ;
#7 = ORIENTED_EDGE ( 'NONE', *, *, #53, .T. ) ;
#8 = ADVANCED_FACE ( 'NONE', ( #95 ), #518, .F. ) ;
#9 = VERTEX_POINT ( 'NONE', #480 ) ;
#10 = VERTEX_POINT ( 'NONE', #57 ) ;
#11 = DIRECTION ( 'NONE',  ( 0.000000000000000000, 1.000000000000000000, 0.000000000000000000 ) ) ;
#12 = DIRECTION ( 'NONE',  ( 0.000000000000000000, 1.000000000000000000, 0.000000000000000000 ) ) ;
#13 = ADVANCED_FACE ( 'NONE', ( #101 ), #135, .F. ) ;
#14 = CYLINDRICAL_SURFACE ( 'NONE', #124, 1.500000000000000666 ) ;
#15 = DIRECTION ( 'NONE',  ( 0.000000000000000000, 0.000000000000000000, 1.000000000000000000 ) ) ;
#16 = VERTEX_POINT ( 'NONE', #478 ) ;
#17 = CARTESIAN_POINT ( 'NONE',  ( -30.00000000000000000, 0.000000000000000000, -4.000000000000000000 ) ) ;
#18 = DIRECTION ( 'NONE',  ( 0.000000000000000000, 1.000000000000000000, 0.000000000000000000 ) ) ;
#19 = FACE_BOUND ( 'NONE', #363, .T. ) ;
#20 = EDGE_CURVE ( 'NONE', #208, #46, #273, .T. ) ;
#21 = ORIENTED_EDGE ( 'NONE', *, *, #272, .T. ) ;
#22 = CARTESIAN_POINT ( 'NONE',  ( 15.00000000000000000, 3.000000000000000000, 1.500000000000000666 ) ) ;
#23 = AXIS2_PLACEMENT_3D ( 'NONE', #393, #227, #229 ) ;
#24 = DIRECTION ( 'NONE',  ( 0.000000000000000000, 0.000000000000000000, 1.000000000000000000 ) ) ;
#25 = DIRECTION ( 'NONE',  ( -0.000000000000000000, -1.000000000000000000, -0.000000000000000000 ) ) ;
#26 = CIRCLE ( 'NONE', #67, 1.499999999999997335 ) ;
#27 = LINE ( 'NONE', #329, #170 ) ;
#28 = CARTESIAN_POINT ( 'NONE',  ( 30.00000000000000000, 0.000000000000000000, 0.000000000000000000 ) ) ;
#29 = ORIENTED_EDGE ( 'NONE', *, *, #482, .F. ) ;
#30 = ORGANIZATION ( 'æœª', 'æœª', '' ) ;
#31 = CYLINDRICAL_SURFACE ( 'NONE', #327, 1.500000000000000666 ) ;
#32 = ORIENTED_EDGE ( 'NONE', *, *, #50, .F. ) ;
#33 = FACE_OUTER_BOUND ( 'NONE', #295, .T. ) ;
#34 = DIRECTION ( 'NONE',  ( 0.000000000000000000, 0.000000000000000000, 1.000000000000000000 ) ) ;
#35 = DIRECTION ( 'NONE',  ( 0.000000000000000000, 1.000000000000000000, 0.000000000000000000 ) ) ;
#36 = COORDINATED_UNIVERSAL_TIME_OFFSET ( 8, 0, .AHEAD. ) ;
#37 = ADVANCED_FACE ( 'NONE', ( #390 ), #14, .F. ) ;
#38 = CYLINDRICAL_SURFACE ( 'NONE', #378, 4.000000000000000000 ) ;
#39 = VERTEX_POINT ( 'NONE', #226 ) ;
#40 = CLOSED_SHELL ( 'NONE', ( #182, #449, #37, #8, #279, #371, #156, #342, #56, #301, #361, #13, #171, #215 ) ) ;
#41 = COORDINATED_UNIVERSAL_TIME_OFFSET ( 8, 0, .AHEAD. ) ;
#42 = ORIENTED_EDGE ( 'NONE', *, *, #106, .T. ) ;
#43 = CIRCLE ( 'NONE', #394, 1.500000000000000666 ) ;
#44 = SHAPE_DEFINITION_REPRESENTATION ( #181, #493 ) ;
#45 = ORIENTED_EDGE ( 'NONE', *, *, #486, .F. ) ;
#46 = VERTEX_POINT ( 'NONE', #397 ) ;
#47 = ORIENTED_EDGE ( 'NONE', *, *, #150, .F. ) ;
#48 = DIRECTION ( 'NONE',  ( 0.000000000000000000, 1.000000000000000000, 0.000000000000000000 ) ) ;
#49 = DIRECTION ( 'NONE',  ( 0.000000000000000000, 1.000000000000000000, 0.000000000000000000 ) ) ;
#50 = EDGE_CURVE ( 'NONE', #10, #208, #428, .T. ) ;
#51 = ORIENTED_EDGE ( 'NONE', *, *, #100, .F. ) ;
#52 = FACE_OUTER_BOUND ( 'NONE', #344, .T. ) ;
#53 = EDGE_CURVE ( 'NONE', #4, #113, #455, .T. ) ;
#54 = FACE_BOUND ( 'NONE', #255, .T. ) ;
#55 = CARTESIAN_POINT ( 'NONE',  ( -15.00000000000000000, 3.000000000000000000, 0.000000000000000000 ) ) ;
#56 = ADVANCED_FACE ( 'NONE', ( #54, #224, #144, #522, #148 ), #392, .T. ) ;
#57 = CARTESIAN_POINT ( 'NONE',  ( -30.00000000000000000, 3.000000000000000000, -4.000000000000000000 ) ) ;
#58 = CARTESIAN_POINT ( 'NONE',  ( 30.00000000000000000, -7.000000000000000000, 0.000000000000000000 ) ) ;
#59 = ORIENTED_EDGE ( 'NONE', *, *, #285, .T. ) ;
#60 = CARTESIAN_POINT ( 'NONE',  ( 30.00000000000000000, 0.000000000000000000, 1.499999999999997335 ) ) ;
#61 = DIRECTION ( 'NONE',  ( -0.000000000000000000, 1.000000000000000000, -0.000000000000000000 ) ) ;
#62 = AXIS2_PLACEMENT_3D ( 'NONE', #352, #349, #435 ) ;
#63 = CARTESIAN_POINT ( 'NONE',  ( 15.00000000000000000, 0.000000000000000000, 0.000000000000000000 ) ) ;
#64 = CIRCLE ( 'NONE', #23, 1.500000000000000666 ) ;
#65 = DIRECTION ( 'NONE',  ( -0.000000000000000000, -1.000000000000000000, -0.000000000000000000 ) ) ;
#66 = CIRCLE ( 'NONE', #2, 1.499999999999997335 ) ;
#67 = AXIS2_PLACEMENT_3D ( 'NONE', #387, #11, #322 ) ;
#68 = EDGE_CURVE ( 'NONE', #39, #163, #309, .T. ) ;
#69 = FACE_OUTER_BOUND ( 'NONE', #83, .T. ) ;
#70 = APPROVAL_STATUS ( 'not_yet_approved' ) ;
#71 = CC_DESIGN_APPROVAL ( #297, ( #466 ) ) ;
#72 = EDGE_CURVE ( 'NONE', #16, #318, #26, .T. ) ;
#73 = LINE ( 'NONE', #452, #140 ) ;
#74 = CARTESIAN_POINT ( 'NONE',  ( 15.00000000000000000, 0.000000000000000000, 0.000000000000000000 ) ) ;
#75 = DIRECTION ( 'NONE',  ( 0.000000000000000000, 0.000000000000000000, 1.000000000000000000 ) ) ;
#76 = CC_DESIGN_DATE_AND_TIME_ASSIGNMENT ( #505, #128, ( #382 ) ) ;
#77 = COORDINATED_UNIVERSAL_TIME_OFFSET ( 8, 0, .AHEAD. ) ;
#78 = ORIENTED_EDGE ( 'NONE', *, *, #521, .T. ) ;
#79 = CARTESIAN_POINT ( 'NONE',  ( -30.00000000000000000, 0.000000000000000000, 4.000000000000000000 ) ) ;
#80 = COORDINATED_UNIVERSAL_TIME_OFFSET ( 8, 0, .AHEAD. ) ;
#81 = ORIENTED_EDGE ( 'NONE', *, *, #117, .F. ) ;
#82 = PERSON_AND_ORGANIZATION ( #256, #30 ) ;
#83 = EDGE_LOOP ( 'NONE', ( #367, #346, #199, #134 ) ) ;
#84 = CC_DESIGN_PERSON_AND_ORGANIZATION_ASSIGNMENT ( #291, #501, ( #240 ) ) ;
#85 = APPROVAL_DATE_TIME ( #464, #331 ) ;
#86 = ORIENTED_EDGE ( 'NONE', *, *, #209, .F. ) ;
#87 = AXIS2_PLACEMENT_3D ( 'NONE', #265, #261, #99 ) ;
#88 = ORIENTED_EDGE ( 'NONE', *, *, #72, .T. ) ;
#89 = EDGE_LOOP ( 'NONE', ( #338, #468, #424, #370 ) ) ;
#90 = VECTOR ( 'NONE', #222, 1000.000000000000000 ) ;
#91 = EDGE_LOOP ( 'NONE', ( #51, #250, #179, #7 ) ) ;
#92 = AXIS2_PLACEMENT_3D ( 'NONE', #398, #396, #225 ) ;
#93 = CARTESIAN_POINT ( 'NONE',  ( 30.00000000000000000, 0.000000000000000000, -1.499999999999997335 ) ) ;
#94 = AXIS2_PLACEMENT_3D ( 'NONE', #186, #320, #483 ) ;
#95 = FACE_OUTER_BOUND ( 'NONE', #385, .T. ) ;
#96 = DIRECTION ( 'NONE',  ( -0.000000000000000000, 1.000000000000000000, -0.000000000000000000 ) ) ;
#97 = APPROVAL_PERSON_ORGANIZATION ( #447, #297, #454 ) ;
#98 = CARTESIAN_POINT ( 'NONE',  ( -30.00000000000000000, 3.000000000000000000, 4.000000000000000000 ) ) ;
#99 = DIRECTION ( 'NONE',  ( 1.000000000000000000, 0.000000000000000000, -0.000000000000000000 ) ) ;
#100 = EDGE_CURVE ( 'NONE', #337, #113, #73, .T. ) ;
#101 = FACE_OUTER_BOUND ( 'NONE', #381, .T. ) ;
#102 = PLANE ( 'NONE',  #87 ) ;
#103 = DIRECTION ( 'NONE',  ( 0.000000000000000000, 0.000000000000000000, 1.000000000000000000 ) ) ;
#104 = CARTESIAN_POINT ( 'NONE',  ( 15.00000000000000000, -7.000000000000000000, 1.500000000000000666 ) ) ;
#105 = ORIENTED_EDGE ( 'NONE', *, *, #306, .F. ) ;
#106 = EDGE_CURVE ( 'NONE', #318, #16, #292, .T. ) ;
#107 = DATE_TIME_ROLE ( 'creation_date' ) ;
#108 = CARTESIAN_POINT ( 'NONE',  ( 30.00000000000000000, 3.000000000000000000, 0.000000000000000000 ) ) ;
#109 = CC_DESIGN_PERSON_AND_ORGANIZATION_ASSIGNMENT ( #330, #112, ( #386 ) ) ;
#110 = ORIENTED_EDGE ( 'NONE', *, *, #150, .T. ) ;
#111 = DIRECTION ( 'NONE',  ( 0.000000000000000000, 0.000000000000000000, 1.000000000000000000 ) ) ;
#112 = PERSON_AND_ORGANIZATION_ROLE ( 'design_owner' ) ;
#113 = VERTEX_POINT ( 'NONE', #244 ) ;
#114 = VECTOR ( 'NONE', #350, 1000.000000000000000 ) ;
#115 = CARTESIAN_POINT ( 'NONE',  ( 15.00000000000000000, 0.000000000000000000, 1.500000000000000666 ) ) ;
#116 =( LENGTH_UNIT ( ) NAMED_UNIT ( * ) SI_UNIT ( .MILLI., .METRE. ) );
#117 = EDGE_CURVE ( 'NONE', #534, #411, #401, .T. ) ;
#118 = DIRECTION ( 'NONE',  ( 0.000000000000000000, 0.000000000000000000, 1.000000000000000000 ) ) ;
#119 = LINE ( 'NONE', #531, #136 ) ;
#120 = ORIENTED_EDGE ( 'NONE', *, *, #100, .T. ) ;
#121 = AXIS2_PLACEMENT_3D ( 'NONE', #74, #495, #440 ) ;
#122 = CARTESIAN_POINT ( 'NONE',  ( 30.00000000000000000, 3.000000000000000000, 4.000000000000000000 ) ) ;
#123 = PERSON_AND_ORGANIZATION_ROLE ( 'creator' ) ;
#124 = AXIS2_PLACEMENT_3D ( 'NONE', #511, #311, #437 ) ;
#125 = SECURITY_CLASSIFICATION_LEVEL ( 'unclassified' ) ;
#126 = ORIENTED_EDGE ( 'NONE', *, *, #68, .F. ) ;
#127 = EDGE_CURVE ( 'NONE', #343, #506, #336, .T. ) ;
#128 = DATE_TIME_ROLE ( 'classification_date' ) ;
#129 = VERTEX_POINT ( 'NONE', #115 ) ;
#130 = EDGE_CURVE ( 'NONE', #509, #337, #380, .T. ) ;
#131 = ORIENTED_EDGE ( 'NONE', *, *, #127, .F. ) ;
#132 = ORIENTED_EDGE ( 'NONE', *, *, #127, .T. ) ;
#133 = EDGE_CURVE ( 'NONE', #527, #506, #27, .T. ) ;
#134 = ORIENTED_EDGE ( 'NONE', *, *, #425, .T. ) ;
#135 = CYLINDRICAL_SURFACE ( 'NONE', #303, 1.500000000000000666 ) ;
#136 = VECTOR ( 'NONE', #25, 1000.000000000000000 ) ;
#137 = EDGE_CURVE ( 'NONE', #10, #239, #442, .T. ) ;
#138 = LINE ( 'NONE', #187, #114 ) ;
#139 = CIRCLE ( 'NONE', #280, 1.500000000000000666 ) ;
#140 = VECTOR ( 'NONE', #490, 1000.000000000000000 ) ;
#141 = ORIENTED_EDGE ( 'NONE', *, *, #317, .F. ) ;
#142 = FACE_OUTER_BOUND ( 'NONE', #210, .T. ) ;
#143 = APPROVAL_PERSON_ORGANIZATION ( #82, #331, #457 ) ;
#144 = FACE_BOUND ( 'NONE', #417, .T. ) ;
#145 = DIRECTION ( 'NONE',  ( -0.000000000000000000, 1.000000000000000000, -0.000000000000000000 ) ) ;
#146 = DIRECTION ( 'NONE',  ( 0.000000000000000000, 1.000000000000000000, 0.000000000000000000 ) ) ;
#147 = DIRECTION ( 'NONE',  ( 0.000000000000000000, 0.000000000000000000, 1.000000000000000000 ) ) ;
#148 = FACE_OUTER_BOUND ( 'NONE', #89, .T. ) ;
#149 = PLANE ( 'NONE',  #233 ) ;
#150 = EDGE_CURVE ( 'NONE', #411, #443, #237, .T. ) ;
#151 = CYLINDRICAL_SURFACE ( 'NONE', #444, 1.500000000000000666 ) ;
#152 = DIRECTION ( 'NONE',  ( 0.000000000000000000, 0.000000000000000000, 1.000000000000000000 ) ) ;
#153 = ORIENTED_EDGE ( 'NONE', *, *, #106, .F. ) ;
#154 = CARTESIAN_POINT ( 'NONE',  ( -30.00000000000000000, -7.000000000000000000, 0.000000000000000000 ) ) ;
#155 = DIRECTION ( 'NONE',  ( -0.000000000000000000, 1.000000000000000000, -0.000000000000000000 ) ) ;
#156 = ADVANCED_FACE ( 'NONE', ( #328 ), #412, .T. ) ;
#157 = LINE ( 'NONE', #241, #489 ) ;
#158 = DIRECTION ( 'NONE',  ( 0.000000000000000000, 1.000000000000000000, 0.000000000000000000 ) ) ;
#159 = ORIENTED_EDGE ( 'NONE', *, *, #521, .F. ) ;
#160 = AXIS2_PLACEMENT_3D ( 'NONE', #533, #528, #118 ) ;
#161 = DIRECTION ( 'NONE',  ( 0.000000000000000000, 1.000000000000000000, 0.000000000000000000 ) ) ;
#162 = APPLICATION_PROTOCOL_DEFINITION ( 'international standard', 'config_control_design', 1994, #441 ) ;
#163 = VERTEX_POINT ( 'NONE', #404 ) ;
#164 = LINE ( 'NONE', #332, #308 ) ;
#165 = CALENDAR_DATE ( 2026, 8, 5 ) ;
#166 = ORIENTED_EDGE ( 'NONE', *, *, #175, .F. ) ;
#167 = AXIS2_PLACEMENT_3D ( 'NONE', #484, #245, #232 ) ;
#168 = DIRECTION ( 'NONE',  ( 0.000000000000000000, 0.000000000000000000, -1.000000000000000000 ) ) ;
#169 = ORIENTED_EDGE ( 'NONE', *, *, #137, .T. ) ;
#170 = VECTOR ( 'NONE', #236, 1000.000000000000000 ) ;
#171 = ADVANCED_FACE ( 'NONE', ( #69 ), #362, .F. ) ;
#172 = ORIENTED_EDGE ( 'NONE', *, *, #137, .F. ) ;
#173 = LOCAL_TIME ( 19, 36, 59.00000000000000000, #77 ) ;
#174 = ORIENTED_EDGE ( 'NONE', *, *, #251, .T. ) ;
#175 = EDGE_CURVE ( 'NONE', #113, #4, #43, .T. ) ;
#176 = EDGE_LOOP ( 'NONE', ( #270, #496 ) ) ;
#177 = APPROVAL ( #257, 'æœª' ) ;
#178 = ORIENTED_EDGE ( 'NONE', *, *, #285, .F. ) ;
#179 = ORIENTED_EDGE ( 'NONE', *, *, #314, .T. ) ;
#180 = LINE ( 'NONE', #189, #193 ) ;
#181 = PRODUCT_DEFINITION_SHAPE ( 'NONE', 'NONE',  #466 ) ;
#182 = ADVANCED_FACE ( 'NONE', ( #33 ), #151, .F. ) ;
#183 = CARTESIAN_POINT ( 'NONE',  ( -30.00000000000000000, 3.000000000000000000, 1.500000000000000666 ) ) ;
#184 = DIRECTION ( 'NONE',  ( 0.000000000000000000, -0.000000000000000000, 1.000000000000000000 ) ) ;
#185 = VECTOR ( 'NONE', #523, 1000.000000000000000 ) ;
#186 = CARTESIAN_POINT ( 'NONE',  ( -30.00000000000000000, 3.000000000000000000, 0.000000000000000000 ) ) ;
#187 = CARTESIAN_POINT ( 'NONE',  ( 30.00000000000000000, -7.000000000000000000, -1.499999999999997335 ) ) ;
#188 = DIRECTION ( 'NONE',  ( 0.000000000000000000, 0.000000000000000000, 1.000000000000000000 ) ) ;
#189 = CARTESIAN_POINT ( 'NONE',  ( 30.00000000000000000, -7.000000000000000000, 1.499999999999997335 ) ) ;
#190 = AXIS2_PLACEMENT_3D ( 'NONE', #192, #49, #147 ) ;
#191 = DIRECTION ( 'NONE',  ( 0.000000000000000000, 0.000000000000000000, 1.000000000000000000 ) ) ;
#192 = CARTESIAN_POINT ( 'NONE',  ( 15.00000000000000000, 3.000000000000000000, 0.000000000000000000 ) ) ;
#193 = VECTOR ( 'NONE', #438, 1000.000000000000000 ) ;
#194 = CARTESIAN_POINT ( 'NONE',  ( 30.00000000000000000, 0.000000000000000000, 0.000000000000000000 ) ) ;
#195 = AXIS2_PLACEMENT_3D ( 'NONE', #475, #18, #188 ) ;
#196 = CARTESIAN_POINT ( 'NONE',  ( 30.00000000000000000, 3.000000000000000000, -4.000000000000000000 ) ) ;
#197 = CC_DESIGN_APPROVAL ( #331, ( #382 ) ) ;
#198 = DIRECTION ( 'NONE',  ( -0.000000000000000000, -1.000000000000000000, -0.000000000000000000 ) ) ;
#199 = ORIENTED_EDGE ( 'NONE', *, *, #317, .T. ) ;
#200 = CARTESIAN_POINT ( 'NONE',  ( -30.00000000000000000, -7.000000000000000000, 0.000000000000000000 ) ) ;
#201 = EDGE_CURVE ( 'NONE', #39, #302, #157, .T. ) ;
#202 = CARTESIAN_POINT ( 'NONE',  ( -15.00000000000000000, -7.000000000000000000, 0.000000000000000000 ) ) ;
#203 = ORIENTED_EDGE ( 'NONE', *, *, #72, .F. ) ;
#204 = DIRECTION ( 'NONE',  ( 0.000000000000000000, 0.000000000000000000, 1.000000000000000000 ) ) ;
#205 = DIRECTION ( 'NONE',  ( 0.000000000000000000, 0.000000000000000000, 1.000000000000000000 ) ) ;
#206 = CALENDAR_DATE ( 2026, 8, 5 ) ;
#207 = LINE ( 'NONE', #79, #235 ) ;
#208 = VERTEX_POINT ( 'NONE', #247 ) ;
#209 = EDGE_CURVE ( 'NONE', #420, #341, #66, .T. ) ;
#210 = EDGE_LOOP ( 'NONE', ( #59, #172, #409, #293 ) ) ;
#211 = VECTOR ( 'NONE', #473, 1000.000000000000000 ) ;
#212 = ORIENTED_EDGE ( 'NONE', *, *, #529, .F. ) ;
#213 = CC_DESIGN_SECURITY_CLASSIFICATION ( #382, ( #240 ) ) ;
#214 = ORIENTED_EDGE ( 'NONE', *, *, #234, .F. ) ;
#215 = ADVANCED_FACE ( 'NONE', ( #372 ), #31, .F. ) ;
#216 = AXIS2_PLACEMENT_3D ( 'NONE', #202, #155, #34 ) ;
#217 = PERSON_AND_ORGANIZATION ( #256, #30 ) ;
#218 = ORIENTED_EDGE ( 'NONE', *, *, #175, .T. ) ;
#219 = AXIS2_PLACEMENT_3D ( 'NONE', #194, #325, #204 ) ;
#220 = DIRECTION ( 'NONE',  ( 0.000000000000000000, 0.000000000000000000, 1.000000000000000000 ) ) ;
#221 = FACE_BOUND ( 'NONE', #515, .T. ) ;
#222 = DIRECTION ( 'NONE',  ( -0.000000000000000000, -1.000000000000000000, -0.000000000000000000 ) ) ;
#223 = CARTESIAN_POINT ( 'NONE',  ( -30.00000000000000000, 3.000000000000000000, 4.000000000000000000 ) ) ;
#224 = FACE_BOUND ( 'NONE', #460, .T. ) ;
#225 = DIRECTION ( 'NONE',  ( 0.000000000000000000, 0.000000000000000000, 1.000000000000000000 ) ) ;
#226 = CARTESIAN_POINT ( 'NONE',  ( -15.00000000000000000, 0.000000000000000000, -1.500000000000000666 ) ) ;
#227 = DIRECTION ( 'NONE',  ( 0.000000000000000000, 1.000000000000000000, 0.000000000000000000 ) ) ;
#228 = ORIENTED_EDGE ( 'NONE', *, *, #474, .F. ) ;
#229 = DIRECTION ( 'NONE',  ( 0.000000000000000000, 0.000000000000000000, 1.000000000000000000 ) ) ;
#230 = EDGE_CURVE ( 'NONE', #527, #10, #164, .T. ) ;
#231 = CARTESIAN_POINT ( 'NONE',  ( -30.00000000000000000, 0.000000000000000000, -4.000000000000000000 ) ) ;
#232 = DIRECTION ( 'NONE',  ( 0.000000000000000000, 0.000000000000000000, 1.000000000000000000 ) ) ;
#233 = AXIS2_PLACEMENT_3D ( 'NONE', #223, #429, #345 ) ;
#234 = EDGE_CURVE ( 'NONE', #208, #252, #430, .T. ) ;
#235 = VECTOR ( 'NONE', #536, 1000.000000000000000 ) ;
#236 = DIRECTION ( 'NONE',  ( -0.000000000000000000, -1.000000000000000000, -0.000000000000000000 ) ) ;
#237 = CIRCLE ( 'NONE', #445, 1.500000000000000666 ) ;
#238 = CARTESIAN_POINT ( 'NONE',  ( 0.000000000000000000, 0.000000000000000000, 0.000000000000000000 ) ) ;
#239 = VERTEX_POINT ( 'NONE', #231 ) ;
#240 = PRODUCT_DEFINITION_FORMATION_WITH_SPECIFIED_SOURCE ( 'ä»', '', #386, .NOT_KNOWN. ) ;
#241 = CARTESIAN_POINT ( 'NONE',  ( -15.00000000000000000, -7.000000000000000000, -1.500000000000000666 ) ) ;
#242 = DATE_AND_TIME ( #165, #173 ) ;
#243 = ORIENTED_EDGE ( 'NONE', *, *, #461, .F. ) ;
#244 = CARTESIAN_POINT ( 'NONE',  ( -30.00000000000000000, 3.000000000000000000, -1.500000000000000666 ) ) ;
#245 = DIRECTION ( 'NONE',  ( 0.000000000000000000, 1.000000000000000000, 0.000000000000000000 ) ) ;
#246 = ORIENTED_EDGE ( 'NONE', *, *, #20, .F. ) ;
#247 = CARTESIAN_POINT ( 'NONE',  ( -30.00000000000000000, 3.000000000000000000, 4.000000000000000000 ) ) ;
#248 = PERSON_AND_ORGANIZATION ( #256, #30 ) ;
#249 = DIRECTION ( 'NONE',  ( 0.000000000000000000, 0.000000000000000000, 1.000000000000000000 ) ) ;
#250 = ORIENTED_EDGE ( 'NONE', *, *, #130, .F. ) ;
#251 = EDGE_CURVE ( 'NONE', #163, #39, #139, .T. ) ;
#252 = VERTEX_POINT ( 'NONE', #122 ) ;
#253 = ORIENTED_EDGE ( 'NONE', *, *, #53, .F. ) ;
#254 = AXIS2_PLACEMENT_3D ( 'NONE', #517, #12, #184 ) ;
#255 = EDGE_LOOP ( 'NONE', ( #253, #166 ) ) ;
#256 = PERSON ( 'æœª', 'æœª', 'æœª', ('æœª'), ('æœª'), ('æœª') ) ;
#257 = APPROVAL_STATUS ( 'not_yet_approved' ) ;
#258 = EDGE_LOOP ( 'NONE', ( #21, #159, #214, #422 ) ) ;
#259 = AXIS2_PLACEMENT_3D ( 'NONE', #491, #158, #152 ) ;
#260 = EDGE_LOOP ( 'NONE', ( #126, #433, #283, #141 ) ) ;
#261 = DIRECTION ( 'NONE',  ( 0.000000000000000000, 0.000000000000000000, 1.000000000000000000 ) ) ;
#262 = AXIS2_PLACEMENT_3D ( 'NONE', #530, #161, #24 ) ;
#263 = UNCERTAINTY_MEASURE_WITH_UNIT (LENGTH_MEASURE( 1.000000000000000082E-05 ), #116, 'distance_accuracy_value', 'NONE');
#264 = CARTESIAN_POINT ( 'NONE',  ( 15.00000000000000000, -7.000000000000000000, 0.000000000000000000 ) ) ;
#265 = CARTESIAN_POINT ( 'NONE',  ( -30.00000000000000000, 3.000000000000000000, -4.000000000000000000 ) ) ;
#266 = CC_DESIGN_PERSON_AND_ORGANIZATION_ASSIGNMENT ( #248, #408, ( #466 ) ) ;
#267 =( GEOMETRIC_REPRESENTATION_CONTEXT ( 3 ) GLOBAL_UNCERTAINTY_ASSIGNED_CONTEXT ( ( #263 ) ) GLOBAL_UNIT_ASSIGNED_CONTEXT ( ( #116, #278, #451 ) ) REPRESENTATION_CONTEXT ( 'NONE', 'WORKASPACE' ) );
#268 = CARTESIAN_POINT ( 'NONE',  ( -30.00000000000000000, 3.000000000000000000, 0.000000000000000000 ) ) ;
#269 = CARTESIAN_POINT ( 'NONE',  ( -15.00000000000000000, 3.000000000000000000, -1.500000000000000666 ) ) ;
#270 = ORIENTED_EDGE ( 'NONE', *, *, #209, .T. ) ;
#271 = CYLINDRICAL_SURFACE ( 'NONE', #304, 1.499999999999997335 ) ;
#272 = EDGE_CURVE ( 'NONE', #46, #343, #207, .T. ) ;
#273 = LINE ( 'NONE', #98, #90 ) ;
#274 = CARTESIAN_POINT ( 'NONE',  ( -15.00000000000000000, -7.000000000000000000, 1.500000000000000666 ) ) ;
#275 = CARTESIAN_POINT ( 'NONE',  ( -30.00000000000000000, 3.000000000000000000, 4.000000000000000000 ) ) ;
#276 = DIRECTION ( 'NONE',  ( 0.000000000000000000, 1.000000000000000000, 0.000000000000000000 ) ) ;
#277 = CARTESIAN_POINT ( 'NONE',  ( 15.00000000000000000, -7.000000000000000000, -1.500000000000000666 ) ) ;
#278 =( NAMED_UNIT ( * ) PLANE_ANGLE_UNIT ( ) SI_UNIT ( $, .RADIAN. ) );
#279 = ADVANCED_FACE ( 'NONE', ( #456 ), #38, .T. ) ;
#280 = AXIS2_PLACEMENT_3D ( 'NONE', #289, #415, #249 ) ;
#281 = DIRECTION ( 'NONE',  ( 0.000000000000000000, 0.000000000000000000, 1.000000000000000000 ) ) ;
#282 = DIRECTION ( 'NONE',  ( 0.000000000000000000, 0.000000000000000000, 1.000000000000000000 ) ) ;
#283 = ORIENTED_EDGE ( 'NONE', *, *, #377, .T. ) ;
#284 = DIRECTION ( 'NONE',  ( -0.000000000000000000, 1.000000000000000000, -0.000000000000000000 ) ) ;
#285 = EDGE_CURVE ( 'NONE', #506, #239, #481, .T. ) ;
#286 = DIRECTION ( 'NONE',  ( 0.000000000000000000, 1.000000000000000000, 0.000000000000000000 ) ) ;
#287 = MECHANICAL_CONTEXT ( 'NONE', #441, 'mechanical' ) ;
#288 = CIRCLE ( 'NONE', #426, 1.499999999999997335 ) ;
#289 = CARTESIAN_POINT ( 'NONE',  ( -15.00000000000000000, 0.000000000000000000, 0.000000000000000000 ) ) ;
#290 = EDGE_CURVE ( 'NONE', #129, #443, #312, .T. ) ;
#291 = PERSON_AND_ORGANIZATION ( #256, #30 ) ;
#292 = CIRCLE ( 'NONE', #262, 1.499999999999997335 ) ;
#293 = ORIENTED_EDGE ( 'NONE', *, *, #133, .T. ) ;
#294 = LOCAL_TIME ( 19, 36, 59.00000000000000000, #335 ) ;
#295 = EDGE_LOOP ( 'NONE', ( #508, #120, #218, #492 ) ) ;
#296 = EDGE_LOOP ( 'NONE', ( #203, #153 ) ) ;
#297 = APPROVAL ( #70, 'æœª' ) ;
#298 = APPROVAL_ROLE ( '' ) ;
#299 = ORIENTED_EDGE ( 'NONE', *, *, #130, .T. ) ;
#300 = ORIENTED_EDGE ( 'NONE', *, *, #306, .T. ) ;
#301 = ADVANCED_FACE ( 'NONE', ( #479, #221, #19, #388, #477 ), #391, .F. ) ;
#302 = VERTEX_POINT ( 'NONE', #269 ) ;
#303 = AXIS2_PLACEMENT_3D ( 'NONE', #264, #355, #103 ) ;
#304 = AXIS2_PLACEMENT_3D ( 'NONE', #58, #145, #15 ) ;
#305 = ORIENTED_EDGE ( 'NONE', *, *, #399, .F. ) ;
#306 = EDGE_CURVE ( 'NONE', #341, #318, #138, .T. ) ;
#307 = LINE ( 'NONE', #316, #419 ) ;
#308 = VECTOR ( 'NONE', #497, 1000.000000000000000 ) ;
#309 = CIRCLE ( 'NONE', #500, 1.500000000000000666 ) ;
#310 = DESIGN_CONTEXT ( 'detailed design', #359, 'design' ) ;
#311 = DIRECTION ( 'NONE',  ( -0.000000000000000000, 1.000000000000000000, -0.000000000000000000 ) ) ;
#312 = LINE ( 'NONE', #104, #513 ) ;
#313 = CC_DESIGN_APPROVAL ( #177, ( #240 ) ) ;
#314 = EDGE_CURVE ( 'NONE', #509, #4, #307, .T. ) ;
#315 = ORIENTED_EDGE ( 'NONE', *, *, #482, .T. ) ;
#316 = CARTESIAN_POINT ( 'NONE',  ( -30.00000000000000000, -7.000000000000000000, 1.500000000000000666 ) ) ;
#317 = EDGE_CURVE ( 'NONE', #163, #9, #519, .T. ) ;
#318 = VERTEX_POINT ( 'NONE', #434 ) ;
#319 = FACE_OUTER_BOUND ( 'NONE', #258, .T. ) ;
#320 = DIRECTION ( 'NONE',  ( 0.000000000000000000, 1.000000000000000000, 0.000000000000000000 ) ) ;
#321 = CYLINDRICAL_SURFACE ( 'NONE', #216, 1.500000000000000666 ) ;
#322 = DIRECTION ( 'NONE',  ( 0.000000000000000000, 0.000000000000000000, 1.000000000000000000 ) ) ;
#323 = CARTESIAN_POINT ( 'NONE',  ( 30.00000000000000000, 0.000000000000000000, -4.000000000000000000 ) ) ;
#324 = EDGE_LOOP ( 'NONE', ( #243, #384, #110, #504 ) ) ;
#325 = DIRECTION ( 'NONE',  ( 0.000000000000000000, 1.000000000000000000, 0.000000000000000000 ) ) ;
#326 = PRODUCT_RELATED_PRODUCT_CATEGORY ( 'detail', '', ( #386 ) ) ;
#327 = AXIS2_PLACEMENT_3D ( 'NONE', #200, #365, #535 ) ;
#328 = FACE_OUTER_BOUND ( 'NONE', #458, .T. ) ;
#329 = CARTESIAN_POINT ( 'NONE',  ( 30.00000000000000000, 3.000000000000000000, -4.000000000000000000 ) ) ;
#330 = PERSON_AND_ORGANIZATION ( #256, #30 ) ;
#331 = APPROVAL ( #462, 'æœª' ) ;
#332 = CARTESIAN_POINT ( 'NONE',  ( -30.00000000000000000, 3.000000000000000000, -4.000000000000000000 ) ) ;
#333 = EDGE_LOOP ( 'NONE', ( #465, #246, #32, #169 ) ) ;
#334 = DIRECTION ( 'NONE',  ( -0.000000000000000000, -1.000000000000000000, -0.000000000000000000 ) ) ;
#335 = COORDINATED_UNIVERSAL_TIME_OFFSET ( 8, 0, .AHEAD. ) ;
#336 = CIRCLE ( 'NONE', #219, 4.000000000000000000 ) ;
#337 = VERTEX_POINT ( 'NONE', #353 ) ;
#338 = ORIENTED_EDGE ( 'NONE', *, *, #50, .T. ) ;
#339 = PERSON_AND_ORGANIZATION_ROLE ( 'classification_officer' ) ;
#340 = ORIENTED_EDGE ( 'NONE', *, *, #272, .F. ) ;
#341 = VERTEX_POINT ( 'NONE', #93 ) ;
#342 = ADVANCED_FACE ( 'NONE', ( #142 ), #102, .F. ) ;
#343 = VERTEX_POINT ( 'NONE', #431 ) ;
#344 = EDGE_LOOP ( 'NONE', ( #105, #86, #375, #88 ) ) ;
#345 = DIRECTION ( 'NONE',  ( -1.000000000000000000, 0.000000000000000000, -0.000000000000000000 ) ) ;
#346 = ORIENTED_EDGE ( 'NONE', *, *, #251, .F. ) ;
#347 = DIRECTION ( 'NONE',  ( 0.000000000000000000, 0.000000000000000000, 1.000000000000000000 ) ) ;
#348 = VECTOR ( 'NONE', #439, 1000.000000000000000 ) ;
#349 = DIRECTION ( 'NONE',  ( -0.000000000000000000, 1.000000000000000000, -0.000000000000000000 ) ) ;
#350 = DIRECTION ( 'NONE',  ( -0.000000000000000000, 1.000000000000000000, -0.000000000000000000 ) ) ;
#351 = EDGE_CURVE ( 'NONE', #443, #411, #471, .T. ) ;
#352 = CARTESIAN_POINT ( 'NONE',  ( 30.00000000000000000, -7.000000000000000000, 0.000000000000000000 ) ) ;
#353 = CARTESIAN_POINT ( 'NONE',  ( -30.00000000000000000, 0.000000000000000000, -1.500000000000000666 ) ) ;
#354 = AXIS2_PLACEMENT_3D ( 'NONE', #63, #276, #366 ) ;
#355 = DIRECTION ( 'NONE',  ( -0.000000000000000000, 1.000000000000000000, -0.000000000000000000 ) ) ;
#356 = FACE_OUTER_BOUND ( 'NONE', #260, .T. ) ;
#357 = AXIS2_PLACEMENT_3D ( 'NONE', #108, #65, #485 ) ;
#358 = CARTESIAN_POINT ( 'NONE',  ( -30.00000000000000000, 0.000000000000000000, 0.000000000000000000 ) ) ;
#359 = APPLICATION_CONTEXT ( 'configuration controlled 3d designs of mechanical parts and assemblies' ) ;
#360 = DIRECTION ( 'NONE',  ( 0.000000000000000000, 1.000000000000000000, 0.000000000000000000 ) ) ;
#361 = ADVANCED_FACE ( 'NONE', ( #52 ), #271, .F. ) ;
#362 = CYLINDRICAL_SURFACE ( 'NONE', #160, 1.500000000000000666 ) ;
#363 = EDGE_LOOP ( 'NONE', ( #315, #467 ) ) ;
#364 = MANIFOLD_SOLID_BREP ( '\X2\52079664\X0\-\X2\62c94f38\X0\1', #40 ) ;
#365 = DIRECTION ( 'NONE',  ( -0.000000000000000000, 1.000000000000000000, -0.000000000000000000 ) ) ;
#366 = DIRECTION ( 'NONE',  ( 0.000000000000000000, 0.000000000000000000, 1.000000000000000000 ) ) ;
#367 = ORIENTED_EDGE ( 'NONE', *, *, #201, .F. ) ;
#368 = DIRECTION ( 'NONE',  ( 0.000000000000000000, 1.000000000000000000, 0.000000000000000000 ) ) ;
#369 = DIRECTION ( 'NONE',  ( 1.000000000000000000, 0.000000000000000000, 0.000000000000000000 ) ) ;
#370 = ORIENTED_EDGE ( 'NONE', *, *, #230, .T. ) ;
#371 = ADVANCED_FACE ( 'NONE', ( #319 ), #149, .F. ) ;
#372 = FACE_OUTER_BOUND ( 'NONE', #91, .T. ) ;
#373 = DATE_AND_TIME ( #206, #476 ) ;
#374 = CARTESIAN_POINT ( 'NONE',  ( -30.00000000000000000, 3.000000000000000000, 0.000000000000000000 ) ) ;
#375 = ORIENTED_EDGE ( 'NONE', *, *, #399, .T. ) ;
#376 = CIRCLE ( 'NONE', #469, 1.500000000000000666 ) ;
#377 = EDGE_CURVE ( 'NONE', #302, #9, #376, .T. ) ;
#378 = AXIS2_PLACEMENT_3D ( 'NONE', #374, #334, #168 ) ;
#379 = CALENDAR_DATE ( 2026, 8, 5 ) ;
#380 = CIRCLE ( 'NONE', #403, 1.500000000000000666 ) ;
#381 = EDGE_LOOP ( 'NONE', ( #81, #29, #383, #1 ) ) ;
#382 = SECURITY_CLASSIFICATION ( '', '', #125 ) ;
#383 = ORIENTED_EDGE ( 'NONE', *, *, #290, .T. ) ;
#384 = ORIENTED_EDGE ( 'NONE', *, *, #117, .T. ) ;
#385 = EDGE_LOOP ( 'NONE', ( #45, #300, #42, #305 ) ) ;
#386 = PRODUCT ( '\X2\5e95677f8fde63a54ef6\X0\1', '\X2\5e95677f8fde63a54ef6\X0\1', '', ( #287 ) ) ;
#387 = CARTESIAN_POINT ( 'NONE',  ( 30.00000000000000000, 3.000000000000000000, 0.000000000000000000 ) ) ;
#388 = FACE_BOUND ( 'NONE', #176, .T. ) ;
#389 = EDGE_CURVE ( 'NONE', #337, #509, #537, .T. ) ;
#390 = FACE_OUTER_BOUND ( 'NONE', #324, .T. ) ;
#391 = PLANE ( 'NONE',  #254 ) ;
#392 = PLANE ( 'NONE',  #94 ) ;
#393 = CARTESIAN_POINT ( 'NONE',  ( -15.00000000000000000, 3.000000000000000000, 0.000000000000000000 ) ) ;
#394 = AXIS2_PLACEMENT_3D ( 'NONE', #487, #286, #281 ) ;
#395 = ORIENTED_EDGE ( 'NONE', *, *, #377, .F. ) ;
#396 = DIRECTION ( 'NONE',  ( 0.000000000000000000, 1.000000000000000000, 0.000000000000000000 ) ) ;
#397 = CARTESIAN_POINT ( 'NONE',  ( -30.00000000000000000, 0.000000000000000000, 4.000000000000000000 ) ) ;
#398 = CARTESIAN_POINT ( 'NONE',  ( -30.00000000000000000, 0.000000000000000000, 0.000000000000000000 ) ) ;
#399 = EDGE_CURVE ( 'NONE', #420, #16, #180, .T. ) ;
#400 = CIRCLE ( 'NONE', #121, 1.500000000000000666 ) ;
#401 = LINE ( 'NONE', #277, #3 ) ;
#402 = CARTESIAN_POINT ( 'NONE',  ( -30.00000000000000000, 0.000000000000000000, 1.500000000000000666 ) ) ;
#403 = AXIS2_PLACEMENT_3D ( 'NONE', #358, #368, #111 ) ;
#404 = CARTESIAN_POINT ( 'NONE',  ( -15.00000000000000000, 0.000000000000000000, 1.500000000000000666 ) ) ;
#405 = DIRECTION ( 'NONE',  ( 0.000000000000000000, 0.000000000000000000, 1.000000000000000000 ) ) ;
#406 = AXIS2_PLACEMENT_3D ( 'NONE', #238, #405, #369 ) ;
#407 = CARTESIAN_POINT ( 'NONE',  ( 15.00000000000000000, 3.000000000000000000, 0.000000000000000000 ) ) ;
#408 = PERSON_AND_ORGANIZATION_ROLE ( 'creator' ) ;
#409 = ORIENTED_EDGE ( 'NONE', *, *, #230, .F. ) ;
#410 = DIRECTION ( 'NONE',  ( 0.000000000000000000, 1.000000000000000000, 0.000000000000000000 ) ) ;
#411 = VERTEX_POINT ( 'NONE', #510 ) ;
#412 = CYLINDRICAL_SURFACE ( 'NONE', #357, 4.000000000000000000 ) ;
#413 = APPROVAL_DATE_TIME ( #242, #297 ) ;
#414 = ORIENTED_EDGE ( 'NONE', *, *, #351, .F. ) ;
#415 = DIRECTION ( 'NONE',  ( 0.000000000000000000, 1.000000000000000000, 0.000000000000000000 ) ) ;
#416 = PERSON_AND_ORGANIZATION ( #256, #30 ) ;
#417 = EDGE_LOOP ( 'NONE', ( #414, #47 ) ) ;
#418 = CC_DESIGN_PERSON_AND_ORGANIZATION_ASSIGNMENT ( #217, #123, ( #240 ) ) ;
#419 = VECTOR ( 'NONE', #514, 1000.000000000000000 ) ;
#420 = VERTEX_POINT ( 'NONE', #60 ) ;
#421 = CALENDAR_DATE ( 2026, 8, 5 ) ;
#422 = ORIENTED_EDGE ( 'NONE', *, *, #20, .T. ) ;
#423 = CALENDAR_DATE ( 2026, 8, 5 ) ;
#424 = ORIENTED_EDGE ( 'NONE', *, *, #474, .T. ) ;
#425 = EDGE_CURVE ( 'NONE', #9, #302, #64, .T. ) ;
#426 = AXIS2_PLACEMENT_3D ( 'NONE', #28, #360, #282 ) ;
#427 = CARTESIAN_POINT ( 'NONE',  ( -15.00000000000000000, 0.000000000000000000, 0.000000000000000000 ) ) ;
#428 = CIRCLE ( 'NONE', #195, 4.000000000000000000 ) ;
#429 = DIRECTION ( 'NONE',  ( 0.000000000000000000, 0.000000000000000000, -1.000000000000000000 ) ) ;
#430 = LINE ( 'NONE', #275, #348 ) ;
#431 = CARTESIAN_POINT ( 'NONE',  ( 30.00000000000000000, 0.000000000000000000, 4.000000000000000000 ) ) ;
#432 = CC_DESIGN_PERSON_AND_ORGANIZATION_ASSIGNMENT ( #416, #339, ( #382 ) ) ;
#433 = ORIENTED_EDGE ( 'NONE', *, *, #201, .T. ) ;
#434 = CARTESIAN_POINT ( 'NONE',  ( 30.00000000000000000, 3.000000000000000000, -1.499999999999997335 ) ) ;
#435 = DIRECTION ( 'NONE',  ( 0.000000000000000000, 0.000000000000000000, 1.000000000000000000 ) ) ;
#436 = DIRECTION ( 'NONE',  ( 0.000000000000000000, 1.000000000000000000, 0.000000000000000000 ) ) ;
#437 = DIRECTION ( 'NONE',  ( 0.000000000000000000, 0.000000000000000000, 1.000000000000000000 ) ) ;
#438 = DIRECTION ( 'NONE',  ( -0.000000000000000000, 1.000000000000000000, -0.000000000000000000 ) ) ;
#439 = DIRECTION ( 'NONE',  ( 1.000000000000000000, 0.000000000000000000, 0.000000000000000000 ) ) ;
#440 = DIRECTION ( 'NONE',  ( 0.000000000000000000, 0.000000000000000000, 1.000000000000000000 ) ) ;
#441 = APPLICATION_CONTEXT ( 'configuration controlled 3d designs of mechanical parts and assemblies' ) ;
#442 = LINE ( 'NONE', #525, #472 ) ;
#443 = VERTEX_POINT ( 'NONE', #22 ) ;
#444 = AXIS2_PLACEMENT_3D ( 'NONE', #154, #284, #75 ) ;
#445 = AXIS2_PLACEMENT_3D ( 'NONE', #407, #410, #494 ) ;
#446 = CARTESIAN_POINT ( 'NONE',  ( 30.00000000000000000, 0.000000000000000000, 0.000000000000000000 ) ) ;
#447 = PERSON_AND_ORGANIZATION ( #256, #30 ) ;
#448 = LOCAL_TIME ( 19, 36, 59.00000000000000000, #41 ) ;
#449 = ADVANCED_FACE ( 'NONE', ( #356 ), #321, .F. ) ;
#450 = DIRECTION ( 'NONE',  ( -0.000000000000000000, 1.000000000000000000, -0.000000000000000000 ) ) ;
#451 =( NAMED_UNIT ( * ) SI_UNIT ( $, .STERADIAN. ) SOLID_ANGLE_UNIT ( ) );
#452 = CARTESIAN_POINT ( 'NONE',  ( -30.00000000000000000, -7.000000000000000000, -1.500000000000000666 ) ) ;
#453 = CIRCLE ( 'NONE', #354, 1.500000000000000666 ) ;
#454 = APPROVAL_ROLE ( '' ) ;
#455 = CIRCLE ( 'NONE', #524, 1.500000000000000666 ) ;
#456 = FACE_OUTER_BOUND ( 'NONE', #333, .T. ) ;
#457 = APPROVAL_ROLE ( '' ) ;
#458 = EDGE_LOOP ( 'NONE', ( #132, #499, #228, #78 ) ) ;
#459 = DATE_AND_TIME ( #423, #294 ) ;
#460 = EDGE_LOOP ( 'NONE', ( #502, #395 ) ) ;
#461 = EDGE_CURVE ( 'NONE', #534, #129, #400, .T. ) ;
#462 = APPROVAL_STATUS ( 'not_yet_approved' ) ;
#463 = EDGE_LOOP ( 'NONE', ( #212, #178, #131, #340 ) ) ;
#464 = DATE_AND_TIME ( #379, #448 ) ;
#465 = ORIENTED_EDGE ( 'NONE', *, *, #529, .T. ) ;
#466 = PRODUCT_DEFINITION ( 'æœ', '', #240, #310 ) ;
#467 = ORIENTED_EDGE ( 'NONE', *, *, #461, .T. ) ;
#468 = ORIENTED_EDGE ( 'NONE', *, *, #234, .T. ) ;
#469 = AXIS2_PLACEMENT_3D ( 'NONE', #55, #436, #347 ) ;
#470 = ORIENTED_EDGE ( 'NONE', *, *, #68, .T. ) ;
#471 = CIRCLE ( 'NONE', #190, 1.500000000000000666 ) ;
#472 = VECTOR ( 'NONE', #198, 1000.000000000000000 ) ;
#473 = DIRECTION ( 'NONE',  ( -1.000000000000000000, -0.000000000000000000, -0.000000000000000000 ) ) ;
#474 = EDGE_CURVE ( 'NONE', #252, #527, #520, .T. ) ;
#475 = CARTESIAN_POINT ( 'NONE',  ( -30.00000000000000000, 3.000000000000000000, 0.000000000000000000 ) ) ;
#476 = LOCAL_TIME ( 19, 36, 59.00000000000000000, #36 ) ;
#477 = FACE_OUTER_BOUND ( 'NONE', #463, .T. ) ;
#478 = CARTESIAN_POINT ( 'NONE',  ( 30.00000000000000000, 3.000000000000000000, 1.499999999999997335 ) ) ;
#479 = FACE_BOUND ( 'NONE', #532, .T. ) ;
#480 = CARTESIAN_POINT ( 'NONE',  ( -15.00000000000000000, 3.000000000000000000, 1.500000000000000666 ) ) ;
#481 = LINE ( 'NONE', #17, #211 ) ;
#482 = EDGE_CURVE ( 'NONE', #129, #534, #453, .T. ) ;
#483 = DIRECTION ( 'NONE',  ( 0.000000000000000000, -0.000000000000000000, 1.000000000000000000 ) ) ;
#484 = CARTESIAN_POINT ( 'NONE',  ( 30.00000000000000000, 3.000000000000000000, 0.000000000000000000 ) ) ;
#485 = DIRECTION ( 'NONE',  ( 0.000000000000000000, 0.000000000000000000, -1.000000000000000000 ) ) ;
#486 = EDGE_CURVE ( 'NONE', #341, #420, #288, .T. ) ;
#487 = CARTESIAN_POINT ( 'NONE',  ( -30.00000000000000000, 3.000000000000000000, 0.000000000000000000 ) ) ;
#488 = APPLICATION_PROTOCOL_DEFINITION ( 'international standard', 'config_control_design', 1994, #359 ) ;
#489 = VECTOR ( 'NONE', #450, 1000.000000000000000 ) ;
#490 = DIRECTION ( 'NONE',  ( -0.000000000000000000, 1.000000000000000000, -0.000000000000000000 ) ) ;
#491 = CARTESIAN_POINT ( 'NONE',  ( -30.00000000000000000, 0.000000000000000000, 0.000000000000000000 ) ) ;
#492 = ORIENTED_EDGE ( 'NONE', *, *, #314, .F. ) ;
#493 = ADVANCED_BREP_SHAPE_REPRESENTATION ( '\X2\5e95677f8fde63a54ef6\X0\1', ( #364, #406 ), #267 ) ;
#494 = DIRECTION ( 'NONE',  ( 0.000000000000000000, 0.000000000000000000, 1.000000000000000000 ) ) ;
#495 = DIRECTION ( 'NONE',  ( 0.000000000000000000, 1.000000000000000000, 0.000000000000000000 ) ) ;
#496 = ORIENTED_EDGE ( 'NONE', *, *, #486, .T. ) ;
#497 = DIRECTION ( 'NONE',  ( -1.000000000000000000, -0.000000000000000000, -0.000000000000000000 ) ) ;
#498 = CIRCLE ( 'NONE', #259, 4.000000000000000000 ) ;
#499 = ORIENTED_EDGE ( 'NONE', *, *, #133, .F. ) ;
#500 = AXIS2_PLACEMENT_3D ( 'NONE', #427, #48, #220 ) ;
#501 = PERSON_AND_ORGANIZATION_ROLE ( 'design_supplier' ) ;
#502 = ORIENTED_EDGE ( 'NONE', *, *, #425, .F. ) ;
#503 = PERSON_AND_ORGANIZATION ( #256, #30 ) ;
#504 = ORIENTED_EDGE ( 'NONE', *, *, #290, .F. ) ;
#505 = DATE_AND_TIME ( #421, #516 ) ;
#506 = VERTEX_POINT ( 'NONE', #323 ) ;
#507 = ORIENTED_EDGE ( 'NONE', *, *, #389, .T. ) ;
#508 = ORIENTED_EDGE ( 'NONE', *, *, #389, .F. ) ;
#509 = VERTEX_POINT ( 'NONE', #402 ) ;
#510 = CARTESIAN_POINT ( 'NONE',  ( 15.00000000000000000, 3.000000000000000000, -1.500000000000000666 ) ) ;
#511 = CARTESIAN_POINT ( 'NONE',  ( 15.00000000000000000, -7.000000000000000000, 0.000000000000000000 ) ) ;
#512 = CC_DESIGN_DATE_AND_TIME_ASSIGNMENT ( #373, #107, ( #466 ) ) ;
#513 = VECTOR ( 'NONE', #96, 1000.000000000000000 ) ;
#514 = DIRECTION ( 'NONE',  ( -0.000000000000000000, 1.000000000000000000, -0.000000000000000000 ) ) ;
#515 = EDGE_LOOP ( 'NONE', ( #174, #470 ) ) ;
#516 = LOCAL_TIME ( 19, 36, 59.00000000000000000, #80 ) ;
#517 = CARTESIAN_POINT ( 'NONE',  ( -30.00000000000000000, 0.000000000000000000, 0.000000000000000000 ) ) ;
#518 = CYLINDRICAL_SURFACE ( 'NONE', #62, 1.499999999999997335 ) ;
#519 = LINE ( 'NONE', #274, #185 ) ;
#520 = CIRCLE ( 'NONE', #167, 4.000000000000000000 ) ;
#521 = EDGE_CURVE ( 'NONE', #252, #343, #119, .T. ) ;
#522 = FACE_BOUND ( 'NONE', #296, .T. ) ;
#523 = DIRECTION ( 'NONE',  ( -0.000000000000000000, 1.000000000000000000, -0.000000000000000000 ) ) ;
#524 = AXIS2_PLACEMENT_3D ( 'NONE', #268, #146, #191 ) ;
#525 = CARTESIAN_POINT ( 'NONE',  ( -30.00000000000000000, 3.000000000000000000, -4.000000000000000000 ) ) ;
#526 = CARTESIAN_POINT ( 'NONE',  ( 15.00000000000000000, 0.000000000000000000, -1.500000000000000666 ) ) ;
#527 = VERTEX_POINT ( 'NONE', #196 ) ;
#528 = DIRECTION ( 'NONE',  ( -0.000000000000000000, 1.000000000000000000, -0.000000000000000000 ) ) ;
#529 = EDGE_CURVE ( 'NONE', #239, #46, #498, .T. ) ;
#530 = CARTESIAN_POINT ( 'NONE',  ( 30.00000000000000000, 3.000000000000000000, 0.000000000000000000 ) ) ;
#531 = CARTESIAN_POINT ( 'NONE',  ( 30.00000000000000000, 3.000000000000000000, 4.000000000000000000 ) ) ;
#532 = EDGE_LOOP ( 'NONE', ( #299, #507 ) ) ;
#533 = CARTESIAN_POINT ( 'NONE',  ( -15.00000000000000000, -7.000000000000000000, 0.000000000000000000 ) ) ;
#534 = VERTEX_POINT ( 'NONE', #526 ) ;
#535 = DIRECTION ( 'NONE',  ( 0.000000000000000000, 0.000000000000000000, 1.000000000000000000 ) ) ;
#536 = DIRECTION ( 'NONE',  ( 1.000000000000000000, 0.000000000000000000, 0.000000000000000000 ) ) ;
#537 = CIRCLE ( 'NONE', #92, 1.500000000000000666 ) ;
ENDSEC;
END-ISO-10303-21;
