ISO-10303-21;
HEADER;
FILE_DESCRIPTION (( 'STEP AP203' ),
    '1' );
FILE_NAME ('µ×°åÁ¬½Ó¼þ3.STEP',
    '2026-05-08T11:49:00',
    ( '' ),
    ( '' ),
    'SwSTEP 2.0',
    'SolidWorks 2025',
    '' );
FILE_SCHEMA (( 'CONFIG_CONTROL_DESIGN' ));
ENDSEC;

DATA;
#1 = VERTEX_POINT ( 'NONE', #479 ) ;
#2 = LINE ( 'NONE', #918, #155 ) ;
#3 = ORIENTED_EDGE ( 'NONE', *, *, #966, .F. ) ;
#4 = CYLINDRICAL_SURFACE ( 'NONE', #421, 3.000000000000000000 ) ;
#5 = ORIENTED_EDGE ( 'NONE', *, *, #765, .F. ) ;
#6 = CARTESIAN_POINT ( 'NONE',  ( -14.99999999999999822, 0.000000000000000000, -4.999999999999996447 ) ) ;
#7 = EDGE_CURVE ( 'NONE', #458, #321, #455, .T. ) ;
#8 = VERTEX_POINT ( 'NONE', #830 ) ;
#9 = VERTEX_POINT ( 'NONE', #768 ) ;
#10 = DIRECTION ( 'NONE',  ( 0.000000000000000000, 0.000000000000000000, 1.000000000000000000 ) ) ;
#11 = EDGE_LOOP ( 'NONE', ( #174, #851, #304, #277, #385, #183, #935, #167 ) ) ;
#12 = VERTEX_POINT ( 'NONE', #681 ) ;
#13 = ADVANCED_FACE ( 'NONE', ( #75 ), #379, .F. ) ;
#14 = CYLINDRICAL_SURFACE ( 'NONE', #954, 1.499999999999996891 ) ;
#15 = LOCAL_TIME ( 19, 49, 0.000000000000000000, #811 ) ;
#16 = ORIENTED_EDGE ( 'NONE', *, *, #734, .F. ) ;
#17 = CARTESIAN_POINT ( 'NONE',  ( -29.50000000000000355, 3.000000000000000000, -7.500000000000000000 ) ) ;
#18 = CIRCLE ( 'NONE', #535, 1.500000000000002220 ) ;
#19 = CARTESIAN_POINT ( 'NONE',  ( 29.50000000000000000, 3.000000000000000000, -7.500000000000000000 ) ) ;
#20 = ORIENTED_EDGE ( 'NONE', *, *, #177, .F. ) ;
#21 = CARTESIAN_POINT ( 'NONE',  ( -32.50000000000000000, 0.000000000000000000, 4.500000000000000888 ) ) ;
#22 = ORIENTED_EDGE ( 'NONE', *, *, #244, .F. ) ;
#23 = LINE ( 'NONE', #756, #461 ) ;
#24 = CARTESIAN_POINT ( 'NONE',  ( -30.00000000000000000, 0.000000000000000000, -3.499999999999996003 ) ) ;
#25 = VERTEX_POINT ( 'NONE', #21 ) ;
#26 = FACE_OUTER_BOUND ( 'NONE', #677, .T. ) ;
#27 = DIRECTION ( 'NONE',  ( -3.469446951953614189E-15, 0.000000000000000000, 1.000000000000000000 ) ) ;
#28 = EDGE_LOOP ( 'NONE', ( #538, #433 ) ) ;
#29 = ORIENTED_EDGE ( 'NONE', *, *, #335, .T. ) ;
#30 = DIRECTION ( 'NONE',  ( 0.000000000000000000, -1.000000000000000000, 0.000000000000000000 ) ) ;
#31 = DIRECTION ( 'NONE',  ( 0.000000000000000000, 1.000000000000000000, 0.000000000000000000 ) ) ;
#32 = AXIS2_PLACEMENT_3D ( 'NONE', #905, #308, #542 ) ;
#33 = AXIS2_PLACEMENT_3D ( 'NONE', #632, #173, #93 ) ;
#34 = ORIENTED_EDGE ( 'NONE', *, *, #207, .F. ) ;
#35 = CARTESIAN_POINT ( 'NONE',  ( -14.99999999999999822, 3.000000000000000000, 5.000000000000003553 ) ) ;
#36 = CARTESIAN_POINT ( 'NONE',  ( -32.50000000000000000, 3.000000000000000000, -7.500000000000000000 ) ) ;
#37 = ORIENTED_EDGE ( 'NONE', *, *, #260, .F. ) ;
#38 = DIRECTION ( 'NONE',  ( 0.000000000000000000, 0.000000000000000000, 1.000000000000000000 ) ) ;
#39 = CALENDAR_DATE ( 2026, 8, 5 ) ;
#40 = VECTOR ( 'NONE', #303, 1000.000000000000000 ) ;
#41 = CIRCLE ( 'NONE', #963, 1.500000000000000444 ) ;
#42 = ORIENTED_EDGE ( 'NONE', *, *, #225, .F. ) ;
#43 = DIRECTION ( 'NONE',  ( -0.000000000000000000, 1.000000000000000000, -0.000000000000000000 ) ) ;
#44 = DIRECTION ( 'NONE',  ( 0.000000000000000000, 0.000000000000000000, 1.000000000000000000 ) ) ;
#45 = AXIS2_PLACEMENT_3D ( 'NONE', #139, #297, #738 ) ;
#46 = VERTEX_POINT ( 'NONE', #537 ) ;
#47 = EDGE_CURVE ( 'NONE', #250, #659, #209, .T. ) ;
#48 = DIRECTION ( 'NONE',  ( 0.000000000000000000, 0.000000000000000000, 1.000000000000000000 ) ) ;
#49 = PERSON_AND_ORGANIZATION ( #556, #610 ) ;
#50 = VERTEX_POINT ( 'NONE', #147 ) ;
#51 = FACE_BOUND ( 'NONE', #750, .T. ) ;
#52 = VERTEX_POINT ( 'NONE', #17 ) ;
#53 = DIRECTION ( 'NONE',  ( -0.000000000000000000, 1.000000000000000000, -0.000000000000000000 ) ) ;
#54 = CALENDAR_DATE ( 2026, 8, 5 ) ;
#55 = DIRECTION ( 'NONE',  ( -1.000000000000000000, -0.000000000000000000, -0.000000000000000000 ) ) ;
#56 = AXIS2_PLACEMENT_3D ( 'NONE', #551, #31, #685 ) ;
#57 = ORIENTED_EDGE ( 'NONE', *, *, #85, .F. ) ;
#58 = APPLICATION_PROTOCOL_DEFINITION ( 'international standard', 'config_control_design', 1994, #602 ) ;
#59 = ADVANCED_FACE ( 'NONE', ( #229 ), #313, .F. ) ;
#60 = DIRECTION ( 'NONE',  ( 0.000000000000000000, 0.000000000000000000, 1.000000000000000000 ) ) ;
#61 = FACE_BOUND ( 'NONE', #932, .T. ) ;
#62 = EDGE_CURVE ( 'NONE', #516, #50, #2, .T. ) ;
#63 = SHAPE_DEFINITION_REPRESENTATION ( #805, #737 ) ;
#64 = DIRECTION ( 'NONE',  ( 1.156482317317871331E-15, 0.000000000000000000, 1.000000000000000000 ) ) ;
#65 = DESIGN_CONTEXT ( 'detailed design', #602, 'design' ) ;
#66 = CARTESIAN_POINT ( 'NONE',  ( -30.00000000000000000, -7.000000000000000000, 3.500000000000003109 ) ) ;
#67 = AXIS2_PLACEMENT_3D ( 'NONE', #279, #204, #803 ) ;
#68 = AXIS2_PLACEMENT_3D ( 'NONE', #818, #408, #110 ) ;
#69 = EDGE_CURVE ( 'NONE', #555, #584, #336, .T. ) ;
#70 = AXIS2_PLACEMENT_3D ( 'NONE', #160, #384, #530 ) ;
#71 = FACE_OUTER_BOUND ( 'NONE', #283, .T. ) ;
#72 = AXIS2_PLACEMENT_3D ( 'NONE', #512, #144, #657 ) ;
#73 = EDGE_CURVE ( 'NONE', #90, #785, #825, .T. ) ;
#74 = DIRECTION ( 'NONE',  ( -0.000000000000000000, 1.000000000000000000, -0.000000000000000000 ) ) ;
#75 = FACE_OUTER_BOUND ( 'NONE', #400, .T. ) ;
#76 = DIRECTION ( 'NONE',  ( -0.000000000000000000, 1.000000000000000000, -0.000000000000000000 ) ) ;
#77 = DIRECTION ( 'NONE',  ( 0.000000000000000000, 0.000000000000000000, 1.000000000000000000 ) ) ;
#78 = EDGE_CURVE ( 'NONE', #456, #383, #305, .T. ) ;
#79 = EDGE_LOOP ( 'NONE', ( #715, #230, #459, #188 ) ) ;
#80 = DIRECTION ( 'NONE',  ( 0.000000000000000000, 1.000000000000000000, 0.000000000000000000 ) ) ;
#81 = ORIENTED_EDGE ( 'NONE', *, *, #477, .T. ) ;
#82 = ORIENTED_EDGE ( 'NONE', *, *, #510, .F. ) ;
#83 = CIRCLE ( 'NONE', #590, 3.000000000000000000 ) ;
#84 = ORIENTED_EDGE ( 'NONE', *, *, #62, .F. ) ;
#85 = EDGE_CURVE ( 'NONE', #270, #821, #202, .T. ) ;
#86 = CARTESIAN_POINT ( 'NONE',  ( -14.99999999999999822, -7.000000000000000000, -4.999999999999996447 ) ) ;
#87 = ORIENTED_EDGE ( 'NONE', *, *, #124, .T. ) ;
#88 = ORIENTED_EDGE ( 'NONE', *, *, #291, .F. ) ;
#89 = CARTESIAN_POINT ( 'NONE',  ( -30.00000000000000000, -7.000000000000000000, -4.999999999999996447 ) ) ;
#90 = VERTEX_POINT ( 'NONE', #399 ) ;
#91 = DIRECTION ( 'NONE',  ( 0.000000000000000000, 1.000000000000000000, 0.000000000000000000 ) ) ;
#92 = ORIENTED_EDGE ( 'NONE', *, *, #260, .T. ) ;
#93 = DIRECTION ( 'NONE',  ( 0.000000000000000000, 0.000000000000000000, 1.000000000000000000 ) ) ;
#94 = ORIENTED_EDGE ( 'NONE', *, *, #969, .T. ) ;
#95 = CARTESIAN_POINT ( 'NONE',  ( -14.99999999999999822, 0.000000000000000000, -4.999999999999996447 ) ) ;
#96 = ORIENTED_EDGE ( 'NONE', *, *, #637, .F. ) ;
#97 = MANIFOLD_SOLID_BREP ( '\X2\96355217\X0\(\X2\7ebf6027\X0\)2', #235 ) ;
#98 = DIRECTION ( 'NONE',  ( -0.000000000000000000, 1.000000000000000000, -0.000000000000000000 ) ) ;
#99 = CARTESIAN_POINT ( 'NONE',  ( 30.00000000000000000, -7.000000000000000000, 3.500000000000006661 ) ) ;
#100 = ADVANCED_FACE ( 'NONE', ( #380 ), #237, .F. ) ;
#101 = ORIENTED_EDGE ( 'NONE', *, *, #927, .T. ) ;
#102 = CARTESIAN_POINT ( 'NONE',  ( -29.50000000000000355, 3.000000000000000000, -4.500000000000000000 ) ) ;
#103 = CARTESIAN_POINT ( 'NONE',  ( -29.50000000000000355, 3.000000000000000000, 7.500000000000000000 ) ) ;
#104 = DIRECTION ( 'NONE',  ( 0.000000000000000000, 0.000000000000000000, 1.000000000000000000 ) ) ;
#105 = CC_DESIGN_DATE_AND_TIME_ASSIGNMENT ( #956, #867, ( #628 ) ) ;
#106 = VERTEX_POINT ( 'NONE', #166 ) ;
#107 = DIRECTION ( 'NONE',  ( 0.000000000000000000, 0.000000000000000000, 1.000000000000000000 ) ) ;
#108 = FACE_OUTER_BOUND ( 'NONE', #256, .T. ) ;
#109 = VERTEX_POINT ( 'NONE', #758 ) ;
#110 = DIRECTION ( 'NONE',  ( -1.000000000000000000, 0.000000000000000000, -0.000000000000000000 ) ) ;
#111 = FACE_OUTER_BOUND ( 'NONE', #683, .T. ) ;
#112 = PRODUCT_DEFINITION_FORMATION_WITH_SPECIFIED_SOURCE ( 'ä»', '', #656, .NOT_KNOWN. ) ;
#113 = EDGE_LOOP ( 'NONE', ( #569, #600, #701, #598 ) ) ;
#114 = FACE_BOUND ( 'NONE', #903, .T. ) ;
#115 = FACE_OUTER_BOUND ( 'NONE', #841, .T. ) ;
#116 = ADVANCED_FACE ( 'NONE', ( #521 ), #246, .F. ) ;
#117 = VERTEX_POINT ( 'NONE', #601 ) ;
#118 = CARTESIAN_POINT ( 'NONE',  ( -32.50000000000000000, 0.000000000000000000, -7.500000000000000000 ) ) ;
#119 = VECTOR ( 'NONE', #789, 1000.000000000000000 ) ;
#120 = CIRCLE ( 'NONE', #162, 1.500000000000000444 ) ;
#121 = EDGE_LOOP ( 'NONE', ( #273, #779, #925, #474 ) ) ;
#122 = CARTESIAN_POINT ( 'NONE',  ( -30.00000000000000000, 0.000000000000000000, -4.999999999999996447 ) ) ;
#123 = CARTESIAN_POINT ( 'NONE',  ( 15.00000000000000000, 0.000000000000000000, 5.000000000000003553 ) ) ;
#124 = EDGE_CURVE ( 'NONE', #616, #689, #879, .T. ) ;
#125 = VECTOR ( 'NONE', #135, 1000.000000000000000 ) ;
#126 = AXIS2_PLACEMENT_3D ( 'NONE', #320, #525, #763 ) ;
#127 = CARTESIAN_POINT ( 'NONE',  ( -32.50000000000000000, 0.000000000000000000, -7.500000000000000000 ) ) ;
#128 = MECHANICAL_CONTEXT ( 'NONE', #810, 'mechanical' ) ;
#129 = AXIS2_PLACEMENT_3D ( 'NONE', #554, #485, #175 ) ;
#130 = DIRECTION ( 'NONE',  ( 0.000000000000000000, 0.000000000000000000, 1.000000000000000000 ) ) ;
#131 = AXIS2_PLACEMENT_3D ( 'NONE', #560, #643, #107 ) ;
#132 = LINE ( 'NONE', #127, #292 ) ;
#133 =( NAMED_UNIT ( * ) SI_UNIT ( $, .STERADIAN. ) SOLID_ANGLE_UNIT ( ) );
#134 = EDGE_CURVE ( 'NONE', #552, #647, #243, .T. ) ;
#135 = DIRECTION ( 'NONE',  ( 0.000000000000000000, -1.000000000000000000, 0.000000000000000000 ) ) ;
#136 = COORDINATED_UNIVERSAL_TIME_OFFSET ( 8, 0, .AHEAD. ) ;
#137 = CC_DESIGN_PERSON_AND_ORGANIZATION_ASSIGNMENT ( #796, #950, ( #656 ) ) ;
#138 = CARTESIAN_POINT ( 'NONE',  ( -29.50000000000000355, 0.000000000000000000, 4.500000000000000000 ) ) ;
#139 = CARTESIAN_POINT ( 'NONE',  ( -30.00000000000000000, 0.000000000000000000, -4.999999999999996447 ) ) ;
#140 = APPROVAL_DATE_TIME ( #808, #902 ) ;
#141 = FACE_OUTER_BOUND ( 'NONE', #844, .T. ) ;
#142 = EDGE_CURVE ( 'NONE', #824, #548, #145, .T. ) ;
#143 = ORIENTED_EDGE ( 'NONE', *, *, #73, .F. ) ;
#144 = DIRECTION ( 'NONE',  ( -0.000000000000000000, 1.000000000000000000, -0.000000000000000000 ) ) ;
#145 = CIRCLE ( 'NONE', #447, 1.500000000000002220 ) ;
#146 = FACE_OUTER_BOUND ( 'NONE', #524, .T. ) ;
#147 = CARTESIAN_POINT ( 'NONE',  ( -14.99999999999999822, 3.000000000000000000, 3.500000000000000888 ) ) ;
#148 = ORIENTED_EDGE ( 'NONE', *, *, #772, .F. ) ;
#149 = AXIS2_PLACEMENT_3D ( 'NONE', #340, #627, #432 ) ;
#150 = EDGE_CURVE ( 'NONE', #548, #824, #325, .T. ) ;
#151 = ORIENTED_EDGE ( 'NONE', *, *, #801, .F. ) ;
#152 = CYLINDRICAL_SURFACE ( 'NONE', #368, 1.499999999999996891 ) ;
#153 = ORIENTED_EDGE ( 'NONE', *, *, #438, .F. ) ;
#154 = CARTESIAN_POINT ( 'NONE',  ( 30.00000000000000000, 0.000000000000000000, 5.000000000000003553 ) ) ;
#155 = VECTOR ( 'NONE', #327, 1000.000000000000000 ) ;
#156 = ORIENTED_EDGE ( 'NONE', *, *, #448, .F. ) ;
#157 = ORIENTED_EDGE ( 'NONE', *, *, #366, .T. ) ;
#158 = DIRECTION ( 'NONE',  ( 0.000000000000000000, 0.000000000000000000, 1.000000000000000000 ) ) ;
#159 = ORIENTED_EDGE ( 'NONE', *, *, #916, .T. ) ;
#160 = CARTESIAN_POINT ( 'NONE',  ( 29.50000000000000000, 3.000000000000000000, -4.500000000000000000 ) ) ;
#161 = AXIS2_PLACEMENT_3D ( 'NONE', #307, #528, #158 ) ;
#162 = AXIS2_PLACEMENT_3D ( 'NONE', #123, #700, #348 ) ;
#163 = CARTESIAN_POINT ( 'NONE',  ( 29.50000000000000000, 3.000000000000000000, -7.500000000000000000 ) ) ;
#164 = AXIS2_PLACEMENT_3D ( 'NONE', #299, #596, #894 ) ;
#165 = ORIENTED_EDGE ( 'NONE', *, *, #959, .T. ) ;
#166 = CARTESIAN_POINT ( 'NONE',  ( 32.50000000000000711, 0.000000000000000000, 4.499999999999997335 ) ) ;
#167 = ORIENTED_EDGE ( 'NONE', *, *, #966, .T. ) ;
#168 = CYLINDRICAL_SURFACE ( 'NONE', #919, 1.500000000000000444 ) ;
#169 = ORIENTED_EDGE ( 'NONE', *, *, #207, .T. ) ;
#170 = CARTESIAN_POINT ( 'NONE',  ( -14.99999999999999822, 3.000000000000000000, -4.999999999999996447 ) ) ;
#171 = ORIENTED_EDGE ( 'NONE', *, *, #852, .F. ) ;
#172 = EDGE_CURVE ( 'NONE', #376, #270, #389, .T. ) ;
#173 = DIRECTION ( 'NONE',  ( 0.000000000000000000, 1.000000000000000000, 0.000000000000000000 ) ) ;
#174 = ORIENTED_EDGE ( 'NONE', *, *, #377, .T. ) ;
#175 = DIRECTION ( 'NONE',  ( 0.000000000000000000, 0.000000000000000000, 1.000000000000000000 ) ) ;
#176 = VERTEX_POINT ( 'NONE', #846 ) ;
#177 = EDGE_CURVE ( 'NONE', #584, #555, #371, .T. ) ;
#178 = FACE_OUTER_BOUND ( 'NONE', #928, .T. ) ;
#179 = DIRECTION ( 'NONE',  ( 0.000000000000000000, 1.000000000000000000, 0.000000000000000000 ) ) ;
#180 = VERTEX_POINT ( 'NONE', #680 ) ;
#181 = CARTESIAN_POINT ( 'NONE',  ( -32.50000000000000000, 3.000000000000000000, -7.500000000000000000 ) ) ;
#182 = FACE_OUTER_BOUND ( 'NONE', #593, .T. ) ;
#183 = ORIENTED_EDGE ( 'NONE', *, *, #812, .T. ) ;
#184 = ORIENTED_EDGE ( 'NONE', *, *, #78, .F. ) ;
#185 = DIRECTION ( 'NONE',  ( 0.000000000000000000, 0.000000000000000000, 1.000000000000000000 ) ) ;
#186 = LINE ( 'NONE', #487, #345 ) ;
#187 = EDGE_CURVE ( 'NONE', #917, #9, #606, .T. ) ;
#188 = ORIENTED_EDGE ( 'NONE', *, *, #951, .T. ) ;
#189 = FACE_BOUND ( 'NONE', #476, .T. ) ;
#190 = DIRECTION ( 'NONE',  ( 1.000000000000000000, 0.000000000000000000, 0.000000000000000000 ) ) ;
#191 = CARTESIAN_POINT ( 'NONE',  ( -30.00000000000000000, 3.000000000000000000, 5.000000000000003553 ) ) ;
#192 = PERSON_AND_ORGANIZATION_ROLE ( 'creator' ) ;
#193 = LOCAL_TIME ( 19, 49, 0.000000000000000000, #790 ) ;
#194 = EDGE_CURVE ( 'NONE', #321, #458, #799, .T. ) ;
#195 = ORIENTED_EDGE ( 'NONE', *, *, #778, .T. ) ;
#196 = DIRECTION ( 'NONE',  ( 0.000000000000000000, -0.000000000000000000, 1.000000000000000000 ) ) ;
#197 = LINE ( 'NONE', #334, #922 ) ;
#198 = CARTESIAN_POINT ( 'NONE',  ( 32.50000000000000711, 3.000000000000000000, 4.499999999999997335 ) ) ;
#199 = PERSON_AND_ORGANIZATION ( #556, #610 ) ;
#200 = CIRCLE ( 'NONE', #742, 1.500000000000000444 ) ;
#201 = CYLINDRICAL_SURFACE ( 'NONE', #452, 3.000000000000000000 ) ;
#202 = CIRCLE ( 'NONE', #70, 3.000000000000000000 ) ;
#203 = EDGE_LOOP ( 'NONE', ( #706, #495, #948, #423 ) ) ;
#204 = DIRECTION ( 'NONE',  ( 0.000000000000000000, 1.000000000000000000, 0.000000000000000000 ) ) ;
#205 = APPROVAL_DATE_TIME ( #729, #815 ) ;
#206 = PLANE ( 'NONE',  #702 ) ;
#207 = EDGE_CURVE ( 'NONE', #106, #848, #592, .T. ) ;
#208 = DATE_AND_TIME ( #54, #687 ) ;
#209 = CIRCLE ( 'NONE', #907, 1.499999999999996891 ) ;
#210 = CYLINDRICAL_SURFACE ( 'NONE', #72, 1.500000000000000444 ) ;
#211 = VECTOR ( 'NONE', #55, 1000.000000000000000 ) ;
#212 = DIRECTION ( 'NONE',  ( 0.000000000000000000, 0.000000000000000000, 1.000000000000000000 ) ) ;
#213 = VECTOR ( 'NONE', #473, 1000.000000000000000 ) ;
#214 = DATE_TIME_ROLE ( 'classification_date' ) ;
#215 = EDGE_CURVE ( 'NONE', #388, #724, #541, .T. ) ;
#216 = CARTESIAN_POINT ( 'NONE',  ( 15.00000000000000000, 3.000000000000000000, 5.000000000000003553 ) ) ;
#217 = ORIENTED_EDGE ( 'NONE', *, *, #637, .T. ) ;
#218 = DIRECTION ( 'NONE',  ( 0.000000000000000000, 1.000000000000000000, 0.000000000000000000 ) ) ;
#219 = ADVANCED_FACE ( 'NONE', ( #708 ), #794, .F. ) ;
#220 = CC_DESIGN_APPROVAL ( #902, ( #650 ) ) ;
#221 = CALENDAR_DATE ( 2026, 8, 5 ) ;
#222 = ORIENTED_EDGE ( 'NONE', *, *, #889, .T. ) ;
#223 = FACE_BOUND ( 'NONE', #469, .T. ) ;
#224 = CARTESIAN_POINT ( 'NONE',  ( -30.00000000000000000, -7.000000000000000000, -4.999999999999996447 ) ) ;
#225 = EDGE_CURVE ( 'NONE', #106, #376, #197, .T. ) ;
#226 = EDGE_LOOP ( 'NONE', ( #87, #526 ) ) ;
#227 = LINE ( 'NONE', #782, #445 ) ;
#228 = EDGE_LOOP ( 'NONE', ( #407, #288 ) ) ;
#229 = FACE_OUTER_BOUND ( 'NONE', #642, .T. ) ;
#230 = ORIENTED_EDGE ( 'NONE', *, *, #594, .F. ) ;
#231 = LINE ( 'NONE', #378, #40 ) ;
#232 = ORIENTED_EDGE ( 'NONE', *, *, #527, .T. ) ;
#233 = DIRECTION ( 'NONE',  ( 0.000000000000000000, 0.000000000000000000, 1.000000000000000000 ) ) ;
#234 = ORIENTED_EDGE ( 'NONE', *, *, #886, .F. ) ;
#235 = CLOSED_SHELL ( 'NONE', ( #837, #100, #908, #898, #411, #463, #441, #691, #300, #219, #282, #318, #603, #746, #396, #807, #13, #709, #403, #658, #269, #251, #674, #664, #116, #59 ) ) ;
#236 = EDGE_LOOP ( 'NONE', ( #171, #387, #217, #566 ) ) ;
#237 = CYLINDRICAL_SURFACE ( 'NONE', #578, 1.500000000000002220 ) ;
#238 = EDGE_LOOP ( 'NONE', ( #3, #893, #34, #833 ) ) ;
#239 = VECTOR ( 'NONE', #501, 1000.000000000000000 ) ;
#240 = ORIENTED_EDGE ( 'NONE', *, *, #522, .F. ) ;
#241 = DIRECTION ( 'NONE',  ( -0.000000000000000000, -1.000000000000000000, -0.000000000000000000 ) ) ;
#242 = CIRCLE ( 'NONE', #890, 1.500000000000002220 ) ;
#243 = CIRCLE ( 'NONE', #798, 1.499999999999996891 ) ;
#244 = EDGE_CURVE ( 'NONE', #623, #398, #420, .T. ) ;
#245 = ORIENTED_EDGE ( 'NONE', *, *, #801, .T. ) ;
#246 = CYLINDRICAL_SURFACE ( 'NONE', #667, 1.500000000000002220 ) ;
#247 = ORIENTED_EDGE ( 'NONE', *, *, #519, .F. ) ;
#248 = LINE ( 'NONE', #704, #964 ) ;
#249 = CIRCLE ( 'NONE', #410, 1.500000000000002220 ) ;
#250 = VERTEX_POINT ( 'NONE', #775 ) ;
#251 = ADVANCED_FACE ( 'NONE', ( #108 ), #629, .T. ) ;
#252 = FACE_OUTER_BOUND ( 'NONE', #203, .T. ) ;
#253 = EDGE_LOOP ( 'NONE', ( #81, #195, #184, #29 ) ) ;
#254 = LINE ( 'NONE', #401, #462 ) ;
#255 = DIRECTION ( 'NONE',  ( 0.000000000000000000, 0.000000000000000000, 1.000000000000000000 ) ) ;
#256 = EDGE_LOOP ( 'NONE', ( #464, #762, #234, #143 ) ) ;
#257 = CARTESIAN_POINT ( 'NONE',  ( -14.99999999999999822, 3.000000000000000000, -3.499999999999994227 ) ) ;
#258 = DIRECTION ( 'NONE',  ( -4.625929269271485914E-16, -0.000000000000000000, -1.000000000000000000 ) ) ;
#259 = VERTEX_POINT ( 'NONE', #787 ) ;
#260 = EDGE_CURVE ( 'NONE', #917, #117, #120, .T. ) ;
#261 = FACE_OUTER_BOUND ( 'NONE', #253, .T. ) ;
#262 = DIRECTION ( 'NONE',  ( 0.000000000000000000, 1.000000000000000000, 0.000000000000000000 ) ) ;
#263 = ORIENTED_EDGE ( 'NONE', *, *, #959, .F. ) ;
#264 = CYLINDRICAL_SURFACE ( 'NONE', #802, 1.499999999999996891 ) ;
#265 = DIRECTION ( 'NONE',  ( 0.000000000000000000, 0.000000000000000000, 1.000000000000000000 ) ) ;
#266 = ORIENTED_EDGE ( 'NONE', *, *, #889, .F. ) ;
#267 = LINE ( 'NONE', #103, #874 ) ;
#268 = PERSON_AND_ORGANIZATION ( #556, #610 ) ;
#269 = ADVANCED_FACE ( 'NONE', ( #182 ), #934, .T. ) ;
#270 = VERTEX_POINT ( 'NONE', #414 ) ;
#271 = CARTESIAN_POINT ( 'NONE',  ( -30.00000000000000000, -7.000000000000000000, -6.499999999999997335 ) ) ;
#272 = CARTESIAN_POINT ( 'NONE',  ( 15.00000000000000000, -7.000000000000000000, 3.500000000000003109 ) ) ;
#273 = ORIENTED_EDGE ( 'NONE', *, *, #565, .F. ) ;
#274 = FACE_OUTER_BOUND ( 'NONE', #760, .T. ) ;
#275 = PERSON_AND_ORGANIZATION ( #556, #610 ) ;
#276 = APPROVAL_PERSON_ORGANIZATION ( #199, #342, #435 ) ;
#277 = ORIENTED_EDGE ( 'NONE', *, *, #697, .T. ) ;
#278 = CARTESIAN_POINT ( 'NONE',  ( 30.00000000000000000, 0.000000000000000000, -3.499999999999999556 ) ) ;
#279 = CARTESIAN_POINT ( 'NONE',  ( 30.00000000000000000, 3.000000000000000000, -4.999999999999996447 ) ) ;
#280 = CARTESIAN_POINT ( 'NONE',  ( 0.000000000000000000, 0.000000000000000000, 0.000000000000000000 ) ) ;
#281 = CARTESIAN_POINT ( 'NONE',  ( -14.99999999999999822, 3.000000000000000000, -6.499999999999999112 ) ) ;
#282 = ADVANCED_FACE ( 'NONE', ( #115 ), #857, .F. ) ;
#283 = EDGE_LOOP ( 'NONE', ( #151, #960, #609, #633 ) ) ;
#284 = DIRECTION ( 'NONE',  ( 1.000000000000000000, 0.000000000000000000, 0.000000000000000000 ) ) ;
#285 = CARTESIAN_POINT ( 'NONE',  ( -29.50000000000000355, 3.000000000000000000, -4.500000000000000000 ) ) ;
#286 = VECTOR ( 'NONE', #806, 1000.000000000000000 ) ;
#287 = CC_DESIGN_PERSON_AND_ORGANIZATION_ASSIGNMENT ( #804, #564, ( #112 ) ) ;
#288 = ORIENTED_EDGE ( 'NONE', *, *, #784, .F. ) ;
#289 = DIRECTION ( 'NONE',  ( -0.000000000000000000, 1.000000000000000000, -0.000000000000000000 ) ) ;
#290 = LOCAL_TIME ( 19, 49, 0.000000000000000000, #136 ) ;
#291 = EDGE_CURVE ( 'NONE', #426, #176, #322, .T. ) ;
#292 = VECTOR ( 'NONE', #877, 1000.000000000000000 ) ;
#293 = VECTOR ( 'NONE', #776, 1000.000000000000000 ) ;
#294 = DIRECTION ( 'NONE',  ( 0.000000000000000000, 0.000000000000000000, 1.000000000000000000 ) ) ;
#295 = AXIS2_PLACEMENT_3D ( 'NONE', #735, #897, #60 ) ;
#296 = UNCERTAINTY_MEASURE_WITH_UNIT (LENGTH_MEASURE( 1.000000000000000082E-05 ), #468, 'distance_accuracy_value', 'NONE');
#297 = DIRECTION ( 'NONE',  ( 0.000000000000000000, 1.000000000000000000, 0.000000000000000000 ) ) ;
#298 = VECTOR ( 'NONE', #864, 1000.000000000000000 ) ;
#299 = CARTESIAN_POINT ( 'NONE',  ( 15.00000000000000000, -7.000000000000000000, 5.000000000000003553 ) ) ;
#300 = ADVANCED_FACE ( 'NONE', ( #252 ), #547, .F. ) ;
#301 = CIRCLE ( 'NONE', #33, 1.500000000000000444 ) ;
#302 = ORIENTED_EDGE ( 'NONE', *, *, #150, .F. ) ;
#303 = DIRECTION ( 'NONE',  ( -0.000000000000000000, 1.000000000000000000, -0.000000000000000000 ) ) ;
#304 = ORIENTED_EDGE ( 'NONE', *, *, #585, .T. ) ;
#305 = LINE ( 'NONE', #621, #827 ) ;
#306 = ORIENTED_EDGE ( 'NONE', *, *, #852, .T. ) ;
#307 = CARTESIAN_POINT ( 'NONE',  ( 15.00000000000000000, -7.000000000000000000, 5.000000000000003553 ) ) ;
#308 = DIRECTION ( 'NONE',  ( 0.000000000000000000, 1.000000000000000000, 0.000000000000000000 ) ) ;
#309 = DIRECTION ( 'NONE',  ( 0.000000000000000000, 1.000000000000000000, 0.000000000000000000 ) ) ;
#310 = ORIENTED_EDGE ( 'NONE', *, *, #498, .T. ) ;
#311 = CARTESIAN_POINT ( 'NONE',  ( -29.50000000000000355, 0.000000000000000000, -7.500000000000000000 ) ) ;
#312 = ORIENTED_EDGE ( 'NONE', *, *, #361, .T. ) ;
#313 = CYLINDRICAL_SURFACE ( 'NONE', #705, 1.500000000000000444 ) ;
#314 = ORIENTED_EDGE ( 'NONE', *, *, #62, .T. ) ;
#315 = ORIENTED_EDGE ( 'NONE', *, *, #784, .T. ) ;
#316 = CIRCLE ( 'NONE', #56, 1.499999999999996891 ) ;
#317 = CYLINDRICAL_SURFACE ( 'NONE', #570, 1.500000000000000444 ) ;
#318 = ADVANCED_FACE ( 'NONE', ( #261 ), #454, .F. ) ;
#319 = ORIENTED_EDGE ( 'NONE', *, *, #134, .F. ) ;
#320 = CARTESIAN_POINT ( 'NONE',  ( 30.00000000000000000, 0.000000000000000000, -4.999999999999996447 ) ) ;
#321 = VERTEX_POINT ( 'NONE', #599 ) ;
#322 = CIRCLE ( 'NONE', #743, 1.500000000000000444 ) ;
#323 = LINE ( 'NONE', #915, #759 ) ;
#324 = EDGE_CURVE ( 'NONE', #689, #616, #500, .T. ) ;
#325 = CIRCLE ( 'NONE', #591, 1.500000000000002220 ) ;
#326 = ORIENTED_EDGE ( 'NONE', *, *, #876, .F. ) ;
#327 = DIRECTION ( 'NONE',  ( -0.000000000000000000, 1.000000000000000000, -0.000000000000000000 ) ) ;
#328 = ORIENTED_EDGE ( 'NONE', *, *, #565, .T. ) ;
#329 = CARTESIAN_POINT ( 'NONE',  ( 30.00000000000000000, -7.000000000000000000, 5.000000000000003553 ) ) ;
#330 = LINE ( 'NONE', #19, #213 ) ;
#331 = CIRCLE ( 'NONE', #513, 3.000000000000000000 ) ;
#332 = EDGE_LOOP ( 'NONE', ( #544, #531, #562, #232 ) ) ;
#333 = DIRECTION ( 'NONE',  ( 0.000000000000000000, 0.000000000000000000, 1.000000000000000000 ) ) ;
#334 = CARTESIAN_POINT ( 'NONE',  ( 32.50000000000000000, 0.000000000000000000, -7.500000000000000000 ) ) ;
#335 = EDGE_CURVE ( 'NONE', #456, #46, #267, .T. ) ;
#336 = CIRCLE ( 'NONE', #491, 1.500000000000002220 ) ;
#337 = CARTESIAN_POINT ( 'NONE',  ( -30.00000000000000000, -7.000000000000000000, 5.000000000000003553 ) ) ;
#338 = DIRECTION ( 'NONE',  ( -0.000000000000000000, 1.000000000000000000, -0.000000000000000000 ) ) ;
#339 = ORIENTED_EDGE ( 'NONE', *, *, #522, .T. ) ;
#340 = CARTESIAN_POINT ( 'NONE',  ( 15.00000000000000000, 0.000000000000000000, -4.999999999999996447 ) ) ;
#341 = DIRECTION ( 'NONE',  ( 0.000000000000000000, 0.000000000000000000, -1.000000000000000000 ) ) ;
#342 = APPROVAL ( #425, 'æœª' ) ;
#343 = EDGE_LOOP ( 'NONE', ( #868, #404 ) ) ;
#344 = FACE_OUTER_BOUND ( 'NONE', #79, .T. ) ;
#345 = VECTOR ( 'NONE', #923, 1000.000000000000000 ) ;
#346 = ORIENTED_EDGE ( 'NONE', *, *, #291, .T. ) ;
#347 = DIRECTION ( 'NONE',  ( 0.000000000000000000, 0.000000000000000000, 1.000000000000000000 ) ) ;
#348 = DIRECTION ( 'NONE',  ( 0.000000000000000000, 0.000000000000000000, 1.000000000000000000 ) ) ;
#349 = CARTESIAN_POINT ( 'NONE',  ( 15.00000000000000000, 0.000000000000000000, 5.000000000000003553 ) ) ;
#350 = ORIENTED_EDGE ( 'NONE', *, *, #765, .T. ) ;
#351 = DIRECTION ( 'NONE',  ( 0.000000000000000000, 1.000000000000000000, 0.000000000000000000 ) ) ;
#352 = EDGE_LOOP ( 'NONE', ( #792, #415 ) ) ;
#353 = DIRECTION ( 'NONE',  ( 0.000000000000000000, 0.000000000000000000, 1.000000000000000000 ) ) ;
#354 = EDGE_CURVE ( 'NONE', #689, #250, #624, .T. ) ;
#355 = CIRCLE ( 'NONE', #365, 1.500000000000000444 ) ;
#356 = DIRECTION ( 'NONE',  ( 0.000000000000000000, 1.000000000000000000, 0.000000000000000000 ) ) ;
#357 = ORIENTED_EDGE ( 'NONE', *, *, #477, .F. ) ;
#358 = EDGE_CURVE ( 'NONE', #117, #259, #227, .T. ) ;
#359 = DIRECTION ( 'NONE',  ( -0.000000000000000000, -1.000000000000000000, -0.000000000000000000 ) ) ;
#360 = FACE_BOUND ( 'NONE', #226, .T. ) ;
#361 = EDGE_CURVE ( 'NONE', #828, #458, #712, .T. ) ;
#362 = CALENDAR_DATE ( 2026, 8, 5 ) ;
#363 = AXIS2_PLACEMENT_3D ( 'NONE', #675, #76, #911 ) ;
#364 = LINE ( 'NONE', #374, #840 ) ;
#365 = AXIS2_PLACEMENT_3D ( 'NONE', #417, #179, #482 ) ;
#366 = EDGE_CURVE ( 'NONE', #622, #516, #18, .T. ) ;
#367 = CIRCLE ( 'NONE', #754, 1.500000000000000444 ) ;
#368 = AXIS2_PLACEMENT_3D ( 'NONE', #329, #747, #639 ) ;
#369 = DIRECTION ( 'NONE',  ( -0.000000000000000000, 1.000000000000000000, -0.000000000000000000 ) ) ;
#370 = CIRCLE ( 'NONE', #295, 3.000000000000000000 ) ;
#371 = CIRCLE ( 'NONE', #503, 1.500000000000002220 ) ;
#372 = AXIS2_PLACEMENT_3D ( 'NONE', #718, #44, #497 ) ;
#373 = ORIENTED_EDGE ( 'NONE', *, *, #366, .F. ) ;
#374 = CARTESIAN_POINT ( 'NONE',  ( 29.50000000000001066, 3.000000000000000000, 7.500000000000000000 ) ) ;
#375 = AXIS2_PLACEMENT_3D ( 'NONE', #786, #793, #634 ) ;
#376 = VERTEX_POINT ( 'NONE', #481 ) ;
#377 = EDGE_CURVE ( 'NONE', #483, #270, #254, .T. ) ;
#378 = CARTESIAN_POINT ( 'NONE',  ( 30.00000000000000000, -7.000000000000000000, 6.500000000000000888 ) ) ;
#379 = CYLINDRICAL_SURFACE ( 'NONE', #363, 1.500000000000002220 ) ;
#380 = FACE_OUTER_BOUND ( 'NONE', #766, .T. ) ;
#381 = ORIENTED_EDGE ( 'NONE', *, *, #812, .F. ) ;
#382 = CYLINDRICAL_SURFACE ( 'NONE', #161, 1.500000000000000444 ) ;
#383 = VERTEX_POINT ( 'NONE', #904 ) ;
#384 = DIRECTION ( 'NONE',  ( 0.000000000000000000, 1.000000000000000000, 0.000000000000000000 ) ) ;
#385 = ORIENTED_EDGE ( 'NONE', *, *, #861, .T. ) ;
#386 = VECTOR ( 'NONE', #783, 1000.000000000000000 ) ;
#387 = ORIENTED_EDGE ( 'NONE', *, *, #142, .F. ) ;
#388 = VERTEX_POINT ( 'NONE', #550 ) ;
#389 = LINE ( 'NONE', #543, #921 ) ;
#390 = ORIENTED_EDGE ( 'NONE', *, *, #916, .F. ) ;
#391 = EDGE_CURVE ( 'NONE', #529, #623, #41, .T. ) ;
#392 = DIRECTION ( 'NONE',  ( -0.000000000000000000, 1.000000000000000000, -0.000000000000000000 ) ) ;
#393 = ORIENTED_EDGE ( 'NONE', *, *, #741, .T. ) ;
#394 = DIRECTION ( 'NONE',  ( 0.000000000000000000, 0.000000000000000000, 1.000000000000000000 ) ) ;
#395 = APPROVAL_PERSON_ORGANIZATION ( #588, #902, #509 ) ;
#396 = ADVANCED_FACE ( 'NONE', ( #344 ), #152, .F. ) ;
#397 = DIRECTION ( 'NONE',  ( -0.000000000000000000, 1.000000000000000000, -0.000000000000000000 ) ) ;
#398 = VERTEX_POINT ( 'NONE', #523 ) ;
#399 = CARTESIAN_POINT ( 'NONE',  ( -32.50000000000000000, 3.000000000000000000, -4.500000000000000000 ) ) ;
#400 = EDGE_LOOP ( 'NONE', ( #84, #373, #339, #752 ) ) ;
#401 = CARTESIAN_POINT ( 'NONE',  ( 32.50000000000000000, 3.000000000000000000, -7.500000000000000000 ) ) ;
#402 = DIRECTION ( 'NONE',  ( 1.156482317317871331E-15, 0.000000000000000000, 1.000000000000000000 ) ) ;
#403 = ADVANCED_FACE ( 'NONE', ( #853 ), #4, .T. ) ;
#404 = ORIENTED_EDGE ( 'NONE', *, *, #215, .F. ) ;
#405 = CARTESIAN_POINT ( 'NONE',  ( 29.50000000000000711, 3.000000000000000000, 4.499999999999999112 ) ) ;
#406 = DIRECTION ( 'NONE',  ( 0.000000000000000000, -1.000000000000000000, 0.000000000000000000 ) ) ;
#407 = ORIENTED_EDGE ( 'NONE', *, *, #969, .F. ) ;
#408 = DIRECTION ( 'NONE',  ( 0.000000000000000000, 0.000000000000000000, -1.000000000000000000 ) ) ;
#409 = LINE ( 'NONE', #99, #386 ) ;
#410 = AXIS2_PLACEMENT_3D ( 'NONE', #35, #351, #130 ) ;
#411 = ADVANCED_FACE ( 'NONE', ( #146 ), #859, .F. ) ;
#412 = ORIENTED_EDGE ( 'NONE', *, *, #886, .T. ) ;
#413 = CARTESIAN_POINT ( 'NONE',  ( -30.00000000000000000, 0.000000000000000000, 5.000000000000003553 ) ) ;
#414 = CARTESIAN_POINT ( 'NONE',  ( 32.50000000000000000, 3.000000000000000000, -4.500000000000001776 ) ) ;
#415 = ORIENTED_EDGE ( 'NONE', *, *, #533, .F. ) ;
#416 = DIRECTION ( 'NONE',  ( -4.625929269271485914E-16, -0.000000000000000000, -1.000000000000000000 ) ) ;
#417 = CARTESIAN_POINT ( 'NONE',  ( 15.00000000000000000, 3.000000000000000000, -4.999999999999996447 ) ) ;
#418 = EDGE_LOOP ( 'NONE', ( #57, #832, #148, #757 ) ) ;
#419 = CARTESIAN_POINT ( 'NONE',  ( -30.00000000000000000, 0.000000000000000000, 6.500000000000004441 ) ) ;
#420 = LINE ( 'NONE', #947, #298 ) ;
#421 = AXIS2_PLACEMENT_3D ( 'NONE', #751, #703, #450 ) ;
#422 = VECTOR ( 'NONE', #937, 1000.000000000000000 ) ;
#423 = ORIENTED_EDGE ( 'NONE', *, *, #739, .T. ) ;
#424 = DIRECTION ( 'NONE',  ( 0.000000000000000000, 0.000000000000000000, 1.000000000000000000 ) ) ;
#425 = APPROVAL_STATUS ( 'not_yet_approved' ) ;
#426 = VERTEX_POINT ( 'NONE', #631 ) ;
#427 = DIRECTION ( 'NONE',  ( 0.000000000000000000, -1.000000000000000000, 0.000000000000000000 ) ) ;
#428 = CARTESIAN_POINT ( 'NONE',  ( -29.50000000000000355, 3.000000000000000000, 4.500000000000000000 ) ) ;
#429 = LINE ( 'NONE', #728, #791 ) ;
#430 = CALENDAR_DATE ( 2026, 8, 5 ) ;
#431 = CIRCLE ( 'NONE', #149, 1.500000000000000444 ) ;
#432 = DIRECTION ( 'NONE',  ( 0.000000000000000000, 0.000000000000000000, 1.000000000000000000 ) ) ;
#433 = ORIENTED_EDGE ( 'NONE', *, *, #391, .T. ) ;
#434 = CARTESIAN_POINT ( 'NONE',  ( -30.00000000000000000, 0.000000000000000000, 3.500000000000002665 ) ) ;
#435 = APPROVAL_ROLE ( '' ) ;
#436 =( GEOMETRIC_REPRESENTATION_CONTEXT ( 3 ) GLOBAL_UNCERTAINTY_ASSIGNED_CONTEXT ( ( #296 ) ) GLOBAL_UNIT_ASSIGNED_CONTEXT ( ( #468, #655, #133 ) ) REPRESENTATION_CONTEXT ( 'NONE', 'WORKASPACE' ) );
#437 = DIRECTION ( 'NONE',  ( 0.000000000000000000, 1.000000000000000000, 0.000000000000000000 ) ) ;
#438 = EDGE_CURVE ( 'NONE', #647, #724, #231, .T. ) ;
#439 = CARTESIAN_POINT ( 'NONE',  ( 32.50000000000000711, 3.000000000000000000, 4.499999999999997335 ) ) ;
#440 = LINE ( 'NONE', #511, #748 ) ;
#441 = ADVANCED_FACE ( 'NONE', ( #178 ), #382, .F. ) ;
#442 = DIRECTION ( 'NONE',  ( 0.000000000000000000, 1.000000000000000000, 0.000000000000000000 ) ) ;
#443 = CC_DESIGN_APPROVAL ( #815, ( #112 ) ) ;
#444 = DATE_AND_TIME ( #362, #15 ) ;
#445 = VECTOR ( 'NONE', #460, 1000.000000000000000 ) ;
#446 = CARTESIAN_POINT ( 'NONE',  ( -14.99999999999999822, 0.000000000000000000, 5.000000000000003553 ) ) ;
#447 = AXIS2_PLACEMENT_3D ( 'NONE', #6, #753, #394 ) ;
#448 = EDGE_CURVE ( 'NONE', #426, #180, #23, .T. ) ;
#449 = VECTOR ( 'NONE', #941, 1000.000000000000000 ) ;
#450 = DIRECTION ( 'NONE',  ( 0.000000000000000000, 0.000000000000000000, -1.000000000000000000 ) ) ;
#451 = DIRECTION ( 'NONE',  ( 0.000000000000000000, 0.000000000000000000, 1.000000000000000000 ) ) ;
#452 = AXIS2_PLACEMENT_3D ( 'NONE', #405, #427, #699 ) ;
#453 = CC_DESIGN_PERSON_AND_ORGANIZATION_ASSIGNMENT ( #268, #192, ( #112 ) ) ;
#454 = PLANE ( 'NONE',  #68 ) ;
#455 = CIRCLE ( 'NONE', #32, 1.500000000000000444 ) ;
#456 = VERTEX_POINT ( 'NONE', #695 ) ;
#457 = DIRECTION ( 'NONE',  ( 0.000000000000000000, 0.000000000000000000, 1.000000000000000000 ) ) ;
#458 = VERTEX_POINT ( 'NONE', #721 ) ;
#459 = ORIENTED_EDGE ( 'NONE', *, *, #438, .T. ) ;
#460 = DIRECTION ( 'NONE',  ( -0.000000000000000000, 1.000000000000000000, -0.000000000000000000 ) ) ;
#461 = VECTOR ( 'NONE', #98, 1000.000000000000000 ) ;
#462 = VECTOR ( 'NONE', #416, 1000.000000000000000 ) ;
#463 = ADVANCED_FACE ( 'NONE', ( #274 ), #571, .F. ) ;
#464 = ORIENTED_EDGE ( 'NONE', *, *, #697, .F. ) ;
#465 = DIRECTION ( 'NONE',  ( -0.000000000000000000, 1.000000000000000000, -0.000000000000000000 ) ) ;
#466 = ORIENTED_EDGE ( 'NONE', *, *, #861, .F. ) ;
#467 = AXIS2_PLACEMENT_3D ( 'NONE', #216, #442, #670 ) ;
#468 =( LENGTH_UNIT ( ) NAMED_UNIT ( * ) SI_UNIT ( .MILLI., .METRE. ) );
#469 = EDGE_LOOP ( 'NONE', ( #638, #626 ) ) ;
#470 = CC_DESIGN_DATE_AND_TIME_ASSIGNMENT ( #444, #214, ( #650 ) ) ;
#471 = DIRECTION ( 'NONE',  ( -0.000000000000000000, 1.000000000000000000, -0.000000000000000000 ) ) ;
#472 = ORIENTED_EDGE ( 'NONE', *, *, #927, .F. ) ;
#473 = DIRECTION ( 'NONE',  ( 0.000000000000000000, -1.000000000000000000, 0.000000000000000000 ) ) ;
#474 = ORIENTED_EDGE ( 'NONE', *, *, #361, .F. ) ;
#475 = DIRECTION ( 'NONE',  ( 1.000000000000000000, 0.000000000000000000, 0.000000000000000000 ) ) ;
#476 = EDGE_LOOP ( 'NONE', ( #900, #858 ) ) ;
#477 = EDGE_CURVE ( 'NONE', #46, #848, #795, .T. ) ;
#478 = DIRECTION ( 'NONE',  ( 0.000000000000000000, 0.000000000000000000, 1.000000000000000000 ) ) ;
#479 = CARTESIAN_POINT ( 'NONE',  ( 15.00000000000000000, 3.000000000000000000, -3.499999999999996003 ) ) ;
#480 = DIRECTION ( 'NONE',  ( 0.000000000000000000, 1.000000000000000000, 0.000000000000000000 ) ) ;
#481 = CARTESIAN_POINT ( 'NONE',  ( 32.50000000000000000, 0.000000000000000000, -4.500000000000001776 ) ) ;
#482 = DIRECTION ( 'NONE',  ( 0.000000000000000000, 0.000000000000000000, 1.000000000000000000 ) ) ;
#483 = VERTEX_POINT ( 'NONE', #198 ) ;
#484 = FACE_BOUND ( 'NONE', #343, .T. ) ;
#485 = DIRECTION ( 'NONE',  ( 0.000000000000000000, 1.000000000000000000, 0.000000000000000000 ) ) ;
#486 = CARTESIAN_POINT ( 'NONE',  ( 30.00000000000000000, 0.000000000000000000, -4.999999999999996447 ) ) ;
#487 = CARTESIAN_POINT ( 'NONE',  ( -14.99999999999999822, -7.000000000000000000, -6.499999999999999112 ) ) ;
#488 = EDGE_LOOP ( 'NONE', ( #390, #263 ) ) ;
#489 = LINE ( 'NONE', #507, #671 ) ;
#490 = DIRECTION ( 'NONE',  ( 0.000000000000000000, 1.000000000000000000, 0.000000000000000000 ) ) ;
#491 = AXIS2_PLACEMENT_3D ( 'NONE', #749, #309, #10 ) ;
#492 = VECTOR ( 'NONE', #338, 1000.000000000000000 ) ;
#493 = LINE ( 'NONE', #118, #913 ) ;
#494 = APPROVAL_ROLE ( '' ) ;
#495 = ORIENTED_EDGE ( 'NONE', *, *, #172, .T. ) ;
#496 = LINE ( 'NONE', #271, #286 ) ;
#497 = DIRECTION ( 'NONE',  ( 1.000000000000000000, 0.000000000000000000, -0.000000000000000000 ) ) ;
#498 = EDGE_CURVE ( 'NONE', #117, #917, #714, .T. ) ;
#499 = AXIS2_PLACEMENT_3D ( 'NONE', #563, #949, #645 ) ;
#500 = CIRCLE ( 'NONE', #615, 1.499999999999996891 ) ;
#501 = DIRECTION ( 'NONE',  ( -0.000000000000000000, 1.000000000000000000, -0.000000000000000000 ) ) ;
#502 = COORDINATED_UNIVERSAL_TIME_OFFSET ( 8, 0, .AHEAD. ) ;
#503 = AXIS2_PLACEMENT_3D ( 'NONE', #170, #80, #693 ) ;
#504 = CARTESIAN_POINT ( 'NONE',  ( 30.00000000000000000, 3.000000000000000000, -3.499999999999999556 ) ) ;
#505 = CARTESIAN_POINT ( 'NONE',  ( -32.50000000000000000, 0.000000000000000000, 7.500000000000000000 ) ) ;
#506 = AXIS2_PLACEMENT_3D ( 'NONE', #953, #356, #725 ) ;
#507 = CARTESIAN_POINT ( 'NONE',  ( -14.99999999999999822, -7.000000000000000000, -3.499999999999994227 ) ) ;
#508 = PERSON_AND_ORGANIZATION ( #556, #610 ) ;
#509 = APPROVAL_ROLE ( '' ) ;
#510 = EDGE_CURVE ( 'NONE', #616, #659, #873, .T. ) ;
#511 = CARTESIAN_POINT ( 'NONE',  ( -29.50000000000000355, 3.000000000000000000, -7.500000000000000000 ) ) ;
#512 = CARTESIAN_POINT ( 'NONE',  ( -30.00000000000000000, -7.000000000000000000, 5.000000000000003553 ) ) ;
#513 = AXIS2_PLACEMENT_3D ( 'NONE', #138, #359, #294 ) ;
#514 = APPROVAL_STATUS ( 'not_yet_approved' ) ;
#515 = DIRECTION ( 'NONE',  ( 0.000000000000000000, 0.000000000000000000, 1.000000000000000000 ) ) ;
#516 = VERTEX_POINT ( 'NONE', #955 ) ;
#517 = FACE_BOUND ( 'NONE', #920, .T. ) ;
#518 = CC_DESIGN_APPROVAL ( #342, ( #628 ) ) ;
#519 = EDGE_CURVE ( 'NONE', #865, #855, #132, .T. ) ;
#520 = FACE_BOUND ( 'NONE', #755, .T. ) ;
#521 = FACE_OUTER_BOUND ( 'NONE', #236, .T. ) ;
#522 = EDGE_CURVE ( 'NONE', #622, #12, #429, .T. ) ;
#523 = CARTESIAN_POINT ( 'NONE',  ( -30.00000000000000000, 3.000000000000000000, 6.500000000000004441 ) ) ;
#524 = EDGE_LOOP ( 'NONE', ( #720, #245, #698, #22 ) ) ;
#525 = DIRECTION ( 'NONE',  ( 0.000000000000000000, 1.000000000000000000, 0.000000000000000000 ) ) ;
#526 = ORIENTED_EDGE ( 'NONE', *, *, #324, .T. ) ;
#527 = EDGE_CURVE ( 'NONE', #659, #250, #834, .T. ) ;
#528 = DIRECTION ( 'NONE',  ( -0.000000000000000000, 1.000000000000000000, -0.000000000000000000 ) ) ;
#529 = VERTEX_POINT ( 'NONE', #434 ) ;
#530 = DIRECTION ( 'NONE',  ( 0.000000000000000000, 0.000000000000000000, 1.000000000000000000 ) ) ;
#531 = ORIENTED_EDGE ( 'NONE', *, *, #124, .F. ) ;
#532 = CARTESIAN_POINT ( 'NONE',  ( 30.00000000000000000, -7.000000000000000000, -4.999999999999996447 ) ) ;
#533 = EDGE_CURVE ( 'NONE', #686, #398, #367, .T. ) ;
#534 = AXIS2_PLACEMENT_3D ( 'NONE', #337, #74, #77 ) ;
#535 = AXIS2_PLACEMENT_3D ( 'NONE', #604, #929, #185 ) ;
#536 = EDGE_LOOP ( 'NONE', ( #694, #882 ) ) ;
#537 = CARTESIAN_POINT ( 'NONE',  ( -29.50000000000000355, 0.000000000000000000, 7.500000000000000000 ) ) ;
#538 = ORIENTED_EDGE ( 'NONE', *, *, #580, .T. ) ;
#539 = CIRCLE ( 'NONE', #467, 1.500000000000000444 ) ;
#540 = CARTESIAN_POINT ( 'NONE',  ( 29.50000000000000711, 3.000000000000000000, 4.499999999999999112 ) ) ;
#541 = CIRCLE ( 'NONE', #129, 1.499999999999996891 ) ;
#542 = DIRECTION ( 'NONE',  ( 0.000000000000000000, 0.000000000000000000, 1.000000000000000000 ) ) ;
#543 = CARTESIAN_POINT ( 'NONE',  ( 32.50000000000000000, 3.000000000000000000, -4.500000000000001776 ) ) ;
#544 = ORIENTED_EDGE ( 'NONE', *, *, #354, .F. ) ;
#545 = CARTESIAN_POINT ( 'NONE',  ( -29.50000000000000355, 0.000000000000000000, -4.500000000000000000 ) ) ;
#546 = EDGE_LOOP ( 'NONE', ( #771, #346 ) ) ;
#547 = PLANE ( 'NONE',  #914 ) ;
#548 = VERTEX_POINT ( 'NONE', #866 ) ;
#549 = EDGE_CURVE ( 'NONE', #785, #25, #493, .T. ) ;
#550 = CARTESIAN_POINT ( 'NONE',  ( 30.00000000000000000, 3.000000000000000000, 3.500000000000006661 ) ) ;
#551 = CARTESIAN_POINT ( 'NONE',  ( 30.00000000000000000, 3.000000000000000000, 5.000000000000003553 ) ) ;
#552 = VERTEX_POINT ( 'NONE', #880 ) ;
#553 = CARTESIAN_POINT ( 'NONE',  ( -14.99999999999999822, 0.000000000000000000, 6.500000000000005329 ) ) ;
#554 = CARTESIAN_POINT ( 'NONE',  ( 30.00000000000000000, 3.000000000000000000, 5.000000000000003553 ) ) ;
#555 = VERTEX_POINT ( 'NONE', #257 ) ;
#556 = PERSON ( 'æœª', 'æœª', 'æœª', ('æœª'), ('æœª'), ('æœª') ) ;
#557 = DIRECTION ( 'NONE',  ( 0.000000000000000000, 1.000000000000000000, 0.000000000000000000 ) ) ;
#558 = CARTESIAN_POINT ( 'NONE',  ( -14.99999999999999822, 0.000000000000000000, -3.499999999999994227 ) ) ;
#559 = EDGE_LOOP ( 'NONE', ( #319, #764, #896, #153 ) ) ;
#560 = CARTESIAN_POINT ( 'NONE',  ( -30.00000000000000000, 3.000000000000000000, 5.000000000000003553 ) ) ;
#561 = DIRECTION ( 'NONE',  ( 0.000000000000000000, 0.000000000000000000, -1.000000000000000000 ) ) ;
#562 = ORIENTED_EDGE ( 'NONE', *, *, #510, .T. ) ;
#563 = CARTESIAN_POINT ( 'NONE',  ( -14.99999999999999822, -7.000000000000000000, 5.000000000000003553 ) ) ;
#564 = PERSON_AND_ORGANIZATION_ROLE ( 'design_supplier' ) ;
#565 = EDGE_CURVE ( 'NONE', #109, #828, #614, .T. ) ;
#566 = ORIENTED_EDGE ( 'NONE', *, *, #69, .T. ) ;
#567 = CARTESIAN_POINT ( 'NONE',  ( -30.00000000000000000, 3.000000000000000000, 3.500000000000002665 ) ) ;
#568 = CARTESIAN_POINT ( 'NONE',  ( -30.00000000000000000, 3.000000000000000000, -4.999999999999996447 ) ) ;
#569 = ORIENTED_EDGE ( 'NONE', *, *, #585, .F. ) ;
#570 = AXIS2_PLACEMENT_3D ( 'NONE', #767, #392, #255 ) ;
#571 = CYLINDRICAL_SURFACE ( 'NONE', #499, 1.500000000000002220 ) ;
#572 = APPLICATION_PROTOCOL_DEFINITION ( 'international standard', 'config_control_design', 1994, #810 ) ;
#573 = PRODUCT_RELATED_PRODUCT_CATEGORY ( 'detail', '', ( #656 ) ) ;
#574 = ORIENTED_EDGE ( 'NONE', *, *, #498, .F. ) ;
#575 = DIRECTION ( 'NONE',  ( -0.000000000000000000, 1.000000000000000000, -0.000000000000000000 ) ) ;
#576 = ORIENTED_EDGE ( 'NONE', *, *, #187, .F. ) ;
#577 = CARTESIAN_POINT ( 'NONE',  ( 30.00000000000000000, -7.000000000000000000, -3.499999999999999556 ) ) ;
#578 = AXIS2_PLACEMENT_3D ( 'NONE', #617, #465, #611 ) ;
#579 = FACE_OUTER_BOUND ( 'NONE', #11, .T. ) ;
#580 = EDGE_CURVE ( 'NONE', #623, #529, #200, .T. ) ;
#581 = ORIENTED_EDGE ( 'NONE', *, *, #324, .F. ) ;
#582 = CIRCLE ( 'NONE', #924, 3.000000000000000000 ) ;
#583 = FACE_BOUND ( 'NONE', #546, .T. ) ;
#584 = VERTEX_POINT ( 'NONE', #281 ) ;
#585 = EDGE_CURVE ( 'NONE', #821, #52, #856, .T. ) ;
#586 = DIRECTION ( 'NONE',  ( -0.000000000000000000, 1.000000000000000000, -0.000000000000000000 ) ) ;
#587 = AXIS2_PLACEMENT_3D ( 'NONE', #102, #406, #561 ) ;
#588 = PERSON_AND_ORGANIZATION ( #556, #610 ) ;
#589 = CARTESIAN_POINT ( 'NONE',  ( 29.50000000000000000, 0.000000000000000000, -4.500000000000000000 ) ) ;
#590 = AXIS2_PLACEMENT_3D ( 'NONE', #589, #958, #64 ) ;
#591 = AXIS2_PLACEMENT_3D ( 'NONE', #95, #676, #688 ) ;
#592 = CIRCLE ( 'NONE', #723, 3.000000000000000000 ) ;
#593 = EDGE_LOOP ( 'NONE', ( #381, #266, #16, #636 ) ) ;
#594 = EDGE_CURVE ( 'NONE', #647, #552, #823, .T. ) ;
#595 = FACE_OUTER_BOUND ( 'NONE', #649, .T. ) ;
#596 = DIRECTION ( 'NONE',  ( -0.000000000000000000, 1.000000000000000000, -0.000000000000000000 ) ) ;
#597 = AXIS2_PLACEMENT_3D ( 'NONE', #545, #241, #402 ) ;
#598 = ORIENTED_EDGE ( 'NONE', *, *, #719, .T. ) ;
#599 = CARTESIAN_POINT ( 'NONE',  ( -30.00000000000000000, 3.000000000000000000, -6.499999999999997335 ) ) ;
#600 = ORIENTED_EDGE ( 'NONE', *, *, #845, .T. ) ;
#601 = CARTESIAN_POINT ( 'NONE',  ( 15.00000000000000000, 0.000000000000000000, 6.500000000000004441 ) ) ;
#602 = APPLICATION_CONTEXT ( 'configuration controlled 3d designs of mechanical parts and assemblies' ) ;
#603 = ADVANCED_FACE ( 'NONE', ( #189, #114, #654, #863, #946, #51, #780, #484, #579 ), #206, .T. ) ;
#604 = CARTESIAN_POINT ( 'NONE',  ( -14.99999999999999822, 0.000000000000000000, 5.000000000000003553 ) ) ;
#605 = ORIENTED_EDGE ( 'NONE', *, *, #358, .F. ) ;
#606 = LINE ( 'NONE', #272, #449 ) ;
#607 = EDGE_CURVE ( 'NONE', #12, #50, #249, .T. ) ;
#608 = DIRECTION ( 'NONE',  ( 0.000000000000000000, 1.000000000000000000, 0.000000000000000000 ) ) ;
#609 = ORIENTED_EDGE ( 'NONE', *, *, #244, .T. ) ;
#610 = ORGANIZATION ( 'æœª', 'æœª', '' ) ;
#611 = DIRECTION ( 'NONE',  ( 0.000000000000000000, 0.000000000000000000, 1.000000000000000000 ) ) ;
#612 = ORIENTED_EDGE ( 'NONE', *, *, #741, .F. ) ;
#613 = CARTESIAN_POINT ( 'NONE',  ( 29.50000000000001066, 0.000000000000000000, 7.500000000000000000 ) ) ;
#614 = CIRCLE ( 'NONE', #888, 1.500000000000000444 ) ;
#615 = AXIS2_PLACEMENT_3D ( 'NONE', #486, #829, #822 ) ;
#616 = VERTEX_POINT ( 'NONE', #278 ) ;
#617 = CARTESIAN_POINT ( 'NONE',  ( -14.99999999999999822, -7.000000000000000000, -4.999999999999996447 ) ) ;
#618 = DIRECTION ( 'NONE',  ( -0.000000000000000000, 1.000000000000000000, -0.000000000000000000 ) ) ;
#619 = EDGE_CURVE ( 'NONE', #176, #426, #431, .T. ) ;
#620 = ORIENTED_EDGE ( 'NONE', *, *, #734, .T. ) ;
#621 = CARTESIAN_POINT ( 'NONE',  ( -32.50000000000000000, 3.000000000000000000, 7.500000000000000000 ) ) ;
#622 = VERTEX_POINT ( 'NONE', #553 ) ;
#623 = VERTEX_POINT ( 'NONE', #419 ) ;
#624 = LINE ( 'NONE', #943, #293 ) ;
#625 = LINE ( 'NONE', #847, #492 ) ;
#626 = ORIENTED_EDGE ( 'NONE', *, *, #134, .T. ) ;
#627 = DIRECTION ( 'NONE',  ( 0.000000000000000000, 1.000000000000000000, 0.000000000000000000 ) ) ;
#628 = PRODUCT_DEFINITION ( 'æœ', '', #112, #65 ) ;
#629 = CYLINDRICAL_SURFACE ( 'NONE', #587, 3.000000000000000000 ) ;
#630 = ORIENTED_EDGE ( 'NONE', *, *, #607, .F. ) ;
#631 = CARTESIAN_POINT ( 'NONE',  ( 15.00000000000000000, 0.000000000000000000, -6.499999999999997335 ) ) ;
#632 = CARTESIAN_POINT ( 'NONE',  ( 15.00000000000000000, 3.000000000000000000, -4.999999999999996447 ) ) ;
#633 = ORIENTED_EDGE ( 'NONE', *, *, #646, .T. ) ;
#634 = DIRECTION ( 'NONE',  ( 0.000000000000000000, 0.000000000000000000, 1.000000000000000000 ) ) ;
#635 = CARTESIAN_POINT ( 'NONE',  ( 15.00000000000000000, 0.000000000000000000, -4.999999999999996447 ) ) ;
#636 = ORIENTED_EDGE ( 'NONE', *, *, #335, .F. ) ;
#637 = EDGE_CURVE ( 'NONE', #824, #555, #489, .T. ) ;
#638 = ORIENTED_EDGE ( 'NONE', *, *, #594, .T. ) ;
#639 = DIRECTION ( 'NONE',  ( 0.000000000000000000, 0.000000000000000000, 1.000000000000000000 ) ) ;
#640 = DIRECTION ( 'NONE',  ( 0.000000000000000000, 0.000000000000000000, 1.000000000000000000 ) ) ;
#641 = VECTOR ( 'NONE', #369, 1000.000000000000000 ) ;
#642 = EDGE_LOOP ( 'NONE', ( #679, #5, #312, #727 ) ) ;
#643 = DIRECTION ( 'NONE',  ( 0.000000000000000000, 1.000000000000000000, 0.000000000000000000 ) ) ;
#644 = DIRECTION ( 'NONE',  ( 0.000000000000000000, -1.000000000000000000, 0.000000000000000000 ) ) ;
#645 = DIRECTION ( 'NONE',  ( 0.000000000000000000, 0.000000000000000000, 1.000000000000000000 ) ) ;
#646 = EDGE_CURVE ( 'NONE', #398, #686, #843, .T. ) ;
#647 = VERTEX_POINT ( 'NONE', #648 ) ;
#648 = CARTESIAN_POINT ( 'NONE',  ( 30.00000000000000000, 0.000000000000000000, 6.500000000000000888 ) ) ;
#649 = EDGE_LOOP ( 'NONE', ( #576, #574, #820, #94 ) ) ;
#650 = SECURITY_CLASSIFICATION ( '', '', #733 ) ;
#651 = DIRECTION ( 'NONE',  ( 0.000000000000000000, 1.000000000000000000, 0.000000000000000000 ) ) ;
#652 = PERSON_AND_ORGANIZATION_ROLE ( 'creator' ) ;
#653 = EDGE_CURVE ( 'NONE', #109, #321, #496, .T. ) ;
#654 = FACE_BOUND ( 'NONE', #488, .T. ) ;
#655 =( NAMED_UNIT ( * ) PLANE_ANGLE_UNIT ( ) SI_UNIT ( $, .RADIAN. ) );
#656 = PRODUCT ( '\X2\5e95677f8fde63a54ef6\X0\3', '\X2\5e95677f8fde63a54ef6\X0\3', '', ( #128 ) ) ;
#657 = DIRECTION ( 'NONE',  ( 0.000000000000000000, 0.000000000000000000, 1.000000000000000000 ) ) ;
#658 = ADVANCED_FACE ( 'NONE', ( #875 ), #201, .T. ) ;
#659 = VERTEX_POINT ( 'NONE', #504 ) ;
#660 = FACE_BOUND ( 'NONE', #28, .T. ) ;
#661 = AXIS2_PLACEMENT_3D ( 'NONE', #280, #640, #284 ) ;
#662 = FACE_OUTER_BOUND ( 'NONE', #559, .T. ) ;
#663 = AXIS2_PLACEMENT_3D ( 'NONE', #349, #651, #353 ) ;
#664 = ADVANCED_FACE ( 'NONE', ( #26 ), #707, .F. ) ;
#665 = CYLINDRICAL_SURFACE ( 'NONE', #883, 1.499999999999996891 ) ;
#666 = AXIS2_PLACEMENT_3D ( 'NONE', #961, #437, #887 ) ;
#667 = AXIS2_PLACEMENT_3D ( 'NONE', #86, #471, #819 ) ;
#668 = CC_DESIGN_PERSON_AND_ORGANIZATION_ASSIGNMENT ( #275, #652, ( #628 ) ) ;
#669 = ORIENTED_EDGE ( 'NONE', *, *, #448, .T. ) ;
#670 = DIRECTION ( 'NONE',  ( 0.000000000000000000, 0.000000000000000000, 1.000000000000000000 ) ) ;
#671 = VECTOR ( 'NONE', #575, 1000.000000000000000 ) ;
#672 = DIRECTION ( 'NONE',  ( -1.000000000000000000, 0.000000000000000000, 4.625929269271485914E-16 ) ) ;
#673 = CIRCLE ( 'NONE', #849, 3.000000000000000000 ) ;
#674 = ADVANCED_FACE ( 'NONE', ( #940 ), #264, .F. ) ;
#675 = CARTESIAN_POINT ( 'NONE',  ( -14.99999999999999822, -7.000000000000000000, 5.000000000000003553 ) ) ;
#676 = DIRECTION ( 'NONE',  ( 0.000000000000000000, 1.000000000000000000, 0.000000000000000000 ) ) ;
#677 = EDGE_LOOP ( 'NONE', ( #156, #826, #692, #159 ) ) ;
#678 = CARTESIAN_POINT ( 'NONE',  ( -30.00000000000000000, -7.000000000000000000, -3.499999999999996003 ) ) ;
#679 = ORIENTED_EDGE ( 'NONE', *, *, #653, .F. ) ;
#680 = CARTESIAN_POINT ( 'NONE',  ( 15.00000000000000000, 3.000000000000000000, -6.499999999999997335 ) ) ;
#681 = CARTESIAN_POINT ( 'NONE',  ( -14.99999999999999822, 3.000000000000000000, 6.500000000000005329 ) ) ;
#682 = CARTESIAN_POINT ( 'NONE',  ( -32.50000000000000000, 3.000000000000000000, -4.500000000000000000 ) ) ;
#683 = EDGE_LOOP ( 'NONE', ( #88, #669, #165, #326 ) ) ;
#684 = ORIENTED_EDGE ( 'NONE', *, *, #772, .T. ) ;
#685 = DIRECTION ( 'NONE',  ( 0.000000000000000000, 0.000000000000000000, 1.000000000000000000 ) ) ;
#686 = VERTEX_POINT ( 'NONE', #567 ) ;
#687 = LOCAL_TIME ( 19, 49, 0.000000000000000000, #722 ) ;
#688 = DIRECTION ( 'NONE',  ( 0.000000000000000000, 0.000000000000000000, 1.000000000000000000 ) ) ;
#689 = VERTEX_POINT ( 'NONE', #885 ) ;
#690 = CARTESIAN_POINT ( 'NONE',  ( 15.00000000000000000, 0.000000000000000000, 3.500000000000002665 ) ) ;
#691 = ADVANCED_FACE ( 'NONE', ( #662 ), #665, .F. ) ;
#692 = ORIENTED_EDGE ( 'NONE', *, *, #876, .T. ) ;
#693 = DIRECTION ( 'NONE',  ( 0.000000000000000000, 0.000000000000000000, 1.000000000000000000 ) ) ;
#694 = ORIENTED_EDGE ( 'NONE', *, *, #142, .T. ) ;
#695 = CARTESIAN_POINT ( 'NONE',  ( -29.50000000000000355, 3.000000000000000000, 7.500000000000000000 ) ) ;
#696 = DIRECTION ( 'NONE',  ( 0.000000000000000000, 0.000000000000000000, 1.000000000000000000 ) ) ;
#697 = EDGE_CURVE ( 'NONE', #52, #90, #582, .T. ) ;
#698 = ORIENTED_EDGE ( 'NONE', *, *, #533, .T. ) ;
#699 = DIRECTION ( 'NONE',  ( 0.000000000000000000, 0.000000000000000000, -1.000000000000000000 ) ) ;
#700 = DIRECTION ( 'NONE',  ( 0.000000000000000000, 1.000000000000000000, 0.000000000000000000 ) ) ;
#701 = ORIENTED_EDGE ( 'NONE', *, *, #519, .T. ) ;
#702 = AXIS2_PLACEMENT_3D ( 'NONE', #800, #933, #196 ) ;
#703 = DIRECTION ( 'NONE',  ( 0.000000000000000000, -1.000000000000000000, 0.000000000000000000 ) ) ;
#704 = CARTESIAN_POINT ( 'NONE',  ( 15.00000000000000000, -7.000000000000000000, -3.499999999999996003 ) ) ;
#705 = AXIS2_PLACEMENT_3D ( 'NONE', #224, #770, #233 ) ;
#706 = ORIENTED_EDGE ( 'NONE', *, *, #225, .T. ) ;
#707 = CYLINDRICAL_SURFACE ( 'NONE', #375, 1.500000000000000444 ) ;
#708 = FACE_OUTER_BOUND ( 'NONE', #113, .T. ) ;
#709 = ADVANCED_FACE ( 'NONE', ( #71 ), #210, .F. ) ;
#710 = AXIS2_PLACEMENT_3D ( 'NONE', #713, #608, #836 ) ;
#711 = EDGE_LOOP ( 'NONE', ( #581, #872, #838, #82 ) ) ;
#712 = LINE ( 'NONE', #678, #422 ) ;
#713 = CARTESIAN_POINT ( 'NONE',  ( 15.00000000000000000, 3.000000000000000000, 5.000000000000003553 ) ) ;
#714 = CIRCLE ( 'NONE', #663, 1.500000000000000444 ) ;
#715 = ORIENTED_EDGE ( 'NONE', *, *, #881, .F. ) ;
#716 = AXIS2_PLACEMENT_3D ( 'NONE', #36, #190, #341 ) ;
#717 = CARTESIAN_POINT ( 'NONE',  ( 30.00000000000000000, -7.000000000000000000, -4.999999999999996447 ) ) ;
#718 = CARTESIAN_POINT ( 'NONE',  ( -32.50000000000000000, 3.000000000000000000, -7.500000000000000000 ) ) ;
#719 = EDGE_CURVE ( 'NONE', #855, #52, #440, .T. ) ;
#720 = ORIENTED_EDGE ( 'NONE', *, *, #391, .F. ) ;
#721 = CARTESIAN_POINT ( 'NONE',  ( -30.00000000000000000, 3.000000000000000000, -3.499999999999996003 ) ) ;
#722 = COORDINATED_UNIVERSAL_TIME_OFFSET ( 8, 0, .AHEAD. ) ;
#723 = AXIS2_PLACEMENT_3D ( 'NONE', #870, #781, #27 ) ;
#724 = VERTEX_POINT ( 'NONE', #962 ) ;
#725 = DIRECTION ( 'NONE',  ( 0.000000000000000000, 0.000000000000000000, 1.000000000000000000 ) ) ;
#726 = DIRECTION ( 'NONE',  ( 0.000000000000000000, 0.000000000000000000, -1.000000000000000000 ) ) ;
#727 = ORIENTED_EDGE ( 'NONE', *, *, #7, .T. ) ;
#728 = CARTESIAN_POINT ( 'NONE',  ( -14.99999999999999822, -7.000000000000000000, 6.500000000000005329 ) ) ;
#729 = DATE_AND_TIME ( #39, #193 ) ;
#730 = DIRECTION ( 'NONE',  ( 0.000000000000000000, 0.000000000000000000, 1.000000000000000000 ) ) ;
#731 = ORIENTED_EDGE ( 'NONE', *, *, #549, .F. ) ;
#732 = DIRECTION ( 'NONE',  ( 0.000000000000000000, 1.000000000000000000, 0.000000000000000000 ) ) ;
#733 = SECURITY_CLASSIFICATION_LEVEL ( 'unclassified' ) ;
#734 = EDGE_CURVE ( 'NONE', #46, #25, #331, .T. ) ;
#735 = CARTESIAN_POINT ( 'NONE',  ( -29.50000000000000355, 3.000000000000000000, 4.500000000000000000 ) ) ;
#736 = DIRECTION ( 'NONE',  ( 0.000000000000000000, 0.000000000000000000, 1.000000000000000000 ) ) ;
#737 = ADVANCED_BREP_SHAPE_REPRESENTATION ( '\X2\5e95677f8fde63a54ef6\X0\3', ( #97, #661 ), #436 ) ;
#738 = DIRECTION ( 'NONE',  ( 0.000000000000000000, 0.000000000000000000, 1.000000000000000000 ) ) ;
#739 = EDGE_CURVE ( 'NONE', #483, #106, #965, .T. ) ;
#740 = LINE ( 'NONE', #66, #641 ) ;
#741 = EDGE_CURVE ( 'NONE', #516, #622, #242, .T. ) ;
#742 = AXIS2_PLACEMENT_3D ( 'NONE', #413, #869, #333 ) ;
#743 = AXIS2_PLACEMENT_3D ( 'NONE', #635, #490, #926 ) ;
#744 = ORIENTED_EDGE ( 'NONE', *, *, #549, .T. ) ;
#745 = CARTESIAN_POINT ( 'NONE',  ( 30.00000000000000000, -7.000000000000000000, 5.000000000000003553 ) ) ;
#746 = ADVANCED_FACE ( 'NONE', ( #61, #891, #583, #360, #660, #520, #517, #223, #141 ), #813, .F. ) ;
#747 = DIRECTION ( 'NONE',  ( -0.000000000000000000, 1.000000000000000000, -0.000000000000000000 ) ) ;
#748 = VECTOR ( 'NONE', #289, 1000.000000000000000 ) ;
#749 = CARTESIAN_POINT ( 'NONE',  ( -14.99999999999999822, 3.000000000000000000, -4.999999999999996447 ) ) ;
#750 = EDGE_LOOP ( 'NONE', ( #630, #472 ) ) ;
#751 = CARTESIAN_POINT ( 'NONE',  ( 29.50000000000000000, 3.000000000000000000, -4.500000000000000000 ) ) ;
#752 = ORIENTED_EDGE ( 'NONE', *, *, #607, .T. ) ;
#753 = DIRECTION ( 'NONE',  ( 0.000000000000000000, 1.000000000000000000, 0.000000000000000000 ) ) ;
#754 = AXIS2_PLACEMENT_3D ( 'NONE', #191, #732, #48 ) ;
#755 = EDGE_LOOP ( 'NONE', ( #157, #393 ) ) ;
#756 = CARTESIAN_POINT ( 'NONE',  ( 15.00000000000000000, -7.000000000000000000, -6.499999999999997335 ) ) ;
#757 = ORIENTED_EDGE ( 'NONE', *, *, #845, .F. ) ;
#758 = CARTESIAN_POINT ( 'NONE',  ( -30.00000000000000000, 0.000000000000000000, -6.499999999999997335 ) ) ;
#759 = VECTOR ( 'NONE', #773, 1000.000000000000000 ) ;
#760 = EDGE_LOOP ( 'NONE', ( #612, #314, #101, #240 ) ) ;
#761 = CARTESIAN_POINT ( 'NONE',  ( 29.50000000000000000, 0.000000000000000000, -7.500000000000000000 ) ) ;
#762 = ORIENTED_EDGE ( 'NONE', *, *, #719, .F. ) ;
#763 = DIRECTION ( 'NONE',  ( 0.000000000000000000, 0.000000000000000000, 1.000000000000000000 ) ) ;
#764 = ORIENTED_EDGE ( 'NONE', *, *, #881, .T. ) ;
#765 = EDGE_CURVE ( 'NONE', #828, #109, #797, .T. ) ;
#766 = EDGE_LOOP ( 'NONE', ( #302, #306, #945, #96 ) ) ;
#767 = CARTESIAN_POINT ( 'NONE',  ( 15.00000000000000000, -7.000000000000000000, -4.999999999999996447 ) ) ;
#768 = CARTESIAN_POINT ( 'NONE',  ( 15.00000000000000000, 3.000000000000000000, 3.500000000000002665 ) ) ;
#769 = CIRCLE ( 'NONE', #895, 1.500000000000002220 ) ;
#770 = DIRECTION ( 'NONE',  ( -0.000000000000000000, 1.000000000000000000, -0.000000000000000000 ) ) ;
#771 = ORIENTED_EDGE ( 'NONE', *, *, #619, .T. ) ;
#772 = EDGE_CURVE ( 'NONE', #865, #376, #83, .T. ) ;
#773 = DIRECTION ( 'NONE',  ( 0.000000000000000000, 0.000000000000000000, 1.000000000000000000 ) ) ;
#774 = ORIENTED_EDGE ( 'NONE', *, *, #187, .T. ) ;
#775 = CARTESIAN_POINT ( 'NONE',  ( 30.00000000000000000, 3.000000000000000000, -6.499999999999993783 ) ) ;
#776 = DIRECTION ( 'NONE',  ( -0.000000000000000000, 1.000000000000000000, -0.000000000000000000 ) ) ;
#777 = DIRECTION ( 'NONE',  ( 0.000000000000000000, 1.000000000000000000, 0.000000000000000000 ) ) ;
#778 = EDGE_CURVE ( 'NONE', #848, #383, #364, .T. ) ;
#779 = ORIENTED_EDGE ( 'NONE', *, *, #653, .T. ) ;
#780 = FACE_BOUND ( 'NONE', #228, .T. ) ;
#781 = DIRECTION ( 'NONE',  ( -0.000000000000000000, -1.000000000000000000, -0.000000000000000000 ) ) ;
#782 = CARTESIAN_POINT ( 'NONE',  ( 15.00000000000000000, -7.000000000000000000, 6.500000000000004441 ) ) ;
#783 = DIRECTION ( 'NONE',  ( -0.000000000000000000, 1.000000000000000000, -0.000000000000000000 ) ) ;
#784 = EDGE_CURVE ( 'NONE', #9, #259, #539, .T. ) ;
#785 = VERTEX_POINT ( 'NONE', #817 ) ;
#786 = CARTESIAN_POINT ( 'NONE',  ( 15.00000000000000000, -7.000000000000000000, -4.999999999999996447 ) ) ;
#787 = CARTESIAN_POINT ( 'NONE',  ( 15.00000000000000000, 3.000000000000000000, 6.500000000000004441 ) ) ;
#788 = LOCAL_TIME ( 19, 49, 0.000000000000000000, #502 ) ;
#789 = DIRECTION ( 'NONE',  ( 1.000000000000000000, 0.000000000000000000, 0.000000000000000000 ) ) ;
#790 = COORDINATED_UNIVERSAL_TIME_OFFSET ( 8, 0, .AHEAD. ) ;
#791 = VECTOR ( 'NONE', #53, 1000.000000000000000 ) ;
#792 = ORIENTED_EDGE ( 'NONE', *, *, #646, .F. ) ;
#793 = DIRECTION ( 'NONE',  ( -0.000000000000000000, 1.000000000000000000, -0.000000000000000000 ) ) ;
#794 = PLANE ( 'NONE',  #372 ) ;
#795 = LINE ( 'NONE', #505, #119 ) ;
#796 = PERSON_AND_ORGANIZATION ( #556, #610 ) ;
#797 = CIRCLE ( 'NONE', #45, 1.500000000000000444 ) ;
#798 = AXIS2_PLACEMENT_3D ( 'NONE', #154, #91, #457 ) ;
#799 = CIRCLE ( 'NONE', #892, 1.500000000000000444 ) ;
#800 = CARTESIAN_POINT ( 'NONE',  ( 0.000000000000000000, 3.000000000000000000, 0.000000000000000000 ) ) ;
#801 = EDGE_CURVE ( 'NONE', #529, #686, #740, .T. ) ;
#802 = AXIS2_PLACEMENT_3D ( 'NONE', #717, #43, #347 ) ;
#803 = DIRECTION ( 'NONE',  ( 0.000000000000000000, 0.000000000000000000, 1.000000000000000000 ) ) ;
#804 = PERSON_AND_ORGANIZATION ( #556, #610 ) ;
#805 = PRODUCT_DEFINITION_SHAPE ( 'NONE', 'NONE',  #628 ) ;
#806 = DIRECTION ( 'NONE',  ( -0.000000000000000000, 1.000000000000000000, -0.000000000000000000 ) ) ;
#807 = ADVANCED_FACE ( 'NONE', ( #595 ), #967, .F. ) ;
#808 = DATE_AND_TIME ( #221, #290 ) ;
#809 = DIRECTION ( 'NONE',  ( 0.000000000000000000, 1.000000000000000000, 0.000000000000000000 ) ) ;
#810 = APPLICATION_CONTEXT ( 'configuration controlled 3d designs of mechanical parts and assemblies' ) ;
#811 = COORDINATED_UNIVERSAL_TIME_OFFSET ( 8, 0, .AHEAD. ) ;
#812 = EDGE_CURVE ( 'NONE', #8, #456, #370, .T. ) ;
#813 = PLANE ( 'NONE',  #666 ) ;
#814 = DIRECTION ( 'NONE',  ( -0.000000000000000000, 1.000000000000000000, -0.000000000000000000 ) ) ;
#815 = APPROVAL ( #878, 'æœª' ) ;
#816 = APPROVAL_PERSON_ORGANIZATION ( #49, #815, #494 ) ;
#817 = CARTESIAN_POINT ( 'NONE',  ( -32.50000000000000000, 0.000000000000000000, -4.500000000000000000 ) ) ;
#818 = CARTESIAN_POINT ( 'NONE',  ( -32.50000000000000000, 3.000000000000000000, 7.500000000000000000 ) ) ;
#819 = DIRECTION ( 'NONE',  ( 0.000000000000000000, 0.000000000000000000, 1.000000000000000000 ) ) ;
#820 = ORIENTED_EDGE ( 'NONE', *, *, #358, .T. ) ;
#821 = VERTEX_POINT ( 'NONE', #163 ) ;
#822 = DIRECTION ( 'NONE',  ( 0.000000000000000000, 0.000000000000000000, 1.000000000000000000 ) ) ;
#823 = CIRCLE ( 'NONE', #506, 1.499999999999996891 ) ;
#824 = VERTEX_POINT ( 'NONE', #558 ) ;
#825 = LINE ( 'NONE', #682, #931 ) ;
#826 = ORIENTED_EDGE ( 'NONE', *, *, #619, .F. ) ;
#827 = VECTOR ( 'NONE', #475, 1000.000000000000000 ) ;
#828 = VERTEX_POINT ( 'NONE', #24 ) ;
#829 = DIRECTION ( 'NONE',  ( 0.000000000000000000, 1.000000000000000000, 0.000000000000000000 ) ) ;
#830 = CARTESIAN_POINT ( 'NONE',  ( -32.50000000000000000, 3.000000000000000000, 4.500000000000000888 ) ) ;
#831 = DIRECTION ( 'NONE',  ( -0.000000000000000000, 1.000000000000000000, -0.000000000000000000 ) ) ;
#832 = ORIENTED_EDGE ( 'NONE', *, *, #172, .F. ) ;
#833 = ORIENTED_EDGE ( 'NONE', *, *, #739, .F. ) ;
#834 = CIRCLE ( 'NONE', #67, 1.499999999999996891 ) ;
#835 = AXIS2_PLACEMENT_3D ( 'NONE', #428, #644, #726 ) ;
#836 = DIRECTION ( 'NONE',  ( 0.000000000000000000, 0.000000000000000000, 1.000000000000000000 ) ) ;
#837 = ADVANCED_FACE ( 'NONE', ( #842 ), #168, .F. ) ;
#838 = ORIENTED_EDGE ( 'NONE', *, *, #47, .T. ) ;
#839 = DIRECTION ( 'NONE',  ( 0.000000000000000000, -1.000000000000000000, 0.000000000000000000 ) ) ;
#840 = VECTOR ( 'NONE', #814, 1000.000000000000000 ) ;
#841 = EDGE_LOOP ( 'NONE', ( #744, #222, #466, #910 ) ) ;
#842 = FACE_OUTER_BOUND ( 'NONE', #121, .T. ) ;
#843 = CIRCLE ( 'NONE', #131, 1.500000000000000444 ) ;
#844 = EDGE_LOOP ( 'NONE', ( #247, #684, #42, #169, #357, #620, #731, #412 ) ) ;
#845 = EDGE_CURVE ( 'NONE', #821, #865, #330, .T. ) ;
#846 = CARTESIAN_POINT ( 'NONE',  ( 15.00000000000000000, 0.000000000000000000, -3.499999999999996003 ) ) ;
#847 = CARTESIAN_POINT ( 'NONE',  ( -32.50000000000000000, 3.000000000000000000, 4.500000000000000888 ) ) ;
#848 = VERTEX_POINT ( 'NONE', #613 ) ;
#849 = AXIS2_PLACEMENT_3D ( 'NONE', #540, #777, #104 ) ;
#850 = CARTESIAN_POINT ( 'NONE',  ( 32.50000000000000000, 3.000000000000000000, -7.500000000000000000 ) ) ;
#851 = ORIENTED_EDGE ( 'NONE', *, *, #85, .T. ) ;
#852 = EDGE_CURVE ( 'NONE', #548, #584, #186, .T. ) ;
#853 = FACE_OUTER_BOUND ( 'NONE', #418, .T. ) ;
#854 = FACE_OUTER_BOUND ( 'NONE', #711, .T. ) ;
#855 = VERTEX_POINT ( 'NONE', #311 ) ;
#856 = LINE ( 'NONE', #181, #211 ) ;
#857 = PLANE ( 'NONE',  #716 ) ;
#858 = ORIENTED_EDGE ( 'NONE', *, *, #194, .F. ) ;
#859 = CYLINDRICAL_SURFACE ( 'NONE', #534, 1.500000000000000444 ) ;
#860 = DIRECTION ( 'NONE',  ( 0.000000000000000000, 0.000000000000000000, 1.000000000000000000 ) ) ;
#861 = EDGE_CURVE ( 'NONE', #90, #8, #323, .T. ) ;
#862 = EDGE_LOOP ( 'NONE', ( #939, #912 ) ) ;
#863 = FACE_BOUND ( 'NONE', #862, .T. ) ;
#864 = DIRECTION ( 'NONE',  ( -0.000000000000000000, 1.000000000000000000, -0.000000000000000000 ) ) ;
#865 = VERTEX_POINT ( 'NONE', #761 ) ;
#866 = CARTESIAN_POINT ( 'NONE',  ( -14.99999999999999822, 0.000000000000000000, -6.499999999999999112 ) ) ;
#867 = DATE_TIME_ROLE ( 'creation_date' ) ;
#868 = ORIENTED_EDGE ( 'NONE', *, *, #951, .F. ) ;
#869 = DIRECTION ( 'NONE',  ( 0.000000000000000000, 1.000000000000000000, 0.000000000000000000 ) ) ;
#870 = CARTESIAN_POINT ( 'NONE',  ( 29.50000000000000711, 0.000000000000000000, 4.499999999999999112 ) ) ;
#871 = CIRCLE ( 'NONE', #710, 1.500000000000000444 ) ;
#872 = ORIENTED_EDGE ( 'NONE', *, *, #354, .T. ) ;
#873 = LINE ( 'NONE', #577, #239 ) ;
#874 = VECTOR ( 'NONE', #30, 1000.000000000000000 ) ;
#875 = FACE_OUTER_BOUND ( 'NONE', #238, .T. ) ;
#876 = EDGE_CURVE ( 'NONE', #176, #1, #248, .T. ) ;
#877 = DIRECTION ( 'NONE',  ( -1.000000000000000000, -0.000000000000000000, -0.000000000000000000 ) ) ;
#878 = APPROVAL_STATUS ( 'not_yet_approved' ) ;
#879 = CIRCLE ( 'NONE', #126, 1.499999999999996891 ) ;
#880 = CARTESIAN_POINT ( 'NONE',  ( 30.00000000000000000, 0.000000000000000000, 3.500000000000006661 ) ) ;
#881 = EDGE_CURVE ( 'NONE', #552, #388, #409, .T. ) ;
#882 = ORIENTED_EDGE ( 'NONE', *, *, #150, .T. ) ;
#883 = AXIS2_PLACEMENT_3D ( 'NONE', #745, #586, #212 ) ;
#884 = PERSON_AND_ORGANIZATION_ROLE ( 'classification_officer' ) ;
#885 = CARTESIAN_POINT ( 'NONE',  ( 30.00000000000000000, 0.000000000000000000, -6.499999999999993783 ) ) ;
#886 = EDGE_CURVE ( 'NONE', #785, #855, #942, .T. ) ;
#887 = DIRECTION ( 'NONE',  ( 0.000000000000000000, -0.000000000000000000, 1.000000000000000000 ) ) ;
#888 = AXIS2_PLACEMENT_3D ( 'NONE', #122, #957, #730 ) ;
#889 = EDGE_CURVE ( 'NONE', #25, #8, #625, .T. ) ;
#890 = AXIS2_PLACEMENT_3D ( 'NONE', #446, #218, #736 ) ;
#891 = FACE_BOUND ( 'NONE', #536, .T. ) ;
#892 = AXIS2_PLACEMENT_3D ( 'NONE', #568, #480, #265 ) ;
#893 = ORIENTED_EDGE ( 'NONE', *, *, #778, .F. ) ;
#894 = DIRECTION ( 'NONE',  ( 0.000000000000000000, 0.000000000000000000, 1.000000000000000000 ) ) ;
#895 = AXIS2_PLACEMENT_3D ( 'NONE', #938, #262, #478 ) ;
#896 = ORIENTED_EDGE ( 'NONE', *, *, #215, .T. ) ;
#897 = DIRECTION ( 'NONE',  ( 0.000000000000000000, 1.000000000000000000, 0.000000000000000000 ) ) ;
#898 = ADVANCED_FACE ( 'NONE', ( #854 ), #14, .F. ) ;
#899 = CARTESIAN_POINT ( 'NONE',  ( -30.00000000000000000, 0.000000000000000000, 5.000000000000003553 ) ) ;
#900 = ORIENTED_EDGE ( 'NONE', *, *, #7, .F. ) ;
#901 = DIRECTION ( 'NONE',  ( 0.000000000000000000, 1.000000000000000000, 0.000000000000000000 ) ) ;
#902 = APPROVAL ( #514, 'æœª' ) ;
#903 = EDGE_LOOP ( 'NONE', ( #952, #20 ) ) ;
#904 = CARTESIAN_POINT ( 'NONE',  ( 29.50000000000001066, 3.000000000000000000, 7.500000000000000000 ) ) ;
#905 = CARTESIAN_POINT ( 'NONE',  ( -30.00000000000000000, 3.000000000000000000, -4.999999999999996447 ) ) ;
#906 = CARTESIAN_POINT ( 'NONE',  ( 30.00000000000000000, 3.000000000000000000, -4.999999999999996447 ) ) ;
#907 = AXIS2_PLACEMENT_3D ( 'NONE', #906, #901, #451 ) ;
#908 = ADVANCED_FACE ( 'NONE', ( #111 ), #317, .F. ) ;
#909 = CC_DESIGN_SECURITY_CLASSIFICATION ( #650, ( #112 ) ) ;
#910 = ORIENTED_EDGE ( 'NONE', *, *, #73, .T. ) ;
#911 = DIRECTION ( 'NONE',  ( 0.000000000000000000, 0.000000000000000000, 1.000000000000000000 ) ) ;
#912 = ORIENTED_EDGE ( 'NONE', *, *, #47, .F. ) ;
#913 = VECTOR ( 'NONE', #424, 1000.000000000000000 ) ;
#914 = AXIS2_PLACEMENT_3D ( 'NONE', #850, #672, #968 ) ;
#915 = CARTESIAN_POINT ( 'NONE',  ( -32.50000000000000000, 3.000000000000000000, -7.500000000000000000 ) ) ;
#916 = EDGE_CURVE ( 'NONE', #1, #180, #301, .T. ) ;
#917 = VERTEX_POINT ( 'NONE', #690 ) ;
#918 = CARTESIAN_POINT ( 'NONE',  ( -14.99999999999999822, -7.000000000000000000, 3.500000000000001332 ) ) ;
#919 = AXIS2_PLACEMENT_3D ( 'NONE', #89, #930, #860 ) ;
#920 = EDGE_LOOP ( 'NONE', ( #310, #92 ) ) ;
#921 = VECTOR ( 'NONE', #831, 1000.000000000000000 ) ;
#922 = VECTOR ( 'NONE', #258, 1000.000000000000000 ) ;
#923 = DIRECTION ( 'NONE',  ( -0.000000000000000000, 1.000000000000000000, -0.000000000000000000 ) ) ;
#924 = AXIS2_PLACEMENT_3D ( 'NONE', #285, #809, #515 ) ;
#925 = ORIENTED_EDGE ( 'NONE', *, *, #194, .T. ) ;
#926 = DIRECTION ( 'NONE',  ( 0.000000000000000000, 0.000000000000000000, 1.000000000000000000 ) ) ;
#927 = EDGE_CURVE ( 'NONE', #50, #12, #769, .T. ) ;
#928 = EDGE_LOOP ( 'NONE', ( #37, #774, #315, #605 ) ) ;
#929 = DIRECTION ( 'NONE',  ( 0.000000000000000000, 1.000000000000000000, 0.000000000000000000 ) ) ;
#930 = DIRECTION ( 'NONE',  ( -0.000000000000000000, 1.000000000000000000, -0.000000000000000000 ) ) ;
#931 = VECTOR ( 'NONE', #839, 1000.000000000000000 ) ;
#932 = EDGE_LOOP ( 'NONE', ( #350, #328 ) ) ;
#933 = DIRECTION ( 'NONE',  ( 0.000000000000000000, 1.000000000000000000, 0.000000000000000000 ) ) ;
#934 = CYLINDRICAL_SURFACE ( 'NONE', #835, 3.000000000000000000 ) ;
#935 = ORIENTED_EDGE ( 'NONE', *, *, #78, .T. ) ;
#936 = CC_DESIGN_PERSON_AND_ORGANIZATION_ASSIGNMENT ( #508, #884, ( #650 ) ) ;
#937 = DIRECTION ( 'NONE',  ( -0.000000000000000000, 1.000000000000000000, -0.000000000000000000 ) ) ;
#938 = CARTESIAN_POINT ( 'NONE',  ( -14.99999999999999822, 3.000000000000000000, 5.000000000000003553 ) ) ;
#939 = ORIENTED_EDGE ( 'NONE', *, *, #527, .F. ) ;
#940 = FACE_OUTER_BOUND ( 'NONE', #332, .T. ) ;
#941 = DIRECTION ( 'NONE',  ( -0.000000000000000000, 1.000000000000000000, -0.000000000000000000 ) ) ;
#942 = CIRCLE ( 'NONE', #597, 3.000000000000000000 ) ;
#943 = CARTESIAN_POINT ( 'NONE',  ( 30.00000000000000000, -7.000000000000000000, -6.499999999999993783 ) ) ;
#944 = APPROVAL_DATE_TIME ( #208, #342 ) ;
#945 = ORIENTED_EDGE ( 'NONE', *, *, #177, .T. ) ;
#946 = FACE_BOUND ( 'NONE', #352, .T. ) ;
#947 = CARTESIAN_POINT ( 'NONE',  ( -30.00000000000000000, -7.000000000000000000, 6.500000000000004441 ) ) ;
#948 = ORIENTED_EDGE ( 'NONE', *, *, #377, .F. ) ;
#949 = DIRECTION ( 'NONE',  ( -0.000000000000000000, 1.000000000000000000, -0.000000000000000000 ) ) ;
#950 = PERSON_AND_ORGANIZATION_ROLE ( 'design_owner' ) ;
#951 = EDGE_CURVE ( 'NONE', #724, #388, #316, .T. ) ;
#952 = ORIENTED_EDGE ( 'NONE', *, *, #69, .F. ) ;
#953 = CARTESIAN_POINT ( 'NONE',  ( 30.00000000000000000, 0.000000000000000000, 5.000000000000003553 ) ) ;
#954 = AXIS2_PLACEMENT_3D ( 'NONE', #532, #397, #696 ) ;
#955 = CARTESIAN_POINT ( 'NONE',  ( -14.99999999999999822, 0.000000000000000000, 3.500000000000000888 ) ) ;
#956 = DATE_AND_TIME ( #430, #788 ) ;
#957 = DIRECTION ( 'NONE',  ( 0.000000000000000000, 1.000000000000000000, 0.000000000000000000 ) ) ;
#958 = DIRECTION ( 'NONE',  ( -0.000000000000000000, -1.000000000000000000, -0.000000000000000000 ) ) ;
#959 = EDGE_CURVE ( 'NONE', #180, #1, #355, .T. ) ;
#960 = ORIENTED_EDGE ( 'NONE', *, *, #580, .F. ) ;
#961 = CARTESIAN_POINT ( 'NONE',  ( 0.000000000000000000, 0.000000000000000000, 0.000000000000000000 ) ) ;
#962 = CARTESIAN_POINT ( 'NONE',  ( 30.00000000000000000, 3.000000000000000000, 6.500000000000000888 ) ) ;
#963 = AXIS2_PLACEMENT_3D ( 'NONE', #899, #557, #38 ) ;
#964 = VECTOR ( 'NONE', #618, 1000.000000000000000 ) ;
#965 = LINE ( 'NONE', #439, #125 ) ;
#966 = EDGE_CURVE ( 'NONE', #383, #483, #673, .T. ) ;
#967 = CYLINDRICAL_SURFACE ( 'NONE', #164, 1.500000000000000444 ) ;
#968 = DIRECTION ( 'NONE',  ( 4.625929269271485914E-16, 0.000000000000000000, 1.000000000000000000 ) ) ;
#969 = EDGE_CURVE ( 'NONE', #259, #9, #871, .T. ) ;
ENDSEC;
END-ISO-10303-21;
