ISO-10303-21;
HEADER;
FILE_DESCRIPTION (( 'STEP AP203' ),
    '1' );
FILE_NAME ('ÊÖ×¦¹Ì¶¨°å.STEP',
    '2026-05-07T13:03:42',
    ( '' ),
    ( '' ),
    'SwSTEP 2.0',
    'SolidWorks 2025',
    '' );
FILE_SCHEMA (( 'CONFIG_CONTROL_DESIGN' ));
ENDSEC;

DATA;
#1 = DIRECTION ( 'NONE',  ( 1.000000000000000000, 0.000000000000000000, 0.000000000000000000 ) ) ;
#2 = DIRECTION ( 'NONE',  ( 0.000000000000000000, 1.000000000000000000, 0.000000000000000000 ) ) ;
#3 = EDGE_CURVE ( 'NONE', #878, #469, #79, .T. ) ;
#4 = CC_DESIGN_APPROVAL ( #360, ( #248 ) ) ;
#5 = ORIENTED_EDGE ( 'NONE', *, *, #154, .T. ) ;
#6 = ADVANCED_FACE ( 'NONE', ( #614 ), #459, .F. ) ;
#7 = DIRECTION ( 'NONE',  ( 0.000000000000000000, 0.000000000000000000, -1.000000000000000000 ) ) ;
#8 = LINE ( 'NONE', #970, #925 ) ;
#9 = ORIENTED_EDGE ( 'NONE', *, *, #127, .T. ) ;
#10 = DIRECTION ( 'NONE',  ( -0.000000000000000000, -1.000000000000000000, -0.000000000000000000 ) ) ;
#11 = CARTESIAN_POINT ( 'NONE',  ( 30.99999999999999645, 0.000000000000000000, 14.50000000000000533 ) ) ;
#12 = EDGE_CURVE ( 'NONE', #765, #250, #571, .T. ) ;
#13 = VERTEX_POINT ( 'NONE', #869 ) ;
#14 = ADVANCED_FACE ( 'NONE', ( #64 ), #315, .F. ) ;
#15 = VECTOR ( 'NONE', #51, 1000.000000000000000 ) ;
#16 = ORIENTED_EDGE ( 'NONE', *, *, #622, .F. ) ;
#17 = LINE ( 'NONE', #725, #762 ) ;
#18 = DIRECTION ( 'NONE',  ( -0.000000000000000000, 1.000000000000000000, -0.000000000000000000 ) ) ;
#19 = ORIENTED_EDGE ( 'NONE', *, *, #385, .F. ) ;
#20 = APPROVAL_DATE_TIME ( #169, #902 ) ;
#21 = EDGE_LOOP ( 'NONE', ( #957, #287, #504, #646, #438, #77, #256, #84 ) ) ;
#22 = DIRECTION ( 'NONE',  ( 0.000000000000000000, 0.000000000000000000, 1.000000000000000000 ) ) ;
#23 = DIRECTION ( 'NONE',  ( 0.000000000000000000, -1.000000000000000000, 0.000000000000000000 ) ) ;
#24 = ADVANCED_FACE ( 'NONE', ( #463 ), #706, .F. ) ;
#25 = SECURITY_CLASSIFICATION_LEVEL ( 'unclassified' ) ;
#26 = ORIENTED_EDGE ( 'NONE', *, *, #505, .T. ) ;
#27 = CARTESIAN_POINT ( 'NONE',  ( -30.00000000000001066, 4.000000000000000000, 5.500000000000003553 ) ) ;
#28 = LINE ( 'NONE', #345, #366 ) ;
#29 = VECTOR ( 'NONE', #268, 1000.000000000000000 ) ;
#30 = AXIS2_PLACEMENT_3D ( 'NONE', #408, #966, #242 ) ;
#31 = ORIENTED_EDGE ( 'NONE', *, *, #449, .F. ) ;
#32 = CIRCLE ( 'NONE', #67, 1.500000000000000666 ) ;
#33 = CARTESIAN_POINT ( 'NONE',  ( -21.00000000000001066, 4.000000000000000000, 9.500000000000005329 ) ) ;
#34 = DIRECTION ( 'NONE',  ( -0.000000000000000000, -1.000000000000000000, -0.000000000000000000 ) ) ;
#35 = ADVANCED_FACE ( 'NONE', ( #531, #389, #711, #392, #858, #946, #1041, #220, #695, #153 ), #296, .F. ) ;
#36 = DIRECTION ( 'NONE',  ( -1.000000000000000000, 0.000000000000000000, 0.000000000000000000 ) ) ;
#37 = ORIENTED_EDGE ( 'NONE', *, *, #755, .T. ) ;
#38 = CC_DESIGN_PERSON_AND_ORGANIZATION_ASSIGNMENT ( #411, #478, ( #167 ) ) ;
#39 = AXIS2_PLACEMENT_3D ( 'NONE', #148, #618, #1 ) ;
#40 = CARTESIAN_POINT ( 'NONE',  ( -21.00000000000001066, -6.000000000000000000, -0.4999999999999970024 ) ) ;
#41 = CARTESIAN_POINT ( 'NONE',  ( -34.00000000000000711, 4.000000000000000000, 14.50000000000000533 ) ) ;
#42 = VERTEX_POINT ( 'NONE', #1030 ) ;
#43 = CARTESIAN_POINT ( 'NONE',  ( -21.00000000000001066, -6.000000000000000000, -1.999999999999997335 ) ) ;
#44 = EDGE_LOOP ( 'NONE', ( #1028, #871, #709, #781 ) ) ;
#45 = CARTESIAN_POINT ( 'NONE',  ( 33.99999999999999289, 4.000000000000000000, 14.50000000000000533 ) ) ;
#46 = CARTESIAN_POINT ( 'NONE',  ( -34.00000000000000711, 0.000000000000000000, 17.50000000000000355 ) ) ;
#47 = AXIS2_PLACEMENT_3D ( 'NONE', #425, #55, #186 ) ;
#48 = VERTEX_POINT ( 'NONE', #136 ) ;
#49 = DIRECTION ( 'NONE',  ( 0.000000000000000000, 1.000000000000000000, 0.000000000000000000 ) ) ;
#50 = VERTEX_POINT ( 'NONE', #535 ) ;
#51 = DIRECTION ( 'NONE',  ( -1.000000000000000000, -0.000000000000000000, -0.000000000000000000 ) ) ;
#52 = AXIS2_PLACEMENT_3D ( 'NONE', #517, #530, #766 ) ;
#53 = EDGE_LOOP ( 'NONE', ( #405, #593 ) ) ;
#54 = ADVANCED_FACE ( 'NONE', ( #625 ), #789, .F. ) ;
#55 = DIRECTION ( 'NONE',  ( -0.000000000000000000, 1.000000000000000000, -0.000000000000000000 ) ) ;
#56 = ORIENTED_EDGE ( 'NONE', *, *, #859, .T. ) ;
#57 = CARTESIAN_POINT ( 'NONE',  ( -21.00000000000001066, -6.000000000000000000, -0.4999999999999970024 ) ) ;
#58 = FACE_BOUND ( 'NONE', #687, .T. ) ;
#59 = CARTESIAN_POINT ( 'NONE',  ( -34.00000000000000711, 0.000000000000000000, 17.50000000000000355 ) ) ;
#60 = AXIS2_PLACEMENT_3D ( 'NONE', #428, #671, #353 ) ;
#61 = CARTESIAN_POINT ( 'NONE',  ( -30.00000000000000711, 4.000000000000000000, -4.499999999999997335 ) ) ;
#62 = ORIENTED_EDGE ( 'NONE', *, *, #963, .T. ) ;
#63 = DIRECTION ( 'NONE',  ( -0.000000000000000000, -1.000000000000000000, -0.000000000000000000 ) ) ;
#64 = FACE_OUTER_BOUND ( 'NONE', #331, .T. ) ;
#65 = ORIENTED_EDGE ( 'NONE', *, *, #717, .F. ) ;
#66 = CARTESIAN_POINT ( 'NONE',  ( 0.000000000000000000, 4.000000000000000000, 0.000000000000000000 ) ) ;
#67 = AXIS2_PLACEMENT_3D ( 'NONE', #736, #483, #22 ) ;
#68 = EDGE_CURVE ( 'NONE', #321, #442, #896, .T. ) ;
#69 = ORIENTED_EDGE ( 'NONE', *, *, #859, .F. ) ;
#70 = LINE ( 'NONE', #1023, #267 ) ;
#71 = CC_DESIGN_PERSON_AND_ORGANIZATION_ASSIGNMENT ( #474, #566, ( #167 ) ) ;
#72 = DIRECTION ( 'NONE',  ( -0.000000000000000000, 1.000000000000000000, -0.000000000000000000 ) ) ;
#73 = AXIS2_PLACEMENT_3D ( 'NONE', #40, #991, #506 ) ;
#74 = ORIENTED_EDGE ( 'NONE', *, *, #385, .T. ) ;
#75 = CARTESIAN_POINT ( 'NONE',  ( 29.99999999999999645, 4.000000000000000000, -1.999999999999997335 ) ) ;
#76 = ADVANCED_BREP_SHAPE_REPRESENTATION ( '\X2\624b722a56fa5b9a677f\X0\', ( #638, #39 ), #907 ) ;
#77 = ORIENTED_EDGE ( 'NONE', *, *, #993, .T. ) ;
#78 = CIRCLE ( 'NONE', #404, 1.500000000000000444 ) ;
#79 = CIRCLE ( 'NONE', #380, 7.500000000000000000 ) ;
#80 = EDGE_CURVE ( 'NONE', #728, #584, #229, .T. ) ;
#81 = ADVANCED_FACE ( 'NONE', ( #374 ), #141, .F. ) ;
#82 = CYLINDRICAL_SURFACE ( 'NONE', #619, 7.500000000000000000 ) ;
#83 = EDGE_CURVE ( 'NONE', #48, #911, #1038, .T. ) ;
#84 = ORIENTED_EDGE ( 'NONE', *, *, #487, .T. ) ;
#85 = CARTESIAN_POINT ( 'NONE',  ( -21.00000000000001066, 0.000000000000000000, 9.500000000000005329 ) ) ;
#86 = ORIENTED_EDGE ( 'NONE', *, *, #993, .F. ) ;
#87 = APPROVAL_STATUS ( 'not_yet_approved' ) ;
#88 = DIRECTION ( 'NONE',  ( 0.000000000000000000, -1.000000000000000000, 0.000000000000000000 ) ) ;
#89 = CARTESIAN_POINT ( 'NONE',  ( -21.00000000000001066, 0.000000000000000000, 9.500000000000005329 ) ) ;
#90 = ADVANCED_FACE ( 'NONE', ( #223 ), #795, .T. ) ;
#91 = VERTEX_POINT ( 'NONE', #75 ) ;
#92 = AXIS2_PLACEMENT_3D ( 'NONE', #448, #527, #215 ) ;
#93 = FACE_OUTER_BOUND ( 'NONE', #770, .T. ) ;
#94 = DIRECTION ( 'NONE',  ( 0.000000000000000000, 0.000000000000000000, -1.000000000000000000 ) ) ;
#95 = ORIENTED_EDGE ( 'NONE', *, *, #12, .F. ) ;
#96 = ORIENTED_EDGE ( 'NONE', *, *, #449, .T. ) ;
#97 = CYLINDRICAL_SURFACE ( 'NONE', #558, 1.500000000000001332 ) ;
#98 = EDGE_CURVE ( 'NONE', #555, #91, #210, .T. ) ;
#99 = DIRECTION ( 'NONE',  ( 0.000000000000000000, 0.000000000000000000, 1.000000000000000000 ) ) ;
#100 = ORIENTED_EDGE ( 'NONE', *, *, #102, .F. ) ;
#101 = COORDINATED_UNIVERSAL_TIME_OFFSET ( 8, 0, .AHEAD. ) ;
#102 = EDGE_CURVE ( 'NONE', #469, #878, #850, .T. ) ;
#103 = EDGE_LOOP ( 'NONE', ( #930, #342 ) ) ;
#104 = CARTESIAN_POINT ( 'NONE',  ( -30.00000000000001066, 0.000000000000000000, -13.99999999999999822 ) ) ;
#105 = CARTESIAN_POINT ( 'NONE',  ( 29.99999999999998579, 4.000000000000000000, 9.500000000000005329 ) ) ;
#106 = ORIENTED_EDGE ( 'NONE', *, *, #561, .T. ) ;
#107 = EDGE_CURVE ( 'NONE', #91, #555, #525, .T. ) ;
#108 = DIRECTION ( 'NONE',  ( -0.000000000000000000, 1.000000000000000000, -0.000000000000000000 ) ) ;
#109 = CARTESIAN_POINT ( 'NONE',  ( -29.99999999999999289, 0.000000000000000000, 12.00000000000000178 ) ) ;
#110 = AXIS2_PLACEMENT_3D ( 'NONE', #375, #1021, #216 ) ;
#111 = AXIS2_PLACEMENT_3D ( 'NONE', #66, #455, #854 ) ;
#112 = EDGE_CURVE ( 'NONE', #490, #827, #612, .T. ) ;
#113 = FACE_OUTER_BOUND ( 'NONE', #842, .T. ) ;
#114 = ORIENTED_EDGE ( 'NONE', *, *, #956, .F. ) ;
#115 = CIRCLE ( 'NONE', #685, 7.500000000000000000 ) ;
#116 = CARTESIAN_POINT ( 'NONE',  ( 5.000000000000000000, 4.000000000000000000, 0.000000000000000000 ) ) ;
#117 = CARTESIAN_POINT ( 'NONE',  ( -21.00000000000001066, 0.000000000000000000, 11.00000000000000711 ) ) ;
#118 = CARTESIAN_POINT ( 'NONE',  ( -30.00000000000001066, 0.000000000000000000, 5.500000000000003553 ) ) ;
#119 = EDGE_LOOP ( 'NONE', ( #473, #541 ) ) ;
#120 = CC_DESIGN_APPROVAL ( #415, ( #167 ) ) ;
#121 = DIRECTION ( 'NONE',  ( 0.000000000000000000, 1.000000000000000000, 0.000000000000000000 ) ) ;
#122 = CARTESIAN_POINT ( 'NONE',  ( -34.00000000000000711, 4.000000000000000000, -14.49999999999999467 ) ) ;
#123 = EDGE_LOOP ( 'NONE', ( #290, #412, #605, #712 ) ) ;
#124 = LINE ( 'NONE', #608, #880 ) ;
#125 = ORIENTED_EDGE ( 'NONE', *, *, #626, .F. ) ;
#126 = CARTESIAN_POINT ( 'NONE',  ( -30.00000000000000711, 4.000000000000000000, -4.499999999999997335 ) ) ;
#127 = EDGE_CURVE ( 'NONE', #920, #159, #959, .T. ) ;
#128 = DIRECTION ( 'NONE',  ( 0.000000000000000000, 0.000000000000000000, -1.000000000000000000 ) ) ;
#129 = VECTOR ( 'NONE', #532, 1000.000000000000000 ) ;
#130 = ORIENTED_EDGE ( 'NONE', *, *, #1013, .F. ) ;
#131 = AXIS2_PLACEMENT_3D ( 'NONE', #306, #468, #951 ) ;
#132 = CARTESIAN_POINT ( 'NONE',  ( 30.99999999999999289, 4.000000000000000000, -14.49999999999999822 ) ) ;
#133 = ORIENTED_EDGE ( 'NONE', *, *, #1010, .F. ) ;
#134 = CARTESIAN_POINT ( 'NONE',  ( -29.99999999999999289, 0.000000000000000000, 13.50000000000000355 ) ) ;
#135 = FACE_BOUND ( 'NONE', #549, .T. ) ;
#136 = CARTESIAN_POINT ( 'NONE',  ( -29.99999999999999289, 4.000000000000000000, 12.00000000000000178 ) ) ;
#137 = FACE_OUTER_BOUND ( 'NONE', #654, .T. ) ;
#138 = VERTEX_POINT ( 'NONE', #163 ) ;
#139 = LINE ( 'NONE', #682, #15 ) ;
#140 = LOCAL_TIME ( 21, 3, 42.00000000000000000, #234 ) ;
#141 = CYLINDRICAL_SURFACE ( 'NONE', #763, 1.500000000000001332 ) ;
#142 = CARTESIAN_POINT ( 'NONE',  ( 29.99999999999999645, -6.000000000000000000, -1.999999999999997335 ) ) ;
#143 = EDGE_LOOP ( 'NONE', ( #284, #37, #978, #533 ) ) ;
#144 = LINE ( 'NONE', #458, #841 ) ;
#145 = DIRECTION ( 'NONE',  ( 0.000000000000000000, 0.000000000000000000, 1.000000000000000000 ) ) ;
#146 = EDGE_CURVE ( 'NONE', #452, #461, #1020, .T. ) ;
#147 = VERTEX_POINT ( 'NONE', #802 ) ;
#148 = CARTESIAN_POINT ( 'NONE',  ( 0.000000000000000000, 0.000000000000000000, 0.000000000000000000 ) ) ;
#149 = FACE_BOUND ( 'NONE', #103, .T. ) ;
#150 = DIRECTION ( 'NONE',  ( -0.000000000000000000, -1.000000000000000000, -0.000000000000000000 ) ) ;
#151 = CIRCLE ( 'NONE', #178, 1.500000000000001332 ) ;
#152 = ORIENTED_EDGE ( 'NONE', *, *, #963, .F. ) ;
#153 = FACE_BOUND ( 'NONE', #53, .T. ) ;
#154 = EDGE_CURVE ( 'NONE', #461, #452, #690, .T. ) ;
#155 = VERTEX_POINT ( 'NONE', #644 ) ;
#156 = PERSON_AND_ORGANIZATION ( #899, #657 ) ;
#157 = EDGE_CURVE ( 'NONE', #973, #555, #484, .T. ) ;
#158 = DIRECTION ( 'NONE',  ( -0.000000000000000000, 1.000000000000000000, -0.000000000000000000 ) ) ;
#159 = VERTEX_POINT ( 'NONE', #962 ) ;
#160 = CIRCLE ( 'NONE', #664, 1.500000000000000444 ) ;
#161 = AXIS2_PLACEMENT_3D ( 'NONE', #737, #559, #723 ) ;
#162 = APPROVAL_DATE_TIME ( #578, #415 ) ;
#163 = CARTESIAN_POINT ( 'NONE',  ( -30.00000000000001066, 0.000000000000000000, -10.99999999999999645 ) ) ;
#164 = ORIENTED_EDGE ( 'NONE', *, *, #734, .F. ) ;
#165 = FACE_OUTER_BOUND ( 'NONE', #891, .T. ) ;
#166 = DIRECTION ( 'NONE',  ( 0.000000000000000000, -1.000000000000000000, 0.000000000000000000 ) ) ;
#167 = PRODUCT_DEFINITION_FORMATION_WITH_SPECIFIED_SOURCE ( 'ä»', '', #594, .NOT_KNOWN. ) ;
#168 = ORIENTED_EDGE ( 'NONE', *, *, #285, .T. ) ;
#169 = DATE_AND_TIME ( #406, #707 ) ;
#170 = CARTESIAN_POINT ( 'NONE',  ( -21.00000000000001066, 4.000000000000000000, 9.500000000000005329 ) ) ;
#171 = DIRECTION ( 'NONE',  ( 0.000000000000000000, -1.000000000000000000, 0.000000000000000000 ) ) ;
#172 = VERTEX_POINT ( 'NONE', #399 ) ;
#173 = AXIS2_PLACEMENT_3D ( 'NONE', #1007, #851, #443 ) ;
#174 = DIRECTION ( 'NONE',  ( 0.000000000000000000, 0.000000000000000000, -1.000000000000000000 ) ) ;
#175 = CARTESIAN_POINT ( 'NONE',  ( -30.00000000000000711, 0.000000000000000000, -5.999999999999998224 ) ) ;
#176 = UNCERTAINTY_MEASURE_WITH_UNIT (LENGTH_MEASURE( 1.000000000000000082E-05 ), #222, 'distance_accuracy_value', 'NONE');
#177 = VERTEX_POINT ( 'NONE', #175 ) ;
#178 = AXIS2_PLACEMENT_3D ( 'NONE', #33, #121, #931 ) ;
#179 = PERSON_AND_ORGANIZATION_ROLE ( 'classification_officer' ) ;
#180 = EDGE_LOOP ( 'NONE', ( #718, #95 ) ) ;
#181 = DIRECTION ( 'NONE',  ( 0.000000000000000000, 0.000000000000000000, -1.000000000000000000 ) ) ;
#182 = CARTESIAN_POINT ( 'NONE',  ( -21.00000000000001066, 0.000000000000000000, 8.000000000000003553 ) ) ;
#183 = ORIENTED_EDGE ( 'NONE', *, *, #107, .T. ) ;
#184 = CARTESIAN_POINT ( 'NONE',  ( 33.99999999999999289, 4.000000000000000000, -14.49999999999999467 ) ) ;
#185 = CARTESIAN_POINT ( 'NONE',  ( -21.00000000000001066, 4.000000000000000000, -0.4999999999999970024 ) ) ;
#186 = DIRECTION ( 'NONE',  ( 0.000000000000000000, 0.000000000000000000, 1.000000000000000000 ) ) ;
#187 = ORIENTED_EDGE ( 'NONE', *, *, #373, .F. ) ;
#188 = DIRECTION ( 'NONE',  ( 0.000000000000000000, 0.000000000000000000, 1.000000000000000000 ) ) ;
#189 = CARTESIAN_POINT ( 'NONE',  ( 5.000000000000000888, 0.000000000000000000, -7.500000000000000000 ) ) ;
#190 = AXIS2_PLACEMENT_3D ( 'NONE', #926, #847, #905 ) ;
#191 = LINE ( 'NONE', #451, #628 ) ;
#192 = ORIENTED_EDGE ( 'NONE', *, *, #460, .T. ) ;
#193 = AXIS2_PLACEMENT_3D ( 'NONE', #824, #908, #656 ) ;
#194 = DIRECTION ( 'NONE',  ( 0.000000000000000000, 1.000000000000000000, 0.000000000000000000 ) ) ;
#195 = DIRECTION ( 'NONE',  ( 0.000000000000000000, 1.000000000000000000, 0.000000000000000000 ) ) ;
#196 = EDGE_CURVE ( 'NONE', #911, #321, #8, .T. ) ;
#197 = EDGE_LOOP ( 'NONE', ( #513, #590, #444, #786 ) ) ;
#198 = VECTOR ( 'NONE', #721, 1000.000000000000000 ) ;
#199 = FACE_OUTER_BOUND ( 'NONE', #692, .T. ) ;
#200 = EDGE_LOOP ( 'NONE', ( #681, #519, #183, #635 ) ) ;
#201 = CARTESIAN_POINT ( 'NONE',  ( -31.00000000000001066, 0.000000000000000000, 14.50000000000000533 ) ) ;
#202 = CARTESIAN_POINT ( 'NONE',  ( -30.00000000000001066, 4.000000000000000000, 5.500000000000003553 ) ) ;
#203 = ORIENTED_EDGE ( 'NONE', *, *, #731, .F. ) ;
#204 = LINE ( 'NONE', #211, #394 ) ;
#205 = ORIENTED_EDGE ( 'NONE', *, *, #790, .F. ) ;
#206 = ADVANCED_FACE ( 'NONE', ( #890 ), #886, .F. ) ;
#207 = CARTESIAN_POINT ( 'NONE',  ( 5.000000000000000000, 4.000000000000000000, 7.500000000000000000 ) ) ;
#208 = VECTOR ( 'NONE', #740, 1000.000000000000000 ) ;
#209 = DIRECTION ( 'NONE',  ( 0.000000000000000000, -1.000000000000000000, 0.000000000000000000 ) ) ;
#210 = CIRCLE ( 'NONE', #554, 1.500000000000000444 ) ;
#211 = CARTESIAN_POINT ( 'NONE',  ( -30.00000000000000711, 4.000000000000000000, -5.999999999999997335 ) ) ;
#212 = VERTEX_POINT ( 'NONE', #633 ) ;
#213 = CARTESIAN_POINT ( 'NONE',  ( 29.99999999999999645, -6.000000000000000000, -0.4999999999999970024 ) ) ;
#214 = LINE ( 'NONE', #778, #798 ) ;
#215 = DIRECTION ( 'NONE',  ( 1.000000000000000000, 0.000000000000000000, -0.000000000000000000 ) ) ;
#216 = DIRECTION ( 'NONE',  ( 0.000000000000000000, 0.000000000000000000, 1.000000000000000000 ) ) ;
#217 = EDGE_LOOP ( 'NONE', ( #661, #844 ) ) ;
#218 = APPROVAL_ROLE ( '' ) ;
#219 = LOCAL_TIME ( 21, 3, 42.00000000000000000, #101 ) ;
#220 = FACE_BOUND ( 'NONE', #244, .T. ) ;
#221 = ORIENTED_EDGE ( 'NONE', *, *, #868, .F. ) ;
#222 =( LENGTH_UNIT ( ) NAMED_UNIT ( * ) SI_UNIT ( .MILLI., .METRE. ) );
#223 = FACE_OUTER_BOUND ( 'NONE', #278, .T. ) ;
#224 = VECTOR ( 'NONE', #992, 1000.000000000000000 ) ;
#225 = ORIENTED_EDGE ( 'NONE', *, *, #897, .T. ) ;
#226 = DATE_TIME_ROLE ( 'creation_date' ) ;
#227 = CARTESIAN_POINT ( 'NONE',  ( -30.00000000000001066, 0.000000000000000000, -12.49999999999999645 ) ) ;
#228 = EDGE_CURVE ( 'NONE', #159, #457, #960, .T. ) ;
#229 = LINE ( 'NONE', #59, #881 ) ;
#230 = EDGE_CURVE ( 'NONE', #172, #177, #499, .T. ) ;
#231 = CIRCLE ( 'NONE', #955, 2.999999999999999112 ) ;
#232 = ORIENTED_EDGE ( 'NONE', *, *, #1040, .T. ) ;
#233 = CC_DESIGN_DATE_AND_TIME_ASSIGNMENT ( #653, #979, ( #305 ) ) ;
#234 = COORDINATED_UNIVERSAL_TIME_OFFSET ( 8, 0, .AHEAD. ) ;
#235 = CARTESIAN_POINT ( 'NONE',  ( 29.99999999999999645, -6.000000000000000000, 1.000000000000003553 ) ) ;
#236 = ORIENTED_EDGE ( 'NONE', *, *, #260, .T. ) ;
#237 = DIRECTION ( 'NONE',  ( -0.000000000000000000, 1.000000000000000000, -0.000000000000000000 ) ) ;
#238 = EDGE_LOOP ( 'NONE', ( #254, #489, #381, #354 ) ) ;
#239 = AXIS2_PLACEMENT_3D ( 'NONE', #764, #36, #362 ) ;
#240 = AXIS2_PLACEMENT_3D ( 'NONE', #779, #150, #873 ) ;
#241 = DIRECTION ( 'NONE',  ( 0.000000000000000000, 1.000000000000000000, 0.000000000000000000 ) ) ;
#242 = DIRECTION ( 'NONE',  ( 0.000000000000000000, 0.000000000000000000, 1.000000000000000000 ) ) ;
#243 = CIRCLE ( 'NONE', #632, 1.499999999999996225 ) ;
#244 = EDGE_LOOP ( 'NONE', ( #324, #832 ) ) ;
#245 = PERSON_AND_ORGANIZATION ( #899, #657 ) ;
#246 = CARTESIAN_POINT ( 'NONE',  ( 30.99999999999999289, 4.000000000000000000, -14.49999999999999822 ) ) ;
#247 = CARTESIAN_POINT ( 'NONE',  ( 5.000000000000000000, -6.000000000000000000, 0.000000000000000000 ) ) ;
#248 = PRODUCT_DEFINITION ( 'æœ', '', #167, #335 ) ;
#249 = CC_DESIGN_APPROVAL ( #902, ( #305 ) ) ;
#250 = VERTEX_POINT ( 'NONE', #877 ) ;
#251 = ORIENTED_EDGE ( 'NONE', *, *, #12, .T. ) ;
#252 = DIRECTION ( 'NONE',  ( 0.000000000000000000, 0.000000000000000000, 1.000000000000000000 ) ) ;
#253 = CARTESIAN_POINT ( 'NONE',  ( 33.99999999999999289, 4.000000000000000000, 14.50000000000000533 ) ) ;
#254 = ORIENTED_EDGE ( 'NONE', *, *, #3, .T. ) ;
#255 = AXIS2_PLACEMENT_3D ( 'NONE', #509, #49, #757 ) ;
#256 = ORIENTED_EDGE ( 'NONE', *, *, #429, .F. ) ;
#257 = AXIS2_PLACEMENT_3D ( 'NONE', #675, #1005, #441 ) ;
#258 = FACE_OUTER_BOUND ( 'NONE', #395, .T. ) ;
#259 = DIRECTION ( 'NONE',  ( 0.000000000000000000, 0.000000000000000000, 1.000000000000000000 ) ) ;
#260 = EDGE_CURVE ( 'NONE', #48, #442, #799, .T. ) ;
#261 = EDGE_CURVE ( 'NONE', #461, #398, #811, .T. ) ;
#262 = CALENDAR_DATE ( 2026, 7, 5 ) ;
#263 = ORIENTED_EDGE ( 'NONE', *, *, #845, .F. ) ;
#264 = CC_DESIGN_PERSON_AND_ORGANIZATION_ASSIGNMENT ( #396, #387, ( #594 ) ) ;
#265 = FACE_OUTER_BOUND ( 'NONE', #623, .T. ) ;
#266 = CARTESIAN_POINT ( 'NONE',  ( -21.00000000000001066, 0.000000000000000000, 1.000000000000003775 ) ) ;
#267 = VECTOR ( 'NONE', #948, 1000.000000000000000 ) ;
#268 = DIRECTION ( 'NONE',  ( 0.000000000000000000, 0.000000000000000000, -1.000000000000000000 ) ) ;
#269 = VERTEX_POINT ( 'NONE', #471 ) ;
#270 = DIRECTION ( 'NONE',  ( -0.000000000000000000, 1.000000000000000000, -0.000000000000000000 ) ) ;
#271 = DIRECTION ( 'NONE',  ( -0.000000000000000000, -1.000000000000000000, -0.000000000000000000 ) ) ;
#272 = CARTESIAN_POINT ( 'NONE',  ( 29.99999999999998579, 0.000000000000000000, 9.500000000000005329 ) ) ;
#273 = ADVANCED_FACE ( 'NONE', ( #492 ), #82, .F. ) ;
#274 = ORIENTED_EDGE ( 'NONE', *, *, #228, .F. ) ;
#275 = VECTOR ( 'NONE', #663, 1000.000000000000000 ) ;
#276 = CARTESIAN_POINT ( 'NONE',  ( 29.99999999999998579, 4.000000000000000000, 11.00000000000000178 ) ) ;
#277 = CARTESIAN_POINT ( 'NONE',  ( -30.00000000000001066, 4.000000000000000000, -13.99999999999999822 ) ) ;
#278 = EDGE_LOOP ( 'NONE', ( #336, #133, #86, #187 ) ) ;
#279 = DIRECTION ( 'NONE',  ( 0.000000000000000000, 0.000000000000000000, 1.000000000000000000 ) ) ;
#280 = EDGE_LOOP ( 'NONE', ( #5, #900, #901, #597 ) ) ;
#281 = AXIS2_PLACEMENT_3D ( 'NONE', #246, #885, #975 ) ;
#282 = DIRECTION ( 'NONE',  ( 0.000000000000000000, 0.000000000000000000, 1.000000000000000000 ) ) ;
#283 = DIRECTION ( 'NONE',  ( 0.000000000000000000, 0.000000000000000000, 1.000000000000000000 ) ) ;
#284 = ORIENTED_EDGE ( 'NONE', *, *, #520, .T. ) ;
#285 = EDGE_CURVE ( 'NONE', #250, #765, #748, .T. ) ;
#286 = DIRECTION ( 'NONE',  ( -0.000000000000000000, 1.000000000000000000, -0.000000000000000000 ) ) ;
#287 = ORIENTED_EDGE ( 'NONE', *, *, #228, .T. ) ;
#288 = CARTESIAN_POINT ( 'NONE',  ( -30.00000000000001066, 0.000000000000000000, -12.49999999999999645 ) ) ;
#289 = ADVANCED_FACE ( 'NONE', ( #320 ), #639, .F. ) ;
#290 = ORIENTED_EDGE ( 'NONE', *, *, #705, .F. ) ;
#291 = DIRECTION ( 'NONE',  ( -0.000000000000000000, -1.000000000000000000, -0.000000000000000000 ) ) ;
#292 = EDGE_LOOP ( 'NONE', ( #19, #416 ) ) ;
#293 = DIRECTION ( 'NONE',  ( 0.000000000000000000, 1.000000000000000000, 0.000000000000000000 ) ) ;
#294 = DIRECTION ( 'NONE',  ( 0.000000000000000000, 1.000000000000000000, 0.000000000000000000 ) ) ;
#295 = CIRCLE ( 'NONE', #420, 2.999999999999999112 ) ;
#296 = PLANE ( 'NONE',  #111 ) ;
#297 = ADVANCED_FACE ( 'NONE', ( #834 ), #913, .T. ) ;
#298 = DIRECTION ( 'NONE',  ( -0.000000000000000000, -1.000000000000000000, -0.000000000000000000 ) ) ;
#299 = ORIENTED_EDGE ( 'NONE', *, *, #326, .T. ) ;
#300 = CIRCLE ( 'NONE', #382, 1.500000000000000444 ) ;
#301 = EDGE_CURVE ( 'NONE', #42, #920, #1012, .T. ) ;
#302 = DIRECTION ( 'NONE',  ( 0.000000000000000000, 0.000000000000000000, -1.000000000000000000 ) ) ;
#303 = ORIENTED_EDGE ( 'NONE', *, *, #949, .F. ) ;
#304 = CARTESIAN_POINT ( 'NONE',  ( -21.00000000000001066, -6.000000000000000000, 8.000000000000003553 ) ) ;
#305 = SECURITY_CLASSIFICATION ( '', '', #25 ) ;
#306 = CARTESIAN_POINT ( 'NONE',  ( -29.99999999999999289, 4.000000000000000000, 13.50000000000000355 ) ) ;
#307 = ORIENTED_EDGE ( 'NONE', *, *, #401, .F. ) ;
#308 = DIRECTION ( 'NONE',  ( 0.000000000000000000, 0.000000000000000000, -1.000000000000000000 ) ) ;
#309 = DIRECTION ( 'NONE',  ( 0.000000000000000000, -0.000000000000000000, -1.000000000000000000 ) ) ;
#310 = DIRECTION ( 'NONE',  ( 0.000000000000000000, 0.000000000000000000, -1.000000000000000000 ) ) ;
#311 = AXIS2_PLACEMENT_3D ( 'NONE', #61, #298, #616 ) ;
#312 = AXIS2_PLACEMENT_3D ( 'NONE', #716, #620, #784 ) ;
#313 = EDGE_CURVE ( 'NONE', #911, #48, #715, .T. ) ;
#314 = ORIENTED_EDGE ( 'NONE', *, *, #313, .T. ) ;
#315 = CYLINDRICAL_SURFACE ( 'NONE', #312, 1.500000000000001332 ) ;
#316 = VECTOR ( 'NONE', #857, 1000.000000000000000 ) ;
#317 = ORIENTED_EDGE ( 'NONE', *, *, #68, .F. ) ;
#318 = APPLICATION_PROTOCOL_DEFINITION ( 'international standard', 'config_control_design', 1994, #434 ) ;
#319 = LOCAL_TIME ( 21, 3, 42.00000000000000000, #1039 ) ;
#320 = FACE_OUTER_BOUND ( 'NONE', #123, .T. ) ;
#321 = VERTEX_POINT ( 'NONE', #600 ) ;
#322 = DIRECTION ( 'NONE',  ( 1.000000000000000000, 0.000000000000000000, 0.000000000000000000 ) ) ;
#323 = DIRECTION ( 'NONE',  ( 0.000000000000000000, 0.000000000000000000, 1.000000000000000000 ) ) ;
#324 = ORIENTED_EDGE ( 'NONE', *, *, #520, .F. ) ;
#325 = CARTESIAN_POINT ( 'NONE',  ( -31.00000000000001066, 4.000000000000000000, 14.50000000000000533 ) ) ;
#326 = EDGE_CURVE ( 'NONE', #431, #684, #349, .T. ) ;
#327 = CARTESIAN_POINT ( 'NONE',  ( -21.00000000000001066, -6.000000000000000000, 11.00000000000000711 ) ) ;
#328 = CIRCLE ( 'NONE', #730, 1.500000000000000444 ) ;
#329 = ORIENTED_EDGE ( 'NONE', *, *, #102, .T. ) ;
#330 = EDGE_CURVE ( 'NONE', #973, #13, #645, .T. ) ;
#331 = EDGE_LOOP ( 'NONE', ( #1036, #251, #400, #754 ) ) ;
#332 = CARTESIAN_POINT ( 'NONE',  ( -29.99999999999999289, 4.000000000000000000, 13.50000000000000355 ) ) ;
#333 = DIRECTION ( 'NONE',  ( 0.000000000000000000, 0.000000000000000000, 1.000000000000000000 ) ) ;
#334 = AXIS2_PLACEMENT_3D ( 'NONE', #89, #475, #564 ) ;
#335 = DESIGN_CONTEXT ( 'detailed design', #485, 'design' ) ;
#336 = ORIENTED_EDGE ( 'NONE', *, *, #813, .F. ) ;
#337 = ORIENTED_EDGE ( 'NONE', *, *, #340, .F. ) ;
#338 = CARTESIAN_POINT ( 'NONE',  ( -30.00000000000000711, 4.000000000000000000, -2.999999999999996447 ) ) ;
#339 = CARTESIAN_POINT ( 'NONE',  ( -34.00000000000000711, 0.000000000000000000, -17.49999999999999645 ) ) ;
#340 = EDGE_CURVE ( 'NONE', #684, #212, #936, .T. ) ;
#341 = AXIS2_PLACEMENT_3D ( 'NONE', #202, #518, #128 ) ;
#342 = ORIENTED_EDGE ( 'NONE', *, *, #230, .T. ) ;
#343 = AXIS2_PLACEMENT_3D ( 'NONE', #933, #1018, #629 ) ;
#344 = DIRECTION ( 'NONE',  ( 0.000000000000000000, 0.000000000000000000, -1.000000000000000000 ) ) ;
#345 = CARTESIAN_POINT ( 'NONE',  ( -34.00000000000000711, 4.000000000000000000, -14.49999999999999467 ) ) ;
#346 = DIRECTION ( 'NONE',  ( 0.000000000000000000, 0.000000000000000000, -1.000000000000000000 ) ) ;
#347 = ORIENTED_EDGE ( 'NONE', *, *, #717, .T. ) ;
#348 = DIRECTION ( 'NONE',  ( 0.000000000000000000, 1.000000000000000000, 0.000000000000000000 ) ) ;
#349 = LINE ( 'NONE', #997, #985 ) ;
#350 = CYLINDRICAL_SURFACE ( 'NONE', #999, 1.500000000000000444 ) ;
#351 = ORIENTED_EDGE ( 'NONE', *, *, #956, .T. ) ;
#352 = CARTESIAN_POINT ( 'NONE',  ( 30.99999999999999289, 4.000000000000000000, -17.49999999999999645 ) ) ;
#353 = DIRECTION ( 'NONE',  ( 0.000000000000000000, 0.000000000000000000, -1.000000000000000000 ) ) ;
#354 = ORIENTED_EDGE ( 'NONE', *, *, #998, .F. ) ;
#355 = PLANE ( 'NONE',  #239 ) ;
#356 = ORIENTED_EDGE ( 'NONE', *, *, #540, .F. ) ;
#357 = VECTOR ( 'NONE', #1002, 1000.000000000000000 ) ;
#358 = LINE ( 'NONE', #719, #563 ) ;
#359 = FACE_OUTER_BOUND ( 'NONE', #947, .T. ) ;
#360 = APPROVAL ( #945, 'æœª' ) ;
#361 = ORIENTED_EDGE ( 'NONE', *, *, #701, .T. ) ;
#362 = DIRECTION ( 'NONE',  ( 0.000000000000000000, 0.000000000000000000, 1.000000000000000000 ) ) ;
#363 = ORIENTED_EDGE ( 'NONE', *, *, #548, .F. ) ;
#364 = AXIS2_PLACEMENT_3D ( 'NONE', #134, #348, #688 ) ;
#365 = PLANE ( 'NONE',  #52 ) ;
#366 = VECTOR ( 'NONE', #829, 1000.000000000000000 ) ;
#367 = ORIENTED_EDGE ( 'NONE', *, *, #544, .T. ) ;
#368 = VECTOR ( 'NONE', #403, 1000.000000000000000 ) ;
#369 = DIRECTION ( 'NONE',  ( 0.000000000000000000, -1.000000000000000000, 0.000000000000000000 ) ) ;
#370 = ORIENTED_EDGE ( 'NONE', *, *, #916, .F. ) ;
#371 = DIRECTION ( 'NONE',  ( -0.000000000000000000, 1.000000000000000000, -0.000000000000000000 ) ) ;
#372 = PLANE ( 'NONE',  #812 ) ;
#373 = EDGE_CURVE ( 'NONE', #426, #728, #28, .T. ) ;
#374 = FACE_OUTER_BOUND ( 'NONE', #280, .T. ) ;
#375 = CARTESIAN_POINT ( 'NONE',  ( 5.000000000000000000, -6.000000000000000000, 0.000000000000000000 ) ) ;
#376 = EDGE_LOOP ( 'NONE', ( #477, #417 ) ) ;
#377 = LINE ( 'NONE', #914, #357 ) ;
#378 = AXIS2_PLACEMENT_3D ( 'NONE', #118, #503, #691 ) ;
#379 = CARTESIAN_POINT ( 'NONE',  ( -21.00000000000001066, -6.000000000000000000, 9.500000000000005329 ) ) ;
#380 = AXIS2_PLACEMENT_3D ( 'NONE', #700, #209, #302 ) ;
#381 = ORIENTED_EDGE ( 'NONE', *, *, #826, .T. ) ;
#382 = AXIS2_PLACEMENT_3D ( 'NONE', #126, #194, #524 ) ;
#383 = DIRECTION ( 'NONE',  ( 0.000000000000000000, 1.000000000000000000, 0.000000000000000000 ) ) ;
#384 = CARTESIAN_POINT ( 'NONE',  ( -29.99999999999999289, 4.000000000000000000, 13.50000000000000355 ) ) ;
#385 = EDGE_CURVE ( 'NONE', #431, #500, #642, .T. ) ;
#386 = ORIENTED_EDGE ( 'NONE', *, *, #112, .F. ) ;
#387 = PERSON_AND_ORGANIZATION_ROLE ( 'design_owner' ) ;
#388 = VECTOR ( 'NONE', #782, 1000.000000000000000 ) ;
#389 = FACE_BOUND ( 'NONE', #820, .T. ) ;
#390 = ORIENTED_EDGE ( 'NONE', *, *, #998, .T. ) ;
#391 = DIRECTION ( 'NONE',  ( -0.000000000000000000, 1.000000000000000000, -0.000000000000000000 ) ) ;
#392 = FACE_BOUND ( 'NONE', #376, .T. ) ;
#393 = CC_DESIGN_DATE_AND_TIME_ASSIGNMENT ( #546, #226, ( #248 ) ) ;
#394 = VECTOR ( 'NONE', #291, 1000.000000000000000 ) ;
#395 = EDGE_LOOP ( 'NONE', ( #838, #986, #232, #995 ) ) ;
#396 = PERSON_AND_ORGANIZATION ( #899, #657 ) ;
#397 = CARTESIAN_POINT ( 'NONE',  ( 29.99999999999998579, -6.000000000000000000, 9.500000000000005329 ) ) ;
#398 = VERTEX_POINT ( 'NONE', #502 ) ;
#399 = CARTESIAN_POINT ( 'NONE',  ( -30.00000000000000711, 0.000000000000000000, -2.999999999999996003 ) ) ;
#400 = ORIENTED_EDGE ( 'NONE', *, *, #401, .T. ) ;
#401 = EDGE_CURVE ( 'NONE', #250, #796, #767, .T. ) ;
#402 = DIRECTION ( 'NONE',  ( 0.000000000000000000, 1.000000000000000000, 0.000000000000000000 ) ) ;
#403 = DIRECTION ( 'NONE',  ( -0.000000000000000000, 1.000000000000000000, -0.000000000000000000 ) ) ;
#404 = AXIS2_PLACEMENT_3D ( 'NONE', #837, #667, #279 ) ;
#405 = ORIENTED_EDGE ( 'NONE', *, *, #83, .F. ) ;
#406 = CALENDAR_DATE ( 2026, 7, 5 ) ;
#407 = CYLINDRICAL_SURFACE ( 'NONE', #968, 2.999999999999999112 ) ;
#408 = CARTESIAN_POINT ( 'NONE',  ( 29.99999999999999645, 4.000000000000000000, -0.4999999999999970024 ) ) ;
#409 = VECTOR ( 'NONE', #10, 1000.000000000000000 ) ;
#410 = ORIENTED_EDGE ( 'NONE', *, *, #540, .T. ) ;
#411 = PERSON_AND_ORGANIZATION ( #899, #657 ) ;
#412 = ORIENTED_EDGE ( 'NONE', *, *, #790, .T. ) ;
#413 = CYLINDRICAL_SURFACE ( 'NONE', #904, 1.500000000000000444 ) ;
#414 = DIRECTION ( 'NONE',  ( 0.000000000000000000, 0.000000000000000000, -1.000000000000000000 ) ) ;
#415 = APPROVAL ( #550, 'æœª' ) ;
#416 = ORIENTED_EDGE ( 'NONE', *, *, #701, .F. ) ;
#417 = ORIENTED_EDGE ( 'NONE', *, *, #826, .F. ) ;
#418 = CARTESIAN_POINT ( 'NONE',  ( 29.99999999999998579, 0.000000000000000000, 8.000000000000008882 ) ) ;
#419 = LINE ( 'NONE', #41, #208 ) ;
#420 = AXIS2_PLACEMENT_3D ( 'NONE', #596, #855, #775 ) ;
#421 = ORIENTED_EDGE ( 'NONE', *, *, #98, .F. ) ;
#422 = DIRECTION ( 'NONE',  ( 0.000000000000000000, 0.000000000000000000, -1.000000000000000000 ) ) ;
#423 = LINE ( 'NONE', #982, #866 ) ;
#424 = VECTOR ( 'NONE', #846, 1000.000000000000000 ) ;
#425 = CARTESIAN_POINT ( 'NONE',  ( -21.00000000000001066, -6.000000000000000000, 9.500000000000005329 ) ) ;
#426 = VERTEX_POINT ( 'NONE', #122 ) ;
#427 = CARTESIAN_POINT ( 'NONE',  ( 5.000000000000000000, 0.000000000000000000, 7.500000000000000000 ) ) ;
#428 = CARTESIAN_POINT ( 'NONE',  ( 30.99999999999999645, 4.000000000000000000, 14.50000000000000533 ) ) ;
#429 = EDGE_CURVE ( 'NONE', #792, #516, #592, .T. ) ;
#430 = CARTESIAN_POINT ( 'NONE',  ( 33.99999999999999289, 4.000000000000000000, 17.50000000000000355 ) ) ;
#431 = VERTEX_POINT ( 'NONE', #266 ) ;
#432 = ADVANCED_FACE ( 'NONE', ( #359 ), #746, .F. ) ;
#433 = CARTESIAN_POINT ( 'NONE',  ( 30.99999999999999289, 4.000000000000000000, -17.49999999999999645 ) ) ;
#434 = APPLICATION_CONTEXT ( 'configuration controlled 3d designs of mechanical parts and assemblies' ) ;
#435 = DIRECTION ( 'NONE',  ( -0.000000000000000000, 1.000000000000000000, -0.000000000000000000 ) ) ;
#436 = EDGE_LOOP ( 'NONE', ( #74, #744, #724, #865 ) ) ;
#437 = DIRECTION ( 'NONE',  ( -0.000000000000000000, 1.000000000000000000, -0.000000000000000000 ) ) ;
#438 = ORIENTED_EDGE ( 'NONE', *, *, #80, .F. ) ;
#439 = AXIS2_PLACEMENT_3D ( 'NONE', #132, #515, #521 ) ;
#440 = DIRECTION ( 'NONE',  ( 0.000000000000000000, 0.000000000000000000, -1.000000000000000000 ) ) ;
#441 = DIRECTION ( 'NONE',  ( 0.000000000000000000, 0.000000000000000000, 1.000000000000000000 ) ) ;
#442 = VERTEX_POINT ( 'NONE', #109 ) ;
#443 = DIRECTION ( 'NONE',  ( 0.000000000000000000, 0.000000000000000000, -1.000000000000000000 ) ) ;
#444 = ORIENTED_EDGE ( 'NONE', *, *, #112, .T. ) ;
#445 = AXIS2_PLACEMENT_3D ( 'NONE', #1009, #693, #853 ) ;
#446 = CYLINDRICAL_SURFACE ( 'NONE', #884, 1.500000000000000666 ) ;
#447 = FACE_BOUND ( 'NONE', #292, .T. ) ;
#448 = CARTESIAN_POINT ( 'NONE',  ( -34.00000000000000711, 4.000000000000000000, -17.49999999999999645 ) ) ;
#449 = EDGE_CURVE ( 'NONE', #496, #147, #423, .T. ) ;
#450 = APPROVAL_PERSON_ORGANIZATION ( #872, #360, #218 ) ;
#451 = CARTESIAN_POINT ( 'NONE',  ( -30.00000000000001066, 4.000000000000000000, 7.000000000000003553 ) ) ;
#452 = VERTEX_POINT ( 'NONE', #182 ) ;
#453 = LINE ( 'NONE', #304, #388 ) ;
#454 = FACE_BOUND ( 'NONE', #567, .T. ) ;
#455 = DIRECTION ( 'NONE',  ( 0.000000000000000000, -1.000000000000000000, 0.000000000000000000 ) ) ;
#456 = FACE_OUTER_BOUND ( 'NONE', #1011, .T. ) ;
#457 = VERTEX_POINT ( 'NONE', #825 ) ;
#458 = CARTESIAN_POINT ( 'NONE',  ( -31.00000000000001066, 4.000000000000000000, -17.49999999999999645 ) ) ;
#459 = CYLINDRICAL_SURFACE ( 'NONE', #240, 1.500000000000001332 ) ;
#460 = EDGE_CURVE ( 'NONE', #641, #457, #498, .T. ) ;
#461 = VERTEX_POINT ( 'NONE', #117 ) ;
#462 = CIRCLE ( 'NONE', #870, 1.500000000000000444 ) ;
#463 = FACE_OUTER_BOUND ( 'NONE', #703, .T. ) ;
#464 = EDGE_LOOP ( 'NONE', ( #1006, #361, #299, #545 ) ) ;
#465 = AXIS2_PLACEMENT_3D ( 'NONE', #11, #166, #94 ) ;
#466 = COORDINATED_UNIVERSAL_TIME_OFFSET ( 8, 0, .AHEAD. ) ;
#467 = CARTESIAN_POINT ( 'NONE',  ( -30.00000000000001066, 4.000000000000000000, 4.000000000000001776 ) ) ;
#468 = DIRECTION ( 'NONE',  ( 0.000000000000000000, 1.000000000000000000, 0.000000000000000000 ) ) ;
#469 = VERTEX_POINT ( 'NONE', #189 ) ;
#470 =( NAMED_UNIT ( * ) PLANE_ANGLE_UNIT ( ) SI_UNIT ( $, .RADIAN. ) );
#471 = CARTESIAN_POINT ( 'NONE',  ( -34.00000000000000711, 4.000000000000000000, 14.50000000000000533 ) ) ;
#472 = AXIS2_PLACEMENT_3D ( 'NONE', #864, #539, #310 ) ;
#473 = ORIENTED_EDGE ( 'NONE', *, *, #548, .T. ) ;
#474 = PERSON_AND_ORGANIZATION ( #899, #657 ) ;
#475 = DIRECTION ( 'NONE',  ( 0.000000000000000000, -1.000000000000000000, 0.000000000000000000 ) ) ;
#476 = EDGE_CURVE ( 'NONE', #827, #490, #934, .T. ) ;
#477 = ORIENTED_EDGE ( 'NONE', *, *, #898, .F. ) ;
#478 = PERSON_AND_ORGANIZATION_ROLE ( 'design_supplier' ) ;
#479 = LINE ( 'NONE', #338, #409 ) ;
#480 = AXIS2_PLACEMENT_3D ( 'NONE', #797, #624, #1033 ) ;
#481 = DIRECTION ( 'NONE',  ( 0.000000000000000000, 0.000000000000000000, 1.000000000000000000 ) ) ;
#482 = ORIENTED_EDGE ( 'NONE', *, *, #868, .T. ) ;
#483 = DIRECTION ( 'NONE',  ( 0.000000000000000000, 1.000000000000000000, 0.000000000000000000 ) ) ;
#484 = LINE ( 'NONE', #235, #368 ) ;
#485 = APPLICATION_CONTEXT ( 'configuration controlled 3d designs of mechanical parts and assemblies' ) ;
#486 = EDGE_CURVE ( 'NONE', #584, #269, #419, .T. ) ;
#487 = EDGE_CURVE ( 'NONE', #792, #761, #698, .T. ) ;
#488 = CIRCLE ( 'NONE', #255, 1.500000000000000444 ) ;
#489 = ORIENTED_EDGE ( 'NONE', *, *, #791, .T. ) ;
#490 = VERTEX_POINT ( 'NONE', #581 ) ;
#491 = CARTESIAN_POINT ( 'NONE',  ( -30.00000000000001066, 0.000000000000000000, 7.000000000000004441 ) ) ;
#492 = FACE_OUTER_BOUND ( 'NONE', #238, .T. ) ;
#493 = AXIS2_PLACEMENT_3D ( 'NONE', #213, #270, #996 ) ;
#494 = ORIENTED_EDGE ( 'NONE', *, *, #807, .T. ) ;
#495 = APPROVAL_ROLE ( '' ) ;
#496 = VERTEX_POINT ( 'NONE', #467 ) ;
#497 = CYLINDRICAL_SURFACE ( 'NONE', #193, 1.499999999999996225 ) ;
#498 = LINE ( 'NONE', #46, #224 ) ;
#499 = CIRCLE ( 'NONE', #655, 1.500000000000000444 ) ;
#500 = VERTEX_POINT ( 'NONE', #932 ) ;
#501 = CYLINDRICAL_SURFACE ( 'NONE', #281, 2.999999999999999112 ) ;
#502 = CARTESIAN_POINT ( 'NONE',  ( -21.00000000000001066, 4.000000000000000000, 11.00000000000000711 ) ) ;
#503 = DIRECTION ( 'NONE',  ( 0.000000000000000000, 1.000000000000000000, 0.000000000000000000 ) ) ;
#504 = ORIENTED_EDGE ( 'NONE', *, *, #460, .F. ) ;
#505 = EDGE_CURVE ( 'NONE', #138, #796, #610, .T. ) ;
#506 = DIRECTION ( 'NONE',  ( 0.000000000000000000, 0.000000000000000000, 1.000000000000000000 ) ) ;
#507 = DIRECTION ( 'NONE',  ( 0.000000000000000000, 1.000000000000000000, 0.000000000000000000 ) ) ;
#508 = ADVANCED_FACE ( 'NONE', ( #135, #783, #950, #867, #447, #941, #454, #773, #149, #58 ), #372, .T. ) ;
#509 = CARTESIAN_POINT ( 'NONE',  ( -30.00000000000001066, 0.000000000000000000, 5.500000000000003553 ) ) ;
#510 = ORIENTED_EDGE ( 'NONE', *, *, #261, .T. ) ;
#511 = FACE_OUTER_BOUND ( 'NONE', #464, .T. ) ;
#512 = DIRECTION ( 'NONE',  ( 0.000000000000000000, 0.000000000000000000, -1.000000000000000000 ) ) ;
#513 = ORIENTED_EDGE ( 'NONE', *, *, #577, .T. ) ;
#514 = VECTOR ( 'NONE', #308, 1000.000000000000000 ) ;
#515 = DIRECTION ( 'NONE',  ( -0.000000000000000000, 1.000000000000000000, -0.000000000000000000 ) ) ;
#516 = VERTEX_POINT ( 'NONE', #1017 ) ;
#517 = CARTESIAN_POINT ( 'NONE',  ( -34.00000000000000711, 4.000000000000000000, 17.50000000000000355 ) ) ;
#518 = DIRECTION ( 'NONE',  ( -0.000000000000000000, -1.000000000000000000, -0.000000000000000000 ) ) ;
#519 = ORIENTED_EDGE ( 'NONE', *, *, #705, .T. ) ;
#520 = EDGE_CURVE ( 'NONE', #50, #1008, #160, .T. ) ;
#521 = DIRECTION ( 'NONE',  ( 1.156482317317871725E-15, 0.000000000000000000, -1.000000000000000000 ) ) ;
#522 = ORIENTED_EDGE ( 'NONE', *, *, #301, .F. ) ;
#523 = VECTOR ( 'NONE', #271, 1000.000000000000000 ) ;
#524 = DIRECTION ( 'NONE',  ( 0.000000000000000000, 0.000000000000000000, 1.000000000000000000 ) ) ;
#525 = CIRCLE ( 'NONE', #30, 1.500000000000000444 ) ;
#526 = EDGE_CURVE ( 'NONE', #765, #138, #214, .T. ) ;
#527 = DIRECTION ( 'NONE',  ( 0.000000000000000000, 0.000000000000000000, 1.000000000000000000 ) ) ;
#528 = LINE ( 'NONE', #43, #570 ) ;
#529 = ORIENTED_EDGE ( 'NONE', *, *, #791, .F. ) ;
#530 = DIRECTION ( 'NONE',  ( 0.000000000000000000, 0.000000000000000000, -1.000000000000000000 ) ) ;
#531 = FACE_BOUND ( 'NONE', #800, .T. ) ;
#532 = DIRECTION ( 'NONE',  ( -0.000000000000000000, 1.000000000000000000, -0.000000000000000000 ) ) ;
#533 = ORIENTED_EDGE ( 'NONE', *, *, #659, .F. ) ;
#534 = PLANE ( 'NONE',  #480 ) ;
#535 = CARTESIAN_POINT ( 'NONE',  ( -30.00000000000000711, 4.000000000000000000, -5.999999999999998224 ) ) ;
#536 = ORIENTED_EDGE ( 'NONE', *, *, #230, .F. ) ;
#537 = CALENDAR_DATE ( 2026, 7, 5 ) ;
#538 = AXIS2_PLACEMENT_3D ( 'NONE', #575, #666, #512 ) ;
#539 = DIRECTION ( 'NONE',  ( -0.000000000000000000, -1.000000000000000000, 0.000000000000000000 ) ) ;
#540 = EDGE_CURVE ( 'NONE', #457, #42, #377, .T. ) ;
#541 = ORIENTED_EDGE ( 'NONE', *, *, #622, .T. ) ;
#542 = APPROVAL_ROLE ( '' ) ;
#543 = DIRECTION ( 'NONE',  ( -0.000000000000000000, -0.000000000000000000, 1.000000000000000000 ) ) ;
#544 = EDGE_CURVE ( 'NONE', #814, #758, #191, .T. ) ;
#545 = ORIENTED_EDGE ( 'NONE', *, *, #340, .T. ) ;
#546 = DATE_AND_TIME ( #953, #140 ) ;
#547 = DIRECTION ( 'NONE',  ( 0.000000000000000000, 0.000000000000000000, 1.000000000000000000 ) ) ;
#548 = EDGE_CURVE ( 'NONE', #147, #758, #488, .T. ) ;
#549 = EDGE_LOOP ( 'NONE', ( #572, #205 ) ) ;
#550 = APPROVAL_STATUS ( 'not_yet_approved' ) ;
#551 = PRODUCT_RELATED_PRODUCT_CATEGORY ( 'detail', '', ( #594 ) ) ;
#552 = CARTESIAN_POINT ( 'NONE',  ( 5.000000000000000000, 0.000000000000000000, 0.000000000000000000 ) ) ;
#553 = CIRCLE ( 'NONE', #173, 1.500000000000000444 ) ;
#554 = AXIS2_PLACEMENT_3D ( 'NONE', #806, #569, #323 ) ;
#555 = VERTEX_POINT ( 'NONE', #910 ) ;
#556 = COORDINATED_UNIVERSAL_TIME_OFFSET ( 8, 0, .AHEAD. ) ;
#557 = CARTESIAN_POINT ( 'NONE',  ( 5.000000000000000000, 4.000000000000000000, 0.000000000000000000 ) ) ;
#558 = AXIS2_PLACEMENT_3D ( 'NONE', #332, #810, #181 ) ;
#559 = DIRECTION ( 'NONE',  ( 0.000000000000000000, 1.000000000000000000, 0.000000000000000000 ) ) ;
#560 = EDGE_LOOP ( 'NONE', ( #347, #697, #776, #106, #56, #803, #609, #952 ) ) ;
#561 = EDGE_CURVE ( 'NONE', #944, #861, #849, .T. ) ;
#562 = DIRECTION ( 'NONE',  ( 0.000000000000000000, 0.000000000000000000, 1.000000000000000000 ) ) ;
#563 = VECTOR ( 'NONE', #391, 1000.000000000000000 ) ;
#564 = DIRECTION ( 'NONE',  ( 0.000000000000000000, 0.000000000000000000, -1.000000000000000000 ) ) ;
#565 = ORIENTED_EDGE ( 'NONE', *, *, #680, .F. ) ;
#566 = PERSON_AND_ORGANIZATION_ROLE ( 'creator' ) ;
#567 = EDGE_LOOP ( 'NONE', ( #482, #26 ) ) ;
#568 = DIRECTION ( 'NONE',  ( 0.000000000000000000, -1.000000000000000000, 0.000000000000000000 ) ) ;
#569 = DIRECTION ( 'NONE',  ( 0.000000000000000000, 1.000000000000000000, 0.000000000000000000 ) ) ;
#570 = VECTOR ( 'NONE', #437, 1000.000000000000000 ) ;
#571 = CIRCLE ( 'NONE', #343, 1.500000000000001332 ) ;
#572 = ORIENTED_EDGE ( 'NONE', *, *, #330, .F. ) ;
#573 = VERTEX_POINT ( 'NONE', #843 ) ;
#574 = CARTESIAN_POINT ( 'NONE',  ( -34.00000000000000711, 0.000000000000000000, -14.49999999999999467 ) ) ;
#575 = CARTESIAN_POINT ( 'NONE',  ( -21.00000000000001066, 0.000000000000000000, -0.4999999999999970024 ) ) ;
#576 = CIRCLE ( 'NONE', #595, 7.500000000000000000 ) ;
#577 = EDGE_CURVE ( 'NONE', #155, #808, #741, .T. ) ;
#578 = DATE_AND_TIME ( #262, #621 ) ;
#579 = VERTEX_POINT ( 'NONE', #604 ) ;
#580 = DIRECTION ( 'NONE',  ( -0.000000000000000000, 1.000000000000000000, -0.000000000000000000 ) ) ;
#581 = CARTESIAN_POINT ( 'NONE',  ( 29.99999999999998579, 4.000000000000000000, 8.000000000000008882 ) ) ;
#582 = CIRCLE ( 'NONE', #753, 2.999999999999999112 ) ;
#583 = CARTESIAN_POINT ( 'NONE',  ( -31.00000000000001066, 0.000000000000000000, 17.50000000000000355 ) ) ;
#584 = VERTEX_POINT ( 'NONE', #922 ) ;
#585 = AXIS2_PLACEMENT_3D ( 'NONE', #587, #909, #840 ) ;
#586 = CARTESIAN_POINT ( 'NONE',  ( 33.99999999999999289, 4.000000000000000000, -14.49999999999999467 ) ) ;
#587 = CARTESIAN_POINT ( 'NONE',  ( 30.99999999999999645, 4.000000000000000000, 14.50000000000000533 ) ) ;
#588 = EDGE_CURVE ( 'NONE', #177, #172, #78, .T. ) ;
#589 = LINE ( 'NONE', #430, #29 ) ;
#590 = ORIENTED_EDGE ( 'NONE', *, *, #601, .T. ) ;
#591 = FACE_OUTER_BOUND ( 'NONE', #200, .T. ) ;
#592 = LINE ( 'NONE', #339, #275 ) ;
#593 = ORIENTED_EDGE ( 'NONE', *, *, #313, .F. ) ;
#594 = PRODUCT ( '\X2\624b722a56fa5b9a677f\X0\', '\X2\624b722a56fa5b9a677f\X0\', '', ( #958 ) ) ;
#595 = AXIS2_PLACEMENT_3D ( 'NONE', #116, #598, #606 ) ;
#596 = CARTESIAN_POINT ( 'NONE',  ( -31.00000000000001066, 4.000000000000000000, 14.50000000000000533 ) ) ;
#597 = ORIENTED_EDGE ( 'NONE', *, *, #261, .F. ) ;
#598 = DIRECTION ( 'NONE',  ( 0.000000000000000000, 1.000000000000000000, 0.000000000000000000 ) ) ;
#599 = ADVANCED_FACE ( 'NONE', ( #199 ), #989, .F. ) ;
#600 = CARTESIAN_POINT ( 'NONE',  ( -29.99999999999999289, 0.000000000000000000, 15.00000000000000533 ) ) ;
#601 = EDGE_CURVE ( 'NONE', #808, #490, #124, .T. ) ;
#602 = ORIENTED_EDGE ( 'NONE', *, *, #755, .F. ) ;
#603 = CC_DESIGN_PERSON_AND_ORGANIZATION_ASSIGNMENT ( #631, #862, ( #248 ) ) ;
#604 = CARTESIAN_POINT ( 'NONE',  ( -21.00000000000001066, 4.000000000000000000, 8.000000000000003553 ) ) ;
#605 = ORIENTED_EDGE ( 'NONE', *, *, #157, .T. ) ;
#606 = DIRECTION ( 'NONE',  ( 0.000000000000000000, 0.000000000000000000, 1.000000000000000000 ) ) ;
#607 = ORIENTED_EDGE ( 'NONE', *, *, #544, .F. ) ;
#608 = CARTESIAN_POINT ( 'NONE',  ( 29.99999999999998579, -6.000000000000000000, 8.000000000000008882 ) ) ;
#609 = ORIENTED_EDGE ( 'NONE', *, *, #669, .T. ) ;
#610 = CIRCLE ( 'NONE', #677, 1.500000000000001332 ) ;
#611 = DIRECTION ( 'NONE',  ( 0.000000000000000000, -1.000000000000000000, 0.000000000000000000 ) ) ;
#612 = CIRCLE ( 'NONE', #161, 1.499999999999996225 ) ;
#613 = DIRECTION ( 'NONE',  ( 0.000000000000000000, 0.000000000000000000, 1.000000000000000000 ) ) ;
#614 = FACE_OUTER_BOUND ( 'NONE', #1015, .T. ) ;
#615 = CIRCLE ( 'NONE', #1042, 2.999999999999999112 ) ;
#616 = DIRECTION ( 'NONE',  ( 0.000000000000000000, 0.000000000000000000, -1.000000000000000000 ) ) ;
#617 = ORIENTED_EDGE ( 'NONE', *, *, #819, .T. ) ;
#618 = DIRECTION ( 'NONE',  ( 0.000000000000000000, 0.000000000000000000, 1.000000000000000000 ) ) ;
#619 = AXIS2_PLACEMENT_3D ( 'NONE', #247, #18, #333 ) ;
#620 = DIRECTION ( 'NONE',  ( -0.000000000000000000, -1.000000000000000000, -0.000000000000000000 ) ) ;
#621 = LOCAL_TIME ( 21, 3, 42.00000000000000000, #466 ) ;
#622 = EDGE_CURVE ( 'NONE', #758, #147, #1037, .T. ) ;
#623 = EDGE_LOOP ( 'NONE', ( #565, #738, #263, #1022 ) ) ;
#624 = DIRECTION ( 'NONE',  ( 1.000000000000000000, -0.000000000000000000, 0.000000000000000000 ) ) ;
#625 = FACE_OUTER_BOUND ( 'NONE', #689, .T. ) ;
#626 = EDGE_CURVE ( 'NONE', #920, #944, #589, .T. ) ;
#627 = ORIENTED_EDGE ( 'NONE', *, *, #835, .T. ) ;
#628 = VECTOR ( 'NONE', #994, 1000.000000000000000 ) ;
#629 = DIRECTION ( 'NONE',  ( 0.000000000000000000, 0.000000000000000000, 1.000000000000000000 ) ) ;
#630 = VERTEX_POINT ( 'NONE', #831 ) ;
#631 = PERSON_AND_ORGANIZATION ( #899, #657 ) ;
#632 = AXIS2_PLACEMENT_3D ( 'NONE', #903, #88, #174 ) ;
#633 = CARTESIAN_POINT ( 'NONE',  ( -21.00000000000001066, 4.000000000000000000, -1.999999999999997780 ) ) ;
#634 = EDGE_CURVE ( 'NONE', #500, #212, #528, .T. ) ;
#635 = ORIENTED_EDGE ( 'NONE', *, *, #157, .F. ) ;
#636 = ADVANCED_FACE ( 'NONE', ( #137 ), #355, .F. ) ;
#637 = APPROVAL_DATE_TIME ( #710, #360 ) ;
#638 = MANIFOLD_SOLID_BREP ( '\X2\52079664\X0\-\X2\62c94f38\X0\1', #1001 ) ;
#639 = CYLINDRICAL_SURFACE ( 'NONE', #640, 1.500000000000000444 ) ;
#640 = AXIS2_PLACEMENT_3D ( 'NONE', #882, #435, #259 ) ;
#641 = VERTEX_POINT ( 'NONE', #583 ) ;
#642 = CIRCLE ( 'NONE', #538, 1.500000000000000444 ) ;
#643 = CARTESIAN_POINT ( 'NONE',  ( -30.00000000000001066, 4.000000000000000000, 7.000000000000004441 ) ) ;
#644 = CARTESIAN_POINT ( 'NONE',  ( 29.99999999999998579, 0.000000000000000000, 11.00000000000000178 ) ) ;
#645 = CIRCLE ( 'NONE', #190, 1.500000000000000444 ) ;
#646 = ORIENTED_EDGE ( 'NONE', *, *, #845, .T. ) ;
#647 = ADVANCED_FACE ( 'NONE', ( #113 ), #350, .F. ) ;
#648 = DIRECTION ( 'NONE',  ( 0.000000000000000000, 0.000000000000000000, -1.000000000000000000 ) ) ;
#649 = VECTOR ( 'NONE', #580, 1000.000000000000000 ) ;
#650 = DIRECTION ( 'NONE',  ( 0.000000000000000000, -1.000000000000000000, 0.000000000000000000 ) ) ;
#651 = AXIS2_PLACEMENT_3D ( 'NONE', #658, #2, #99 ) ;
#652 = ORIENTED_EDGE ( 'NONE', *, *, #1027, .T. ) ;
#653 = DATE_AND_TIME ( #804, #219 ) ;
#654 = EDGE_LOOP ( 'NONE', ( #125, #9, #652, #494 ) ) ;
#655 = AXIS2_PLACEMENT_3D ( 'NONE', #976, #726, #547 ) ;
#656 = DIRECTION ( 'NONE',  ( 0.000000000000000000, 0.000000000000000000, 1.000000000000000000 ) ) ;
#657 = ORGANIZATION ( 'æœª', 'æœª', '' ) ;
#658 = CARTESIAN_POINT ( 'NONE',  ( -30.00000000000001066, 4.000000000000000000, -12.49999999999999645 ) ) ;
#659 = EDGE_CURVE ( 'NONE', #50, #177, #204, .T. ) ;
#660 = ORIENTED_EDGE ( 'NONE', *, *, #68, .T. ) ;
#661 = ORIENTED_EDGE ( 'NONE', *, *, #154, .F. ) ;
#662 = DIRECTION ( 'NONE',  ( -0.000000000000000000, -1.000000000000000000, -0.000000000000000000 ) ) ;
#663 = DIRECTION ( 'NONE',  ( -1.000000000000000000, -0.000000000000000000, -0.000000000000000000 ) ) ;
#664 = AXIS2_PLACEMENT_3D ( 'NONE', #1024, #294, #613 ) ;
#665 = DIRECTION ( 'NONE',  ( 0.000000000000000000, -1.000000000000000000, 0.000000000000000000 ) ) ;
#666 = DIRECTION ( 'NONE',  ( 0.000000000000000000, -1.000000000000000000, 0.000000000000000000 ) ) ;
#667 = DIRECTION ( 'NONE',  ( 0.000000000000000000, 1.000000000000000000, 0.000000000000000000 ) ) ;
#668 = ORIENTED_EDGE ( 'NONE', *, *, #127, .F. ) ;
#669 = EDGE_CURVE ( 'NONE', #426, #269, #937, .T. ) ;
#670 = CYLINDRICAL_SURFACE ( 'NONE', #73, 1.500000000000000666 ) ;
#671 = DIRECTION ( 'NONE',  ( -0.000000000000000000, 1.000000000000000000, -0.000000000000000000 ) ) ;
#672 = CARTESIAN_POINT ( 'NONE',  ( -34.00000000000000711, 4.000000000000000000, 17.50000000000000355 ) ) ;
#673 = EDGE_LOOP ( 'NONE', ( #938, #856, #923, #303 ) ) ;
#674 = DIRECTION ( 'NONE',  ( 0.000000000000000000, 0.000000000000000000, -1.000000000000000000 ) ) ;
#675 = CARTESIAN_POINT ( 'NONE',  ( -29.99999999999999289, 4.000000000000000000, 13.50000000000000355 ) ) ;
#676 = ORIENTED_EDGE ( 'NONE', *, *, #196, .F. ) ;
#677 = AXIS2_PLACEMENT_3D ( 'NONE', #227, #383, #863 ) ;
#678 = AXIS2_PLACEMENT_3D ( 'NONE', #954, #942, #145 ) ;
#679 = DIRECTION ( 'NONE',  ( -0.000000000000000000, -0.000000000000000000, 1.000000000000000000 ) ) ;
#680 = EDGE_CURVE ( 'NONE', #269, #630, #295, .T. ) ;
#681 = ORIENTED_EDGE ( 'NONE', *, *, #330, .T. ) ;
#682 = CARTESIAN_POINT ( 'NONE',  ( -34.00000000000000711, 4.000000000000000000, -17.49999999999999645 ) ) ;
#683 = DIRECTION ( 'NONE',  ( -0.000000000000000000, 1.000000000000000000, -0.000000000000000000 ) ) ;
#684 = VERTEX_POINT ( 'NONE', #749 ) ;
#685 = AXIS2_PLACEMENT_3D ( 'NONE', #557, #293, #282 ) ;
#686 = DIRECTION ( 'NONE',  ( -0.000000000000000000, -1.000000000000000000, -0.000000000000000000 ) ) ;
#687 = EDGE_LOOP ( 'NONE', ( #351, #660 ) ) ;
#688 = DIRECTION ( 'NONE',  ( 0.000000000000000000, 0.000000000000000000, 1.000000000000000000 ) ) ;
#689 = EDGE_LOOP ( 'NONE', ( #676, #314, #236, #317 ) ) ;
#690 = CIRCLE ( 'NONE', #874, 1.500000000000001332 ) ;
#691 = DIRECTION ( 'NONE',  ( 0.000000000000000000, 0.000000000000000000, 1.000000000000000000 ) ) ;
#692 = EDGE_LOOP ( 'NONE', ( #130, #750, #510, #875 ) ) ;
#693 = DIRECTION ( 'NONE',  ( 0.000000000000000000, 1.000000000000000000, 0.000000000000000000 ) ) ;
#694 = DIRECTION ( 'NONE',  ( 0.000000000000000000, -1.000000000000000000, 0.000000000000000000 ) ) ;
#695 = FACE_BOUND ( 'NONE', #967, .T. ) ;
#696 = CYLINDRICAL_SURFACE ( 'NONE', #311, 1.500000000000000444 ) ;
#697 = ORIENTED_EDGE ( 'NONE', *, *, #301, .T. ) ;
#698 = CIRCLE ( 'NONE', #895, 2.999999999999999112 ) ;
#699 = CARTESIAN_POINT ( 'NONE',  ( 0.000000000000000000, 0.000000000000000000, 0.000000000000000000 ) ) ;
#700 = CARTESIAN_POINT ( 'NONE',  ( 5.000000000000000000, 0.000000000000000000, 0.000000000000000000 ) ) ;
#701 = EDGE_CURVE ( 'NONE', #500, #431, #553, .T. ) ;
#702 = AXIS2_PLACEMENT_3D ( 'NONE', #170, #402, #562 ) ;
#703 = EDGE_LOOP ( 'NONE', ( #69, #815, #971, #990 ) ) ;
#704 = APPLICATION_PROTOCOL_DEFINITION ( 'international standard', 'config_control_design', 1994, #485 ) ;
#705 = EDGE_CURVE ( 'NONE', #13, #91, #769, .T. ) ;
#706 = PLANE ( 'NONE',  #92 ) ;
#707 = LOCAL_TIME ( 21, 3, 42.00000000000000000, #556 ) ;
#708 = ADVANCED_FACE ( 'NONE', ( #456 ), #860, .F. ) ;
#709 = ORIENTED_EDGE ( 'NONE', *, *, #669, .F. ) ;
#710 = DATE_AND_TIME ( #537, #319 ) ;
#711 = FACE_BOUND ( 'NONE', #964, .T. ) ;
#712 = ORIENTED_EDGE ( 'NONE', *, *, #98, .T. ) ;
#713 = DIRECTION ( 'NONE',  ( -0.000000000000000000, 1.000000000000000000, -0.000000000000000000 ) ) ;
#714 = ADVANCED_FACE ( 'NONE', ( #943 ), #696, .F. ) ;
#715 = CIRCLE ( 'NONE', #257, 1.500000000000001332 ) ;
#716 = CARTESIAN_POINT ( 'NONE',  ( -30.00000000000001066, 4.000000000000000000, -12.49999999999999645 ) ) ;
#717 = EDGE_CURVE ( 'NONE', #630, #42, #17, .T. ) ;
#718 = ORIENTED_EDGE ( 'NONE', *, *, #285, .F. ) ;
#719 = CARTESIAN_POINT ( 'NONE',  ( 5.000000000000000000, -6.000000000000000000, 7.500000000000000000 ) ) ;
#720 = AXIS2_PLACEMENT_3D ( 'NONE', #185, #195, #283 ) ;
#721 = DIRECTION ( 'NONE',  ( -0.000000000000000000, -1.000000000000000000, -0.000000000000000000 ) ) ;
#722 = ORIENTED_EDGE ( 'NONE', *, *, #577, .F. ) ;
#723 = DIRECTION ( 'NONE',  ( 0.000000000000000000, 0.000000000000000000, 1.000000000000000000 ) ) ;
#724 = ORIENTED_EDGE ( 'NONE', *, *, #731, .T. ) ;
#725 = CARTESIAN_POINT ( 'NONE',  ( -34.00000000000000711, 4.000000000000000000, 17.50000000000000355 ) ) ;
#726 = DIRECTION ( 'NONE',  ( 0.000000000000000000, 1.000000000000000000, 0.000000000000000000 ) ) ;
#727 = EDGE_CURVE ( 'NONE', #398, #579, #836, .T. ) ;
#728 = VERTEX_POINT ( 'NONE', #574 ) ;
#729 = CARTESIAN_POINT ( 'NONE',  ( 29.99999999999999645, 0.000000000000000000, -0.4999999999999970024 ) ) ;
#730 = AXIS2_PLACEMENT_3D ( 'NONE', #729, #568, #648 ) ;
#731 = EDGE_CURVE ( 'NONE', #212, #684, #32, .T. ) ;
#732 = CARTESIAN_POINT ( 'NONE',  ( -29.99999999999999289, 4.000000000000000000, 12.00000000000000178 ) ) ;
#733 = ORIENTED_EDGE ( 'NONE', *, *, #898, .T. ) ;
#734 = EDGE_CURVE ( 'NONE', #808, #155, #243, .T. ) ;
#735 = EDGE_LOOP ( 'NONE', ( #852, #100 ) ) ;
#736 = CARTESIAN_POINT ( 'NONE',  ( -21.00000000000001066, 4.000000000000000000, -0.4999999999999970024 ) ) ;
#737 = CARTESIAN_POINT ( 'NONE',  ( 29.99999999999998579, 4.000000000000000000, 9.500000000000005329 ) ) ;
#738 = ORIENTED_EDGE ( 'NONE', *, *, #486, .F. ) ;
#739 = FACE_OUTER_BOUND ( 'NONE', #673, .T. ) ;
#740 = DIRECTION ( 'NONE',  ( 0.000000000000000000, 1.000000000000000000, -0.000000000000000000 ) ) ;
#741 = CIRCLE ( 'NONE', #830, 1.499999999999996225 ) ;
#742 = VECTOR ( 'NONE', #171, 1000.000000000000000 ) ;
#743 = ADVANCED_FACE ( 'NONE', ( #93 ), #97, .F. ) ;
#744 = ORIENTED_EDGE ( 'NONE', *, *, #634, .T. ) ;
#745 = CARTESIAN_POINT ( 'NONE',  ( -29.99999999999999289, 4.000000000000000000, 15.00000000000000533 ) ) ;
#746 = CYLINDRICAL_SURFACE ( 'NONE', #341, 1.500000000000000444 ) ;
#747 = CIRCLE ( 'NONE', #817, 1.500000000000001332 ) ;
#748 = CIRCLE ( 'NONE', #651, 1.500000000000001332 ) ;
#749 = CARTESIAN_POINT ( 'NONE',  ( -21.00000000000001066, 4.000000000000000000, 1.000000000000003775 ) ) ;
#750 = ORIENTED_EDGE ( 'NONE', *, *, #146, .T. ) ;
#751 = FACE_OUTER_BOUND ( 'NONE', #436, .T. ) ;
#752 = DIRECTION ( 'NONE',  ( 0.000000000000000000, 0.000000000000000000, 1.000000000000000000 ) ) ;
#753 = AXIS2_PLACEMENT_3D ( 'NONE', #839, #833, #674 ) ;
#754 = ORIENTED_EDGE ( 'NONE', *, *, #505, .F. ) ;
#755 = EDGE_CURVE ( 'NONE', #1008, #172, #479, .T. ) ;
#756 = PRODUCT_DEFINITION_SHAPE ( 'NONE', 'NONE',  #248 ) ;
#757 = DIRECTION ( 'NONE',  ( 0.000000000000000000, 0.000000000000000000, 1.000000000000000000 ) ) ;
#758 = VERTEX_POINT ( 'NONE', #491 ) ;
#759 = CARTESIAN_POINT ( 'NONE',  ( -31.00000000000001066, 4.000000000000000000, 17.50000000000000355 ) ) ;
#760 = CARTESIAN_POINT ( 'NONE',  ( 30.99999999999999289, 0.000000000000000000, -14.49999999999999822 ) ) ;
#761 = VERTEX_POINT ( 'NONE', #987 ) ;
#762 = VECTOR ( 'NONE', #322, 1000.000000000000000 ) ;
#763 = AXIS2_PLACEMENT_3D ( 'NONE', #379, #72, #1025 ) ;
#764 = CARTESIAN_POINT ( 'NONE',  ( 33.99999999999999289, 4.000000000000000000, 17.50000000000000355 ) ) ;
#765 = VERTEX_POINT ( 'NONE', #816 ) ;
#766 = DIRECTION ( 'NONE',  ( -1.000000000000000000, 0.000000000000000000, -0.000000000000000000 ) ) ;
#767 = LINE ( 'NONE', #277, #523 ) ;
#768 = ORIENTED_EDGE ( 'NONE', *, *, #659, .T. ) ;
#769 = LINE ( 'NONE', #142, #129 ) ;
#770 = EDGE_LOOP ( 'NONE', ( #915, #928, #114, #1032 ) ) ;
#771 = ADVANCED_FACE ( 'NONE', ( #165 ), #413, .F. ) ;
#772 = FACE_OUTER_BOUND ( 'NONE', #906, .T. ) ;
#773 = FACE_OUTER_BOUND ( 'NONE', #21, .T. ) ;
#774 = DIRECTION ( 'NONE',  ( 0.000000000000000000, 0.000000000000000000, -1.000000000000000000 ) ) ;
#775 = DIRECTION ( 'NONE',  ( 0.000000000000000000, 0.000000000000000000, -1.000000000000000000 ) ) ;
#776 = ORIENTED_EDGE ( 'NONE', *, *, #626, .T. ) ;
#777 = CARTESIAN_POINT ( 'NONE',  ( 33.99999999999999289, 0.000000000000000000, 17.50000000000000355 ) ) ;
#778 = CARTESIAN_POINT ( 'NONE',  ( -30.00000000000001066, 4.000000000000000000, -10.99999999999999645 ) ) ;
#779 = CARTESIAN_POINT ( 'NONE',  ( -30.00000000000001066, 4.000000000000000000, -12.49999999999999645 ) ) ;
#780 = ADVANCED_FACE ( 'NONE', ( #265 ), #407, .T. ) ;
#781 = ORIENTED_EDGE ( 'NONE', *, *, #373, .T. ) ;
#782 = DIRECTION ( 'NONE',  ( -0.000000000000000000, 1.000000000000000000, -0.000000000000000000 ) ) ;
#783 = FACE_BOUND ( 'NONE', #217, .T. ) ;
#784 = DIRECTION ( 'NONE',  ( 0.000000000000000000, 0.000000000000000000, -1.000000000000000000 ) ) ;
#785 = VECTOR ( 'NONE', #893, 1000.000000000000000 ) ;
#786 = ORIENTED_EDGE ( 'NONE', *, *, #1040, .F. ) ;
#787 = CARTESIAN_POINT ( 'NONE',  ( -31.00000000000001066, 4.000000000000000000, -17.49999999999999645 ) ) ;
#788 = VECTOR ( 'NONE', #158, 1000.000000000000000 ) ;
#789 = CYLINDRICAL_SURFACE ( 'NONE', #935, 1.500000000000001332 ) ;
#790 = EDGE_CURVE ( 'NONE', #13, #973, #328, .T. ) ;
#791 = EDGE_CURVE ( 'NONE', #469, #573, #805, .T. ) ;
#792 = VERTEX_POINT ( 'NONE', #969 ) ;
#793 =( NAMED_UNIT ( * ) SI_UNIT ( $, .STERADIAN. ) SOLID_ANGLE_UNIT ( ) );
#794 = ADVANCED_FACE ( 'NONE', ( #258 ), #497, .F. ) ;
#795 = CYLINDRICAL_SURFACE ( 'NONE', #472, 2.999999999999999112 ) ;
#796 = VERTEX_POINT ( 'NONE', #104 ) ;
#797 = CARTESIAN_POINT ( 'NONE',  ( -34.00000000000000711, 4.000000000000000000, 17.50000000000000355 ) ) ;
#798 = VECTOR ( 'NONE', #63, 1000.000000000000000 ) ;
#799 = LINE ( 'NONE', #732, #198 ) ;
#800 = EDGE_LOOP ( 'NONE', ( #421, #883 ) ) ;
#801 = PERSON_AND_ORGANIZATION ( #899, #657 ) ;
#802 = CARTESIAN_POINT ( 'NONE',  ( -30.00000000000001066, 0.000000000000000000, 4.000000000000001776 ) ) ;
#803 = ORIENTED_EDGE ( 'NONE', *, *, #813, .T. ) ;
#804 = CALENDAR_DATE ( 2026, 7, 5 ) ;
#805 = LINE ( 'NONE', #981, #649 ) ;
#806 = CARTESIAN_POINT ( 'NONE',  ( 29.99999999999999645, 4.000000000000000000, -0.4999999999999970024 ) ) ;
#807 = EDGE_CURVE ( 'NONE', #761, #944, #828, .T. ) ;
#808 = VERTEX_POINT ( 'NONE', #418 ) ;
#809 = ADVANCED_FACE ( 'NONE', ( #739 ), #501, .T. ) ;
#810 = DIRECTION ( 'NONE',  ( -0.000000000000000000, -1.000000000000000000, -0.000000000000000000 ) ) ;
#811 = LINE ( 'NONE', #327, #788 ) ;
#812 = AXIS2_PLACEMENT_3D ( 'NONE', #699, #694, #309 ) ;
#813 = EDGE_CURVE ( 'NONE', #1000, #426, #615, .T. ) ;
#814 = VERTEX_POINT ( 'NONE', #643 ) ;
#815 = ORIENTED_EDGE ( 'NONE', *, *, #949, .T. ) ;
#816 = CARTESIAN_POINT ( 'NONE',  ( -30.00000000000001066, 4.000000000000000000, -10.99999999999999645 ) ) ;
#817 = AXIS2_PLACEMENT_3D ( 'NONE', #288, #1004, #188 ) ;
#818 = DIRECTION ( 'NONE',  ( -0.000000000000000000, -1.000000000000000000, -0.000000000000000000 ) ) ;
#819 = EDGE_CURVE ( 'NONE', #496, #814, #462, .T. ) ;
#820 = EDGE_LOOP ( 'NONE', ( #1003, #370 ) ) ;
#821 = SHAPE_DEFINITION_REPRESENTATION ( #756, #76 ) ;
#822 = EDGE_LOOP ( 'NONE', ( #522, #356, #274, #668 ) ) ;
#823 = AXIS2_PLACEMENT_3D ( 'NONE', #397, #237, #481 ) ;
#824 = CARTESIAN_POINT ( 'NONE',  ( 29.99999999999998579, -6.000000000000000000, 9.500000000000005329 ) ) ;
#825 = CARTESIAN_POINT ( 'NONE',  ( 30.99999999999999289, 0.000000000000000000, 17.50000000000000355 ) ) ;
#826 = EDGE_CURVE ( 'NONE', #573, #887, #115, .T. ) ;
#827 = VERTEX_POINT ( 'NONE', #276 ) ;
#828 = LINE ( 'NONE', #184, #785 ) ;
#829 = DIRECTION ( 'NONE',  ( -0.000000000000000000, -1.000000000000000000, 0.000000000000000000 ) ) ;
#830 = AXIS2_PLACEMENT_3D ( 'NONE', #272, #369, #346 ) ;
#831 = CARTESIAN_POINT ( 'NONE',  ( -31.00000000000001066, 4.000000000000000000, 17.50000000000000355 ) ) ;
#832 = ORIENTED_EDGE ( 'NONE', *, *, #897, .F. ) ;
#833 = DIRECTION ( 'NONE',  ( 0.000000000000000000, -1.000000000000000000, 0.000000000000000000 ) ) ;
#834 = FACE_OUTER_BOUND ( 'NONE', #822, .T. ) ;
#835 = EDGE_CURVE ( 'NONE', #630, #641, #917, .T. ) ;
#836 = CIRCLE ( 'NONE', #702, 1.500000000000001332 ) ;
#837 = CARTESIAN_POINT ( 'NONE',  ( -30.00000000000000711, 0.000000000000000000, -4.499999999999997335 ) ) ;
#838 = ORIENTED_EDGE ( 'NONE', *, *, #601, .F. ) ;
#839 = CARTESIAN_POINT ( 'NONE',  ( -31.00000000000001066, 0.000000000000000000, -14.49999999999999467 ) ) ;
#840 = DIRECTION ( 'NONE',  ( 0.000000000000000000, 0.000000000000000000, -1.000000000000000000 ) ) ;
#841 = VECTOR ( 'NONE', #713, 1000.000000000000000 ) ;
#842 = EDGE_LOOP ( 'NONE', ( #602, #225, #768, #536 ) ) ;
#843 = CARTESIAN_POINT ( 'NONE',  ( 5.000000000000000888, 4.000000000000000000, -7.500000000000000000 ) ) ;
#844 = ORIENTED_EDGE ( 'NONE', *, *, #146, .F. ) ;
#845 = EDGE_CURVE ( 'NONE', #641, #584, #231, .T. ) ;
#846 = DIRECTION ( 'NONE',  ( 0.000000000000000000, -1.000000000000000000, 0.000000000000000000 ) ) ;
#847 = DIRECTION ( 'NONE',  ( 0.000000000000000000, -1.000000000000000000, 0.000000000000000000 ) ) ;
#848 = ORIENTED_EDGE ( 'NONE', *, *, #526, .T. ) ;
#849 = CIRCLE ( 'NONE', #439, 2.999999999999999112 ) ;
#850 = CIRCLE ( 'NONE', #984, 7.500000000000000000 ) ;
#851 = DIRECTION ( 'NONE',  ( 0.000000000000000000, -1.000000000000000000, 0.000000000000000000 ) ) ;
#852 = ORIENTED_EDGE ( 'NONE', *, *, #3, .F. ) ;
#853 = DIRECTION ( 'NONE',  ( 0.000000000000000000, 0.000000000000000000, 1.000000000000000000 ) ) ;
#854 = DIRECTION ( 'NONE',  ( 0.000000000000000000, -0.000000000000000000, -1.000000000000000000 ) ) ;
#855 = DIRECTION ( 'NONE',  ( -0.000000000000000000, 1.000000000000000000, -0.000000000000000000 ) ) ;
#856 = ORIENTED_EDGE ( 'NONE', *, *, #807, .F. ) ;
#857 = DIRECTION ( 'NONE',  ( 0.000000000000000000, -1.000000000000000000, 0.000000000000000000 ) ) ;
#858 = FACE_BOUND ( 'NONE', #980, .T. ) ;
#859 = EDGE_CURVE ( 'NONE', #861, #1000, #139, .T. ) ;
#860 = CYLINDRICAL_SURFACE ( 'NONE', #110, 7.500000000000000000 ) ;
#861 = VERTEX_POINT ( 'NONE', #352 ) ;
#862 = PERSON_AND_ORGANIZATION_ROLE ( 'creator' ) ;
#863 = DIRECTION ( 'NONE',  ( 0.000000000000000000, 0.000000000000000000, 1.000000000000000000 ) ) ;
#864 = CARTESIAN_POINT ( 'NONE',  ( -31.00000000000001066, 4.000000000000000000, -14.49999999999999467 ) ) ;
#865 = ORIENTED_EDGE ( 'NONE', *, *, #326, .F. ) ;
#866 = VECTOR ( 'NONE', #34, 1000.000000000000000 ) ;
#867 = FACE_BOUND ( 'NONE', #735, .T. ) ;
#868 = EDGE_CURVE ( 'NONE', #796, #138, #747, .T. ) ;
#869 = CARTESIAN_POINT ( 'NONE',  ( 29.99999999999999645, 0.000000000000000000, -1.999999999999997335 ) ) ;
#870 = AXIS2_PLACEMENT_3D ( 'NONE', #965, #241, #252 ) ;
#871 = ORIENTED_EDGE ( 'NONE', *, *, #486, .T. ) ;
#872 = PERSON_AND_ORGANIZATION ( #899, #657 ) ;
#873 = DIRECTION ( 'NONE',  ( 0.000000000000000000, 0.000000000000000000, -1.000000000000000000 ) ) ;
#874 = AXIS2_PLACEMENT_3D ( 'NONE', #85, #650, #894 ) ;
#875 = ORIENTED_EDGE ( 'NONE', *, *, #727, .T. ) ;
#876 = LINE ( 'NONE', #777, #514 ) ;
#877 = CARTESIAN_POINT ( 'NONE',  ( -30.00000000000001066, 4.000000000000000000, -13.99999999999999822 ) ) ;
#878 = VERTEX_POINT ( 'NONE', #427 ) ;
#879 = CARTESIAN_POINT ( 'NONE',  ( -30.00000000000000711, 4.000000000000000000, -2.999999999999996003 ) ) ;
#880 = VECTOR ( 'NONE', #286, 1000.000000000000000 ) ;
#881 = VECTOR ( 'NONE', #543, 1000.000000000000000 ) ;
#882 = CARTESIAN_POINT ( 'NONE',  ( 29.99999999999999645, -6.000000000000000000, -0.4999999999999970024 ) ) ;
#883 = ORIENTED_EDGE ( 'NONE', *, *, #107, .F. ) ;
#884 = AXIS2_PLACEMENT_3D ( 'NONE', #57, #371, #1016 ) ;
#885 = DIRECTION ( 'NONE',  ( 0.000000000000000000, -1.000000000000000000, 0.000000000000000000 ) ) ;
#886 = CYLINDRICAL_SURFACE ( 'NONE', #823, 1.499999999999996225 ) ;
#887 = VERTEX_POINT ( 'NONE', #207 ) ;
#888 = APPROVAL_PERSON_ORGANIZATION ( #156, #415, #542 ) ;
#889 = CARTESIAN_POINT ( 'NONE',  ( -31.00000000000001066, 4.000000000000000000, -14.49999999999999467 ) ) ;
#890 = FACE_OUTER_BOUND ( 'NONE', #197, .T. ) ;
#891 = EDGE_LOOP ( 'NONE', ( #607, #62, #96, #16 ) ) ;
#892 = ORIENTED_EDGE ( 'NONE', *, *, #476, .F. ) ;
#893 = DIRECTION ( 'NONE',  ( -0.000000000000000000, 1.000000000000000000, -0.000000000000000000 ) ) ;
#894 = DIRECTION ( 'NONE',  ( 0.000000000000000000, 0.000000000000000000, -1.000000000000000000 ) ) ;
#895 = AXIS2_PLACEMENT_3D ( 'NONE', #760, #918, #988 ) ;
#896 = CIRCLE ( 'NONE', #678, 1.500000000000001332 ) ;
#897 = EDGE_CURVE ( 'NONE', #1008, #50, #300, .T. ) ;
#898 = EDGE_CURVE ( 'NONE', #887, #573, #576, .T. ) ;
#899 = PERSON ( 'æœª', 'æœª', 'æœª', ('æœª'), ('æœª'), ('æœª') ) ;
#900 = ORIENTED_EDGE ( 'NONE', *, *, #1013, .T. ) ;
#901 = ORIENTED_EDGE ( 'NONE', *, *, #916, .T. ) ;
#902 = APPROVAL ( #87, 'æœª' ) ;
#903 = CARTESIAN_POINT ( 'NONE',  ( 29.99999999999998579, 0.000000000000000000, 9.500000000000005329 ) ) ;
#904 = AXIS2_PLACEMENT_3D ( 'NONE', #27, #662, #7 ) ;
#905 = DIRECTION ( 'NONE',  ( 0.000000000000000000, 0.000000000000000000, -1.000000000000000000 ) ) ;
#906 = EDGE_LOOP ( 'NONE', ( #192, #410, #65, #627 ) ) ;
#907 =( GEOMETRIC_REPRESENTATION_CONTEXT ( 3 ) GLOBAL_UNCERTAINTY_ASSIGNED_CONTEXT ( ( #176 ) ) GLOBAL_UNIT_ASSIGNED_CONTEXT ( ( #222, #470, #793 ) ) REPRESENTATION_CONTEXT ( 'NONE', 'WORKASPACE' ) );
#908 = DIRECTION ( 'NONE',  ( -0.000000000000000000, 1.000000000000000000, -0.000000000000000000 ) ) ;
#909 = DIRECTION ( 'NONE',  ( 0.000000000000000000, -1.000000000000000000, 0.000000000000000000 ) ) ;
#910 = CARTESIAN_POINT ( 'NONE',  ( 29.99999999999999645, 4.000000000000000000, 1.000000000000003553 ) ) ;
#911 = VERTEX_POINT ( 'NONE', #745 ) ;
#912 = CARTESIAN_POINT ( 'NONE',  ( 29.99999999999999645, 0.000000000000000000, 1.000000000000003553 ) ) ;
#913 = CYLINDRICAL_SURFACE ( 'NONE', #585, 2.999999999999999112 ) ;
#914 = CARTESIAN_POINT ( 'NONE',  ( 30.99999999999999289, 4.000000000000000000, 17.50000000000000355 ) ) ;
#915 = ORIENTED_EDGE ( 'NONE', *, *, #83, .T. ) ;
#916 = EDGE_CURVE ( 'NONE', #579, #398, #151, .T. ) ;
#917 = LINE ( 'NONE', #759, #316 ) ;
#918 = DIRECTION ( 'NONE',  ( 0.000000000000000000, -1.000000000000000000, 0.000000000000000000 ) ) ;
#919 = CIRCLE ( 'NONE', #445, 1.500000000000000444 ) ;
#920 = VERTEX_POINT ( 'NONE', #45 ) ;
#921 = CC_DESIGN_PERSON_AND_ORGANIZATION_ASSIGNMENT ( #245, #179, ( #305 ) ) ;
#922 = CARTESIAN_POINT ( 'NONE',  ( -34.00000000000000711, 0.000000000000000000, 14.50000000000000533 ) ) ;
#923 = ORIENTED_EDGE ( 'NONE', *, *, #487, .F. ) ;
#924 = LINE ( 'NONE', #433, #424 ) ;
#925 = VECTOR ( 'NONE', #818, 1000.000000000000000 ) ;
#926 = CARTESIAN_POINT ( 'NONE',  ( 29.99999999999999645, 0.000000000000000000, -0.4999999999999970024 ) ) ;
#927 = ADVANCED_FACE ( 'NONE', ( #591 ), #939, .F. ) ;
#928 = ORIENTED_EDGE ( 'NONE', *, *, #196, .T. ) ;
#929 = DIRECTION ( 'NONE',  ( 0.000000000000000000, 0.000000000000000000, -1.000000000000000000 ) ) ;
#930 = ORIENTED_EDGE ( 'NONE', *, *, #588, .T. ) ;
#931 = DIRECTION ( 'NONE',  ( 0.000000000000000000, 0.000000000000000000, 1.000000000000000000 ) ) ;
#932 = CARTESIAN_POINT ( 'NONE',  ( -21.00000000000001066, 0.000000000000000000, -1.999999999999997780 ) ) ;
#933 = CARTESIAN_POINT ( 'NONE',  ( -30.00000000000001066, 4.000000000000000000, -12.49999999999999645 ) ) ;
#934 = CIRCLE ( 'NONE', #1019, 1.499999999999996225 ) ;
#935 = AXIS2_PLACEMENT_3D ( 'NONE', #384, #1034, #774 ) ;
#936 = CIRCLE ( 'NONE', #720, 1.500000000000000666 ) ;
#937 = LINE ( 'NONE', #672, #983 ) ;
#938 = ORIENTED_EDGE ( 'NONE', *, *, #561, .F. ) ;
#939 = CYLINDRICAL_SURFACE ( 'NONE', #493, 1.500000000000000444 ) ;
#940 = ADVANCED_FACE ( 'NONE', ( #772 ), #365, .F. ) ;
#941 = FACE_BOUND ( 'NONE', #119, .T. ) ;
#942 = DIRECTION ( 'NONE',  ( 0.000000000000000000, 1.000000000000000000, 0.000000000000000000 ) ) ;
#943 = FACE_OUTER_BOUND ( 'NONE', #143, .T. ) ;
#944 = VERTEX_POINT ( 'NONE', #586 ) ;
#945 = APPROVAL_STATUS ( 'not_yet_approved' ) ;
#946 = FACE_OUTER_BOUND ( 'NONE', #560, .T. ) ;
#947 = EDGE_LOOP ( 'NONE', ( #617, #367, #363, #31 ) ) ;
#948 = DIRECTION ( 'NONE',  ( -0.000000000000000000, 1.000000000000000000, -0.000000000000000000 ) ) ;
#949 = EDGE_CURVE ( 'NONE', #861, #792, #924, .T. ) ;
#950 = FACE_BOUND ( 'NONE', #961, .T. ) ;
#951 = DIRECTION ( 'NONE',  ( 0.000000000000000000, 0.000000000000000000, 1.000000000000000000 ) ) ;
#952 = ORIENTED_EDGE ( 'NONE', *, *, #680, .T. ) ;
#953 = CALENDAR_DATE ( 2026, 7, 5 ) ;
#954 = CARTESIAN_POINT ( 'NONE',  ( -29.99999999999999289, 0.000000000000000000, 13.50000000000000355 ) ) ;
#955 = AXIS2_PLACEMENT_3D ( 'NONE', #201, #611, #440 ) ;
#956 = EDGE_CURVE ( 'NONE', #442, #321, #1026, .T. ) ;
#957 = ORIENTED_EDGE ( 'NONE', *, *, #1027, .F. ) ;
#958 = MECHANICAL_CONTEXT ( 'NONE', #434, 'mechanical' ) ;
#959 = LINE ( 'NONE', #253, #742 ) ;
#960 = CIRCLE ( 'NONE', #465, 2.999999999999999112 ) ;
#961 = EDGE_LOOP ( 'NONE', ( #722, #164 ) ) ;
#962 = CARTESIAN_POINT ( 'NONE',  ( 33.99999999999999289, 0.000000000000000000, 14.50000000000000533 ) ) ;
#963 = EDGE_CURVE ( 'NONE', #814, #496, #919, .T. ) ;
#964 = EDGE_LOOP ( 'NONE', ( #892, #386 ) ) ;
#965 = CARTESIAN_POINT ( 'NONE',  ( -30.00000000000001066, 4.000000000000000000, 5.500000000000003553 ) ) ;
#966 = DIRECTION ( 'NONE',  ( 0.000000000000000000, 1.000000000000000000, 0.000000000000000000 ) ) ;
#967 = EDGE_LOOP ( 'NONE', ( #1043, #152 ) ) ;
#968 = AXIS2_PLACEMENT_3D ( 'NONE', #325, #665, #344 ) ;
#969 = CARTESIAN_POINT ( 'NONE',  ( 30.99999999999999289, 0.000000000000000000, -17.49999999999999645 ) ) ;
#970 = CARTESIAN_POINT ( 'NONE',  ( -29.99999999999999289, 4.000000000000000000, 15.00000000000000533 ) ) ;
#971 = ORIENTED_EDGE ( 'NONE', *, *, #429, .T. ) ;
#972 = CC_DESIGN_SECURITY_CLASSIFICATION ( #305, ( #167 ) ) ;
#973 = VERTEX_POINT ( 'NONE', #912 ) ;
#974 = ADVANCED_FACE ( 'NONE', ( #751 ), #446, .F. ) ;
#975 = DIRECTION ( 'NONE',  ( 0.000000000000000000, 0.000000000000000000, -1.000000000000000000 ) ) ;
#976 = CARTESIAN_POINT ( 'NONE',  ( -30.00000000000000711, 0.000000000000000000, -4.499999999999997335 ) ) ;
#977 = ADVANCED_FACE ( 'NONE', ( #511 ), #670, .F. ) ;
#978 = ORIENTED_EDGE ( 'NONE', *, *, #588, .F. ) ;
#979 = DATE_TIME_ROLE ( 'classification_date' ) ;
#980 = EDGE_LOOP ( 'NONE', ( #337, #203 ) ) ;
#981 = CARTESIAN_POINT ( 'NONE',  ( 5.000000000000000888, -6.000000000000000000, -7.500000000000000000 ) ) ;
#982 = CARTESIAN_POINT ( 'NONE',  ( -30.00000000000001066, 4.000000000000000000, 4.000000000000002665 ) ) ;
#983 = VECTOR ( 'NONE', #679, 1000.000000000000000 ) ;
#984 = AXIS2_PLACEMENT_3D ( 'NONE', #552, #23, #414 ) ;
#985 = VECTOR ( 'NONE', #683, 1000.000000000000000 ) ;
#986 = ORIENTED_EDGE ( 'NONE', *, *, #734, .T. ) ;
#987 = CARTESIAN_POINT ( 'NONE',  ( 33.99999999999999289, 0.000000000000000000, -14.49999999999999467 ) ) ;
#988 = DIRECTION ( 'NONE',  ( 0.000000000000000000, 0.000000000000000000, -1.000000000000000000 ) ) ;
#989 = CYLINDRICAL_SURFACE ( 'NONE', #47, 1.500000000000001332 ) ;
#990 = ORIENTED_EDGE ( 'NONE', *, *, #1010, .T. ) ;
#991 = DIRECTION ( 'NONE',  ( -0.000000000000000000, 1.000000000000000000, -0.000000000000000000 ) ) ;
#992 = DIRECTION ( 'NONE',  ( 1.000000000000000000, 0.000000000000000000, 0.000000000000000000 ) ) ;
#993 = EDGE_CURVE ( 'NONE', #728, #516, #582, .T. ) ;
#994 = DIRECTION ( 'NONE',  ( -0.000000000000000000, -1.000000000000000000, -0.000000000000000000 ) ) ;
#995 = ORIENTED_EDGE ( 'NONE', *, *, #476, .T. ) ;
#996 = DIRECTION ( 'NONE',  ( 0.000000000000000000, 0.000000000000000000, 1.000000000000000000 ) ) ;
#997 = CARTESIAN_POINT ( 'NONE',  ( -21.00000000000001066, -6.000000000000000000, 1.000000000000003775 ) ) ;
#998 = EDGE_CURVE ( 'NONE', #878, #887, #358, .T. ) ;
#999 = AXIS2_PLACEMENT_3D ( 'NONE', #1014, #686, #929 ) ;
#1000 = VERTEX_POINT ( 'NONE', #787 ) ;
#1001 = CLOSED_SHELL ( 'NONE', ( #927, #81, #206, #273, #974, #743, #432, #714, #6, #35, #508, #636, #24, #1035, #940, #14, #647, #771, #54, #297, #809, #780, #90, #977, #708, #794, #599, #289 ) ) ;
#1002 = DIRECTION ( 'NONE',  ( -0.000000000000000000, 1.000000000000000000, -0.000000000000000000 ) ) ;
#1003 = ORIENTED_EDGE ( 'NONE', *, *, #727, .F. ) ;
#1004 = DIRECTION ( 'NONE',  ( 0.000000000000000000, 1.000000000000000000, 0.000000000000000000 ) ) ;
#1005 = DIRECTION ( 'NONE',  ( 0.000000000000000000, 1.000000000000000000, 0.000000000000000000 ) ) ;
#1006 = ORIENTED_EDGE ( 'NONE', *, *, #634, .F. ) ;
#1007 = CARTESIAN_POINT ( 'NONE',  ( -21.00000000000001066, 0.000000000000000000, -0.4999999999999970024 ) ) ;
#1008 = VERTEX_POINT ( 'NONE', #879 ) ;
#1009 = CARTESIAN_POINT ( 'NONE',  ( -30.00000000000001066, 4.000000000000000000, 5.500000000000003553 ) ) ;
#1010 = EDGE_CURVE ( 'NONE', #516, #1000, #144, .T. ) ;
#1011 = EDGE_LOOP ( 'NONE', ( #529, #329, #390, #733 ) ) ;
#1012 = CIRCLE ( 'NONE', #60, 2.999999999999999112 ) ;
#1013 = EDGE_CURVE ( 'NONE', #452, #579, #453, .T. ) ;
#1014 = CARTESIAN_POINT ( 'NONE',  ( -30.00000000000000711, 4.000000000000000000, -4.499999999999997335 ) ) ;
#1015 = EDGE_LOOP ( 'NONE', ( #168, #848, #221, #307 ) ) ;
#1016 = DIRECTION ( 'NONE',  ( 0.000000000000000000, 0.000000000000000000, 1.000000000000000000 ) ) ;
#1017 = CARTESIAN_POINT ( 'NONE',  ( -31.00000000000001066, 0.000000000000000000, -17.49999999999999645 ) ) ;
#1018 = DIRECTION ( 'NONE',  ( 0.000000000000000000, 1.000000000000000000, 0.000000000000000000 ) ) ;
#1019 = AXIS2_PLACEMENT_3D ( 'NONE', #105, #507, #752 ) ;
#1020 = CIRCLE ( 'NONE', #334, 1.500000000000001332 ) ;
#1021 = DIRECTION ( 'NONE',  ( -0.000000000000000000, 1.000000000000000000, -0.000000000000000000 ) ) ;
#1022 = ORIENTED_EDGE ( 'NONE', *, *, #835, .F. ) ;
#1023 = CARTESIAN_POINT ( 'NONE',  ( 29.99999999999998579, -6.000000000000000000, 11.00000000000000178 ) ) ;
#1024 = CARTESIAN_POINT ( 'NONE',  ( -30.00000000000000711, 4.000000000000000000, -4.499999999999997335 ) ) ;
#1025 = DIRECTION ( 'NONE',  ( 0.000000000000000000, 0.000000000000000000, 1.000000000000000000 ) ) ;
#1026 = CIRCLE ( 'NONE', #364, 1.500000000000001332 ) ;
#1027 = EDGE_CURVE ( 'NONE', #159, #761, #876, .T. ) ;
#1028 = ORIENTED_EDGE ( 'NONE', *, *, #80, .T. ) ;
#1029 = FACE_OUTER_BOUND ( 'NONE', #44, .T. ) ;
#1030 = CARTESIAN_POINT ( 'NONE',  ( 30.99999999999999289, 4.000000000000000000, 17.50000000000000355 ) ) ;
#1031 = APPROVAL_PERSON_ORGANIZATION ( #801, #902, #495 ) ;
#1032 = ORIENTED_EDGE ( 'NONE', *, *, #260, .F. ) ;
#1033 = DIRECTION ( 'NONE',  ( 0.000000000000000000, 0.000000000000000000, -1.000000000000000000 ) ) ;
#1034 = DIRECTION ( 'NONE',  ( -0.000000000000000000, -1.000000000000000000, -0.000000000000000000 ) ) ;
#1035 = ADVANCED_FACE ( 'NONE', ( #1029 ), #534, .F. ) ;
#1036 = ORIENTED_EDGE ( 'NONE', *, *, #526, .F. ) ;
#1037 = CIRCLE ( 'NONE', #378, 1.500000000000000444 ) ;
#1038 = CIRCLE ( 'NONE', #131, 1.500000000000001332 ) ;
#1039 = COORDINATED_UNIVERSAL_TIME_OFFSET ( 8, 0, .AHEAD. ) ;
#1040 = EDGE_CURVE ( 'NONE', #155, #827, #70, .T. ) ;
#1041 = FACE_BOUND ( 'NONE', #180, .T. ) ;
#1042 = AXIS2_PLACEMENT_3D ( 'NONE', #889, #108, #422 ) ;
#1043 = ORIENTED_EDGE ( 'NONE', *, *, #819, .F. ) ;
ENDSEC;
END-ISO-10303-21;
