ISO-10303-21;
HEADER;
FILE_DESCRIPTION(('CATIA V5 STEP Exchange','CAx-IF Rec.Pracs.--- Composite Materials ---3.4---2017-06-13'),'2;1');

FILE_NAME('C:\\Users\\PH\\Desktop\\\X2\5DE5521B72696D418D446599\X0\\\1\X2\7ED367846A21578B53CA\X0\PCB\\\X2\7ED367846A21578B\X0\\\\X2\6253537090E84EF6\X0\\\\X2\644450CF59345E7353F0\X0\.stp','2026-06-29T10:20:58+00:00',('none'),('none'),'CATIA Version 5-6 Release 2021 SP7','CATIA V5 STEP AP203 v2','none');

FILE_SCHEMA(('CONFIG_CONTROL_DESIGN'));

ENDSEC;
DATA;
#5=PRODUCT('\X2\54114E0B644450CF59345E7353F0\X0\ov5647 3A','\X2\54114E0B644450CF59345E7353F0\X0\ov5647 3A','',(#2)) ;
#1=APPLICATION_CONTEXT('configuration controlled 3D design of mechanical parts and assemblies') ;
#14=PRODUCT_DEFINITION('\X2\93C8\X0\',' ',#6,#3) ;
#16=SECURITY_CLASSIFICATION(' ',' ',#15) ;
#15=SECURITY_CLASSIFICATION_LEVEL('unclassified') ;
#46=CARTESIAN_POINT(' ',(0.,0.,0.)) ;
#51=CARTESIAN_POINT('Axis2P3D Location',(-16.3700001003,-5.,37.932825977)) ;
#56=CARTESIAN_POINT('Line Origine',(-11.3700001003,-5.,37.932825977)) ;
#60=CARTESIAN_POINT('Vertex',(-16.3700001003,-5.,37.932825977)) ;
#62=CARTESIAN_POINT('Vertex',(-6.37000010032,-5.,37.932825977)) ;
#65=CARTESIAN_POINT('Line Origine',(-16.3700001003,-3.74999999695,-12.8209090539)) ;
#69=CARTESIAN_POINT('Vertex',(-16.3700001003,-2.49999999389,-63.5746440847)) ;
#72=CARTESIAN_POINT('Line Origine',(-11.3700001003,-2.49999999389,-63.5746440847)) ;
#76=CARTESIAN_POINT('Vertex',(-6.37000010032,-2.5,-63.5746438368)) ;
#79=CARTESIAN_POINT('Line Origine',(-6.37000010032,-3.74999999695,-12.8209090539)) ;
#91=CARTESIAN_POINT('Axis2P3D Location',(-16.3700001003,0.,38.)) ;
#96=CARTESIAN_POINT('Line Origine',(-6.37000010032,-2.5,38.)) ;
#100=CARTESIAN_POINT('Vertex',(-6.37000010032,0.,38.)) ;
#102=CARTESIAN_POINT('Vertex',(-6.37000010032,-5.,38.)) ;
#105=CARTESIAN_POINT('Line Origine',(-11.3700001003,0.,38.)) ;
#109=CARTESIAN_POINT('Vertex',(-16.3700001003,0.,38.)) ;
#112=CARTESIAN_POINT('Line Origine',(-16.3700001003,-2.5,38.)) ;
#116=CARTESIAN_POINT('Vertex',(-16.3700001003,-5.,38.)) ;
#119=CARTESIAN_POINT('Line Origine',(-11.3700001003,-5.,38.)) ;
#131=CARTESIAN_POINT('Axis2P3D Location',(0.,-5.,0.)) ;
#136=CARTESIAN_POINT('Line Origine',(-6.37000010032,-5.,37.9664129885)) ;
#141=CARTESIAN_POINT('Line Origine',(-16.3700001003,-5.,37.9664129885)) ;
#153=CARTESIAN_POINT('Axis2P3D Location',(-16.3700001003,0.,38.)) ;
#158=CARTESIAN_POINT('Line Origine',(-16.3700001003,0.,-12.7873219184)) ;
#162=CARTESIAN_POINT('Vertex',(-16.3700001003,0.,-63.5746438368)) ;
#165=CARTESIAN_POINT('Line Origine',(-16.3700001003,-1.24999999695,-63.5746438368)) ;
#178=CARTESIAN_POINT('Axis2P3D Location',(0.,0.,0.)) ;
#184=CARTESIAN_POINT('Control Point',(23.,0.,71.2573593128)) ;
#185=CARTESIAN_POINT('Control Point',(23.,0.,71.5967643771)) ;
#186=CARTESIAN_POINT('Control Point',(22.952001751,0.,71.9361688756)) ;
#187=CARTESIAN_POINT('Control Point',(22.8559819565,0.,72.2665497638)) ;
#188=CARTESIAN_POINT('Control Point',(22.6597184135,0.,72.6999726263)) ;
#189=CARTESIAN_POINT('Control Point',(22.3853876732,0.,73.0838294809)) ;
#190=CARTESIAN_POINT('Control Point',(22.3024556402,0.,73.1873245287)) ;
#191=CARTESIAN_POINT('Control Point',(22.2144429191,0.,73.2855570809)) ;
#192=CARTESIAN_POINT('Control Point',(22.1213203426,0.,73.3786796574)) ;
#193=CARTESIAN_POINT('Vertex',(23.,0.,71.2573593128)) ;
#195=CARTESIAN_POINT('Vertex',(22.1213203426,0.,73.3786796574)) ;
#198=CARTESIAN_POINT('Line Origine',(10.5,0.,85.)) ;
#202=CARTESIAN_POINT('Vertex',(-1.12132034356,0.,96.6213203436)) ;
#206=CARTESIAN_POINT('Control Point',(-1.12132034265,0.,96.6213203426)) ;
#207=CARTESIAN_POINT('Control Point',(-1.36131596652,0.,96.8613159665)) ;
#208=CARTESIAN_POINT('Control Point',(-1.63525107815,0.,97.0673713027)) ;
#209=CARTESIAN_POINT('Control Point',(-1.93676188698,0.,97.2330896179)) ;
#210=CARTESIAN_POINT('Control Point',(-2.382017416,0.,97.400786582)) ;
#211=CARTESIAN_POINT('Control Point',(-2.8474263294,0.,97.4782332404)) ;
#212=CARTESIAN_POINT('Control Point',(-2.97925018125,0.,97.4927734882)) ;
#213=CARTESIAN_POINT('Control Point',(-3.11094547679,0.,97.5)) ;
#214=CARTESIAN_POINT('Control Point',(-3.24264068715,0.,97.5)) ;
#215=CARTESIAN_POINT('Vertex',(-3.24264068715,0.,97.5)) ;
#218=CARTESIAN_POINT('Line Origine',(-10.1213203436,0.,97.5)) ;
#222=CARTESIAN_POINT('Vertex',(-17.,0.,97.5)) ;
#226=CARTESIAN_POINT('Control Point',(-17.,0.,97.5)) ;
#227=CARTESIAN_POINT('Control Point',(-17.3394050641,0.,97.5)) ;
#228=CARTESIAN_POINT('Control Point',(-17.6788095626,0.,97.452001751)) ;
#229=CARTESIAN_POINT('Control Point',(-18.0091904511,0.,97.3559819565)) ;
#230=CARTESIAN_POINT('Control Point',(-18.6337110565,0.,97.0731850915)) ;
#231=CARTESIAN_POINT('Control Point',(-19.1553225443,0.,96.6283048409)) ;
#232=CARTESIAN_POINT('Control Point',(-19.3827710749,0.,96.3701605017)) ;
#233=CARTESIAN_POINT('Control Point',(-19.7165059236,0.,95.860675314)) ;
#234=CARTESIAN_POINT('Control Point',(-19.913103081,0.,95.28672657)) ;
#235=CARTESIAN_POINT('Control Point',(-19.9710361916,0.,95.0273072353)) ;
#236=CARTESIAN_POINT('Control Point',(-20.,0.,94.763653447)) ;
#237=CARTESIAN_POINT('Control Point',(-20.,0.,94.5)) ;
#238=CARTESIAN_POINT('Vertex',(-20.,0.,94.5)) ;
#241=CARTESIAN_POINT('Line Origine',(-20.,0.,8.5)) ;
#245=CARTESIAN_POINT('Vertex',(-20.,0.,-77.5)) ;
#248=CARTESIAN_POINT('Axis2P3D Location',(-29.9999999998,0.,-77.5000000002)) ;
#252=CARTESIAN_POINT('Vertex',(-30.,0.,-87.5)) ;
#255=CARTESIAN_POINT('Line Origine',(-30.5,0.,-87.5)) ;
#259=CARTESIAN_POINT('Vertex',(-31.,0.,-87.5)) ;
#263=CARTESIAN_POINT('Control Point',(-31.,0.,-87.5)) ;
#264=CARTESIAN_POINT('Control Point',(-31.207843348,0.,-87.5)) ;
#265=CARTESIAN_POINT('Control Point',(-31.4156862188,0.,-87.5269992858)) ;
#266=CARTESIAN_POINT('Control Point',(-31.6188652626,0.,-87.5810071839)) ;
#267=CARTESIAN_POINT('Control Point',(-32.0064992089,0.,-87.7405439919)) ;
#268=CARTESIAN_POINT('Control Point',(-32.3405059265,0.,-87.9938224844)) ;
#269=CARTESIAN_POINT('Control Point',(-32.4900500112,0.,-88.1415896759)) ;
#270=CARTESIAN_POINT('Control Point',(-32.7473028691,0.,-88.4725474283)) ;
#271=CARTESIAN_POINT('Control Point',(-32.9114596647,0.,-88.8582455303)) ;
#272=CARTESIAN_POINT('Control Point',(-32.9678922356,0.,-89.0607645343)) ;
#273=CARTESIAN_POINT('Control Point',(-32.9980514342,0.,-89.2730433397)) ;
#274=CARTESIAN_POINT('Control Point',(-32.9999571552,0.,-89.4856593076)) ;
#275=CARTESIAN_POINT('Control Point',(-32.9999857184,0.,-89.4904395481)) ;
#276=CARTESIAN_POINT('Control Point',(-33.,0.,-89.4952197742)) ;
#277=CARTESIAN_POINT('Control Point',(-33.,0.,-89.5)) ;
#278=CARTESIAN_POINT('Vertex',(-33.,0.,-89.5)) ;
#281=CARTESIAN_POINT('Line Origine',(-33.,0.,-92.5)) ;
#285=CARTESIAN_POINT('Vertex',(-33.,0.,-95.5)) ;
#289=CARTESIAN_POINT('Control Point',(-33.,0.,-95.5)) ;
#290=CARTESIAN_POINT('Control Point',(-33.,0.,-95.707843348)) ;
#291=CARTESIAN_POINT('Control Point',(-32.9730007142,0.,-95.9156862188)) ;
#292=CARTESIAN_POINT('Control Point',(-32.9189928161,0.,-96.1188652626)) ;
#293=CARTESIAN_POINT('Control Point',(-32.7594560081,0.,-96.5064992089)) ;
#294=CARTESIAN_POINT('Control Point',(-32.5061775156,0.,-96.8405059265)) ;
#295=CARTESIAN_POINT('Control Point',(-32.3584103241,0.,-96.9900500112)) ;
#296=CARTESIAN_POINT('Control Point',(-32.0274525717,0.,-97.2473028691)) ;
#297=CARTESIAN_POINT('Control Point',(-31.6417544697,0.,-97.4114596647)) ;
#298=CARTESIAN_POINT('Control Point',(-31.4392354657,0.,-97.4678922356)) ;
#299=CARTESIAN_POINT('Control Point',(-31.2269566603,0.,-97.4980514342)) ;
#300=CARTESIAN_POINT('Control Point',(-31.0143406924,0.,-97.4999571552)) ;
#301=CARTESIAN_POINT('Control Point',(-31.0095604519,0.,-97.4999857184)) ;
#302=CARTESIAN_POINT('Control Point',(-31.0047802258,0.,-97.5)) ;
#303=CARTESIAN_POINT('Control Point',(-31.,0.,-97.5)) ;
#304=CARTESIAN_POINT('Vertex',(-31.,0.,-97.5)) ;
#307=CARTESIAN_POINT('Line Origine',(-24.5,0.,-97.5)) ;
#311=CARTESIAN_POINT('Vertex',(-18.,0.,-97.5)) ;
#315=CARTESIAN_POINT('Control Point',(-18.,0.,-97.5)) ;
#316=CARTESIAN_POINT('Control Point',(-17.6605949358,0.,-97.5)) ;
#317=CARTESIAN_POINT('Control Point',(-17.3211904373,0.,-97.452001751)) ;
#318=CARTESIAN_POINT('Control Point',(-16.990809549,0.,-97.3559819565)) ;
#319=CARTESIAN_POINT('Control Point',(-16.3662889435,0.,-97.0731850916)) ;
#320=CARTESIAN_POINT('Control Point',(-15.8446774557,0.,-96.6283048409)) ;
#321=CARTESIAN_POINT('Control Point',(-15.6172289251,0.,-96.3701605017)) ;
#322=CARTESIAN_POINT('Control Point',(-15.2834940764,0.,-95.860675314)) ;
#323=CARTESIAN_POINT('Control Point',(-15.086896919,0.,-95.28672657)) ;
#324=CARTESIAN_POINT('Control Point',(-15.0289638084,0.,-95.0273072353)) ;
#325=CARTESIAN_POINT('Control Point',(-15.,0.,-94.763653447)) ;
#326=CARTESIAN_POINT('Control Point',(-15.,0.,-94.5)) ;
#327=CARTESIAN_POINT('Vertex',(-15.,0.,-94.5)) ;
#330=CARTESIAN_POINT('Axis2P3D Location',(-11.9999999969,0.,-94.5000000031)) ;
#334=CARTESIAN_POINT('Vertex',(-12.,0.,-91.5)) ;
#337=CARTESIAN_POINT('Line Origine',(0.,0.,-91.5)) ;
#341=CARTESIAN_POINT('Vertex',(12.,0.,-91.5)) ;
#344=CARTESIAN_POINT('Axis2P3D Location',(11.9999999969,0.,-94.5000000031)) ;
#348=CARTESIAN_POINT('Vertex',(15.,0.,-94.5)) ;
#352=CARTESIAN_POINT('Control Point',(15.,0.,-94.5)) ;
#353=CARTESIAN_POINT('Control Point',(15.,0.,-94.8394050642)) ;
#354=CARTESIAN_POINT('Control Point',(15.047998249,0.,-95.1788095627)) ;
#355=CARTESIAN_POINT('Control Point',(15.1440180435,0.,-95.509190451)) ;
#356=CARTESIAN_POINT('Control Point',(15.4268149084,0.,-96.1337110565)) ;
#357=CARTESIAN_POINT('Control Point',(15.8716951591,0.,-96.6553225443)) ;
#358=CARTESIAN_POINT('Control Point',(16.1298394982,0.,-96.8827710749)) ;
#359=CARTESIAN_POINT('Control Point',(16.639324686,0.,-97.2165059236)) ;
#360=CARTESIAN_POINT('Control Point',(17.21327343,0.,-97.413103081)) ;
#361=CARTESIAN_POINT('Control Point',(17.4726927647,0.,-97.4710361916)) ;
#362=CARTESIAN_POINT('Control Point',(17.736346553,0.,-97.5)) ;
#363=CARTESIAN_POINT('Control Point',(18.,0.,-97.5)) ;
#364=CARTESIAN_POINT('Vertex',(18.,0.,-97.5)) ;
#367=CARTESIAN_POINT('Line Origine',(24.5,0.,-97.5)) ;
#371=CARTESIAN_POINT('Vertex',(31.,0.,-97.5)) ;
#375=CARTESIAN_POINT('Control Point',(31.,0.,-97.5)) ;
#376=CARTESIAN_POINT('Control Point',(31.207843348,0.,-97.5)) ;
#377=CARTESIAN_POINT('Control Point',(31.4156862188,0.,-97.4730007142)) ;
#378=CARTESIAN_POINT('Control Point',(31.6188652626,0.,-97.4189928161)) ;
#379=CARTESIAN_POINT('Control Point',(32.0064992088,0.,-97.2594560081)) ;
#380=CARTESIAN_POINT('Control Point',(32.3405059265,0.,-97.0061775156)) ;
#381=CARTESIAN_POINT('Control Point',(32.4900500112,0.,-96.8584103241)) ;
#382=CARTESIAN_POINT('Control Point',(32.7473028691,0.,-96.5274525717)) ;
#383=CARTESIAN_POINT('Control Point',(32.9114596647,0.,-96.1417544697)) ;
#384=CARTESIAN_POINT('Control Point',(32.9678922356,0.,-95.9392354657)) ;
#385=CARTESIAN_POINT('Control Point',(32.9980514342,0.,-95.7269566603)) ;
#386=CARTESIAN_POINT('Control Point',(32.9999571552,0.,-95.5143406924)) ;
#387=CARTESIAN_POINT('Control Point',(32.9999857184,0.,-95.5095604519)) ;
#388=CARTESIAN_POINT('Control Point',(33.,0.,-95.5047802258)) ;
#389=CARTESIAN_POINT('Control Point',(33.,0.,-95.5)) ;
#390=CARTESIAN_POINT('Vertex',(33.,0.,-95.5)) ;
#393=CARTESIAN_POINT('Line Origine',(33.,0.,-92.5)) ;
#397=CARTESIAN_POINT('Vertex',(33.,0.,-89.5)) ;
#401=CARTESIAN_POINT('Control Point',(33.,0.,-89.5)) ;
#402=CARTESIAN_POINT('Control Point',(33.,0.,-89.292156652)) ;
#403=CARTESIAN_POINT('Control Point',(32.9730007142,0.,-89.0843137812)) ;
#404=CARTESIAN_POINT('Control Point',(32.9189928161,0.,-88.8811347374)) ;
#405=CARTESIAN_POINT('Control Point',(32.7594560081,0.,-88.4935007911)) ;
#406=CARTESIAN_POINT('Control Point',(32.5061775156,0.,-88.1594940735)) ;
#407=CARTESIAN_POINT('Control Point',(32.3584103241,0.,-88.0099499888)) ;
#408=CARTESIAN_POINT('Control Point',(32.0769718094,0.,-87.7911883441)) ;
#409=CARTESIAN_POINT('Control Point',(31.7559483985,0.,-87.6397481174)) ;
#410=CARTESIAN_POINT('Control Point',(31.6183428926,0.,-87.5895949678)) ;
#411=CARTESIAN_POINT('Control Point',(31.4769428383,0.,-87.5522478427)) ;
#412=CARTESIAN_POINT('Control Point',(31.333333334,0.,-87.527973406)) ;
#413=CARTESIAN_POINT('Vertex',(31.333333334,0.,-87.527973406)) ;
#416=CARTESIAN_POINT('Axis2P3D Location',(33.0000000017,0.,-77.6678404327)) ;
#420=CARTESIAN_POINT('Vertex',(23.,0.,-77.6678404342)) ;
#423=CARTESIAN_POINT('Line Origine',(23.,0.,-3.2052405607)) ;
#453=CARTESIAN_POINT('Line Origine',(-6.37000010032,0.,-12.7873219184)) ;
#457=CARTESIAN_POINT('Vertex',(-6.37000010032,0.,-63.5746438368)) ;
#460=CARTESIAN_POINT('Line Origine',(-11.3700001003,0.,-63.5746438368)) ;
#472=CARTESIAN_POINT('Control Point',(22.3000000007,0.,-91.5999999996)) ;
#473=CARTESIAN_POINT('Control Point',(22.4027609589,0.,-91.5999999996)) ;
#474=CARTESIAN_POINT('Control Point',(22.5055215314,0.,-91.5880002104)) ;
#475=CARTESIAN_POINT('Control Point',(22.6064182315,0.,-91.5639979999)) ;
#476=CARTESIAN_POINT('Control Point',(22.8007319259,0.,-91.4928801893)) ;
#477=CARTESIAN_POINT('Control Point',(22.9734303056,0.,-91.378905673)) ;
#478=CARTESIAN_POINT('Control Point',(23.0527106163,0.,-91.3120410112)) ;
#479=CARTESIAN_POINT('Control Point',(23.1941848517,0.,-91.1610423459)) ;
#480=CARTESIAN_POINT('Control Point',(23.2970609422,0.,-90.9815112007)) ;
#481=CARTESIAN_POINT('Control Point',(23.3377395556,0.,-90.8861094264)) ;
#482=CARTESIAN_POINT('Control Point',(23.3960643786,0.,-90.6875804059)) ;
#483=CARTESIAN_POINT('Control Point',(23.4070776326,0.,-90.480956034)) ;
#484=CARTESIAN_POINT('Control Point',(23.4004394267,0.,-90.3774563566)) ;
#485=CARTESIAN_POINT('Control Point',(23.3631191147,0.,-90.1739305593)) ;
#486=CARTESIAN_POINT('Control Point',(23.2799100129,0.,-89.9844809168)) ;
#487=CARTESIAN_POINT('Control Point',(23.2273771738,0.,-89.8950574797)) ;
#488=CARTESIAN_POINT('Control Point',(23.1024073678,0.,-89.7301390075)) ;
#489=CARTESIAN_POINT('Control Point',(22.9428029308,0.,-89.598452469)) ;
#490=CARTESIAN_POINT('Control Point',(22.8556302833,0.,-89.5422636773)) ;
#491=CARTESIAN_POINT('Control Point',(22.6954296277,0.,-89.4638393046)) ;
#492=CARTESIAN_POINT('Control Point',(22.5233695282,0.,-89.4190518716)) ;
#493=CARTESIAN_POINT('Control Point',(22.4488024771,0.,-89.4062903745)) ;
#494=CARTESIAN_POINT('Control Point',(22.3744011378,0.,-89.4000000004)) ;
#495=CARTESIAN_POINT('Control Point',(22.3000000007,0.,-89.4000000004)) ;
#496=CARTESIAN_POINT('Vertex',(22.3,0.,-91.6)) ;
#498=CARTESIAN_POINT('Vertex',(22.3,0.,-89.4)) ;
#502=CARTESIAN_POINT('Control Point',(22.3000000007,0.,-89.4000000004)) ;
#503=CARTESIAN_POINT('Control Point',(22.197239042,0.,-89.4000000004)) ;
#504=CARTESIAN_POINT('Control Point',(22.094478469,0.,-89.4119997897)) ;
#505=CARTESIAN_POINT('Control Point',(21.9935817692,0.,-89.4360019997)) ;
#506=CARTESIAN_POINT('Control Point',(21.7992680752,0.,-89.50711981)) ;
#507=CARTESIAN_POINT('Control Point',(21.6265696959,0.,-89.6210943258)) ;
#508=CARTESIAN_POINT('Control Point',(21.5472893818,0.,-89.6879589904)) ;
#509=CARTESIAN_POINT('Control Point',(21.4058151484,0.,-89.8389576539)) ;
#510=CARTESIAN_POINT('Control Point',(21.302939059,0.,-90.0184887966)) ;
#511=CARTESIAN_POINT('Control Point',(21.2622604432,0.,-90.1138905766)) ;
#512=CARTESIAN_POINT('Control Point',(21.2039356214,0.,-90.3124195941)) ;
#513=CARTESIAN_POINT('Control Point',(21.1929223672,0.,-90.5190439627)) ;
#514=CARTESIAN_POINT('Control Point',(21.1995605736,0.,-90.6225436467)) ;
#515=CARTESIAN_POINT('Control Point',(21.2368808854,0.,-90.8260694408)) ;
#516=CARTESIAN_POINT('Control Point',(21.3200899855,0.,-91.0155190805)) ;
#517=CARTESIAN_POINT('Control Point',(21.3726228275,0.,-91.1049425227)) ;
#518=CARTESIAN_POINT('Control Point',(21.4975926338,0.,-91.2698609945)) ;
#519=CARTESIAN_POINT('Control Point',(21.6571970709,0.,-91.4015475328)) ;
#520=CARTESIAN_POINT('Control Point',(21.7443697157,0.,-91.4577363215)) ;
#521=CARTESIAN_POINT('Control Point',(21.9045703724,0.,-91.5361606951)) ;
#522=CARTESIAN_POINT('Control Point',(22.0766304733,0.,-91.5809481284)) ;
#523=CARTESIAN_POINT('Control Point',(22.1511975244,0.,-91.5937096255)) ;
#524=CARTESIAN_POINT('Control Point',(22.2255988637,0.,-91.5999999996)) ;
#525=CARTESIAN_POINT('Control Point',(22.3000000007,0.,-91.5999999996)) ;
#531=CARTESIAN_POINT('Axis2P3D Location',(-27.5,0.,-95.)) ;
#535=CARTESIAN_POINT('Vertex',(-27.5,0.,-96.1)) ;
#537=CARTESIAN_POINT('Vertex',(-27.5,0.,-93.9)) ;
#540=CARTESIAN_POINT('Axis2P3D Location',(-27.5,0.,-95.)) ;
#549=CARTESIAN_POINT('Axis2P3D Location',(-10.,0.,93.5)) ;
#553=CARTESIAN_POINT('Vertex',(-10.,0.,92.)) ;
#555=CARTESIAN_POINT('Vertex',(-10.,0.,95.)) ;
#558=CARTESIAN_POINT('Axis2P3D Location',(-10.,0.,93.5)) ;
#567=CARTESIAN_POINT('Axis2P3D Location',(10.,0.,71.5)) ;
#571=CARTESIAN_POINT('Vertex',(10.,0.,70.)) ;
#573=CARTESIAN_POINT('Vertex',(10.,0.,73.)) ;
#576=CARTESIAN_POINT('Axis2P3D Location',(10.,0.,71.5)) ;
#585=CARTESIAN_POINT('Axis2P3D Location',(-2.,0.,65.5)) ;
#589=CARTESIAN_POINT('Vertex',(-2.,0.,57.5)) ;
#591=CARTESIAN_POINT('Vertex',(-2.,0.,73.5)) ;
#594=CARTESIAN_POINT('Axis2P3D Location',(-2.,0.,65.5)) ;
#603=CARTESIAN_POINT('Axis2P3D Location',(22.2999999989,0.,-94.5)) ;
#607=CARTESIAN_POINT('Vertex',(22.3,0.,-95.6)) ;
#609=CARTESIAN_POINT('Vertex',(22.3,0.,-93.4)) ;
#612=CARTESIAN_POINT('Axis2P3D Location',(22.3000000007,0.,-94.5)) ;
#621=CARTESIAN_POINT('Axis2P3D Location',(10.,0.,45.5)) ;
#625=CARTESIAN_POINT('Vertex',(10.,0.,44.)) ;
#627=CARTESIAN_POINT('Vertex',(10.,0.,47.)) ;
#630=CARTESIAN_POINT('Axis2P3D Location',(10.,0.,45.5)) ;
#640=CARTESIAN_POINT('Control Point',(-10.,0.,44.)) ;
#641=CARTESIAN_POINT('Control Point',(-9.82000408281,0.,44.)) ;
#642=CARTESIAN_POINT('Control Point',(-9.64000880198,0.,44.0269987752)) ;
#643=CARTESIAN_POINT('Control Point',(-9.46539555318,0.,44.08101259)) ;
#644=CARTESIAN_POINT('Control Point',(-9.13779110943,0.,44.2397138875)) ;
#645=CARTESIAN_POINT('Control Point',(-8.87116738764,0.,44.487545951)) ;
#646=CARTESIAN_POINT('Control Point',(-8.75755134944,0.,44.6307195289)) ;
#647=CARTESIAN_POINT('Control Point',(-8.57677722847,0.,44.946680743)) ;
#648=CARTESIAN_POINT('Control Point',(-8.49665968399,0.,45.3017724465)) ;
#649=CARTESIAN_POINT('Control Point',(-8.48373020314,0.,45.4840911545)) ;
#650=CARTESIAN_POINT('Control Point',(-8.51293600484,0.,45.8469379382)) ;
#651=CARTESIAN_POINT('Control Point',(-8.64731199699,0.,46.185245531)) ;
#652=CARTESIAN_POINT('Control Point',(-8.73958572736,0.,46.3430201945)) ;
#653=CARTESIAN_POINT('Control Point',(-8.96856902112,0.,46.6259997307)) ;
#654=CARTESIAN_POINT('Control Point',(-9.27049714889,0.,46.8293426425)) ;
#655=CARTESIAN_POINT('Control Point',(-9.43574021671,0.,46.9074580219)) ;
#656=CARTESIAN_POINT('Control Point',(-9.65126190119,0.,46.9718848343)) ;
#657=CARTESIAN_POINT('Control Point',(-9.8726022551,0.,46.9954853233)) ;
#658=CARTESIAN_POINT('Control Point',(-9.91507984016,0.,46.9984976193)) ;
#659=CARTESIAN_POINT('Control Point',(-9.95753993779,0.,47.)) ;
#660=CARTESIAN_POINT('Control Point',(-10.,0.,47.)) ;
#661=CARTESIAN_POINT('Vertex',(-10.,0.,44.)) ;
#663=CARTESIAN_POINT('Vertex',(-10.,0.,47.)) ;
#667=CARTESIAN_POINT('Control Point',(-10.,0.,47.)) ;
#668=CARTESIAN_POINT('Control Point',(-10.1799959172,0.,47.)) ;
#669=CARTESIAN_POINT('Control Point',(-10.3599911981,0.,46.9730012248)) ;
#670=CARTESIAN_POINT('Control Point',(-10.5346044468,0.,46.91898741)) ;
#671=CARTESIAN_POINT('Control Point',(-10.8622088906,0.,46.7602861125)) ;
#672=CARTESIAN_POINT('Control Point',(-11.1288326124,0.,46.512454049)) ;
#673=CARTESIAN_POINT('Control Point',(-11.2424486506,0.,46.3692804711)) ;
#674=CARTESIAN_POINT('Control Point',(-11.4232227715,0.,46.053319257)) ;
#675=CARTESIAN_POINT('Control Point',(-11.503340316,0.,45.6982275535)) ;
#676=CARTESIAN_POINT('Control Point',(-11.5162697969,0.,45.5159088455)) ;
#677=CARTESIAN_POINT('Control Point',(-11.4870639952,0.,45.1530620618)) ;
#678=CARTESIAN_POINT('Control Point',(-11.352688003,0.,44.814754469)) ;
#679=CARTESIAN_POINT('Control Point',(-11.2604142726,0.,44.6569798055)) ;
#680=CARTESIAN_POINT('Control Point',(-11.0314309789,0.,44.3740002693)) ;
#681=CARTESIAN_POINT('Control Point',(-10.7295028511,0.,44.1706573575)) ;
#682=CARTESIAN_POINT('Control Point',(-10.5642597833,0.,44.0925419781)) ;
#683=CARTESIAN_POINT('Control Point',(-10.3487380988,0.,44.0281151657)) ;
#684=CARTESIAN_POINT('Control Point',(-10.1273977449,0.,44.0045146767)) ;
#685=CARTESIAN_POINT('Control Point',(-10.0849201598,0.,44.0015023807)) ;
#686=CARTESIAN_POINT('Control Point',(-10.0424600622,0.,44.)) ;
#687=CARTESIAN_POINT('Control Point',(-10.,0.,44.)) ;
#694=CARTESIAN_POINT('Axis2P3D Location',(-6.37000010032,0.,-63.5746438368)) ;
#699=CARTESIAN_POINT('Line Origine',(-6.37000010032,-1.25,-63.5746438368)) ;
#712=CARTESIAN_POINT('Axis2P3D Location',(-6.37000010032,0.,-63.5746438368)) ;
#724=CARTESIAN_POINT('Axis2P3D Location',(23.,4.,0.)) ;
#729=CARTESIAN_POINT('Line Origine',(23.,2.,-77.6678404342)) ;
#733=CARTESIAN_POINT('Vertex',(23.,4.,-77.6678404342)) ;
#736=CARTESIAN_POINT('Line Origine',(23.,4.,-3.2052405607)) ;
#740=CARTESIAN_POINT('Vertex',(23.,4.,71.2573593128)) ;
#743=CARTESIAN_POINT('Line Origine',(23.,2.,71.2573593128)) ;
#755=CARTESIAN_POINT('Axis2P3D Location',(33.,4.,-77.6678404338)) ;
#760=CARTESIAN_POINT('Axis2P3D Location',(33.,4.,-77.6678404338)) ;
#764=CARTESIAN_POINT('Vertex',(31.3333333333,4.,-87.5279734056)) ;
#767=CARTESIAN_POINT('Line Origine',(31.3333333333,4.,-87.5279734056)) ;
#779=CARTESIAN_POINT('Axis2P3D Location',(31.,4.,-89.5)) ;
#784=CARTESIAN_POINT('Axis2P3D Location',(31.,4.,-89.5)) ;
#788=CARTESIAN_POINT('Vertex',(33.,4.,-89.5)) ;
#791=CARTESIAN_POINT('Line Origine',(33.,4.,-89.5)) ;
#803=CARTESIAN_POINT('Axis2P3D Location',(33.,4.,0.)) ;
#808=CARTESIAN_POINT('Line Origine',(33.,2.,-95.5)) ;
#812=CARTESIAN_POINT('Vertex',(33.,4.,-95.5)) ;
#815=CARTESIAN_POINT('Line Origine',(33.,4.,-92.5)) ;
#827=CARTESIAN_POINT('Axis2P3D Location',(31.,4.,-95.5)) ;
#832=CARTESIAN_POINT('Axis2P3D Location',(31.,4.,-95.5)) ;
#836=CARTESIAN_POINT('Vertex',(31.,4.,-97.5)) ;
#839=CARTESIAN_POINT('Line Origine',(31.,4.,-97.5)) ;
#851=CARTESIAN_POINT('Axis2P3D Location',(0.,4.,-97.5)) ;
#856=CARTESIAN_POINT('Line Origine',(24.5,4.,-97.5)) ;
#860=CARTESIAN_POINT('Vertex',(18.,4.,-97.5)) ;
#863=CARTESIAN_POINT('Line Origine',(18.,2.,-97.5)) ;
#875=CARTESIAN_POINT('Axis2P3D Location',(18.,4.,-94.5)) ;
#880=CARTESIAN_POINT('Line Origine',(15.,4.,-94.5)) ;
#884=CARTESIAN_POINT('Vertex',(15.,4.,-94.5)) ;
#887=CARTESIAN_POINT('Axis2P3D Location',(18.,4.,-94.5)) ;
#899=CARTESIAN_POINT('Axis2P3D Location',(12.,-1.,-94.5)) ;
#904=CARTESIAN_POINT('Line Origine',(12.,-1.,-91.5)) ;
#908=CARTESIAN_POINT('Vertex',(12.,4.,-91.5)) ;
#911=CARTESIAN_POINT('Axis2P3D Location',(12.,4.,-94.5)) ;
#923=CARTESIAN_POINT('Axis2P3D Location',(-15.,-1.,-91.5)) ;
#928=CARTESIAN_POINT('Line Origine',(0.,4.,-91.5)) ;
#932=CARTESIAN_POINT('Vertex',(-12.,4.,-91.5)) ;
#935=CARTESIAN_POINT('Line Origine',(-12.,2.,-91.5)) ;
#947=CARTESIAN_POINT('Axis2P3D Location',(-12.,-1.,-94.5)) ;
#952=CARTESIAN_POINT('Line Origine',(-15.,-1.,-94.5)) ;
#956=CARTESIAN_POINT('Vertex',(-15.,4.,-94.5)) ;
#959=CARTESIAN_POINT('Axis2P3D Location',(-12.,4.,-94.5)) ;
#971=CARTESIAN_POINT('Axis2P3D Location',(-18.,-1.,-94.5)) ;
#976=CARTESIAN_POINT('Line Origine',(-18.,-1.,-97.5)) ;
#980=CARTESIAN_POINT('Vertex',(-18.,4.,-97.5)) ;
#983=CARTESIAN_POINT('Axis2P3D Location',(-18.,4.,-94.5)) ;
#995=CARTESIAN_POINT('Line Origine',(-31.,2.,-97.5)) ;
#999=CARTESIAN_POINT('Vertex',(-31.,4.,-97.5)) ;
#1002=CARTESIAN_POINT('Line Origine',(-24.5,4.,-97.5)) ;
#1014=CARTESIAN_POINT('Axis2P3D Location',(-31.,4.,-95.5)) ;
#1019=CARTESIAN_POINT('Axis2P3D Location',(-31.,4.,-95.5)) ;
#1023=CARTESIAN_POINT('Vertex',(-33.,4.,-95.5)) ;
#1026=CARTESIAN_POINT('Line Origine',(-33.,4.,-95.5)) ;
#1038=CARTESIAN_POINT('Axis2P3D Location',(-33.,4.,0.)) ;
#1043=CARTESIAN_POINT('Line Origine',(-33.,4.,-92.5)) ;
#1047=CARTESIAN_POINT('Vertex',(-33.,4.,-89.5)) ;
#1050=CARTESIAN_POINT('Line Origine',(-33.,2.,-89.5)) ;
#1062=CARTESIAN_POINT('Axis2P3D Location',(-31.,4.,-89.5)) ;
#1067=CARTESIAN_POINT('Axis2P3D Location',(-31.,4.,-89.5)) ;
#1071=CARTESIAN_POINT('Vertex',(-31.,4.,-87.5)) ;
#1074=CARTESIAN_POINT('Line Origine',(-31.,4.,-87.5)) ;
#1086=CARTESIAN_POINT('Axis2P3D Location',(0.,4.,-87.5)) ;
#1091=CARTESIAN_POINT('Line Origine',(-30.,2.,-87.5)) ;
#1095=CARTESIAN_POINT('Vertex',(-30.,4.,-87.5)) ;
#1098=CARTESIAN_POINT('Line Origine',(-30.5,4.,-87.5)) ;
#1110=CARTESIAN_POINT('Axis2P3D Location',(-30.,4.,-77.5)) ;
#1115=CARTESIAN_POINT('Axis2P3D Location',(-30.,4.,-77.5)) ;
#1119=CARTESIAN_POINT('Vertex',(-20.,4.,-77.5)) ;
#1122=CARTESIAN_POINT('Line Origine',(-20.,4.,-77.5)) ;
#1134=CARTESIAN_POINT('Axis2P3D Location',(-20.,4.,7.50150692314E-16)) ;
#1139=CARTESIAN_POINT('Line Origine',(-20.,4.,8.5)) ;
#1143=CARTESIAN_POINT('Vertex',(-20.,4.,94.5)) ;
#1146=CARTESIAN_POINT('Line Origine',(-20.,2.,94.5)) ;
#1158=CARTESIAN_POINT('Axis2P3D Location',(-17.,4.,94.5)) ;
#1163=CARTESIAN_POINT('Axis2P3D Location',(-17.,4.,94.5)) ;
#1167=CARTESIAN_POINT('Vertex',(-17.,4.,97.5)) ;
#1170=CARTESIAN_POINT('Line Origine',(-17.,4.,97.5)) ;
#1182=CARTESIAN_POINT('Axis2P3D Location',(0.,4.,97.5)) ;
#1187=CARTESIAN_POINT('Line Origine',(-3.24264068715,2.,97.5)) ;
#1191=CARTESIAN_POINT('Vertex',(-3.24264068715,4.,97.5)) ;
#1194=CARTESIAN_POINT('Line Origine',(-10.1213203436,4.,97.5)) ;
#1206=CARTESIAN_POINT('Axis2P3D Location',(-3.24264068712,4.,94.5)) ;
#1211=CARTESIAN_POINT('Line Origine',(-1.12132034356,4.,96.6213203436)) ;
#1215=CARTESIAN_POINT('Vertex',(-1.12132034265,4.,96.6213203426)) ;
#1218=CARTESIAN_POINT('Axis2P3D Location',(-3.24264068712,4.,94.5)) ;
#1230=CARTESIAN_POINT('Axis2P3D Location',(23.,4.,72.5)) ;
#1235=CARTESIAN_POINT('Line Origine',(22.1213203435,2.,73.3786796565)) ;
#1239=CARTESIAN_POINT('Vertex',(22.1213203426,4.,73.3786796574)) ;
#1242=CARTESIAN_POINT('Line Origine',(10.4999999999,4.,85.0000000001)) ;
#1254=CARTESIAN_POINT('Axis2P3D Location',(20.,4.,71.2573593129)) ;
#1259=CARTESIAN_POINT('Axis2P3D Location',(20.,4.,71.2573593129)) ;
#1271=CARTESIAN_POINT('Axis2P3D Location',(22.3,4.,-90.5)) ;
#1276=CARTESIAN_POINT('Axis2P3D Location',(22.3,4.,-90.5)) ;
#1280=CARTESIAN_POINT('Vertex',(22.3,4.,-89.4)) ;
#1282=CARTESIAN_POINT('Vertex',(22.3,4.,-91.6)) ;
#1285=CARTESIAN_POINT('Line Origine',(22.3,4.,-89.4)) ;
#1290=CARTESIAN_POINT('Line Origine',(22.3,4.,-91.6)) ;
#1302=CARTESIAN_POINT('Axis2P3D Location',(22.3,4.,-90.5)) ;
#1314=CARTESIAN_POINT('Axis2P3D Location',(-27.5,4.,-95.)) ;
#1319=CARTESIAN_POINT('Line Origine',(-27.5,4.,-93.9)) ;
#1323=CARTESIAN_POINT('Vertex',(-27.5,4.,-93.9)) ;
#1326=CARTESIAN_POINT('Axis2P3D Location',(-27.5,4.,-95.)) ;
#1330=CARTESIAN_POINT('Vertex',(-27.5,4.,-96.1)) ;
#1333=CARTESIAN_POINT('Line Origine',(-27.5,4.,-96.1)) ;
#1345=CARTESIAN_POINT('Axis2P3D Location',(-27.5,4.,-95.)) ;
#1357=CARTESIAN_POINT('Axis2P3D Location',(-10.,4.,93.5)) ;
#1362=CARTESIAN_POINT('Line Origine',(-10.,4.,95.)) ;
#1366=CARTESIAN_POINT('Vertex',(-10.,4.,95.)) ;
#1369=CARTESIAN_POINT('Axis2P3D Location',(-10.,4.,93.5)) ;
#1373=CARTESIAN_POINT('Vertex',(-10.,4.,92.)) ;
#1376=CARTESIAN_POINT('Line Origine',(-10.,4.,92.)) ;
#1388=CARTESIAN_POINT('Axis2P3D Location',(-10.,4.,93.5)) ;
#1400=CARTESIAN_POINT('Axis2P3D Location',(10.,4.,71.5)) ;
#1405=CARTESIAN_POINT('Line Origine',(10.,4.,73.)) ;
#1409=CARTESIAN_POINT('Vertex',(10.,4.,73.)) ;
#1412=CARTESIAN_POINT('Axis2P3D Location',(10.,4.,71.5)) ;
#1416=CARTESIAN_POINT('Vertex',(10.,4.,70.)) ;
#1419=CARTESIAN_POINT('Line Origine',(10.,4.,70.)) ;
#1431=CARTESIAN_POINT('Axis2P3D Location',(10.,4.,71.5)) ;
#1443=CARTESIAN_POINT('Axis2P3D Location',(-2.,4.,65.5)) ;
#1448=CARTESIAN_POINT('Line Origine',(-2.,4.,73.5)) ;
#1452=CARTESIAN_POINT('Vertex',(-2.,4.,73.5)) ;
#1455=CARTESIAN_POINT('Axis2P3D Location',(-2.,4.,65.5)) ;
#1459=CARTESIAN_POINT('Vertex',(-2.,4.,57.5)) ;
#1462=CARTESIAN_POINT('Line Origine',(-2.,4.,57.5)) ;
#1474=CARTESIAN_POINT('Axis2P3D Location',(-2.,4.,65.5)) ;
#1486=CARTESIAN_POINT('Axis2P3D Location',(22.3,4.,-94.5)) ;
#1491=CARTESIAN_POINT('Line Origine',(22.3,4.,-93.4)) ;
#1495=CARTESIAN_POINT('Vertex',(22.3,4.,-93.4)) ;
#1498=CARTESIAN_POINT('Axis2P3D Location',(22.3,4.,-94.5)) ;
#1502=CARTESIAN_POINT('Vertex',(22.3,4.,-95.6)) ;
#1505=CARTESIAN_POINT('Line Origine',(22.3,4.,-95.6)) ;
#1517=CARTESIAN_POINT('Axis2P3D Location',(22.3,4.,-94.5)) ;
#1529=CARTESIAN_POINT('Axis2P3D Location',(10.,4.,45.5)) ;
#1534=CARTESIAN_POINT('Line Origine',(10.,4.,47.)) ;
#1538=CARTESIAN_POINT('Vertex',(10.,4.,47.)) ;
#1541=CARTESIAN_POINT('Axis2P3D Location',(10.,4.,45.5)) ;
#1545=CARTESIAN_POINT('Vertex',(10.,4.,44.)) ;
#1548=CARTESIAN_POINT('Line Origine',(10.,4.,44.)) ;
#1560=CARTESIAN_POINT('Axis2P3D Location',(10.,4.,45.5)) ;
#1572=CARTESIAN_POINT('Axis2P3D Location',(-10.,4.,45.5)) ;
#1577=CARTESIAN_POINT('Axis2P3D Location',(-10.,4.,45.5)) ;
#1581=CARTESIAN_POINT('Vertex',(-10.,4.,47.)) ;
#1583=CARTESIAN_POINT('Vertex',(-10.,4.,44.)) ;
#1586=CARTESIAN_POINT('Line Origine',(-10.,4.,47.)) ;
#1591=CARTESIAN_POINT('Line Origine',(-10.,4.,44.)) ;
#1603=CARTESIAN_POINT('Axis2P3D Location',(-10.,4.,45.5)) ;
#1615=CARTESIAN_POINT('Axis2P3D Location',(0.,4.,0.)) ;
#52=DIRECTION('Axis2P3D Direction',(0.,-0.99969685075,-0.0246212631589)) ;
#53=DIRECTION('Axis2P3D XDirection',(-0.,0.0246212631589,-0.99969685075)) ;
#57=DIRECTION('Vector Direction',(1.,0.,0.)) ;
#66=DIRECTION('Vector Direction',(0.,0.0246212631589,-0.99969685075)) ;
#73=DIRECTION('Vector Direction',(1.,0.,0.)) ;
#80=DIRECTION('Vector Direction',(0.,0.0246212631589,-0.99969685075)) ;
#92=DIRECTION('Axis2P3D Direction',(0.,0.,-1.)) ;
#93=DIRECTION('Axis2P3D XDirection',(1.,0.,0.)) ;
#97=DIRECTION('Vector Direction',(0.,-1.,0.)) ;
#106=DIRECTION('Vector Direction',(1.,0.,0.)) ;
#113=DIRECTION('Vector Direction',(0.,-1.,0.)) ;
#120=DIRECTION('Vector Direction',(1.,0.,0.)) ;
#132=DIRECTION('Axis2P3D Direction',(-0.,-1.,0.)) ;
#133=DIRECTION('Axis2P3D XDirection',(1.,-0.,0.)) ;
#137=DIRECTION('Vector Direction',(0.,0.,1.)) ;
#142=DIRECTION('Vector Direction',(0.,0.,-1.)) ;
#154=DIRECTION('Axis2P3D Direction',(-1.,-0.,0.)) ;
#155=DIRECTION('Axis2P3D XDirection',(0.,-0.,-1.)) ;
#159=DIRECTION('Vector Direction',(0.,0.,-1.)) ;
#166=DIRECTION('Vector Direction',(0.,-1.,0.)) ;
#179=DIRECTION('Axis2P3D Direction',(0.,1.,-0.)) ;
#180=DIRECTION('Axis2P3D XDirection',(0.,0.,1.)) ;
#199=DIRECTION('Vector Direction',(-0.707106781187,0.,0.707106781187)) ;
#219=DIRECTION('Vector Direction',(1.,0.,0.)) ;
#242=DIRECTION('Vector Direction',(0.,0.,-1.)) ;
#249=DIRECTION('Axis2P3D Direction',(0.,1.,-0.)) ;
#256=DIRECTION('Vector Direction',(-1.,0.,0.)) ;
#282=DIRECTION('Vector Direction',(0.,0.,-1.)) ;
#308=DIRECTION('Vector Direction',(1.,0.,0.)) ;
#331=DIRECTION('Axis2P3D Direction',(0.,1.,-0.)) ;
#338=DIRECTION('Vector Direction',(1.,0.,0.)) ;
#345=DIRECTION('Axis2P3D Direction',(0.,1.,-0.)) ;
#368=DIRECTION('Vector Direction',(1.,0.,0.)) ;
#394=DIRECTION('Vector Direction',(0.,0.,-1.)) ;
#417=DIRECTION('Axis2P3D Direction',(0.,1.,-0.)) ;
#424=DIRECTION('Vector Direction',(0.,0.,-1.)) ;
#454=DIRECTION('Vector Direction',(0.,0.,1.)) ;
#461=DIRECTION('Vector Direction',(-1.,0.,0.)) ;
#532=DIRECTION('Axis2P3D Direction',(0.,1.,-0.)) ;
#541=DIRECTION('Axis2P3D Direction',(0.,1.,-0.)) ;
#550=DIRECTION('Axis2P3D Direction',(0.,1.,-0.)) ;
#559=DIRECTION('Axis2P3D Direction',(0.,1.,-0.)) ;
#568=DIRECTION('Axis2P3D Direction',(0.,1.,-0.)) ;
#577=DIRECTION('Axis2P3D Direction',(0.,1.,-0.)) ;
#586=DIRECTION('Axis2P3D Direction',(0.,1.,-0.)) ;
#595=DIRECTION('Axis2P3D Direction',(0.,1.,-0.)) ;
#604=DIRECTION('Axis2P3D Direction',(0.,1.,-0.)) ;
#613=DIRECTION('Axis2P3D Direction',(0.,1.,-0.)) ;
#622=DIRECTION('Axis2P3D Direction',(0.,1.,-0.)) ;
#631=DIRECTION('Axis2P3D Direction',(0.,1.,-0.)) ;
#695=DIRECTION('Axis2P3D Direction',(1.,0.,-0.)) ;
#696=DIRECTION('Axis2P3D XDirection',(0.,0.,1.)) ;
#700=DIRECTION('Vector Direction',(0.,-1.,0.)) ;
#713=DIRECTION('Axis2P3D Direction',(0.,0.,1.)) ;
#714=DIRECTION('Axis2P3D XDirection',(-1.,0.,0.)) ;
#725=DIRECTION('Axis2P3D Direction',(-1.,0.,0.)) ;
#726=DIRECTION('Axis2P3D XDirection',(0.,0.,1.)) ;
#730=DIRECTION('Vector Direction',(0.,1.,0.)) ;
#737=DIRECTION('Vector Direction',(0.,0.,-1.)) ;
#744=DIRECTION('Vector Direction',(0.,-1.,0.)) ;
#756=DIRECTION('Axis2P3D Direction',(0.,-1.,0.)) ;
#757=DIRECTION('Axis2P3D XDirection',(1.22464679915E-16,0.,1.)) ;
#761=DIRECTION('Axis2P3D Direction',(0.,-1.,0.)) ;
#768=DIRECTION('Vector Direction',(0.,-1.,0.)) ;
#780=DIRECTION('Axis2P3D Direction',(0.,-1.,0.)) ;
#781=DIRECTION('Axis2P3D XDirection',(0.,0.,-1.)) ;
#785=DIRECTION('Axis2P3D Direction',(0.,-1.,0.)) ;
#792=DIRECTION('Vector Direction',(0.,-1.,0.)) ;
#804=DIRECTION('Axis2P3D Direction',(-1.,0.,0.)) ;
#805=DIRECTION('Axis2P3D XDirection',(0.,0.,1.)) ;
#809=DIRECTION('Vector Direction',(0.,1.,0.)) ;
#816=DIRECTION('Vector Direction',(0.,0.,-1.)) ;
#828=DIRECTION('Axis2P3D Direction',(0.,1.,0.)) ;
#829=DIRECTION('Axis2P3D XDirection',(0.,0.,1.)) ;
#833=DIRECTION('Axis2P3D Direction',(0.,1.,0.)) ;
#840=DIRECTION('Vector Direction',(0.,1.,0.)) ;
#852=DIRECTION('Axis2P3D Direction',(0.,0.,-1.)) ;
#853=DIRECTION('Axis2P3D XDirection',(-1.,0.,-0.)) ;
#857=DIRECTION('Vector Direction',(1.,0.,0.)) ;
#864=DIRECTION('Vector Direction',(0.,1.,0.)) ;
#876=DIRECTION('Axis2P3D Direction',(0.,-1.,0.)) ;
#877=DIRECTION('Axis2P3D XDirection',(1.22464679915E-16,0.,1.)) ;
#881=DIRECTION('Vector Direction',(0.,-1.,0.)) ;
#888=DIRECTION('Axis2P3D Direction',(0.,-1.,0.)) ;
#900=DIRECTION('Axis2P3D Direction',(0.,-1.,0.)) ;
#901=DIRECTION('Axis2P3D XDirection',(0.,0.,-1.)) ;
#905=DIRECTION('Vector Direction',(0.,-1.,0.)) ;
#912=DIRECTION('Axis2P3D Direction',(0.,-1.,0.)) ;
#924=DIRECTION('Axis2P3D Direction',(-0.,0.,1.)) ;
#925=DIRECTION('Axis2P3D XDirection',(1.,0.,0.)) ;
#929=DIRECTION('Vector Direction',(1.,0.,0.)) ;
#936=DIRECTION('Vector Direction',(0.,1.,0.)) ;
#948=DIRECTION('Axis2P3D Direction',(0.,-1.,0.)) ;
#949=DIRECTION('Axis2P3D XDirection',(1.22464679915E-16,0.,1.)) ;
#953=DIRECTION('Vector Direction',(0.,-1.,0.)) ;
#960=DIRECTION('Axis2P3D Direction',(0.,-1.,0.)) ;
#972=DIRECTION('Axis2P3D Direction',(0.,-1.,0.)) ;
#973=DIRECTION('Axis2P3D XDirection',(0.,0.,-1.)) ;
#977=DIRECTION('Vector Direction',(0.,-1.,0.)) ;
#984=DIRECTION('Axis2P3D Direction',(0.,-1.,0.)) ;
#996=DIRECTION('Vector Direction',(0.,1.,0.)) ;
#1003=DIRECTION('Vector Direction',(1.,0.,0.)) ;
#1015=DIRECTION('Axis2P3D Direction',(0.,-1.,0.)) ;
#1016=DIRECTION('Axis2P3D XDirection',(1.22464679915E-16,0.,1.)) ;
#1020=DIRECTION('Axis2P3D Direction',(0.,-1.,0.)) ;
#1027=DIRECTION('Vector Direction',(0.,-1.,0.)) ;
#1039=DIRECTION('Axis2P3D Direction',(-1.,0.,0.)) ;
#1040=DIRECTION('Axis2P3D XDirection',(0.,0.,1.)) ;
#1044=DIRECTION('Vector Direction',(0.,0.,-1.)) ;
#1051=DIRECTION('Vector Direction',(0.,1.,0.)) ;
#1063=DIRECTION('Axis2P3D Direction',(0.,-1.,0.)) ;
#1064=DIRECTION('Axis2P3D XDirection',(1.22464679915E-16,0.,1.)) ;
#1068=DIRECTION('Axis2P3D Direction',(0.,-1.,0.)) ;
#1075=DIRECTION('Vector Direction',(0.,-1.,0.)) ;
#1087=DIRECTION('Axis2P3D Direction',(0.,-0.,1.)) ;
#1088=DIRECTION('Axis2P3D XDirection',(1.,0.,-0.)) ;
#1092=DIRECTION('Vector Direction',(0.,1.,0.)) ;
#1099=DIRECTION('Vector Direction',(-1.,0.,0.)) ;
#1111=DIRECTION('Axis2P3D Direction',(0.,1.,0.)) ;
#1112=DIRECTION('Axis2P3D XDirection',(0.,0.,1.)) ;
#1116=DIRECTION('Axis2P3D Direction',(0.,1.,0.)) ;
#1123=DIRECTION('Vector Direction',(0.,1.,0.)) ;
#1135=DIRECTION('Axis2P3D Direction',(-1.,0.,3.75075346157E-17)) ;
#1136=DIRECTION('Axis2P3D XDirection',(3.75075346157E-17,0.,1.)) ;
#1140=DIRECTION('Vector Direction',(-4.13106241721E-17,0.,-1.)) ;
#1147=DIRECTION('Vector Direction',(0.,1.,0.)) ;
#1159=DIRECTION('Axis2P3D Direction',(0.,1.,0.)) ;
#1160=DIRECTION('Axis2P3D XDirection',(1.22464679915E-16,0.,-1.)) ;
#1164=DIRECTION('Axis2P3D Direction',(0.,1.,0.)) ;
#1171=DIRECTION('Vector Direction',(0.,1.,0.)) ;
#1183=DIRECTION('Axis2P3D Direction',(0.,0.,-1.)) ;
#1184=DIRECTION('Axis2P3D XDirection',(-1.,0.,-0.)) ;
#1188=DIRECTION('Vector Direction',(0.,1.,0.)) ;
#1195=DIRECTION('Vector Direction',(1.,0.,0.)) ;
#1207=DIRECTION('Axis2P3D Direction',(0.,1.,0.)) ;
#1208=DIRECTION('Axis2P3D XDirection',(0.,0.,1.)) ;
#1212=DIRECTION('Vector Direction',(0.,1.,0.)) ;
#1219=DIRECTION('Axis2P3D Direction',(0.,1.,0.)) ;
#1231=DIRECTION('Axis2P3D Direction',(-0.707106781187,-0.,-0.707106781187)) ;
#1232=DIRECTION('Axis2P3D XDirection',(0.,-1.,0.)) ;
#1236=DIRECTION('Vector Direction',(0.,1.,0.)) ;
#1243=DIRECTION('Vector Direction',(0.707106781187,0.,-0.707106781187)) ;
#1255=DIRECTION('Axis2P3D Direction',(0.,-1.,0.)) ;
#1256=DIRECTION('Axis2P3D XDirection',(0.,0.,-1.)) ;
#1260=DIRECTION('Axis2P3D Direction',(0.,-1.,0.)) ;
#1272=DIRECTION('Axis2P3D Direction',(0.,-1.,-0.)) ;
#1273=DIRECTION('Axis2P3D XDirection',(0.,0.,-1.)) ;
#1277=DIRECTION('Axis2P3D Direction',(0.,-1.,-0.)) ;
#1286=DIRECTION('Vector Direction',(0.,-1.,0.)) ;
#1291=DIRECTION('Vector Direction',(0.,-1.,0.)) ;
#1303=DIRECTION('Axis2P3D Direction',(0.,-1.,-0.)) ;
#1315=DIRECTION('Axis2P3D Direction',(0.,-1.,-0.)) ;
#1316=DIRECTION('Axis2P3D XDirection',(-4.037174635E-16,0.,-1.)) ;
#1320=DIRECTION('Vector Direction',(0.,-1.,0.)) ;
#1327=DIRECTION('Axis2P3D Direction',(0.,-1.,-0.)) ;
#1334=DIRECTION('Vector Direction',(0.,-1.,0.)) ;
#1346=DIRECTION('Axis2P3D Direction',(0.,-1.,-0.)) ;
#1358=DIRECTION('Axis2P3D Direction',(0.,-1.,-0.)) ;
#1359=DIRECTION('Axis2P3D XDirection',(0.,0.,-1.)) ;
#1363=DIRECTION('Vector Direction',(0.,-1.,0.)) ;
#1370=DIRECTION('Axis2P3D Direction',(0.,-1.,-0.)) ;
#1377=DIRECTION('Vector Direction',(0.,-1.,0.)) ;
#1389=DIRECTION('Axis2P3D Direction',(0.,-1.,-0.)) ;
#1401=DIRECTION('Axis2P3D Direction',(0.,-1.,-0.)) ;
#1402=DIRECTION('Axis2P3D XDirection',(0.,0.,-1.)) ;
#1406=DIRECTION('Vector Direction',(0.,-1.,0.)) ;
#1413=DIRECTION('Axis2P3D Direction',(0.,-1.,-0.)) ;
#1420=DIRECTION('Vector Direction',(0.,-1.,0.)) ;
#1432=DIRECTION('Axis2P3D Direction',(0.,-1.,-0.)) ;
#1444=DIRECTION('Axis2P3D Direction',(0.,-1.,-0.)) ;
#1445=DIRECTION('Axis2P3D XDirection',(0.,0.,-1.)) ;
#1449=DIRECTION('Vector Direction',(0.,-1.,0.)) ;
#1456=DIRECTION('Axis2P3D Direction',(0.,-1.,-0.)) ;
#1463=DIRECTION('Vector Direction',(0.,-1.,0.)) ;
#1475=DIRECTION('Axis2P3D Direction',(0.,-1.,-0.)) ;
#1487=DIRECTION('Axis2P3D Direction',(0.,-1.,-0.)) ;
#1488=DIRECTION('Axis2P3D XDirection',(0.,0.,-1.)) ;
#1492=DIRECTION('Vector Direction',(0.,-1.,0.)) ;
#1499=DIRECTION('Axis2P3D Direction',(0.,-1.,-0.)) ;
#1506=DIRECTION('Vector Direction',(0.,-1.,0.)) ;
#1518=DIRECTION('Axis2P3D Direction',(0.,-1.,-0.)) ;
#1530=DIRECTION('Axis2P3D Direction',(0.,-1.,-0.)) ;
#1531=DIRECTION('Axis2P3D XDirection',(0.,0.,-1.)) ;
#1535=DIRECTION('Vector Direction',(0.,-1.,0.)) ;
#1542=DIRECTION('Axis2P3D Direction',(0.,-1.,-0.)) ;
#1549=DIRECTION('Vector Direction',(0.,-1.,0.)) ;
#1561=DIRECTION('Axis2P3D Direction',(0.,-1.,-0.)) ;
#1573=DIRECTION('Axis2P3D Direction',(0.,-1.,-0.)) ;
#1574=DIRECTION('Axis2P3D XDirection',(0.,0.,-1.)) ;
#1578=DIRECTION('Axis2P3D Direction',(0.,-1.,-0.)) ;
#1587=DIRECTION('Vector Direction',(0.,-1.,0.)) ;
#1592=DIRECTION('Vector Direction',(0.,-1.,0.)) ;
#1604=DIRECTION('Axis2P3D Direction',(0.,-1.,-0.)) ;
#1616=DIRECTION('Axis2P3D Direction',(0.,1.,-0.)) ;
#1617=DIRECTION('Axis2P3D XDirection',(0.,0.,1.)) ;
#47=AXIS2_PLACEMENT_3D(' ',#46,$,$) ;
#54=AXIS2_PLACEMENT_3D('Plane Axis2P3D',#51,#52,#53) ;
#94=AXIS2_PLACEMENT_3D('Plane Axis2P3D',#91,#92,#93) ;
#134=AXIS2_PLACEMENT_3D('Plane Axis2P3D',#131,#132,#133) ;
#156=AXIS2_PLACEMENT_3D('Plane Axis2P3D',#153,#154,#155) ;
#181=AXIS2_PLACEMENT_3D('Plane Axis2P3D',#178,#179,#180) ;
#250=AXIS2_PLACEMENT_3D('Circle Axis2P3D',#248,#249,$) ;
#332=AXIS2_PLACEMENT_3D('Circle Axis2P3D',#330,#331,$) ;
#346=AXIS2_PLACEMENT_3D('Circle Axis2P3D',#344,#345,$) ;
#418=AXIS2_PLACEMENT_3D('Circle Axis2P3D',#416,#417,$) ;
#533=AXIS2_PLACEMENT_3D('Circle Axis2P3D',#531,#532,$) ;
#542=AXIS2_PLACEMENT_3D('Circle Axis2P3D',#540,#541,$) ;
#551=AXIS2_PLACEMENT_3D('Circle Axis2P3D',#549,#550,$) ;
#560=AXIS2_PLACEMENT_3D('Circle Axis2P3D',#558,#559,$) ;
#569=AXIS2_PLACEMENT_3D('Circle Axis2P3D',#567,#568,$) ;
#578=AXIS2_PLACEMENT_3D('Circle Axis2P3D',#576,#577,$) ;
#587=AXIS2_PLACEMENT_3D('Circle Axis2P3D',#585,#586,$) ;
#596=AXIS2_PLACEMENT_3D('Circle Axis2P3D',#594,#595,$) ;
#605=AXIS2_PLACEMENT_3D('Circle Axis2P3D',#603,#604,$) ;
#614=AXIS2_PLACEMENT_3D('Circle Axis2P3D',#612,#613,$) ;
#623=AXIS2_PLACEMENT_3D('Circle Axis2P3D',#621,#622,$) ;
#632=AXIS2_PLACEMENT_3D('Circle Axis2P3D',#630,#631,$) ;
#697=AXIS2_PLACEMENT_3D('Plane Axis2P3D',#694,#695,#696) ;
#715=AXIS2_PLACEMENT_3D('Plane Axis2P3D',#712,#713,#714) ;
#727=AXIS2_PLACEMENT_3D('Plane Axis2P3D',#724,#725,#726) ;
#758=AXIS2_PLACEMENT_3D('Cylinder Axis2P3D',#755,#756,#757) ;
#762=AXIS2_PLACEMENT_3D('Circle Axis2P3D',#760,#761,$) ;
#782=AXIS2_PLACEMENT_3D('Cylinder Axis2P3D',#779,#780,#781) ;
#786=AXIS2_PLACEMENT_3D('Circle Axis2P3D',#784,#785,$) ;
#806=AXIS2_PLACEMENT_3D('Plane Axis2P3D',#803,#804,#805) ;
#830=AXIS2_PLACEMENT_3D('Cylinder Axis2P3D',#827,#828,#829) ;
#834=AXIS2_PLACEMENT_3D('Circle Axis2P3D',#832,#833,$) ;
#854=AXIS2_PLACEMENT_3D('Plane Axis2P3D',#851,#852,#853) ;
#878=AXIS2_PLACEMENT_3D('Cylinder Axis2P3D',#875,#876,#877) ;
#889=AXIS2_PLACEMENT_3D('Circle Axis2P3D',#887,#888,$) ;
#902=AXIS2_PLACEMENT_3D('Cylinder Axis2P3D',#899,#900,#901) ;
#913=AXIS2_PLACEMENT_3D('Circle Axis2P3D',#911,#912,$) ;
#926=AXIS2_PLACEMENT_3D('Plane Axis2P3D',#923,#924,#925) ;
#950=AXIS2_PLACEMENT_3D('Cylinder Axis2P3D',#947,#948,#949) ;
#961=AXIS2_PLACEMENT_3D('Circle Axis2P3D',#959,#960,$) ;
#974=AXIS2_PLACEMENT_3D('Cylinder Axis2P3D',#971,#972,#973) ;
#985=AXIS2_PLACEMENT_3D('Circle Axis2P3D',#983,#984,$) ;
#1017=AXIS2_PLACEMENT_3D('Cylinder Axis2P3D',#1014,#1015,#1016) ;
#1021=AXIS2_PLACEMENT_3D('Circle Axis2P3D',#1019,#1020,$) ;
#1041=AXIS2_PLACEMENT_3D('Plane Axis2P3D',#1038,#1039,#1040) ;
#1065=AXIS2_PLACEMENT_3D('Cylinder Axis2P3D',#1062,#1063,#1064) ;
#1069=AXIS2_PLACEMENT_3D('Circle Axis2P3D',#1067,#1068,$) ;
#1089=AXIS2_PLACEMENT_3D('Plane Axis2P3D',#1086,#1087,#1088) ;
#1113=AXIS2_PLACEMENT_3D('Cylinder Axis2P3D',#1110,#1111,#1112) ;
#1117=AXIS2_PLACEMENT_3D('Circle Axis2P3D',#1115,#1116,$) ;
#1137=AXIS2_PLACEMENT_3D('Plane Axis2P3D',#1134,#1135,#1136) ;
#1161=AXIS2_PLACEMENT_3D('Cylinder Axis2P3D',#1158,#1159,#1160) ;
#1165=AXIS2_PLACEMENT_3D('Circle Axis2P3D',#1163,#1164,$) ;
#1185=AXIS2_PLACEMENT_3D('Plane Axis2P3D',#1182,#1183,#1184) ;
#1209=AXIS2_PLACEMENT_3D('Cylinder Axis2P3D',#1206,#1207,#1208) ;
#1220=AXIS2_PLACEMENT_3D('Circle Axis2P3D',#1218,#1219,$) ;
#1233=AXIS2_PLACEMENT_3D('Plane Axis2P3D',#1230,#1231,#1232) ;
#1257=AXIS2_PLACEMENT_3D('Cylinder Axis2P3D',#1254,#1255,#1256) ;
#1261=AXIS2_PLACEMENT_3D('Circle Axis2P3D',#1259,#1260,$) ;
#1274=AXIS2_PLACEMENT_3D('Cylinder Axis2P3D',#1271,#1272,#1273) ;
#1278=AXIS2_PLACEMENT_3D('Circle Axis2P3D',#1276,#1277,$) ;
#1304=AXIS2_PLACEMENT_3D('Circle Axis2P3D',#1302,#1303,$) ;
#1317=AXIS2_PLACEMENT_3D('Cylinder Axis2P3D',#1314,#1315,#1316) ;
#1328=AXIS2_PLACEMENT_3D('Circle Axis2P3D',#1326,#1327,$) ;
#1347=AXIS2_PLACEMENT_3D('Circle Axis2P3D',#1345,#1346,$) ;
#1360=AXIS2_PLACEMENT_3D('Cylinder Axis2P3D',#1357,#1358,#1359) ;
#1371=AXIS2_PLACEMENT_3D('Circle Axis2P3D',#1369,#1370,$) ;
#1390=AXIS2_PLACEMENT_3D('Circle Axis2P3D',#1388,#1389,$) ;
#1403=AXIS2_PLACEMENT_3D('Cylinder Axis2P3D',#1400,#1401,#1402) ;
#1414=AXIS2_PLACEMENT_3D('Circle Axis2P3D',#1412,#1413,$) ;
#1433=AXIS2_PLACEMENT_3D('Circle Axis2P3D',#1431,#1432,$) ;
#1446=AXIS2_PLACEMENT_3D('Cylinder Axis2P3D',#1443,#1444,#1445) ;
#1457=AXIS2_PLACEMENT_3D('Circle Axis2P3D',#1455,#1456,$) ;
#1476=AXIS2_PLACEMENT_3D('Circle Axis2P3D',#1474,#1475,$) ;
#1489=AXIS2_PLACEMENT_3D('Cylinder Axis2P3D',#1486,#1487,#1488) ;
#1500=AXIS2_PLACEMENT_3D('Circle Axis2P3D',#1498,#1499,$) ;
#1519=AXIS2_PLACEMENT_3D('Circle Axis2P3D',#1517,#1518,$) ;
#1532=AXIS2_PLACEMENT_3D('Cylinder Axis2P3D',#1529,#1530,#1531) ;
#1543=AXIS2_PLACEMENT_3D('Circle Axis2P3D',#1541,#1542,$) ;
#1562=AXIS2_PLACEMENT_3D('Circle Axis2P3D',#1560,#1561,$) ;
#1575=AXIS2_PLACEMENT_3D('Cylinder Axis2P3D',#1572,#1573,#1574) ;
#1579=AXIS2_PLACEMENT_3D('Circle Axis2P3D',#1577,#1578,$) ;
#1605=AXIS2_PLACEMENT_3D('Circle Axis2P3D',#1603,#1604,$) ;
#1618=AXIS2_PLACEMENT_3D('Plane Axis2P3D',#1615,#1616,#1617) ;
#40=PRODUCT_DEFINITION_SHAPE(' ',' ',#14) ;
#31=APPROVAL_PERSON_ORGANIZATION(#25,#21,#19) ;
#25=PERSON_AND_ORGANIZATION(#22,#23) ;
#22=PERSON(' ',' ',' ',$,$,$) ;
#23=ORGANIZATION(' ',' ',' ') ;
#21=APPROVAL(#20,' ') ;
#20=APPROVAL_STATUS('not_yet_approved') ;
#19=APPROVAL_ROLE('APPROVER') ;
#13=DATE_AND_TIME(#11,#12) ;
#12=LOCAL_TIME(18,20,57.,#10) ;
#10=COORDINATED_UNIVERSAL_TIME_OFFSET(0,0,.AHEAD.) ;
#85=ORIENTED_EDGE('',*,*,#64,.F.) ;
#86=ORIENTED_EDGE('',*,*,#71,.T.) ;
#87=ORIENTED_EDGE('',*,*,#78,.T.) ;
#88=ORIENTED_EDGE('',*,*,#83,.F.) ;
#125=ORIENTED_EDGE('',*,*,#104,.F.) ;
#126=ORIENTED_EDGE('',*,*,#111,.T.) ;
#127=ORIENTED_EDGE('',*,*,#118,.T.) ;
#128=ORIENTED_EDGE('',*,*,#123,.F.) ;
#147=ORIENTED_EDGE('',*,*,#140,.T.) ;
#148=ORIENTED_EDGE('',*,*,#123,.T.) ;
#149=ORIENTED_EDGE('',*,*,#145,.T.) ;
#150=ORIENTED_EDGE('',*,*,#64,.T.) ;
#171=ORIENTED_EDGE('',*,*,#145,.F.) ;
#172=ORIENTED_EDGE('',*,*,#118,.F.) ;
#173=ORIENTED_EDGE('',*,*,#164,.T.) ;
#174=ORIENTED_EDGE('',*,*,#169,.T.) ;
#175=ORIENTED_EDGE('',*,*,#71,.F.) ;
#429=ORIENTED_EDGE('',*,*,#197,.T.) ;
#430=ORIENTED_EDGE('',*,*,#204,.T.) ;
#431=ORIENTED_EDGE('',*,*,#217,.T.) ;
#432=ORIENTED_EDGE('',*,*,#224,.F.) ;
#433=ORIENTED_EDGE('',*,*,#240,.T.) ;
#434=ORIENTED_EDGE('',*,*,#247,.T.) ;
#435=ORIENTED_EDGE('',*,*,#254,.T.) ;
#436=ORIENTED_EDGE('',*,*,#261,.T.) ;
#437=ORIENTED_EDGE('',*,*,#280,.T.) ;
#438=ORIENTED_EDGE('',*,*,#287,.T.) ;
#439=ORIENTED_EDGE('',*,*,#306,.T.) ;
#440=ORIENTED_EDGE('',*,*,#313,.T.) ;
#441=ORIENTED_EDGE('',*,*,#329,.T.) ;
#442=ORIENTED_EDGE('',*,*,#336,.T.) ;
#443=ORIENTED_EDGE('',*,*,#343,.T.) ;
#444=ORIENTED_EDGE('',*,*,#350,.T.) ;
#445=ORIENTED_EDGE('',*,*,#366,.T.) ;
#446=ORIENTED_EDGE('',*,*,#373,.T.) ;
#447=ORIENTED_EDGE('',*,*,#392,.T.) ;
#448=ORIENTED_EDGE('',*,*,#399,.F.) ;
#449=ORIENTED_EDGE('',*,*,#415,.T.) ;
#450=ORIENTED_EDGE('',*,*,#422,.T.) ;
#451=ORIENTED_EDGE('',*,*,#427,.F.) ;
#466=ORIENTED_EDGE('',*,*,#459,.F.) ;
#467=ORIENTED_EDGE('',*,*,#464,.F.) ;
#468=ORIENTED_EDGE('',*,*,#164,.F.) ;
#469=ORIENTED_EDGE('',*,*,#111,.F.) ;
#528=ORIENTED_EDGE('',*,*,#500,.F.) ;
#529=ORIENTED_EDGE('',*,*,#526,.F.) ;
#546=ORIENTED_EDGE('',*,*,#539,.T.) ;
#547=ORIENTED_EDGE('',*,*,#544,.T.) ;
#564=ORIENTED_EDGE('',*,*,#557,.T.) ;
#565=ORIENTED_EDGE('',*,*,#562,.T.) ;
#582=ORIENTED_EDGE('',*,*,#575,.T.) ;
#583=ORIENTED_EDGE('',*,*,#580,.T.) ;
#600=ORIENTED_EDGE('',*,*,#593,.T.) ;
#601=ORIENTED_EDGE('',*,*,#598,.T.) ;
#618=ORIENTED_EDGE('',*,*,#611,.T.) ;
#619=ORIENTED_EDGE('',*,*,#616,.T.) ;
#636=ORIENTED_EDGE('',*,*,#629,.T.) ;
#637=ORIENTED_EDGE('',*,*,#634,.T.) ;
#690=ORIENTED_EDGE('',*,*,#665,.F.) ;
#691=ORIENTED_EDGE('',*,*,#688,.F.) ;
#705=ORIENTED_EDGE('',*,*,#703,.F.) ;
#706=ORIENTED_EDGE('',*,*,#459,.T.) ;
#707=ORIENTED_EDGE('',*,*,#104,.T.) ;
#708=ORIENTED_EDGE('',*,*,#140,.F.) ;
#709=ORIENTED_EDGE('',*,*,#83,.T.) ;
#718=ORIENTED_EDGE('',*,*,#78,.F.) ;
#719=ORIENTED_EDGE('',*,*,#169,.F.) ;
#720=ORIENTED_EDGE('',*,*,#464,.T.) ;
#721=ORIENTED_EDGE('',*,*,#703,.T.) ;
#749=ORIENTED_EDGE('',*,*,#427,.T.) ;
#750=ORIENTED_EDGE('',*,*,#735,.T.) ;
#751=ORIENTED_EDGE('',*,*,#742,.F.) ;
#752=ORIENTED_EDGE('',*,*,#747,.T.) ;
#773=ORIENTED_EDGE('',*,*,#766,.F.) ;
#774=ORIENTED_EDGE('',*,*,#735,.F.) ;
#775=ORIENTED_EDGE('',*,*,#422,.F.) ;
#776=ORIENTED_EDGE('',*,*,#771,.F.) ;
#797=ORIENTED_EDGE('',*,*,#790,.F.) ;
#798=ORIENTED_EDGE('',*,*,#771,.T.) ;
#799=ORIENTED_EDGE('',*,*,#415,.F.) ;
#800=ORIENTED_EDGE('',*,*,#795,.F.) ;
#821=ORIENTED_EDGE('',*,*,#399,.T.) ;
#822=ORIENTED_EDGE('',*,*,#814,.T.) ;
#823=ORIENTED_EDGE('',*,*,#819,.F.) ;
#824=ORIENTED_EDGE('',*,*,#795,.T.) ;
#845=ORIENTED_EDGE('',*,*,#838,.F.) ;
#846=ORIENTED_EDGE('',*,*,#814,.F.) ;
#847=ORIENTED_EDGE('',*,*,#392,.F.) ;
#848=ORIENTED_EDGE('',*,*,#843,.F.) ;
#869=ORIENTED_EDGE('',*,*,#862,.T.) ;
#870=ORIENTED_EDGE('',*,*,#843,.T.) ;
#871=ORIENTED_EDGE('',*,*,#373,.F.) ;
#872=ORIENTED_EDGE('',*,*,#867,.T.) ;
#893=ORIENTED_EDGE('',*,*,#366,.F.) ;
#894=ORIENTED_EDGE('',*,*,#886,.T.) ;
#895=ORIENTED_EDGE('',*,*,#891,.F.) ;
#896=ORIENTED_EDGE('',*,*,#867,.F.) ;
#917=ORIENTED_EDGE('',*,*,#886,.F.) ;
#918=ORIENTED_EDGE('',*,*,#350,.F.) ;
#919=ORIENTED_EDGE('',*,*,#910,.F.) ;
#920=ORIENTED_EDGE('',*,*,#915,.F.) ;
#941=ORIENTED_EDGE('',*,*,#934,.T.) ;
#942=ORIENTED_EDGE('',*,*,#910,.T.) ;
#943=ORIENTED_EDGE('',*,*,#343,.F.) ;
#944=ORIENTED_EDGE('',*,*,#939,.T.) ;
#965=ORIENTED_EDGE('',*,*,#336,.F.) ;
#966=ORIENTED_EDGE('',*,*,#958,.T.) ;
#967=ORIENTED_EDGE('',*,*,#963,.F.) ;
#968=ORIENTED_EDGE('',*,*,#939,.F.) ;
#989=ORIENTED_EDGE('',*,*,#958,.F.) ;
#990=ORIENTED_EDGE('',*,*,#329,.F.) ;
#991=ORIENTED_EDGE('',*,*,#982,.F.) ;
#992=ORIENTED_EDGE('',*,*,#987,.F.) ;
#1008=ORIENTED_EDGE('',*,*,#313,.F.) ;
#1009=ORIENTED_EDGE('',*,*,#1001,.T.) ;
#1010=ORIENTED_EDGE('',*,*,#1006,.T.) ;
#1011=ORIENTED_EDGE('',*,*,#982,.T.) ;
#1032=ORIENTED_EDGE('',*,*,#1025,.F.) ;
#1033=ORIENTED_EDGE('',*,*,#1001,.F.) ;
#1034=ORIENTED_EDGE('',*,*,#306,.F.) ;
#1035=ORIENTED_EDGE('',*,*,#1030,.F.) ;
#1056=ORIENTED_EDGE('',*,*,#1049,.T.) ;
#1057=ORIENTED_EDGE('',*,*,#1030,.T.) ;
#1058=ORIENTED_EDGE('',*,*,#287,.F.) ;
#1059=ORIENTED_EDGE('',*,*,#1054,.T.) ;
#1080=ORIENTED_EDGE('',*,*,#1073,.F.) ;
#1081=ORIENTED_EDGE('',*,*,#1054,.F.) ;
#1082=ORIENTED_EDGE('',*,*,#280,.F.) ;
#1083=ORIENTED_EDGE('',*,*,#1078,.F.) ;
#1104=ORIENTED_EDGE('',*,*,#261,.F.) ;
#1105=ORIENTED_EDGE('',*,*,#1097,.T.) ;
#1106=ORIENTED_EDGE('',*,*,#1102,.T.) ;
#1107=ORIENTED_EDGE('',*,*,#1078,.T.) ;
#1128=ORIENTED_EDGE('',*,*,#1121,.F.) ;
#1129=ORIENTED_EDGE('',*,*,#1097,.F.) ;
#1130=ORIENTED_EDGE('',*,*,#254,.F.) ;
#1131=ORIENTED_EDGE('',*,*,#1126,.F.) ;
#1152=ORIENTED_EDGE('',*,*,#1145,.T.) ;
#1153=ORIENTED_EDGE('',*,*,#1126,.T.) ;
#1154=ORIENTED_EDGE('',*,*,#247,.F.) ;
#1155=ORIENTED_EDGE('',*,*,#1150,.T.) ;
#1176=ORIENTED_EDGE('',*,*,#1169,.F.) ;
#1177=ORIENTED_EDGE('',*,*,#1150,.F.) ;
#1178=ORIENTED_EDGE('',*,*,#240,.F.) ;
#1179=ORIENTED_EDGE('',*,*,#1174,.F.) ;
#1200=ORIENTED_EDGE('',*,*,#224,.T.) ;
#1201=ORIENTED_EDGE('',*,*,#1193,.T.) ;
#1202=ORIENTED_EDGE('',*,*,#1198,.F.) ;
#1203=ORIENTED_EDGE('',*,*,#1174,.T.) ;
#1224=ORIENTED_EDGE('',*,*,#217,.F.) ;
#1225=ORIENTED_EDGE('',*,*,#1217,.F.) ;
#1226=ORIENTED_EDGE('',*,*,#1222,.F.) ;
#1227=ORIENTED_EDGE('',*,*,#1193,.F.) ;
#1248=ORIENTED_EDGE('',*,*,#204,.F.) ;
#1249=ORIENTED_EDGE('',*,*,#1241,.T.) ;
#1250=ORIENTED_EDGE('',*,*,#1246,.F.) ;
#1251=ORIENTED_EDGE('',*,*,#1217,.T.) ;
#1265=ORIENTED_EDGE('',*,*,#1263,.F.) ;
#1266=ORIENTED_EDGE('',*,*,#1241,.F.) ;
#1267=ORIENTED_EDGE('',*,*,#197,.F.) ;
#1268=ORIENTED_EDGE('',*,*,#747,.F.) ;
#1296=ORIENTED_EDGE('',*,*,#1284,.F.) ;
#1297=ORIENTED_EDGE('',*,*,#1289,.T.) ;
#1298=ORIENTED_EDGE('',*,*,#526,.T.) ;
#1299=ORIENTED_EDGE('',*,*,#1294,.F.) ;
#1308=ORIENTED_EDGE('',*,*,#1289,.F.) ;
#1309=ORIENTED_EDGE('',*,*,#1306,.F.) ;
#1310=ORIENTED_EDGE('',*,*,#1294,.T.) ;
#1311=ORIENTED_EDGE('',*,*,#500,.T.) ;
#1339=ORIENTED_EDGE('',*,*,#1325,.F.) ;
#1340=ORIENTED_EDGE('',*,*,#1332,.T.) ;
#1341=ORIENTED_EDGE('',*,*,#1337,.T.) ;
#1342=ORIENTED_EDGE('',*,*,#544,.F.) ;
#1351=ORIENTED_EDGE('',*,*,#1349,.T.) ;
#1352=ORIENTED_EDGE('',*,*,#1325,.T.) ;
#1353=ORIENTED_EDGE('',*,*,#539,.F.) ;
#1354=ORIENTED_EDGE('',*,*,#1337,.F.) ;
#1382=ORIENTED_EDGE('',*,*,#1368,.F.) ;
#1383=ORIENTED_EDGE('',*,*,#1375,.T.) ;
#1384=ORIENTED_EDGE('',*,*,#1380,.T.) ;
#1385=ORIENTED_EDGE('',*,*,#562,.F.) ;
#1394=ORIENTED_EDGE('',*,*,#1392,.T.) ;
#1395=ORIENTED_EDGE('',*,*,#1368,.T.) ;
#1396=ORIENTED_EDGE('',*,*,#557,.F.) ;
#1397=ORIENTED_EDGE('',*,*,#1380,.F.) ;
#1425=ORIENTED_EDGE('',*,*,#1411,.F.) ;
#1426=ORIENTED_EDGE('',*,*,#1418,.T.) ;
#1427=ORIENTED_EDGE('',*,*,#1423,.T.) ;
#1428=ORIENTED_EDGE('',*,*,#580,.F.) ;
#1437=ORIENTED_EDGE('',*,*,#1435,.T.) ;
#1438=ORIENTED_EDGE('',*,*,#1411,.T.) ;
#1439=ORIENTED_EDGE('',*,*,#575,.F.) ;
#1440=ORIENTED_EDGE('',*,*,#1423,.F.) ;
#1468=ORIENTED_EDGE('',*,*,#1454,.F.) ;
#1469=ORIENTED_EDGE('',*,*,#1461,.T.) ;
#1470=ORIENTED_EDGE('',*,*,#1466,.T.) ;
#1471=ORIENTED_EDGE('',*,*,#598,.F.) ;
#1480=ORIENTED_EDGE('',*,*,#1478,.T.) ;
#1481=ORIENTED_EDGE('',*,*,#1454,.T.) ;
#1482=ORIENTED_EDGE('',*,*,#593,.F.) ;
#1483=ORIENTED_EDGE('',*,*,#1466,.F.) ;
#1511=ORIENTED_EDGE('',*,*,#1497,.F.) ;
#1512=ORIENTED_EDGE('',*,*,#1504,.T.) ;
#1513=ORIENTED_EDGE('',*,*,#1509,.T.) ;
#1514=ORIENTED_EDGE('',*,*,#616,.F.) ;
#1523=ORIENTED_EDGE('',*,*,#1521,.T.) ;
#1524=ORIENTED_EDGE('',*,*,#1497,.T.) ;
#1525=ORIENTED_EDGE('',*,*,#611,.F.) ;
#1526=ORIENTED_EDGE('',*,*,#1509,.F.) ;
#1554=ORIENTED_EDGE('',*,*,#1540,.F.) ;
#1555=ORIENTED_EDGE('',*,*,#1547,.T.) ;
#1556=ORIENTED_EDGE('',*,*,#1552,.T.) ;
#1557=ORIENTED_EDGE('',*,*,#634,.F.) ;
#1566=ORIENTED_EDGE('',*,*,#1564,.T.) ;
#1567=ORIENTED_EDGE('',*,*,#1540,.T.) ;
#1568=ORIENTED_EDGE('',*,*,#629,.F.) ;
#1569=ORIENTED_EDGE('',*,*,#1552,.F.) ;
#1597=ORIENTED_EDGE('',*,*,#1585,.F.) ;
#1598=ORIENTED_EDGE('',*,*,#1590,.T.) ;
#1599=ORIENTED_EDGE('',*,*,#688,.T.) ;
#1600=ORIENTED_EDGE('',*,*,#1595,.F.) ;
#1609=ORIENTED_EDGE('',*,*,#1590,.F.) ;
#1610=ORIENTED_EDGE('',*,*,#1607,.F.) ;
#1611=ORIENTED_EDGE('',*,*,#1595,.T.) ;
#1612=ORIENTED_EDGE('',*,*,#665,.T.) ;
#1621=ORIENTED_EDGE('',*,*,#1246,.T.) ;
#1622=ORIENTED_EDGE('',*,*,#1263,.T.) ;
#1623=ORIENTED_EDGE('',*,*,#742,.T.) ;
#1624=ORIENTED_EDGE('',*,*,#766,.T.) ;
#1625=ORIENTED_EDGE('',*,*,#790,.T.) ;
#1626=ORIENTED_EDGE('',*,*,#819,.T.) ;
#1627=ORIENTED_EDGE('',*,*,#838,.T.) ;
#1628=ORIENTED_EDGE('',*,*,#862,.F.) ;
#1629=ORIENTED_EDGE('',*,*,#891,.T.) ;
#1630=ORIENTED_EDGE('',*,*,#915,.T.) ;
#1631=ORIENTED_EDGE('',*,*,#934,.F.) ;
#1632=ORIENTED_EDGE('',*,*,#963,.T.) ;
#1633=ORIENTED_EDGE('',*,*,#987,.T.) ;
#1634=ORIENTED_EDGE('',*,*,#1006,.F.) ;
#1635=ORIENTED_EDGE('',*,*,#1025,.T.) ;
#1636=ORIENTED_EDGE('',*,*,#1049,.F.) ;
#1637=ORIENTED_EDGE('',*,*,#1073,.T.) ;
#1638=ORIENTED_EDGE('',*,*,#1102,.F.) ;
#1639=ORIENTED_EDGE('',*,*,#1121,.T.) ;
#1640=ORIENTED_EDGE('',*,*,#1145,.F.) ;
#1641=ORIENTED_EDGE('',*,*,#1169,.T.) ;
#1642=ORIENTED_EDGE('',*,*,#1198,.T.) ;
#1643=ORIENTED_EDGE('',*,*,#1222,.T.) ;
#1646=ORIENTED_EDGE('',*,*,#1284,.T.) ;
#1647=ORIENTED_EDGE('',*,*,#1306,.T.) ;
#1650=ORIENTED_EDGE('',*,*,#1478,.F.) ;
#1651=ORIENTED_EDGE('',*,*,#1461,.F.) ;
#1654=ORIENTED_EDGE('',*,*,#1435,.F.) ;
#1655=ORIENTED_EDGE('',*,*,#1418,.F.) ;
#1658=ORIENTED_EDGE('',*,*,#1392,.F.) ;
#1659=ORIENTED_EDGE('',*,*,#1375,.F.) ;
#1662=ORIENTED_EDGE('',*,*,#1349,.F.) ;
#1663=ORIENTED_EDGE('',*,*,#1332,.F.) ;
#1666=ORIENTED_EDGE('',*,*,#1607,.T.) ;
#1667=ORIENTED_EDGE('',*,*,#1585,.T.) ;
#1670=ORIENTED_EDGE('',*,*,#1564,.F.) ;
#1671=ORIENTED_EDGE('',*,*,#1547,.F.) ;
#1674=ORIENTED_EDGE('',*,*,#1521,.F.) ;
#1675=ORIENTED_EDGE('',*,*,#1504,.F.) ;
#470=FACE_BOUND('',#465,.T.) ;
#530=FACE_BOUND('',#527,.T.) ;
#548=FACE_BOUND('',#545,.T.) ;
#566=FACE_BOUND('',#563,.T.) ;
#584=FACE_BOUND('',#581,.T.) ;
#602=FACE_BOUND('',#599,.T.) ;
#620=FACE_BOUND('',#617,.T.) ;
#638=FACE_BOUND('',#635,.T.) ;
#692=FACE_BOUND('',#689,.T.) ;
#1648=FACE_BOUND('',#1645,.T.) ;
#1652=FACE_BOUND('',#1649,.T.) ;
#1656=FACE_BOUND('',#1653,.T.) ;
#1660=FACE_BOUND('',#1657,.T.) ;
#1664=FACE_BOUND('',#1661,.T.) ;
#1668=FACE_BOUND('',#1665,.T.) ;
#1672=FACE_BOUND('',#1669,.T.) ;
#1676=FACE_BOUND('',#1673,.T.) ;
#50=CLOSED_SHELL('Closed Shell',(#90,#130,#152,#177,#693,#711,#723,#754,#778,#802,#826,#850,#874,#898,#922,#946,#970,#994,#1013,#1037,#1061,#1085,#1109,#1133,#1157,#1181,#1205,#1229,#1253,#1270,#1301,#1313,#1344,#1356,#1387,#1399,#1430,#1442,#1473,#1485,#1516,#1528,#1559,#1571,#1602,#1614,#1677)) ;
#58=VECTOR('Line Direction',#57,1.) ;
#67=VECTOR('Line Direction',#66,1.) ;
#74=VECTOR('Line Direction',#73,1.) ;
#81=VECTOR('Line Direction',#80,1.) ;
#98=VECTOR('Line Direction',#97,1.) ;
#107=VECTOR('Line Direction',#106,1.) ;
#114=VECTOR('Line Direction',#113,1.) ;
#121=VECTOR('Line Direction',#120,1.) ;
#138=VECTOR('Line Direction',#137,1.) ;
#143=VECTOR('Line Direction',#142,1.) ;
#160=VECTOR('Line Direction',#159,1.) ;
#167=VECTOR('Line Direction',#166,1.) ;
#200=VECTOR('Line Direction',#199,1.) ;
#220=VECTOR('Line Direction',#219,1.) ;
#243=VECTOR('Line Direction',#242,1.) ;
#257=VECTOR('Line Direction',#256,1.) ;
#283=VECTOR('Line Direction',#282,1.) ;
#309=VECTOR('Line Direction',#308,1.) ;
#339=VECTOR('Line Direction',#338,1.) ;
#369=VECTOR('Line Direction',#368,1.) ;
#395=VECTOR('Line Direction',#394,1.) ;
#425=VECTOR('Line Direction',#424,1.) ;
#455=VECTOR('Line Direction',#454,1.) ;
#462=VECTOR('Line Direction',#461,1.) ;
#701=VECTOR('Line Direction',#700,1.) ;
#731=VECTOR('Line Direction',#730,1.) ;
#738=VECTOR('Line Direction',#737,1.) ;
#745=VECTOR('Line Direction',#744,1.) ;
#769=VECTOR('Line Direction',#768,1.) ;
#793=VECTOR('Line Direction',#792,1.) ;
#810=VECTOR('Line Direction',#809,1.) ;
#817=VECTOR('Line Direction',#816,1.) ;
#841=VECTOR('Line Direction',#840,1.) ;
#858=VECTOR('Line Direction',#857,1.) ;
#865=VECTOR('Line Direction',#864,1.) ;
#882=VECTOR('Line Direction',#881,1.) ;
#906=VECTOR('Line Direction',#905,1.) ;
#930=VECTOR('Line Direction',#929,1.) ;
#937=VECTOR('Line Direction',#936,1.) ;
#954=VECTOR('Line Direction',#953,1.) ;
#978=VECTOR('Line Direction',#977,1.) ;
#997=VECTOR('Line Direction',#996,1.) ;
#1004=VECTOR('Line Direction',#1003,1.) ;
#1028=VECTOR('Line Direction',#1027,1.) ;
#1045=VECTOR('Line Direction',#1044,1.) ;
#1052=VECTOR('Line Direction',#1051,1.) ;
#1076=VECTOR('Line Direction',#1075,1.) ;
#1093=VECTOR('Line Direction',#1092,1.) ;
#1100=VECTOR('Line Direction',#1099,1.) ;
#1124=VECTOR('Line Direction',#1123,1.) ;
#1141=VECTOR('Line Direction',#1140,1.) ;
#1148=VECTOR('Line Direction',#1147,1.) ;
#1172=VECTOR('Line Direction',#1171,1.) ;
#1189=VECTOR('Line Direction',#1188,1.) ;
#1196=VECTOR('Line Direction',#1195,1.) ;
#1213=VECTOR('Line Direction',#1212,1.) ;
#1237=VECTOR('Line Direction',#1236,1.) ;
#1244=VECTOR('Line Direction',#1243,1.) ;
#1287=VECTOR('Line Direction',#1286,1.) ;
#1292=VECTOR('Line Direction',#1291,1.) ;
#1321=VECTOR('Line Direction',#1320,1.) ;
#1335=VECTOR('Line Direction',#1334,1.) ;
#1364=VECTOR('Line Direction',#1363,1.) ;
#1378=VECTOR('Line Direction',#1377,1.) ;
#1407=VECTOR('Line Direction',#1406,1.) ;
#1421=VECTOR('Line Direction',#1420,1.) ;
#1450=VECTOR('Line Direction',#1449,1.) ;
#1464=VECTOR('Line Direction',#1463,1.) ;
#1493=VECTOR('Line Direction',#1492,1.) ;
#1507=VECTOR('Line Direction',#1506,1.) ;
#1536=VECTOR('Line Direction',#1535,1.) ;
#1550=VECTOR('Line Direction',#1549,1.) ;
#1588=VECTOR('Line Direction',#1587,1.) ;
#1593=VECTOR('Line Direction',#1592,1.) ;
#1679=ADVANCED_BREP_SHAPE_REPRESENTATION('NONE',(#1678),#45) ;
#48=SHAPE_REPRESENTATION(' ',(#47),#45) ;
#90=ADVANCED_FACE('\X2\570689D2\X0\14',(#89),#55,.T.) ;
#130=ADVANCED_FACE('\X2\570689D2\X0\14',(#129),#95,.F.) ;
#152=ADVANCED_FACE('\X2\570689D2\X0\14',(#151),#135,.T.) ;
#177=ADVANCED_FACE('\X2\570689D2\X0\14',(#176),#157,.T.) ;
#693=ADVANCED_FACE('\X2\570689D2\X0\14',(#452,#470,#530,#548,#566,#584,#602,#620,#638,#692),#182,.F.) ;
#711=ADVANCED_FACE('\X2\570689D2\X0\14',(#710),#698,.T.) ;
#723=ADVANCED_FACE('\X2\570689D2\X0\14',(#722),#716,.F.) ;
#754=ADVANCED_FACE('\X2\570689D2\X0\14',(#753),#728,.F.) ;
#778=ADVANCED_FACE('\X2\570689D2\X0\14',(#777),#759,.F.) ;
#802=ADVANCED_FACE('\X2\570689D2\X0\14',(#801),#783,.T.) ;
#826=ADVANCED_FACE('\X2\570689D2\X0\14',(#825),#807,.F.) ;
#850=ADVANCED_FACE('\X2\570689D2\X0\14',(#849),#831,.T.) ;
#874=ADVANCED_FACE('\X2\570689D2\X0\14',(#873),#855,.T.) ;
#898=ADVANCED_FACE('\X2\570689D2\X0\14',(#897),#879,.T.) ;
#922=ADVANCED_FACE('\X2\570689D2\X0\14',(#921),#903,.F.) ;
#946=ADVANCED_FACE('\X2\570689D2\X0\14',(#945),#927,.F.) ;
#970=ADVANCED_FACE('\X2\570689D2\X0\14',(#969),#951,.F.) ;
#994=ADVANCED_FACE('\X2\570689D2\X0\14',(#993),#975,.T.) ;
#1013=ADVANCED_FACE('\X2\570689D2\X0\14',(#1012),#855,.T.) ;
#1037=ADVANCED_FACE('\X2\570689D2\X0\14',(#1036),#1018,.T.) ;
#1061=ADVANCED_FACE('\X2\570689D2\X0\14',(#1060),#1042,.T.) ;
#1085=ADVANCED_FACE('\X2\570689D2\X0\14',(#1084),#1066,.T.) ;
#1109=ADVANCED_FACE('\X2\570689D2\X0\14',(#1108),#1090,.T.) ;
#1133=ADVANCED_FACE('\X2\570689D2\X0\14',(#1132),#1114,.F.) ;
#1157=ADVANCED_FACE('\X2\570689D2\X0\14',(#1156),#1138,.T.) ;
#1181=ADVANCED_FACE('\X2\570689D2\X0\14',(#1180),#1162,.T.) ;
#1205=ADVANCED_FACE('\X2\570689D2\X0\14',(#1204),#1186,.F.) ;
#1229=ADVANCED_FACE('\X2\570689D2\X0\14',(#1228),#1210,.T.) ;
#1253=ADVANCED_FACE('\X2\570689D2\X0\14',(#1252),#1234,.F.) ;
#1270=ADVANCED_FACE('\X2\570689D2\X0\14',(#1269),#1258,.T.) ;
#1301=ADVANCED_FACE('\X2\570689D2\X0\14',(#1300),#1275,.F.) ;
#1313=ADVANCED_FACE('\X2\570689D2\X0\14',(#1312),#1275,.F.) ;
#1344=ADVANCED_FACE('\X2\570689D2\X0\14',(#1343),#1318,.F.) ;
#1356=ADVANCED_FACE('\X2\570689D2\X0\14',(#1355),#1318,.F.) ;
#1387=ADVANCED_FACE('\X2\570689D2\X0\14',(#1386),#1361,.F.) ;
#1399=ADVANCED_FACE('\X2\570689D2\X0\14',(#1398),#1361,.F.) ;
#1430=ADVANCED_FACE('\X2\570689D2\X0\14',(#1429),#1404,.F.) ;
#1442=ADVANCED_FACE('\X2\570689D2\X0\14',(#1441),#1404,.F.) ;
#1473=ADVANCED_FACE('\X2\570689D2\X0\14',(#1472),#1447,.F.) ;
#1485=ADVANCED_FACE('\X2\570689D2\X0\14',(#1484),#1447,.F.) ;
#1516=ADVANCED_FACE('\X2\570689D2\X0\14',(#1515),#1490,.F.) ;
#1528=ADVANCED_FACE('\X2\570689D2\X0\14',(#1527),#1490,.F.) ;
#1559=ADVANCED_FACE('\X2\570689D2\X0\14',(#1558),#1533,.F.) ;
#1571=ADVANCED_FACE('\X2\570689D2\X0\14',(#1570),#1533,.F.) ;
#1602=ADVANCED_FACE('\X2\570689D2\X0\14',(#1601),#1576,.F.) ;
#1614=ADVANCED_FACE('\X2\570689D2\X0\14',(#1613),#1576,.F.) ;
#1677=ADVANCED_FACE('\X2\570689D2\X0\14',(#1644,#1648,#1652,#1656,#1660,#1664,#1668,#1672,#1676),#1619,.T.) ;
#4=APPLICATION_PROTOCOL_DEFINITION('international standard','config_control_design',1994,#1) ;
#32=APPROVAL_DATE_TIME(#13,#21) ;
#183=B_SPLINE_CURVE_WITH_KNOTS('',5,(#184,#185,#186,#187,#188,#189,#190,#191,#192),.UNSPECIFIED.,.F.,.U.,(6,3,6),(0.,2.39995622472,3.33118198906),.UNSPECIFIED.) ;
#205=B_SPLINE_CURVE_WITH_KNOTS('',5,(#206,#207,#208,#209,#210,#211,#212,#213,#214),.UNSPECIFIED.,.F.,.U.,(6,3,6),(0.,2.39995623871,3.33118200171),.UNSPECIFIED.) ;
#225=B_SPLINE_CURVE_WITH_KNOTS('',5,(#226,#227,#228,#229,#230,#231,#232,#233,#234,#235,#236,#237),.UNSPECIFIED.,.F.,.U.,(6,3,3,6),(0.,2.39995622416,4.79991244682,6.6642238491),.UNSPECIFIED.) ;
#262=B_SPLINE_CURVE_WITH_KNOTS('',5,(#263,#264,#265,#266,#267,#268,#269,#270,#271,#272,#273,#274,#275,#276,#277),.UNSPECIFIED.,.F.,.U.,(6,3,3,3,6),(0.,1.46967440815,2.9393488225,4.40902320842,4.44282450953),.UNSPECIFIED.) ;
#288=B_SPLINE_CURVE_WITH_KNOTS('',5,(#289,#290,#291,#292,#293,#294,#295,#296,#297,#298,#299,#300,#301,#302,#303),.UNSPECIFIED.,.F.,.U.,(6,3,3,3,6),(0.,1.46967440816,2.93934882258,4.40902320855,4.44282450966),.UNSPECIFIED.) ;
#314=B_SPLINE_CURVE_WITH_KNOTS('',5,(#315,#316,#317,#318,#319,#320,#321,#322,#323,#324,#325,#326),.UNSPECIFIED.,.F.,.U.,(6,3,3,6),(0.,2.39995622454,4.79991244716,6.66422384942),.UNSPECIFIED.) ;
#351=B_SPLINE_CURVE_WITH_KNOTS('',5,(#352,#353,#354,#355,#356,#357,#358,#359,#360,#361,#362,#363),.UNSPECIFIED.,.F.,.U.,(6,3,3,6),(0.,2.39995622445,4.79991244717,6.66422384942),.UNSPECIFIED.) ;
#374=B_SPLINE_CURVE_WITH_KNOTS('',5,(#375,#376,#377,#378,#379,#380,#381,#382,#383,#384,#385,#386,#387,#388,#389),.UNSPECIFIED.,.F.,.U.,(6,3,3,3,6),(0.,1.46967440827,2.93934882261,4.40902320853,4.44282450964),.UNSPECIFIED.) ;
#400=B_SPLINE_CURVE_WITH_KNOTS('',5,(#401,#402,#403,#404,#405,#406,#407,#408,#409,#410,#411,#412),.UNSPECIFIED.,.F.,.U.,(6,3,3,6),(0.,1.46967440822,2.93934882256,3.96922595122),.UNSPECIFIED.) ;
#471=B_SPLINE_CURVE_WITH_KNOTS('',5,(#472,#473,#474,#475,#476,#477,#478,#479,#480,#481,#482,#483,#484,#485,#486,#487,#488,#489,#490,#491,#492,#493,#494,#495),.UNSPECIFIED.,.F.,.U.,(6,3,3,3,3,3,3,6),(0.,0.726629703505,1.4532594055,2.17988913225,2.90651884699,3.6331485545,4.35977825321,4.88587373872),.UNSPECIFIED.) ;
#501=B_SPLINE_CURVE_WITH_KNOTS('',5,(#502,#503,#504,#505,#506,#507,#508,#509,#510,#511,#512,#513,#514,#515,#516,#517,#518,#519,#520,#521,#522,#523,#524,#525),.UNSPECIFIED.,.F.,.U.,(6,3,3,3,3,3,3,6),(0.,0.726629707646,1.45325940201,2.1798891178,2.90651882065,3.63314851793,4.35977822634,4.88587371186),.UNSPECIFIED.) ;
#639=B_SPLINE_CURVE_WITH_KNOTS('',5,(#640,#641,#642,#643,#644,#645,#646,#647,#648,#649,#650,#651,#652,#653,#654,#655,#656,#657,#658,#659,#660),.UNSPECIFIED.,.F.,.U.,(6,3,3,3,3,3,6),(0.,1.27276333633,2.54552668005,3.8182899993,5.09105330295,6.36381661722,6.66405459643),.UNSPECIFIED.) ;
#666=B_SPLINE_CURVE_WITH_KNOTS('',5,(#667,#668,#669,#670,#671,#672,#673,#674,#675,#676,#677,#678,#679,#680,#681,#682,#683,#684,#685,#686,#687),.UNSPECIFIED.,.F.,.U.,(6,3,3,3,3,3,6),(0.,1.27276333648,2.54552668021,3.81828999948,5.09105330315,6.36381661742,6.66405459664),.UNSPECIFIED.) ;
#1678=MANIFOLD_SOLID_BREP('\X2\570689D2\X0\14',#50) ;
#11=CALENDAR_DATE(2026,29,6) ;
#30=CC_DESIGN_APPROVAL(#21,(#16,#6,#14)) ;
#18=CC_DESIGN_DATE_AND_TIME_ASSIGNMENT(#13,#17,(#16)) ;
#29=CC_DESIGN_DATE_AND_TIME_ASSIGNMENT(#13,#28,(#14)) ;
#17=DATE_TIME_ROLE('classification_date') ;
#28=DATE_TIME_ROLE('creation_date') ;
#27=CC_DESIGN_PERSON_AND_ORGANIZATION_ASSIGNMENT(#25,#26,(#16)) ;
#33=CC_DESIGN_PERSON_AND_ORGANIZATION_ASSIGNMENT(#25,#34,(#6)) ;
#35=CC_DESIGN_PERSON_AND_ORGANIZATION_ASSIGNMENT(#25,#36,(#6,#14)) ;
#37=CC_DESIGN_PERSON_AND_ORGANIZATION_ASSIGNMENT(#25,#38,(#5)) ;
#26=PERSON_AND_ORGANIZATION_ROLE('classification_officer') ;
#34=PERSON_AND_ORGANIZATION_ROLE('design_supplier') ;
#36=PERSON_AND_ORGANIZATION_ROLE('creator') ;
#38=PERSON_AND_ORGANIZATION_ROLE('design_owner') ;
#39=CC_DESIGN_SECURITY_CLASSIFICATION(#16,(#6)) ;
#251=CIRCLE('generated circle',#250,9.99999999981) ;
#333=CIRCLE('generated circle',#332,3.00000000312) ;
#347=CIRCLE('generated circle',#346,3.00000000312) ;
#419=CIRCLE('generated circle',#418,10.0000000017) ;
#534=CIRCLE('generated circle',#533,1.09999999963) ;
#543=CIRCLE('generated circle',#542,1.09999999963) ;
#552=CIRCLE('generated circle',#551,1.5) ;
#561=CIRCLE('generated circle',#560,1.5) ;
#570=CIRCLE('generated circle',#569,1.5) ;
#579=CIRCLE('generated circle',#578,1.5) ;
#588=CIRCLE('generated circle',#587,8.) ;
#597=CIRCLE('generated circle',#596,8.) ;
#606=CIRCLE('generated circle',#605,1.09999999963) ;
#615=CIRCLE('generated circle',#614,1.09999999963) ;
#624=CIRCLE('generated circle',#623,1.5) ;
#633=CIRCLE('generated circle',#632,1.5) ;
#763=CIRCLE('generated circle',#762,10.) ;
#787=CIRCLE('generated circle',#786,2.) ;
#835=CIRCLE('generated circle',#834,2.) ;
#890=CIRCLE('generated circle',#889,3.) ;
#914=CIRCLE('generated circle',#913,3.) ;
#962=CIRCLE('generated circle',#961,3.) ;
#986=CIRCLE('generated circle',#985,3.) ;
#1022=CIRCLE('generated circle',#1021,2.) ;
#1070=CIRCLE('generated circle',#1069,2.) ;
#1118=CIRCLE('generated circle',#1117,10.) ;
#1166=CIRCLE('generated circle',#1165,3.) ;
#1221=CIRCLE('generated circle',#1220,3.) ;
#1262=CIRCLE('generated circle',#1261,3.) ;
#1279=CIRCLE('generated circle',#1278,1.1) ;
#1305=CIRCLE('generated circle',#1304,1.1) ;
#1329=CIRCLE('generated circle',#1328,1.1) ;
#1348=CIRCLE('generated circle',#1347,1.1) ;
#1372=CIRCLE('generated circle',#1371,1.5) ;
#1391=CIRCLE('generated circle',#1390,1.5) ;
#1415=CIRCLE('generated circle',#1414,1.5) ;
#1434=CIRCLE('generated circle',#1433,1.5) ;
#1458=CIRCLE('generated circle',#1457,8.) ;
#1477=CIRCLE('generated circle',#1476,8.) ;
#1501=CIRCLE('generated circle',#1500,1.1) ;
#1520=CIRCLE('generated circle',#1519,1.1) ;
#1544=CIRCLE('generated circle',#1543,1.5) ;
#1563=CIRCLE('generated circle',#1562,1.5) ;
#1580=CIRCLE('generated circle',#1579,1.5) ;
#1606=CIRCLE('generated circle',#1605,1.5) ;
#1680=SHAPE_REPRESENTATION_RELATIONSHIP(' ',' ',#48,#1679) ;
#759=CYLINDRICAL_SURFACE('generated cylinder',#758,10.) ;
#783=CYLINDRICAL_SURFACE('generated cylinder',#782,2.) ;
#831=CYLINDRICAL_SURFACE('generated cylinder',#830,2.) ;
#879=CYLINDRICAL_SURFACE('generated cylinder',#878,3.) ;
#903=CYLINDRICAL_SURFACE('generated cylinder',#902,3.) ;
#951=CYLINDRICAL_SURFACE('generated cylinder',#950,3.) ;
#975=CYLINDRICAL_SURFACE('generated cylinder',#974,3.) ;
#1018=CYLINDRICAL_SURFACE('generated cylinder',#1017,2.) ;
#1066=CYLINDRICAL_SURFACE('generated cylinder',#1065,2.) ;
#1114=CYLINDRICAL_SURFACE('generated cylinder',#1113,10.) ;
#1162=CYLINDRICAL_SURFACE('generated cylinder',#1161,3.) ;
#1210=CYLINDRICAL_SURFACE('generated cylinder',#1209,3.) ;
#1258=CYLINDRICAL_SURFACE('generated cylinder',#1257,3.) ;
#1275=CYLINDRICAL_SURFACE('generated cylinder',#1274,1.1) ;
#1318=CYLINDRICAL_SURFACE('generated cylinder',#1317,1.1) ;
#1361=CYLINDRICAL_SURFACE('generated cylinder',#1360,1.5) ;
#1404=CYLINDRICAL_SURFACE('generated cylinder',#1403,1.5) ;
#1447=CYLINDRICAL_SURFACE('generated cylinder',#1446,8.) ;
#1490=CYLINDRICAL_SURFACE('generated cylinder',#1489,1.1) ;
#1533=CYLINDRICAL_SURFACE('generated cylinder',#1532,1.5) ;
#1576=CYLINDRICAL_SURFACE('generated cylinder',#1575,1.5) ;
#3=DESIGN_CONTEXT(' ',#1,'design') ;
#64=EDGE_CURVE('',#61,#63,#59,.T.) ;
#71=EDGE_CURVE('',#61,#70,#68,.T.) ;
#78=EDGE_CURVE('',#70,#77,#75,.T.) ;
#83=EDGE_CURVE('',#63,#77,#82,.T.) ;
#104=EDGE_CURVE('',#101,#103,#99,.T.) ;
#111=EDGE_CURVE('',#101,#110,#108,.F.) ;
#118=EDGE_CURVE('',#110,#117,#115,.T.) ;
#123=EDGE_CURVE('',#103,#117,#122,.F.) ;
#140=EDGE_CURVE('',#63,#103,#139,.T.) ;
#145=EDGE_CURVE('',#117,#61,#144,.T.) ;
#164=EDGE_CURVE('',#110,#163,#161,.T.) ;
#169=EDGE_CURVE('',#163,#70,#168,.T.) ;
#197=EDGE_CURVE('',#194,#196,#183,.T.) ;
#204=EDGE_CURVE('',#196,#203,#201,.T.) ;
#217=EDGE_CURVE('',#203,#216,#205,.T.) ;
#224=EDGE_CURVE('',#223,#216,#221,.T.) ;
#240=EDGE_CURVE('',#223,#239,#225,.T.) ;
#247=EDGE_CURVE('',#239,#246,#244,.T.) ;
#254=EDGE_CURVE('',#246,#253,#251,.T.) ;
#261=EDGE_CURVE('',#253,#260,#258,.T.) ;
#280=EDGE_CURVE('',#260,#279,#262,.T.) ;
#287=EDGE_CURVE('',#279,#286,#284,.T.) ;
#306=EDGE_CURVE('',#286,#305,#288,.T.) ;
#313=EDGE_CURVE('',#305,#312,#310,.T.) ;
#329=EDGE_CURVE('',#312,#328,#314,.T.) ;
#336=EDGE_CURVE('',#328,#335,#333,.T.) ;
#343=EDGE_CURVE('',#335,#342,#340,.T.) ;
#350=EDGE_CURVE('',#342,#349,#347,.T.) ;
#366=EDGE_CURVE('',#349,#365,#351,.T.) ;
#373=EDGE_CURVE('',#365,#372,#370,.T.) ;
#392=EDGE_CURVE('',#372,#391,#374,.T.) ;
#399=EDGE_CURVE('',#398,#391,#396,.T.) ;
#415=EDGE_CURVE('',#398,#414,#400,.T.) ;
#422=EDGE_CURVE('',#414,#421,#419,.T.) ;
#427=EDGE_CURVE('',#194,#421,#426,.T.) ;
#459=EDGE_CURVE('',#458,#101,#456,.T.) ;
#464=EDGE_CURVE('',#163,#458,#463,.F.) ;
#500=EDGE_CURVE('',#497,#499,#471,.T.) ;
#526=EDGE_CURVE('',#499,#497,#501,.T.) ;
#539=EDGE_CURVE('',#536,#538,#534,.T.) ;
#544=EDGE_CURVE('',#538,#536,#543,.T.) ;
#557=EDGE_CURVE('',#554,#556,#552,.T.) ;
#562=EDGE_CURVE('',#556,#554,#561,.T.) ;
#575=EDGE_CURVE('',#572,#574,#570,.T.) ;
#580=EDGE_CURVE('',#574,#572,#579,.T.) ;
#593=EDGE_CURVE('',#590,#592,#588,.T.) ;
#598=EDGE_CURVE('',#592,#590,#597,.T.) ;
#611=EDGE_CURVE('',#608,#610,#606,.T.) ;
#616=EDGE_CURVE('',#610,#608,#615,.T.) ;
#629=EDGE_CURVE('',#626,#628,#624,.T.) ;
#634=EDGE_CURVE('',#628,#626,#633,.T.) ;
#665=EDGE_CURVE('',#662,#664,#639,.T.) ;
#688=EDGE_CURVE('',#664,#662,#666,.T.) ;
#703=EDGE_CURVE('',#458,#77,#702,.T.) ;
#735=EDGE_CURVE('',#421,#734,#732,.T.) ;
#742=EDGE_CURVE('',#741,#734,#739,.T.) ;
#747=EDGE_CURVE('',#741,#194,#746,.T.) ;
#766=EDGE_CURVE('',#734,#765,#763,.T.) ;
#771=EDGE_CURVE('',#765,#414,#770,.T.) ;
#790=EDGE_CURVE('',#765,#789,#787,.F.) ;
#795=EDGE_CURVE('',#789,#398,#794,.T.) ;
#814=EDGE_CURVE('',#391,#813,#811,.T.) ;
#819=EDGE_CURVE('',#789,#813,#818,.T.) ;
#838=EDGE_CURVE('',#813,#837,#835,.T.) ;
#843=EDGE_CURVE('',#837,#372,#842,.F.) ;
#862=EDGE_CURVE('',#861,#837,#859,.T.) ;
#867=EDGE_CURVE('',#365,#861,#866,.T.) ;
#886=EDGE_CURVE('',#349,#885,#883,.F.) ;
#891=EDGE_CURVE('',#861,#885,#890,.F.) ;
#910=EDGE_CURVE('',#909,#342,#907,.T.) ;
#915=EDGE_CURVE('',#885,#909,#914,.T.) ;
#934=EDGE_CURVE('',#933,#909,#931,.T.) ;
#939=EDGE_CURVE('',#335,#933,#938,.T.) ;
#958=EDGE_CURVE('',#328,#957,#955,.F.) ;
#963=EDGE_CURVE('',#933,#957,#962,.T.) ;
#982=EDGE_CURVE('',#981,#312,#979,.T.) ;
#987=EDGE_CURVE('',#957,#981,#986,.F.) ;
#1001=EDGE_CURVE('',#305,#1000,#998,.T.) ;
#1006=EDGE_CURVE('',#1000,#981,#1005,.T.) ;
#1025=EDGE_CURVE('',#1000,#1024,#1022,.F.) ;
#1030=EDGE_CURVE('',#1024,#286,#1029,.T.) ;
#1049=EDGE_CURVE('',#1048,#1024,#1046,.T.) ;
#1054=EDGE_CURVE('',#279,#1048,#1053,.T.) ;
#1073=EDGE_CURVE('',#1048,#1072,#1070,.F.) ;
#1078=EDGE_CURVE('',#1072,#260,#1077,.T.) ;
#1097=EDGE_CURVE('',#253,#1096,#1094,.T.) ;
#1102=EDGE_CURVE('',#1096,#1072,#1101,.T.) ;
#1121=EDGE_CURVE('',#1096,#1120,#1118,.F.) ;
#1126=EDGE_CURVE('',#1120,#246,#1125,.F.) ;
#1145=EDGE_CURVE('',#1144,#1120,#1142,.T.) ;
#1150=EDGE_CURVE('',#239,#1144,#1149,.T.) ;
#1169=EDGE_CURVE('',#1144,#1168,#1166,.T.) ;
#1174=EDGE_CURVE('',#1168,#223,#1173,.F.) ;
#1193=EDGE_CURVE('',#216,#1192,#1190,.T.) ;
#1198=EDGE_CURVE('',#1168,#1192,#1197,.T.) ;
#1217=EDGE_CURVE('',#1216,#203,#1214,.F.) ;
#1222=EDGE_CURVE('',#1192,#1216,#1221,.T.) ;
#1241=EDGE_CURVE('',#196,#1240,#1238,.T.) ;
#1246=EDGE_CURVE('',#1216,#1240,#1245,.T.) ;
#1263=EDGE_CURVE('',#1240,#741,#1262,.F.) ;
#1284=EDGE_CURVE('',#1281,#1283,#1279,.T.) ;
#1289=EDGE_CURVE('',#1281,#499,#1288,.T.) ;
#1294=EDGE_CURVE('',#1283,#497,#1293,.T.) ;
#1306=EDGE_CURVE('',#1283,#1281,#1305,.T.) ;
#1325=EDGE_CURVE('',#1324,#538,#1322,.T.) ;
#1332=EDGE_CURVE('',#1324,#1331,#1329,.F.) ;
#1337=EDGE_CURVE('',#1331,#536,#1336,.T.) ;
#1349=EDGE_CURVE('',#1331,#1324,#1348,.F.) ;
#1368=EDGE_CURVE('',#1367,#556,#1365,.T.) ;
#1375=EDGE_CURVE('',#1367,#1374,#1372,.F.) ;
#1380=EDGE_CURVE('',#1374,#554,#1379,.T.) ;
#1392=EDGE_CURVE('',#1374,#1367,#1391,.F.) ;
#1411=EDGE_CURVE('',#1410,#574,#1408,.T.) ;
#1418=EDGE_CURVE('',#1410,#1417,#1415,.F.) ;
#1423=EDGE_CURVE('',#1417,#572,#1422,.T.) ;
#1435=EDGE_CURVE('',#1417,#1410,#1434,.F.) ;
#1454=EDGE_CURVE('',#1453,#592,#1451,.T.) ;
#1461=EDGE_CURVE('',#1453,#1460,#1458,.F.) ;
#1466=EDGE_CURVE('',#1460,#590,#1465,.T.) ;
#1478=EDGE_CURVE('',#1460,#1453,#1477,.F.) ;
#1497=EDGE_CURVE('',#1496,#610,#1494,.T.) ;
#1504=EDGE_CURVE('',#1496,#1503,#1501,.F.) ;
#1509=EDGE_CURVE('',#1503,#608,#1508,.T.) ;
#1521=EDGE_CURVE('',#1503,#1496,#1520,.F.) ;
#1540=EDGE_CURVE('',#1539,#628,#1537,.T.) ;
#1547=EDGE_CURVE('',#1539,#1546,#1544,.F.) ;
#1552=EDGE_CURVE('',#1546,#626,#1551,.T.) ;
#1564=EDGE_CURVE('',#1546,#1539,#1563,.F.) ;
#1585=EDGE_CURVE('',#1582,#1584,#1580,.T.) ;
#1590=EDGE_CURVE('',#1582,#664,#1589,.T.) ;
#1595=EDGE_CURVE('',#1584,#662,#1594,.T.) ;
#1607=EDGE_CURVE('',#1584,#1582,#1606,.T.) ;
#84=EDGE_LOOP('',(#85,#86,#87,#88)) ;
#124=EDGE_LOOP('',(#125,#126,#127,#128)) ;
#146=EDGE_LOOP('',(#147,#148,#149,#150)) ;
#170=EDGE_LOOP('',(#171,#172,#173,#174,#175)) ;
#428=EDGE_LOOP('',(#429,#430,#431,#432,#433,#434,#435,#436,#437,#438,#439,#440,#441,#442,#443,#444,#445,#446,#447,#448,#449,#450,#451)) ;
#465=EDGE_LOOP('',(#466,#467,#468,#469)) ;
#527=EDGE_LOOP('',(#528,#529)) ;
#545=EDGE_LOOP('',(#546,#547)) ;
#563=EDGE_LOOP('',(#564,#565)) ;
#581=EDGE_LOOP('',(#582,#583)) ;
#599=EDGE_LOOP('',(#600,#601)) ;
#617=EDGE_LOOP('',(#618,#619)) ;
#635=EDGE_LOOP('',(#636,#637)) ;
#689=EDGE_LOOP('',(#690,#691)) ;
#704=EDGE_LOOP('',(#705,#706,#707,#708,#709)) ;
#717=EDGE_LOOP('',(#718,#719,#720,#721)) ;
#748=EDGE_LOOP('',(#749,#750,#751,#752)) ;
#772=EDGE_LOOP('',(#773,#774,#775,#776)) ;
#796=EDGE_LOOP('',(#797,#798,#799,#800)) ;
#820=EDGE_LOOP('',(#821,#822,#823,#824)) ;
#844=EDGE_LOOP('',(#845,#846,#847,#848)) ;
#868=EDGE_LOOP('',(#869,#870,#871,#872)) ;
#892=EDGE_LOOP('',(#893,#894,#895,#896)) ;
#916=EDGE_LOOP('',(#917,#918,#919,#920)) ;
#940=EDGE_LOOP('',(#941,#942,#943,#944)) ;
#964=EDGE_LOOP('',(#965,#966,#967,#968)) ;
#988=EDGE_LOOP('',(#989,#990,#991,#992)) ;
#1007=EDGE_LOOP('',(#1008,#1009,#1010,#1011)) ;
#1031=EDGE_LOOP('',(#1032,#1033,#1034,#1035)) ;
#1055=EDGE_LOOP('',(#1056,#1057,#1058,#1059)) ;
#1079=EDGE_LOOP('',(#1080,#1081,#1082,#1083)) ;
#1103=EDGE_LOOP('',(#1104,#1105,#1106,#1107)) ;
#1127=EDGE_LOOP('',(#1128,#1129,#1130,#1131)) ;
#1151=EDGE_LOOP('',(#1152,#1153,#1154,#1155)) ;
#1175=EDGE_LOOP('',(#1176,#1177,#1178,#1179)) ;
#1199=EDGE_LOOP('',(#1200,#1201,#1202,#1203)) ;
#1223=EDGE_LOOP('',(#1224,#1225,#1226,#1227)) ;
#1247=EDGE_LOOP('',(#1248,#1249,#1250,#1251)) ;
#1264=EDGE_LOOP('',(#1265,#1266,#1267,#1268)) ;
#1295=EDGE_LOOP('',(#1296,#1297,#1298,#1299)) ;
#1307=EDGE_LOOP('',(#1308,#1309,#1310,#1311)) ;
#1338=EDGE_LOOP('',(#1339,#1340,#1341,#1342)) ;
#1350=EDGE_LOOP('',(#1351,#1352,#1353,#1354)) ;
#1381=EDGE_LOOP('',(#1382,#1383,#1384,#1385)) ;
#1393=EDGE_LOOP('',(#1394,#1395,#1396,#1397)) ;
#1424=EDGE_LOOP('',(#1425,#1426,#1427,#1428)) ;
#1436=EDGE_LOOP('',(#1437,#1438,#1439,#1440)) ;
#1467=EDGE_LOOP('',(#1468,#1469,#1470,#1471)) ;
#1479=EDGE_LOOP('',(#1480,#1481,#1482,#1483)) ;
#1510=EDGE_LOOP('',(#1511,#1512,#1513,#1514)) ;
#1522=EDGE_LOOP('',(#1523,#1524,#1525,#1526)) ;
#1553=EDGE_LOOP('',(#1554,#1555,#1556,#1557)) ;
#1565=EDGE_LOOP('',(#1566,#1567,#1568,#1569)) ;
#1596=EDGE_LOOP('',(#1597,#1598,#1599,#1600)) ;
#1608=EDGE_LOOP('',(#1609,#1610,#1611,#1612)) ;
#1620=EDGE_LOOP('',(#1621,#1622,#1623,#1624,#1625,#1626,#1627,#1628,#1629,#1630,#1631,#1632,#1633,#1634,#1635,#1636,#1637,#1638,#1639,#1640,#1641,#1642,#1643)) ;
#1645=EDGE_LOOP('',(#1646,#1647)) ;
#1649=EDGE_LOOP('',(#1650,#1651)) ;
#1653=EDGE_LOOP('',(#1654,#1655)) ;
#1657=EDGE_LOOP('',(#1658,#1659)) ;
#1661=EDGE_LOOP('',(#1662,#1663)) ;
#1665=EDGE_LOOP('',(#1666,#1667)) ;
#1669=EDGE_LOOP('',(#1670,#1671)) ;
#1673=EDGE_LOOP('',(#1674,#1675)) ;
#89=FACE_OUTER_BOUND('',#84,.T.) ;
#129=FACE_OUTER_BOUND('',#124,.T.) ;
#151=FACE_OUTER_BOUND('',#146,.T.) ;
#176=FACE_OUTER_BOUND('',#170,.T.) ;
#452=FACE_OUTER_BOUND('',#428,.T.) ;
#710=FACE_OUTER_BOUND('',#704,.T.) ;
#722=FACE_OUTER_BOUND('',#717,.T.) ;
#753=FACE_OUTER_BOUND('',#748,.T.) ;
#777=FACE_OUTER_BOUND('',#772,.T.) ;
#801=FACE_OUTER_BOUND('',#796,.T.) ;
#825=FACE_OUTER_BOUND('',#820,.T.) ;
#849=FACE_OUTER_BOUND('',#844,.T.) ;
#873=FACE_OUTER_BOUND('',#868,.T.) ;
#897=FACE_OUTER_BOUND('',#892,.T.) ;
#921=FACE_OUTER_BOUND('',#916,.T.) ;
#945=FACE_OUTER_BOUND('',#940,.T.) ;
#969=FACE_OUTER_BOUND('',#964,.T.) ;
#993=FACE_OUTER_BOUND('',#988,.T.) ;
#1012=FACE_OUTER_BOUND('',#1007,.T.) ;
#1036=FACE_OUTER_BOUND('',#1031,.T.) ;
#1060=FACE_OUTER_BOUND('',#1055,.T.) ;
#1084=FACE_OUTER_BOUND('',#1079,.T.) ;
#1108=FACE_OUTER_BOUND('',#1103,.T.) ;
#1132=FACE_OUTER_BOUND('',#1127,.T.) ;
#1156=FACE_OUTER_BOUND('',#1151,.T.) ;
#1180=FACE_OUTER_BOUND('',#1175,.T.) ;
#1204=FACE_OUTER_BOUND('',#1199,.T.) ;
#1228=FACE_OUTER_BOUND('',#1223,.T.) ;
#1252=FACE_OUTER_BOUND('',#1247,.T.) ;
#1269=FACE_OUTER_BOUND('',#1264,.T.) ;
#1300=FACE_OUTER_BOUND('',#1295,.T.) ;
#1312=FACE_OUTER_BOUND('',#1307,.T.) ;
#1343=FACE_OUTER_BOUND('',#1338,.T.) ;
#1355=FACE_OUTER_BOUND('',#1350,.T.) ;
#1386=FACE_OUTER_BOUND('',#1381,.T.) ;
#1398=FACE_OUTER_BOUND('',#1393,.T.) ;
#1429=FACE_OUTER_BOUND('',#1424,.T.) ;
#1441=FACE_OUTER_BOUND('',#1436,.T.) ;
#1472=FACE_OUTER_BOUND('',#1467,.T.) ;
#1484=FACE_OUTER_BOUND('',#1479,.T.) ;
#1515=FACE_OUTER_BOUND('',#1510,.T.) ;
#1527=FACE_OUTER_BOUND('',#1522,.T.) ;
#1558=FACE_OUTER_BOUND('',#1553,.T.) ;
#1570=FACE_OUTER_BOUND('',#1565,.T.) ;
#1601=FACE_OUTER_BOUND('',#1596,.T.) ;
#1613=FACE_OUTER_BOUND('',#1608,.T.) ;
#1644=FACE_OUTER_BOUND('',#1620,.T.) ;
#44=UNCERTAINTY_MEASURE_WITH_UNIT(LENGTH_MEASURE(0.005),#41,'distance_accuracy_value','CONFUSED CURVE UNCERTAINTY') ;
#59=LINE('Line',#56,#58) ;
#68=LINE('Line',#65,#67) ;
#75=LINE('Line',#72,#74) ;
#82=LINE('Line',#79,#81) ;
#99=LINE('Line',#96,#98) ;
#108=LINE('Line',#105,#107) ;
#115=LINE('Line',#112,#114) ;
#122=LINE('Line',#119,#121) ;
#139=LINE('Line',#136,#138) ;
#144=LINE('Line',#141,#143) ;
#161=LINE('Line',#158,#160) ;
#168=LINE('Line',#165,#167) ;
#201=LINE('Line',#198,#200) ;
#221=LINE('Line',#218,#220) ;
#244=LINE('Line',#241,#243) ;
#258=LINE('Line',#255,#257) ;
#284=LINE('Line',#281,#283) ;
#310=LINE('Line',#307,#309) ;
#340=LINE('Line',#337,#339) ;
#370=LINE('Line',#367,#369) ;
#396=LINE('Line',#393,#395) ;
#426=LINE('Line',#423,#425) ;
#456=LINE('Line',#453,#455) ;
#463=LINE('Line',#460,#462) ;
#702=LINE('Line',#699,#701) ;
#732=LINE('Line',#729,#731) ;
#739=LINE('Line',#736,#738) ;
#746=LINE('Line',#743,#745) ;
#770=LINE('Line',#767,#769) ;
#794=LINE('Line',#791,#793) ;
#811=LINE('Line',#808,#810) ;
#818=LINE('Line',#815,#817) ;
#842=LINE('Line',#839,#841) ;
#859=LINE('Line',#856,#858) ;
#866=LINE('Line',#863,#865) ;
#883=LINE('Line',#880,#882) ;
#907=LINE('Line',#904,#906) ;
#931=LINE('Line',#928,#930) ;
#938=LINE('Line',#935,#937) ;
#955=LINE('Line',#952,#954) ;
#979=LINE('Line',#976,#978) ;
#998=LINE('Line',#995,#997) ;
#1005=LINE('Line',#1002,#1004) ;
#1029=LINE('Line',#1026,#1028) ;
#1046=LINE('Line',#1043,#1045) ;
#1053=LINE('Line',#1050,#1052) ;
#1077=LINE('Line',#1074,#1076) ;
#1094=LINE('Line',#1091,#1093) ;
#1101=LINE('Line',#1098,#1100) ;
#1125=LINE('Line',#1122,#1124) ;
#1142=LINE('Line',#1139,#1141) ;
#1149=LINE('Line',#1146,#1148) ;
#1173=LINE('Line',#1170,#1172) ;
#1190=LINE('Line',#1187,#1189) ;
#1197=LINE('Line',#1194,#1196) ;
#1214=LINE('Line',#1211,#1213) ;
#1238=LINE('Line',#1235,#1237) ;
#1245=LINE('Line',#1242,#1244) ;
#1288=LINE('Line',#1285,#1287) ;
#1293=LINE('Line',#1290,#1292) ;
#1322=LINE('Line',#1319,#1321) ;
#1336=LINE('Line',#1333,#1335) ;
#1365=LINE('Line',#1362,#1364) ;
#1379=LINE('Line',#1376,#1378) ;
#1408=LINE('Line',#1405,#1407) ;
#1422=LINE('Line',#1419,#1421) ;
#1451=LINE('Line',#1448,#1450) ;
#1465=LINE('Line',#1462,#1464) ;
#1494=LINE('Line',#1491,#1493) ;
#1508=LINE('Line',#1505,#1507) ;
#1537=LINE('Line',#1534,#1536) ;
#1551=LINE('Line',#1548,#1550) ;
#1589=LINE('Line',#1586,#1588) ;
#1594=LINE('Line',#1591,#1593) ;
#2=MECHANICAL_CONTEXT(' ',#1,'mechanical') ;
#24=PERSONAL_ADDRESS(' ',' ',' ',' ',' ',' ',' ',' ',' ',' ',' ',' ',(#22),' ') ;
#55=PLANE('',#54) ;
#95=PLANE('',#94) ;
#135=PLANE('',#134) ;
#157=PLANE('',#156) ;
#182=PLANE('',#181) ;
#698=PLANE('',#697) ;
#716=PLANE('',#715) ;
#728=PLANE('',#727) ;
#807=PLANE('',#806) ;
#855=PLANE('',#854) ;
#927=PLANE('',#926) ;
#1042=PLANE('',#1041) ;
#1090=PLANE('',#1089) ;
#1138=PLANE('',#1137) ;
#1186=PLANE('',#1185) ;
#1234=PLANE('',#1233) ;
#1619=PLANE('',#1618) ;
#7=PRODUCT_CATEGORY('part',$) ;
#9=PRODUCT_CATEGORY_RELATIONSHIP(' ',' ',#7,#8) ;
#6=PRODUCT_DEFINITION_FORMATION_WITH_SPECIFIED_SOURCE('\X2\6D60\X0\',' ',#5,.NOT_KNOWN.) ;
#8=PRODUCT_RELATED_PRODUCT_CATEGORY('detail',$,(#5)) ;
#49=SHAPE_DEFINITION_REPRESENTATION(#40,#48) ;
#61=VERTEX_POINT('',#60) ;
#63=VERTEX_POINT('',#62) ;
#70=VERTEX_POINT('',#69) ;
#77=VERTEX_POINT('',#76) ;
#101=VERTEX_POINT('',#100) ;
#103=VERTEX_POINT('',#102) ;
#110=VERTEX_POINT('',#109) ;
#117=VERTEX_POINT('',#116) ;
#163=VERTEX_POINT('',#162) ;
#194=VERTEX_POINT('',#193) ;
#196=VERTEX_POINT('',#195) ;
#203=VERTEX_POINT('',#202) ;
#216=VERTEX_POINT('',#215) ;
#223=VERTEX_POINT('',#222) ;
#239=VERTEX_POINT('',#238) ;
#246=VERTEX_POINT('',#245) ;
#253=VERTEX_POINT('',#252) ;
#260=VERTEX_POINT('',#259) ;
#279=VERTEX_POINT('',#278) ;
#286=VERTEX_POINT('',#285) ;
#305=VERTEX_POINT('',#304) ;
#312=VERTEX_POINT('',#311) ;
#328=VERTEX_POINT('',#327) ;
#335=VERTEX_POINT('',#334) ;
#342=VERTEX_POINT('',#341) ;
#349=VERTEX_POINT('',#348) ;
#365=VERTEX_POINT('',#364) ;
#372=VERTEX_POINT('',#371) ;
#391=VERTEX_POINT('',#390) ;
#398=VERTEX_POINT('',#397) ;
#414=VERTEX_POINT('',#413) ;
#421=VERTEX_POINT('',#420) ;
#458=VERTEX_POINT('',#457) ;
#497=VERTEX_POINT('',#496) ;
#499=VERTEX_POINT('',#498) ;
#536=VERTEX_POINT('',#535) ;
#538=VERTEX_POINT('',#537) ;
#554=VERTEX_POINT('',#553) ;
#556=VERTEX_POINT('',#555) ;
#572=VERTEX_POINT('',#571) ;
#574=VERTEX_POINT('',#573) ;
#590=VERTEX_POINT('',#589) ;
#592=VERTEX_POINT('',#591) ;
#608=VERTEX_POINT('',#607) ;
#610=VERTEX_POINT('',#609) ;
#626=VERTEX_POINT('',#625) ;
#628=VERTEX_POINT('',#627) ;
#662=VERTEX_POINT('',#661) ;
#664=VERTEX_POINT('',#663) ;
#734=VERTEX_POINT('',#733) ;
#741=VERTEX_POINT('',#740) ;
#765=VERTEX_POINT('',#764) ;
#789=VERTEX_POINT('',#788) ;
#813=VERTEX_POINT('',#812) ;
#837=VERTEX_POINT('',#836) ;
#861=VERTEX_POINT('',#860) ;
#885=VERTEX_POINT('',#884) ;
#909=VERTEX_POINT('',#908) ;
#933=VERTEX_POINT('',#932) ;
#957=VERTEX_POINT('',#956) ;
#981=VERTEX_POINT('',#980) ;
#1000=VERTEX_POINT('',#999) ;
#1024=VERTEX_POINT('',#1023) ;
#1048=VERTEX_POINT('',#1047) ;
#1072=VERTEX_POINT('',#1071) ;
#1096=VERTEX_POINT('',#1095) ;
#1120=VERTEX_POINT('',#1119) ;
#1144=VERTEX_POINT('',#1143) ;
#1168=VERTEX_POINT('',#1167) ;
#1192=VERTEX_POINT('',#1191) ;
#1216=VERTEX_POINT('',#1215) ;
#1240=VERTEX_POINT('',#1239) ;
#1281=VERTEX_POINT('',#1280) ;
#1283=VERTEX_POINT('',#1282) ;
#1324=VERTEX_POINT('',#1323) ;
#1331=VERTEX_POINT('',#1330) ;
#1367=VERTEX_POINT('',#1366) ;
#1374=VERTEX_POINT('',#1373) ;
#1410=VERTEX_POINT('',#1409) ;
#1417=VERTEX_POINT('',#1416) ;
#1453=VERTEX_POINT('',#1452) ;
#1460=VERTEX_POINT('',#1459) ;
#1496=VERTEX_POINT('',#1495) ;
#1503=VERTEX_POINT('',#1502) ;
#1539=VERTEX_POINT('',#1538) ;
#1546=VERTEX_POINT('',#1545) ;
#1582=VERTEX_POINT('',#1581) ;
#1584=VERTEX_POINT('',#1583) ;
#41=(LENGTH_UNIT()NAMED_UNIT(*)SI_UNIT(.MILLI.,.METRE.)) ;
#42=(NAMED_UNIT(*)PLANE_ANGLE_UNIT()SI_UNIT($,.RADIAN.)) ;
#43=(NAMED_UNIT(*)SI_UNIT($,.STERADIAN.)SOLID_ANGLE_UNIT()) ;
#45=(GEOMETRIC_REPRESENTATION_CONTEXT(3)GLOBAL_UNCERTAINTY_ASSIGNED_CONTEXT((#44))GLOBAL_UNIT_ASSIGNED_CONTEXT((#41,#42,#43))REPRESENTATION_CONTEXT(' ',' ')) ;
ENDSEC;
END-ISO-10303-21;
