ISO-10303-21;
HEADER;
FILE_DESCRIPTION (( 'STEP AP203' ),
    '1' );
FILE_NAME ('Ö±Ïßµ¼¹ì×ª½Ó°å²à°å 4mm.STEP',
    '2026-05-08T08:44:13',
    ( '' ),
    ( '' ),
    'SwSTEP 2.0',
    'SolidWorks 2025',
    '' );
FILE_SCHEMA (( 'CONFIG_CONTROL_DESIGN' ));
ENDSEC;

DATA;
#1 = DIRECTION ( 'NONE',  ( 0.000000000000000000, 0.000000000000000000, 1.000000000000000000 ) ) ;
#2 = VECTOR ( 'NONE', #52, 999.9999999999998863 ) ;
#3 = EDGE_CURVE ( 'NONE', #728, #393, #792, .T. ) ;
#4 = DIRECTION ( 'NONE',  ( 0.000000000000000000, 1.000000000000000000, -0.000000000000000000 ) ) ;
#5 = ORIENTED_EDGE ( 'NONE', *, *, #915, .T. ) ;
#6 = CIRCLE ( 'NONE', #775, 1.000000000000001332 ) ;
#7 = CIRCLE ( 'NONE', #967, 2.999999999999999112 ) ;
#8 = CARTESIAN_POINT ( 'NONE',  ( 20.99999999999999645, 0.000000000000000000, -0.000000000000000000 ) ) ;
#9 = DIRECTION ( 'NONE',  ( 0.000000000000000000, 0.000000000000000000, 1.000000000000000000 ) ) ;
#10 = COORDINATED_UNIVERSAL_TIME_OFFSET ( 8, 0, .AHEAD. ) ;
#11 = ADVANCED_FACE ( 'NONE', ( #788 ), #72, .F. ) ;
#12 = ORIENTED_EDGE ( 'NONE', *, *, #185, .F. ) ;
#13 = DIRECTION ( 'NONE',  ( -0.000000000000000000, -1.000000000000000000, -0.000000000000000000 ) ) ;
#14 = CARTESIAN_POINT ( 'NONE',  ( 45.92893218813446765, 4.000000000000000000, 10.00000000000000178 ) ) ;
#15 = LOCAL_TIME ( 16, 44, 13.00000000000000000, #406 ) ;
#16 = LINE ( 'NONE', #498, #758 ) ;
#17 = ADVANCED_FACE ( 'NONE', ( #475 ), #215, .T. ) ;
#18 = ORIENTED_EDGE ( 'NONE', *, *, #841, .F. ) ;
#19 = DIRECTION ( 'NONE',  ( 0.000000000000000000, 0.000000000000000000, -1.000000000000000000 ) ) ;
#20 = CIRCLE ( 'NONE', #771, 1.500000000000004885 ) ;
#21 = DIRECTION ( 'NONE',  ( 0.000000000000000000, 1.000000000000000000, -0.000000000000000000 ) ) ;
#22 = ORIENTED_EDGE ( 'NONE', *, *, #782, .T. ) ;
#23 = CARTESIAN_POINT ( 'NONE',  ( 48.00000000000000000, 4.000000000000000000, -16.49999999999999289 ) ) ;
#24 = VECTOR ( 'NONE', #807, 1000.000000000000000 ) ;
#25 = DIRECTION ( 'NONE',  ( 0.000000000000000000, 0.000000000000000000, 1.000000000000000000 ) ) ;
#26 = ORIENTED_EDGE ( 'NONE', *, *, #279, .T. ) ;
#27 = DIRECTION ( 'NONE',  ( 0.000000000000000000, 0.000000000000000000, 1.000000000000000000 ) ) ;
#28 = CARTESIAN_POINT ( 'NONE',  ( 36.00000000000000000, 4.000000000000000000, 4.000000000000003553 ) ) ;
#29 = LOCAL_TIME ( 16, 44, 13.00000000000000000, #184 ) ;
#30 = DIRECTION ( 'NONE',  ( 0.000000000000000000, -1.000000000000000000, 0.000000000000000000 ) ) ;
#31 = VECTOR ( 'NONE', #562, 1000.000000000000000 ) ;
#32 = EDGE_LOOP ( 'NONE', ( #605, #340 ) ) ;
#33 = VECTOR ( 'NONE', #288, 1000.000000000000000 ) ;
#34 = CARTESIAN_POINT ( 'NONE',  ( 23.99999999999999645, 4.000000000000000000, -6.999999999999998224 ) ) ;
#35 = AXIS2_PLACEMENT_3D ( 'NONE', #59, #47, #997 ) ;
#36 = EDGE_LOOP ( 'NONE', ( #395, #524, #236, #22 ) ) ;
#37 = AXIS2_PLACEMENT_3D ( 'NONE', #870, #100, #96 ) ;
#38 = CARTESIAN_POINT ( 'NONE',  ( 58.00000000000000000, 0.000000000000000000, -7.071067811865491493 ) ) ;
#39 = EDGE_CURVE ( 'NONE', #228, #905, #155, .T. ) ;
#40 = ORIENTED_EDGE ( 'NONE', *, *, #462, .T. ) ;
#41 = ORIENTED_EDGE ( 'NONE', *, *, #995, .F. ) ;
#42 = DIRECTION ( 'NONE',  ( -0.000000000000000000, -1.000000000000000000, 0.000000000000000000 ) ) ;
#43 = ORIENTED_EDGE ( 'NONE', *, *, #826, .T. ) ;
#44 = CARTESIAN_POINT ( 'NONE',  ( 23.99999999999999645, 0.000000000000000000, -4.999999999999999112 ) ) ;
#45 = EDGE_CURVE ( 'NONE', #879, #312, #123, .T. ) ;
#46 = DIRECTION ( 'NONE',  ( 0.000000000000000000, 0.000000000000000000, 1.000000000000000000 ) ) ;
#47 = DIRECTION ( 'NONE',  ( 0.000000000000000000, 1.000000000000000000, -0.000000000000000000 ) ) ;
#48 = ORIENTED_EDGE ( 'NONE', *, *, #462, .F. ) ;
#49 = CARTESIAN_POINT ( 'NONE',  ( 40.00000000000000000, 4.000000000000000000, -19.00000000000000000 ) ) ;
#50 = AXIS2_PLACEMENT_3D ( 'NONE', #603, #209, #526 ) ;
#51 = DIRECTION ( 'NONE',  ( 0.000000000000000000, 0.000000000000000000, 1.000000000000000000 ) ) ;
#52 = DIRECTION ( 'NONE',  ( 0.7071067811865487940, -0.000000000000000000, -0.7071067811865463515 ) ) ;
#53 = AXIS2_PLACEMENT_3D ( 'NONE', #969, #654, #345 ) ;
#54 = AXIS2_PLACEMENT_3D ( 'NONE', #218, #376, #46 ) ;
#55 = CARTESIAN_POINT ( 'NONE',  ( 23.99999999999999645, 4.000000000000000000, -3.999999999999997335 ) ) ;
#56 = EDGE_LOOP ( 'NONE', ( #143, #317, #360, #1021 ) ) ;
#57 = DIRECTION ( 'NONE',  ( 0.000000000000000000, 0.000000000000000000, 1.000000000000000000 ) ) ;
#58 = ADVANCED_FACE ( 'NONE', ( #839 ), #134, .F. ) ;
#59 = CARTESIAN_POINT ( 'NONE',  ( 36.00000000000000000, 4.000000000000000000, 4.000000000000003553 ) ) ;
#60 = VECTOR ( 'NONE', #108, 1000.000000000000000 ) ;
#61 = DIRECTION ( 'NONE',  ( -1.000000000000000000, 0.000000000000000000, -0.000000000000000000 ) ) ;
#62 = PERSON_AND_ORGANIZATION ( #233, #902 ) ;
#63 = ORIENTED_EDGE ( 'NONE', *, *, #636, .T. ) ;
#64 = PLANE ( 'NONE',  #54 ) ;
#65 = AXIS2_PLACEMENT_3D ( 'NONE', #793, #701, #144 ) ;
#66 = ORIENTED_EDGE ( 'NONE', *, *, #882, .T. ) ;
#67 = APPROVAL_STATUS ( 'not_yet_approved' ) ;
#68 = ORIENTED_EDGE ( 'NONE', *, *, #899, .T. ) ;
#69 = LINE ( 'NONE', #537, #125 ) ;
#70 = DIRECTION ( 'NONE',  ( 0.000000000000000000, 0.000000000000000000, 1.000000000000000000 ) ) ;
#71 = AXIS2_PLACEMENT_3D ( 'NONE', #800, #877, #805 ) ;
#72 = CYLINDRICAL_SURFACE ( 'NONE', #909, 2.999999999999999112 ) ;
#73 = CARTESIAN_POINT ( 'NONE',  ( 60.00000000000000000, 4.000000000000000000, -22.00000000000000000 ) ) ;
#74 = ORIENTED_EDGE ( 'NONE', *, *, #854, .T. ) ;
#75 = CYLINDRICAL_SURFACE ( 'NONE', #566, 2.999999999999999112 ) ;
#76 = CARTESIAN_POINT ( 'NONE',  ( 37.00000000000000000, 0.000000000000000000, -9.999999999999998224 ) ) ;
#77 = CARTESIAN_POINT ( 'NONE',  ( 23.99999999999999645, 4.000000000000000000, -2.999999999999996003 ) ) ;
#78 = CARTESIAN_POINT ( 'NONE',  ( 0.000000000000000000, 0.000000000000000000, 0.000000000000000000 ) ) ;
#79 = ORIENTED_EDGE ( 'NONE', *, *, #915, .F. ) ;
#80 = ADVANCED_FACE ( 'NONE', ( #1005 ), #297, .T. ) ;
#81 = DIRECTION ( 'NONE',  ( -0.000000000000000000, -1.000000000000000000, 0.000000000000000000 ) ) ;
#82 = APPLICATION_CONTEXT ( 'configuration controlled 3d designs of mechanical parts and assemblies' ) ;
#83 = CARTESIAN_POINT ( 'NONE',  ( 20.99999999999999645, 4.000000000000000000, -6.999999999999998224 ) ) ;
#84 = ADVANCED_FACE ( 'NONE', ( #384 ), #1011, .F. ) ;
#85 = CARTESIAN_POINT ( 'NONE',  ( 43.00000000000000000, 4.000000000000000000, -19.00000000000000000 ) ) ;
#86 = APPROVAL_STATUS ( 'not_yet_approved' ) ;
#87 = ORIENTED_EDGE ( 'NONE', *, *, #341, .F. ) ;
#88 = CARTESIAN_POINT ( 'NONE',  ( 63.00000000000000000, 0.000000000000000000, -19.00000000000000000 ) ) ;
#89 = ADVANCED_FACE ( 'NONE', ( #563 ), #338, .F. ) ;
#90 = DIRECTION ( 'NONE',  ( 1.000000000000000000, 0.000000000000000000, 0.000000000000000000 ) ) ;
#91 = DATE_AND_TIME ( #572, #953 ) ;
#92 = ORIENTED_EDGE ( 'NONE', *, *, #402, .F. ) ;
#93 = AXIS2_PLACEMENT_3D ( 'NONE', #140, #925, #308 ) ;
#94 = DIRECTION ( 'NONE',  ( 0.000000000000000000, 1.000000000000000000, -0.000000000000000000 ) ) ;
#95 = EDGE_CURVE ( 'NONE', #769, #761, #419, .T. ) ;
#96 = DIRECTION ( 'NONE',  ( 0.000000000000000000, 0.000000000000000000, -1.000000000000000000 ) ) ;
#97 = ORIENTED_EDGE ( 'NONE', *, *, #835, .T. ) ;
#98 = EDGE_CURVE ( 'NONE', #544, #850, #264, .T. ) ;
#99 = CARTESIAN_POINT ( 'NONE',  ( 20.99999999999999645, 0.000000000000000000, 7.000000000000003553 ) ) ;
#100 = DIRECTION ( 'NONE',  ( -0.000000000000000000, -1.000000000000000000, -0.000000000000000000 ) ) ;
#101 = ORIENTED_EDGE ( 'NONE', *, *, #787, .F. ) ;
#102 = LINE ( 'NONE', #751, #33 ) ;
#103 = VECTOR ( 'NONE', #895, 1000.000000000000000 ) ;
#104 = CARTESIAN_POINT ( 'NONE',  ( 56.00000000000000000, 4.000000000000000000, -16.49999999999999289 ) ) ;
#105 = ORIENTED_EDGE ( 'NONE', *, *, #433, .T. ) ;
#106 = ADVANCED_FACE ( 'NONE', ( #883 ), #730, .F. ) ;
#107 = AXIS2_PLACEMENT_3D ( 'NONE', #720, #90, #726 ) ;
#108 = DIRECTION ( 'NONE',  ( -0.000000000000000000, -1.000000000000000000, -0.000000000000000000 ) ) ;
#109 = CARTESIAN_POINT ( 'NONE',  ( 20.99999999999999645, 0.000000000000000000, -6.999999999999998224 ) ) ;
#110 = VERTEX_POINT ( 'NONE', #1023 ) ;
#111 = CARTESIAN_POINT ( 'NONE',  ( 63.00000000000000000, 4.000000000000000000, 0.000000000000000000 ) ) ;
#112 = FACE_OUTER_BOUND ( 'NONE', #437, .T. ) ;
#113 = CC_DESIGN_APPROVAL ( #817, ( #164 ) ) ;
#114 = ADVANCED_FACE ( 'NONE', ( #962 ), #159, .F. ) ;
#115 = CARTESIAN_POINT ( 'NONE',  ( 48.00000000000000000, 0.000000000000000000, -18.00000000000000000 ) ) ;
#116 = CIRCLE ( 'NONE', #869, 1.000000000000001776 ) ;
#117 = ORIENTED_EDGE ( 'NONE', *, *, #782, .F. ) ;
#118 = CIRCLE ( 'NONE', #825, 2.999999999999999112 ) ;
#119 = CARTESIAN_POINT ( 'NONE',  ( 23.99999999999999645, 4.000000000000000000, 4.000000000000000888 ) ) ;
#120 = EDGE_CURVE ( 'NONE', #312, #879, #374, .T. ) ;
#121 = CIRCLE ( 'NONE', #698, 3.000000000000000000 ) ;
#122 = ORIENTED_EDGE ( 'NONE', *, *, #552, .T. ) ;
#123 = CIRCLE ( 'NONE', #456, 0.9999999999999983347 ) ;
#124 = CARTESIAN_POINT ( 'NONE',  ( 0.000000000000000000, 4.000000000000000000, -22.00000000000000000 ) ) ;
#125 = VECTOR ( 'NONE', #51, 1000.000000000000000 ) ;
#126 = ADVANCED_FACE ( 'NONE', ( #168 ), #733, .T. ) ;
#127 = ORIENTED_EDGE ( 'NONE', *, *, #195, .F. ) ;
#128 = ORIENTED_EDGE ( 'NONE', *, *, #866, .F. ) ;
#129 = CARTESIAN_POINT ( 'NONE',  ( 23.99999999999999645, 0.000000000000000000, 10.00000000000000355 ) ) ;
#130 = ORIENTED_EDGE ( 'NONE', *, *, #341, .T. ) ;
#131 = CARTESIAN_POINT ( 'NONE',  ( 56.00000000000000000, 0.000000000000000000, -19.50000000000000355 ) ) ;
#132 = CARTESIAN_POINT ( 'NONE',  ( 43.00000000000000000, 0.000000000000000000, -22.00000000000000000 ) ) ;
#133 = DIRECTION ( 'NONE',  ( -1.000000000000000000, 0.000000000000000000, 0.000000000000000000 ) ) ;
#134 = CYLINDRICAL_SURFACE ( 'NONE', #607, 1.000000000000001776 ) ;
#135 = DIRECTION ( 'NONE',  ( 0.000000000000000000, 0.000000000000000000, 1.000000000000000000 ) ) ;
#136 = ORIENTED_EDGE ( 'NONE', *, *, #268, .F. ) ;
#137 = CARTESIAN_POINT ( 'NONE',  ( 45.92893218813446765, 4.000000000000000000, 5.000000000000001776 ) ) ;
#138 = ORIENTED_EDGE ( 'NONE', *, *, #227, .T. ) ;
#139 = ORIENTED_EDGE ( 'NONE', *, *, #718, .T. ) ;
#140 = CARTESIAN_POINT ( 'NONE',  ( 23.99999999999999645, 4.000000000000000000, 7.000000000000003553 ) ) ;
#141 = DIRECTION ( 'NONE',  ( -0.7071067811865487940, 0.000000000000000000, 0.7071067811865463515 ) ) ;
#142 = EDGE_CURVE ( 'NONE', #228, #1006, #508, .T. ) ;
#143 = ORIENTED_EDGE ( 'NONE', *, *, #876, .F. ) ;
#144 = DIRECTION ( 'NONE',  ( 0.000000000000000000, 0.000000000000000000, -1.000000000000000000 ) ) ;
#145 = VERTEX_POINT ( 'NONE', #320 ) ;
#146 = FACE_BOUND ( 'NONE', #963, .T. ) ;
#147 = EDGE_CURVE ( 'NONE', #453, #938, #405, .T. ) ;
#148 = ORIENTED_EDGE ( 'NONE', *, *, #535, .T. ) ;
#149 = CARTESIAN_POINT ( 'NONE',  ( 36.00000000000000000, 0.000000000000000000, -3.999999999999996447 ) ) ;
#150 = ORIENTED_EDGE ( 'NONE', *, *, #633, .T. ) ;
#151 = CIRCLE ( 'NONE', #520, 1.500000000000004885 ) ;
#152 = FACE_OUTER_BOUND ( 'NONE', #391, .T. ) ;
#153 = AXIS2_PLACEMENT_3D ( 'NONE', #459, #778, #61 ) ;
#154 = ADVANCED_FACE ( 'NONE', ( #571 ), #887, .F. ) ;
#155 = LINE ( 'NONE', #77, #944 ) ;
#156 = VERTEX_POINT ( 'NONE', #409 ) ;
#157 = CIRCLE ( 'NONE', #740, 1.000000000000001332 ) ;
#158 = LINE ( 'NONE', #172, #31 ) ;
#159 = CYLINDRICAL_SURFACE ( 'NONE', #37, 1.500000000000004885 ) ;
#160 = AXIS2_PLACEMENT_3D ( 'NONE', #972, #737, #890 ) ;
#161 = PERSON_AND_ORGANIZATION ( #233, #902 ) ;
#162 = ORIENTED_EDGE ( 'NONE', *, *, #98, .T. ) ;
#163 = EDGE_CURVE ( 'NONE', #201, #836, #686, .T. ) ;
#164 = SECURITY_CLASSIFICATION ( '', '', #180 ) ;
#165 = VECTOR ( 'NONE', #484, 1000.000000000000000 ) ;
#166 = CARTESIAN_POINT ( 'NONE',  ( 60.00000000000000000, 4.000000000000000000, -22.00000000000000000 ) ) ;
#167 = VECTOR ( 'NONE', #235, 1000.000000000000000 ) ;
#168 = FACE_OUTER_BOUND ( 'NONE', #671, .T. ) ;
#169 = CALENDAR_DATE ( 2026, 8, 5 ) ;
#170 = VERTEX_POINT ( 'NONE', #331 ) ;
#171 = EDGE_CURVE ( 'NONE', #735, #907, #955, .T. ) ;
#172 = CARTESIAN_POINT ( 'NONE',  ( 40.00000000000000000, 4.000000000000000000, -12.99999999999999822 ) ) ;
#173 = CARTESIAN_POINT ( 'NONE',  ( 40.00000000000000000, 4.000000000000000000, 0.000000000000000000 ) ) ;
#174 = SHAPE_DEFINITION_REPRESENTATION ( #192, #985 ) ;
#175 = AXIS2_PLACEMENT_3D ( 'NONE', #581, #400, #635 ) ;
#176 = VERTEX_POINT ( 'NONE', #502 ) ;
#177 = CIRCLE ( 'NONE', #762, 1.500000000000004885 ) ;
#178 = CARTESIAN_POINT ( 'NONE',  ( 60.00000000000000000, 4.000000000000000000, -19.00000000000000000 ) ) ;
#179 = CARTESIAN_POINT ( 'NONE',  ( 61.53553390593273775, 4.000000000000000000, -3.535533905932749299 ) ) ;
#180 = SECURITY_CLASSIFICATION_LEVEL ( 'unclassified' ) ;
#181 = ORIENTED_EDGE ( 'NONE', *, *, #736, .F. ) ;
#182 = CARTESIAN_POINT ( 'NONE',  ( 56.00000000000000000, 0.000000000000000000, -18.00000000000000000 ) ) ;
#183 = DIRECTION ( 'NONE',  ( 0.000000000000000000, 0.000000000000000000, -1.000000000000000000 ) ) ;
#184 = COORDINATED_UNIVERSAL_TIME_OFFSET ( 8, 0, .AHEAD. ) ;
#185 = EDGE_CURVE ( 'NONE', #893, #905, #6, .T. ) ;
#186 = EDGE_LOOP ( 'NONE', ( #421, #976 ) ) ;
#187 = LINE ( 'NONE', #993, #745 ) ;
#188 = AXIS2_PLACEMENT_3D ( 'NONE', #418, #413, #344 ) ;
#189 = CARTESIAN_POINT ( 'NONE',  ( 36.00000000000000000, 4.000000000000000000, -2.999999999999998224 ) ) ;
#190 = EDGE_CURVE ( 'NONE', #879, #673, #16, .T. ) ;
#191 = EDGE_LOOP ( 'NONE', ( #226, #278 ) ) ;
#192 = PRODUCT_DEFINITION_SHAPE ( 'NONE', 'NONE',  #530 ) ;
#193 = LINE ( 'NONE', #431, #485 ) ;
#194 = ORIENTED_EDGE ( 'NONE', *, *, #627, .T. ) ;
#195 = EDGE_CURVE ( 'NONE', #1006, #228, #309, .T. ) ;
#196 = AXIS2_PLACEMENT_3D ( 'NONE', #555, #392, #545 ) ;
#197 = LINE ( 'NONE', #507, #204 ) ;
#198 = CIRCLE ( 'NONE', #919, 5.000000000000000000 ) ;
#199 = ORIENTED_EDGE ( 'NONE', *, *, #847, .F. ) ;
#200 = CC_DESIGN_APPROVAL ( #517, ( #530 ) ) ;
#201 = VERTEX_POINT ( 'NONE', #797 ) ;
#202 = EDGE_CURVE ( 'NONE', #1006, #893, #285, .T. ) ;
#203 = DIRECTION ( 'NONE',  ( -0.000000000000000000, -1.000000000000000000, -0.000000000000000000 ) ) ;
#204 = VECTOR ( 'NONE', #757, 1000.000000000000000 ) ;
#205 = CC_DESIGN_PERSON_AND_ORGANIZATION_ASSIGNMENT ( #62, #305, ( #760 ) ) ;
#206 = ORIENTED_EDGE ( 'NONE', *, *, #326, .T. ) ;
#207 = VECTOR ( 'NONE', #183, 1000.000000000000000 ) ;
#208 = CARTESIAN_POINT ( 'NONE',  ( 63.00000000000000000, 0.000000000000000000, -7.071067811865491493 ) ) ;
#209 = DIRECTION ( 'NONE',  ( 7.542275982507857147E-17, -0.000000000000000000, 1.000000000000000000 ) ) ;
#210 = EDGE_LOOP ( 'NONE', ( #439, #631, #828, #138 ) ) ;
#211 = DIRECTION ( 'NONE',  ( 0.000000000000000000, 0.000000000000000000, 1.000000000000000000 ) ) ;
#212 = AXIS2_PLACEMENT_3D ( 'NONE', #501, #606, #367 ) ;
#213 = DIRECTION ( 'NONE',  ( -0.000000000000000000, 1.000000000000000000, 0.000000000000000000 ) ) ;
#214 = EDGE_CURVE ( 'NONE', #599, #453, #259, .T. ) ;
#215 = PLANE ( 'NONE',  #896 ) ;
#216 = CARTESIAN_POINT ( 'NONE',  ( 36.00000000000000000, 4.000000000000000000, -3.999999999999996447 ) ) ;
#217 = ORIENTED_EDGE ( 'NONE', *, *, #147, .F. ) ;
#218 = CARTESIAN_POINT ( 'NONE',  ( 0.000000000000000000, 0.000000000000000000, 0.000000000000000000 ) ) ;
#219 = ORIENTED_EDGE ( 'NONE', *, *, #759, .T. ) ;
#220 = MECHANICAL_CONTEXT ( 'NONE', #82, 'mechanical' ) ;
#221 = EDGE_LOOP ( 'NONE', ( #779, #741, #230, #901 ) ) ;
#222 = FACE_BOUND ( 'NONE', #32, .T. ) ;
#223 = VECTOR ( 'NONE', #13, 1000.000000000000000 ) ;
#224 = ORIENTED_EDGE ( 'NONE', *, *, #214, .T. ) ;
#225 =( NAMED_UNIT ( * ) PLANE_ANGLE_UNIT ( ) SI_UNIT ( $, .RADIAN. ) );
#226 = ORIENTED_EDGE ( 'NONE', *, *, #369, .F. ) ;
#227 = EDGE_CURVE ( 'NONE', #283, #176, #197, .T. ) ;
#228 = VERTEX_POINT ( 'NONE', #986 ) ;
#229 = CARTESIAN_POINT ( 'NONE',  ( 23.99999999999999645, 0.000000000000000000, -6.999999999999998224 ) ) ;
#230 = ORIENTED_EDGE ( 'NONE', *, *, #3, .F. ) ;
#231 = CARTESIAN_POINT ( 'NONE',  ( 37.00000000000000000, 4.000000000000000000, -9.999999999999998224 ) ) ;
#232 = EDGE_CURVE ( 'NONE', #110, #855, #20, .T. ) ;
#233 = PERSON ( 'æœª', 'æœª', 'æœª', ('æœª'), ('æœª'), ('æœª') ) ;
#234 = DIRECTION ( 'NONE',  ( 0.000000000000000000, 0.000000000000000000, -1.000000000000000000 ) ) ;
#235 = DIRECTION ( 'NONE',  ( 1.000000000000000000, -0.000000000000000000, 0.000000000000000000 ) ) ;
#236 = ORIENTED_EDGE ( 'NONE', *, *, #190, .T. ) ;
#237 = VECTOR ( 'NONE', #277, 1000.000000000000000 ) ;
#238 = LINE ( 'NONE', #491, #24 ) ;
#239 = CARTESIAN_POINT ( 'NONE',  ( 23.99999999999999645, 4.000000000000000000, -3.999999999999997335 ) ) ;
#240 = CYLINDRICAL_SURFACE ( 'NONE', #196, 5.000000000000000000 ) ;
#241 = ORIENTED_EDGE ( 'NONE', *, *, #120, .F. ) ;
#242 = LINE ( 'NONE', #8, #165 ) ;
#243 = CARTESIAN_POINT ( 'NONE',  ( 0.000000000000000000, 0.000000000000000000, -22.00000000000000000 ) ) ;
#244 = AXIS2_PLACEMENT_3D ( 'NONE', #182, #448, #894 ) ;
#245 = EDGE_CURVE ( 'NONE', #855, #110, #151, .T. ) ;
#246 = ORIENTED_EDGE ( 'NONE', *, *, #841, .T. ) ;
#247 = AXIS2_PLACEMENT_3D ( 'NONE', #477, #314, #704 ) ;
#248 = DIRECTION ( 'NONE',  ( 0.000000000000000000, 0.000000000000000000, -1.000000000000000000 ) ) ;
#249 = DIRECTION ( 'NONE',  ( 0.000000000000000000, 1.000000000000000000, -0.000000000000000000 ) ) ;
#250 = CIRCLE ( 'NONE', #387, 0.9999999999999983347 ) ;
#251 = CARTESIAN_POINT ( 'NONE',  ( 20.99999999999999645, 4.000000000000000000, 7.000000000000003553 ) ) ;
#252 = PERSON_AND_ORGANIZATION_ROLE ( 'creator' ) ;
#253 = ORIENTED_EDGE ( 'NONE', *, *, #558, .T. ) ;
#254 = CIRCLE ( 'NONE', #829, 1.000000000000001776 ) ;
#255 = DIRECTION ( 'NONE',  ( -0.000000000000000000, -1.000000000000000000, 0.000000000000000000 ) ) ;
#256 = CC_DESIGN_DATE_AND_TIME_ASSIGNMENT ( #258, #878, ( #164 ) ) ;
#257 = CARTESIAN_POINT ( 'NONE',  ( 23.99999999999999645, 0.000000000000000000, -3.999999999999997335 ) ) ;
#258 = DATE_AND_TIME ( #270, #565 ) ;
#259 = CIRCLE ( 'NONE', #438, 5.000000000000000000 ) ;
#260 = ORIENTED_EDGE ( 'NONE', *, *, #171, .F. ) ;
#261 = CIRCLE ( 'NONE', #674, 0.9999999999999983347 ) ;
#262 = DIRECTION ( 'NONE',  ( 0.000000000000000000, 0.000000000000000000, 1.000000000000000000 ) ) ;
#263 = DIRECTION ( 'NONE',  ( 0.000000000000000000, 1.000000000000000000, -0.000000000000000000 ) ) ;
#264 = LINE ( 'NONE', #243, #492 ) ;
#265 = APPROVAL_ROLE ( '' ) ;
#266 = ORIENTED_EDGE ( 'NONE', *, *, #202, .F. ) ;
#267 = CARTESIAN_POINT ( 'NONE',  ( 60.00000000000000000, 0.000000000000000000, -19.00000000000000000 ) ) ;
#268 = EDGE_CURVE ( 'NONE', #287, #670, #282, .T. ) ;
#269 = DIRECTION ( 'NONE',  ( 0.000000000000000000, 0.000000000000000000, 1.000000000000000000 ) ) ;
#270 = CALENDAR_DATE ( 2026, 8, 5 ) ;
#271 = ORIENTED_EDGE ( 'NONE', *, *, #826, .F. ) ;
#272 = CARTESIAN_POINT ( 'NONE',  ( 36.00000000000000000, 4.000000000000000000, -4.999999999999994671 ) ) ;
#273 = LINE ( 'NONE', #590, #103 ) ;
#274 = DIRECTION ( 'NONE',  ( 0.000000000000000000, 1.000000000000000000, -0.000000000000000000 ) ) ;
#275 = EDGE_CURVE ( 'NONE', #416, #867, #672, .T. ) ;
#276 = EDGE_LOOP ( 'NONE', ( #401, #139, #824, #983 ) ) ;
#277 = DIRECTION ( 'NONE',  ( -0.000000000000000000, -1.000000000000000000, -0.000000000000000000 ) ) ;
#278 = ORIENTED_EDGE ( 'NONE', *, *, #326, .F. ) ;
#279 = EDGE_CURVE ( 'NONE', #170, #201, #904, .T. ) ;
#280 = ORIENTED_EDGE ( 'NONE', *, *, #521, .F. ) ;
#281 = CC_DESIGN_PERSON_AND_ORGANIZATION_ASSIGNMENT ( #721, #252, ( #463 ) ) ;
#282 = LINE ( 'NONE', #124, #682 ) ;
#283 = VERTEX_POINT ( 'NONE', #991 ) ;
#284 = DIRECTION ( 'NONE',  ( -0.000000000000000000, -1.000000000000000000, 0.000000000000000000 ) ) ;
#285 = LINE ( 'NONE', #664, #703 ) ;
#286 = AXIS2_PLACEMENT_3D ( 'NONE', #738, #669, #429 ) ;
#287 = VERTEX_POINT ( 'NONE', #585 ) ;
#288 = DIRECTION ( 'NONE',  ( 0.000000000000000000, -1.000000000000000000, -0.000000000000000000 ) ) ;
#289 = FACE_OUTER_BOUND ( 'NONE', #56, .T. ) ;
#290 = EDGE_CURVE ( 'NONE', #592, #681, #897, .T. ) ;
#291 = DIRECTION ( 'NONE',  ( -0.000000000000000000, -1.000000000000000000, -0.000000000000000000 ) ) ;
#292 = CARTESIAN_POINT ( 'NONE',  ( 48.00000000000000000, 0.000000000000000000, -16.49999999999999289 ) ) ;
#293 = CIRCLE ( 'NONE', #244, 1.500000000000004885 ) ;
#294 = CARTESIAN_POINT ( 'NONE',  ( 45.92893218813446765, 4.000000000000000000, 10.00000000000000178 ) ) ;
#295 = ADVANCED_FACE ( 'NONE', ( #365 ), #522, .T. ) ;
#296 = VECTOR ( 'NONE', #321, 1000.000000000000000 ) ;
#297 = PLANE ( 'NONE',  #153 ) ;
#298 = DIRECTION ( 'NONE',  ( 1.000000000000000000, 0.000000000000000000, 0.000000000000000000 ) ) ;
#299 = ORIENTED_EDGE ( 'NONE', *, *, #725, .F. ) ;
#300 = CC_DESIGN_DATE_AND_TIME_ASSIGNMENT ( #499, #888, ( #530 ) ) ;
#301 = DIRECTION ( 'NONE',  ( 0.000000000000000000, -1.000000000000000000, 0.000000000000000000 ) ) ;
#302 = DESIGN_CONTEXT ( 'detailed design', #935, 'design' ) ;
#303 = AXIS2_PLACEMENT_3D ( 'NONE', #319, #634, #486 ) ;
#304 = ORIENTED_EDGE ( 'NONE', *, *, #535, .F. ) ;
#305 = PERSON_AND_ORGANIZATION_ROLE ( 'design_owner' ) ;
#306 = EDGE_CURVE ( 'NONE', #464, #110, #426, .T. ) ;
#307 = ORIENTED_EDGE ( 'NONE', *, *, #39, .F. ) ;
#308 = DIRECTION ( 'NONE',  ( 0.000000000000000000, 0.000000000000000000, 1.000000000000000000 ) ) ;
#309 = CIRCLE ( 'NONE', #880, 1.000000000000001332 ) ;
#310 = ORIENTED_EDGE ( 'NONE', *, *, #313, .F. ) ;
#311 = CYLINDRICAL_SURFACE ( 'NONE', #65, 0.9999999999999983347 ) ;
#312 = VERTEX_POINT ( 'NONE', #189 ) ;
#313 = EDGE_CURVE ( 'NONE', #333, #709, #323, .T. ) ;
#314 = DIRECTION ( 'NONE',  ( -0.000000000000000000, -1.000000000000000000, 0.000000000000000000 ) ) ;
#315 = EDGE_LOOP ( 'NONE', ( #447, #611 ) ) ;
#316 = FACE_OUTER_BOUND ( 'NONE', #637, .T. ) ;
#317 = ORIENTED_EDGE ( 'NONE', *, *, #95, .F. ) ;
#318 = CARTESIAN_POINT ( 'NONE',  ( 23.99999999999999645, 0.000000000000000000, -3.999999999999997335 ) ) ;
#319 = CARTESIAN_POINT ( 'NONE',  ( 58.00000000000000000, 4.000000000000000000, -7.071067811865491493 ) ) ;
#320 = CARTESIAN_POINT ( 'NONE',  ( 36.00000000000000000, 4.000000000000000000, 5.000000000000001776 ) ) ;
#321 = DIRECTION ( 'NONE',  ( -0.000000000000000000, -1.000000000000000000, -0.000000000000000000 ) ) ;
#322 = VERTEX_POINT ( 'NONE', #747 ) ;
#323 = CIRCLE ( 'NONE', #286, 0.9999999999999983347 ) ;
#324 = CARTESIAN_POINT ( 'NONE',  ( 23.99999999999999645, 4.000000000000000000, 4.000000000000000888 ) ) ;
#325 = CARTESIAN_POINT ( 'NONE',  ( 20.99999999999999645, 4.000000000000000000, 0.000000000000000000 ) ) ;
#326 = EDGE_CURVE ( 'NONE', #170, #785, #573, .T. ) ;
#327 = CARTESIAN_POINT ( 'NONE',  ( 63.00000000000000000, 4.000000000000000000, -5.000000000000010658 ) ) ;
#328 = VECTOR ( 'NONE', #930, 1000.000000000000000 ) ;
#329 = ORIENTED_EDGE ( 'NONE', *, *, #433, .F. ) ;
#330 = CYLINDRICAL_SURFACE ( 'NONE', #750, 1.000000000000001776 ) ;
#331 = CARTESIAN_POINT ( 'NONE',  ( 56.00000000000000000, 4.000000000000000000, -16.49999999999999289 ) ) ;
#332 = DATE_AND_TIME ( #169, #432 ) ;
#333 = VERTEX_POINT ( 'NONE', #435 ) ;
#334 = AXIS2_PLACEMENT_3D ( 'NONE', #229, #549, #630 ) ;
#335 = ADVANCED_FACE ( 'NONE', ( #595 ), #351, .F. ) ;
#336 = CARTESIAN_POINT ( 'NONE',  ( 23.99999999999999645, 0.000000000000000000, 2.999999999999999112 ) ) ;
#337 = CIRCLE ( 'NONE', #515, 0.9999999999999983347 ) ;
#338 = CYLINDRICAL_SURFACE ( 'NONE', #53, 1.000000000000001776 ) ;
#339 = APPROVAL_DATE_TIME ( #91, #517 ) ;
#340 = ORIENTED_EDGE ( 'NONE', *, *, #120, .T. ) ;
#341 = EDGE_CURVE ( 'NONE', #407, #832, #827, .T. ) ;
#342 = AXIS2_PLACEMENT_3D ( 'NONE', #28, #354, #667 ) ;
#343 = DIRECTION ( 'NONE',  ( -0.000000000000000000, -1.000000000000000000, 0.000000000000000000 ) ) ;
#344 = DIRECTION ( 'NONE',  ( 0.000000000000000000, 0.000000000000000000, -1.000000000000000000 ) ) ;
#345 = DIRECTION ( 'NONE',  ( 0.000000000000000000, 0.000000000000000000, -1.000000000000000000 ) ) ;
#346 = CLOSED_SHELL ( 'NONE', ( #814, #1004, #58, #483, #89, #114, #295, #822, #17, #382, #80, #106, #742, #989, #390, #908, #154, #335, #642, #541, #754, #126, #11, #527, #510, #84, #420, #959 ) ) ;
#347 = ORIENTED_EDGE ( 'NONE', *, *, #355, .T. ) ;
#348 = VECTOR ( 'NONE', #1018, 1000.000000000000000 ) ;
#349 = EDGE_CURVE ( 'NONE', #987, #938, #781, .T. ) ;
#350 = DIRECTION ( 'NONE',  ( -0.000000000000000000, -1.000000000000000000, -0.000000000000000000 ) ) ;
#351 = CYLINDRICAL_SURFACE ( 'NONE', #892, 1.500000000000004885 ) ;
#352 = ORIENTED_EDGE ( 'NONE', *, *, #968, .T. ) ;
#353 = LINE ( 'NONE', #417, #381 ) ;
#354 = DIRECTION ( 'NONE',  ( -0.000000000000000000, -1.000000000000000000, -0.000000000000000000 ) ) ;
#355 = EDGE_CURVE ( 'NONE', #453, #999, #623, .T. ) ;
#356 = CARTESIAN_POINT ( 'NONE',  ( 56.00000000000000000, 4.000000000000000000, -18.00000000000000000 ) ) ;
#357 = ORIENTED_EDGE ( 'NONE', *, *, #232, .F. ) ;
#358 = DIRECTION ( 'NONE',  ( -0.000000000000000000, -1.000000000000000000, -0.000000000000000000 ) ) ;
#359 = EDGE_CURVE ( 'NONE', #322, #728, #734, .T. ) ;
#360 = ORIENTED_EDGE ( 'NONE', *, *, #633, .F. ) ;
#361 = VECTOR ( 'NONE', #926, 1000.000000000000000 ) ;
#362 = DIRECTION ( 'NONE',  ( -1.387778780781445676E-15, 0.000000000000000000, 1.000000000000000000 ) ) ;
#363 = ORIENTED_EDGE ( 'NONE', *, *, #759, .F. ) ;
#364 = ORIENTED_EDGE ( 'NONE', *, *, #275, .T. ) ;
#365 = FACE_OUTER_BOUND ( 'NONE', #643, .T. ) ;
#366 = VERTEX_POINT ( 'NONE', #699 ) ;
#367 = DIRECTION ( 'NONE',  ( 0.000000000000000000, 0.000000000000000000, 1.000000000000000000 ) ) ;
#368 = ORIENTED_EDGE ( 'NONE', *, *, #142, .T. ) ;
#369 = EDGE_CURVE ( 'NONE', #785, #170, #600, .T. ) ;
#370 = CARTESIAN_POINT ( 'NONE',  ( 23.99999999999999645, 0.000000000000000000, 7.000000000000003553 ) ) ;
#371 = VECTOR ( 'NONE', #358, 1000.000000000000000 ) ;
#372 = ORIENTED_EDGE ( 'NONE', *, *, #886, .T. ) ;
#373 = CARTESIAN_POINT ( 'NONE',  ( 23.99999999999999645, 0.000000000000000000, 4.000000000000000888 ) ) ;
#374 = CIRCLE ( 'NONE', #175, 0.9999999999999983347 ) ;
#375 = EDGE_CURVE ( 'NONE', #748, #145, #940, .T. ) ;
#376 = DIRECTION ( 'NONE',  ( 0.000000000000000000, 1.000000000000000000, -0.000000000000000000 ) ) ;
#377 = UNCERTAINTY_MEASURE_WITH_UNIT (LENGTH_MEASURE( 1.000000000000000082E-05 ), #715, 'distance_accuracy_value', 'NONE');
#378 = DIRECTION ( 'NONE',  ( -0.000000000000000000, -1.000000000000000000, -0.000000000000000000 ) ) ;
#379 = FACE_OUTER_BOUND ( 'NONE', #411, .T. ) ;
#380 = ORIENTED_EDGE ( 'NONE', *, *, #965, .F. ) ;
#381 = VECTOR ( 'NONE', #428, 1000.000000000000000 ) ;
#382 = ADVANCED_FACE ( 'NONE', ( #608 ), #914, .T. ) ;
#383 = CIRCLE ( 'NONE', #954, 0.9999999999999983347 ) ;
#384 = FACE_OUTER_BOUND ( 'NONE', #466, .T. ) ;
#385 = DIRECTION ( 'NONE',  ( -0.000000000000000000, -1.000000000000000000, -0.000000000000000000 ) ) ;
#386 = EDGE_LOOP ( 'NONE', ( #538, #650, #219, #764 ) ) ;
#387 = AXIS2_PLACEMENT_3D ( 'NONE', #149, #470, #135 ) ;
#388 = DIRECTION ( 'NONE',  ( -0.000000000000000000, 1.000000000000000000, -0.000000000000000000 ) ) ;
#389 = CIRCLE ( 'NONE', #961, 5.000000000000000000 ) ;
#390 = ADVANCED_FACE ( 'NONE', ( #941 ), #804, .F. ) ;
#391 = EDGE_LOOP ( 'NONE', ( #656, #918, #128, #1016 ) ) ;
#392 = DIRECTION ( 'NONE',  ( 0.000000000000000000, -1.000000000000000000, 0.000000000000000000 ) ) ;
#393 = VERTEX_POINT ( 'NONE', #719 ) ;
#394 = DIRECTION ( 'NONE',  ( -0.000000000000000000, -1.000000000000000000, 0.000000000000000000 ) ) ;
#395 = ORIENTED_EDGE ( 'NONE', *, *, #1010, .F. ) ;
#396 = CYLINDRICAL_SURFACE ( 'NONE', #436, 0.9999999999999983347 ) ;
#397 = EDGE_LOOP ( 'NONE', ( #665, #63 ) ) ;
#398 = CARTESIAN_POINT ( 'NONE',  ( 56.00000000000000000, 4.000000000000000000, -19.50000000000000355 ) ) ;
#399 = FACE_OUTER_BOUND ( 'NONE', #582, .T. ) ;
#400 = DIRECTION ( 'NONE',  ( -0.000000000000000000, -1.000000000000000000, 0.000000000000000000 ) ) ;
#401 = ORIENTED_EDGE ( 'NONE', *, *, #835, .F. ) ;
#402 = EDGE_CURVE ( 'NONE', #464, #943, #1013, .T. ) ;
#403 = DIRECTION ( 'NONE',  ( 0.000000000000000000, 0.000000000000000000, 1.000000000000000000 ) ) ;
#404 = LINE ( 'NONE', #325, #553 ) ;
#405 = LINE ( 'NONE', #179, #658 ) ;
#406 = COORDINATED_UNIVERSAL_TIME_OFFSET ( 8, 0, .AHEAD. ) ;
#407 = VERTEX_POINT ( 'NONE', #14 ) ;
#408 = DIRECTION ( 'NONE',  ( 0.000000000000000000, 0.000000000000000000, 1.000000000000000000 ) ) ;
#409 = CARTESIAN_POINT ( 'NONE',  ( 23.99999999999999645, 4.000000000000000000, 2.999999999999999112 ) ) ;
#410 = PERSON_AND_ORGANIZATION_ROLE ( 'creator' ) ;
#411 = EDGE_LOOP ( 'NONE', ( #241, #910, #519, #1025 ) ) ;
#412 = CARTESIAN_POINT ( 'NONE',  ( 23.99999999999999645, 0.000000000000000000, 4.000000000000000888 ) ) ;
#413 = DIRECTION ( 'NONE',  ( -0.000000000000000000, -1.000000000000000000, -0.000000000000000000 ) ) ;
#414 = DIRECTION ( 'NONE',  ( 0.000000000000000000, 0.000000000000000000, 1.000000000000000000 ) ) ;
#415 = EDGE_CURVE ( 'NONE', #776, #322, #474, .T. ) ;
#416 = VERTEX_POINT ( 'NONE', #83 ) ;
#417 = CARTESIAN_POINT ( 'NONE',  ( 49.46446609406719830, 4.000000000000000000, 8.535533905932746634 ) ) ;
#418 = CARTESIAN_POINT ( 'NONE',  ( 23.99999999999999645, 4.000000000000000000, -3.999999999999997335 ) ) ;
#419 = LINE ( 'NONE', #251, #473 ) ;
#420 = ADVANCED_FACE ( 'NONE', ( #399 ), #712, .T. ) ;
#421 = ORIENTED_EDGE ( 'NONE', *, *, #375, .F. ) ;
#422 = AXIS2_PLACEMENT_3D ( 'NONE', #356, #513, #25 ) ;
#423 = DIRECTION ( 'NONE',  ( 0.000000000000000000, 1.000000000000000000, -0.000000000000000000 ) ) ;
#424 = APPROVAL ( #86, 'æœª' ) ;
#425 = CARTESIAN_POINT ( 'NONE',  ( 23.99999999999999645, 4.000000000000000000, -6.999999999999998224 ) ) ;
#426 = LINE ( 'NONE', #981, #371 ) ;
#427 = ORIENTED_EDGE ( 'NONE', *, *, #586, .T. ) ;
#428 = DIRECTION ( 'NONE',  ( -0.000000000000000000, -1.000000000000000000, -0.000000000000000000 ) ) ;
#429 = DIRECTION ( 'NONE',  ( 0.000000000000000000, 0.000000000000000000, 1.000000000000000000 ) ) ;
#430 = ORIENTED_EDGE ( 'NONE', *, *, #847, .T. ) ;
#431 = CARTESIAN_POINT ( 'NONE',  ( 23.99999999999999645, 4.000000000000000000, 2.999999999999999112 ) ) ;
#432 = LOCAL_TIME ( 16, 44, 13.00000000000000000, #739 ) ;
#433 = EDGE_CURVE ( 'NONE', #416, #761, #404, .T. ) ;
#434 = FACE_OUTER_BOUND ( 'NONE', #820, .T. ) ;
#435 = CARTESIAN_POINT ( 'NONE',  ( 36.00000000000000000, 0.000000000000000000, 3.000000000000005329 ) ) ;
#436 = AXIS2_PLACEMENT_3D ( 'NONE', #856, #385, #560 ) ;
#437 = EDGE_LOOP ( 'NONE', ( #596, #574, #380, #455 ) ) ;
#438 = AXIS2_PLACEMENT_3D ( 'NONE', #38, #678, #362 ) ;
#439 = ORIENTED_EDGE ( 'NONE', *, *, #568, .T. ) ;
#440 = DIRECTION ( 'NONE',  ( 0.000000000000000000, 0.000000000000000000, 1.000000000000000000 ) ) ;
#441 = DIRECTION ( 'NONE',  ( 0.000000000000000000, 1.000000000000000000, -0.000000000000000000 ) ) ;
#442 = EDGE_CURVE ( 'NONE', #176, #416, #121, .T. ) ;
#443 = EDGE_LOOP ( 'NONE', ( #898, #556, #329, #364 ) ) ;
#444 = ORIENTED_EDGE ( 'NONE', *, *, #710, .T. ) ;
#445 = FACE_BOUND ( 'NONE', #186, .T. ) ;
#446 = DIRECTION ( 'NONE',  ( 0.000000000000000000, 0.000000000000000000, 1.000000000000000000 ) ) ;
#447 = ORIENTED_EDGE ( 'NONE', *, *, #449, .T. ) ;
#448 = DIRECTION ( 'NONE',  ( 0.000000000000000000, 1.000000000000000000, -0.000000000000000000 ) ) ;
#449 = EDGE_CURVE ( 'NONE', #156, #592, #254, .T. ) ;
#450 = CARTESIAN_POINT ( 'NONE',  ( 0.000000000000000000, 4.000000000000000000, -9.999999999999998224 ) ) ;
#451 = CARTESIAN_POINT ( 'NONE',  ( 7.542275982507861091E-16, 4.000000000000000000, 10.00000000000000533 ) ) ;
#452 = VECTOR ( 'NONE', #849, 1000.000000000000000 ) ;
#453 = VERTEX_POINT ( 'NONE', #584 ) ;
#454 = CARTESIAN_POINT ( 'NONE',  ( 49.46446609406719830, 4.000000000000000000, 8.535533905932746634 ) ) ;
#455 = ORIENTED_EDGE ( 'NONE', *, *, #275, .F. ) ;
#456 = AXIS2_PLACEMENT_3D ( 'NONE', #609, #916, #533 ) ;
#457 = FACE_BOUND ( 'NONE', #624, .T. ) ;
#458 = DIRECTION ( 'NONE',  ( 0.000000000000000000, 1.000000000000000000, -0.000000000000000000 ) ) ;
#459 = CARTESIAN_POINT ( 'NONE',  ( 0.000000000000000000, 4.000000000000000000, -9.999999999999998224 ) ) ;
#460 = ORIENTED_EDGE ( 'NONE', *, *, #306, .F. ) ;
#461 = CARTESIAN_POINT ( 'NONE',  ( 63.00000000000000000, 4.000000000000000000, 0.000000000000000000 ) ) ;
#462 = EDGE_CURVE ( 'NONE', #938, #958, #389, .T. ) ;
#463 = PRODUCT_DEFINITION_FORMATION_WITH_SPECIFIED_SOURCE ( 'ä»', '', #760, .NOT_KNOWN. ) ;
#464 = VERTEX_POINT ( 'NONE', #818 ) ;
#465 = DIRECTION ( 'NONE',  ( 0.000000000000000000, 0.000000000000000000, 1.000000000000000000 ) ) ;
#466 = EDGE_LOOP ( 'NONE', ( #495, #783, #857, #43 ) ) ;
#467 = CARTESIAN_POINT ( 'NONE',  ( 45.92893218813446765, 0.000000000000000000, 10.00000000000000178 ) ) ;
#468 = VECTOR ( 'NONE', #203, 1000.000000000000000 ) ;
#469 = CARTESIAN_POINT ( 'NONE',  ( 48.00000000000000000, 0.000000000000000000, -18.00000000000000000 ) ) ;
#470 = DIRECTION ( 'NONE',  ( -0.000000000000000000, -1.000000000000000000, 0.000000000000000000 ) ) ;
#471 = ORIENTED_EDGE ( 'NONE', *, *, #3, .T. ) ;
#472 = CARTESIAN_POINT ( 'NONE',  ( 40.00000000000000000, 4.000000000000000000, -12.99999999999999822 ) ) ;
#473 = VECTOR ( 'NONE', #947, 1000.000000000000000 ) ;
#474 = LINE ( 'NONE', #76, #756 ) ;
#475 = FACE_OUTER_BOUND ( 'NONE', #889, .T. ) ;
#476 = ORIENTED_EDGE ( 'NONE', *, *, #854, .F. ) ;
#477 = CARTESIAN_POINT ( 'NONE',  ( 23.99999999999999645, 4.000000000000000000, 4.000000000000000888 ) ) ;
#478 = CIRCLE ( 'NONE', #689, 2.999999999999999112 ) ;
#479 = DIRECTION ( 'NONE',  ( 0.000000000000000000, 0.000000000000000000, 1.000000000000000000 ) ) ;
#480 = COORDINATED_UNIVERSAL_TIME_OFFSET ( 8, 0, .AHEAD. ) ;
#481 = CIRCLE ( 'NONE', #570, 3.000000000000000000 ) ;
#482 = ORIENTED_EDGE ( 'NONE', *, *, #349, .T. ) ;
#483 = ADVANCED_FACE ( 'NONE', ( #434 ), #744, .F. ) ;
#484 = DIRECTION ( 'NONE',  ( 0.000000000000000000, 0.000000000000000000, 1.000000000000000000 ) ) ;
#485 = VECTOR ( 'NONE', #732, 1000.000000000000000 ) ;
#486 = DIRECTION ( 'NONE',  ( 0.000000000000000000, 0.000000000000000000, 1.000000000000000000 ) ) ;
#487 = DIRECTION ( 'NONE',  ( 0.000000000000000000, -1.000000000000000000, 0.000000000000000000 ) ) ;
#488 = APPROVAL_DATE_TIME ( #332, #817 ) ;
#489 = VECTOR ( 'NONE', #141, 999.9999999999998863 ) ;
#490 = ORIENTED_EDGE ( 'NONE', *, *, #886, .F. ) ;
#491 = CARTESIAN_POINT ( 'NONE',  ( 43.00000000000000000, 4.000000000000000000, -22.00000000000000000 ) ) ;
#492 = VECTOR ( 'NONE', #659, 1000.000000000000000 ) ;
#493 = DIRECTION ( 'NONE',  ( 0.000000000000000000, 0.000000000000000000, -1.000000000000000000 ) ) ;
#494 = VECTOR ( 'NONE', #881, 1000.000000000000000 ) ;
#495 = ORIENTED_EDGE ( 'NONE', *, *, #355, .F. ) ;
#496 = LINE ( 'NONE', #575, #348 ) ;
#497 = EDGE_CURVE ( 'NONE', #661, #366, #273, .T. ) ;
#498 = CARTESIAN_POINT ( 'NONE',  ( 36.00000000000000000, 4.000000000000000000, -4.999999999999994671 ) ) ;
#499 = DATE_AND_TIME ( #956, #15 ) ;
#500 = EDGE_LOOP ( 'NONE', ( #626, #26, #199, #789 ) ) ;
#501 = CARTESIAN_POINT ( 'NONE',  ( 43.00000000000000000, 4.000000000000000000, -19.00000000000000000 ) ) ;
#502 = CARTESIAN_POINT ( 'NONE',  ( 23.99999999999999645, 4.000000000000000000, -9.999999999999998224 ) ) ;
#503 = VERTEX_POINT ( 'NONE', #512 ) ;
#504 = AXIS2_PLACEMENT_3D ( 'NONE', #1009, #458, #70 ) ;
#505 = DIRECTION ( 'NONE',  ( 0.000000000000000000, 0.000000000000000000, 1.000000000000000000 ) ) ;
#506 = CIRCLE ( 'NONE', #695, 2.999999999999999112 ) ;
#507 = CARTESIAN_POINT ( 'NONE',  ( 23.99999999999999645, 4.000000000000000000, -9.999999999999998224 ) ) ;
#508 = CIRCLE ( 'NONE', #71, 1.000000000000001332 ) ;
#509 = ORIENTED_EDGE ( 'NONE', *, *, #876, .T. ) ;
#510 = ADVANCED_FACE ( 'NONE', ( #112 ), #753, .T. ) ;
#511 = CARTESIAN_POINT ( 'NONE',  ( 23.99999999999999645, 4.000000000000000000, 10.00000000000000355 ) ) ;
#512 = CARTESIAN_POINT ( 'NONE',  ( 36.00000000000000000, 0.000000000000000000, -2.999999999999998224 ) ) ;
#513 = DIRECTION ( 'NONE',  ( 0.000000000000000000, 1.000000000000000000, -0.000000000000000000 ) ) ;
#514 = ORIENTED_EDGE ( 'NONE', *, *, #268, .T. ) ;
#515 = AXIS2_PLACEMENT_3D ( 'NONE', #911, #837, #262 ) ;
#516 = CIRCLE ( 'NONE', #1003, 1.000000000000001776 ) ;
#517 = APPROVAL ( #67, 'æœª' ) ;
#518 = AXIS2_PLACEMENT_3D ( 'NONE', #78, #465, #298 ) ;
#519 = ORIENTED_EDGE ( 'NONE', *, *, #995, .T. ) ;
#520 = AXIS2_PLACEMENT_3D ( 'NONE', #469, #274, #591 ) ;
#521 = EDGE_CURVE ( 'NONE', #407, #987, #928, .T. ) ;
#522 = PLANE ( 'NONE',  #50 ) ;
#523 = ORIENTED_EDGE ( 'NONE', *, *, #375, .T. ) ;
#524 = ORIENTED_EDGE ( 'NONE', *, *, #45, .F. ) ;
#525 = DIRECTION ( 'NONE',  ( 0.000000000000000000, 0.000000000000000000, 1.000000000000000000 ) ) ;
#526 = DIRECTION ( 'NONE',  ( 1.000000000000000000, 0.000000000000000000, -7.542275982507857147E-17 ) ) ;
#527 = ADVANCED_FACE ( 'NONE', ( #289 ), #766, .T. ) ;
#528 = ORIENTED_EDGE ( 'NONE', *, *, #653, .T. ) ;
#529 = CARTESIAN_POINT ( 'NONE',  ( 23.99999999999999645, 4.000000000000000000, 7.000000000000003553 ) ) ;
#530 = PRODUCT_DEFINITION ( 'æœ', '', #463, #302 ) ;
#531 = FACE_OUTER_BOUND ( 'NONE', #949, .T. ) ;
#532 = CARTESIAN_POINT ( 'NONE',  ( 40.00000000000000000, 4.000000000000000000, 0.000000000000000000 ) ) ;
#533 = DIRECTION ( 'NONE',  ( 0.000000000000000000, 0.000000000000000000, 1.000000000000000000 ) ) ;
#534 = DIRECTION ( 'NONE',  ( -0.000000000000000000, -1.000000000000000000, -0.000000000000000000 ) ) ;
#535 = EDGE_CURVE ( 'NONE', #366, #958, #920, .T. ) ;
#536 = EDGE_LOOP ( 'NONE', ( #18, #68, #528, #861 ) ) ;
#537 = CARTESIAN_POINT ( 'NONE',  ( 63.00000000000000000, 0.000000000000000000, -0.000000000000000000 ) ) ;
#538 = ORIENTED_EDGE ( 'NONE', *, *, #770, .F. ) ;
#539 = LINE ( 'NONE', #937, #296 ) ;
#540 = EDGE_LOOP ( 'NONE', ( #846, #731 ) ) ;
#541 = ADVANCED_FACE ( 'NONE', ( #531, #146, #838, #786, #1014, #621, #457 ), #64, .F. ) ;
#542 = FACE_BOUND ( 'NONE', #191, .T. ) ;
#543 = VECTOR ( 'NONE', #301, 1000.000000000000000 ) ;
#544 = VERTEX_POINT ( 'NONE', #132 ) ;
#545 = DIRECTION ( 'NONE',  ( 0.000000000000000000, 0.000000000000000000, -1.000000000000000000 ) ) ;
#546 = VERTEX_POINT ( 'NONE', #467 ) ;
#547 = DIRECTION ( 'NONE',  ( 0.000000000000000000, 0.000000000000000000, 1.000000000000000000 ) ) ;
#548 = ORIENTED_EDGE ( 'NONE', *, *, #195, .T. ) ;
#549 = DIRECTION ( 'NONE',  ( -0.000000000000000000, -1.000000000000000000, 0.000000000000000000 ) ) ;
#550 = ORIENTED_EDGE ( 'NONE', *, *, #449, .F. ) ;
#551 = CARTESIAN_POINT ( 'NONE',  ( 36.00000000000000000, 0.000000000000000000, -3.999999999999996447 ) ) ;
#552 = EDGE_CURVE ( 'NONE', #661, #599, #69, .T. ) ;
#553 = VECTOR ( 'NONE', #946, 1000.000000000000000 ) ;
#554 = ORIENTED_EDGE ( 'NONE', *, *, #521, .T. ) ;
#555 = CARTESIAN_POINT ( 'NONE',  ( 45.92893218813446765, 4.000000000000000000, 5.000000000000001776 ) ) ;
#556 = ORIENTED_EDGE ( 'NONE', *, *, #95, .T. ) ;
#557 = CARTESIAN_POINT ( 'NONE',  ( 48.00000000000000000, 4.000000000000000000, -18.00000000000000000 ) ) ;
#558 = EDGE_CURVE ( 'NONE', #546, #407, #616, .T. ) ;
#559 = DIRECTION ( 'NONE',  ( -0.000000000000000000, -1.000000000000000000, -0.000000000000000000 ) ) ;
#560 = DIRECTION ( 'NONE',  ( 0.000000000000000000, 0.000000000000000000, -1.000000000000000000 ) ) ;
#561 = ORIENTED_EDGE ( 'NONE', *, *, #552, .F. ) ;
#562 = DIRECTION ( 'NONE',  ( -0.000000000000000000, 1.000000000000000000, -0.000000000000000000 ) ) ;
#563 = FACE_OUTER_BOUND ( 'NONE', #386, .T. ) ;
#564 = APPROVAL_ROLE ( '' ) ;
#565 = LOCAL_TIME ( 16, 44, 13.00000000000000000, #10 ) ;
#566 = AXIS2_PLACEMENT_3D ( 'NONE', #178, #960, #248 ) ;
#567 = ORIENTED_EDGE ( 'NONE', *, *, #601, .F. ) ;
#568 = EDGE_CURVE ( 'NONE', #176, #776, #777, .T. ) ;
#569 = CARTESIAN_POINT ( 'NONE',  ( 20.99999999999999645, 4.000000000000000000, 7.000000000000003553 ) ) ;
#570 = AXIS2_PLACEMENT_3D ( 'NONE', #529, #743, #666 ) ;
#571 = FACE_OUTER_BOUND ( 'NONE', #443, .T. ) ;
#572 = CALENDAR_DATE ( 2026, 8, 5 ) ;
#573 = CIRCLE ( 'NONE', #422, 1.500000000000004885 ) ;
#574 = ORIENTED_EDGE ( 'NONE', *, *, #227, .F. ) ;
#575 = CARTESIAN_POINT ( 'NONE',  ( 36.00000000000000000, 4.000000000000000000, 3.000000000000005329 ) ) ;
#576 = CARTESIAN_POINT ( 'NONE',  ( 56.00000000000000000, 4.000000000000000000, -18.00000000000000000 ) ) ;
#577 = AXIS2_PLACEMENT_3D ( 'NONE', #34, #213, #913 ) ;
#578 = EDGE_LOOP ( 'NONE', ( #307, #368, #842, #936 ) ) ;
#579 = LINE ( 'NONE', #784, #167 ) ;
#580 = DIRECTION ( 'NONE',  ( 0.000000000000000000, 0.000000000000000000, 1.000000000000000000 ) ) ;
#581 = CARTESIAN_POINT ( 'NONE',  ( 36.00000000000000000, 4.000000000000000000, -3.999999999999996447 ) ) ;
#582 = EDGE_LOOP ( 'NONE', ( #48, #217, #1012, #490 ) ) ;
#583 = CARTESIAN_POINT ( 'NONE',  ( 60.00000000000000000, 4.000000000000000000, -19.00000000000000000 ) ) ;
#584 = CARTESIAN_POINT ( 'NONE',  ( 61.53553390593273775, 0.000000000000000000, -3.535533905932749299 ) ) ;
#585 = CARTESIAN_POINT ( 'NONE',  ( 43.00000000000000000, 4.000000000000000000, -22.00000000000000000 ) ) ;
#586 = EDGE_CURVE ( 'NONE', #832, #716, #772, .T. ) ;
#587 = ORIENTED_EDGE ( 'NONE', *, *, #746, .F. ) ;
#588 = AXIS2_PLACEMENT_3D ( 'NONE', #834, #1002, #446 ) ;
#589 = CARTESIAN_POINT ( 'NONE',  ( 60.00000000000000000, 0.000000000000000000, -22.00000000000000000 ) ) ;
#590 = CARTESIAN_POINT ( 'NONE',  ( 63.00000000000000000, 4.000000000000000000, -19.00000000000000000 ) ) ;
#591 = DIRECTION ( 'NONE',  ( 0.000000000000000000, 0.000000000000000000, 1.000000000000000000 ) ) ;
#592 = VERTEX_POINT ( 'NONE', #687 ) ;
#593 = CIRCLE ( 'NONE', #622, 3.000000000000000000 ) ;
#594 = ORIENTED_EDGE ( 'NONE', *, *, #402, .T. ) ;
#595 = FACE_OUTER_BOUND ( 'NONE', #276, .T. ) ;
#596 = ORIENTED_EDGE ( 'NONE', *, *, #442, .F. ) ;
#597 = ORIENTED_EDGE ( 'NONE', *, *, #290, .F. ) ;
#598 = ORIENTED_EDGE ( 'NONE', *, *, #98, .F. ) ;
#599 = VERTEX_POINT ( 'NONE', #208 ) ;
#600 = CIRCLE ( 'NONE', #588, 1.500000000000004885 ) ;
#601 = EDGE_CURVE ( 'NONE', #907, #393, #853, .T. ) ;
#602 = CARTESIAN_POINT ( 'NONE',  ( 37.00000000000000000, 4.000000000000000000, -12.99999999999999822 ) ) ;
#603 = CARTESIAN_POINT ( 'NONE',  ( 7.542275982507861091E-16, 4.000000000000000000, 10.00000000000000533 ) ) ;
#604 = CC_DESIGN_PERSON_AND_ORGANIZATION_ASSIGNMENT ( #865, #871, ( #463 ) ) ;
#605 = ORIENTED_EDGE ( 'NONE', *, *, #45, .T. ) ;
#606 = DIRECTION ( 'NONE',  ( 0.000000000000000000, 1.000000000000000000, -0.000000000000000000 ) ) ;
#607 = AXIS2_PLACEMENT_3D ( 'NONE', #55, #378, #688 ) ;
#608 = FACE_OUTER_BOUND ( 'NONE', #221, .T. ) ;
#609 = CARTESIAN_POINT ( 'NONE',  ( 36.00000000000000000, 4.000000000000000000, -3.999999999999996447 ) ) ;
#610 = FACE_OUTER_BOUND ( 'NONE', #36, .T. ) ;
#611 = ORIENTED_EDGE ( 'NONE', *, *, #770, .T. ) ;
#612 = DIRECTION ( 'NONE',  ( 0.000000000000000000, 0.000000000000000000, 1.000000000000000000 ) ) ;
#613 = CC_DESIGN_APPROVAL ( #424, ( #463 ) ) ;
#614 = ORIENTED_EDGE ( 'NONE', *, *, #649, .T. ) ;
#615 = EDGE_LOOP ( 'NONE', ( #92, #982 ) ) ;
#616 = LINE ( 'NONE', #294, #705 ) ;
#617 = AXIS2_PLACEMENT_3D ( 'NONE', #952, #249, #875 ) ;
#618 = ORIENTED_EDGE ( 'NONE', *, *, #810, .T. ) ;
#619 = APPLICATION_PROTOCOL_DEFINITION ( 'international standard', 'config_control_design', 1994, #935 ) ;
#620 = ORIENTED_EDGE ( 'NONE', *, *, #39, .T. ) ;
#621 = FACE_BOUND ( 'NONE', #924, .T. ) ;
#622 = AXIS2_PLACEMENT_3D ( 'NONE', #370, #284, #780 ) ;
#623 = LINE ( 'NONE', #693, #489 ) ;
#624 = EDGE_LOOP ( 'NONE', ( #971, #1015 ) ) ;
#625 = LINE ( 'NONE', #73, #872 ) ;
#626 = ORIENTED_EDGE ( 'NONE', *, *, #369, .T. ) ;
#627 = EDGE_CURVE ( 'NONE', #735, #776, #7, .T. ) ;
#628 = CARTESIAN_POINT ( 'NONE',  ( 56.00000000000000000, 4.000000000000000000, -19.50000000000000355 ) ) ;
#629 = CARTESIAN_POINT ( 'NONE',  ( 40.00000000000000000, 0.000000000000000000, 0.000000000000000000 ) ) ;
#630 = DIRECTION ( 'NONE',  ( 1.156482317317871331E-15, 0.000000000000000000, 1.000000000000000000 ) ) ;
#631 = ORIENTED_EDGE ( 'NONE', *, *, #415, .T. ) ;
#632 = CARTESIAN_POINT ( 'NONE',  ( 40.00000000000000000, 0.000000000000000000, -12.99999999999999822 ) ) ;
#633 = EDGE_CURVE ( 'NONE', #716, #769, #593, .T. ) ;
#634 = DIRECTION ( 'NONE',  ( 0.000000000000000000, 1.000000000000000000, 0.000000000000000000 ) ) ;
#635 = DIRECTION ( 'NONE',  ( 0.000000000000000000, 0.000000000000000000, 1.000000000000000000 ) ) ;
#636 = EDGE_CURVE ( 'NONE', #709, #333, #261, .T. ) ;
#637 = EDGE_LOOP ( 'NONE', ( #299, #271, #280, #806 ) ) ;
#638 = CARTESIAN_POINT ( 'NONE',  ( 23.99999999999999645, 0.000000000000000000, 5.000000000000002665 ) ) ;
#639 = AXIS2_PLACEMENT_3D ( 'NONE', #942, #4, #9 ) ;
#640 = DIRECTION ( 'NONE',  ( -0.7071067811865463515, 0.000000000000000000, -0.7071067811865487940 ) ) ;
#641 = APPROVAL_ROLE ( '' ) ;
#642 = ADVANCED_FACE ( 'NONE', ( #996, #222, #833, #445, #1008, #542, #848 ), #803, .T. ) ;
#643 = EDGE_LOOP ( 'NONE', ( #830, #253, #130, #427 ) ) ;
#644 = DIRECTION ( 'NONE',  ( -0.000000000000000000, -1.000000000000000000, -0.000000000000000000 ) ) ;
#645 = CIRCLE ( 'NONE', #212, 2.999999999999999112 ) ;
#646 = DIRECTION ( 'NONE',  ( 0.000000000000000000, 0.000000000000000000, 1.000000000000000000 ) ) ;
#647 = DIRECTION ( 'NONE',  ( -0.000000000000000000, 1.000000000000000000, -0.000000000000000000 ) ) ;
#648 = PERSON_AND_ORGANIZATION ( #233, #902 ) ;
#649 = EDGE_CURVE ( 'NONE', #785, #836, #874, .T. ) ;
#650 = ORIENTED_EDGE ( 'NONE', *, *, #290, .T. ) ;
#651 = CARTESIAN_POINT ( 'NONE',  ( 36.00000000000000000, 0.000000000000000000, 5.000000000000001776 ) ) ;
#652 = APPROVAL_PERSON_ORGANIZATION ( #851, #517, #564 ) ;
#653 = EDGE_CURVE ( 'NONE', #748, #333, #496, .T. ) ;
#654 = DIRECTION ( 'NONE',  ( -0.000000000000000000, -1.000000000000000000, -0.000000000000000000 ) ) ;
#655 = CALENDAR_DATE ( 2026, 8, 5 ) ;
#656 = ORIENTED_EDGE ( 'NONE', *, *, #810, .F. ) ;
#657 = FACE_OUTER_BOUND ( 'NONE', #755, .T. ) ;
#658 = VECTOR ( 'NONE', #647, 1000.000000000000000 ) ;
#659 = DIRECTION ( 'NONE',  ( 1.000000000000000000, -0.000000000000000000, 0.000000000000000000 ) ) ;
#660 = VECTOR ( 'NONE', #547, 1000.000000000000000 ) ;
#661 = VERTEX_POINT ( 'NONE', #88 ) ;
#662 = LINE ( 'NONE', #23, #60 ) ;
#663 = AXIS2_PLACEMENT_3D ( 'NONE', #111, #885, #680 ) ;
#664 = CARTESIAN_POINT ( 'NONE',  ( 23.99999999999999645, 4.000000000000000000, -4.999999999999999112 ) ) ;
#665 = ORIENTED_EDGE ( 'NONE', *, *, #313, .T. ) ;
#666 = DIRECTION ( 'NONE',  ( 0.000000000000000000, 0.000000000000000000, 1.000000000000000000 ) ) ;
#667 = DIRECTION ( 'NONE',  ( 0.000000000000000000, 0.000000000000000000, -1.000000000000000000 ) ) ;
#668 = EDGE_CURVE ( 'NONE', #544, #287, #238, .T. ) ;
#669 = DIRECTION ( 'NONE',  ( 0.000000000000000000, 1.000000000000000000, -0.000000000000000000 ) ) ;
#670 = VERTEX_POINT ( 'NONE', #166 ) ;
#671 = EDGE_LOOP ( 'NONE', ( #476, #702, #79, #567 ) ) ;
#672 = LINE ( 'NONE', #109, #906 ) ;
#673 = VERTEX_POINT ( 'NONE', #717 ) ;
#674 = AXIS2_PLACEMENT_3D ( 'NONE', #691, #683, #525 ) ;
#675 = EDGE_LOOP ( 'NONE', ( #127, #765 ) ) ;
#676 = EDGE_CURVE ( 'NONE', #905, #893, #157, .T. ) ;
#677 = DIRECTION ( 'NONE',  ( 0.000000000000000000, 0.000000000000000000, 1.000000000000000000 ) ) ;
#678 = DIRECTION ( 'NONE',  ( -0.000000000000000000, -1.000000000000000000, 0.000000000000000000 ) ) ;
#679 = ORIENTED_EDGE ( 'NONE', *, *, #442, .T. ) ;
#680 = DIRECTION ( 'NONE',  ( 0.000000000000000000, 0.000000000000000000, -1.000000000000000000 ) ) ;
#681 = VERTEX_POINT ( 'NONE', #638 ) ;
#682 = VECTOR ( 'NONE', #763, 1000.000000000000000 ) ;
#683 = DIRECTION ( 'NONE',  ( 0.000000000000000000, 1.000000000000000000, -0.000000000000000000 ) ) ;
#684 = ORIENTED_EDGE ( 'NONE', *, *, #653, .F. ) ;
#685 = CYLINDRICAL_SURFACE ( 'NONE', #160, 1.500000000000004885 ) ;
#686 = CIRCLE ( 'NONE', #639, 1.500000000000004885 ) ;
#687 = CARTESIAN_POINT ( 'NONE',  ( 23.99999999999999645, 4.000000000000000000, 5.000000000000002665 ) ) ;
#688 = DIRECTION ( 'NONE',  ( 0.000000000000000000, 0.000000000000000000, -1.000000000000000000 ) ) ;
#689 = AXIS2_PLACEMENT_3D ( 'NONE', #583, #423, #27 ) ;
#690 = EDGE_LOOP ( 'NONE', ( #148, #372, #561, #811 ) ) ;
#691 = CARTESIAN_POINT ( 'NONE',  ( 36.00000000000000000, 0.000000000000000000, 4.000000000000003553 ) ) ;
#692 = CIRCLE ( 'NONE', #247, 1.000000000000001776 ) ;
#693 = CARTESIAN_POINT ( 'NONE',  ( 63.00000000000000000, 0.000000000000000000, -5.000000000000010658 ) ) ;
#694 = DIRECTION ( 'NONE',  ( -1.000000000000000000, 0.000000000000000000, -0.000000000000000000 ) ) ;
#695 = AXIS2_PLACEMENT_3D ( 'NONE', #267, #812, #505 ) ;
#696 = FACE_OUTER_BOUND ( 'NONE', #536, .T. ) ;
#697 = VERTEX_POINT ( 'NONE', #336 ) ;
#698 = AXIS2_PLACEMENT_3D ( 'NONE', #425, #978, #440 ) ;
#699 = CARTESIAN_POINT ( 'NONE',  ( 63.00000000000000000, 4.000000000000000000, -19.00000000000000000 ) ) ;
#700 = EDGE_LOOP ( 'NONE', ( #597, #550, #66, #722 ) ) ;
#701 = DIRECTION ( 'NONE',  ( -0.000000000000000000, -1.000000000000000000, -0.000000000000000000 ) ) ;
#702 = ORIENTED_EDGE ( 'NONE', *, *, #668, .F. ) ;
#703 = VECTOR ( 'NONE', #973, 1000.000000000000000 ) ;
#704 = DIRECTION ( 'NONE',  ( 0.000000000000000000, 0.000000000000000000, 1.000000000000000000 ) ) ;
#705 = VECTOR ( 'NONE', #388, 1000.000000000000000 ) ;
#706 = CARTESIAN_POINT ( 'NONE',  ( 28.99999999999988631, 4.000000000000000000, 28.99999999999998579 ) ) ;
#707 = CARTESIAN_POINT ( 'NONE',  ( 37.00000000000000000, 4.000000000000000000, -12.99999999999999822 ) ) ;
#708 = CARTESIAN_POINT ( 'NONE',  ( 23.99999999999999645, 4.000000000000000000, -4.999999999999999112 ) ) ;
#709 = VERTEX_POINT ( 'NONE', #651 ) ;
#710 = EDGE_CURVE ( 'NONE', #546, #716, #723, .T. ) ;
#711 = CARTESIAN_POINT ( 'NONE',  ( 7.542275982507861091E-16, 0.000000000000000000, 10.00000000000000533 ) ) ;
#712 = CYLINDRICAL_SURFACE ( 'NONE', #303, 5.000000000000000000 ) ;
#713 = CC_DESIGN_PERSON_AND_ORGANIZATION_ASSIGNMENT ( #801, #410, ( #530 ) ) ;
#714 = DIRECTION ( 'NONE',  ( 0.000000000000000000, -1.000000000000000000, -0.000000000000000000 ) ) ;
#715 =( LENGTH_UNIT ( ) NAMED_UNIT ( * ) SI_UNIT ( .MILLI., .METRE. ) );
#716 = VERTEX_POINT ( 'NONE', #939 ) ;
#717 = CARTESIAN_POINT ( 'NONE',  ( 36.00000000000000000, 0.000000000000000000, -4.999999999999994671 ) ) ;
#718 = EDGE_CURVE ( 'NONE', #943, #464, #177, .T. ) ;
#719 = CARTESIAN_POINT ( 'NONE',  ( 40.00000000000000000, 0.000000000000000000, -19.00000000000000000 ) ) ;
#720 = CARTESIAN_POINT ( 'NONE',  ( 20.99999999999999645, 4.000000000000000000, 0.000000000000000000 ) ) ;
#721 = PERSON_AND_ORGANIZATION ( #233, #902 ) ;
#722 = ORIENTED_EDGE ( 'NONE', *, *, #787, .T. ) ;
#723 = LINE ( 'NONE', #711, #494 ) ;
#724 = AXIS2_PLACEMENT_3D ( 'NONE', #729, #1022, #795 ) ;
#725 = EDGE_CURVE ( 'NONE', #999, #546, #198, .T. ) ;
#726 = DIRECTION ( 'NONE',  ( 0.000000000000000000, 0.000000000000000000, -1.000000000000000000 ) ) ;
#727 = PERSON_AND_ORGANIZATION_ROLE ( 'classification_officer' ) ;
#728 = VERTEX_POINT ( 'NONE', #632 ) ;
#729 = CARTESIAN_POINT ( 'NONE',  ( 0.000000000000000000, 4.000000000000000000, 0.000000000000000000 ) ) ;
#730 = CYLINDRICAL_SURFACE ( 'NONE', #862, 1.500000000000004885 ) ;
#731 = ORIENTED_EDGE ( 'NONE', *, *, #676, .T. ) ;
#732 = DIRECTION ( 'NONE',  ( -0.000000000000000000, -1.000000000000000000, -0.000000000000000000 ) ) ;
#733 = CYLINDRICAL_SURFACE ( 'NONE', #998, 2.999999999999999112 ) ;
#734 = CIRCLE ( 'NONE', #504, 2.999999999999999112 ) ;
#735 = VERTEX_POINT ( 'NONE', #472 ) ;
#736 = EDGE_CURVE ( 'NONE', #867, #769, #242, .T. ) ;
#737 = DIRECTION ( 'NONE',  ( -0.000000000000000000, -1.000000000000000000, -0.000000000000000000 ) ) ;
#738 = CARTESIAN_POINT ( 'NONE',  ( 36.00000000000000000, 0.000000000000000000, 4.000000000000003553 ) ) ;
#739 = COORDINATED_UNIVERSAL_TIME_OFFSET ( 8, 0, .AHEAD. ) ;
#740 = AXIS2_PLACEMENT_3D ( 'NONE', #318, #94, #408 ) ;
#741 = ORIENTED_EDGE ( 'NONE', *, *, #601, .T. ) ;
#742 = ADVANCED_FACE ( 'NONE', ( #934 ), #330, .F. ) ;
#743 = DIRECTION ( 'NONE',  ( 0.000000000000000000, 1.000000000000000000, -0.000000000000000000 ) ) ;
#744 = CYLINDRICAL_SURFACE ( 'NONE', #342, 0.9999999999999983347 ) ;
#745 = VECTOR ( 'NONE', #350, 1000.000000000000000 ) ;
#746 = EDGE_CURVE ( 'NONE', #728, #735, #158, .T. ) ;
#747 = CARTESIAN_POINT ( 'NONE',  ( 37.00000000000000000, 0.000000000000000000, -9.999999999999998224 ) ) ;
#748 = VERTEX_POINT ( 'NONE', #951 ) ;
#749 = APPROVAL_PERSON_ORGANIZATION ( #948, #817, #265 ) ;
#750 = AXIS2_PLACEMENT_3D ( 'NONE', #324, #644, #863 ) ;
#751 = CARTESIAN_POINT ( 'NONE',  ( 63.00000000000000000, 4.000000000000000000, -7.071067811865491493 ) ) ;
#752 = AXIS2_PLACEMENT_3D ( 'NONE', #216, #534, #19 ) ;
#753 = CYLINDRICAL_SURFACE ( 'NONE', #577, 3.000000000000000000 ) ;
#754 = ADVANCED_FACE ( 'NONE', ( #152 ), #75, .T. ) ;
#755 = EDGE_LOOP ( 'NONE', ( #594, #97, #357, #460 ) ) ;
#756 = VECTOR ( 'NONE', #796, 1000.000000000000000 ) ;
#757 = DIRECTION ( 'NONE',  ( -0.000000000000000000, 1.000000000000000000, -0.000000000000000000 ) ) ;
#758 = VECTOR ( 'NONE', #808, 1000.000000000000000 ) ;
#759 = EDGE_CURVE ( 'NONE', #681, #697, #116, .T. ) ;
#760 = PRODUCT ( '\X2\76f47ebf5bfc8f688f6c63a5677f4fa7677f\X0\ 4mm', '\X2\76f47ebf5bfc8f688f6c63a5677f4fa7677f\X0\ 4mm', '', ( #220 ) ) ;
#761 = VERTEX_POINT ( 'NONE', #569 ) ;
#762 = AXIS2_PLACEMENT_3D ( 'NONE', #557, #868, #799 ) ;
#763 = DIRECTION ( 'NONE',  ( 1.000000000000000000, -0.000000000000000000, 0.000000000000000000 ) ) ;
#764 = ORIENTED_EDGE ( 'NONE', *, *, #882, .F. ) ;
#765 = ORIENTED_EDGE ( 'NONE', *, *, #142, .F. ) ;
#766 = CYLINDRICAL_SURFACE ( 'NONE', #93, 3.000000000000000000 ) ;
#767 = ORIENTED_EDGE ( 'NONE', *, *, #866, .T. ) ;
#768 = CARTESIAN_POINT ( 'NONE',  ( 23.99999999999999645, 0.000000000000000000, -2.999999999999996003 ) ) ;
#769 = VERTEX_POINT ( 'NONE', #99 ) ;
#770 = EDGE_CURVE ( 'NONE', #592, #156, #692, .T. ) ;
#771 = AXIS2_PLACEMENT_3D ( 'NONE', #115, #441, #269 ) ;
#772 = LINE ( 'NONE', #129, #543 ) ;
#773 = CARTESIAN_POINT ( 'NONE',  ( 0.000000000000000000, 4.000000000000000000, -22.00000000000000000 ) ) ;
#774 = CARTESIAN_POINT ( 'NONE',  ( 49.46446609406719830, 0.000000000000000000, 8.535533905932746634 ) ) ;
#775 = AXIS2_PLACEMENT_3D ( 'NONE', #257, #21, #414 ) ;
#776 = VERTEX_POINT ( 'NONE', #231 ) ;
#777 = LINE ( 'NONE', #450, #328 ) ;
#778 = DIRECTION ( 'NONE',  ( 0.000000000000000000, 0.000000000000000000, -1.000000000000000000 ) ) ;
#779 = ORIENTED_EDGE ( 'NONE', *, *, #171, .T. ) ;
#780 = DIRECTION ( 'NONE',  ( 0.000000000000000000, 0.000000000000000000, 1.000000000000000000 ) ) ;
#781 = LINE ( 'NONE', #706, #2 ) ;
#782 = EDGE_CURVE ( 'NONE', #673, #503, #383, .T. ) ;
#783 = ORIENTED_EDGE ( 'NONE', *, *, #147, .T. ) ;
#784 = CARTESIAN_POINT ( 'NONE',  ( 0.000000000000000000, 0.000000000000000000, -9.999999999999998224 ) ) ;
#785 = VERTEX_POINT ( 'NONE', #398 ) ;
#786 = FACE_BOUND ( 'NONE', #397, .T. ) ;
#787 = EDGE_CURVE ( 'NONE', #697, #681, #516, .T. ) ;
#788 = FACE_OUTER_BOUND ( 'NONE', #922, .T. ) ;
#789 = ORIENTED_EDGE ( 'NONE', *, *, #649, .F. ) ;
#790 = DIRECTION ( 'NONE',  ( 0.000000000000000000, 0.000000000000000000, 1.000000000000000000 ) ) ;
#791 = VECTOR ( 'NONE', #990, 1000.000000000000000 ) ;
#792 = LINE ( 'NONE', #629, #361 ) ;
#793 = CARTESIAN_POINT ( 'NONE',  ( 36.00000000000000000, 4.000000000000000000, -3.999999999999996447 ) ) ;
#794 = ORIENTED_EDGE ( 'NONE', *, *, #359, .T. ) ;
#795 = DIRECTION ( 'NONE',  ( 0.000000000000000000, 0.000000000000000000, 1.000000000000000000 ) ) ;
#796 = DIRECTION ( 'NONE',  ( 0.000000000000000000, -1.000000000000000000, 0.000000000000000000 ) ) ;
#797 = CARTESIAN_POINT ( 'NONE',  ( 56.00000000000000000, 0.000000000000000000, -16.49999999999999289 ) ) ;
#798 = EDGE_LOOP ( 'NONE', ( #548, #620, #12, #266 ) ) ;
#799 = DIRECTION ( 'NONE',  ( 0.000000000000000000, 0.000000000000000000, 1.000000000000000000 ) ) ;
#800 = CARTESIAN_POINT ( 'NONE',  ( 23.99999999999999645, 4.000000000000000000, -3.999999999999997335 ) ) ;
#801 = PERSON_AND_ORGANIZATION ( #233, #902 ) ;
#802 = ORIENTED_EDGE ( 'NONE', *, *, #415, .F. ) ;
#803 = PLANE ( 'NONE',  #724 ) ;
#804 = CYLINDRICAL_SURFACE ( 'NONE', #188, 1.000000000000001776 ) ;
#805 = DIRECTION ( 'NONE',  ( 0.000000000000000000, 0.000000000000000000, 1.000000000000000000 ) ) ;
#806 = ORIENTED_EDGE ( 'NONE', *, *, #558, .F. ) ;
#807 = DIRECTION ( 'NONE',  ( -0.000000000000000000, 1.000000000000000000, -0.000000000000000000 ) ) ;
#808 = DIRECTION ( 'NONE',  ( -0.000000000000000000, -1.000000000000000000, -0.000000000000000000 ) ) ;
#809 = DATE_AND_TIME ( #655, #29 ) ;
#810 = EDGE_CURVE ( 'NONE', #366, #670, #478, .T. ) ;
#811 = ORIENTED_EDGE ( 'NONE', *, *, #497, .T. ) ;
#812 = DIRECTION ( 'NONE',  ( -0.000000000000000000, -1.000000000000000000, 0.000000000000000000 ) ) ;
#813 = DIRECTION ( 'NONE',  ( 0.000000000000000000, 0.000000000000000000, -1.000000000000000000 ) ) ;
#814 = ADVANCED_FACE ( 'NONE', ( #657 ), #685, .F. ) ;
#815 = EDGE_LOOP ( 'NONE', ( #101, #363 ) ) ;
#816 = CARTESIAN_POINT ( 'NONE',  ( 20.99999999999999645, 0.000000000000000000, -6.999999999999998224 ) ) ;
#817 = APPROVAL ( #970, 'æœª' ) ;
#818 = CARTESIAN_POINT ( 'NONE',  ( 48.00000000000000000, 4.000000000000000000, -19.50000000000000355 ) ) ;
#819 = ORIENTED_EDGE ( 'NONE', *, *, #668, .T. ) ;
#820 = EDGE_LOOP ( 'NONE', ( #523, #246, #310, #684 ) ) ;
#821 = PLANE ( 'NONE',  #663 ) ;
#822 = ADVANCED_FACE ( 'NONE', ( #1000 ), #821, .T. ) ;
#823 = DIRECTION ( 'NONE',  ( 0.000000000000000000, 0.000000000000000000, -1.000000000000000000 ) ) ;
#824 = ORIENTED_EDGE ( 'NONE', *, *, #306, .T. ) ;
#825 = AXIS2_PLACEMENT_3D ( 'NONE', #840, #343, #966 ) ;
#826 = EDGE_CURVE ( 'NONE', #987, #999, #353, .T. ) ;
#827 = LINE ( 'NONE', #451, #452 ) ;
#828 = ORIENTED_EDGE ( 'NONE', *, *, #929, .F. ) ;
#829 = AXIS2_PLACEMENT_3D ( 'NONE', #119, #42, #677 ) ;
#830 = ORIENTED_EDGE ( 'NONE', *, *, #710, .F. ) ;
#831 = CARTESIAN_POINT ( 'NONE',  ( 23.99999999999999645, 4.000000000000000000, 5.000000000000002665 ) ) ;
#832 = VERTEX_POINT ( 'NONE', #511 ) ;
#833 = FACE_BOUND ( 'NONE', #675, .T. ) ;
#834 = CARTESIAN_POINT ( 'NONE',  ( 56.00000000000000000, 4.000000000000000000, -18.00000000000000000 ) ) ;
#835 = EDGE_CURVE ( 'NONE', #943, #855, #662, .T. ) ;
#836 = VERTEX_POINT ( 'NONE', #131 ) ;
#837 = DIRECTION ( 'NONE',  ( 0.000000000000000000, 1.000000000000000000, -0.000000000000000000 ) ) ;
#838 = FACE_BOUND ( 'NONE', #540, .T. ) ;
#839 = FACE_OUTER_BOUND ( 'NONE', #798, .T. ) ;
#840 = CARTESIAN_POINT ( 'NONE',  ( 43.00000000000000000, 0.000000000000000000, -19.00000000000000000 ) ) ;
#841 = EDGE_CURVE ( 'NONE', #145, #709, #187, .T. ) ;
#842 = ORIENTED_EDGE ( 'NONE', *, *, #202, .T. ) ;
#843 = DIRECTION ( 'NONE',  ( 0.000000000000000000, 1.000000000000000000, -0.000000000000000000 ) ) ;
#844 = ORIENTED_EDGE ( 'NONE', *, *, #965, .T. ) ;
#845 = APPLICATION_PROTOCOL_DEFINITION ( 'international standard', 'config_control_design', 1994, #82 ) ;
#846 = ORIENTED_EDGE ( 'NONE', *, *, #185, .T. ) ;
#847 = EDGE_CURVE ( 'NONE', #836, #201, #293, .T. ) ;
#848 = FACE_BOUND ( 'NONE', #615, .T. ) ;
#849 = DIRECTION ( 'NONE',  ( -1.000000000000000000, 0.000000000000000000, 7.542275982507857147E-17 ) ) ;
#850 = VERTEX_POINT ( 'NONE', #589 ) ;
#851 = PERSON_AND_ORGANIZATION ( #233, #902 ) ;
#852 = ORIENTED_EDGE ( 'NONE', *, *, #929, .T. ) ;
#853 = LINE ( 'NONE', #1001, #791 ) ;
#854 = EDGE_CURVE ( 'NONE', #287, #907, #645, .T. ) ;
#855 = VERTEX_POINT ( 'NONE', #292 ) ;
#856 = CARTESIAN_POINT ( 'NONE',  ( 36.00000000000000000, 4.000000000000000000, 4.000000000000003553 ) ) ;
#857 = ORIENTED_EDGE ( 'NONE', *, *, #349, .F. ) ;
#858 = DIRECTION ( 'NONE',  ( -0.000000000000000000, -1.000000000000000000, 0.000000000000000000 ) ) ;
#859 = DIRECTION ( 'NONE',  ( 0.000000000000000000, 0.000000000000000000, 1.000000000000000000 ) ) ;
#860 = DIRECTION ( 'NONE',  ( 0.000000000000000000, -1.000000000000000000, 0.000000000000000000 ) ) ;
#861 = ORIENTED_EDGE ( 'NONE', *, *, #636, .F. ) ;
#862 = AXIS2_PLACEMENT_3D ( 'NONE', #576, #559, #493 ) ;
#863 = DIRECTION ( 'NONE',  ( 0.000000000000000000, 0.000000000000000000, -1.000000000000000000 ) ) ;
#864 = DIRECTION ( 'NONE',  ( 0.000000000000000000, 1.000000000000000000, -0.000000000000000000 ) ) ;
#865 = PERSON_AND_ORGANIZATION ( #233, #902 ) ;
#866 = EDGE_CURVE ( 'NONE', #850, #661, #506, .T. ) ;
#867 = VERTEX_POINT ( 'NONE', #816 ) ;
#868 = DIRECTION ( 'NONE',  ( 0.000000000000000000, 1.000000000000000000, -0.000000000000000000 ) ) ;
#869 = AXIS2_PLACEMENT_3D ( 'NONE', #412, #255, #403 ) ;
#870 = CARTESIAN_POINT ( 'NONE',  ( 56.00000000000000000, 4.000000000000000000, -18.00000000000000000 ) ) ;
#871 = PERSON_AND_ORGANIZATION_ROLE ( 'design_supplier' ) ;
#872 = VECTOR ( 'NONE', #860, 1000.000000000000000 ) ;
#873 = ORIENTED_EDGE ( 'NONE', *, *, #627, .F. ) ;
#874 = LINE ( 'NONE', #628, #223 ) ;
#875 = DIRECTION ( 'NONE',  ( 0.000000000000000000, 0.000000000000000000, 1.000000000000000000 ) ) ;
#876 = EDGE_CURVE ( 'NONE', #761, #832, #481, .T. ) ;
#877 = DIRECTION ( 'NONE',  ( 0.000000000000000000, 1.000000000000000000, -0.000000000000000000 ) ) ;
#878 = DATE_TIME_ROLE ( 'classification_date' ) ;
#879 = VERTEX_POINT ( 'NONE', #272 ) ;
#880 = AXIS2_PLACEMENT_3D ( 'NONE', #239, #864, #479 ) ;
#881 = DIRECTION ( 'NONE',  ( -1.000000000000000000, 0.000000000000000000, 7.542275982507857147E-17 ) ) ;
#882 = EDGE_CURVE ( 'NONE', #156, #697, #193, .T. ) ;
#883 = FACE_OUTER_BOUND ( 'NONE', #980, .T. ) ;
#884 = EDGE_LOOP ( 'NONE', ( #482, #40, #304, #618, #136, #74, #260, #194, #912, #679, #105, #509, #87, #554 ) ) ;
#885 = DIRECTION ( 'NONE',  ( 1.000000000000000000, 0.000000000000000000, 0.000000000000000000 ) ) ;
#886 = EDGE_CURVE ( 'NONE', #958, #599, #102, .T. ) ;
#887 = PLANE ( 'NONE',  #107 ) ;
#888 = DATE_TIME_ROLE ( 'creation_date' ) ;
#889 = EDGE_LOOP ( 'NONE', ( #514, #352, #598, #819 ) ) ;
#890 = DIRECTION ( 'NONE',  ( 0.000000000000000000, 0.000000000000000000, -1.000000000000000000 ) ) ;
#891 = CARTESIAN_POINT ( 'NONE',  ( 58.00000000000000000, 4.000000000000000000, -7.071067811865491493 ) ) ;
#892 = AXIS2_PLACEMENT_3D ( 'NONE', #979, #900, #823 ) ;
#893 = VERTEX_POINT ( 'NONE', #44 ) ;
#894 = DIRECTION ( 'NONE',  ( 0.000000000000000000, 0.000000000000000000, 1.000000000000000000 ) ) ;
#895 = DIRECTION ( 'NONE',  ( -0.000000000000000000, 1.000000000000000000, -0.000000000000000000 ) ) ;
#896 = AXIS2_PLACEMENT_3D ( 'NONE', #773, #234, #694 ) ;
#897 = LINE ( 'NONE', #831, #237 ) ;
#898 = ORIENTED_EDGE ( 'NONE', *, *, #736, .T. ) ;
#899 = EDGE_CURVE ( 'NONE', #145, #748, #337, .T. ) ;
#900 = DIRECTION ( 'NONE',  ( -0.000000000000000000, -1.000000000000000000, -0.000000000000000000 ) ) ;
#901 = ORIENTED_EDGE ( 'NONE', *, *, #746, .T. ) ;
#902 = ORGANIZATION ( 'æœª', 'æœª', '' ) ;
#903 = APPROVAL_PERSON_ORGANIZATION ( #648, #424, #641 ) ;
#904 = LINE ( 'NONE', #104, #468 ) ;
#905 = VERTEX_POINT ( 'NONE', #768 ) ;
#906 = VECTOR ( 'NONE', #30, 1000.000000000000000 ) ;
#907 = VERTEX_POINT ( 'NONE', #49 ) ;
#908 = ADVANCED_FACE ( 'NONE', ( #610 ), #917, .F. ) ;
#909 = AXIS2_PLACEMENT_3D ( 'NONE', #707, #1019, #859 ) ;
#910 = ORIENTED_EDGE ( 'NONE', *, *, #1010, .T. ) ;
#911 = CARTESIAN_POINT ( 'NONE',  ( 36.00000000000000000, 4.000000000000000000, 4.000000000000003553 ) ) ;
#912 = ORIENTED_EDGE ( 'NONE', *, *, #568, .F. ) ;
#913 = DIRECTION ( 'NONE',  ( 0.000000000000000000, 0.000000000000000000, 1.000000000000000000 ) ) ;
#914 = PLANE ( 'NONE',  #994 ) ;
#915 = EDGE_CURVE ( 'NONE', #393, #544, #118, .T. ) ;
#916 = DIRECTION ( 'NONE',  ( -0.000000000000000000, -1.000000000000000000, 0.000000000000000000 ) ) ;
#917 = CYLINDRICAL_SURFACE ( 'NONE', #752, 0.9999999999999983347 ) ;
#918 = ORIENTED_EDGE ( 'NONE', *, *, #497, .F. ) ;
#919 = AXIS2_PLACEMENT_3D ( 'NONE', #945, #81, #790 ) ;
#920 = LINE ( 'NONE', #461, #660 ) ;
#921 = CIRCLE ( 'NONE', #334, 3.000000000000000000 ) ;
#922 = EDGE_LOOP ( 'NONE', ( #873, #587, #992, #802 ) ) ;
#923 =( NAMED_UNIT ( * ) SI_UNIT ( $, .STERADIAN. ) SOLID_ANGLE_UNIT ( ) );
#924 = EDGE_LOOP ( 'NONE', ( #430, #933 ) ) ;
#925 = DIRECTION ( 'NONE',  ( -0.000000000000000000, 1.000000000000000000, 0.000000000000000000 ) ) ;
#926 = DIRECTION ( 'NONE',  ( 0.000000000000000000, 0.000000000000000000, -1.000000000000000000 ) ) ;
#927 = ORIENTED_EDGE ( 'NONE', *, *, #279, .F. ) ;
#928 = CIRCLE ( 'NONE', #1017, 5.000000000000000000 ) ;
#929 = EDGE_CURVE ( 'NONE', #283, #322, #579, .T. ) ;
#930 = DIRECTION ( 'NONE',  ( 1.000000000000000000, -0.000000000000000000, 0.000000000000000000 ) ) ;
#931 = ORIENTED_EDGE ( 'NONE', *, *, #163, .F. ) ;
#932 = CARTESIAN_POINT ( 'NONE',  ( 63.00000000000000000, 4.000000000000000000, -7.071067811865491493 ) ) ;
#933 = ORIENTED_EDGE ( 'NONE', *, *, #163, .T. ) ;
#934 = FACE_OUTER_BOUND ( 'NONE', #700, .T. ) ;
#935 = APPLICATION_CONTEXT ( 'configuration controlled 3d designs of mechanical parts and assemblies' ) ;
#936 = ORIENTED_EDGE ( 'NONE', *, *, #676, .F. ) ;
#937 = CARTESIAN_POINT ( 'NONE',  ( 36.00000000000000000, 4.000000000000000000, -2.999999999999998224 ) ) ;
#938 = VERTEX_POINT ( 'NONE', #1020 ) ;
#939 = CARTESIAN_POINT ( 'NONE',  ( 23.99999999999999645, 0.000000000000000000, 10.00000000000000355 ) ) ;
#940 = CIRCLE ( 'NONE', #35, 0.9999999999999983347 ) ;
#941 = FACE_OUTER_BOUND ( 'NONE', #578, .T. ) ;
#942 = CARTESIAN_POINT ( 'NONE',  ( 56.00000000000000000, 0.000000000000000000, -18.00000000000000000 ) ) ;
#943 = VERTEX_POINT ( 'NONE', #1024 ) ;
#944 = VECTOR ( 'NONE', #291, 1000.000000000000000 ) ;
#945 = CARTESIAN_POINT ( 'NONE',  ( 45.92893218813446765, 0.000000000000000000, 5.000000000000001776 ) ) ;
#946 = DIRECTION ( 'NONE',  ( 0.000000000000000000, 0.000000000000000000, 1.000000000000000000 ) ) ;
#947 = DIRECTION ( 'NONE',  ( -0.000000000000000000, 1.000000000000000000, -0.000000000000000000 ) ) ;
#948 = PERSON_AND_ORGANIZATION ( #233, #902 ) ;
#949 = EDGE_LOOP ( 'NONE', ( #122, #224, #347, #988, #444, #150, #181, #844, #852, #794, #471, #5, #162, #767 ) ) ;
#950 = CC_DESIGN_PERSON_AND_ORGANIZATION_ASSIGNMENT ( #161, #727, ( #164 ) ) ;
#951 = CARTESIAN_POINT ( 'NONE',  ( 36.00000000000000000, 4.000000000000000000, 3.000000000000005329 ) ) ;
#952 = CARTESIAN_POINT ( 'NONE',  ( 48.00000000000000000, 4.000000000000000000, -18.00000000000000000 ) ) ;
#953 = LOCAL_TIME ( 16, 44, 13.00000000000000000, #480 ) ;
#954 = AXIS2_PLACEMENT_3D ( 'NONE', #551, #858, #1 ) ;
#955 = LINE ( 'NONE', #173, #207 ) ;
#956 = CALENDAR_DATE ( 2026, 8, 5 ) ;
#957 =( GEOMETRIC_REPRESENTATION_CONTEXT ( 3 ) GLOBAL_UNCERTAINTY_ASSIGNED_CONTEXT ( ( #377 ) ) GLOBAL_UNIT_ASSIGNED_CONTEXT ( ( #715, #225, #923 ) ) REPRESENTATION_CONTEXT ( 'NONE', 'WORKASPACE' ) );
#958 = VERTEX_POINT ( 'NONE', #932 ) ;
#959 = ADVANCED_FACE ( 'NONE', ( #316 ), #240, .T. ) ;
#960 = DIRECTION ( 'NONE',  ( 0.000000000000000000, -1.000000000000000000, 0.000000000000000000 ) ) ;
#961 = AXIS2_PLACEMENT_3D ( 'NONE', #891, #263, #580 ) ;
#962 = FACE_OUTER_BOUND ( 'NONE', #500, .T. ) ;
#963 = EDGE_LOOP ( 'NONE', ( #117, #41 ) ) ;
#964 = AXIS2_PLACEMENT_3D ( 'NONE', #327, #640, #714 ) ;
#965 = EDGE_CURVE ( 'NONE', #867, #283, #921, .T. ) ;
#966 = DIRECTION ( 'NONE',  ( 0.000000000000000000, 0.000000000000000000, 1.000000000000000000 ) ) ;
#967 = AXIS2_PLACEMENT_3D ( 'NONE', #602, #394, #57 ) ;
#968 = EDGE_CURVE ( 'NONE', #670, #850, #625, .T. ) ;
#969 = CARTESIAN_POINT ( 'NONE',  ( 23.99999999999999645, 4.000000000000000000, 4.000000000000000888 ) ) ;
#970 = APPROVAL_STATUS ( 'not_yet_approved' ) ;
#971 = ORIENTED_EDGE ( 'NONE', *, *, #232, .T. ) ;
#972 = CARTESIAN_POINT ( 'NONE',  ( 48.00000000000000000, 4.000000000000000000, -18.00000000000000000 ) ) ;
#973 = DIRECTION ( 'NONE',  ( -0.000000000000000000, -1.000000000000000000, -0.000000000000000000 ) ) ;
#974 = APPROVAL_DATE_TIME ( #809, #424 ) ;
#975 = MANIFOLD_SOLID_BREP ( '\X2\570689d2\X0\2', #346 ) ;
#976 = ORIENTED_EDGE ( 'NONE', *, *, #899, .F. ) ;
#977 = DIRECTION ( 'NONE',  ( -0.000000000000000000, -1.000000000000000000, 0.000000000000000000 ) ) ;
#978 = DIRECTION ( 'NONE',  ( 0.000000000000000000, 1.000000000000000000, -0.000000000000000000 ) ) ;
#979 = CARTESIAN_POINT ( 'NONE',  ( 48.00000000000000000, 4.000000000000000000, -18.00000000000000000 ) ) ;
#980 = EDGE_LOOP ( 'NONE', ( #927, #206, #614, #931 ) ) ;
#981 = CARTESIAN_POINT ( 'NONE',  ( 48.00000000000000000, 4.000000000000000000, -19.50000000000000355 ) ) ;
#982 = ORIENTED_EDGE ( 'NONE', *, *, #718, .F. ) ;
#983 = ORIENTED_EDGE ( 'NONE', *, *, #245, .F. ) ;
#984 = PRODUCT_RELATED_PRODUCT_CATEGORY ( 'detail', '', ( #760 ) ) ;
#985 = ADVANCED_BREP_SHAPE_REPRESENTATION ( '\X2\76f47ebf5bfc8f688f6c63a5677f4fa7677f\X0\ 4mm', ( #975, #518 ), #957 ) ;
#986 = CARTESIAN_POINT ( 'NONE',  ( 23.99999999999999645, 4.000000000000000000, -2.999999999999996003 ) ) ;
#987 = VERTEX_POINT ( 'NONE', #454 ) ;
#988 = ORIENTED_EDGE ( 'NONE', *, *, #725, .T. ) ;
#989 = ADVANCED_FACE ( 'NONE', ( #696 ), #396, .F. ) ;
#990 = DIRECTION ( 'NONE',  ( 0.000000000000000000, -1.000000000000000000, 0.000000000000000000 ) ) ;
#991 = CARTESIAN_POINT ( 'NONE',  ( 23.99999999999999645, 0.000000000000000000, -9.999999999999998224 ) ) ;
#992 = ORIENTED_EDGE ( 'NONE', *, *, #359, .F. ) ;
#993 = CARTESIAN_POINT ( 'NONE',  ( 36.00000000000000000, 4.000000000000000000, 5.000000000000001776 ) ) ;
#994 = AXIS2_PLACEMENT_3D ( 'NONE', #532, #133, #646 ) ;
#995 = EDGE_CURVE ( 'NONE', #503, #673, #250, .T. ) ;
#996 = FACE_OUTER_BOUND ( 'NONE', #884, .T. ) ;
#997 = DIRECTION ( 'NONE',  ( 0.000000000000000000, 0.000000000000000000, 1.000000000000000000 ) ) ;
#998 = AXIS2_PLACEMENT_3D ( 'NONE', #85, #487, #813 ) ;
#999 = VERTEX_POINT ( 'NONE', #774 ) ;
#1000 = FACE_OUTER_BOUND ( 'NONE', #690, .T. ) ;
#1001 = CARTESIAN_POINT ( 'NONE',  ( 40.00000000000000000, 4.000000000000000000, -19.00000000000000000 ) ) ;
#1002 = DIRECTION ( 'NONE',  ( 0.000000000000000000, 1.000000000000000000, -0.000000000000000000 ) ) ;
#1003 = AXIS2_PLACEMENT_3D ( 'NONE', #373, #977, #211 ) ;
#1004 = ADVANCED_FACE ( 'NONE', ( #379 ), #311, .F. ) ;
#1005 = FACE_OUTER_BOUND ( 'NONE', #210, .T. ) ;
#1006 = VERTEX_POINT ( 'NONE', #708 ) ;
#1007 = CC_DESIGN_SECURITY_CLASSIFICATION ( #164, ( #463 ) ) ;
#1008 = FACE_BOUND ( 'NONE', #315, .T. ) ;
#1009 = CARTESIAN_POINT ( 'NONE',  ( 37.00000000000000000, 0.000000000000000000, -12.99999999999999822 ) ) ;
#1010 = EDGE_CURVE ( 'NONE', #312, #503, #539, .T. ) ;
#1011 = PLANE ( 'NONE',  #964 ) ;
#1012 = ORIENTED_EDGE ( 'NONE', *, *, #214, .F. ) ;
#1013 = CIRCLE ( 'NONE', #617, 1.500000000000004885 ) ;
#1014 = FACE_BOUND ( 'NONE', #815, .T. ) ;
#1015 = ORIENTED_EDGE ( 'NONE', *, *, #245, .T. ) ;
#1016 = ORIENTED_EDGE ( 'NONE', *, *, #968, .F. ) ;
#1017 = AXIS2_PLACEMENT_3D ( 'NONE', #137, #843, #612 ) ;
#1018 = DIRECTION ( 'NONE',  ( -0.000000000000000000, -1.000000000000000000, -0.000000000000000000 ) ) ;
#1019 = DIRECTION ( 'NONE',  ( 0.000000000000000000, 1.000000000000000000, 0.000000000000000000 ) ) ;
#1020 = CARTESIAN_POINT ( 'NONE',  ( 61.53553390593273775, 4.000000000000000000, -3.535533905932759957 ) ) ;
#1021 = ORIENTED_EDGE ( 'NONE', *, *, #586, .F. ) ;
#1022 = DIRECTION ( 'NONE',  ( 0.000000000000000000, 1.000000000000000000, -0.000000000000000000 ) ) ;
#1023 = CARTESIAN_POINT ( 'NONE',  ( 48.00000000000000000, 0.000000000000000000, -19.50000000000000355 ) ) ;
#1024 = CARTESIAN_POINT ( 'NONE',  ( 48.00000000000000000, 4.000000000000000000, -16.49999999999999289 ) ) ;
#1025 = ORIENTED_EDGE ( 'NONE', *, *, #190, .F. ) ;
ENDSEC;
END-ISO-10303-21;
