ISO-10303-21;
HEADER;
FILE_DESCRIPTION (( 'STEP AP203' ),
    '1' );
FILE_NAME ('ºìÎï¿é.STEP',
    '2026-05-09T14:08:08',
    ( '' ),
    ( '' ),
    'SwSTEP 2.0',
    'SolidWorks 2025',
    '' );
FILE_SCHEMA (( 'CONFIG_CONTROL_DESIGN' ));
ENDSEC;

DATA;
#1 = DIRECTION ( 'NONE',  ( -1.000000000000000000, 0.000000000000000000, 0.000000000000000000 ) ) ;
#2 =( NAMED_UNIT ( * ) SI_UNIT ( $, .STERADIAN. ) SOLID_ANGLE_UNIT ( ) );
#3 = CC_DESIGN_PERSON_AND_ORGANIZATION_ASSIGNMENT ( #122, #304, ( #249 ) ) ;
#4 = FACE_OUTER_BOUND ( 'NONE', #134, .T. ) ;
#5 = CARTESIAN_POINT ( 'NONE',  ( 0.000000000000000000, 0.000000000000000000, 20.00000000000000355 ) ) ;
#6 =( GEOMETRIC_REPRESENTATION_CONTEXT ( 3 ) GLOBAL_UNCERTAINTY_ASSIGNED_CONTEXT ( ( #269 ) ) GLOBAL_UNIT_ASSIGNED_CONTEXT ( ( #293, #85, #2 ) ) REPRESENTATION_CONTEXT ( 'NONE', 'WORKASPACE' ) );
#7 = CARTESIAN_POINT ( 'NONE',  ( 25.00000000000000000, 3.061616997868383043E-15, 35.00000000000000000 ) ) ;
#8 = CARTESIAN_POINT ( 'NONE',  ( 0.000000000000000000, 0.000000000000000000, 0.000000000000000000 ) ) ;
#9 = DIRECTION ( 'NONE',  ( -1.000000000000000000, 0.000000000000000000, 0.000000000000000000 ) ) ;
#10 = AXIS2_PLACEMENT_3D ( 'NONE', #303, #119, #247 ) ;
#11 = SECURITY_CLASSIFICATION ( '', '', #217 ) ;
#12 = DATE_TIME_ROLE ( 'classification_date' ) ;
#13 = EDGE_CURVE ( 'NONE', #22, #17, #165, .T. ) ;
#14 = ORGANIZATION ( 'æœª', 'æœª', '' ) ;
#15 = ORIENTED_EDGE ( 'NONE', *, *, #68, .F. ) ;
#16 = EDGE_CURVE ( 'NONE', #17, #284, #124, .T. ) ;
#17 = VERTEX_POINT ( 'NONE', #169 ) ;
#18 = AXIS2_PLACEMENT_3D ( 'NONE', #106, #142, #32 ) ;
#19 = AXIS2_PLACEMENT_3D ( 'NONE', #272, #60, #63 ) ;
#20 = ORIENTED_EDGE ( 'NONE', *, *, #25, .F. ) ;
#21 = APPROVAL ( #360, 'æœª' ) ;
#22 = VERTEX_POINT ( 'NONE', #332 ) ;
#23 = DIRECTION ( 'NONE',  ( 1.000000000000000000, 0.000000000000000000, 0.000000000000000000 ) ) ;
#24 = DIRECTION ( 'NONE',  ( -1.000000000000000000, 0.000000000000000000, 0.000000000000000000 ) ) ;
#25 = EDGE_CURVE ( 'NONE', #316, #373, #291, .T. ) ;
#26 = FACE_OUTER_BOUND ( 'NONE', #256, .T. ) ;
#27 = PERSON ( 'æœª', 'æœª', 'æœª', ('æœª'), ('æœª'), ('æœª') ) ;
#28 = FACE_OUTER_BOUND ( 'NONE', #224, .T. ) ;
#29 = DIRECTION ( 'NONE',  ( -0.000000000000000000, -0.000000000000000000, -1.000000000000000000 ) ) ;
#30 = DIRECTION ( 'NONE',  ( 1.000000000000000000, 0.000000000000000000, -0.000000000000000000 ) ) ;
#31 = AXIS2_PLACEMENT_3D ( 'NONE', #79, #351, #59 ) ;
#32 = DIRECTION ( 'NONE',  ( -1.000000000000000000, 0.000000000000000000, 0.000000000000000000 ) ) ;
#33 = CONICAL_SURFACE ( 'NONE', #242, 24.99999999999999645, 0.7853981633974498333 ) ;
#34 = CYLINDRICAL_SURFACE ( 'NONE', #205, 25.00000000000000000 ) ;
#35 = DIRECTION ( 'NONE',  ( -0.000000000000000000, -0.000000000000000000, -1.000000000000000000 ) ) ;
#36 = DESIGN_CONTEXT ( 'detailed design', #267, 'design' ) ;
#37 = DIRECTION ( 'NONE',  ( 0.7071067811865486830, 0.000000000000000000, 0.7071067811865464625 ) ) ;
#38 = PERSON_AND_ORGANIZATION_ROLE ( 'design_supplier' ) ;
#39 = DIRECTION ( 'NONE',  ( -1.000000000000000000, 0.000000000000000000, 0.000000000000000000 ) ) ;
#40 = VECTOR ( 'NONE', #37, 1000.000000000000000 ) ;
#41 = VECTOR ( 'NONE', #141, 1000.000000000000000 ) ;
#42 = PERSON_AND_ORGANIZATION_ROLE ( 'creator' ) ;
#43 = CC_DESIGN_PERSON_AND_ORGANIZATION_ASSIGNMENT ( #279, #38, ( #214 ) ) ;
#44 = APPROVAL_DATE_TIME ( #67, #21 ) ;
#45 = APPLICATION_CONTEXT ( 'configuration controlled 3d designs of mechanical parts and assemblies' ) ;
#46 = COORDINATED_UNIVERSAL_TIME_OFFSET ( 8, 0, .AHEAD. ) ;
#47 = CC_DESIGN_PERSON_AND_ORGANIZATION_ASSIGNMENT ( #248, #42, ( #315 ) ) ;
#48 = AXIS2_PLACEMENT_3D ( 'NONE', #327, #29, #265 ) ;
#49 = ORIENTED_EDGE ( 'NONE', *, *, #336, .T. ) ;
#50 = EDGE_LOOP ( 'NONE', ( #70, #102, #104, #252 ) ) ;
#51 = ORIENTED_EDGE ( 'NONE', *, *, #187, .T. ) ;
#52 = EDGE_CURVE ( 'NONE', #316, #294, #296, .T. ) ;
#53 = ORIENTED_EDGE ( 'NONE', *, *, #198, .T. ) ;
#54 = ORIENTED_EDGE ( 'NONE', *, *, #25, .T. ) ;
#55 = DIRECTION ( 'NONE',  ( -0.000000000000000000, -0.000000000000000000, -1.000000000000000000 ) ) ;
#56 = ADVANCED_FACE ( 'NONE', ( #4 ), #83, .T. ) ;
#57 = DIRECTION ( 'NONE',  ( -0.000000000000000000, -0.000000000000000000, -1.000000000000000000 ) ) ;
#58 = CIRCLE ( 'NONE', #18, 24.99999999999999645 ) ;
#59 = DIRECTION ( 'NONE',  ( -1.000000000000000000, 0.000000000000000000, 0.000000000000000000 ) ) ;
#60 = DIRECTION ( 'NONE',  ( -0.000000000000000000, -0.000000000000000000, -1.000000000000000000 ) ) ;
#61 = CARTESIAN_POINT ( 'NONE',  ( -25.00000000000000000, 0.000000000000000000, 35.00000000000000000 ) ) ;
#62 = ORIENTED_EDGE ( 'NONE', *, *, #162, .F. ) ;
#63 = DIRECTION ( 'NONE',  ( -1.000000000000000000, 0.000000000000000000, 0.000000000000000000 ) ) ;
#64 = DIRECTION ( 'NONE',  ( 1.224646799147353207E-16, -1.000000000000000000, 0.000000000000000000 ) ) ;
#65 = CIRCLE ( 'NONE', #126, 24.99999999999999645 ) ;
#66 = DIRECTION ( 'NONE',  ( 1.000000000000000000, 0.000000000000000000, 0.000000000000000000 ) ) ;
#67 = DATE_AND_TIME ( #244, #261 ) ;
#68 = EDGE_CURVE ( 'NONE', #284, #373, #271, .T. ) ;
#69 = APPLICATION_PROTOCOL_DEFINITION ( 'international standard', 'config_control_design', 1994, #267 ) ;
#70 = ORIENTED_EDGE ( 'NONE', *, *, #187, .F. ) ;
#71 = ORIENTED_EDGE ( 'NONE', *, *, #181, .F. ) ;
#72 = ORIENTED_EDGE ( 'NONE', *, *, #130, .T. ) ;
#73 = PRODUCT_RELATED_PRODUCT_CATEGORY ( 'detail', '', ( #249 ) ) ;
#74 = ORIENTED_EDGE ( 'NONE', *, *, #52, .F. ) ;
#75 = AXIS2_PLACEMENT_3D ( 'NONE', #201, #239, #140 ) ;
#76 = LOCAL_TIME ( 22, 8, 8.000000000000000000, #368 ) ;
#77 = ORIENTED_EDGE ( 'NONE', *, *, #68, .T. ) ;
#78 = ADVANCED_FACE ( 'NONE', ( #109 ), #213, .T. ) ;
#79 = CARTESIAN_POINT ( 'NONE',  ( 0.000000000000000000, 0.000000000000000000, -20.00000000000000000 ) ) ;
#80 = FACE_OUTER_BOUND ( 'NONE', #342, .T. ) ;
#81 = DIRECTION ( 'NONE',  ( -1.000000000000000000, 0.000000000000000000, 0.000000000000000000 ) ) ;
#82 = CARTESIAN_POINT ( 'NONE',  ( -25.00000000000000000, 0.000000000000000000, -34.99999999999999289 ) ) ;
#83 = CONICAL_SURFACE ( 'NONE', #250, 24.99999999999999645, 0.7853981633974498333 ) ;
#84 = CARTESIAN_POINT ( 'NONE',  ( 0.000000000000000000, 0.000000000000000000, 0.000000000000000000 ) ) ;
#85 =( NAMED_UNIT ( * ) PLANE_ANGLE_UNIT ( ) SI_UNIT ( $, .RADIAN. ) );
#86 = ORIENTED_EDGE ( 'NONE', *, *, #16, .F. ) ;
#87 = ADVANCED_FACE ( 'NONE', ( #26 ), #173, .F. ) ;
#88 = DIRECTION ( 'NONE',  ( 1.000000000000000000, 0.000000000000000000, 0.000000000000000000 ) ) ;
#89 = LINE ( 'NONE', #147, #312 ) ;
#90 = APPROVAL_STATUS ( 'not_yet_approved' ) ;
#91 = AXIS2_PLACEMENT_3D ( 'NONE', #5, #55, #144 ) ;
#92 = DIRECTION ( 'NONE',  ( 0.000000000000000000, 0.000000000000000000, 1.000000000000000000 ) ) ;
#93 = EDGE_CURVE ( 'NONE', #284, #17, #158, .T. ) ;
#94 = PERSON_AND_ORGANIZATION ( #27, #14 ) ;
#95 = CARTESIAN_POINT ( 'NONE',  ( 25.00000000000000000, 3.061616997868383043E-15, -35.00000000000000000 ) ) ;
#96 = CALENDAR_DATE ( 2026, 9, 5 ) ;
#97 = ORIENTED_EDGE ( 'NONE', *, *, #93, .T. ) ;
#98 = EDGE_LOOP ( 'NONE', ( #230, #51, #253, #374 ) ) ;
#99 = AXIS2_PLACEMENT_3D ( 'NONE', #8, #356, #135 ) ;
#100 = CONICAL_SURFACE ( 'NONE', #324, 14.99999999999997335, 0.7853981633974499443 ) ;
#101 = EDGE_CURVE ( 'NONE', #287, #103, #375, .T. ) ;
#102 = ORIENTED_EDGE ( 'NONE', *, *, #101, .T. ) ;
#103 = VERTEX_POINT ( 'NONE', #61 ) ;
#104 = ORIENTED_EDGE ( 'NONE', *, *, #218, .T. ) ;
#105 = AXIS2_PLACEMENT_3D ( 'NONE', #183, #92, #66 ) ;
#106 = CARTESIAN_POINT ( 'NONE',  ( 0.000000000000000000, 0.000000000000000000, 30.00000000000000000 ) ) ;
#107 = DIRECTION ( 'NONE',  ( -1.000000000000000000, 0.000000000000000000, 0.000000000000000000 ) ) ;
#108 = MANIFOLD_SOLID_BREP ( '\X2\65cb8f6c\X0\1', #241 ) ;
#109 = FACE_OUTER_BOUND ( 'NONE', #117, .T. ) ;
#110 = ADVANCED_BREP_SHAPE_REPRESENTATION ( '\X2\7ea272695757\X0\', ( #108, #105 ), #6 ) ;
#111 = CARTESIAN_POINT ( 'NONE',  ( 0.000000000000000000, 0.000000000000000000, 30.00000000000000000 ) ) ;
#112 = DIRECTION ( 'NONE',  ( 1.000000000000000000, 0.000000000000000000, 0.000000000000000000 ) ) ;
#113 = VECTOR ( 'NONE', #154, 1000.000000000000000 ) ;
#114 = DIRECTION ( 'NONE',  ( -0.000000000000000000, -0.000000000000000000, -1.000000000000000000 ) ) ;
#115 = APPROVAL ( #127, 'æœª' ) ;
#116 = CARTESIAN_POINT ( 'NONE',  ( 25.00000000000000000, 3.061616997868383043E-15, -34.99999999999999289 ) ) ;
#117 = EDGE_LOOP ( 'NONE', ( #15, #97, #166, #131 ) ) ;
#118 = CYLINDRICAL_SURFACE ( 'NONE', #300, 25.00000000000000000 ) ;
#119 = DIRECTION ( 'NONE',  ( -0.000000000000000000, -0.000000000000000000, -1.000000000000000000 ) ) ;
#120 = DIRECTION ( 'NONE',  ( -0.000000000000000000, -0.000000000000000000, -1.000000000000000000 ) ) ;
#121 = ADVANCED_FACE ( 'NONE', ( #320 ), #178, .T. ) ;
#122 = PERSON_AND_ORGANIZATION ( #27, #14 ) ;
#123 = COORDINATED_UNIVERSAL_TIME_OFFSET ( 8, 0, .AHEAD. ) ;
#124 = CIRCLE ( 'NONE', #196, 14.99999999999997335 ) ;
#125 = EDGE_CURVE ( 'NONE', #317, #370, #58, .T. ) ;
#126 = AXIS2_PLACEMENT_3D ( 'NONE', #364, #180, #361 ) ;
#127 = APPROVAL_STATUS ( 'not_yet_approved' ) ;
#128 = ORIENTED_EDGE ( 'NONE', *, *, #148, .T. ) ;
#129 = EDGE_LOOP ( 'NONE', ( #314, #313, #346, #192 ) ) ;
#130 = EDGE_CURVE ( 'NONE', #22, #227, #277, .T. ) ;
#131 = ORIENTED_EDGE ( 'NONE', *, *, #189, .F. ) ;
#132 = AXIS2_PLACEMENT_3D ( 'NONE', #340, #120, #243 ) ;
#133 = VECTOR ( 'NONE', #331, 999.9999999999998863 ) ;
#134 = EDGE_LOOP ( 'NONE', ( #199, #254, #190, #62 ) ) ;
#135 = DIRECTION ( 'NONE',  ( 0.000000000000000000, 0.000000000000000000, 1.000000000000000000 ) ) ;
#136 = APPLICATION_PROTOCOL_DEFINITION ( 'international standard', 'config_control_design', 1994, #45 ) ;
#137 = CIRCLE ( 'NONE', #255, 25.00000000000000000 ) ;
#138 = DIRECTION ( 'NONE',  ( 0.000000000000000000, 0.000000000000000000, 1.000000000000000000 ) ) ;
#139 = DIRECTION ( 'NONE',  ( -0.000000000000000000, -0.000000000000000000, -1.000000000000000000 ) ) ;
#140 = DIRECTION ( 'NONE',  ( -1.000000000000000000, 0.000000000000000000, 0.000000000000000000 ) ) ;
#141 = DIRECTION ( 'NONE',  ( -0.7071067811865486830, 8.659560562354947649E-17, 0.7071067811865464625 ) ) ;
#142 = DIRECTION ( 'NONE',  ( -0.000000000000000000, -0.000000000000000000, -1.000000000000000000 ) ) ;
#143 = AXIS2_PLACEMENT_3D ( 'NONE', #355, #295, #229 ) ;
#144 = DIRECTION ( 'NONE',  ( -1.000000000000000000, 0.000000000000000000, 0.000000000000000000 ) ) ;
#145 = PLANE ( 'NONE',  #308 ) ;
#146 = PRODUCT_DEFINITION_SHAPE ( 'NONE', 'NONE',  #315 ) ;
#147 = CARTESIAN_POINT ( 'NONE',  ( -25.00000000000000000, 0.000000000000000000, -35.00000000000000000 ) ) ;
#148 = EDGE_CURVE ( 'NONE', #227, #284, #311, .T. ) ;
#149 = DATE_AND_TIME ( #337, #159 ) ;
#150 = DATE_AND_TIME ( #363, #76 ) ;
#151 = CARTESIAN_POINT ( 'NONE',  ( 14.99999999999997513, 0.000000000000000000, 20.00000000000000355 ) ) ;
#152 = AXIS2_PLACEMENT_3D ( 'NONE', #258, #376, #228 ) ;
#153 = APPROVAL_DATE_TIME ( #309, #115 ) ;
#154 = DIRECTION ( 'NONE',  ( -0.000000000000000000, -0.000000000000000000, -1.000000000000000000 ) ) ;
#155 = DATE_AND_TIME ( #96, #292 ) ;
#156 = EDGE_CURVE ( 'NONE', #227, #22, #323, .T. ) ;
#157 = PERSON_AND_ORGANIZATION ( #27, #14 ) ;
#158 = CIRCLE ( 'NONE', #170, 14.99999999999997335 ) ;
#159 = LOCAL_TIME ( 22, 8, 8.000000000000000000, #365 ) ;
#160 = APPROVAL_PERSON_ORGANIZATION ( #281, #210, #275 ) ;
#161 = ORIENTED_EDGE ( 'NONE', *, *, #13, .T. ) ;
#162 = EDGE_CURVE ( 'NONE', #227, #317, #349, .T. ) ;
#163 = ORIENTED_EDGE ( 'NONE', *, *, #204, .F. ) ;
#164 = ORIENTED_EDGE ( 'NONE', *, *, #226, .F. ) ;
#165 = CIRCLE ( 'NONE', #233, 24.99999999999998579 ) ;
#166 = ORIENTED_EDGE ( 'NONE', *, *, #204, .T. ) ;
#167 = ORIENTED_EDGE ( 'NONE', *, *, #298, .F. ) ;
#168 = FACE_OUTER_BOUND ( 'NONE', #129, .T. ) ;
#169 = CARTESIAN_POINT ( 'NONE',  ( -14.99999999999997335, 0.000000000000000000, -20.00000000000000000 ) ) ;
#170 = AXIS2_PLACEMENT_3D ( 'NONE', #232, #212, #24 ) ;
#171 = CARTESIAN_POINT ( 'NONE',  ( 0.000000000000000000, 0.000000000000000000, -35.00000000000000000 ) ) ;
#172 = VECTOR ( 'NONE', #35, 1000.000000000000000 ) ;
#173 = PLANE ( 'NONE',  #75 ) ;
#174 = CC_DESIGN_PERSON_AND_ORGANIZATION_ASSIGNMENT ( #157, #185, ( #214 ) ) ;
#175 = CARTESIAN_POINT ( 'NONE',  ( 0.000000000000000000, 0.000000000000000000, -35.00000000000000000 ) ) ;
#176 = DIRECTION ( 'NONE',  ( 0.000000000000000000, -1.000000000000000000, -0.000000000000000000 ) ) ;
#177 = CARTESIAN_POINT ( 'NONE',  ( 24.99999999999999645, 3.061616997868382648E-15, -29.99999999999999289 ) ) ;
#178 = SPHERICAL_SURFACE ( 'NONE', #259, 24.99999999999998579 ) ;
#179 = CARTESIAN_POINT ( 'NONE',  ( 0.000000000000000000, 0.000000000000000000, -34.99999999999999289 ) ) ;
#180 = DIRECTION ( 'NONE',  ( -0.000000000000000000, -0.000000000000000000, -1.000000000000000000 ) ) ;
#181 = EDGE_CURVE ( 'NONE', #294, #286, #307, .T. ) ;
#182 = CC_DESIGN_APPROVAL ( #21, ( #214 ) ) ;
#183 = CARTESIAN_POINT ( 'NONE',  ( 0.000000000000000000, 0.000000000000000000, 0.000000000000000000 ) ) ;
#184 = CYLINDRICAL_SURFACE ( 'NONE', #10, 25.00000000000000000 ) ;
#185 = PERSON_AND_ORGANIZATION_ROLE ( 'creator' ) ;
#186 = DIRECTION ( 'NONE',  ( -0.000000000000000000, -0.000000000000000000, -1.000000000000000000 ) ) ;
#187 = EDGE_CURVE ( 'NONE', #287, #317, #362, .T. ) ;
#188 = COORDINATED_UNIVERSAL_TIME_OFFSET ( 8, 0, .AHEAD. ) ;
#189 = EDGE_CURVE ( 'NONE', #373, #316, #65, .T. ) ;
#190 = ORIENTED_EDGE ( 'NONE', *, *, #367, .T. ) ;
#191 = CC_DESIGN_APPROVAL ( #115, ( #315 ) ) ;
#192 = ORIENTED_EDGE ( 'NONE', *, *, #336, .F. ) ;
#193 = ORIENTED_EDGE ( 'NONE', *, *, #16, .T. ) ;
#194 = ORIENTED_EDGE ( 'NONE', *, *, #101, .F. ) ;
#195 = AXIS2_PLACEMENT_3D ( 'NONE', #268, #114, #81 ) ;
#196 = AXIS2_PLACEMENT_3D ( 'NONE', #322, #236, #1 ) ;
#197 = CIRCLE ( 'NONE', #235, 25.00000000000000000 ) ;
#198 = EDGE_CURVE ( 'NONE', #373, #286, #216, .T. ) ;
#199 = ORIENTED_EDGE ( 'NONE', *, *, #130, .F. ) ;
#200 = DIRECTION ( 'NONE',  ( -0.000000000000000000, -0.000000000000000000, -1.000000000000000000 ) ) ;
#201 = CARTESIAN_POINT ( 'NONE',  ( 0.000000000000000000, 0.000000000000000000, 35.00000000000000000 ) ) ;
#202 = LINE ( 'NONE', #262, #41 ) ;
#203 = DIRECTION ( 'NONE',  ( -0.000000000000000000, -0.000000000000000000, -1.000000000000000000 ) ) ;
#204 = EDGE_CURVE ( 'NONE', #17, #316, #245, .T. ) ;
#205 = AXIS2_PLACEMENT_3D ( 'NONE', #326, #200, #297 ) ;
#206 = CARTESIAN_POINT ( 'NONE',  ( 0.000000000000000000, 0.000000000000000000, 30.00000000000000000 ) ) ;
#207 = CARTESIAN_POINT ( 'NONE',  ( -24.99999999999999645, 3.061616997868382648E-15, 30.00000000000000000 ) ) ;
#208 = CARTESIAN_POINT ( 'NONE',  ( 14.99999999999997335, 1.836970198721026433E-15, -20.00000000000000000 ) ) ;
#209 = SPHERICAL_SURFACE ( 'NONE', #143, 24.99999999999998579 ) ;
#210 = APPROVAL ( #90, 'æœª' ) ;
#211 = CARTESIAN_POINT ( 'NONE',  ( -14.99999999999997335, 0.000000000000000000, -20.00000000000000000 ) ) ;
#212 = DIRECTION ( 'NONE',  ( -0.000000000000000000, -0.000000000000000000, -1.000000000000000000 ) ) ;
#213 = CONICAL_SURFACE ( 'NONE', #31, 14.99999999999997335, 0.7853981633974499443 ) ;
#214 = PRODUCT_DEFINITION_FORMATION_WITH_SPECIFIED_SOURCE ( 'ä»', '', #249, .NOT_KNOWN. ) ;
#215 = APPROVAL_ROLE ( '' ) ;
#216 = LINE ( 'NONE', #95, #113 ) ;
#217 = SECURITY_CLASSIFICATION_LEVEL ( 'unclassified' ) ;
#218 = EDGE_CURVE ( 'NONE', #103, #370, #89, .T. ) ;
#219 = PERSON_AND_ORGANIZATION_ROLE ( 'classification_officer' ) ;
#220 = PERSON_AND_ORGANIZATION ( #27, #14 ) ;
#221 = ADVANCED_FACE ( 'NONE', ( #273 ), #184, .T. ) ;
#222 = ORIENTED_EDGE ( 'NONE', *, *, #162, .T. ) ;
#223 = EDGE_LOOP ( 'NONE', ( #193, #77, #20, #163 ) ) ;
#224 = EDGE_LOOP ( 'NONE', ( #167, #283, #222, #347 ) ) ;
#225 = EDGE_LOOP ( 'NONE', ( #54, #53, #71, #74 ) ) ;
#226 = EDGE_CURVE ( 'NONE', #103, #287, #197, .T. ) ;
#227 = VERTEX_POINT ( 'NONE', #151 ) ;
#228 = DIRECTION ( 'NONE',  ( -1.000000000000000000, 0.000000000000000000, 0.000000000000000000 ) ) ;
#229 = DIRECTION ( 'NONE',  ( 1.000000000000000000, 0.000000000000000000, 0.000000000000000000 ) ) ;
#230 = ORIENTED_EDGE ( 'NONE', *, *, #226, .T. ) ;
#231 = CARTESIAN_POINT ( 'NONE',  ( 24.99999999999999645, 0.000000000000000000, 30.00000000000000000 ) ) ;
#232 = CARTESIAN_POINT ( 'NONE',  ( 0.000000000000000000, 0.000000000000000000, -20.00000000000000000 ) ) ;
#233 = AXIS2_PLACEMENT_3D ( 'NONE', #84, #64, #263 ) ;
#234 = FACE_OUTER_BOUND ( 'NONE', #98, .T. ) ;
#235 = AXIS2_PLACEMENT_3D ( 'NONE', #358, #366, #39 ) ;
#236 = DIRECTION ( 'NONE',  ( -0.000000000000000000, -0.000000000000000000, -1.000000000000000000 ) ) ;
#237 = CARTESIAN_POINT ( 'NONE',  ( 14.99999999999997335, 2.449293598294704935E-15, -20.00000000000000000 ) ) ;
#238 = DIRECTION ( 'NONE',  ( -0.000000000000000000, -0.000000000000000000, -1.000000000000000000 ) ) ;
#239 = DIRECTION ( 'NONE',  ( -0.000000000000000000, 0.000000000000000000, -1.000000000000000000 ) ) ;
#240 = PERSON_AND_ORGANIZATION ( #27, #14 ) ;
#241 = CLOSED_SHELL ( 'NONE', ( #276, #56, #121, #260, #371, #344, #280, #78, #357, #289, #221, #87 ) ) ;
#242 = AXIS2_PLACEMENT_3D ( 'NONE', #111, #301, #88 ) ;
#243 = DIRECTION ( 'NONE',  ( -1.000000000000000000, 0.000000000000000000, 0.000000000000000000 ) ) ;
#244 = CALENDAR_DATE ( 2026, 9, 5 ) ;
#245 = LINE ( 'NONE', #211, #133 ) ;
#246 = CC_DESIGN_DATE_AND_TIME_ASSIGNMENT ( #149, #251, ( #315 ) ) ;
#247 = DIRECTION ( 'NONE',  ( -1.000000000000000000, 0.000000000000000000, 0.000000000000000000 ) ) ;
#248 = PERSON_AND_ORGANIZATION ( #27, #14 ) ;
#249 = PRODUCT ( '\X2\7ea272695757\X0\', '\X2\7ea272695757\X0\', '', ( #341 ) ) ;
#250 = AXIS2_PLACEMENT_3D ( 'NONE', #206, #138, #112 ) ;
#251 = DATE_TIME_ROLE ( 'creation_date' ) ;
#252 = ORIENTED_EDGE ( 'NONE', *, *, #125, .F. ) ;
#253 = ORIENTED_EDGE ( 'NONE', *, *, #367, .F. ) ;
#254 = ORIENTED_EDGE ( 'NONE', *, *, #298, .T. ) ;
#255 = AXIS2_PLACEMENT_3D ( 'NONE', #179, #139, #321 ) ;
#256 = EDGE_LOOP ( 'NONE', ( #164, #194 ) ) ;
#257 = ORIENTED_EDGE ( 'NONE', *, *, #13, .F. ) ;
#258 = CARTESIAN_POINT ( 'NONE',  ( 0.000000000000000000, 0.000000000000000000, 20.00000000000000355 ) ) ;
#259 = AXIS2_PLACEMENT_3D ( 'NONE', #299, #176, #23 ) ;
#260 = ADVANCED_FACE ( 'NONE', ( #278 ), #100, .T. ) ;
#261 = LOCAL_TIME ( 22, 8, 8.000000000000000000, #46 ) ;
#262 = CARTESIAN_POINT ( 'NONE',  ( -24.99999999999999645, 3.061616997868382648E-15, 30.00000000000000000 ) ) ;
#263 = DIRECTION ( 'NONE',  ( 1.000000000000000000, 1.224646799147353207E-16, 0.000000000000000000 ) ) ;
#264 = FACE_OUTER_BOUND ( 'NONE', #290, .T. ) ;
#265 = DIRECTION ( 'NONE',  ( -1.000000000000000000, 0.000000000000000000, 0.000000000000000000 ) ) ;
#266 = CARTESIAN_POINT ( 'NONE',  ( 0.000000000000000000, 0.000000000000000000, 30.00000000000000000 ) ) ;
#267 = APPLICATION_CONTEXT ( 'configuration controlled 3d designs of mechanical parts and assemblies' ) ;
#268 = CARTESIAN_POINT ( 'NONE',  ( 0.000000000000000000, 0.000000000000000000, -29.99999999999999289 ) ) ;
#269 = UNCERTAINTY_MEASURE_WITH_UNIT (LENGTH_MEASURE( 1.000000000000000082E-05 ), #293, 'distance_accuracy_value', 'NONE');
#270 = CYLINDRICAL_SURFACE ( 'NONE', #19, 25.00000000000000000 ) ;
#271 = LINE ( 'NONE', #208, #343 ) ;
#272 = CARTESIAN_POINT ( 'NONE',  ( 0.000000000000000000, 0.000000000000000000, -35.00000000000000000 ) ) ;
#273 = FACE_OUTER_BOUND ( 'NONE', #50, .T. ) ;
#274 = SHAPE_DEFINITION_REPRESENTATION ( #146, #110 ) ;
#275 = APPROVAL_ROLE ( '' ) ;
#276 = ADVANCED_FACE ( 'NONE', ( #234 ), #34, .T. ) ;
#277 = CIRCLE ( 'NONE', #91, 14.99999999999997335 ) ;
#278 = FACE_OUTER_BOUND ( 'NONE', #223, .T. ) ;
#279 = PERSON_AND_ORGANIZATION ( #27, #14 ) ;
#280 = ADVANCED_FACE ( 'NONE', ( #168 ), #270, .T. ) ;
#281 = PERSON_AND_ORGANIZATION ( #27, #14 ) ;
#282 = APPROVAL_PERSON_ORGANIZATION ( #94, #115, #215 ) ;
#283 = ORIENTED_EDGE ( 'NONE', *, *, #156, .F. ) ;
#284 = VERTEX_POINT ( 'NONE', #237 ) ;
#285 = CC_DESIGN_PERSON_AND_ORGANIZATION_ASSIGNMENT ( #240, #219, ( #11 ) ) ;
#286 = VERTEX_POINT ( 'NONE', #116 ) ;
#287 = VERTEX_POINT ( 'NONE', #7 ) ;
#288 = ORIENTED_EDGE ( 'NONE', *, *, #181, .T. ) ;
#289 = ADVANCED_FACE ( 'NONE', ( #28 ), #33, .T. ) ;
#290 = EDGE_LOOP ( 'NONE', ( #257, #72, #128, #86 ) ) ;
#291 = CIRCLE ( 'NONE', #195, 24.99999999999999645 ) ;
#292 = LOCAL_TIME ( 22, 8, 8.000000000000000000, #123 ) ;
#293 =( LENGTH_UNIT ( ) NAMED_UNIT ( * ) SI_UNIT ( .MILLI., .METRE. ) );
#294 = VERTEX_POINT ( 'NONE', #82 ) ;
#295 = DIRECTION ( 'NONE',  ( 0.000000000000000000, -1.000000000000000000, -0.000000000000000000 ) ) ;
#296 = LINE ( 'NONE', #354, #333 ) ;
#297 = DIRECTION ( 'NONE',  ( -1.000000000000000000, 0.000000000000000000, 0.000000000000000000 ) ) ;
#298 = EDGE_CURVE ( 'NONE', #22, #370, #202, .T. ) ;
#299 = CARTESIAN_POINT ( 'NONE',  ( 0.000000000000000000, 0.000000000000000000, 0.000000000000000000 ) ) ;
#300 = AXIS2_PLACEMENT_3D ( 'NONE', #171, #353, #328 ) ;
#301 = DIRECTION ( 'NONE',  ( 0.000000000000000000, 0.000000000000000000, 1.000000000000000000 ) ) ;
#302 = CALENDAR_DATE ( 2026, 9, 5 ) ;
#303 = CARTESIAN_POINT ( 'NONE',  ( 0.000000000000000000, 0.000000000000000000, -35.00000000000000000 ) ) ;
#304 = PERSON_AND_ORGANIZATION_ROLE ( 'design_owner' ) ;
#305 = CARTESIAN_POINT ( 'NONE',  ( 25.00000000000000000, 3.061616997868383043E-15, -35.00000000000000000 ) ) ;
#306 = CARTESIAN_POINT ( 'NONE',  ( 24.99999999999999645, 0.000000000000000000, 30.00000000000000000 ) ) ;
#307 = CIRCLE ( 'NONE', #132, 25.00000000000000000 ) ;
#308 = AXIS2_PLACEMENT_3D ( 'NONE', #175, #319, #30 ) ;
#309 = DATE_AND_TIME ( #302, #334 ) ;
#310 = APPROVAL_ROLE ( '' ) ;
#311 = CIRCLE ( 'NONE', #99, 24.99999999999998579 ) ;
#312 = VECTOR ( 'NONE', #186, 1000.000000000000000 ) ;
#313 = ORIENTED_EDGE ( 'NONE', *, *, #189, .T. ) ;
#314 = ORIENTED_EDGE ( 'NONE', *, *, #198, .F. ) ;
#315 = PRODUCT_DEFINITION ( 'æœ', '', #214, #36 ) ;
#316 = VERTEX_POINT ( 'NONE', #350 ) ;
#317 = VERTEX_POINT ( 'NONE', #231 ) ;
#318 = ORIENTED_EDGE ( 'NONE', *, *, #148, .F. ) ;
#319 = DIRECTION ( 'NONE',  ( 0.000000000000000000, 0.000000000000000000, 1.000000000000000000 ) ) ;
#320 = FACE_OUTER_BOUND ( 'NONE', #372, .T. ) ;
#321 = DIRECTION ( 'NONE',  ( -1.000000000000000000, 0.000000000000000000, 0.000000000000000000 ) ) ;
#322 = CARTESIAN_POINT ( 'NONE',  ( 0.000000000000000000, 0.000000000000000000, -20.00000000000000000 ) ) ;
#323 = CIRCLE ( 'NONE', #152, 14.99999999999997335 ) ;
#324 = AXIS2_PLACEMENT_3D ( 'NONE', #339, #238, #107 ) ;
#325 = APPROVAL_PERSON_ORGANIZATION ( #220, #21, #310 ) ;
#326 = CARTESIAN_POINT ( 'NONE',  ( 0.000000000000000000, 0.000000000000000000, -35.00000000000000000 ) ) ;
#327 = CARTESIAN_POINT ( 'NONE',  ( 0.000000000000000000, 0.000000000000000000, 35.00000000000000000 ) ) ;
#328 = DIRECTION ( 'NONE',  ( -1.000000000000000000, 0.000000000000000000, 0.000000000000000000 ) ) ;
#329 = DIRECTION ( 'NONE',  ( 0.7071067811865487940, 8.659560562354948882E-17, -0.7071067811865463515 ) ) ;
#330 = FACE_OUTER_BOUND ( 'NONE', #225, .T. ) ;
#331 = DIRECTION ( 'NONE',  ( -0.7071067811865487940, 0.000000000000000000, -0.7071067811865463515 ) ) ;
#332 = CARTESIAN_POINT ( 'NONE',  ( -14.99999999999997513, -1.836970198721026828E-15, 20.00000000000000355 ) ) ;
#333 = VECTOR ( 'NONE', #203, 1000.000000000000000 ) ;
#334 = LOCAL_TIME ( 22, 8, 8.000000000000000000, #188 ) ;
#335 = CC_DESIGN_APPROVAL ( #210, ( #11 ) ) ;
#336 = EDGE_CURVE ( 'NONE', #286, #294, #137, .T. ) ;
#337 = CALENDAR_DATE ( 2026, 9, 5 ) ;
#338 = APPROVAL_DATE_TIME ( #155, #210 ) ;
#339 = CARTESIAN_POINT ( 'NONE',  ( 0.000000000000000000, 0.000000000000000000, -20.00000000000000000 ) ) ;
#340 = CARTESIAN_POINT ( 'NONE',  ( 0.000000000000000000, 0.000000000000000000, -34.99999999999999289 ) ) ;
#341 = MECHANICAL_CONTEXT ( 'NONE', #45, 'mechanical' ) ;
#342 = EDGE_LOOP ( 'NONE', ( #288, #49 ) ) ;
#343 = VECTOR ( 'NONE', #329, 999.9999999999998863 ) ;
#344 = ADVANCED_FACE ( 'NONE', ( #80 ), #145, .F. ) ;
#345 = ORIENTED_EDGE ( 'NONE', *, *, #156, .T. ) ;
#346 = ORIENTED_EDGE ( 'NONE', *, *, #52, .T. ) ;
#347 = ORIENTED_EDGE ( 'NONE', *, *, #125, .T. ) ;
#348 = ORIENTED_EDGE ( 'NONE', *, *, #93, .F. ) ;
#349 = LINE ( 'NONE', #306, #40 ) ;
#350 = CARTESIAN_POINT ( 'NONE',  ( -24.99999999999999645, 0.000000000000000000, -29.99999999999999289 ) ) ;
#351 = DIRECTION ( 'NONE',  ( -0.000000000000000000, -0.000000000000000000, -1.000000000000000000 ) ) ;
#352 = CC_DESIGN_DATE_AND_TIME_ASSIGNMENT ( #150, #12, ( #11 ) ) ;
#353 = DIRECTION ( 'NONE',  ( -0.000000000000000000, -0.000000000000000000, -1.000000000000000000 ) ) ;
#354 = CARTESIAN_POINT ( 'NONE',  ( -25.00000000000000000, 0.000000000000000000, -35.00000000000000000 ) ) ;
#355 = CARTESIAN_POINT ( 'NONE',  ( 0.000000000000000000, 0.000000000000000000, 0.000000000000000000 ) ) ;
#356 = DIRECTION ( 'NONE',  ( 0.000000000000000000, 1.000000000000000000, -0.000000000000000000 ) ) ;
#357 = ADVANCED_FACE ( 'NONE', ( #264 ), #209, .T. ) ;
#358 = CARTESIAN_POINT ( 'NONE',  ( 0.000000000000000000, 0.000000000000000000, 35.00000000000000000 ) ) ;
#359 = AXIS2_PLACEMENT_3D ( 'NONE', #266, #57, #9 ) ;
#360 = APPROVAL_STATUS ( 'not_yet_approved' ) ;
#361 = DIRECTION ( 'NONE',  ( -1.000000000000000000, 0.000000000000000000, 0.000000000000000000 ) ) ;
#362 = LINE ( 'NONE', #305, #172 ) ;
#363 = CALENDAR_DATE ( 2026, 9, 5 ) ;
#364 = CARTESIAN_POINT ( 'NONE',  ( 0.000000000000000000, 0.000000000000000000, -29.99999999999999289 ) ) ;
#365 = COORDINATED_UNIVERSAL_TIME_OFFSET ( 8, 0, .AHEAD. ) ;
#366 = DIRECTION ( 'NONE',  ( -0.000000000000000000, -0.000000000000000000, -1.000000000000000000 ) ) ;
#367 = EDGE_CURVE ( 'NONE', #370, #317, #369, .T. ) ;
#368 = COORDINATED_UNIVERSAL_TIME_OFFSET ( 8, 0, .AHEAD. ) ;
#369 = CIRCLE ( 'NONE', #359, 24.99999999999999645 ) ;
#370 = VERTEX_POINT ( 'NONE', #207 ) ;
#371 = ADVANCED_FACE ( 'NONE', ( #330 ), #118, .T. ) ;
#372 = EDGE_LOOP ( 'NONE', ( #345, #161, #348, #318 ) ) ;
#373 = VERTEX_POINT ( 'NONE', #177 ) ;
#374 = ORIENTED_EDGE ( 'NONE', *, *, #218, .F. ) ;
#375 = CIRCLE ( 'NONE', #48, 25.00000000000000000 ) ;
#376 = DIRECTION ( 'NONE',  ( -0.000000000000000000, -0.000000000000000000, -1.000000000000000000 ) ) ;
#377 = CC_DESIGN_SECURITY_CLASSIFICATION ( #11, ( #214 ) ) ;
ENDSEC;
END-ISO-10303-21;
