ISO-10303-21;
HEADER;
FILE_DESCRIPTION (( 'STEP AP203' ),
    '1' );
FILE_NAME ('ÖÃÎïÅÌ2Aµæ¸ß.STEP',
    '2026-05-11T16:25:25',
    ( '' ),
    ( '' ),
    'SwSTEP 2.0',
    'SolidWorks 2025',
    '' );
FILE_SCHEMA (( 'CONFIG_CONTROL_DESIGN' ));
ENDSEC;

DATA;
#1 = CYLINDRICAL_SURFACE ( 'NONE', #37, 1.500000000000000444 ) ;
#2 = EDGE_CURVE ( 'NONE', #470, #249, #506, .T. ) ;
#3 = VERTEX_POINT ( 'NONE', #472 ) ;
#4 = ORIENTED_EDGE ( 'NONE', *, *, #154, .T. ) ;
#5 = LOCAL_TIME ( 0, 25, 25.00000000000000000, #173 ) ;
#6 = CARTESIAN_POINT ( 'NONE',  ( -7.000000000000000000, 3.000000000000000000, 0.000000000000000000 ) ) ;
#7 = DIRECTION ( 'NONE',  ( 0.000000000000000000, 1.000000000000000000, 0.000000000000000000 ) ) ;
#8 = DESIGN_CONTEXT ( 'detailed design', #322, 'design' ) ;
#9 = VERTEX_POINT ( 'NONE', #521 ) ;
#10 = EDGE_CURVE ( 'NONE', #461, #408, #12, .T. ) ;
#11 = DIRECTION ( 'NONE',  ( 0.000000000000000000, 1.000000000000000000, -0.000000000000000000 ) ) ;
#12 = LINE ( 'NONE', #275, #240 ) ;
#13 = DIRECTION ( 'NONE',  ( 0.000000000000000000, 0.000000000000000000, 1.000000000000000000 ) ) ;
#14 = MECHANICAL_CONTEXT ( 'NONE', #64, 'mechanical' ) ;
#15 = EDGE_CURVE ( 'NONE', #92, #405, #403, .T. ) ;
#16 = CARTESIAN_POINT ( 'NONE',  ( 0.000000000000000000, 3.000000000000000000, 0.000000000000000000 ) ) ;
#17 = AXIS2_PLACEMENT_3D ( 'NONE', #414, #11, #389 ) ;
#18 = PERSON_AND_ORGANIZATION ( #267, #63 ) ;
#19 = FACE_BOUND ( 'NONE', #120, .T. ) ;
#20 = DIRECTION ( 'NONE',  ( 0.000000000000000000, 0.000000000000000000, 1.000000000000000000 ) ) ;
#21 = CARTESIAN_POINT ( 'NONE',  ( 0.000000000000000000, 3.000000000000000000, 0.000000000000000000 ) ) ;
#22 = PRODUCT_RELATED_PRODUCT_CATEGORY ( 'detail', '', ( #545 ) ) ;
#23 = CALENDAR_DATE ( 2026, 12, 5 ) ;
#24 = CARTESIAN_POINT ( 'NONE',  ( 0.000000000000000000, 3.000000000000000000, -8.500000000000000000 ) ) ;
#25 = ORIENTED_EDGE ( 'NONE', *, *, #431, .F. ) ;
#26 = EDGE_CURVE ( 'NONE', #9, #127, #364, .T. ) ;
#27 = CIRCLE ( 'NONE', #101, 1.500000000000000444 ) ;
#28 = APPROVAL_DATE_TIME ( #274, #197 ) ;
#29 = CYLINDRICAL_SURFACE ( 'NONE', #178, 1.500000000000000666 ) ;
#30 = ORIENTED_EDGE ( 'NONE', *, *, #212, .T. ) ;
#31 = APPROVAL ( #43, 'æœª' ) ;
#32 = DIRECTION ( 'NONE',  ( 0.000000000000000000, 1.000000000000000000, 0.000000000000000000 ) ) ;
#33 = ORIENTED_EDGE ( 'NONE', *, *, #86, .T. ) ;
#34 = LINE ( 'NONE', #163, #231 ) ;
#35 = EDGE_LOOP ( 'NONE', ( #328, #423, #51, #49 ) ) ;
#36 = ADVANCED_BREP_SHAPE_REPRESENTATION ( '\X2\7f6e726976d8\X0\2A\X2\57ab9ad8\X0\', ( #531, #518 ), #251 ) ;
#37 = AXIS2_PLACEMENT_3D ( 'NONE', #230, #543, #302 ) ;
#38 = CARTESIAN_POINT ( 'NONE',  ( 0.000000000000000000, 3.000000000000000000, 0.000000000000000000 ) ) ;
#39 = VECTOR ( 'NONE', #271, 1000.000000000000000 ) ;
#40 = CC_DESIGN_APPROVAL ( #280, ( #316 ) ) ;
#41 = DIRECTION ( 'NONE',  ( 0.000000000000000000, 1.000000000000000000, 0.000000000000000000 ) ) ;
#42 = ORIENTED_EDGE ( 'NONE', *, *, #450, .T. ) ;
#43 = APPROVAL_STATUS ( 'not_yet_approved' ) ;
#44 = CARTESIAN_POINT ( 'NONE',  ( 0.000000000000000000, 0.000000000000000000, 5.500000000000000000 ) ) ;
#45 = EDGE_LOOP ( 'NONE', ( #270, #228, #134, #109 ) ) ;
#46 = VERTEX_POINT ( 'NONE', #24 ) ;
#47 = CARTESIAN_POINT ( 'NONE',  ( 0.000000000000000000, 3.000000000000000000, 7.000000000000000000 ) ) ;
#48 = ADVANCED_FACE ( 'NONE', ( #272 ), #430, .F. ) ;
#49 = ORIENTED_EDGE ( 'NONE', *, *, #514, .F. ) ;
#50 = DIRECTION ( 'NONE',  ( 0.000000000000000000, 0.000000000000000000, -1.000000000000000000 ) ) ;
#51 = ORIENTED_EDGE ( 'NONE', *, *, #2, .F. ) ;
#52 = DIRECTION ( 'NONE',  ( -0.000000000000000000, -1.000000000000000000, -0.000000000000000000 ) ) ;
#53 = ORIENTED_EDGE ( 'NONE', *, *, #422, .T. ) ;
#54 = VECTOR ( 'NONE', #536, 1000.000000000000000 ) ;
#55 = AXIS2_PLACEMENT_3D ( 'NONE', #496, #88, #195 ) ;
#56 = CC_DESIGN_PERSON_AND_ORGANIZATION_ASSIGNMENT ( #321, #210, ( #376 ) ) ;
#57 = DIRECTION ( 'NONE',  ( -0.000000000000000000, -1.000000000000000000, -0.000000000000000000 ) ) ;
#58 = DIRECTION ( 'NONE',  ( 0.000000000000000000, 0.000000000000000000, 1.000000000000000000 ) ) ;
#59 = CARTESIAN_POINT ( 'NONE',  ( 0.000000000000000000, 0.000000000000000000, 0.000000000000000000 ) ) ;
#60 = DIRECTION ( 'NONE',  ( 1.000000000000000000, 0.000000000000000000, 0.000000000000000000 ) ) ;
#61 = DIRECTION ( 'NONE',  ( 0.000000000000000000, 0.000000000000000000, 1.000000000000000000 ) ) ;
#62 = AXIS2_PLACEMENT_3D ( 'NONE', #235, #104, #499 ) ;
#63 = ORGANIZATION ( 'æœª', 'æœª', '' ) ;
#64 = APPLICATION_CONTEXT ( 'configuration controlled 3d designs of mechanical parts and assemblies' ) ;
#65 =( NAMED_UNIT ( * ) SI_UNIT ( $, .STERADIAN. ) SOLID_ANGLE_UNIT ( ) );
#66 = ADVANCED_FACE ( 'NONE', ( #153 ), #194, .F. ) ;
#67 = DIRECTION ( 'NONE',  ( 0.000000000000000000, 0.000000000000000000, -1.000000000000000000 ) ) ;
#68 = APPLICATION_PROTOCOL_DEFINITION ( 'international standard', 'config_control_design', 1994, #64 ) ;
#69 = FACE_BOUND ( 'NONE', #468, .T. ) ;
#70 = PERSON_AND_ORGANIZATION_ROLE ( 'classification_officer' ) ;
#71 = CARTESIAN_POINT ( 'NONE',  ( 7.000000000000000000, 0.000000000000000000, 1.499999999999999778 ) ) ;
#72 = EDGE_LOOP ( 'NONE', ( #387, #79, #219, #260 ) ) ;
#73 = AXIS2_PLACEMENT_3D ( 'NONE', #126, #495, #291 ) ;
#74 = DATE_TIME_ROLE ( 'classification_date' ) ;
#75 = SECURITY_CLASSIFICATION ( '', '', #282 ) ;
#76 = FACE_OUTER_BOUND ( 'NONE', #35, .T. ) ;
#77 = EDGE_LOOP ( 'NONE', ( #303, #494 ) ) ;
#78 = FACE_OUTER_BOUND ( 'NONE', #188, .T. ) ;
#79 = ORIENTED_EDGE ( 'NONE', *, *, #428, .T. ) ;
#80 = CARTESIAN_POINT ( 'NONE',  ( 7.000000000000000000, 3.000000000000000000, -1.499999999999999778 ) ) ;
#81 = AXIS2_PLACEMENT_3D ( 'NONE', #352, #105, #213 ) ;
#82 = DIRECTION ( 'NONE',  ( 0.000000000000000000, 0.000000000000000000, 1.000000000000000000 ) ) ;
#83 = LOCAL_TIME ( 0, 25, 25.00000000000000000, #202 ) ;
#84 = EDGE_CURVE ( 'NONE', #269, #125, #505, .T. ) ;
#85 = EDGE_LOOP ( 'NONE', ( #25, #338, #214, #301 ) ) ;
#86 = EDGE_CURVE ( 'NONE', #117, #408, #276, .T. ) ;
#87 = DATE_AND_TIME ( #532, #5 ) ;
#88 = DIRECTION ( 'NONE',  ( 0.000000000000000000, 1.000000000000000000, 0.000000000000000000 ) ) ;
#89 = ORIENTED_EDGE ( 'NONE', *, *, #484, .F. ) ;
#90 = FACE_OUTER_BOUND ( 'NONE', #292, .T. ) ;
#91 = DIRECTION ( 'NONE',  ( 0.000000000000000000, 0.000000000000000000, 1.000000000000000000 ) ) ;
#92 = VERTEX_POINT ( 'NONE', #515 ) ;
#93 = CYLINDRICAL_SURFACE ( 'NONE', #279, 1.500000000000000444 ) ;
#94 = ORIENTED_EDGE ( 'NONE', *, *, #330, .T. ) ;
#95 = APPROVAL_PERSON_ORGANIZATION ( #18, #280, #482 ) ;
#96 = CYLINDRICAL_SURFACE ( 'NONE', #142, 1.499999999999999778 ) ;
#97 = EDGE_LOOP ( 'NONE', ( #263, #183 ) ) ;
#98 = ORIENTED_EDGE ( 'NONE', *, *, #2, .T. ) ;
#99 = DIRECTION ( 'NONE',  ( -0.000000000000000000, -1.000000000000000000, -0.000000000000000000 ) ) ;
#100 = AXIS2_PLACEMENT_3D ( 'NONE', #315, #353, #483 ) ;
#101 = AXIS2_PLACEMENT_3D ( 'NONE', #148, #146, #308 ) ;
#102 = EDGE_CURVE ( 'NONE', #125, #269, #122, .T. ) ;
#103 = CC_DESIGN_APPROVAL ( #197, ( #376 ) ) ;
#104 = DIRECTION ( 'NONE',  ( -0.000000000000000000, -1.000000000000000000, -0.000000000000000000 ) ) ;
#105 = DIRECTION ( 'NONE',  ( 0.000000000000000000, 1.000000000000000000, -0.000000000000000000 ) ) ;
#106 = ADVANCED_FACE ( 'NONE', ( #433 ), #239, .T. ) ;
#107 = LINE ( 'NONE', #176, #320 ) ;
#108 = PERSON_AND_ORGANIZATION ( #267, #63 ) ;
#109 = ORIENTED_EDGE ( 'NONE', *, *, #336, .F. ) ;
#110 = DIRECTION ( 'NONE',  ( 0.000000000000000000, 0.000000000000000000, -1.000000000000000000 ) ) ;
#111 = CIRCLE ( 'NONE', #278, 1.500000000000000444 ) ;
#112 = DIRECTION ( 'NONE',  ( -0.000000000000000000, -1.000000000000000000, -0.000000000000000000 ) ) ;
#113 = ORIENTED_EDGE ( 'NONE', *, *, #466, .F. ) ;
#114 = PERSON_AND_ORGANIZATION_ROLE ( 'design_supplier' ) ;
#115 = CARTESIAN_POINT ( 'NONE',  ( 1.836970198721030181E-16, 3.000000000000000000, 1.500000000000000222 ) ) ;
#116 = EDGE_CURVE ( 'NONE', #137, #530, #345, .T. ) ;
#117 = VERTEX_POINT ( 'NONE', #479 ) ;
#118 = CALENDAR_DATE ( 2026, 12, 5 ) ;
#119 = DIRECTION ( 'NONE',  ( 0.000000000000000000, 0.000000000000000000, -1.000000000000000000 ) ) ;
#120 = EDGE_LOOP ( 'NONE', ( #171, #33 ) ) ;
#121 = ADVANCED_FACE ( 'NONE', ( #398, #237, #19, #69, #204, #475 ), #359, .F. ) ;
#122 = CIRCLE ( 'NONE', #327, 20.00000000000000000 ) ;
#123 = AXIS2_PLACEMENT_3D ( 'NONE', #432, #41, #354 ) ;
#124 = DIRECTION ( 'NONE',  ( 0.000000000000000000, 0.000000000000000000, 1.000000000000000000 ) ) ;
#125 = VERTEX_POINT ( 'NONE', #394 ) ;
#126 = CARTESIAN_POINT ( 'NONE',  ( 7.000000000000000000, 0.000000000000000000, 0.000000000000000000 ) ) ;
#127 = VERTEX_POINT ( 'NONE', #273 ) ;
#128 = CC_DESIGN_DATE_AND_TIME_ASSIGNMENT ( #488, #74, ( #75 ) ) ;
#129 = CARTESIAN_POINT ( 'NONE',  ( 0.000000000000000000, 0.000000000000000000, -7.000000000000000000 ) ) ;
#130 = ORIENTED_EDGE ( 'NONE', *, *, #191, .T. ) ;
#131 = CIRCLE ( 'NONE', #507, 1.500000000000000222 ) ;
#132 = SHAPE_DEFINITION_REPRESENTATION ( #351, #36 ) ;
#133 = DIRECTION ( 'NONE',  ( 0.000000000000000000, 0.000000000000000000, -1.000000000000000000 ) ) ;
#134 = ORIENTED_EDGE ( 'NONE', *, *, #370, .F. ) ;
#135 = CARTESIAN_POINT ( 'NONE',  ( 7.000000000000000000, 0.000000000000000000, 0.000000000000000000 ) ) ;
#136 = CC_DESIGN_PERSON_AND_ORGANIZATION_ASSIGNMENT ( #435, #114, ( #376 ) ) ;
#137 = VERTEX_POINT ( 'NONE', #157 ) ;
#138 = CARTESIAN_POINT ( 'NONE',  ( -7.000000000000000000, 3.000000000000000000, -1.500000000000000666 ) ) ;
#139 = ORIENTED_EDGE ( 'NONE', *, *, #370, .T. ) ;
#140 = EDGE_CURVE ( 'NONE', #167, #384, #318, .T. ) ;
#141 = AXIS2_PLACEMENT_3D ( 'NONE', #286, #255, #82 ) ;
#142 = AXIS2_PLACEMENT_3D ( 'NONE', #503, #350, #459 ) ;
#143 = ORIENTED_EDGE ( 'NONE', *, *, #268, .F. ) ;
#144 = LINE ( 'NONE', #227, #465 ) ;
#145 = VERTEX_POINT ( 'NONE', #115 ) ;
#146 = DIRECTION ( 'NONE',  ( 0.000000000000000000, 1.000000000000000000, -0.000000000000000000 ) ) ;
#147 = CARTESIAN_POINT ( 'NONE',  ( -7.000000000000000000, 0.000000000000000000, -1.500000000000000666 ) ) ;
#148 = CARTESIAN_POINT ( 'NONE',  ( 0.000000000000000000, 3.000000000000000000, 7.000000000000000000 ) ) ;
#149 = LINE ( 'NONE', #469, #375 ) ;
#150 = CARTESIAN_POINT ( 'NONE',  ( 0.000000000000000000, 3.000000000000000000, 0.000000000000000000 ) ) ;
#151 = VECTOR ( 'NONE', #429, 1000.000000000000000 ) ;
#152 = CC_DESIGN_SECURITY_CLASSIFICATION ( #75, ( #376 ) ) ;
#153 = FACE_OUTER_BOUND ( 'NONE', #335, .T. ) ;
#154 = EDGE_CURVE ( 'NONE', #269, #530, #453, .T. ) ;
#155 = DIRECTION ( 'NONE',  ( 0.000000000000000000, 1.000000000000000000, 0.000000000000000000 ) ) ;
#156 = PERSON_AND_ORGANIZATION ( #267, #63 ) ;
#157 = CARTESIAN_POINT ( 'NONE',  ( 2.449293598294706513E-15, 0.000000000000000000, 20.00000000000000000 ) ) ;
#158 = AXIS2_PLACEMENT_3D ( 'NONE', #283, #447, #444 ) ;
#159 = ORIENTED_EDGE ( 'NONE', *, *, #422, .F. ) ;
#160 = CIRCLE ( 'NONE', #540, 1.500000000000000444 ) ;
#161 = EDGE_CURVE ( 'NONE', #374, #509, #373, .T. ) ;
#162 = FACE_BOUND ( 'NONE', #502, .T. ) ;
#163 = CARTESIAN_POINT ( 'NONE',  ( -7.000000000000000000, 3.000000000000000000, 1.500000000000000666 ) ) ;
#164 = EDGE_LOOP ( 'NONE', ( #177, #342 ) ) ;
#165 = CARTESIAN_POINT ( 'NONE',  ( 0.000000000000000000, 3.000000000000000000, -20.00000000000000000 ) ) ;
#166 = EDGE_CURVE ( 'NONE', #3, #226, #524, .T. ) ;
#167 = VERTEX_POINT ( 'NONE', #324 ) ;
#168 = AXIS2_PLACEMENT_3D ( 'NONE', #399, #233, #480 ) ;
#169 = AXIS2_PLACEMENT_3D ( 'NONE', #417, #341, #343 ) ;
#170 = LINE ( 'NONE', #247, #187 ) ;
#171 = ORIENTED_EDGE ( 'NONE', *, *, #360, .T. ) ;
#172 = ADVANCED_FACE ( 'NONE', ( #162, #334, #372, #413, #256, #485 ), #293, .T. ) ;
#173 = COORDINATED_UNIVERSAL_TIME_OFFSET ( 8, 0, .AHEAD. ) ;
#174 = CARTESIAN_POINT ( 'NONE',  ( 0.000000000000000000, 3.000000000000000000, 0.000000000000000000 ) ) ;
#175 = EDGE_LOOP ( 'NONE', ( #98, #340 ) ) ;
#176 = CARTESIAN_POINT ( 'NONE',  ( 0.000000000000000000, 3.000000000000000000, 5.500000000000000000 ) ) ;
#177 = ORIENTED_EDGE ( 'NONE', *, *, #257, .T. ) ;
#178 = AXIS2_PLACEMENT_3D ( 'NONE', #367, #486, #119 ) ;
#179 = CC_DESIGN_PERSON_AND_ORGANIZATION_ASSIGNMENT ( #441, #70, ( #75 ) ) ;
#180 = CYLINDRICAL_SURFACE ( 'NONE', #437, 1.500000000000000666 ) ;
#181 = ORIENTED_EDGE ( 'NONE', *, *, #431, .T. ) ;
#182 = CARTESIAN_POINT ( 'NONE',  ( 0.000000000000000000, 3.000000000000000000, -7.000000000000000000 ) ) ;
#183 = ORIENTED_EDGE ( 'NONE', *, *, #411, .F. ) ;
#184 = DIRECTION ( 'NONE',  ( 0.000000000000000000, 0.000000000000000000, 1.000000000000000000 ) ) ;
#185 = ORIENTED_EDGE ( 'NONE', *, *, #84, .T. ) ;
#186 = AXIS2_PLACEMENT_3D ( 'NONE', #440, #245, #310 ) ;
#187 = VECTOR ( 'NONE', #404, 1000.000000000000000 ) ;
#188 = EDGE_LOOP ( 'NONE', ( #443, #130, #208, #458 ) ) ;
#189 = EDGE_CURVE ( 'NONE', #127, #249, #34, .T. ) ;
#190 = FACE_OUTER_BOUND ( 'NONE', #368, .T. ) ;
#191 = EDGE_CURVE ( 'NONE', #125, #137, #252, .T. ) ;
#192 = CARTESIAN_POINT ( 'NONE',  ( 0.000000000000000000, 0.000000000000000000, -20.00000000000000000 ) ) ;
#193 = EDGE_LOOP ( 'NONE', ( #221, #344 ) ) ;
#194 = CYLINDRICAL_SURFACE ( 'NONE', #355, 1.500000000000000222 ) ;
#195 = DIRECTION ( 'NONE',  ( 0.000000000000000000, 0.000000000000000000, 1.000000000000000000 ) ) ;
#196 = APPROVAL_STATUS ( 'not_yet_approved' ) ;
#197 = APPROVAL ( #356, 'æœª' ) ;
#198 = DIRECTION ( 'NONE',  ( 0.000000000000000000, 1.000000000000000000, 0.000000000000000000 ) ) ;
#199 = AXIS2_PLACEMENT_3D ( 'NONE', #21, #198, #61 ) ;
#200 = AXIS2_PLACEMENT_3D ( 'NONE', #477, #229, #58 ) ;
#201 = LOCAL_TIME ( 0, 25, 25.00000000000000000, #400 ) ;
#202 = COORDINATED_UNIVERSAL_TIME_OFFSET ( 8, 0, .AHEAD. ) ;
#203 = DIRECTION ( 'NONE',  ( 0.000000000000000000, 0.000000000000000000, -1.000000000000000000 ) ) ;
#204 = FACE_BOUND ( 'NONE', #175, .T. ) ;
#205 = DATE_AND_TIME ( #23, #201 ) ;
#206 = DIRECTION ( 'NONE',  ( 0.000000000000000000, 1.000000000000000000, 0.000000000000000000 ) ) ;
#207 = AXIS2_PLACEMENT_3D ( 'NONE', #281, #358, #203 ) ;
#208 = ORIENTED_EDGE ( 'NONE', *, *, #116, .T. ) ;
#209 = AXIS2_PLACEMENT_3D ( 'NONE', #174, #409, #215 ) ;
#210 = PERSON_AND_ORGANIZATION_ROLE ( 'creator' ) ;
#211 = DIRECTION ( 'NONE',  ( 0.000000000000000000, 0.000000000000000000, 1.000000000000000000 ) ) ;
#212 = EDGE_CURVE ( 'NONE', #461, #145, #131, .T. ) ;
#213 = DIRECTION ( 'NONE',  ( 0.000000000000000000, 0.000000000000000000, -1.000000000000000000 ) ) ;
#214 = ORIENTED_EDGE ( 'NONE', *, *, #234, .T. ) ;
#215 = DIRECTION ( 'NONE',  ( 0.000000000000000000, 0.000000000000000000, -1.000000000000000000 ) ) ;
#216 = AXIS2_PLACEMENT_3D ( 'NONE', #377, #365, #489 ) ;
#217 = APPROVAL_ROLE ( '' ) ;
#218 = CARTESIAN_POINT ( 'NONE',  ( 0.000000000000000000, 3.000000000000000000, -20.00000000000000000 ) ) ;
#219 = ORIENTED_EDGE ( 'NONE', *, *, #514, .T. ) ;
#220 = DIRECTION ( 'NONE',  ( -0.000000000000000000, -1.000000000000000000, -0.000000000000000000 ) ) ;
#221 = ORIENTED_EDGE ( 'NONE', *, *, #268, .T. ) ;
#222 = VECTOR ( 'NONE', #300, 1000.000000000000000 ) ;
#223 = EDGE_LOOP ( 'NONE', ( #418, #181, #498, #537 ) ) ;
#224 = CARTESIAN_POINT ( 'NONE',  ( 7.000000000000000000, 3.000000000000000000, 1.499999999999999778 ) ) ;
#225 = EDGE_CURVE ( 'NONE', #509, #374, #295, .T. ) ;
#226 = VERTEX_POINT ( 'NONE', #442 ) ;
#227 = CARTESIAN_POINT ( 'NONE',  ( 7.000000000000000000, 3.000000000000000000, 1.499999999999999778 ) ) ;
#228 = ORIENTED_EDGE ( 'NONE', *, *, #449, .T. ) ;
#229 = DIRECTION ( 'NONE',  ( 0.000000000000000000, 1.000000000000000000, 0.000000000000000000 ) ) ;
#230 = CARTESIAN_POINT ( 'NONE',  ( 0.000000000000000000, 3.000000000000000000, -7.000000000000000000 ) ) ;
#231 = VECTOR ( 'NONE', #410, 1000.000000000000000 ) ;
#232 = VERTEX_POINT ( 'NONE', #71 ) ;
#233 = DIRECTION ( 'NONE',  ( -0.000000000000000000, -1.000000000000000000, -0.000000000000000000 ) ) ;
#234 = EDGE_CURVE ( 'NONE', #46, #226, #170, .T. ) ;
#235 = CARTESIAN_POINT ( 'NONE',  ( 0.000000000000000000, 3.000000000000000000, 7.000000000000000000 ) ) ;
#236 =( LENGTH_UNIT ( ) NAMED_UNIT ( * ) SI_UNIT ( .MILLI., .METRE. ) );
#237 = FACE_BOUND ( 'NONE', #164, .T. ) ;
#238 = DATE_TIME_ROLE ( 'creation_date' ) ;
#239 = CYLINDRICAL_SURFACE ( 'NONE', #168, 20.00000000000000000 ) ;
#240 = VECTOR ( 'NONE', #99, 1000.000000000000000 ) ;
#241 = AXIS2_PLACEMENT_3D ( 'NONE', #182, #7, #184 ) ;
#242 =( NAMED_UNIT ( * ) PLANE_ANGLE_UNIT ( ) SI_UNIT ( $, .RADIAN. ) );
#243 = DIRECTION ( 'NONE',  ( 0.000000000000000000, 0.000000000000000000, -1.000000000000000000 ) ) ;
#244 = PERSON_AND_ORGANIZATION ( #267, #63 ) ;
#245 = DIRECTION ( 'NONE',  ( 0.000000000000000000, 1.000000000000000000, 0.000000000000000000 ) ) ;
#246 = ADVANCED_FACE ( 'NONE', ( #76 ), #29, .F. ) ;
#247 = CARTESIAN_POINT ( 'NONE',  ( 0.000000000000000000, 3.000000000000000000, -8.500000000000000000 ) ) ;
#248 = CLOSED_SHELL ( 'NONE', ( #520, #246, #457, #416, #462, #311, #172, #121, #106, #48, #66, #508, #434, #349 ) ) ;
#249 = VERTEX_POINT ( 'NONE', #407 ) ;
#250 = CIRCLE ( 'NONE', #366, 1.499999999999999778 ) ;
#251 =( GEOMETRIC_REPRESENTATION_CONTEXT ( 3 ) GLOBAL_UNCERTAINTY_ASSIGNED_CONTEXT ( ( #425 ) ) GLOBAL_UNIT_ASSIGNED_CONTEXT ( ( #236, #242, #65 ) ) REPRESENTATION_CONTEXT ( 'NONE', 'WORKASPACE' ) );
#252 = LINE ( 'NONE', #534, #54 ) ;
#253 = CYLINDRICAL_SURFACE ( 'NONE', #209, 20.00000000000000000 ) ;
#254 = PERSON_AND_ORGANIZATION ( #267, #63 ) ;
#255 = DIRECTION ( 'NONE',  ( 0.000000000000000000, 1.000000000000000000, 0.000000000000000000 ) ) ;
#256 = FACE_BOUND ( 'NONE', #436, .T. ) ;
#257 = EDGE_CURVE ( 'NONE', #226, #3, #346, .T. ) ;
#258 = APPROVAL_DATE_TIME ( #87, #31 ) ;
#259 = CARTESIAN_POINT ( 'NONE',  ( 1.836970198721030181E-16, 3.000000000000000000, -5.500000000000000000 ) ) ;
#260 = ORIENTED_EDGE ( 'NONE', *, *, #383, .F. ) ;
#261 = CYLINDRICAL_SURFACE ( 'NONE', #169, 1.499999999999999778 ) ;
#262 = DIRECTION ( 'NONE',  ( 0.000000000000000000, 0.000000000000000000, -1.000000000000000000 ) ) ;
#263 = ORIENTED_EDGE ( 'NONE', *, *, #212, .F. ) ;
#264 = DIRECTION ( 'NONE',  ( -0.000000000000000000, -1.000000000000000000, -0.000000000000000000 ) ) ;
#265 = AXIS2_PLACEMENT_3D ( 'NONE', #6, #471, #133 ) ;
#266 = VERTEX_POINT ( 'NONE', #369 ) ;
#267 = PERSON ( 'æœª', 'æœª', 'æœª', ('æœª'), ('æœª'), ('æœª') ) ;
#268 = EDGE_CURVE ( 'NONE', #405, #92, #160, .T. ) ;
#269 = VERTEX_POINT ( 'NONE', #218 ) ;
#270 = ORIENTED_EDGE ( 'NONE', *, *, #161, .T. ) ;
#271 = DIRECTION ( 'NONE',  ( -0.000000000000000000, -1.000000000000000000, -0.000000000000000000 ) ) ;
#272 = FACE_OUTER_BOUND ( 'NONE', #85, .T. ) ;
#273 = CARTESIAN_POINT ( 'NONE',  ( -7.000000000000000000, 3.000000000000000000, 1.500000000000000666 ) ) ;
#274 = DATE_AND_TIME ( #525, #542 ) ;
#275 = CARTESIAN_POINT ( 'NONE',  ( 0.000000000000000000, 3.000000000000000000, -1.500000000000000222 ) ) ;
#276 = CIRCLE ( 'NONE', #454, 1.500000000000000222 ) ;
#277 = CARTESIAN_POINT ( 'NONE',  ( 0.000000000000000000, 0.000000000000000000, 0.000000000000000000 ) ) ;
#278 = AXIS2_PLACEMENT_3D ( 'NONE', #298, #392, #13 ) ;
#279 = AXIS2_PLACEMENT_3D ( 'NONE', #47, #467, #50 ) ;
#280 = APPROVAL ( #196, 'æœª' ) ;
#281 = CARTESIAN_POINT ( 'NONE',  ( -7.000000000000000000, 0.000000000000000000, 0.000000000000000000 ) ) ;
#282 = SECURITY_CLASSIFICATION_LEVEL ( 'unclassified' ) ;
#283 = CARTESIAN_POINT ( 'NONE',  ( 0.000000000000000000, 3.000000000000000000, 0.000000000000000000 ) ) ;
#284 = ORIENTED_EDGE ( 'NONE', *, *, #225, .F. ) ;
#285 = APPROVAL_ROLE ( '' ) ;
#286 = CARTESIAN_POINT ( 'NONE',  ( 7.000000000000000000, 3.000000000000000000, 0.000000000000000000 ) ) ;
#287 = ORIENTED_EDGE ( 'NONE', *, *, #225, .T. ) ;
#288 = CIRCLE ( 'NONE', #17, 1.500000000000000666 ) ;
#289 = CC_DESIGN_APPROVAL ( #31, ( #75 ) ) ;
#290 = DIRECTION ( 'NONE',  ( 0.000000000000000000, 0.000000000000000000, 1.000000000000000000 ) ) ;
#291 = DIRECTION ( 'NONE',  ( 0.000000000000000000, 0.000000000000000000, 1.000000000000000000 ) ) ;
#292 = EDGE_LOOP ( 'NONE', ( #299, #287, #455, #371 ) ) ;
#293 = PLANE ( 'NONE',  #158 ) ;
#294 = ORIENTED_EDGE ( 'NONE', *, *, #406, .T. ) ;
#295 = CIRCLE ( 'NONE', #216, 1.499999999999999778 ) ;
#296 = LINE ( 'NONE', #259, #329 ) ;
#297 = EDGE_LOOP ( 'NONE', ( #159, #500 ) ) ;
#298 = CARTESIAN_POINT ( 'NONE',  ( 0.000000000000000000, 3.000000000000000000, -7.000000000000000000 ) ) ;
#299 = ORIENTED_EDGE ( 'NONE', *, *, #449, .F. ) ;
#300 = DIRECTION ( 'NONE',  ( -0.000000000000000000, -1.000000000000000000, -0.000000000000000000 ) ) ;
#301 = ORIENTED_EDGE ( 'NONE', *, *, #166, .F. ) ;
#302 = DIRECTION ( 'NONE',  ( 0.000000000000000000, 0.000000000000000000, -1.000000000000000000 ) ) ;
#303 = ORIENTED_EDGE ( 'NONE', *, *, #406, .F. ) ;
#304 = EDGE_LOOP ( 'NONE', ( #294, #42, #143, #412 ) ) ;
#305 = CYLINDRICAL_SURFACE ( 'NONE', #481, 1.500000000000000222 ) ;
#306 = FACE_OUTER_BOUND ( 'NONE', #45, .T. ) ;
#307 = DIRECTION ( 'NONE',  ( 0.000000000000000000, 0.000000000000000000, 1.000000000000000000 ) ) ;
#308 = DIRECTION ( 'NONE',  ( 0.000000000000000000, 0.000000000000000000, -1.000000000000000000 ) ) ;
#309 = APPROVAL_PERSON_ORGANIZATION ( #108, #197, #285 ) ;
#310 = DIRECTION ( 'NONE',  ( 0.000000000000000000, 0.000000000000000000, 1.000000000000000000 ) ) ;
#311 = ADVANCED_FACE ( 'NONE', ( #78 ), #253, .T. ) ;
#312 = CARTESIAN_POINT ( 'NONE',  ( 0.000000000000000000, 3.000000000000000000, 5.500000000000000000 ) ) ;
#313 = CARTESIAN_POINT ( 'NONE',  ( 0.000000000000000000, 0.000000000000000000, 0.000000000000000000 ) ) ;
#314 = DIRECTION ( 'NONE',  ( 0.000000000000000000, 0.000000000000000000, 1.000000000000000000 ) ) ;
#315 = CARTESIAN_POINT ( 'NONE',  ( -7.000000000000000000, 3.000000000000000000, 0.000000000000000000 ) ) ;
#316 = PRODUCT_DEFINITION ( 'æœ', '', #376, #8 ) ;
#317 = APPLICATION_PROTOCOL_DEFINITION ( 'international standard', 'config_control_design', 1994, #322 ) ;
#318 = CIRCLE ( 'NONE', #81, 1.500000000000000444 ) ;
#319 = VERTEX_POINT ( 'NONE', #493 ) ;
#320 = VECTOR ( 'NONE', #337, 1000.000000000000000 ) ;
#321 = PERSON_AND_ORGANIZATION ( #267, #63 ) ;
#322 = APPLICATION_CONTEXT ( 'configuration controlled 3d designs of mechanical parts and assemblies' ) ;
#323 = DIRECTION ( 'NONE',  ( 0.000000000000000000, 1.000000000000000000, 0.000000000000000000 ) ) ;
#324 = CARTESIAN_POINT ( 'NONE',  ( 1.836970198721029934E-16, 3.000000000000000000, 8.500000000000000000 ) ) ;
#325 = CC_DESIGN_PERSON_AND_ORGANIZATION_ASSIGNMENT ( #156, #396, ( #545 ) ) ;
#326 = DIRECTION ( 'NONE',  ( 0.000000000000000000, 1.000000000000000000, -0.000000000000000000 ) ) ;
#327 = AXIS2_PLACEMENT_3D ( 'NONE', #150, #155, #314 ) ;
#328 = ORIENTED_EDGE ( 'NONE', *, *, #26, .T. ) ;
#329 = VECTOR ( 'NONE', #220, 1000.000000000000000 ) ;
#330 = EDGE_CURVE ( 'NONE', #232, #319, #473, .T. ) ;
#331 = CIRCLE ( 'NONE', #241, 1.500000000000000444 ) ;
#332 = DIRECTION ( 'NONE',  ( 0.000000000000000000, 0.000000000000000000, -1.000000000000000000 ) ) ;
#333 = ORIENTED_EDGE ( 'NONE', *, *, #426, .T. ) ;
#334 = FACE_BOUND ( 'NONE', #97, .T. ) ;
#335 = EDGE_LOOP ( 'NONE', ( #113, #541, #544, #448 ) ) ;
#336 = EDGE_CURVE ( 'NONE', #374, #319, #451, .T. ) ;
#337 = DIRECTION ( 'NONE',  ( -0.000000000000000000, -1.000000000000000000, -0.000000000000000000 ) ) ;
#338 = ORIENTED_EDGE ( 'NONE', *, *, #361, .T. ) ;
#339 = CARTESIAN_POINT ( 'NONE',  ( -7.000000000000000000, 3.000000000000000000, 0.000000000000000000 ) ) ;
#340 = ORIENTED_EDGE ( 'NONE', *, *, #383, .T. ) ;
#341 = DIRECTION ( 'NONE',  ( -0.000000000000000000, -1.000000000000000000, -0.000000000000000000 ) ) ;
#342 = ORIENTED_EDGE ( 'NONE', *, *, #166, .T. ) ;
#343 = DIRECTION ( 'NONE',  ( 0.000000000000000000, 0.000000000000000000, -1.000000000000000000 ) ) ;
#344 = ORIENTED_EDGE ( 'NONE', *, *, #15, .T. ) ;
#345 = CIRCLE ( 'NONE', #186, 20.00000000000000000 ) ;
#346 = CIRCLE ( 'NONE', #445, 1.500000000000000444 ) ;
#347 = LOCAL_TIME ( 0, 25, 25.00000000000000000, #526 ) ;
#348 = ORIENTED_EDGE ( 'NONE', *, *, #450, .F. ) ;
#349 = ADVANCED_FACE ( 'NONE', ( #395 ), #510, .F. ) ;
#350 = DIRECTION ( 'NONE',  ( -0.000000000000000000, -1.000000000000000000, -0.000000000000000000 ) ) ;
#351 = PRODUCT_DEFINITION_SHAPE ( 'NONE', 'NONE',  #316 ) ;
#352 = CARTESIAN_POINT ( 'NONE',  ( 0.000000000000000000, 3.000000000000000000, 7.000000000000000000 ) ) ;
#353 = DIRECTION ( 'NONE',  ( 0.000000000000000000, 1.000000000000000000, -0.000000000000000000 ) ) ;
#354 = DIRECTION ( 'NONE',  ( 0.000000000000000000, 0.000000000000000000, 1.000000000000000000 ) ) ;
#355 = AXIS2_PLACEMENT_3D ( 'NONE', #16, #57, #110 ) ;
#356 = APPROVAL_STATUS ( 'not_yet_approved' ) ;
#357 = CIRCLE ( 'NONE', #123, 1.500000000000000222 ) ;
#358 = DIRECTION ( 'NONE',  ( 0.000000000000000000, 1.000000000000000000, -0.000000000000000000 ) ) ;
#359 = PLANE ( 'NONE',  #419 ) ;
#360 = EDGE_CURVE ( 'NONE', #408, #117, #517, .T. ) ;
#361 = EDGE_CURVE ( 'NONE', #266, #46, #111, .T. ) ;
#362 = DIRECTION ( 'NONE',  ( 0.000000000000000000, 1.000000000000000000, 0.000000000000000000 ) ) ;
#363 = COORDINATED_UNIVERSAL_TIME_OFFSET ( 8, 0, .AHEAD. ) ;
#364 = CIRCLE ( 'NONE', #100, 1.500000000000000666 ) ;
#365 = DIRECTION ( 'NONE',  ( 0.000000000000000000, 1.000000000000000000, 0.000000000000000000 ) ) ;
#366 = AXIS2_PLACEMENT_3D ( 'NONE', #135, #539, #91 ) ;
#367 = CARTESIAN_POINT ( 'NONE',  ( -7.000000000000000000, 3.000000000000000000, 0.000000000000000000 ) ) ;
#368 = EDGE_LOOP ( 'NONE', ( #30, #492, #386, #424 ) ) ;
#369 = CARTESIAN_POINT ( 'NONE',  ( 1.836970198721029934E-16, 3.000000000000000000, -5.500000000000000000 ) ) ;
#370 = EDGE_CURVE ( 'NONE', #319, #232, #250, .T. ) ;
#371 = ORIENTED_EDGE ( 'NONE', *, *, #330, .F. ) ;
#372 = FACE_OUTER_BOUND ( 'NONE', #504, .T. ) ;
#373 = CIRCLE ( 'NONE', #141, 1.499999999999999778 ) ;
#374 = VERTEX_POINT ( 'NONE', #379 ) ;
#375 = VECTOR ( 'NONE', #52, 1000.000000000000000 ) ;
#376 = PRODUCT_DEFINITION_FORMATION_WITH_SPECIFIED_SOURCE ( 'ä»', '', #545, .NOT_KNOWN. ) ;
#377 = CARTESIAN_POINT ( 'NONE',  ( 7.000000000000000000, 3.000000000000000000, 0.000000000000000000 ) ) ;
#378 = ORIENTED_EDGE ( 'NONE', *, *, #84, .F. ) ;
#379 = CARTESIAN_POINT ( 'NONE',  ( 7.000000000000000000, 3.000000000000000000, -1.499999999999999778 ) ) ;
#380 = ORIENTED_EDGE ( 'NONE', *, *, #140, .T. ) ;
#381 = FACE_OUTER_BOUND ( 'NONE', #72, .T. ) ;
#382 = EDGE_LOOP ( 'NONE', ( #476, #378, #4, #53 ) ) ;
#383 = EDGE_CURVE ( 'NONE', #249, #470, #288, .T. ) ;
#384 = VERTEX_POINT ( 'NONE', #312 ) ;
#385 = FACE_OUTER_BOUND ( 'NONE', #223, .T. ) ;
#386 = ORIENTED_EDGE ( 'NONE', *, *, #360, .F. ) ;
#387 = ORIENTED_EDGE ( 'NONE', *, *, #189, .F. ) ;
#388 = AXIS2_PLACEMENT_3D ( 'NONE', #129, #323, #290 ) ;
#389 = DIRECTION ( 'NONE',  ( 0.000000000000000000, 0.000000000000000000, -1.000000000000000000 ) ) ;
#390 = LINE ( 'NONE', #421, #39 ) ;
#391 = ORIENTED_EDGE ( 'NONE', *, *, #102, .T. ) ;
#392 = DIRECTION ( 'NONE',  ( 0.000000000000000000, 1.000000000000000000, 0.000000000000000000 ) ) ;
#393 = DIRECTION ( 'NONE',  ( 0.000000000000000000, 0.000000000000000000, -1.000000000000000000 ) ) ;
#394 = CARTESIAN_POINT ( 'NONE',  ( 2.449293598294706513E-15, 3.000000000000000000, 20.00000000000000000 ) ) ;
#395 = FACE_OUTER_BOUND ( 'NONE', #464, .T. ) ;
#396 = PERSON_AND_ORGANIZATION_ROLE ( 'design_owner' ) ;
#397 = DIRECTION ( 'NONE',  ( 0.000000000000000000, 1.000000000000000000, -0.000000000000000000 ) ) ;
#398 = FACE_OUTER_BOUND ( 'NONE', #297, .T. ) ;
#399 = CARTESIAN_POINT ( 'NONE',  ( 0.000000000000000000, 3.000000000000000000, 0.000000000000000000 ) ) ;
#400 = COORDINATED_UNIVERSAL_TIME_OFFSET ( 8, 0, .AHEAD. ) ;
#401 = DIRECTION ( 'NONE',  ( 0.000000000000000000, 1.000000000000000000, 0.000000000000000000 ) ) ;
#402 = DATE_AND_TIME ( #118, #83 ) ;
#403 = CIRCLE ( 'NONE', #497, 1.500000000000000444 ) ;
#404 = DIRECTION ( 'NONE',  ( -0.000000000000000000, -1.000000000000000000, -0.000000000000000000 ) ) ;
#405 = VERTEX_POINT ( 'NONE', #44 ) ;
#406 = EDGE_CURVE ( 'NONE', #384, #167, #27, .T. ) ;
#407 = CARTESIAN_POINT ( 'NONE',  ( -7.000000000000000000, 0.000000000000000000, 1.500000000000000666 ) ) ;
#408 = VERTEX_POINT ( 'NONE', #460 ) ;
#409 = DIRECTION ( 'NONE',  ( -0.000000000000000000, -1.000000000000000000, -0.000000000000000000 ) ) ;
#410 = DIRECTION ( 'NONE',  ( -0.000000000000000000, -1.000000000000000000, -0.000000000000000000 ) ) ;
#411 = EDGE_CURVE ( 'NONE', #145, #461, #357, .T. ) ;
#412 = ORIENTED_EDGE ( 'NONE', *, *, #426, .F. ) ;
#413 = FACE_BOUND ( 'NONE', #427, .T. ) ;
#414 = CARTESIAN_POINT ( 'NONE',  ( -7.000000000000000000, 0.000000000000000000, 0.000000000000000000 ) ) ;
#415 = ORIENTED_EDGE ( 'NONE', *, *, #161, .F. ) ;
#416 = ADVANCED_FACE ( 'NONE', ( #190 ), #305, .F. ) ;
#417 = CARTESIAN_POINT ( 'NONE',  ( 7.000000000000000000, 3.000000000000000000, 0.000000000000000000 ) ) ;
#418 = ORIENTED_EDGE ( 'NONE', *, *, #484, .T. ) ;
#419 = AXIS2_PLACEMENT_3D ( 'NONE', #277, #362, #522 ) ;
#420 = CIRCLE ( 'NONE', #200, 20.00000000000000000 ) ;
#421 = CARTESIAN_POINT ( 'NONE',  ( 1.836970198721030181E-16, 3.000000000000000000, 1.500000000000000222 ) ) ;
#422 = EDGE_CURVE ( 'NONE', #530, #137, #420, .T. ) ;
#423 = ORIENTED_EDGE ( 'NONE', *, *, #189, .T. ) ;
#424 = ORIENTED_EDGE ( 'NONE', *, *, #10, .F. ) ;
#425 = UNCERTAINTY_MEASURE_WITH_UNIT (LENGTH_MEASURE( 1.000000000000000082E-05 ), #236, 'distance_accuracy_value', 'NONE');
#426 = EDGE_CURVE ( 'NONE', #384, #405, #107, .T. ) ;
#427 = EDGE_LOOP ( 'NONE', ( #89, #487 ) ) ;
#428 = EDGE_CURVE ( 'NONE', #127, #9, #490, .T. ) ;
#429 = DIRECTION ( 'NONE',  ( -0.000000000000000000, -1.000000000000000000, -0.000000000000000000 ) ) ;
#430 = CYLINDRICAL_SURFACE ( 'NONE', #516, 1.500000000000000444 ) ;
#431 = EDGE_CURVE ( 'NONE', #266, #3, #296, .T. ) ;
#432 = CARTESIAN_POINT ( 'NONE',  ( 0.000000000000000000, 3.000000000000000000, 0.000000000000000000 ) ) ;
#433 = FACE_OUTER_BOUND ( 'NONE', #382, .T. ) ;
#434 = ADVANCED_FACE ( 'NONE', ( #381 ), #180, .F. ) ;
#435 = PERSON_AND_ORGANIZATION ( #267, #63 ) ;
#436 = EDGE_LOOP ( 'NONE', ( #415, #284 ) ) ;
#437 = AXIS2_PLACEMENT_3D ( 'NONE', #339, #264, #393 ) ;
#438 = CARTESIAN_POINT ( 'NONE',  ( 0.000000000000000000, 3.000000000000000000, -7.000000000000000000 ) ) ;
#439 = APPROVAL_DATE_TIME ( #402, #280 ) ;
#440 = CARTESIAN_POINT ( 'NONE',  ( 0.000000000000000000, 0.000000000000000000, 0.000000000000000000 ) ) ;
#441 = PERSON_AND_ORGANIZATION ( #267, #63 ) ;
#442 = CARTESIAN_POINT ( 'NONE',  ( 0.000000000000000000, 0.000000000000000000, -8.500000000000000000 ) ) ;
#443 = ORIENTED_EDGE ( 'NONE', *, *, #102, .F. ) ;
#444 = DIRECTION ( 'NONE',  ( 0.000000000000000000, -0.000000000000000000, 1.000000000000000000 ) ) ;
#445 = AXIS2_PLACEMENT_3D ( 'NONE', #512, #32, #124 ) ;
#446 = ORIENTED_EDGE ( 'NONE', *, *, #15, .F. ) ;
#447 = DIRECTION ( 'NONE',  ( 0.000000000000000000, 1.000000000000000000, 0.000000000000000000 ) ) ;
#448 = ORIENTED_EDGE ( 'NONE', *, *, #86, .F. ) ;
#449 = EDGE_CURVE ( 'NONE', #509, #232, #144, .T. ) ;
#450 = EDGE_CURVE ( 'NONE', #167, #92, #149, .T. ) ;
#451 = LINE ( 'NONE', #80, #151 ) ;
#452 = ORIENTED_EDGE ( 'NONE', *, *, #26, .F. ) ;
#453 = LINE ( 'NONE', #165, #533 ) ;
#454 = AXIS2_PLACEMENT_3D ( 'NONE', #59, #401, #307 ) ;
#455 = ORIENTED_EDGE ( 'NONE', *, *, #336, .T. ) ;
#456 = CALENDAR_DATE ( 2026, 12, 5 ) ;
#457 = ADVANCED_FACE ( 'NONE', ( #306 ), #96, .F. ) ;
#458 = ORIENTED_EDGE ( 'NONE', *, *, #154, .F. ) ;
#459 = DIRECTION ( 'NONE',  ( 0.000000000000000000, 0.000000000000000000, -1.000000000000000000 ) ) ;
#460 = CARTESIAN_POINT ( 'NONE',  ( 0.000000000000000000, 0.000000000000000000, -1.500000000000000222 ) ) ;
#461 = VERTEX_POINT ( 'NONE', #511 ) ;
#462 = ADVANCED_FACE ( 'NONE', ( #385 ), #1, .F. ) ;
#463 = FACE_OUTER_BOUND ( 'NONE', #304, .T. ) ;
#464 = EDGE_LOOP ( 'NONE', ( #348, #380, #333, #446 ) ) ;
#465 = VECTOR ( 'NONE', #513, 1000.000000000000000 ) ;
#466 = EDGE_CURVE ( 'NONE', #145, #117, #390, .T. ) ;
#467 = DIRECTION ( 'NONE',  ( -0.000000000000000000, -1.000000000000000000, -0.000000000000000000 ) ) ;
#468 = EDGE_LOOP ( 'NONE', ( #139, #94 ) ) ;
#469 = CARTESIAN_POINT ( 'NONE',  ( 1.836970198721030181E-16, 3.000000000000000000, 8.500000000000000000 ) ) ;
#470 = VERTEX_POINT ( 'NONE', #147 ) ;
#471 = DIRECTION ( 'NONE',  ( 0.000000000000000000, 1.000000000000000000, -0.000000000000000000 ) ) ;
#472 = CARTESIAN_POINT ( 'NONE',  ( 1.836970198721029934E-16, 0.000000000000000000, -5.500000000000000000 ) ) ;
#473 = CIRCLE ( 'NONE', #73, 1.499999999999999778 ) ;
#474 = DIRECTION ( 'NONE',  ( -0.000000000000000000, -1.000000000000000000, -0.000000000000000000 ) ) ;
#475 = FACE_BOUND ( 'NONE', #193, .T. ) ;
#476 = ORIENTED_EDGE ( 'NONE', *, *, #191, .F. ) ;
#477 = CARTESIAN_POINT ( 'NONE',  ( 0.000000000000000000, 0.000000000000000000, 0.000000000000000000 ) ) ;
#478 = PERSON_AND_ORGANIZATION_ROLE ( 'creator' ) ;
#479 = CARTESIAN_POINT ( 'NONE',  ( 1.836970198721030181E-16, 0.000000000000000000, 1.500000000000000222 ) ) ;
#480 = DIRECTION ( 'NONE',  ( 0.000000000000000000, 0.000000000000000000, -1.000000000000000000 ) ) ;
#481 = AXIS2_PLACEMENT_3D ( 'NONE', #538, #474, #262 ) ;
#482 = APPROVAL_ROLE ( '' ) ;
#483 = DIRECTION ( 'NONE',  ( 0.000000000000000000, 0.000000000000000000, -1.000000000000000000 ) ) ;
#484 = EDGE_CURVE ( 'NONE', #46, #266, #331, .T. ) ;
#485 = FACE_BOUND ( 'NONE', #77, .T. ) ;
#486 = DIRECTION ( 'NONE',  ( -0.000000000000000000, -1.000000000000000000, -0.000000000000000000 ) ) ;
#487 = ORIENTED_EDGE ( 'NONE', *, *, #361, .F. ) ;
#488 = DATE_AND_TIME ( #456, #347 ) ;
#489 = DIRECTION ( 'NONE',  ( 0.000000000000000000, 0.000000000000000000, 1.000000000000000000 ) ) ;
#490 = CIRCLE ( 'NONE', #265, 1.500000000000000666 ) ;
#491 = APPROVAL_PERSON_ORGANIZATION ( #254, #31, #217 ) ;
#492 = ORIENTED_EDGE ( 'NONE', *, *, #466, .T. ) ;
#493 = CARTESIAN_POINT ( 'NONE',  ( 7.000000000000000000, 0.000000000000000000, -1.499999999999999778 ) ) ;
#494 = ORIENTED_EDGE ( 'NONE', *, *, #140, .F. ) ;
#495 = DIRECTION ( 'NONE',  ( 0.000000000000000000, 1.000000000000000000, 0.000000000000000000 ) ) ;
#496 = CARTESIAN_POINT ( 'NONE',  ( 0.000000000000000000, 0.000000000000000000, 0.000000000000000000 ) ) ;
#497 = AXIS2_PLACEMENT_3D ( 'NONE', #519, #397, #243 ) ;
#498 = ORIENTED_EDGE ( 'NONE', *, *, #257, .F. ) ;
#499 = DIRECTION ( 'NONE',  ( 0.000000000000000000, 0.000000000000000000, -1.000000000000000000 ) ) ;
#500 = ORIENTED_EDGE ( 'NONE', *, *, #116, .F. ) ;
#501 = LINE ( 'NONE', #138, #222 ) ;
#502 = EDGE_LOOP ( 'NONE', ( #452, #535 ) ) ;
#503 = CARTESIAN_POINT ( 'NONE',  ( 7.000000000000000000, 3.000000000000000000, 0.000000000000000000 ) ) ;
#504 = EDGE_LOOP ( 'NONE', ( #185, #391 ) ) ;
#505 = CIRCLE ( 'NONE', #199, 20.00000000000000000 ) ;
#506 = CIRCLE ( 'NONE', #207, 1.500000000000000666 ) ;
#507 = AXIS2_PLACEMENT_3D ( 'NONE', #38, #206, #211 ) ;
#508 = ADVANCED_FACE ( 'NONE', ( #90 ), #261, .F. ) ;
#509 = VERTEX_POINT ( 'NONE', #224 ) ;
#510 = CYLINDRICAL_SURFACE ( 'NONE', #62, 1.500000000000000444 ) ;
#511 = CARTESIAN_POINT ( 'NONE',  ( 0.000000000000000000, 3.000000000000000000, -1.500000000000000222 ) ) ;
#512 = CARTESIAN_POINT ( 'NONE',  ( 0.000000000000000000, 0.000000000000000000, -7.000000000000000000 ) ) ;
#513 = DIRECTION ( 'NONE',  ( -0.000000000000000000, -1.000000000000000000, -0.000000000000000000 ) ) ;
#514 = EDGE_CURVE ( 'NONE', #9, #470, #501, .T. ) ;
#515 = CARTESIAN_POINT ( 'NONE',  ( 1.836970198721029934E-16, 0.000000000000000000, 8.500000000000000000 ) ) ;
#516 = AXIS2_PLACEMENT_3D ( 'NONE', #438, #112, #67 ) ;
#517 = CIRCLE ( 'NONE', #55, 1.500000000000000222 ) ;
#518 = AXIS2_PLACEMENT_3D ( 'NONE', #313, #20, #60 ) ;
#519 = CARTESIAN_POINT ( 'NONE',  ( 0.000000000000000000, 0.000000000000000000, 7.000000000000000000 ) ) ;
#520 = ADVANCED_FACE ( 'NONE', ( #463 ), #93, .F. ) ;
#521 = CARTESIAN_POINT ( 'NONE',  ( -7.000000000000000000, 3.000000000000000000, -1.500000000000000666 ) ) ;
#522 = DIRECTION ( 'NONE',  ( 0.000000000000000000, -0.000000000000000000, 1.000000000000000000 ) ) ;
#523 = CC_DESIGN_PERSON_AND_ORGANIZATION_ASSIGNMENT ( #244, #478, ( #316 ) ) ;
#524 = CIRCLE ( 'NONE', #388, 1.500000000000000444 ) ;
#525 = CALENDAR_DATE ( 2026, 12, 5 ) ;
#526 = COORDINATED_UNIVERSAL_TIME_OFFSET ( 8, 0, .AHEAD. ) ;
#527 = DIRECTION ( 'NONE',  ( -0.000000000000000000, -1.000000000000000000, -0.000000000000000000 ) ) ;
#528 = CARTESIAN_POINT ( 'NONE',  ( 0.000000000000000000, 0.000000000000000000, 7.000000000000000000 ) ) ;
#529 = CC_DESIGN_DATE_AND_TIME_ASSIGNMENT ( #205, #238, ( #316 ) ) ;
#530 = VERTEX_POINT ( 'NONE', #192 ) ;
#531 = MANIFOLD_SOLID_BREP ( '\X2\51f853f0\X0\-\X2\62c94f38\X0\1', #248 ) ;
#532 = CALENDAR_DATE ( 2026, 12, 5 ) ;
#533 = VECTOR ( 'NONE', #527, 1000.000000000000000 ) ;
#534 = CARTESIAN_POINT ( 'NONE',  ( 2.449293598294706513E-15, 3.000000000000000000, 20.00000000000000000 ) ) ;
#535 = ORIENTED_EDGE ( 'NONE', *, *, #428, .F. ) ;
#536 = DIRECTION ( 'NONE',  ( -0.000000000000000000, -1.000000000000000000, -0.000000000000000000 ) ) ;
#537 = ORIENTED_EDGE ( 'NONE', *, *, #234, .F. ) ;
#538 = CARTESIAN_POINT ( 'NONE',  ( 0.000000000000000000, 3.000000000000000000, 0.000000000000000000 ) ) ;
#539 = DIRECTION ( 'NONE',  ( 0.000000000000000000, 1.000000000000000000, 0.000000000000000000 ) ) ;
#540 = AXIS2_PLACEMENT_3D ( 'NONE', #528, #326, #332 ) ;
#541 = ORIENTED_EDGE ( 'NONE', *, *, #411, .T. ) ;
#542 = LOCAL_TIME ( 0, 25, 25.00000000000000000, #363 ) ;
#543 = DIRECTION ( 'NONE',  ( -0.000000000000000000, -1.000000000000000000, -0.000000000000000000 ) ) ;
#544 = ORIENTED_EDGE ( 'NONE', *, *, #10, .T. ) ;
#545 = PRODUCT ( '\X2\7f6e726976d8\X0\2A\X2\57ab9ad8\X0\', '\X2\7f6e726976d8\X0\2A\X2\57ab9ad8\X0\', '', ( #14 ) ) ;
ENDSEC;
END-ISO-10303-21;
