ISO-10303-21;
HEADER;
FILE_DESCRIPTION(('CATIA V5 STEP Exchange','CAx-IF Rec.Pracs.--- Composite Materials ---3.4---2017-06-13'),'2;1');

FILE_NAME('C:\\Users\\PH\\Desktop\\\X2\5DE5521B72696D418D446599\X0\\\1\X2\7ED367846A21578B53CA\X0\PCB\\\X2\7ED367846A21578B\X0\\\\X2\6253537090E84EF6\X0\\\\X2\914D91CD5E7353F0\X0\.stp','2026-06-29T11:09:33+00:00',('none'),('none'),'CATIA Version 5-6 Release 2021 SP7','CATIA V5 STEP AP203 v2','none');

FILE_SCHEMA(('CONFIG_CONTROL_DESIGN'));

ENDSEC;
DATA;
#5=PRODUCT('Part1','','',(#2)) ;
#1=APPLICATION_CONTEXT('configuration controlled 3D design of mechanical parts and assemblies') ;
#14=PRODUCT_DEFINITION('',' ',#6,#3) ;
#16=SECURITY_CLASSIFICATION(' ',' ',#15) ;
#15=SECURITY_CLASSIFICATION_LEVEL('unclassified') ;
#46=CARTESIAN_POINT(' ',(0.,0.,0.)) ;
#51=CARTESIAN_POINT('Axis2P3D Location',(54.8474705914,192.156497005,-151.015132288)) ;
#56=CARTESIAN_POINT('Axis2P3D Location',(77.379520697,192.156497005,-139.027577368)) ;
#60=CARTESIAN_POINT('Vertex',(76.6749902922,192.156497005,-137.703327803)) ;
#62=CARTESIAN_POINT('Vertex',(78.0840511018,192.156497005,-140.351826932)) ;
#65=CARTESIAN_POINT('Line Origine',(55.5520009961,192.156497005,-152.339381853)) ;
#69=CARTESIAN_POINT('Vertex',(79.8497171876,192.156497005,-139.412453059)) ;
#72=CARTESIAN_POINT('Axis2P3D Location',(79.1451867828,192.156497005,-138.088203495)) ;
#76=CARTESIAN_POINT('Vertex',(78.440656378,192.156497005,-136.76395393)) ;
#79=CARTESIAN_POINT('Line Origine',(54.1429401866,192.156497005,-149.690882724)) ;
#91=CARTESIAN_POINT('Axis2P3D Location',(54.8474705914,192.156497005,-151.015132288)) ;
#96=CARTESIAN_POINT('Axis2P3D Location',(77.379520697,192.156497005,-139.027577368)) ;
#101=CARTESIAN_POINT('Axis2P3D Location',(79.1451867828,192.156497005,-138.088203495)) ;
#113=CARTESIAN_POINT('Axis2P3D Location',(2.66064762685,9.08962753759E-15,1.41552408244)) ;
#118=CARTESIAN_POINT('Line Origine',(60.235947514,195.656497005,-106.804171301)) ;
#122=CARTESIAN_POINT('Vertex',(60.235947514,191.656497005,-106.804171301)) ;
#124=CARTESIAN_POINT('Vertex',(60.235947514,199.656497005,-106.804171301)) ;
#127=CARTESIAN_POINT('Line Origine',(70.0993731809,199.656497005,-125.343665203)) ;
#131=CARTESIAN_POINT('Vertex',(79.9627988479,199.656497005,-143.883159104)) ;
#134=CARTESIAN_POINT('Line Origine',(79.9627988479,195.656497005,-143.883159104)) ;
#138=CARTESIAN_POINT('Vertex',(79.9627988479,191.656497005,-143.883159104)) ;
#141=CARTESIAN_POINT('Axis2P3D Location',(77.6143641652,191.656497005,-139.468993889)) ;
#145=CARTESIAN_POINT('Vertex',(77.6143641652,186.656497005,-139.468993889)) ;
#148=CARTESIAN_POINT('Line Origine',(70.0993731809,186.656497005,-125.343665203)) ;
#152=CARTESIAN_POINT('Vertex',(62.5843821966,186.656497005,-111.218336516)) ;
#155=CARTESIAN_POINT('Axis2P3D Location',(62.5843821966,191.656497005,-111.218336516)) ;
#172=CARTESIAN_POINT('Axis2P3D Location',(62.8192256648,192.156497005,-111.659753037)) ;
#176=CARTESIAN_POINT('Vertex',(63.5237560696,192.156497005,-112.984002602)) ;
#178=CARTESIAN_POINT('Vertex',(62.1146952601,192.156497005,-110.335503473)) ;
#181=CARTESIAN_POINT('Axis2P3D Location',(62.8192256648,192.156497005,-111.659753037)) ;
#191=CARTESIAN_POINT('Axis2P3D Location',(62.0016135998,186.656497005,-105.864797428)) ;
#196=CARTESIAN_POINT('Line Origine',(60.235947514,220.077994381,-106.804171301)) ;
#200=CARTESIAN_POINT('Vertex',(60.235947514,216.499491756,-106.804171301)) ;
#202=CARTESIAN_POINT('Vertex',(60.235947514,223.656497005,-106.804171301)) ;
#205=CARTESIAN_POINT('Line Origine',(57.5874483852,216.499491756,-108.213232111)) ;
#209=CARTESIAN_POINT('Vertex',(54.9389492565,216.499491756,-109.622292921)) ;
#212=CARTESIAN_POINT('Line Origine',(54.9389492565,208.077994381,-109.622292921)) ;
#216=CARTESIAN_POINT('Vertex',(54.9389492565,199.656497005,-109.622292921)) ;
#219=CARTESIAN_POINT('Line Origine',(57.5874483852,199.656497005,-108.213232111)) ;
#224=CARTESIAN_POINT('Line Origine',(61.1187805569,191.656497005,-106.334484365)) ;
#228=CARTESIAN_POINT('Vertex',(62.0016135998,191.656497005,-105.864797428)) ;
#231=CARTESIAN_POINT('Line Origine',(62.0016135998,207.656497005,-105.864797428)) ;
#235=CARTESIAN_POINT('Vertex',(62.0016135998,223.656497005,-105.864797428)) ;
#238=CARTESIAN_POINT('Line Origine',(61.1187805569,223.656497005,-106.334484365)) ;
#254=CARTESIAN_POINT('Axis2P3D Location',(5.71332845973E-13,199.656497005,-6.4078944894E-13)) ;
#260=CARTESIAN_POINT('Control Point',(69.0295573521,199.656497005,-136.107284208)) ;
#261=CARTESIAN_POINT('Control Point',(58.6964447487,199.656497005,-116.684957264)) ;
#262=CARTESIAN_POINT('Vertex',(58.6964447487,199.656497005,-116.684957264)) ;
#264=CARTESIAN_POINT('Vertex',(69.0295573521,199.656497005,-136.107284208)) ;
#267=CARTESIAN_POINT('Line Origine',(71.8476789712,199.656497005,-141.404282465)) ;
#271=CARTESIAN_POINT('Vertex',(74.6658005904,199.656497005,-146.701280723)) ;
#274=CARTESIAN_POINT('Line Origine',(77.3142997191,199.656497005,-145.292219913)) ;
#279=CARTESIAN_POINT('Line Origine',(56.8176970026,199.656497005,-113.153625092)) ;
#292=CARTESIAN_POINT('Axis2P3D Location',(66.454959349,199.656497005,-122.751706904)) ;
#296=CARTESIAN_POINT('Vertex',(65.1307097846,199.656497005,-123.456237309)) ;
#298=CARTESIAN_POINT('Vertex',(67.7792089134,199.656497005,-122.047176499)) ;
#301=CARTESIAN_POINT('Axis2P3D Location',(66.454959349,199.656497005,-122.751706904)) ;
#310=CARTESIAN_POINT('Axis2P3D Location',(70.2124548412,199.656497005,-129.814371247)) ;
#314=CARTESIAN_POINT('Vertex',(71.5367044055,199.656497005,-129.109840843)) ;
#316=CARTESIAN_POINT('Vertex',(68.8882052768,199.656497005,-130.518901652)) ;
#319=CARTESIAN_POINT('Axis2P3D Location',(70.2124548412,199.656497005,-129.814371247)) ;
#329=CARTESIAN_POINT('Axis2P3D Location',(81.7284649337,228.656497005,-142.943785231)) ;
#334=CARTESIAN_POINT('Line Origine',(81.7284649337,207.656497005,-142.943785231)) ;
#338=CARTESIAN_POINT('Vertex',(81.7284649337,223.656497005,-142.943785231)) ;
#340=CARTESIAN_POINT('Vertex',(81.7284649337,191.656497005,-142.943785231)) ;
#343=CARTESIAN_POINT('Line Origine',(80.8456318908,191.656497005,-143.413472167)) ;
#348=CARTESIAN_POINT('Line Origine',(74.6658005904,208.077994381,-146.701280723)) ;
#352=CARTESIAN_POINT('Vertex',(74.6658005904,216.499491756,-146.701280723)) ;
#355=CARTESIAN_POINT('Line Origine',(77.3142997191,216.499491756,-145.292219913)) ;
#359=CARTESIAN_POINT('Vertex',(79.9627988479,216.499491756,-143.883159104)) ;
#362=CARTESIAN_POINT('Line Origine',(79.9627988479,220.077994381,-143.883159104)) ;
#366=CARTESIAN_POINT('Vertex',(79.9627988479,223.656497005,-143.883159104)) ;
#369=CARTESIAN_POINT('Line Origine',(80.8456318908,223.656497005,-143.413472167)) ;
#385=CARTESIAN_POINT('Axis2P3D Location',(81.7284649337,186.656497005,-142.943785231)) ;
#390=CARTESIAN_POINT('Line Origine',(78.4971972082,186.656497005,-138.999306953)) ;
#394=CARTESIAN_POINT('Vertex',(79.3800302511,186.656497005,-138.529620016)) ;
#397=CARTESIAN_POINT('Line Origine',(71.8650392667,186.656497005,-124.40429133)) ;
#401=CARTESIAN_POINT('Vertex',(64.3500482824,186.656497005,-110.278962643)) ;
#404=CARTESIAN_POINT('Line Origine',(63.4672152395,186.656497005,-110.748649579)) ;
#416=CARTESIAN_POINT('Axis2P3D Location',(58.6964447487,211.656497005,-116.684957264)) ;
#421=CARTESIAN_POINT('Line Origine',(63.8630010504,228.656497005,-126.396120736)) ;
#425=CARTESIAN_POINT('Vertex',(58.6964447487,228.656497005,-116.684957264)) ;
#427=CARTESIAN_POINT('Vertex',(69.0295573521,228.656497005,-136.107284208)) ;
#430=CARTESIAN_POINT('Line Origine',(69.0295573521,222.577994381,-136.107284208)) ;
#434=CARTESIAN_POINT('Vertex',(69.0295573521,216.499491756,-136.107284208)) ;
#437=CARTESIAN_POINT('Line Origine',(71.8476789712,216.499491756,-141.404282465)) ;
#442=CARTESIAN_POINT('Line Origine',(56.8176970026,216.499491756,-113.153625092)) ;
#446=CARTESIAN_POINT('Vertex',(58.6964447487,216.499491756,-116.684957264)) ;
#449=CARTESIAN_POINT('Line Origine',(58.6964447487,222.577994381,-116.684957264)) ;
#466=CARTESIAN_POINT('Line Origine',(63.8630010504,203.656497005,-126.396120736)) ;
#470=CARTESIAN_POINT('Vertex',(58.6964447487,203.656497005,-116.684957264)) ;
#472=CARTESIAN_POINT('Vertex',(69.0295573521,203.656497005,-136.107284208)) ;
#475=CARTESIAN_POINT('Line Origine',(69.0295573521,207.656497005,-136.107284208)) ;
#479=CARTESIAN_POINT('Vertex',(69.0295573521,211.656497005,-136.107284208)) ;
#482=CARTESIAN_POINT('Line Origine',(63.8630010504,211.656497005,-126.396120736)) ;
#486=CARTESIAN_POINT('Vertex',(58.6964447487,211.656497005,-116.684957264)) ;
#489=CARTESIAN_POINT('Line Origine',(58.6964447487,207.656497005,-116.684957264)) ;
#501=CARTESIAN_POINT('Axis2P3D Location',(70.2124548411,223.656497005,-107.160031154)) ;
#506=CARTESIAN_POINT('Axis2P3D Location',(62.5843821966,223.656497005,-111.218336516)) ;
#510=CARTESIAN_POINT('Vertex',(62.5843821966,228.656497005,-111.218336516)) ;
#513=CARTESIAN_POINT('Axis2P3D Location',(64.3500482824,223.656497005,-110.278962643)) ;
#517=CARTESIAN_POINT('Vertex',(64.3500482824,228.656497005,-110.278962643)) ;
#520=CARTESIAN_POINT('Line Origine',(70.2124548411,228.656497005,-107.160031154)) ;
#532=CARTESIAN_POINT('Axis2P3D Location',(69.0295573521,216.499491756,-136.107284208)) ;
#537=CARTESIAN_POINT('Line Origine',(71.6780564809,216.499491756,-134.698223398)) ;
#541=CARTESIAN_POINT('Vertex',(74.3265556096,216.499491756,-133.289162589)) ;
#544=CARTESIAN_POINT('Line Origine',(77.1446772287,216.499491756,-138.586160846)) ;
#556=CARTESIAN_POINT('Axis2P3D Location',(65.759109092,211.656497005,-112.927461772)) ;
#561=CARTESIAN_POINT('Line Origine',(61.3449438774,216.499491756,-115.275896454)) ;
#565=CARTESIAN_POINT('Vertex',(63.9934430061,216.499491756,-113.866835645)) ;
#568=CARTESIAN_POINT('Line Origine',(63.9934430061,222.577994381,-113.866835645)) ;
#572=CARTESIAN_POINT('Vertex',(63.9934430061,228.656497005,-113.866835645)) ;
#575=CARTESIAN_POINT('Line Origine',(61.3449438774,228.656497005,-115.275896454)) ;
#587=CARTESIAN_POINT('Axis2P3D Location',(6.44932736776E-13,228.656497005,-7.36987965157E-13)) ;
#592=CARTESIAN_POINT('Line Origine',(78.4971972082,228.656497005,-138.999306953)) ;
#596=CARTESIAN_POINT('Vertex',(79.3800302511,228.656497005,-138.529620016)) ;
#598=CARTESIAN_POINT('Vertex',(77.6143641652,228.656497005,-139.468993889)) ;
#601=CARTESIAN_POINT('Line Origine',(75.9704598874,228.656497005,-136.379078239)) ;
#605=CARTESIAN_POINT('Vertex',(74.3265556096,228.656497005,-133.289162589)) ;
#609=CARTESIAN_POINT('Control Point',(69.0295573521,228.656497005,-136.107284208)) ;
#610=CARTESIAN_POINT('Control Point',(74.3265556096,228.656497005,-133.289162589)) ;
#612=CARTESIAN_POINT('Line Origine',(63.2889126014,228.656497005,-112.54258608)) ;
#617=CARTESIAN_POINT('Line Origine',(71.8650392667,228.656497005,-124.40429133)) ;
#632=CARTESIAN_POINT('Axis2P3D Location',(70.2124548412,228.656497005,-129.814371247)) ;
#636=CARTESIAN_POINT('Vertex',(71.5367044055,228.656497005,-129.109840843)) ;
#638=CARTESIAN_POINT('Vertex',(68.8882052768,228.656497005,-130.518901652)) ;
#641=CARTESIAN_POINT('Axis2P3D Location',(70.2124548412,228.656497005,-129.814371247)) ;
#650=CARTESIAN_POINT('Axis2P3D Location',(66.454959349,228.656497005,-122.751706904)) ;
#654=CARTESIAN_POINT('Vertex',(67.7792089134,228.656497005,-122.047176499)) ;
#656=CARTESIAN_POINT('Vertex',(65.1307097846,228.656497005,-123.456237309)) ;
#659=CARTESIAN_POINT('Axis2P3D Location',(66.454959349,228.656497005,-122.751706904)) ;
#669=CARTESIAN_POINT('Axis2P3D Location',(5.82645043323E-13,203.656497005,-6.53699316899E-13)) ;
#674=CARTESIAN_POINT('Line Origine',(69.1599993079,203.656497005,-123.577999117)) ;
#678=CARTESIAN_POINT('Vertex',(63.9934430061,203.656497005,-113.866835645)) ;
#680=CARTESIAN_POINT('Vertex',(74.3265556096,203.656497005,-133.289162589)) ;
#684=CARTESIAN_POINT('Control Point',(74.3265556096,203.656497005,-133.289162589)) ;
#685=CARTESIAN_POINT('Control Point',(69.0295573521,203.656497005,-136.107284208)) ;
#688=CARTESIAN_POINT('Control Point',(58.6964447487,203.656497005,-116.684957264)) ;
#689=CARTESIAN_POINT('Control Point',(63.9934430061,203.656497005,-113.866835645)) ;
#697=CARTESIAN_POINT('Axis2P3D Location',(70.2124548412,203.656497005,-129.814371247)) ;
#701=CARTESIAN_POINT('Vertex',(71.5367044055,203.656497005,-129.109840843)) ;
#703=CARTESIAN_POINT('Vertex',(68.8882052768,203.656497005,-130.518901652)) ;
#706=CARTESIAN_POINT('Axis2P3D Location',(70.2124548412,203.656497005,-129.814371247)) ;
#715=CARTESIAN_POINT('Axis2P3D Location',(66.454959349,203.656497005,-122.751706904)) ;
#719=CARTESIAN_POINT('Vertex',(67.7792089134,203.656497005,-122.047176499)) ;
#721=CARTESIAN_POINT('Vertex',(65.1307097846,203.656497005,-123.456237309)) ;
#724=CARTESIAN_POINT('Axis2P3D Location',(66.454959349,203.656497005,-122.751706904)) ;
#734=CARTESIAN_POINT('Axis2P3D Location',(70.2124548412,220.156497005,-129.814371247)) ;
#739=CARTESIAN_POINT('Line Origine',(68.8882052768,220.156497005,-130.518901652)) ;
#743=CARTESIAN_POINT('Vertex',(68.8882052768,211.656497005,-130.518901652)) ;
#746=CARTESIAN_POINT('Axis2P3D Location',(70.2124548412,211.656497005,-129.814371247)) ;
#750=CARTESIAN_POINT('Vertex',(71.5367044055,211.656497005,-129.109840843)) ;
#753=CARTESIAN_POINT('Line Origine',(71.5367044055,220.156497005,-129.109840843)) ;
#765=CARTESIAN_POINT('Axis2P3D Location',(70.2124548412,211.656497005,-129.814371247)) ;
#777=CARTESIAN_POINT('Axis2P3D Location',(66.454959349,220.156497005,-122.751706904)) ;
#782=CARTESIAN_POINT('Line Origine',(65.1307097846,220.156497005,-123.456237309)) ;
#786=CARTESIAN_POINT('Vertex',(65.1307097846,211.656497005,-123.456237309)) ;
#789=CARTESIAN_POINT('Axis2P3D Location',(66.454959349,211.656497005,-122.751706904)) ;
#793=CARTESIAN_POINT('Vertex',(67.7792089134,211.656497005,-122.047176499)) ;
#796=CARTESIAN_POINT('Line Origine',(67.7792089134,220.156497005,-122.047176499)) ;
#808=CARTESIAN_POINT('Axis2P3D Location',(66.454959349,211.656497005,-122.751706904)) ;
#820=CARTESIAN_POINT('Line Origine',(69.1599993079,211.656497005,-123.577999117)) ;
#824=CARTESIAN_POINT('Vertex',(63.9934430061,211.656497005,-113.866835645)) ;
#826=CARTESIAN_POINT('Vertex',(74.3265556096,211.656497005,-133.289162589)) ;
#829=CARTESIAN_POINT('Line Origine',(74.3265556096,207.656497005,-133.289162589)) ;
#834=CARTESIAN_POINT('Line Origine',(63.9934430061,207.656497005,-113.866835645)) ;
#846=CARTESIAN_POINT('Axis2P3D Location',(54.8474705914,223.156497005,-151.015132288)) ;
#851=CARTESIAN_POINT('Axis2P3D Location',(77.379520697,223.156497005,-139.027577368)) ;
#855=CARTESIAN_POINT('Vertex',(76.6749902922,223.156497005,-137.703327803)) ;
#857=CARTESIAN_POINT('Vertex',(78.0840511018,223.156497005,-140.351826932)) ;
#860=CARTESIAN_POINT('Line Origine',(55.5520009961,223.156497005,-152.339381853)) ;
#864=CARTESIAN_POINT('Vertex',(79.8497171876,223.156497005,-139.412453059)) ;
#867=CARTESIAN_POINT('Axis2P3D Location',(79.1451867828,223.156497005,-138.088203495)) ;
#871=CARTESIAN_POINT('Vertex',(78.440656378,223.156497005,-136.76395393)) ;
#874=CARTESIAN_POINT('Line Origine',(54.1429401866,223.156497005,-149.690882724)) ;
#886=CARTESIAN_POINT('Axis2P3D Location',(54.8474705914,223.156497005,-151.015132288)) ;
#891=CARTESIAN_POINT('Axis2P3D Location',(77.379520697,223.156497005,-139.027577368)) ;
#896=CARTESIAN_POINT('Axis2P3D Location',(79.1451867828,223.156497005,-138.088203495)) ;
#908=CARTESIAN_POINT('Axis2P3D Location',(40.2871755592,223.156497005,-123.647307958)) ;
#913=CARTESIAN_POINT('Axis2P3D Location',(62.8192256648,223.156497005,-111.659753037)) ;
#917=CARTESIAN_POINT('Vertex',(62.1146952601,223.156497005,-110.335503473)) ;
#919=CARTESIAN_POINT('Vertex',(63.5237560696,223.156497005,-112.984002602)) ;
#922=CARTESIAN_POINT('Line Origine',(40.991705964,223.156497005,-124.971557522)) ;
#926=CARTESIAN_POINT('Vertex',(65.2894221554,223.156497005,-112.044628729)) ;
#929=CARTESIAN_POINT('Axis2P3D Location',(64.5848917507,223.156497005,-110.720379164)) ;
#933=CARTESIAN_POINT('Vertex',(63.8803613459,223.156497005,-109.3961296)) ;
#936=CARTESIAN_POINT('Line Origine',(39.5826451544,223.156497005,-122.323058394)) ;
#948=CARTESIAN_POINT('Axis2P3D Location',(40.2871755592,223.156497005,-123.647307958)) ;
#953=CARTESIAN_POINT('Axis2P3D Location',(62.8192256648,223.156497005,-111.659753037)) ;
#958=CARTESIAN_POINT('Axis2P3D Location',(64.5848917507,223.156497005,-110.720379164)) ;
#970=CARTESIAN_POINT('Axis2P3D Location',(69.0295573521,211.656497005,-136.107284208)) ;
#975=CARTESIAN_POINT('Line Origine',(71.6780564809,211.656497005,-134.698223398)) ;
#987=CARTESIAN_POINT('Axis2P3D Location',(5.96855898038E-13,211.656497005,-6.8212102633E-13)) ;
#993=CARTESIAN_POINT('Control Point',(63.9934430061,211.656497005,-113.866835645)) ;
#994=CARTESIAN_POINT('Control Point',(58.6964447487,211.656497005,-116.684957264)) ;
#1018=CARTESIAN_POINT('Line Origine',(74.3265556096,222.577994381,-133.289162589)) ;
#1030=CARTESIAN_POINT('Axis2P3D Location',(71.5098269952,223.656497005,-142.716744282)) ;
#1035=CARTESIAN_POINT('Axis2P3D Location',(77.6143641652,223.656497005,-139.468993889)) ;
#1040=CARTESIAN_POINT('Axis2P3D Location',(79.3800302511,223.656497005,-138.529620016)) ;
#1064=CARTESIAN_POINT('Axis2P3D Location',(70.2124548412,201.656497005,-129.814371247)) ;
#1069=CARTESIAN_POINT('Line Origine',(71.5367044055,201.656497005,-129.109840843)) ;
#1074=CARTESIAN_POINT('Line Origine',(68.8882052768,201.656497005,-130.518901652)) ;
#1093=CARTESIAN_POINT('Axis2P3D Location',(66.454959349,201.656497005,-122.751706904)) ;
#1098=CARTESIAN_POINT('Line Origine',(65.1307097846,201.656497005,-123.456237309)) ;
#1103=CARTESIAN_POINT('Line Origine',(67.7792089134,201.656497005,-122.047176499)) ;
#1122=CARTESIAN_POINT('Line Origine',(62.1146952601,216.499491756,-110.335503473)) ;
#1146=CARTESIAN_POINT('Axis2P3D Location',(40.2871755592,192.156497005,-123.647307958)) ;
#1151=CARTESIAN_POINT('Line Origine',(40.991705964,192.156497005,-124.971557522)) ;
#1155=CARTESIAN_POINT('Vertex',(65.2894221554,192.156497005,-112.044628729)) ;
#1158=CARTESIAN_POINT('Axis2P3D Location',(64.5848917507,192.156497005,-110.720379164)) ;
#1162=CARTESIAN_POINT('Vertex',(63.8803613459,192.156497005,-109.3961296)) ;
#1165=CARTESIAN_POINT('Line Origine',(39.5826451544,192.156497005,-122.323058394)) ;
#1177=CARTESIAN_POINT('Axis2P3D Location',(40.2871755592,192.156497005,-123.647307958)) ;
#1182=CARTESIAN_POINT('Axis2P3D Location',(64.5848917507,192.156497005,-110.720379164)) ;
#1194=CARTESIAN_POINT('Axis2P3D Location',(60.8187161107,191.656497005,-112.157710389)) ;
#1199=CARTESIAN_POINT('Axis2P3D Location',(64.3500482824,191.656497005,-110.278962643)) ;
#1211=CARTESIAN_POINT('Axis2P3D Location',(75.8486980794,191.656497005,-140.408367762)) ;
#1216=CARTESIAN_POINT('Axis2P3D Location',(79.3800302511,191.656497005,-138.529620016)) ;
#1228=CARTESIAN_POINT('Axis2P3D Location',(76.0922216954,211.656497005,-132.349788716)) ;
#52=DIRECTION('Axis2P3D Direction',(-0.882833042914,-2.46617306776E-16,-0.469686936521)) ;
#53=DIRECTION('Axis2P3D XDirection',(-0.469686936521,1.89033977571E-14,0.882833042914)) ;
#57=DIRECTION('Axis2P3D Direction',(-0.882833042914,-2.46617306776E-16,-0.469686936521)) ;
#66=DIRECTION('Vector Direction',(-0.882833042914,0.,-0.469686936521)) ;
#73=DIRECTION('Axis2P3D Direction',(-0.882833042914,-2.46617306776E-16,-0.469686936521)) ;
#80=DIRECTION('Vector Direction',(-0.882833042914,0.,-0.469686936521)) ;
#92=DIRECTION('Axis2P3D Direction',(-0.882833042914,-2.46617306776E-16,-0.469686936521)) ;
#93=DIRECTION('Axis2P3D XDirection',(0.469686936521,-1.92250222871E-14,-0.882833042914)) ;
#97=DIRECTION('Axis2P3D Direction',(-0.882833042914,-2.46617306776E-16,-0.469686936521)) ;
#102=DIRECTION('Axis2P3D Direction',(-0.882833042914,-2.46617306776E-16,-0.469686936521)) ;
#114=DIRECTION('Axis2P3D Direction',(-0.882833042914,-2.46617306776E-16,-0.469686936521)) ;
#115=DIRECTION('Axis2P3D XDirection',(2.79347617033E-16,-1.,0.)) ;
#119=DIRECTION('Vector Direction',(0.,1.,0.)) ;
#128=DIRECTION('Vector Direction',(0.469686936521,-3.38353683695E-15,-0.882833042914)) ;
#135=DIRECTION('Vector Direction',(0.,-1.,0.)) ;
#142=DIRECTION('Axis2P3D Direction',(-0.882833042914,-2.46617306776E-16,-0.469686936521)) ;
#149=DIRECTION('Vector Direction',(-0.469686936521,0.,0.882833042914)) ;
#156=DIRECTION('Axis2P3D Direction',(-0.882833042914,-2.46617306776E-16,-0.469686936521)) ;
#173=DIRECTION('Axis2P3D Direction',(-0.882833042914,-2.46617306776E-16,-0.469686936521)) ;
#182=DIRECTION('Axis2P3D Direction',(-0.882833042914,-2.46617306776E-16,-0.469686936521)) ;
#192=DIRECTION('Axis2P3D Direction',(-0.469686936521,-1.31205926469E-16,0.882833042914)) ;
#193=DIRECTION('Axis2P3D XDirection',(-2.79347617033E-16,1.,0.)) ;
#197=DIRECTION('Vector Direction',(0.,1.,0.)) ;
#206=DIRECTION('Vector Direction',(0.882833042914,-9.47390314347E-15,0.469686936521)) ;
#213=DIRECTION('Vector Direction',(-1.26558740816E-15,-1.,-8.4372493877E-16)) ;
#220=DIRECTION('Vector Direction',(0.882833042914,-4.73695157174E-15,0.469686936521)) ;
#225=DIRECTION('Vector Direction',(-0.882833042914,0.,-0.469686936521)) ;
#232=DIRECTION('Vector Direction',(-2.22044604925E-16,1.,0.)) ;
#239=DIRECTION('Vector Direction',(-0.882833042914,0.,-0.469686936521)) ;
#255=DIRECTION('Axis2P3D Direction',(-2.8280493375E-15,-1.,3.22746698985E-15)) ;
#256=DIRECTION('Axis2P3D XDirection',(1.,-2.8280493375E-15,0.)) ;
#268=DIRECTION('Vector Direction',(0.469686936521,-4.73695157173E-15,-0.882833042914)) ;
#275=DIRECTION('Vector Direction',(0.882833042914,0.,0.469686936521)) ;
#280=DIRECTION('Vector Direction',(-0.469686936521,7.1054273576E-15,0.882833042914)) ;
#293=DIRECTION('Axis2P3D Direction',(-2.8280493375E-15,-1.,3.22746698985E-15)) ;
#302=DIRECTION('Axis2P3D Direction',(-2.8280493375E-15,-1.,3.22746698985E-15)) ;
#311=DIRECTION('Axis2P3D Direction',(-2.8280493375E-15,-1.,3.22746698985E-15)) ;
#320=DIRECTION('Axis2P3D Direction',(-2.8280493375E-15,-1.,3.22746698985E-15)) ;
#330=DIRECTION('Axis2P3D Direction',(0.469686936521,1.31205926469E-16,-0.882833042914)) ;
#331=DIRECTION('Axis2P3D XDirection',(2.79347617033E-16,-1.,0.)) ;
#335=DIRECTION('Vector Direction',(4.4408920985E-16,-1.,0.)) ;
#344=DIRECTION('Vector Direction',(-0.882833042914,0.,-0.469686936521)) ;
#349=DIRECTION('Vector Direction',(8.4372493877E-16,-1.,0.)) ;
#356=DIRECTION('Vector Direction',(0.882833042914,-9.47390314347E-15,0.469686936521)) ;
#363=DIRECTION('Vector Direction',(0.,-1.,0.)) ;
#370=DIRECTION('Vector Direction',(-0.882833042914,0.,-0.469686936521)) ;
#386=DIRECTION('Axis2P3D Direction',(2.79347617033E-16,-1.,0.)) ;
#387=DIRECTION('Axis2P3D XDirection',(-0.469686936521,-1.31205926469E-16,0.882833042914)) ;
#391=DIRECTION('Vector Direction',(-0.882833042914,0.,-0.469686936521)) ;
#398=DIRECTION('Vector Direction',(-0.469686936521,0.,0.882833042914)) ;
#405=DIRECTION('Vector Direction',(-0.882833042914,0.,-0.469686936521)) ;
#417=DIRECTION('Axis2P3D Direction',(0.882833042914,-1.49880108324E-15,0.469686936521)) ;
#418=DIRECTION('Axis2P3D XDirection',(0.469686936521,-4.17761233321E-15,-0.882833042914)) ;
#422=DIRECTION('Vector Direction',(0.469686936521,-3.8756876496E-15,-0.882833042914)) ;
#431=DIRECTION('Vector Direction',(3.50683110464E-15,1.,-2.33788740309E-15)) ;
#438=DIRECTION('Vector Direction',(0.469686936521,-4.73695157173E-15,-0.882833042914)) ;
#443=DIRECTION('Vector Direction',(-0.469686936521,3.5527136788E-15,0.882833042914)) ;
#450=DIRECTION('Vector Direction',(3.50683110464E-15,1.,-3.50683110464E-15)) ;
#467=DIRECTION('Vector Direction',(-0.469686936521,3.8756876496E-15,0.882833042914)) ;
#476=DIRECTION('Vector Direction',(-3.5527136788E-15,-1.,3.5527136788E-15)) ;
#483=DIRECTION('Vector Direction',(0.469686936521,-3.8756876496E-15,-0.882833042914)) ;
#490=DIRECTION('Vector Direction',(3.5527136788E-15,1.,-3.5527136788E-15)) ;
#502=DIRECTION('Axis2P3D Direction',(-0.882833042914,1.17423185882E-15,-0.469686936521)) ;
#503=DIRECTION('Axis2P3D XDirection',(-0.469686936521,1.0768228676E-16,0.882833042914)) ;
#507=DIRECTION('Axis2P3D Direction',(-0.882833042914,1.17423185882E-15,-0.469686936521)) ;
#514=DIRECTION('Axis2P3D Direction',(-0.882833042914,1.17423185882E-15,-0.469686936521)) ;
#521=DIRECTION('Vector Direction',(-0.882833042914,1.55631929683E-15,-0.469686936521)) ;
#533=DIRECTION('Axis2P3D Direction',(8.89446141329E-15,1.,7.88860905221E-31)) ;
#534=DIRECTION('Axis2P3D XDirection',(0.882833042914,-7.85232443458E-15,0.469686936521)) ;
#538=DIRECTION('Vector Direction',(0.882833042914,-9.47390314347E-15,0.469686936521)) ;
#545=DIRECTION('Vector Direction',(0.469686936521,-4.73695157173E-15,-0.882833042914)) ;
#557=DIRECTION('Axis2P3D Direction',(0.469686936521,-3.96904731303E-15,-0.882833042914)) ;
#558=DIRECTION('Axis2P3D XDirection',(-0.882833042914,9.80796318948E-16,-0.469686936521)) ;
#562=DIRECTION('Vector Direction',(0.882833042914,-9.47390314347E-15,0.469686936521)) ;
#569=DIRECTION('Vector Direction',(-2.33788740309E-15,-1.,4.67577480619E-15)) ;
#576=DIRECTION('Vector Direction',(-0.882833042914,0.,-0.469686936521)) ;
#588=DIRECTION('Axis2P3D Direction',(-2.8280493375E-15,-1.,3.22746698985E-15)) ;
#589=DIRECTION('Axis2P3D XDirection',(1.,-2.8280493375E-15,0.)) ;
#593=DIRECTION('Vector Direction',(-0.882833042914,0.,-0.469686936521)) ;
#602=DIRECTION('Vector Direction',(0.469686936521,-8.12048840869E-15,-0.882833042914)) ;
#613=DIRECTION('Vector Direction',(0.469686936521,0.,-0.882833042914)) ;
#618=DIRECTION('Vector Direction',(0.469686936521,-4.4408920985E-15,-0.882833042914)) ;
#633=DIRECTION('Axis2P3D Direction',(-2.8280493375E-15,-1.,3.22746698985E-15)) ;
#642=DIRECTION('Axis2P3D Direction',(-2.8280493375E-15,-1.,3.22746698985E-15)) ;
#651=DIRECTION('Axis2P3D Direction',(-2.8280493375E-15,-1.,3.22746698985E-15)) ;
#660=DIRECTION('Axis2P3D Direction',(-2.8280493375E-15,-1.,3.22746698985E-15)) ;
#670=DIRECTION('Axis2P3D Direction',(-2.8280493375E-15,-1.,3.22746698985E-15)) ;
#671=DIRECTION('Axis2P3D XDirection',(1.,-2.8280493375E-15,0.)) ;
#675=DIRECTION('Vector Direction',(0.469686936521,-3.8756876496E-15,-0.882833042914)) ;
#698=DIRECTION('Axis2P3D Direction',(-2.8280493375E-15,-1.,3.22746698985E-15)) ;
#707=DIRECTION('Axis2P3D Direction',(-2.8280493375E-15,-1.,3.22746698985E-15)) ;
#716=DIRECTION('Axis2P3D Direction',(-2.8280493375E-15,-1.,3.22746698985E-15)) ;
#725=DIRECTION('Axis2P3D Direction',(-2.8280493375E-15,-1.,3.22746698985E-15)) ;
#735=DIRECTION('Axis2P3D Direction',(-2.8280493375E-15,-1.,3.22746698985E-15)) ;
#736=DIRECTION('Axis2P3D XDirection',(-0.882833042914,9.80796318947E-16,-0.469686936521)) ;
#740=DIRECTION('Vector Direction',(-3.34373052122E-15,-1.,3.34373052122E-15)) ;
#747=DIRECTION('Axis2P3D Direction',(-2.8280493375E-15,-1.,3.22746698985E-15)) ;
#754=DIRECTION('Vector Direction',(-3.34373052122E-15,-1.,3.34373052122E-15)) ;
#766=DIRECTION('Axis2P3D Direction',(-2.8280493375E-15,-1.,3.22746698985E-15)) ;
#778=DIRECTION('Axis2P3D Direction',(-2.8280493375E-15,-1.,3.22746698985E-15)) ;
#779=DIRECTION('Axis2P3D XDirection',(-0.882833042914,9.80796318948E-16,-0.469686936521)) ;
#783=DIRECTION('Vector Direction',(-3.34373052122E-15,-1.,3.34373052122E-15)) ;
#790=DIRECTION('Axis2P3D Direction',(-2.8280493375E-15,-1.,3.22746698985E-15)) ;
#797=DIRECTION('Vector Direction',(-3.34373052122E-15,-1.,3.34373052122E-15)) ;
#809=DIRECTION('Axis2P3D Direction',(-2.8280493375E-15,-1.,3.22746698985E-15)) ;
#821=DIRECTION('Vector Direction',(0.469686936521,-2.5837917664E-15,-0.882833042914)) ;
#830=DIRECTION('Vector Direction',(1.7763568394E-15,1.,-3.5527136788E-15)) ;
#835=DIRECTION('Vector Direction',(0.,-1.,0.)) ;
#847=DIRECTION('Axis2P3D Direction',(-0.882833042914,-2.46617306776E-16,-0.469686936521)) ;
#848=DIRECTION('Axis2P3D XDirection',(-0.469686936521,1.89033977571E-14,0.882833042914)) ;
#852=DIRECTION('Axis2P3D Direction',(-0.882833042914,-2.46617306776E-16,-0.469686936521)) ;
#861=DIRECTION('Vector Direction',(-0.882833042914,0.,-0.469686936521)) ;
#868=DIRECTION('Axis2P3D Direction',(-0.882833042914,-2.46617306776E-16,-0.469686936521)) ;
#875=DIRECTION('Vector Direction',(-0.882833042914,0.,-0.469686936521)) ;
#887=DIRECTION('Axis2P3D Direction',(-0.882833042914,-2.46617306776E-16,-0.469686936521)) ;
#888=DIRECTION('Axis2P3D XDirection',(0.469686936521,-1.92250222871E-14,-0.882833042914)) ;
#892=DIRECTION('Axis2P3D Direction',(-0.882833042914,-2.46617306776E-16,-0.469686936521)) ;
#897=DIRECTION('Axis2P3D Direction',(-0.882833042914,-2.46617306776E-16,-0.469686936521)) ;
#909=DIRECTION('Axis2P3D Direction',(-0.882833042914,-2.46617306776E-16,-0.469686936521)) ;
#910=DIRECTION('Axis2P3D XDirection',(-0.469686936521,1.89033977571E-14,0.882833042914)) ;
#914=DIRECTION('Axis2P3D Direction',(-0.882833042914,-2.46617306776E-16,-0.469686936521)) ;
#923=DIRECTION('Vector Direction',(-0.882833042914,0.,-0.469686936521)) ;
#930=DIRECTION('Axis2P3D Direction',(-0.882833042914,-2.46617306776E-16,-0.469686936521)) ;
#937=DIRECTION('Vector Direction',(-0.882833042914,0.,-0.469686936521)) ;
#949=DIRECTION('Axis2P3D Direction',(-0.882833042914,-2.46617306776E-16,-0.469686936521)) ;
#950=DIRECTION('Axis2P3D XDirection',(0.469686936521,-1.92250222871E-14,-0.882833042914)) ;
#954=DIRECTION('Axis2P3D Direction',(-0.882833042914,-2.46617306776E-16,-0.469686936521)) ;
#959=DIRECTION('Axis2P3D Direction',(-0.882833042914,-2.46617306776E-16,-0.469686936521)) ;
#971=DIRECTION('Axis2P3D Direction',(-0.469686936521,4.0800696155E-15,0.882833042914)) ;
#972=DIRECTION('Axis2P3D XDirection',(0.882833042914,-9.80796318948E-16,0.469686936521)) ;
#976=DIRECTION('Vector Direction',(0.882833042914,0.,0.469686936521)) ;
#988=DIRECTION('Axis2P3D Direction',(-2.8280493375E-15,-1.,3.22746698985E-15)) ;
#989=DIRECTION('Axis2P3D XDirection',(1.,-2.8280493375E-15,0.)) ;
#1019=DIRECTION('Vector Direction',(-2.33788740309E-15,-1.,2.33788740309E-15)) ;
#1031=DIRECTION('Axis2P3D Direction',(-0.882833042914,0.,-0.469686936521)) ;
#1032=DIRECTION('Axis2P3D XDirection',(2.83388051672E-15,1.,-5.32661899938E-15)) ;
#1036=DIRECTION('Axis2P3D Direction',(-0.882833042914,0.,-0.469686936521)) ;
#1041=DIRECTION('Axis2P3D Direction',(-0.882833042914,0.,-0.469686936521)) ;
#1065=DIRECTION('Axis2P3D Direction',(-2.8280493375E-15,-1.,3.22746698985E-15)) ;
#1066=DIRECTION('Axis2P3D XDirection',(0.882833042914,-9.80796318949E-16,0.469686936521)) ;
#1070=DIRECTION('Vector Direction',(0.,-1.,0.)) ;
#1075=DIRECTION('Vector Direction',(0.,-1.,0.)) ;
#1094=DIRECTION('Axis2P3D Direction',(-2.8280493375E-15,-1.,3.22746698985E-15)) ;
#1095=DIRECTION('Axis2P3D XDirection',(0.882833042914,-9.80796318948E-16,0.469686936521)) ;
#1099=DIRECTION('Vector Direction',(0.,-1.,0.)) ;
#1104=DIRECTION('Vector Direction',(0.,-1.,0.)) ;
#1123=DIRECTION('Vector Direction',(-0.469686936521,3.5527136788E-15,0.882833042914)) ;
#1147=DIRECTION('Axis2P3D Direction',(-0.882833042914,-2.46617306776E-16,-0.469686936521)) ;
#1148=DIRECTION('Axis2P3D XDirection',(-0.469686936521,1.89033977571E-14,0.882833042914)) ;
#1152=DIRECTION('Vector Direction',(-0.882833042914,0.,-0.469686936521)) ;
#1159=DIRECTION('Axis2P3D Direction',(-0.882833042914,-2.46617306776E-16,-0.469686936521)) ;
#1166=DIRECTION('Vector Direction',(-0.882833042914,0.,-0.469686936521)) ;
#1178=DIRECTION('Axis2P3D Direction',(-0.882833042914,-2.46617306776E-16,-0.469686936521)) ;
#1179=DIRECTION('Axis2P3D XDirection',(0.469686936521,-1.92250222871E-14,-0.882833042914)) ;
#1183=DIRECTION('Axis2P3D Direction',(-0.882833042914,-2.46617306776E-16,-0.469686936521)) ;
#1195=DIRECTION('Axis2P3D Direction',(-0.882833042914,0.,-0.469686936521)) ;
#1196=DIRECTION('Axis2P3D XDirection',(8.62800905118E-17,-1.,-1.62173799028E-16)) ;
#1200=DIRECTION('Axis2P3D Direction',(-0.882833042914,0.,-0.469686936521)) ;
#1212=DIRECTION('Axis2P3D Direction',(-0.882833042914,-0.,-0.469686936521)) ;
#1213=DIRECTION('Axis2P3D XDirection',(0.469686936521,1.83697019872E-16,-0.882833042914)) ;
#1217=DIRECTION('Axis2P3D Direction',(-0.882833042914,-0.,-0.469686936521)) ;
#1229=DIRECTION('Axis2P3D Direction',(-0.882833042914,1.66533453694E-16,-0.469686936521)) ;
#1230=DIRECTION('Axis2P3D XDirection',(-0.469686936521,4.17761233321E-15,0.882833042914)) ;
#47=AXIS2_PLACEMENT_3D(' ',#46,$,$) ;
#54=AXIS2_PLACEMENT_3D('Cylinder Axis2P3D',#51,#52,#53) ;
#58=AXIS2_PLACEMENT_3D('Circle Axis2P3D',#56,#57,$) ;
#74=AXIS2_PLACEMENT_3D('Circle Axis2P3D',#72,#73,$) ;
#94=AXIS2_PLACEMENT_3D('Cylinder Axis2P3D',#91,#92,#93) ;
#98=AXIS2_PLACEMENT_3D('Circle Axis2P3D',#96,#97,$) ;
#103=AXIS2_PLACEMENT_3D('Circle Axis2P3D',#101,#102,$) ;
#116=AXIS2_PLACEMENT_3D('Plane Axis2P3D',#113,#114,#115) ;
#143=AXIS2_PLACEMENT_3D('Circle Axis2P3D',#141,#142,$) ;
#157=AXIS2_PLACEMENT_3D('Circle Axis2P3D',#155,#156,$) ;
#174=AXIS2_PLACEMENT_3D('Circle Axis2P3D',#172,#173,$) ;
#183=AXIS2_PLACEMENT_3D('Circle Axis2P3D',#181,#182,$) ;
#194=AXIS2_PLACEMENT_3D('Plane Axis2P3D',#191,#192,#193) ;
#257=AXIS2_PLACEMENT_3D('Plane Axis2P3D',#254,#255,#256) ;
#294=AXIS2_PLACEMENT_3D('Circle Axis2P3D',#292,#293,$) ;
#303=AXIS2_PLACEMENT_3D('Circle Axis2P3D',#301,#302,$) ;
#312=AXIS2_PLACEMENT_3D('Circle Axis2P3D',#310,#311,$) ;
#321=AXIS2_PLACEMENT_3D('Circle Axis2P3D',#319,#320,$) ;
#332=AXIS2_PLACEMENT_3D('Plane Axis2P3D',#329,#330,#331) ;
#388=AXIS2_PLACEMENT_3D('Plane Axis2P3D',#385,#386,#387) ;
#419=AXIS2_PLACEMENT_3D('Plane Axis2P3D',#416,#417,#418) ;
#504=AXIS2_PLACEMENT_3D('Cylinder Axis2P3D',#501,#502,#503) ;
#508=AXIS2_PLACEMENT_3D('Circle Axis2P3D',#506,#507,$) ;
#515=AXIS2_PLACEMENT_3D('Circle Axis2P3D',#513,#514,$) ;
#535=AXIS2_PLACEMENT_3D('Plane Axis2P3D',#532,#533,#534) ;
#559=AXIS2_PLACEMENT_3D('Plane Axis2P3D',#556,#557,#558) ;
#590=AXIS2_PLACEMENT_3D('Plane Axis2P3D',#587,#588,#589) ;
#634=AXIS2_PLACEMENT_3D('Circle Axis2P3D',#632,#633,$) ;
#643=AXIS2_PLACEMENT_3D('Circle Axis2P3D',#641,#642,$) ;
#652=AXIS2_PLACEMENT_3D('Circle Axis2P3D',#650,#651,$) ;
#661=AXIS2_PLACEMENT_3D('Circle Axis2P3D',#659,#660,$) ;
#672=AXIS2_PLACEMENT_3D('Plane Axis2P3D',#669,#670,#671) ;
#699=AXIS2_PLACEMENT_3D('Circle Axis2P3D',#697,#698,$) ;
#708=AXIS2_PLACEMENT_3D('Circle Axis2P3D',#706,#707,$) ;
#717=AXIS2_PLACEMENT_3D('Circle Axis2P3D',#715,#716,$) ;
#726=AXIS2_PLACEMENT_3D('Circle Axis2P3D',#724,#725,$) ;
#737=AXIS2_PLACEMENT_3D('Cylinder Axis2P3D',#734,#735,#736) ;
#748=AXIS2_PLACEMENT_3D('Circle Axis2P3D',#746,#747,$) ;
#767=AXIS2_PLACEMENT_3D('Circle Axis2P3D',#765,#766,$) ;
#780=AXIS2_PLACEMENT_3D('Cylinder Axis2P3D',#777,#778,#779) ;
#791=AXIS2_PLACEMENT_3D('Circle Axis2P3D',#789,#790,$) ;
#810=AXIS2_PLACEMENT_3D('Circle Axis2P3D',#808,#809,$) ;
#849=AXIS2_PLACEMENT_3D('Cylinder Axis2P3D',#846,#847,#848) ;
#853=AXIS2_PLACEMENT_3D('Circle Axis2P3D',#851,#852,$) ;
#869=AXIS2_PLACEMENT_3D('Circle Axis2P3D',#867,#868,$) ;
#889=AXIS2_PLACEMENT_3D('Cylinder Axis2P3D',#886,#887,#888) ;
#893=AXIS2_PLACEMENT_3D('Circle Axis2P3D',#891,#892,$) ;
#898=AXIS2_PLACEMENT_3D('Circle Axis2P3D',#896,#897,$) ;
#911=AXIS2_PLACEMENT_3D('Cylinder Axis2P3D',#908,#909,#910) ;
#915=AXIS2_PLACEMENT_3D('Circle Axis2P3D',#913,#914,$) ;
#931=AXIS2_PLACEMENT_3D('Circle Axis2P3D',#929,#930,$) ;
#951=AXIS2_PLACEMENT_3D('Cylinder Axis2P3D',#948,#949,#950) ;
#955=AXIS2_PLACEMENT_3D('Circle Axis2P3D',#953,#954,$) ;
#960=AXIS2_PLACEMENT_3D('Circle Axis2P3D',#958,#959,$) ;
#973=AXIS2_PLACEMENT_3D('Plane Axis2P3D',#970,#971,#972) ;
#990=AXIS2_PLACEMENT_3D('Plane Axis2P3D',#987,#988,#989) ;
#1033=AXIS2_PLACEMENT_3D('Cylinder Axis2P3D',#1030,#1031,#1032) ;
#1037=AXIS2_PLACEMENT_3D('Circle Axis2P3D',#1035,#1036,$) ;
#1042=AXIS2_PLACEMENT_3D('Circle Axis2P3D',#1040,#1041,$) ;
#1067=AXIS2_PLACEMENT_3D('Cylinder Axis2P3D',#1064,#1065,#1066) ;
#1096=AXIS2_PLACEMENT_3D('Cylinder Axis2P3D',#1093,#1094,#1095) ;
#1149=AXIS2_PLACEMENT_3D('Cylinder Axis2P3D',#1146,#1147,#1148) ;
#1160=AXIS2_PLACEMENT_3D('Circle Axis2P3D',#1158,#1159,$) ;
#1180=AXIS2_PLACEMENT_3D('Cylinder Axis2P3D',#1177,#1178,#1179) ;
#1184=AXIS2_PLACEMENT_3D('Circle Axis2P3D',#1182,#1183,$) ;
#1197=AXIS2_PLACEMENT_3D('Cylinder Axis2P3D',#1194,#1195,#1196) ;
#1201=AXIS2_PLACEMENT_3D('Circle Axis2P3D',#1199,#1200,$) ;
#1214=AXIS2_PLACEMENT_3D('Cylinder Axis2P3D',#1211,#1212,#1213) ;
#1218=AXIS2_PLACEMENT_3D('Circle Axis2P3D',#1216,#1217,$) ;
#1231=AXIS2_PLACEMENT_3D('Plane Axis2P3D',#1228,#1229,#1230) ;
#40=PRODUCT_DEFINITION_SHAPE(' ',' ',#14) ;
#31=APPROVAL_PERSON_ORGANIZATION(#25,#21,#19) ;
#25=PERSON_AND_ORGANIZATION(#22,#23) ;
#22=PERSON(' ',' ',' ',$,$,$) ;
#23=ORGANIZATION(' ',' ',' ') ;
#21=APPROVAL(#20,' ') ;
#20=APPROVAL_STATUS('not_yet_approved') ;
#19=APPROVAL_ROLE('APPROVER') ;
#13=DATE_AND_TIME(#11,#12) ;
#12=LOCAL_TIME(19,9,33.,#10) ;
#10=COORDINATED_UNIVERSAL_TIME_OFFSET(0,0,.AHEAD.) ;
#85=ORIENTED_EDGE('',*,*,#64,.T.) ;
#86=ORIENTED_EDGE('',*,*,#71,.F.) ;
#87=ORIENTED_EDGE('',*,*,#78,.F.) ;
#88=ORIENTED_EDGE('',*,*,#83,.T.) ;
#107=ORIENTED_EDGE('',*,*,#100,.T.) ;
#108=ORIENTED_EDGE('',*,*,#83,.F.) ;
#109=ORIENTED_EDGE('',*,*,#105,.F.) ;
#110=ORIENTED_EDGE('',*,*,#71,.T.) ;
#161=ORIENTED_EDGE('',*,*,#126,.T.) ;
#162=ORIENTED_EDGE('',*,*,#133,.T.) ;
#163=ORIENTED_EDGE('',*,*,#140,.T.) ;
#164=ORIENTED_EDGE('',*,*,#147,.F.) ;
#165=ORIENTED_EDGE('',*,*,#154,.T.) ;
#166=ORIENTED_EDGE('',*,*,#159,.F.) ;
#169=ORIENTED_EDGE('',*,*,#100,.F.) ;
#170=ORIENTED_EDGE('',*,*,#64,.F.) ;
#187=ORIENTED_EDGE('',*,*,#180,.F.) ;
#188=ORIENTED_EDGE('',*,*,#185,.F.) ;
#244=ORIENTED_EDGE('',*,*,#204,.F.) ;
#245=ORIENTED_EDGE('',*,*,#211,.F.) ;
#246=ORIENTED_EDGE('',*,*,#218,.T.) ;
#247=ORIENTED_EDGE('',*,*,#223,.T.) ;
#248=ORIENTED_EDGE('',*,*,#126,.F.) ;
#249=ORIENTED_EDGE('',*,*,#230,.F.) ;
#250=ORIENTED_EDGE('',*,*,#237,.T.) ;
#251=ORIENTED_EDGE('',*,*,#242,.T.) ;
#285=ORIENTED_EDGE('',*,*,#266,.T.) ;
#286=ORIENTED_EDGE('',*,*,#273,.T.) ;
#287=ORIENTED_EDGE('',*,*,#278,.T.) ;
#288=ORIENTED_EDGE('',*,*,#133,.F.) ;
#289=ORIENTED_EDGE('',*,*,#223,.F.) ;
#290=ORIENTED_EDGE('',*,*,#283,.F.) ;
#307=ORIENTED_EDGE('',*,*,#300,.F.) ;
#308=ORIENTED_EDGE('',*,*,#305,.F.) ;
#325=ORIENTED_EDGE('',*,*,#318,.F.) ;
#326=ORIENTED_EDGE('',*,*,#323,.F.) ;
#375=ORIENTED_EDGE('',*,*,#342,.T.) ;
#376=ORIENTED_EDGE('',*,*,#347,.T.) ;
#377=ORIENTED_EDGE('',*,*,#140,.F.) ;
#378=ORIENTED_EDGE('',*,*,#278,.F.) ;
#379=ORIENTED_EDGE('',*,*,#354,.F.) ;
#380=ORIENTED_EDGE('',*,*,#361,.T.) ;
#381=ORIENTED_EDGE('',*,*,#368,.F.) ;
#382=ORIENTED_EDGE('',*,*,#373,.F.) ;
#410=ORIENTED_EDGE('',*,*,#154,.F.) ;
#411=ORIENTED_EDGE('',*,*,#396,.F.) ;
#412=ORIENTED_EDGE('',*,*,#403,.T.) ;
#413=ORIENTED_EDGE('',*,*,#408,.T.) ;
#455=ORIENTED_EDGE('',*,*,#429,.T.) ;
#456=ORIENTED_EDGE('',*,*,#436,.F.) ;
#457=ORIENTED_EDGE('',*,*,#441,.T.) ;
#458=ORIENTED_EDGE('',*,*,#354,.T.) ;
#459=ORIENTED_EDGE('',*,*,#273,.F.) ;
#460=ORIENTED_EDGE('',*,*,#266,.F.) ;
#461=ORIENTED_EDGE('',*,*,#283,.T.) ;
#462=ORIENTED_EDGE('',*,*,#218,.F.) ;
#463=ORIENTED_EDGE('',*,*,#448,.F.) ;
#464=ORIENTED_EDGE('',*,*,#453,.T.) ;
#495=ORIENTED_EDGE('',*,*,#474,.T.) ;
#496=ORIENTED_EDGE('',*,*,#481,.F.) ;
#497=ORIENTED_EDGE('',*,*,#488,.F.) ;
#498=ORIENTED_EDGE('',*,*,#493,.F.) ;
#526=ORIENTED_EDGE('',*,*,#512,.T.) ;
#527=ORIENTED_EDGE('',*,*,#242,.F.) ;
#528=ORIENTED_EDGE('',*,*,#519,.T.) ;
#529=ORIENTED_EDGE('',*,*,#524,.T.) ;
#550=ORIENTED_EDGE('',*,*,#441,.F.) ;
#551=ORIENTED_EDGE('',*,*,#543,.F.) ;
#552=ORIENTED_EDGE('',*,*,#548,.T.) ;
#553=ORIENTED_EDGE('',*,*,#361,.F.) ;
#581=ORIENTED_EDGE('',*,*,#567,.T.) ;
#582=ORIENTED_EDGE('',*,*,#574,.F.) ;
#583=ORIENTED_EDGE('',*,*,#579,.T.) ;
#584=ORIENTED_EDGE('',*,*,#453,.F.) ;
#623=ORIENTED_EDGE('',*,*,#600,.T.) ;
#624=ORIENTED_EDGE('',*,*,#607,.F.) ;
#625=ORIENTED_EDGE('',*,*,#611,.F.) ;
#626=ORIENTED_EDGE('',*,*,#429,.F.) ;
#627=ORIENTED_EDGE('',*,*,#579,.F.) ;
#628=ORIENTED_EDGE('',*,*,#616,.F.) ;
#629=ORIENTED_EDGE('',*,*,#524,.F.) ;
#630=ORIENTED_EDGE('',*,*,#621,.T.) ;
#647=ORIENTED_EDGE('',*,*,#640,.T.) ;
#648=ORIENTED_EDGE('',*,*,#645,.T.) ;
#665=ORIENTED_EDGE('',*,*,#658,.T.) ;
#666=ORIENTED_EDGE('',*,*,#663,.T.) ;
#692=ORIENTED_EDGE('',*,*,#682,.T.) ;
#693=ORIENTED_EDGE('',*,*,#686,.F.) ;
#694=ORIENTED_EDGE('',*,*,#474,.F.) ;
#695=ORIENTED_EDGE('',*,*,#690,.F.) ;
#712=ORIENTED_EDGE('',*,*,#705,.T.) ;
#713=ORIENTED_EDGE('',*,*,#710,.T.) ;
#730=ORIENTED_EDGE('',*,*,#723,.T.) ;
#731=ORIENTED_EDGE('',*,*,#728,.T.) ;
#759=ORIENTED_EDGE('',*,*,#745,.F.) ;
#760=ORIENTED_EDGE('',*,*,#752,.T.) ;
#761=ORIENTED_EDGE('',*,*,#757,.T.) ;
#762=ORIENTED_EDGE('',*,*,#645,.F.) ;
#771=ORIENTED_EDGE('',*,*,#757,.F.) ;
#772=ORIENTED_EDGE('',*,*,#769,.T.) ;
#773=ORIENTED_EDGE('',*,*,#745,.T.) ;
#774=ORIENTED_EDGE('',*,*,#640,.F.) ;
#802=ORIENTED_EDGE('',*,*,#788,.F.) ;
#803=ORIENTED_EDGE('',*,*,#795,.T.) ;
#804=ORIENTED_EDGE('',*,*,#800,.T.) ;
#805=ORIENTED_EDGE('',*,*,#663,.F.) ;
#814=ORIENTED_EDGE('',*,*,#800,.F.) ;
#815=ORIENTED_EDGE('',*,*,#812,.T.) ;
#816=ORIENTED_EDGE('',*,*,#788,.T.) ;
#817=ORIENTED_EDGE('',*,*,#658,.F.) ;
#840=ORIENTED_EDGE('',*,*,#828,.T.) ;
#841=ORIENTED_EDGE('',*,*,#833,.F.) ;
#842=ORIENTED_EDGE('',*,*,#682,.F.) ;
#843=ORIENTED_EDGE('',*,*,#838,.F.) ;
#880=ORIENTED_EDGE('',*,*,#859,.T.) ;
#881=ORIENTED_EDGE('',*,*,#866,.F.) ;
#882=ORIENTED_EDGE('',*,*,#873,.F.) ;
#883=ORIENTED_EDGE('',*,*,#878,.T.) ;
#902=ORIENTED_EDGE('',*,*,#895,.T.) ;
#903=ORIENTED_EDGE('',*,*,#878,.F.) ;
#904=ORIENTED_EDGE('',*,*,#900,.F.) ;
#905=ORIENTED_EDGE('',*,*,#866,.T.) ;
#942=ORIENTED_EDGE('',*,*,#921,.T.) ;
#943=ORIENTED_EDGE('',*,*,#928,.F.) ;
#944=ORIENTED_EDGE('',*,*,#935,.F.) ;
#945=ORIENTED_EDGE('',*,*,#940,.T.) ;
#964=ORIENTED_EDGE('',*,*,#957,.T.) ;
#965=ORIENTED_EDGE('',*,*,#940,.F.) ;
#966=ORIENTED_EDGE('',*,*,#962,.F.) ;
#967=ORIENTED_EDGE('',*,*,#928,.T.) ;
#981=ORIENTED_EDGE('',*,*,#979,.F.) ;
#982=ORIENTED_EDGE('',*,*,#481,.T.) ;
#983=ORIENTED_EDGE('',*,*,#686,.T.) ;
#984=ORIENTED_EDGE('',*,*,#833,.T.) ;
#997=ORIENTED_EDGE('',*,*,#995,.T.) ;
#998=ORIENTED_EDGE('',*,*,#488,.T.) ;
#999=ORIENTED_EDGE('',*,*,#979,.T.) ;
#1000=ORIENTED_EDGE('',*,*,#828,.F.) ;
#1003=ORIENTED_EDGE('',*,*,#769,.F.) ;
#1004=ORIENTED_EDGE('',*,*,#752,.F.) ;
#1007=ORIENTED_EDGE('',*,*,#812,.F.) ;
#1008=ORIENTED_EDGE('',*,*,#795,.F.) ;
#1012=ORIENTED_EDGE('',*,*,#995,.F.) ;
#1013=ORIENTED_EDGE('',*,*,#838,.T.) ;
#1014=ORIENTED_EDGE('',*,*,#690,.T.) ;
#1015=ORIENTED_EDGE('',*,*,#493,.T.) ;
#1024=ORIENTED_EDGE('',*,*,#543,.T.) ;
#1025=ORIENTED_EDGE('',*,*,#436,.T.) ;
#1026=ORIENTED_EDGE('',*,*,#611,.T.) ;
#1027=ORIENTED_EDGE('',*,*,#1022,.T.) ;
#1046=ORIENTED_EDGE('',*,*,#1039,.T.) ;
#1047=ORIENTED_EDGE('',*,*,#600,.F.) ;
#1048=ORIENTED_EDGE('',*,*,#1044,.T.) ;
#1049=ORIENTED_EDGE('',*,*,#373,.T.) ;
#1053=ORIENTED_EDGE('',*,*,#368,.T.) ;
#1054=ORIENTED_EDGE('',*,*,#548,.F.) ;
#1055=ORIENTED_EDGE('',*,*,#1022,.F.) ;
#1056=ORIENTED_EDGE('',*,*,#607,.T.) ;
#1057=ORIENTED_EDGE('',*,*,#1039,.F.) ;
#1060=ORIENTED_EDGE('',*,*,#859,.F.) ;
#1061=ORIENTED_EDGE('',*,*,#895,.F.) ;
#1080=ORIENTED_EDGE('',*,*,#323,.T.) ;
#1081=ORIENTED_EDGE('',*,*,#1073,.F.) ;
#1082=ORIENTED_EDGE('',*,*,#710,.F.) ;
#1083=ORIENTED_EDGE('',*,*,#1078,.T.) ;
#1087=ORIENTED_EDGE('',*,*,#318,.T.) ;
#1088=ORIENTED_EDGE('',*,*,#1078,.F.) ;
#1089=ORIENTED_EDGE('',*,*,#705,.F.) ;
#1090=ORIENTED_EDGE('',*,*,#1073,.T.) ;
#1109=ORIENTED_EDGE('',*,*,#305,.T.) ;
#1110=ORIENTED_EDGE('',*,*,#1102,.F.) ;
#1111=ORIENTED_EDGE('',*,*,#723,.F.) ;
#1112=ORIENTED_EDGE('',*,*,#1107,.T.) ;
#1116=ORIENTED_EDGE('',*,*,#300,.T.) ;
#1117=ORIENTED_EDGE('',*,*,#1107,.F.) ;
#1118=ORIENTED_EDGE('',*,*,#728,.F.) ;
#1119=ORIENTED_EDGE('',*,*,#1102,.T.) ;
#1128=ORIENTED_EDGE('',*,*,#1126,.F.) ;
#1129=ORIENTED_EDGE('',*,*,#567,.F.) ;
#1130=ORIENTED_EDGE('',*,*,#448,.T.) ;
#1131=ORIENTED_EDGE('',*,*,#211,.T.) ;
#1135=ORIENTED_EDGE('',*,*,#616,.T.) ;
#1136=ORIENTED_EDGE('',*,*,#574,.T.) ;
#1137=ORIENTED_EDGE('',*,*,#1126,.T.) ;
#1138=ORIENTED_EDGE('',*,*,#204,.T.) ;
#1139=ORIENTED_EDGE('',*,*,#512,.F.) ;
#1142=ORIENTED_EDGE('',*,*,#921,.F.) ;
#1143=ORIENTED_EDGE('',*,*,#957,.F.) ;
#1171=ORIENTED_EDGE('',*,*,#185,.T.) ;
#1172=ORIENTED_EDGE('',*,*,#1157,.F.) ;
#1173=ORIENTED_EDGE('',*,*,#1164,.F.) ;
#1174=ORIENTED_EDGE('',*,*,#1169,.T.) ;
#1188=ORIENTED_EDGE('',*,*,#180,.T.) ;
#1189=ORIENTED_EDGE('',*,*,#1169,.F.) ;
#1190=ORIENTED_EDGE('',*,*,#1186,.F.) ;
#1191=ORIENTED_EDGE('',*,*,#1157,.T.) ;
#1205=ORIENTED_EDGE('',*,*,#159,.T.) ;
#1206=ORIENTED_EDGE('',*,*,#408,.F.) ;
#1207=ORIENTED_EDGE('',*,*,#1203,.T.) ;
#1208=ORIENTED_EDGE('',*,*,#230,.T.) ;
#1222=ORIENTED_EDGE('',*,*,#147,.T.) ;
#1223=ORIENTED_EDGE('',*,*,#347,.F.) ;
#1224=ORIENTED_EDGE('',*,*,#1220,.T.) ;
#1225=ORIENTED_EDGE('',*,*,#396,.T.) ;
#1234=ORIENTED_EDGE('',*,*,#1044,.F.) ;
#1235=ORIENTED_EDGE('',*,*,#621,.F.) ;
#1236=ORIENTED_EDGE('',*,*,#519,.F.) ;
#1237=ORIENTED_EDGE('',*,*,#237,.F.) ;
#1238=ORIENTED_EDGE('',*,*,#1203,.F.) ;
#1239=ORIENTED_EDGE('',*,*,#403,.F.) ;
#1240=ORIENTED_EDGE('',*,*,#1220,.F.) ;
#1241=ORIENTED_EDGE('',*,*,#342,.F.) ;
#1244=ORIENTED_EDGE('',*,*,#78,.T.) ;
#1245=ORIENTED_EDGE('',*,*,#105,.T.) ;
#1248=ORIENTED_EDGE('',*,*,#1164,.T.) ;
#1249=ORIENTED_EDGE('',*,*,#1186,.T.) ;
#1252=ORIENTED_EDGE('',*,*,#900,.T.) ;
#1253=ORIENTED_EDGE('',*,*,#873,.T.) ;
#1256=ORIENTED_EDGE('',*,*,#962,.T.) ;
#1257=ORIENTED_EDGE('',*,*,#935,.T.) ;
#171=FACE_BOUND('',#168,.T.) ;
#189=FACE_BOUND('',#186,.T.) ;
#309=FACE_BOUND('',#306,.T.) ;
#327=FACE_BOUND('',#324,.T.) ;
#499=FACE_BOUND('',#494,.T.) ;
#649=FACE_BOUND('',#646,.T.) ;
#667=FACE_BOUND('',#664,.T.) ;
#714=FACE_BOUND('',#711,.T.) ;
#732=FACE_BOUND('',#729,.T.) ;
#1005=FACE_BOUND('',#1002,.T.) ;
#1009=FACE_BOUND('',#1006,.T.) ;
#1062=FACE_BOUND('',#1059,.T.) ;
#1144=FACE_BOUND('',#1141,.T.) ;
#1246=FACE_BOUND('',#1243,.T.) ;
#1250=FACE_BOUND('',#1247,.T.) ;
#1254=FACE_BOUND('',#1251,.T.) ;
#1258=FACE_BOUND('',#1255,.T.) ;
#50=CLOSED_SHELL('Closed Shell',(#90,#112,#190,#253,#328,#384,#415,#500,#531,#555,#586,#668,#733,#764,#776,#807,#819,#845,#885,#907,#947,#969,#986,#1010,#1017,#1029,#1051,#1063,#1085,#1092,#1114,#1121,#1133,#1145,#1176,#1193,#1210,#1227,#1259)) ;
#67=VECTOR('Line Direction',#66,1.) ;
#81=VECTOR('Line Direction',#80,1.) ;
#120=VECTOR('Line Direction',#119,1.) ;
#129=VECTOR('Line Direction',#128,1.) ;
#136=VECTOR('Line Direction',#135,1.) ;
#150=VECTOR('Line Direction',#149,1.) ;
#198=VECTOR('Line Direction',#197,1.) ;
#207=VECTOR('Line Direction',#206,1.) ;
#214=VECTOR('Line Direction',#213,1.) ;
#221=VECTOR('Line Direction',#220,1.) ;
#226=VECTOR('Line Direction',#225,1.) ;
#233=VECTOR('Line Direction',#232,1.) ;
#240=VECTOR('Line Direction',#239,1.) ;
#269=VECTOR('Line Direction',#268,1.) ;
#276=VECTOR('Line Direction',#275,1.) ;
#281=VECTOR('Line Direction',#280,1.) ;
#336=VECTOR('Line Direction',#335,1.) ;
#345=VECTOR('Line Direction',#344,1.) ;
#350=VECTOR('Line Direction',#349,1.) ;
#357=VECTOR('Line Direction',#356,1.) ;
#364=VECTOR('Line Direction',#363,1.) ;
#371=VECTOR('Line Direction',#370,1.) ;
#392=VECTOR('Line Direction',#391,1.) ;
#399=VECTOR('Line Direction',#398,1.) ;
#406=VECTOR('Line Direction',#405,1.) ;
#423=VECTOR('Line Direction',#422,1.) ;
#432=VECTOR('Line Direction',#431,1.) ;
#439=VECTOR('Line Direction',#438,1.) ;
#444=VECTOR('Line Direction',#443,1.) ;
#451=VECTOR('Line Direction',#450,1.) ;
#468=VECTOR('Line Direction',#467,1.) ;
#477=VECTOR('Line Direction',#476,1.) ;
#484=VECTOR('Line Direction',#483,1.) ;
#491=VECTOR('Line Direction',#490,1.) ;
#522=VECTOR('Line Direction',#521,1.) ;
#539=VECTOR('Line Direction',#538,1.) ;
#546=VECTOR('Line Direction',#545,1.) ;
#563=VECTOR('Line Direction',#562,1.) ;
#570=VECTOR('Line Direction',#569,1.) ;
#577=VECTOR('Line Direction',#576,1.) ;
#594=VECTOR('Line Direction',#593,1.) ;
#603=VECTOR('Line Direction',#602,1.) ;
#614=VECTOR('Line Direction',#613,1.) ;
#619=VECTOR('Line Direction',#618,1.) ;
#676=VECTOR('Line Direction',#675,1.) ;
#741=VECTOR('Line Direction',#740,1.) ;
#755=VECTOR('Line Direction',#754,1.) ;
#784=VECTOR('Line Direction',#783,1.) ;
#798=VECTOR('Line Direction',#797,1.) ;
#822=VECTOR('Line Direction',#821,1.) ;
#831=VECTOR('Line Direction',#830,1.) ;
#836=VECTOR('Line Direction',#835,1.) ;
#862=VECTOR('Line Direction',#861,1.) ;
#876=VECTOR('Line Direction',#875,1.) ;
#924=VECTOR('Line Direction',#923,1.) ;
#938=VECTOR('Line Direction',#937,1.) ;
#977=VECTOR('Line Direction',#976,1.) ;
#1020=VECTOR('Line Direction',#1019,1.) ;
#1071=VECTOR('Line Direction',#1070,1.) ;
#1076=VECTOR('Line Direction',#1075,1.) ;
#1100=VECTOR('Line Direction',#1099,1.) ;
#1105=VECTOR('Line Direction',#1104,1.) ;
#1124=VECTOR('Line Direction',#1123,1.) ;
#1153=VECTOR('Line Direction',#1152,1.) ;
#1167=VECTOR('Line Direction',#1166,1.) ;
#1261=ADVANCED_BREP_SHAPE_REPRESENTATION('NONE',(#1260),#45) ;
#48=SHAPE_REPRESENTATION(' ',(#47),#45) ;
#90=ADVANCED_FACE('\X2\96F64EF651E04F554F53\X0\',(#89),#55,.F.) ;
#112=ADVANCED_FACE('\X2\96F64EF651E04F554F53\X0\',(#111),#95,.F.) ;
#190=ADVANCED_FACE('\X2\96F64EF651E04F554F53\X0\',(#167,#171,#189),#117,.T.) ;
#253=ADVANCED_FACE('\X2\96F64EF651E04F554F53\X0\',(#252),#195,.T.) ;
#328=ADVANCED_FACE('\X2\96F64EF651E04F554F53\X0\',(#291,#309,#327),#258,.T.) ;
#384=ADVANCED_FACE('\X2\96F64EF651E04F554F53\X0\',(#383),#333,.T.) ;
#415=ADVANCED_FACE('\X2\96F64EF651E04F554F53\X0\',(#414),#389,.T.) ;
#500=ADVANCED_FACE('\X2\96F64EF651E04F554F53\X0\',(#465,#499),#420,.F.) ;
#531=ADVANCED_FACE('\X2\96F64EF651E04F554F53\X0\',(#530),#505,.T.) ;
#555=ADVANCED_FACE('\X2\96F64EF651E04F554F53\X0\',(#554),#536,.T.) ;
#586=ADVANCED_FACE('\X2\96F64EF651E04F554F53\X0\',(#585),#560,.F.) ;
#668=ADVANCED_FACE('\X2\96F64EF651E04F554F53\X0\',(#631,#649,#667),#591,.F.) ;
#733=ADVANCED_FACE('\X2\96F64EF651E04F554F53\X0\',(#696,#714,#732),#673,.F.) ;
#764=ADVANCED_FACE('\X2\96F64EF651E04F554F53\X0\',(#763),#738,.F.) ;
#776=ADVANCED_FACE('\X2\96F64EF651E04F554F53\X0\',(#775),#738,.F.) ;
#807=ADVANCED_FACE('\X2\96F64EF651E04F554F53\X0\',(#806),#781,.F.) ;
#819=ADVANCED_FACE('\X2\96F64EF651E04F554F53\X0\',(#818),#781,.F.) ;
#845=ADVANCED_FACE('\X2\96F64EF651E04F554F53\X0\',(#844),#117,.T.) ;
#885=ADVANCED_FACE('\X2\96F64EF651E04F554F53\X0\',(#884),#850,.F.) ;
#907=ADVANCED_FACE('\X2\96F64EF651E04F554F53\X0\',(#906),#890,.F.) ;
#947=ADVANCED_FACE('\X2\96F64EF651E04F554F53\X0\',(#946),#912,.F.) ;
#969=ADVANCED_FACE('\X2\96F64EF651E04F554F53\X0\',(#968),#952,.F.) ;
#986=ADVANCED_FACE('\X2\96F64EF651E04F554F53\X0\',(#985),#974,.T.) ;
#1010=ADVANCED_FACE('\X2\96F64EF651E04F554F53\X0\',(#1001,#1005,#1009),#991,.T.) ;
#1017=ADVANCED_FACE('\X2\96F64EF651E04F554F53\X0\',(#1016),#560,.T.) ;
#1029=ADVANCED_FACE('\X2\96F64EF651E04F554F53\X0\',(#1028),#974,.F.) ;
#1051=ADVANCED_FACE('\X2\96F64EF651E04F554F53\X0\',(#1050),#1034,.T.) ;
#1063=ADVANCED_FACE('\X2\96F64EF651E04F554F53\X0\',(#1058,#1062),#117,.T.) ;
#1085=ADVANCED_FACE('\X2\96F64EF651E04F554F53\X0\',(#1084),#1068,.F.) ;
#1092=ADVANCED_FACE('\X2\96F64EF651E04F554F53\X0\',(#1091),#1068,.F.) ;
#1114=ADVANCED_FACE('\X2\96F64EF651E04F554F53\X0\',(#1113),#1097,.F.) ;
#1121=ADVANCED_FACE('\X2\96F64EF651E04F554F53\X0\',(#1120),#1097,.F.) ;
#1133=ADVANCED_FACE('\X2\96F64EF651E04F554F53\X0\',(#1132),#536,.T.) ;
#1145=ADVANCED_FACE('\X2\96F64EF651E04F554F53\X0\',(#1140,#1144),#117,.T.) ;
#1176=ADVANCED_FACE('\X2\96F64EF651E04F554F53\X0\',(#1175),#1150,.F.) ;
#1193=ADVANCED_FACE('\X2\96F64EF651E04F554F53\X0\',(#1192),#1181,.F.) ;
#1210=ADVANCED_FACE('\X2\96F64EF651E04F554F53\X0\',(#1209),#1198,.T.) ;
#1227=ADVANCED_FACE('\X2\96F64EF651E04F554F53\X0\',(#1226),#1215,.T.) ;
#1259=ADVANCED_FACE('\X2\96F64EF651E04F554F53\X0\',(#1242,#1246,#1250,#1254,#1258),#1232,.F.) ;
#4=APPLICATION_PROTOCOL_DEFINITION('international standard','config_control_design',1994,#1) ;
#32=APPROVAL_DATE_TIME(#13,#21) ;
#259=B_SPLINE_CURVE_WITH_KNOTS('',1,(#260,#261),.UNSPECIFIED.,.F.,.U.,(2,2),(0.,22.),.UNSPECIFIED.) ;
#608=B_SPLINE_CURVE_WITH_KNOTS('',1,(#609,#610),.UNSPECIFIED.,.F.,.U.,(2,2),(0.,6.),.UNSPECIFIED.) ;
#683=B_SPLINE_CURVE_WITH_KNOTS('',1,(#684,#685),.UNSPECIFIED.,.F.,.U.,(2,2),(2.,8.),.UNSPECIFIED.) ;
#687=B_SPLINE_CURVE_WITH_KNOTS('',1,(#688,#689),.UNSPECIFIED.,.F.,.U.,(2,2),(0.,6.),.UNSPECIFIED.) ;
#992=B_SPLINE_CURVE_WITH_KNOTS('',1,(#993,#994),.UNSPECIFIED.,.F.,.U.,(2,2),(2.,8.),.UNSPECIFIED.) ;
#1260=MANIFOLD_SOLID_BREP('\X2\96F64EF651E04F554F53\X0\',#50) ;
#11=CALENDAR_DATE(2026,29,6) ;
#30=CC_DESIGN_APPROVAL(#21,(#16,#6,#14)) ;
#18=CC_DESIGN_DATE_AND_TIME_ASSIGNMENT(#13,#17,(#16)) ;
#29=CC_DESIGN_DATE_AND_TIME_ASSIGNMENT(#13,#28,(#14)) ;
#17=DATE_TIME_ROLE('classification_date') ;
#28=DATE_TIME_ROLE('creation_date') ;
#27=CC_DESIGN_PERSON_AND_ORGANIZATION_ASSIGNMENT(#25,#26,(#16)) ;
#33=CC_DESIGN_PERSON_AND_ORGANIZATION_ASSIGNMENT(#25,#34,(#6)) ;
#35=CC_DESIGN_PERSON_AND_ORGANIZATION_ASSIGNMENT(#25,#36,(#6,#14)) ;
#37=CC_DESIGN_PERSON_AND_ORGANIZATION_ASSIGNMENT(#25,#38,(#5)) ;
#26=PERSON_AND_ORGANIZATION_ROLE('classification_officer') ;
#34=PERSON_AND_ORGANIZATION_ROLE('design_supplier') ;
#36=PERSON_AND_ORGANIZATION_ROLE('creator') ;
#38=PERSON_AND_ORGANIZATION_ROLE('design_owner') ;
#39=CC_DESIGN_SECURITY_CLASSIFICATION(#16,(#6)) ;
#59=CIRCLE('generated circle',#58,1.5) ;
#75=CIRCLE('generated circle',#74,1.5) ;
#99=CIRCLE('generated circle',#98,1.5) ;
#104=CIRCLE('generated circle',#103,1.5) ;
#144=CIRCLE('generated circle',#143,5.) ;
#158=CIRCLE('generated circle',#157,5.) ;
#175=CIRCLE('generated circle',#174,1.5) ;
#184=CIRCLE('generated circle',#183,1.5) ;
#295=CIRCLE('generated circle',#294,1.5) ;
#304=CIRCLE('generated circle',#303,1.5) ;
#313=CIRCLE('generated circle',#312,1.49999999999) ;
#322=CIRCLE('generated circle',#321,1.49999999999) ;
#509=CIRCLE('generated circle',#508,5.) ;
#516=CIRCLE('generated circle',#515,5.) ;
#635=CIRCLE('generated circle',#634,1.49999999999) ;
#644=CIRCLE('generated circle',#643,1.49999999999) ;
#653=CIRCLE('generated circle',#652,1.5) ;
#662=CIRCLE('generated circle',#661,1.5) ;
#700=CIRCLE('generated circle',#699,1.49999999999) ;
#709=CIRCLE('generated circle',#708,1.49999999999) ;
#718=CIRCLE('generated circle',#717,1.5) ;
#727=CIRCLE('generated circle',#726,1.5) ;
#749=CIRCLE('generated circle',#748,1.49999999999) ;
#768=CIRCLE('generated circle',#767,1.49999999999) ;
#792=CIRCLE('generated circle',#791,1.5) ;
#811=CIRCLE('generated circle',#810,1.5) ;
#854=CIRCLE('generated circle',#853,1.5) ;
#870=CIRCLE('generated circle',#869,1.5) ;
#894=CIRCLE('generated circle',#893,1.5) ;
#899=CIRCLE('generated circle',#898,1.5) ;
#916=CIRCLE('generated circle',#915,1.5) ;
#932=CIRCLE('generated circle',#931,1.5) ;
#956=CIRCLE('generated circle',#955,1.5) ;
#961=CIRCLE('generated circle',#960,1.5) ;
#1038=CIRCLE('generated circle',#1037,5.) ;
#1043=CIRCLE('generated circle',#1042,5.) ;
#1161=CIRCLE('generated circle',#1160,1.5) ;
#1185=CIRCLE('generated circle',#1184,1.5) ;
#1202=CIRCLE('generated circle',#1201,5.) ;
#1219=CIRCLE('generated circle',#1218,5.) ;
#1262=SHAPE_REPRESENTATION_RELATIONSHIP(' ',' ',#48,#1261) ;
#55=CYLINDRICAL_SURFACE('generated cylinder',#54,1.5) ;
#95=CYLINDRICAL_SURFACE('generated cylinder',#94,1.5) ;
#505=CYLINDRICAL_SURFACE('generated cylinder',#504,5.) ;
#738=CYLINDRICAL_SURFACE('generated cylinder',#737,1.49999999999) ;
#781=CYLINDRICAL_SURFACE('generated cylinder',#780,1.5) ;
#850=CYLINDRICAL_SURFACE('generated cylinder',#849,1.5) ;
#890=CYLINDRICAL_SURFACE('generated cylinder',#889,1.5) ;
#912=CYLINDRICAL_SURFACE('generated cylinder',#911,1.5) ;
#952=CYLINDRICAL_SURFACE('generated cylinder',#951,1.5) ;
#1034=CYLINDRICAL_SURFACE('generated cylinder',#1033,5.) ;
#1068=CYLINDRICAL_SURFACE('generated cylinder',#1067,1.49999999999) ;
#1097=CYLINDRICAL_SURFACE('generated cylinder',#1096,1.5) ;
#1150=CYLINDRICAL_SURFACE('generated cylinder',#1149,1.5) ;
#1181=CYLINDRICAL_SURFACE('generated cylinder',#1180,1.5) ;
#1198=CYLINDRICAL_SURFACE('generated cylinder',#1197,5.) ;
#1215=CYLINDRICAL_SURFACE('generated cylinder',#1214,5.) ;
#3=DESIGN_CONTEXT(' ',#1,'design') ;
#64=EDGE_CURVE('',#61,#63,#59,.T.) ;
#71=EDGE_CURVE('',#70,#63,#68,.T.) ;
#78=EDGE_CURVE('',#77,#70,#75,.T.) ;
#83=EDGE_CURVE('',#77,#61,#82,.T.) ;
#100=EDGE_CURVE('',#63,#61,#99,.T.) ;
#105=EDGE_CURVE('',#70,#77,#104,.T.) ;
#126=EDGE_CURVE('',#123,#125,#121,.T.) ;
#133=EDGE_CURVE('',#125,#132,#130,.T.) ;
#140=EDGE_CURVE('',#132,#139,#137,.T.) ;
#147=EDGE_CURVE('',#146,#139,#144,.F.) ;
#154=EDGE_CURVE('',#146,#153,#151,.T.) ;
#159=EDGE_CURVE('',#123,#153,#158,.F.) ;
#180=EDGE_CURVE('',#177,#179,#175,.T.) ;
#185=EDGE_CURVE('',#179,#177,#184,.T.) ;
#204=EDGE_CURVE('',#201,#203,#199,.T.) ;
#211=EDGE_CURVE('',#210,#201,#208,.T.) ;
#218=EDGE_CURVE('',#210,#217,#215,.T.) ;
#223=EDGE_CURVE('',#217,#125,#222,.T.) ;
#230=EDGE_CURVE('',#229,#123,#227,.T.) ;
#237=EDGE_CURVE('',#229,#236,#234,.T.) ;
#242=EDGE_CURVE('',#236,#203,#241,.T.) ;
#266=EDGE_CURVE('',#263,#265,#259,.F.) ;
#273=EDGE_CURVE('',#265,#272,#270,.T.) ;
#278=EDGE_CURVE('',#272,#132,#277,.T.) ;
#283=EDGE_CURVE('',#263,#217,#282,.T.) ;
#300=EDGE_CURVE('',#297,#299,#295,.T.) ;
#305=EDGE_CURVE('',#299,#297,#304,.T.) ;
#318=EDGE_CURVE('',#315,#317,#313,.T.) ;
#323=EDGE_CURVE('',#317,#315,#322,.T.) ;
#342=EDGE_CURVE('',#339,#341,#337,.T.) ;
#347=EDGE_CURVE('',#341,#139,#346,.T.) ;
#354=EDGE_CURVE('',#353,#272,#351,.T.) ;
#361=EDGE_CURVE('',#353,#360,#358,.T.) ;
#368=EDGE_CURVE('',#367,#360,#365,.T.) ;
#373=EDGE_CURVE('',#339,#367,#372,.T.) ;
#396=EDGE_CURVE('',#395,#146,#393,.T.) ;
#403=EDGE_CURVE('',#395,#402,#400,.T.) ;
#408=EDGE_CURVE('',#402,#153,#407,.T.) ;
#429=EDGE_CURVE('',#426,#428,#424,.T.) ;
#436=EDGE_CURVE('',#435,#428,#433,.T.) ;
#441=EDGE_CURVE('',#435,#353,#440,.T.) ;
#448=EDGE_CURVE('',#447,#210,#445,.T.) ;
#453=EDGE_CURVE('',#447,#426,#452,.T.) ;
#474=EDGE_CURVE('',#471,#473,#469,.F.) ;
#481=EDGE_CURVE('',#480,#473,#478,.T.) ;
#488=EDGE_CURVE('',#487,#480,#485,.T.) ;
#493=EDGE_CURVE('',#471,#487,#492,.T.) ;
#512=EDGE_CURVE('',#511,#203,#509,.F.) ;
#519=EDGE_CURVE('',#236,#518,#516,.T.) ;
#524=EDGE_CURVE('',#518,#511,#523,.T.) ;
#543=EDGE_CURVE('',#542,#435,#540,.F.) ;
#548=EDGE_CURVE('',#542,#360,#547,.T.) ;
#567=EDGE_CURVE('',#447,#566,#564,.T.) ;
#574=EDGE_CURVE('',#573,#566,#571,.T.) ;
#579=EDGE_CURVE('',#573,#426,#578,.T.) ;
#600=EDGE_CURVE('',#597,#599,#595,.T.) ;
#607=EDGE_CURVE('',#606,#599,#604,.T.) ;
#611=EDGE_CURVE('',#428,#606,#608,.T.) ;
#616=EDGE_CURVE('',#511,#573,#615,.T.) ;
#621=EDGE_CURVE('',#518,#597,#620,.T.) ;
#640=EDGE_CURVE('',#637,#639,#635,.T.) ;
#645=EDGE_CURVE('',#639,#637,#644,.T.) ;
#658=EDGE_CURVE('',#655,#657,#653,.T.) ;
#663=EDGE_CURVE('',#657,#655,#662,.T.) ;
#682=EDGE_CURVE('',#679,#681,#677,.T.) ;
#686=EDGE_CURVE('',#473,#681,#683,.F.) ;
#690=EDGE_CURVE('',#679,#471,#687,.F.) ;
#705=EDGE_CURVE('',#702,#704,#700,.T.) ;
#710=EDGE_CURVE('',#704,#702,#709,.T.) ;
#723=EDGE_CURVE('',#720,#722,#718,.T.) ;
#728=EDGE_CURVE('',#722,#720,#727,.T.) ;
#745=EDGE_CURVE('',#744,#639,#742,.F.) ;
#752=EDGE_CURVE('',#744,#751,#749,.T.) ;
#757=EDGE_CURVE('',#751,#637,#756,.F.) ;
#769=EDGE_CURVE('',#751,#744,#768,.T.) ;
#788=EDGE_CURVE('',#787,#657,#785,.F.) ;
#795=EDGE_CURVE('',#787,#794,#792,.T.) ;
#800=EDGE_CURVE('',#794,#655,#799,.F.) ;
#812=EDGE_CURVE('',#794,#787,#811,.T.) ;
#828=EDGE_CURVE('',#825,#827,#823,.T.) ;
#833=EDGE_CURVE('',#681,#827,#832,.T.) ;
#838=EDGE_CURVE('',#825,#679,#837,.T.) ;
#859=EDGE_CURVE('',#856,#858,#854,.T.) ;
#866=EDGE_CURVE('',#865,#858,#863,.T.) ;
#873=EDGE_CURVE('',#872,#865,#870,.T.) ;
#878=EDGE_CURVE('',#872,#856,#877,.T.) ;
#895=EDGE_CURVE('',#858,#856,#894,.T.) ;
#900=EDGE_CURVE('',#865,#872,#899,.T.) ;
#921=EDGE_CURVE('',#918,#920,#916,.T.) ;
#928=EDGE_CURVE('',#927,#920,#925,.T.) ;
#935=EDGE_CURVE('',#934,#927,#932,.T.) ;
#940=EDGE_CURVE('',#934,#918,#939,.T.) ;
#957=EDGE_CURVE('',#920,#918,#956,.T.) ;
#962=EDGE_CURVE('',#927,#934,#961,.T.) ;
#979=EDGE_CURVE('',#480,#827,#978,.T.) ;
#995=EDGE_CURVE('',#825,#487,#992,.T.) ;
#1022=EDGE_CURVE('',#606,#542,#1021,.T.) ;
#1039=EDGE_CURVE('',#367,#599,#1038,.F.) ;
#1044=EDGE_CURVE('',#597,#339,#1043,.T.) ;
#1073=EDGE_CURVE('',#702,#315,#1072,.T.) ;
#1078=EDGE_CURVE('',#704,#317,#1077,.T.) ;
#1102=EDGE_CURVE('',#722,#297,#1101,.T.) ;
#1107=EDGE_CURVE('',#720,#299,#1106,.T.) ;
#1126=EDGE_CURVE('',#566,#201,#1125,.T.) ;
#1157=EDGE_CURVE('',#1156,#177,#1154,.T.) ;
#1164=EDGE_CURVE('',#1163,#1156,#1161,.T.) ;
#1169=EDGE_CURVE('',#1163,#179,#1168,.T.) ;
#1186=EDGE_CURVE('',#1156,#1163,#1185,.T.) ;
#1203=EDGE_CURVE('',#402,#229,#1202,.T.) ;
#1220=EDGE_CURVE('',#341,#395,#1219,.T.) ;
#84=EDGE_LOOP('',(#85,#86,#87,#88)) ;
#106=EDGE_LOOP('',(#107,#108,#109,#110)) ;
#160=EDGE_LOOP('',(#161,#162,#163,#164,#165,#166)) ;
#168=EDGE_LOOP('',(#169,#170)) ;
#186=EDGE_LOOP('',(#187,#188)) ;
#243=EDGE_LOOP('',(#244,#245,#246,#247,#248,#249,#250,#251)) ;
#284=EDGE_LOOP('',(#285,#286,#287,#288,#289,#290)) ;
#306=EDGE_LOOP('',(#307,#308)) ;
#324=EDGE_LOOP('',(#325,#326)) ;
#374=EDGE_LOOP('',(#375,#376,#377,#378,#379,#380,#381,#382)) ;
#409=EDGE_LOOP('',(#410,#411,#412,#413)) ;
#454=EDGE_LOOP('',(#455,#456,#457,#458,#459,#460,#461,#462,#463,#464)) ;
#494=EDGE_LOOP('',(#495,#496,#497,#498)) ;
#525=EDGE_LOOP('',(#526,#527,#528,#529)) ;
#549=EDGE_LOOP('',(#550,#551,#552,#553)) ;
#580=EDGE_LOOP('',(#581,#582,#583,#584)) ;
#622=EDGE_LOOP('',(#623,#624,#625,#626,#627,#628,#629,#630)) ;
#646=EDGE_LOOP('',(#647,#648)) ;
#664=EDGE_LOOP('',(#665,#666)) ;
#691=EDGE_LOOP('',(#692,#693,#694,#695)) ;
#711=EDGE_LOOP('',(#712,#713)) ;
#729=EDGE_LOOP('',(#730,#731)) ;
#758=EDGE_LOOP('',(#759,#760,#761,#762)) ;
#770=EDGE_LOOP('',(#771,#772,#773,#774)) ;
#801=EDGE_LOOP('',(#802,#803,#804,#805)) ;
#813=EDGE_LOOP('',(#814,#815,#816,#817)) ;
#839=EDGE_LOOP('',(#840,#841,#842,#843)) ;
#879=EDGE_LOOP('',(#880,#881,#882,#883)) ;
#901=EDGE_LOOP('',(#902,#903,#904,#905)) ;
#941=EDGE_LOOP('',(#942,#943,#944,#945)) ;
#963=EDGE_LOOP('',(#964,#965,#966,#967)) ;
#980=EDGE_LOOP('',(#981,#982,#983,#984)) ;
#996=EDGE_LOOP('',(#997,#998,#999,#1000)) ;
#1002=EDGE_LOOP('',(#1003,#1004)) ;
#1006=EDGE_LOOP('',(#1007,#1008)) ;
#1011=EDGE_LOOP('',(#1012,#1013,#1014,#1015)) ;
#1023=EDGE_LOOP('',(#1024,#1025,#1026,#1027)) ;
#1045=EDGE_LOOP('',(#1046,#1047,#1048,#1049)) ;
#1052=EDGE_LOOP('',(#1053,#1054,#1055,#1056,#1057)) ;
#1059=EDGE_LOOP('',(#1060,#1061)) ;
#1079=EDGE_LOOP('',(#1080,#1081,#1082,#1083)) ;
#1086=EDGE_LOOP('',(#1087,#1088,#1089,#1090)) ;
#1108=EDGE_LOOP('',(#1109,#1110,#1111,#1112)) ;
#1115=EDGE_LOOP('',(#1116,#1117,#1118,#1119)) ;
#1127=EDGE_LOOP('',(#1128,#1129,#1130,#1131)) ;
#1134=EDGE_LOOP('',(#1135,#1136,#1137,#1138,#1139)) ;
#1141=EDGE_LOOP('',(#1142,#1143)) ;
#1170=EDGE_LOOP('',(#1171,#1172,#1173,#1174)) ;
#1187=EDGE_LOOP('',(#1188,#1189,#1190,#1191)) ;
#1204=EDGE_LOOP('',(#1205,#1206,#1207,#1208)) ;
#1221=EDGE_LOOP('',(#1222,#1223,#1224,#1225)) ;
#1233=EDGE_LOOP('',(#1234,#1235,#1236,#1237,#1238,#1239,#1240,#1241)) ;
#1243=EDGE_LOOP('',(#1244,#1245)) ;
#1247=EDGE_LOOP('',(#1248,#1249)) ;
#1251=EDGE_LOOP('',(#1252,#1253)) ;
#1255=EDGE_LOOP('',(#1256,#1257)) ;
#89=FACE_OUTER_BOUND('',#84,.T.) ;
#111=FACE_OUTER_BOUND('',#106,.T.) ;
#167=FACE_OUTER_BOUND('',#160,.T.) ;
#252=FACE_OUTER_BOUND('',#243,.T.) ;
#291=FACE_OUTER_BOUND('',#284,.T.) ;
#383=FACE_OUTER_BOUND('',#374,.T.) ;
#414=FACE_OUTER_BOUND('',#409,.T.) ;
#465=FACE_OUTER_BOUND('',#454,.T.) ;
#530=FACE_OUTER_BOUND('',#525,.T.) ;
#554=FACE_OUTER_BOUND('',#549,.T.) ;
#585=FACE_OUTER_BOUND('',#580,.T.) ;
#631=FACE_OUTER_BOUND('',#622,.T.) ;
#696=FACE_OUTER_BOUND('',#691,.T.) ;
#763=FACE_OUTER_BOUND('',#758,.T.) ;
#775=FACE_OUTER_BOUND('',#770,.T.) ;
#806=FACE_OUTER_BOUND('',#801,.T.) ;
#818=FACE_OUTER_BOUND('',#813,.T.) ;
#844=FACE_OUTER_BOUND('',#839,.T.) ;
#884=FACE_OUTER_BOUND('',#879,.T.) ;
#906=FACE_OUTER_BOUND('',#901,.T.) ;
#946=FACE_OUTER_BOUND('',#941,.T.) ;
#968=FACE_OUTER_BOUND('',#963,.T.) ;
#985=FACE_OUTER_BOUND('',#980,.T.) ;
#1001=FACE_OUTER_BOUND('',#996,.T.) ;
#1016=FACE_OUTER_BOUND('',#1011,.T.) ;
#1028=FACE_OUTER_BOUND('',#1023,.T.) ;
#1050=FACE_OUTER_BOUND('',#1045,.T.) ;
#1058=FACE_OUTER_BOUND('',#1052,.T.) ;
#1084=FACE_OUTER_BOUND('',#1079,.T.) ;
#1091=FACE_OUTER_BOUND('',#1086,.T.) ;
#1113=FACE_OUTER_BOUND('',#1108,.T.) ;
#1120=FACE_OUTER_BOUND('',#1115,.T.) ;
#1132=FACE_OUTER_BOUND('',#1127,.T.) ;
#1140=FACE_OUTER_BOUND('',#1134,.T.) ;
#1175=FACE_OUTER_BOUND('',#1170,.T.) ;
#1192=FACE_OUTER_BOUND('',#1187,.T.) ;
#1209=FACE_OUTER_BOUND('',#1204,.T.) ;
#1226=FACE_OUTER_BOUND('',#1221,.T.) ;
#1242=FACE_OUTER_BOUND('',#1233,.T.) ;
#44=UNCERTAINTY_MEASURE_WITH_UNIT(LENGTH_MEASURE(0.005),#41,'distance_accuracy_value','CONFUSED CURVE UNCERTAINTY') ;
#68=LINE('Line',#65,#67) ;
#82=LINE('Line',#79,#81) ;
#121=LINE('Line',#118,#120) ;
#130=LINE('Line',#127,#129) ;
#137=LINE('Line',#134,#136) ;
#151=LINE('Line',#148,#150) ;
#199=LINE('Line',#196,#198) ;
#208=LINE('Line',#205,#207) ;
#215=LINE('Line',#212,#214) ;
#222=LINE('Line',#219,#221) ;
#227=LINE('Line',#224,#226) ;
#234=LINE('Line',#231,#233) ;
#241=LINE('Line',#238,#240) ;
#270=LINE('Line',#267,#269) ;
#277=LINE('Line',#274,#276) ;
#282=LINE('Line',#279,#281) ;
#337=LINE('Line',#334,#336) ;
#346=LINE('Line',#343,#345) ;
#351=LINE('Line',#348,#350) ;
#358=LINE('Line',#355,#357) ;
#365=LINE('Line',#362,#364) ;
#372=LINE('Line',#369,#371) ;
#393=LINE('Line',#390,#392) ;
#400=LINE('Line',#397,#399) ;
#407=LINE('Line',#404,#406) ;
#424=LINE('Line',#421,#423) ;
#433=LINE('Line',#430,#432) ;
#440=LINE('Line',#437,#439) ;
#445=LINE('Line',#442,#444) ;
#452=LINE('Line',#449,#451) ;
#469=LINE('Line',#466,#468) ;
#478=LINE('Line',#475,#477) ;
#485=LINE('Line',#482,#484) ;
#492=LINE('Line',#489,#491) ;
#523=LINE('Line',#520,#522) ;
#540=LINE('Line',#537,#539) ;
#547=LINE('Line',#544,#546) ;
#564=LINE('Line',#561,#563) ;
#571=LINE('Line',#568,#570) ;
#578=LINE('Line',#575,#577) ;
#595=LINE('Line',#592,#594) ;
#604=LINE('Line',#601,#603) ;
#615=LINE('Line',#612,#614) ;
#620=LINE('Line',#617,#619) ;
#677=LINE('Line',#674,#676) ;
#742=LINE('Line',#739,#741) ;
#756=LINE('Line',#753,#755) ;
#785=LINE('Line',#782,#784) ;
#799=LINE('Line',#796,#798) ;
#823=LINE('Line',#820,#822) ;
#832=LINE('Line',#829,#831) ;
#837=LINE('Line',#834,#836) ;
#863=LINE('Line',#860,#862) ;
#877=LINE('Line',#874,#876) ;
#925=LINE('Line',#922,#924) ;
#939=LINE('Line',#936,#938) ;
#978=LINE('Line',#975,#977) ;
#1021=LINE('Line',#1018,#1020) ;
#1072=LINE('Line',#1069,#1071) ;
#1077=LINE('Line',#1074,#1076) ;
#1101=LINE('Line',#1098,#1100) ;
#1106=LINE('Line',#1103,#1105) ;
#1125=LINE('Line',#1122,#1124) ;
#1154=LINE('Line',#1151,#1153) ;
#1168=LINE('Line',#1165,#1167) ;
#2=MECHANICAL_CONTEXT(' ',#1,'mechanical') ;
#24=PERSONAL_ADDRESS(' ',' ',' ',' ',' ',' ',' ',' ',' ',' ',' ',' ',(#22),' ') ;
#117=PLANE('',#116) ;
#195=PLANE('',#194) ;
#258=PLANE('',#257) ;
#333=PLANE('',#332) ;
#389=PLANE('',#388) ;
#420=PLANE('',#419) ;
#536=PLANE('',#535) ;
#560=PLANE('',#559) ;
#591=PLANE('',#590) ;
#673=PLANE('',#672) ;
#974=PLANE('',#973) ;
#991=PLANE('',#990) ;
#1232=PLANE('',#1231) ;
#7=PRODUCT_CATEGORY('part',$) ;
#9=PRODUCT_CATEGORY_RELATIONSHIP(' ',' ',#7,#8) ;
#6=PRODUCT_DEFINITION_FORMATION_WITH_SPECIFIED_SOURCE('',' ',#5,.NOT_KNOWN.) ;
#8=PRODUCT_RELATED_PRODUCT_CATEGORY('detail',$,(#5)) ;
#49=SHAPE_DEFINITION_REPRESENTATION(#40,#48) ;
#61=VERTEX_POINT('',#60) ;
#63=VERTEX_POINT('',#62) ;
#70=VERTEX_POINT('',#69) ;
#77=VERTEX_POINT('',#76) ;
#123=VERTEX_POINT('',#122) ;
#125=VERTEX_POINT('',#124) ;
#132=VERTEX_POINT('',#131) ;
#139=VERTEX_POINT('',#138) ;
#146=VERTEX_POINT('',#145) ;
#153=VERTEX_POINT('',#152) ;
#177=VERTEX_POINT('',#176) ;
#179=VERTEX_POINT('',#178) ;
#201=VERTEX_POINT('',#200) ;
#203=VERTEX_POINT('',#202) ;
#210=VERTEX_POINT('',#209) ;
#217=VERTEX_POINT('',#216) ;
#229=VERTEX_POINT('',#228) ;
#236=VERTEX_POINT('',#235) ;
#263=VERTEX_POINT('',#262) ;
#265=VERTEX_POINT('',#264) ;
#272=VERTEX_POINT('',#271) ;
#297=VERTEX_POINT('',#296) ;
#299=VERTEX_POINT('',#298) ;
#315=VERTEX_POINT('',#314) ;
#317=VERTEX_POINT('',#316) ;
#339=VERTEX_POINT('',#338) ;
#341=VERTEX_POINT('',#340) ;
#353=VERTEX_POINT('',#352) ;
#360=VERTEX_POINT('',#359) ;
#367=VERTEX_POINT('',#366) ;
#395=VERTEX_POINT('',#394) ;
#402=VERTEX_POINT('',#401) ;
#426=VERTEX_POINT('',#425) ;
#428=VERTEX_POINT('',#427) ;
#435=VERTEX_POINT('',#434) ;
#447=VERTEX_POINT('',#446) ;
#471=VERTEX_POINT('',#470) ;
#473=VERTEX_POINT('',#472) ;
#480=VERTEX_POINT('',#479) ;
#487=VERTEX_POINT('',#486) ;
#511=VERTEX_POINT('',#510) ;
#518=VERTEX_POINT('',#517) ;
#542=VERTEX_POINT('',#541) ;
#566=VERTEX_POINT('',#565) ;
#573=VERTEX_POINT('',#572) ;
#597=VERTEX_POINT('',#596) ;
#599=VERTEX_POINT('',#598) ;
#606=VERTEX_POINT('',#605) ;
#637=VERTEX_POINT('',#636) ;
#639=VERTEX_POINT('',#638) ;
#655=VERTEX_POINT('',#654) ;
#657=VERTEX_POINT('',#656) ;
#679=VERTEX_POINT('',#678) ;
#681=VERTEX_POINT('',#680) ;
#702=VERTEX_POINT('',#701) ;
#704=VERTEX_POINT('',#703) ;
#720=VERTEX_POINT('',#719) ;
#722=VERTEX_POINT('',#721) ;
#744=VERTEX_POINT('',#743) ;
#751=VERTEX_POINT('',#750) ;
#787=VERTEX_POINT('',#786) ;
#794=VERTEX_POINT('',#793) ;
#825=VERTEX_POINT('',#824) ;
#827=VERTEX_POINT('',#826) ;
#856=VERTEX_POINT('',#855) ;
#858=VERTEX_POINT('',#857) ;
#865=VERTEX_POINT('',#864) ;
#872=VERTEX_POINT('',#871) ;
#918=VERTEX_POINT('',#917) ;
#920=VERTEX_POINT('',#919) ;
#927=VERTEX_POINT('',#926) ;
#934=VERTEX_POINT('',#933) ;
#1156=VERTEX_POINT('',#1155) ;
#1163=VERTEX_POINT('',#1162) ;
#41=(LENGTH_UNIT()NAMED_UNIT(*)SI_UNIT(.MILLI.,.METRE.)) ;
#42=(NAMED_UNIT(*)PLANE_ANGLE_UNIT()SI_UNIT($,.RADIAN.)) ;
#43=(NAMED_UNIT(*)SI_UNIT($,.STERADIAN.)SOLID_ANGLE_UNIT()) ;
#45=(GEOMETRIC_REPRESENTATION_CONTEXT(3)GLOBAL_UNCERTAINTY_ASSIGNED_CONTEXT((#44))GLOBAL_UNIT_ASSIGNED_CONTEXT((#41,#42,#43))REPRESENTATION_CONTEXT(' ',' ')) ;
ENDSEC;
END-ISO-10303-21;
