ISO-10303-21;
HEADER;
FILE_DESCRIPTION (( 'STEP AP203' ),
    '1' );
FILE_NAME ('Ëø½ô¹Ì¶¨°å3A 4mm.STEP',
    '2026-05-08T04:01:11',
    ( '' ),
    ( '' ),
    'SwSTEP 2.0',
    'SolidWorks 2025',
    '' );
FILE_SCHEMA (( 'CONFIG_CONTROL_DESIGN' ));
ENDSEC;

DATA;
#1 = DIRECTION ( 'NONE',  ( 0.000000000000000000, 0.000000000000000000, 1.000000000000000000 ) ) ;
#2 = CIRCLE ( 'NONE', #29, 1.000000000000000000 ) ;
#3 = EDGE_CURVE ( 'NONE', #784, #686, #412, .T. ) ;
#4 = EDGE_LOOP ( 'NONE', ( #596, #554, #434, #442 ) ) ;
#5 = CARTESIAN_POINT ( 'NONE',  ( -0.5000000000000022204, 4.000000000000000000, -6.000000000000000000 ) ) ;
#6 = AXIS2_PLACEMENT_3D ( 'NONE', #660, #477, #152 ) ;
#7 = DIRECTION ( 'NONE',  ( 0.000000000000000000, 0.000000000000000000, 1.000000000000000000 ) ) ;
#8 = DIRECTION ( 'NONE',  ( 0.000000000000000000, 1.000000000000000000, -0.000000000000000000 ) ) ;
#9 = VECTOR ( 'NONE', #652, 1000.000000000000000 ) ;
#10 = APPROVAL ( #344, 'æœª' ) ;
#11 = CARTESIAN_POINT ( 'NONE',  ( 6.499999999999997335, 0.000000000000000000, -1.326553246335204903E-15 ) ) ;
#12 = ORIENTED_EDGE ( 'NONE', *, *, #544, .F. ) ;
#13 = APPLICATION_PROTOCOL_DEFINITION ( 'international standard', 'config_control_design', 1994, #32 ) ;
#14 = FACE_OUTER_BOUND ( 'NONE', #97, .T. ) ;
#15 = AXIS2_PLACEMENT_3D ( 'NONE', #471, #288, #414 ) ;
#16 = VERTEX_POINT ( 'NONE', #92 ) ;
#17 = CALENDAR_DATE ( 2026, 8, 5 ) ;
#18 = CARTESIAN_POINT ( 'NONE',  ( -12.50000000000000533, 4.000000000000000000, -1.500000000000000444 ) ) ;
#19 = EDGE_CURVE ( 'NONE', #146, #358, #788, .T. ) ;
#20 = EDGE_CURVE ( 'NONE', #224, #133, #743, .T. ) ;
#21 = DIRECTION ( 'NONE',  ( 1.000000000000000000, 0.000000000000000000, 0.000000000000000000 ) ) ;
#22 = CARTESIAN_POINT ( 'NONE',  ( 4.499999999999996447, -6.000000000000000000, -6.000000000000000000 ) ) ;
#23 = ORIENTED_EDGE ( 'NONE', *, *, #556, .T. ) ;
#24 = CC_DESIGN_APPROVAL ( #128, ( #567 ) ) ;
#25 = CARTESIAN_POINT ( 'NONE',  ( 2.499999999999998668, 4.000000000000000000, 4.500000000000000000 ) ) ;
#26 = ORIENTED_EDGE ( 'NONE', *, *, #680, .T. ) ;
#27 = EDGE_CURVE ( 'NONE', #405, #682, #464, .T. ) ;
#28 = COORDINATED_UNIVERSAL_TIME_OFFSET ( 8, 0, .AHEAD. ) ;
#29 = AXIS2_PLACEMENT_3D ( 'NONE', #654, #539, #612 ) ;
#30 = DIRECTION ( 'NONE',  ( 2.040851148208008491E-16, 0.000000000000000000, 1.000000000000000000 ) ) ;
#31 = ORIENTED_EDGE ( 'NONE', *, *, #681, .F. ) ;
#32 = APPLICATION_CONTEXT ( 'configuration controlled 3d designs of mechanical parts and assemblies' ) ;
#33 = AXIS2_PLACEMENT_3D ( 'NONE', #22, #211, #641 ) ;
#34 = CALENDAR_DATE ( 2026, 8, 5 ) ;
#35 = FACE_OUTER_BOUND ( 'NONE', #676, .T. ) ;
#36 = ORIENTED_EDGE ( 'NONE', *, *, #543, .T. ) ;
#37 = PLANE ( 'NONE',  #600 ) ;
#38 = PERSON_AND_ORGANIZATION ( #52, #736 ) ;
#39 = CARTESIAN_POINT ( 'NONE',  ( 2.499999999999998668, 4.000000000000000000, -2.000000000000003553 ) ) ;
#40 = VERTEX_POINT ( 'NONE', #545 ) ;
#41 = DIRECTION ( 'NONE',  ( 0.000000000000000000, 1.000000000000000000, -0.000000000000000000 ) ) ;
#42 = PERSON_AND_ORGANIZATION_ROLE ( 'design_supplier' ) ;
#43 = DIRECTION ( 'NONE',  ( -0.000000000000000000, -1.000000000000000000, -0.000000000000000000 ) ) ;
#44 = EDGE_LOOP ( 'NONE', ( #532, #701 ) ) ;
#45 = EDGE_CURVE ( 'NONE', #466, #192, #151, .T. ) ;
#46 = EDGE_CURVE ( 'NONE', #488, #719, #226, .T. ) ;
#47 = EDGE_CURVE ( 'NONE', #40, #16, #2, .T. ) ;
#48 = DIRECTION ( 'NONE',  ( 0.000000000000000000, 0.000000000000000000, 1.000000000000000000 ) ) ;
#49 = AXIS2_PLACEMENT_3D ( 'NONE', #25, #82, #317 ) ;
#50 = CARTESIAN_POINT ( 'NONE',  ( -11.00000000000000178, 4.000000000000000000, 5.500000000000000888 ) ) ;
#51 = ORIENTED_EDGE ( 'NONE', *, *, #482, .T. ) ;
#52 = PERSON ( 'æœª', 'æœª', 'æœª', ('æœª'), ('æœª'), ('æœª') ) ;
#53 = CC_DESIGN_DATE_AND_TIME_ASSIGNMENT ( #99, #467, ( #689 ) ) ;
#54 = CIRCLE ( 'NONE', #512, 2.000000000000000000 ) ;
#55 = DIRECTION ( 'NONE',  ( -0.000000000000000000, -1.000000000000000000, -0.000000000000000000 ) ) ;
#56 = CARTESIAN_POINT ( 'NONE',  ( -4.500000000000002665, 4.000000000000000000, -5.500000000000000888 ) ) ;
#57 = EDGE_LOOP ( 'NONE', ( #510, #627, #250, #504 ) ) ;
#58 = DIRECTION ( 'NONE',  ( 0.000000000000000000, 0.000000000000000000, 1.000000000000000000 ) ) ;
#59 = CIRCLE ( 'NONE', #516, 2.000000000000000000 ) ;
#60 = CARTESIAN_POINT ( 'NONE',  ( 4.499999999999999112, 4.000000000000000000, 6.500000000000000888 ) ) ;
#61 = CARTESIAN_POINT ( 'NONE',  ( -11.00000000000000178, 4.000000000000000000, -0.4999999999999987232 ) ) ;
#62 = CIRCLE ( 'NONE', #658, 1.499999999999996891 ) ;
#63 = CARTESIAN_POINT ( 'NONE',  ( 4.499999999999999112, 0.000000000000000000, 8.500000000000000000 ) ) ;
#64 = ORIENTED_EDGE ( 'NONE', *, *, #482, .F. ) ;
#65 = ORIENTED_EDGE ( 'NONE', *, *, #161, .T. ) ;
#66 = DIRECTION ( 'NONE',  ( 0.000000000000000000, 0.000000000000000000, -1.000000000000000000 ) ) ;
#67 = CYLINDRICAL_SURFACE ( 'NONE', #180, 2.000000000000000000 ) ;
#68 = DIRECTION ( 'NONE',  ( 0.000000000000000000, 0.000000000000000000, 1.000000000000000000 ) ) ;
#69 = EDGE_CURVE ( 'NONE', #146, #233, #696, .T. ) ;
#70 = VECTOR ( 'NONE', #276, 1000.000000000000000 ) ;
#71 = VERTEX_POINT ( 'NONE', #347 ) ;
#72 = EDGE_LOOP ( 'NONE', ( #674, #23, #237, #386 ) ) ;
#73 = DIRECTION ( 'NONE',  ( 0.000000000000000000, 0.000000000000000000, 1.000000000000000000 ) ) ;
#74 = CC_DESIGN_PERSON_AND_ORGANIZATION_ASSIGNMENT ( #772, #705, ( #567 ) ) ;
#75 = VERTEX_POINT ( 'NONE', #216 ) ;
#76 = PERSON_AND_ORGANIZATION_ROLE ( 'design_owner' ) ;
#77 = CARTESIAN_POINT ( 'NONE',  ( 6.499999999999997335, -6.000000000000000000, -1.326553246335204706E-15 ) ) ;
#78 = EDGE_CURVE ( 'NONE', #402, #550, #671, .T. ) ;
#79 = ORIENTED_EDGE ( 'NONE', *, *, #707, .T. ) ;
#80 = CARTESIAN_POINT ( 'NONE',  ( -4.500000000000002665, 0.000000000000000000, -3.500000000000000444 ) ) ;
#81 = ADVANCED_FACE ( 'NONE', ( #729, #417, #153, #338, #603 ), #37, .T. ) ;
#82 = DIRECTION ( 'NONE',  ( 0.000000000000000000, 1.000000000000000000, -0.000000000000000000 ) ) ;
#83 = VECTOR ( 'NONE', #790, 1000.000000000000000 ) ;
#84 = CARTESIAN_POINT ( 'NONE',  ( 0.000000000000000000, 0.000000000000000000, 0.000000000000000000 ) ) ;
#85 = LINE ( 'NONE', #592, #110 ) ;
#86 = AXIS2_PLACEMENT_3D ( 'NONE', #579, #328, #265 ) ;
#87 = CYLINDRICAL_SURFACE ( 'NONE', #86, 2.000000000000000000 ) ;
#88 = DIRECTION ( 'NONE',  ( -1.000000000000000000, 0.000000000000000000, 2.040851148208008491E-16 ) ) ;
#89 = AXIS2_PLACEMENT_3D ( 'NONE', #209, #400, #193 ) ;
#90 = EDGE_CURVE ( 'NONE', #281, #376, #495, .T. ) ;
#91 = CARTESIAN_POINT ( 'NONE',  ( 2.499999999999998668, 4.000000000000000000, 4.500000000000000000 ) ) ;
#92 = CARTESIAN_POINT ( 'NONE',  ( -11.00000000000000178, 0.000000000000000000, 4.500000000000000888 ) ) ;
#93 = DIRECTION ( 'NONE',  ( 0.000000000000000000, 0.000000000000000000, 1.000000000000000000 ) ) ;
#94 = DIRECTION ( 'NONE',  ( 1.020425574104004122E-16, 0.000000000000000000, -1.000000000000000000 ) ) ;
#95 = APPROVAL_ROLE ( '' ) ;
#96 = CARTESIAN_POINT ( 'NONE',  ( 2.499999999999998668, 4.000000000000000000, 4.500000000000000000 ) ) ;
#97 = EDGE_LOOP ( 'NONE', ( #346, #172, #31, #12 ) ) ;
#98 = DIRECTION ( 'NONE',  ( 0.000000000000000000, 1.000000000000000000, -0.000000000000000000 ) ) ;
#99 = DATE_AND_TIME ( #34, #563 ) ;
#100 = LOCAL_TIME ( 12, 1, 11.00000000000000000, #531 ) ;
#101 = EDGE_CURVE ( 'NONE', #686, #118, #132, .T. ) ;
#102 = DIRECTION ( 'NONE',  ( 0.000000000000000000, 1.000000000000000000, 0.000000000000000000 ) ) ;
#103 = ADVANCED_FACE ( 'NONE', ( #185 ), #500, .T. ) ;
#104 = EDGE_CURVE ( 'NONE', #682, #197, #367, .T. ) ;
#105 = ORIENTED_EDGE ( 'NONE', *, *, #20, .F. ) ;
#106 = EDGE_LOOP ( 'NONE', ( #333, #301 ) ) ;
#107 = APPROVAL_DATE_TIME ( #409, #10 ) ;
#108 = PLANE ( 'NONE',  #15 ) ;
#109 = ORIENTED_EDGE ( 'NONE', *, *, #182, .F. ) ;
#110 = VECTOR ( 'NONE', #706, 1000.000000000000000 ) ;
#111 = LINE ( 'NONE', #354, #120 ) ;
#112 = ORIENTED_EDGE ( 'NONE', *, *, #27, .F. ) ;
#113 = EDGE_CURVE ( 'NONE', #759, #488, #518, .T. ) ;
#114 = CIRCLE ( 'NONE', #398, 2.000000000000000000 ) ;
#115 = ORIENTED_EDGE ( 'NONE', *, *, #556, .F. ) ;
#116 = CARTESIAN_POINT ( 'NONE',  ( -12.50000000000000533, 0.000000000000000000, 8.500000000000000000 ) ) ;
#117 = ORIENTED_EDGE ( 'NONE', *, *, #243, .T. ) ;
#118 = VERTEX_POINT ( 'NONE', #764 ) ;
#119 = DIRECTION ( 'NONE',  ( 0.000000000000000000, 1.000000000000000000, -0.000000000000000000 ) ) ;
#120 = VECTOR ( 'NONE', #292, 1000.000000000000000 ) ;
#121 = CARTESIAN_POINT ( 'NONE',  ( -14.50000000000000533, 0.000000000000000000, -1.479617082450806538E-15 ) ) ;
#122 = VECTOR ( 'NONE', #253, 1000.000000000000000 ) ;
#123 = VERTEX_POINT ( 'NONE', #305 ) ;
#124 = CARTESIAN_POINT ( 'NONE',  ( -12.50000000000000533, 0.000000000000000000, -1.500000000000000444 ) ) ;
#125 = ORIENTED_EDGE ( 'NONE', *, *, #451, .T. ) ;
#126 = AXIS2_PLACEMENT_3D ( 'NONE', #575, #8, #761 ) ;
#127 = CARTESIAN_POINT ( 'NONE',  ( 2.499999999999998668, 0.000000000000000000, 2.999999999999998668 ) ) ;
#128 = APPROVAL ( #195, 'æœª' ) ;
#129 =( GEOMETRIC_REPRESENTATION_CONTEXT ( 3 ) GLOBAL_UNCERTAINTY_ASSIGNED_CONTEXT ( ( #702 ) ) GLOBAL_UNIT_ASSIGNED_CONTEXT ( ( #137, #141, #139 ) ) REPRESENTATION_CONTEXT ( 'NONE', 'WORKASPACE' ) );
#130 = ORIENTED_EDGE ( 'NONE', *, *, #326, .T. ) ;
#131 = FACE_BOUND ( 'NONE', #799, .T. ) ;
#132 = CIRCLE ( 'NONE', #569, 2.000000000000000000 ) ;
#133 = VERTEX_POINT ( 'NONE', #428 ) ;
#134 = DIRECTION ( 'NONE',  ( -0.000000000000000000, -1.000000000000000000, -0.000000000000000000 ) ) ;
#135 = CARTESIAN_POINT ( 'NONE',  ( 0.000000000000000000, 4.000000000000000000, -8.000000000000000000 ) ) ;
#136 = DIRECTION ( 'NONE',  ( 0.000000000000000000, 0.000000000000000000, 1.000000000000000000 ) ) ;
#137 =( LENGTH_UNIT ( ) NAMED_UNIT ( * ) SI_UNIT ( .MILLI., .METRE. ) );
#138 = PLANE ( 'NONE',  #716 ) ;
#139 =( NAMED_UNIT ( * ) SI_UNIT ( $, .STERADIAN. ) SOLID_ANGLE_UNIT ( ) );
#140 = CARTESIAN_POINT ( 'NONE',  ( -0.5000000000000022204, -6.000000000000000000, -6.000000000000000000 ) ) ;
#141 =( NAMED_UNIT ( * ) PLANE_ANGLE_UNIT ( ) SI_UNIT ( $, .RADIAN. ) );
#142 = DIRECTION ( 'NONE',  ( 0.000000000000000000, 0.000000000000000000, 1.000000000000000000 ) ) ;
#143 = EDGE_LOOP ( 'NONE', ( #561, #536, #803, #713 ) ) ;
#144 = CARTESIAN_POINT ( 'NONE',  ( 2.499999999999998668, 4.000000000000000000, -4.999999999999997335 ) ) ;
#145 = AXIS2_PLACEMENT_3D ( 'NONE', #334, #136, #385 ) ;
#146 = VERTEX_POINT ( 'NONE', #752 ) ;
#147 = APPLICATION_PROTOCOL_DEFINITION ( 'international standard', 'config_control_design', 1994, #280 ) ;
#148 = CARTESIAN_POINT ( 'NONE',  ( 4.499999999999999112, 4.000000000000000000, 6.500000000000000888 ) ) ;
#149 = AXIS2_PLACEMENT_3D ( 'NONE', #675, #245, #238 ) ;
#150 = EDGE_LOOP ( 'NONE', ( #644, #289 ) ) ;
#151 = LINE ( 'NONE', #479, #307 ) ;
#152 = DIRECTION ( 'NONE',  ( 0.000000000000000000, 0.000000000000000000, -1.000000000000000000 ) ) ;
#153 = FACE_BOUND ( 'NONE', #150, .T. ) ;
#154 = CALENDAR_DATE ( 2026, 8, 5 ) ;
#155 = CIRCLE ( 'NONE', #622, 2.000000000000000000 ) ;
#156 = FACE_OUTER_BOUND ( 'NONE', #411, .T. ) ;
#157 = ORIENTED_EDGE ( 'NONE', *, *, #69, .T. ) ;
#158 = AXIS2_PLACEMENT_3D ( 'NONE', #60, #373, #693 ) ;
#159 = CARTESIAN_POINT ( 'NONE',  ( 2.499999999999998668, 4.000000000000000000, 4.500000000000000000 ) ) ;
#160 = ADVANCED_FACE ( 'NONE', ( #441 ), #67, .T. ) ;
#161 = EDGE_CURVE ( 'NONE', #118, #197, #295, .T. ) ;
#162 = LINE ( 'NONE', #618, #83 ) ;
#163 = VERTEX_POINT ( 'NONE', #364 ) ;
#164 = CARTESIAN_POINT ( 'NONE',  ( -12.50000000000000533, 0.000000000000000000, 8.500000000000000000 ) ) ;
#165 = PRODUCT_RELATED_PRODUCT_CATEGORY ( 'detail', '', ( #375 ) ) ;
#166 = CC_DESIGN_APPROVAL ( #383, ( #230 ) ) ;
#167 = CARTESIAN_POINT ( 'NONE',  ( 6.499999999999996447, 4.000000000000000000, -6.000000000000000000 ) ) ;
#168 = ORIENTED_EDGE ( 'NONE', *, *, #27, .T. ) ;
#169 = PERSON_AND_ORGANIZATION ( #52, #736 ) ;
#170 = CARTESIAN_POINT ( 'NONE',  ( 4.499999999999999112, 4.000000000000000000, 8.500000000000000000 ) ) ;
#171 = AXIS2_PLACEMENT_3D ( 'NONE', #667, #725, #734 ) ;
#172 = ORIENTED_EDGE ( 'NONE', *, *, #360, .F. ) ;
#173 = ADVANCED_FACE ( 'NONE', ( #626 ), #503, .F. ) ;
#174 = CIRCLE ( 'NONE', #381, 2.000000000000000000 ) ;
#175 = DIRECTION ( 'NONE',  ( -0.000000000000000000, 1.000000000000000000, -0.000000000000000000 ) ) ;
#176 = ORIENTED_EDGE ( 'NONE', *, *, #450, .F. ) ;
#177 = FACE_BOUND ( 'NONE', #106, .T. ) ;
#178 = DIRECTION ( 'NONE',  ( 0.000000000000000000, 0.000000000000000000, -1.000000000000000000 ) ) ;
#179 = ORIENTED_EDGE ( 'NONE', *, *, #650, .T. ) ;
#180 = AXIS2_PLACEMENT_3D ( 'NONE', #359, #679, #621 ) ;
#181 = EDGE_CURVE ( 'NONE', #694, #75, #315, .T. ) ;
#182 = EDGE_CURVE ( 'NONE', #755, #16, #207, .T. ) ;
#183 = ADVANCED_FACE ( 'NONE', ( #647 ), #87, .F. ) ;
#184 = CARTESIAN_POINT ( 'NONE',  ( -12.50000000000000533, 4.000000000000000000, -1.500000000000000444 ) ) ;
#185 = FACE_OUTER_BOUND ( 'NONE', #760, .T. ) ;
#186 = AXIS2_PLACEMENT_3D ( 'NONE', #808, #241, #525 ) ;
#187 = ORIENTED_EDGE ( 'NONE', *, *, #629, .F. ) ;
#188 = CARTESIAN_POINT ( 'NONE',  ( 6.499999999999996447, 0.000000000000000000, -6.000000000000000000 ) ) ;
#189 = ORIENTED_EDGE ( 'NONE', *, *, #629, .T. ) ;
#190 = PLANE ( 'NONE',  #684 ) ;
#191 = LINE ( 'NONE', #380, #225 ) ;
#192 = VERTEX_POINT ( 'NONE', #268 ) ;
#193 = DIRECTION ( 'NONE',  ( 0.000000000000000000, 0.000000000000000000, 1.000000000000000000 ) ) ;
#194 = ADVANCED_FACE ( 'NONE', ( #781 ), #190, .T. ) ;
#195 = APPROVAL_STATUS ( 'not_yet_approved' ) ;
#196 = DIRECTION ( 'NONE',  ( 0.000000000000000000, 0.000000000000000000, -1.000000000000000000 ) ) ;
#197 = VERTEX_POINT ( 'NONE', #444 ) ;
#198 = DESIGN_CONTEXT ( 'detailed design', #32, 'design' ) ;
#199 = DIRECTION ( 'NONE',  ( -1.000000000000000000, 0.000000000000000000, -1.020425574104004122E-16 ) ) ;
#200 = ORIENTED_EDGE ( 'NONE', *, *, #325, .T. ) ;
#201 = DIRECTION ( 'NONE',  ( 0.000000000000000000, 0.000000000000000000, 1.000000000000000000 ) ) ;
#202 = CARTESIAN_POINT ( 'NONE',  ( 2.499999999999998668, 4.000000000000000000, -4.999999999999997335 ) ) ;
#203 = DIRECTION ( 'NONE',  ( 2.040851148208008491E-16, 0.000000000000000000, 1.000000000000000000 ) ) ;
#204 = VERTEX_POINT ( 'NONE', #514 ) ;
#205 = DIRECTION ( 'NONE',  ( 1.000000000000000000, -0.000000000000000000, 0.000000000000000000 ) ) ;
#206 = LINE ( 'NONE', #382, #785 ) ;
#207 = LINE ( 'NONE', #454, #122 ) ;
#208 = AXIS2_PLACEMENT_3D ( 'NONE', #159, #657, #48 ) ;
#209 = CARTESIAN_POINT ( 'NONE',  ( 2.499999999999998668, 4.000000000000000000, -3.500000000000000444 ) ) ;
#210 = EDGE_CURVE ( 'NONE', #287, #358, #625, .T. ) ;
#211 = DIRECTION ( 'NONE',  ( 0.000000000000000000, 1.000000000000000000, -0.000000000000000000 ) ) ;
#212 = ORIENTED_EDGE ( 'NONE', *, *, #711, .T. ) ;
#213 = ORIENTED_EDGE ( 'NONE', *, *, #263, .T. ) ;
#214 = PERSON_AND_ORGANIZATION ( #52, #736 ) ;
#215 = DIRECTION ( 'NONE',  ( -0.000000000000000000, 1.000000000000000000, -0.000000000000000000 ) ) ;
#216 = CARTESIAN_POINT ( 'NONE',  ( 6.499999999999999112, 0.000000000000000000, 6.500000000000000888 ) ) ;
#217 = PERSON_AND_ORGANIZATION ( #52, #736 ) ;
#218 = CARTESIAN_POINT ( 'NONE',  ( -2.500000000000002220, 0.000000000000000000, -0.000000000000000000 ) ) ;
#219 = ORIENTED_EDGE ( 'NONE', *, *, #451, .F. ) ;
#220 = CARTESIAN_POINT ( 'NONE',  ( 0.000000000000000000, 4.000000000000000000, 0.000000000000000000 ) ) ;
#221 = APPROVAL_STATUS ( 'not_yet_approved' ) ;
#222 = AXIS2_PLACEMENT_3D ( 'NONE', #96, #43, #739 ) ;
#223 = DIRECTION ( 'NONE',  ( 0.000000000000000000, 1.000000000000000000, -0.000000000000000000 ) ) ;
#224 = VERTEX_POINT ( 'NONE', #703 ) ;
#225 = VECTOR ( 'NONE', #639, 1000.000000000000000 ) ;
#226 = LINE ( 'NONE', #404, #235 ) ;
#227 = CARTESIAN_POINT ( 'NONE',  ( 0.000000000000000000, 0.000000000000000000, -3.500000000000000444 ) ) ;
#228 = ORIENTED_EDGE ( 'NONE', *, *, #692, .T. ) ;
#229 = AXIS2_PLACEMENT_3D ( 'NONE', #564, #562, #1 ) ;
#230 = PRODUCT_DEFINITION_FORMATION_WITH_SPECIFIED_SOURCE ( 'ä»', '', #375, .NOT_KNOWN. ) ;
#231 = ADVANCED_FACE ( 'NONE', ( #327 ), #738, .F. ) ;
#232 = CYLINDRICAL_SURFACE ( 'NONE', #6, 1.499999999999996891 ) ;
#233 = VERTEX_POINT ( 'NONE', #555 ) ;
#234 = CYLINDRICAL_SURFACE ( 'NONE', #753, 1.000000000000000000 ) ;
#235 = VECTOR ( 'NONE', #796, 1000.000000000000000 ) ;
#236 = ORIENTED_EDGE ( 'NONE', *, *, #670, .T. ) ;
#237 = ORIENTED_EDGE ( 'NONE', *, *, #710, .F. ) ;
#238 = DIRECTION ( 'NONE',  ( 0.000000000000000000, 0.000000000000000000, 1.000000000000000000 ) ) ;
#239 = DIRECTION ( 'NONE',  ( 0.000000000000000000, 0.000000000000000000, 1.000000000000000000 ) ) ;
#240 = EDGE_LOOP ( 'NONE', ( #584, #272, #666, #570 ) ) ;
#241 = DIRECTION ( 'NONE',  ( 0.000000000000000000, 1.000000000000000000, -0.000000000000000000 ) ) ;
#242 = ADVANCED_FACE ( 'NONE', ( #481 ), #489, .T. ) ;
#243 = EDGE_CURVE ( 'NONE', #224, #574, #191, .T. ) ;
#244 = EDGE_CURVE ( 'NONE', #376, #281, #62, .T. ) ;
#245 = DIRECTION ( 'NONE',  ( 0.000000000000000000, 1.000000000000000000, -0.000000000000000000 ) ) ;
#246 = CARTESIAN_POINT ( 'NONE',  ( -14.50000000000000533, 4.000000000000000000, -1.500000000000000666 ) ) ;
#247 = AXIS2_PLACEMENT_3D ( 'NONE', #649, #586, #773 ) ;
#248 = ORIENTED_EDGE ( 'NONE', *, *, #524, .F. ) ;
#249 = CIRCLE ( 'NONE', #552, 1.500000000000000444 ) ;
#250 = ORIENTED_EDGE ( 'NONE', *, *, #498, .F. ) ;
#251 = DIRECTION ( 'NONE',  ( 0.000000000000000000, 0.000000000000000000, 1.000000000000000000 ) ) ;
#252 = EDGE_CURVE ( 'NONE', #402, #281, #378, .T. ) ;
#253 = DIRECTION ( 'NONE',  ( -0.000000000000000000, -1.000000000000000000, -0.000000000000000000 ) ) ;
#254 = LINE ( 'NONE', #521, #9 ) ;
#255 = FACE_OUTER_BOUND ( 'NONE', #4, .T. ) ;
#256 = VECTOR ( 'NONE', #668, 1000.000000000000000 ) ;
#257 = AXIS2_PLACEMENT_3D ( 'NONE', #769, #282, #291 ) ;
#258 = DATE_AND_TIME ( #17, #591 ) ;
#259 = DIRECTION ( 'NONE',  ( 0.000000000000000000, -1.000000000000000000, 0.000000000000000000 ) ) ;
#260 = CARTESIAN_POINT ( 'NONE',  ( -2.500000000000002220, 4.000000000000000000, 0.000000000000000000 ) ) ;
#261 = PLANE ( 'NONE',  #145 ) ;
#262 = AXIS2_PLACEMENT_3D ( 'NONE', #84, #585, #21 ) ;
#263 = EDGE_CURVE ( 'NONE', #204, #270, #456, .T. ) ;
#264 = ADVANCED_FACE ( 'NONE', ( #718 ), #653, .T. ) ;
#265 = DIRECTION ( 'NONE',  ( 0.000000000000000000, 0.000000000000000000, 1.000000000000000000 ) ) ;
#266 = DIRECTION ( 'NONE',  ( -0.000000000000000000, -1.000000000000000000, -0.000000000000000000 ) ) ;
#267 = ORIENTED_EDGE ( 'NONE', *, *, #750, .T. ) ;
#268 = CARTESIAN_POINT ( 'NONE',  ( -4.500000000000002665, 4.000000000000000000, -3.500000000000000444 ) ) ;
#269 = CLOSED_SHELL ( 'NONE', ( #565, #231, #299, #566, #801, #242, #194, #483, #418, #440, #173, #309, #81, #595, #324, #351, #372, #264, #160, #390, #183, #103 ) ) ;
#270 = VERTEX_POINT ( 'NONE', #517 ) ;
#271 = DIRECTION ( 'NONE',  ( 1.000000000000000000, -0.000000000000000000, 0.000000000000000000 ) ) ;
#272 = ORIENTED_EDGE ( 'NONE', *, *, #509, .T. ) ;
#273 = ORIENTED_EDGE ( 'NONE', *, *, #113, .T. ) ;
#274 = CARTESIAN_POINT ( 'NONE',  ( -11.00000000000000178, 4.000000000000000000, 6.500000000000000888 ) ) ;
#275 = ORIENTED_EDGE ( 'NONE', *, *, #403, .T. ) ;
#276 = DIRECTION ( 'NONE',  ( 0.000000000000000000, -1.000000000000000000, 0.000000000000000000 ) ) ;
#277 = COORDINATED_UNIVERSAL_TIME_OFFSET ( 8, 0, .AHEAD. ) ;
#278 = CC_DESIGN_DATE_AND_TIME_ASSIGNMENT ( #604, #659, ( #567 ) ) ;
#279 = DIRECTION ( 'NONE',  ( 0.000000000000000000, 0.000000000000000000, 1.000000000000000000 ) ) ;
#280 = APPLICATION_CONTEXT ( 'configuration controlled 3d designs of mechanical parts and assemblies' ) ;
#281 = VERTEX_POINT ( 'NONE', #323 ) ;
#282 = DIRECTION ( 'NONE',  ( 0.000000000000000000, 1.000000000000000000, -0.000000000000000000 ) ) ;
#283 = DIRECTION ( 'NONE',  ( 0.000000000000000000, 0.000000000000000000, 1.000000000000000000 ) ) ;
#284 = PERSON_AND_ORGANIZATION_ROLE ( 'creator' ) ;
#285 = VECTOR ( 'NONE', #102, 1000.000000000000000 ) ;
#286 = LINE ( 'NONE', #613, #256 ) ;
#287 = VERTEX_POINT ( 'NONE', #779 ) ;
#288 = DIRECTION ( 'NONE',  ( 0.000000000000000000, 0.000000000000000000, -1.000000000000000000 ) ) ;
#289 = ORIENTED_EDGE ( 'NONE', *, *, #638, .F. ) ;
#290 = CIRCLE ( 'NONE', #651, 2.000000000000000000 ) ;
#291 = DIRECTION ( 'NONE',  ( 0.000000000000000000, 0.000000000000000000, 1.000000000000000000 ) ) ;
#292 = DIRECTION ( 'NONE',  ( -0.000000000000000000, -1.000000000000000000, -0.000000000000000000 ) ) ;
#293 = ORIENTED_EDGE ( 'NONE', *, *, #182, .T. ) ;
#294 = CARTESIAN_POINT ( 'NONE',  ( 2.499999999999998668, 0.000000000000000000, 4.500000000000000000 ) ) ;
#295 = LINE ( 'NONE', #121, #432 ) ;
#296 = ORIENTED_EDGE ( 'NONE', *, *, #420, .T. ) ;
#297 = DIRECTION ( 'NONE',  ( -0.000000000000000000, -1.000000000000000000, -0.000000000000000000 ) ) ;
#298 = EDGE_CURVE ( 'NONE', #542, #757, #174, .T. ) ;
#299 = ADVANCED_FACE ( 'NONE', ( #640 ), #645, .F. ) ;
#300 = DIRECTION ( 'NONE',  ( 0.000000000000000000, 1.000000000000000000, -0.000000000000000000 ) ) ;
#301 = ORIENTED_EDGE ( 'NONE', *, *, #244, .T. ) ;
#302 = EDGE_LOOP ( 'NONE', ( #399, #636, #308, #228, #795, #36, #472, #179, #112, #529, #51, #505 ) ) ;
#303 = LOCAL_TIME ( 12, 1, 11.00000000000000000, #672 ) ;
#304 = DIRECTION ( 'NONE',  ( -0.000000000000000000, -1.000000000000000000, 0.000000000000000000 ) ) ;
#305 = CARTESIAN_POINT ( 'NONE',  ( -2.500000000000002220, 0.000000000000000000, -6.000000000000000000 ) ) ;
#306 = FACE_OUTER_BOUND ( 'NONE', #355, .T. ) ;
#307 = VECTOR ( 'NONE', #608, 1000.000000000000000 ) ;
#308 = ORIENTED_EDGE ( 'NONE', *, *, #776, .F. ) ;
#309 = ADVANCED_FACE ( 'NONE', ( #401 ), #448, .F. ) ;
#310 = ORIENTED_EDGE ( 'NONE', *, *, #181, .T. ) ;
#311 = DIRECTION ( 'NONE',  ( 0.000000000000000000, 1.000000000000000000, -0.000000000000000000 ) ) ;
#312 = AXIS2_PLACEMENT_3D ( 'NONE', #91, #391, #196 ) ;
#313 = ORIENTED_EDGE ( 'NONE', *, *, #749, .T. ) ;
#314 = FACE_OUTER_BOUND ( 'NONE', #690, .T. ) ;
#315 = LINE ( 'NONE', #11, #548 ) ;
#316 = APPROVAL_ROLE ( '' ) ;
#317 = DIRECTION ( 'NONE',  ( 0.000000000000000000, 0.000000000000000000, 1.000000000000000000 ) ) ;
#318 = VECTOR ( 'NONE', #419, 1000.000000000000000 ) ;
#319 = DIRECTION ( 'NONE',  ( 0.000000000000000000, 0.000000000000000000, -1.000000000000000000 ) ) ;
#320 = VECTOR ( 'NONE', #271, 1000.000000000000000 ) ;
#321 = CARTESIAN_POINT ( 'NONE',  ( -12.50000000000000533, 4.000000000000000000, 8.500000000000000000 ) ) ;
#322 = CARTESIAN_POINT ( 'NONE',  ( 0.000000000000000000, 4.000000000000000000, -3.500000000000000444 ) ) ;
#323 = CARTESIAN_POINT ( 'NONE',  ( 2.499999999999998668, 0.000000000000000000, -4.999999999999997335 ) ) ;
#324 = ADVANCED_FACE ( 'NONE', ( #700 ), #138, .F. ) ;
#325 = EDGE_CURVE ( 'NONE', #686, #741, #85, .T. ) ;
#326 = EDGE_CURVE ( 'NONE', #133, #224, #746, .T. ) ;
#327 = FACE_OUTER_BOUND ( 'NONE', #341, .T. ) ;
#328 = DIRECTION ( 'NONE',  ( 0.000000000000000000, 1.000000000000000000, 0.000000000000000000 ) ) ;
#329 = VECTOR ( 'NONE', #435, 1000.000000000000000 ) ;
#330 = ORIENTED_EDGE ( 'NONE', *, *, #161, .F. ) ;
#331 = CARTESIAN_POINT ( 'NONE',  ( -0.5000000000000022204, 4.000000000000000000, -8.000000000000000000 ) ) ;
#332 = DIRECTION ( 'NONE',  ( 0.000000000000000000, 1.000000000000000000, -0.000000000000000000 ) ) ;
#333 = ORIENTED_EDGE ( 'NONE', *, *, #90, .T. ) ;
#334 = CARTESIAN_POINT ( 'NONE',  ( 0.000000000000000000, -6.000000000000000000, -8.000000000000000000 ) ) ;
#335 = ORIENTED_EDGE ( 'NONE', *, *, #46, .F. ) ;
#336 = EDGE_CURVE ( 'NONE', #233, #287, #206, .T. ) ;
#337 = CARTESIAN_POINT ( 'NONE',  ( 4.499999999999999112, 4.000000000000000000, 8.500000000000000000 ) ) ;
#338 = FACE_BOUND ( 'NONE', #530, .T. ) ;
#339 = APPROVAL_DATE_TIME ( #413, #383 ) ;
#340 = LINE ( 'NONE', #170, #285 ) ;
#341 = EDGE_LOOP ( 'NONE', ( #157, #780, #248, #497 ) ) ;
#342 = AXIS2_PLACEMENT_3D ( 'NONE', #459, #590, #251 ) ;
#343 = DIRECTION ( 'NONE',  ( -0.000000000000000000, -1.000000000000000000, -0.000000000000000000 ) ) ;
#344 = APPROVAL_STATUS ( 'not_yet_approved' ) ;
#345 = DIRECTION ( 'NONE',  ( 0.000000000000000000, 1.000000000000000000, -0.000000000000000000 ) ) ;
#346 = ORIENTED_EDGE ( 'NONE', *, *, #605, .F. ) ;
#347 = CARTESIAN_POINT ( 'NONE',  ( -12.50000000000000533, 0.000000000000000000, -3.500000000000000444 ) ) ;
#348 = VECTOR ( 'NONE', #343, 1000.000000000000000 ) ;
#349 = CYLINDRICAL_SURFACE ( 'NONE', #222, 1.500000000000000444 ) ;
#350 = EDGE_LOOP ( 'NONE', ( #494, #212 ) ) ;
#351 = ADVANCED_FACE ( 'NONE', ( #314 ), #261, .F. ) ;
#352 = VECTOR ( 'NONE', #406, 1000.000000000000000 ) ;
#353 = PERSON_AND_ORGANIZATION ( #52, #736 ) ;
#354 = CARTESIAN_POINT ( 'NONE',  ( 2.499999999999998668, 4.000000000000000000, 6.000000000000000000 ) ) ;
#355 = EDGE_LOOP ( 'NONE', ( #213, #737, #310, #538, #365, #611, #65, #568, #275, #273, #463, #26 ) ) ;
#356 = CIRCLE ( 'NONE', #89, 1.499999999999996891 ) ;
#357 = CARTESIAN_POINT ( 'NONE',  ( 2.499999999999998668, 0.000000000000000000, 4.500000000000000000 ) ) ;
#358 = VERTEX_POINT ( 'NONE', #526 ) ;
#359 = CARTESIAN_POINT ( 'NONE',  ( -12.50000000000000533, 4.000000000000000000, 6.500000000000000888 ) ) ;
#360 = EDGE_CURVE ( 'NONE', #646, #270, #533, .T. ) ;
#361 = DIRECTION ( 'NONE',  ( 0.000000000000000000, 0.000000000000000000, 1.000000000000000000 ) ) ;
#362 = VECTOR ( 'NONE', #802, 1000.000000000000000 ) ;
#363 = VECTOR ( 'NONE', #631, 1000.000000000000000 ) ;
#364 = CARTESIAN_POINT ( 'NONE',  ( 2.499999999999998668, 0.000000000000000000, 6.000000000000000000 ) ) ;
#365 = ORIENTED_EDGE ( 'NONE', *, *, #325, .F. ) ;
#366 = CARTESIAN_POINT ( 'NONE',  ( 2.499999999999998668, 4.000000000000000000, -3.500000000000000444 ) ) ;
#367 = LINE ( 'NONE', #572, #363 ) ;
#368 = ORIENTED_EDGE ( 'NONE', *, *, #461, .F. ) ;
#369 = APPROVAL_PERSON_ORGANIZATION ( #515, #128, #316 ) ;
#370 = DIRECTION ( 'NONE',  ( -0.000000000000000000, -1.000000000000000000, 0.000000000000000000 ) ) ;
#371 = ADVANCED_BREP_SHAPE_REPRESENTATION ( '\X2\95017d2756fa5b9a677f\X0\3A 4mm', ( #742, #262 ), #129 ) ;
#372 = ADVANCED_FACE ( 'NONE', ( #14 ), #783, .T. ) ;
#373 = DIRECTION ( 'NONE',  ( 0.000000000000000000, 1.000000000000000000, 0.000000000000000000 ) ) ;
#374 = ORIENTED_EDGE ( 'NONE', *, *, #3, .T. ) ;
#375 = PRODUCT ( '\X2\95017d2756fa5b9a677f\X0\3A 4mm', '\X2\95017d2756fa5b9a677f\X0\3A 4mm', '', ( #513 ) ) ;
#376 = VERTEX_POINT ( 'NONE', #460 ) ;
#377 = DIRECTION ( 'NONE',  ( -0.000000000000000000, -1.000000000000000000, 0.000000000000000000 ) ) ;
#378 = LINE ( 'NONE', #144, #730 ) ;
#379 = ORIENTED_EDGE ( 'NONE', *, *, #181, .F. ) ;
#380 = CARTESIAN_POINT ( 'NONE',  ( 2.499999999999998668, 4.000000000000000000, 2.999999999999999112 ) ) ;
#381 = AXIS2_PLACEMENT_3D ( 'NONE', #148, #332, #142 ) ;
#382 = CARTESIAN_POINT ( 'NONE',  ( -11.00000000000000178, 4.000000000000000000, 0.5000000000000027756 ) ) ;
#383 = APPROVAL ( #221, 'æœª' ) ;
#384 = CARTESIAN_POINT ( 'NONE',  ( 6.499999999999999112, 4.000000000000000000, 6.500000000000000888 ) ) ;
#385 = DIRECTION ( 'NONE',  ( 1.000000000000000000, 0.000000000000000000, -0.000000000000000000 ) ) ;
#386 = ORIENTED_EDGE ( 'NONE', *, *, #243, .F. ) ;
#387 = DIRECTION ( 'NONE',  ( -1.000000000000000000, 0.000000000000000000, -0.000000000000000000 ) ) ;
#388 = EDGE_CURVE ( 'NONE', #118, #405, #786, .T. ) ;
#389 = DIRECTION ( 'NONE',  ( 0.000000000000000000, 0.000000000000000000, 1.000000000000000000 ) ) ;
#390 = ADVANCED_FACE ( 'NONE', ( #255 ), #468, .T. ) ;
#391 = DIRECTION ( 'NONE',  ( -0.000000000000000000, -1.000000000000000000, -0.000000000000000000 ) ) ;
#392 = EDGE_LOOP ( 'NONE', ( #330, #397, #168, #452 ) ) ;
#393 = VECTOR ( 'NONE', #223, 1000.000000000000000 ) ;
#394 = LINE ( 'NONE', #782, #436 ) ;
#395 = CARTESIAN_POINT ( 'NONE',  ( 0.000000000000000000, 0.000000000000000000, -8.000000000000000000 ) ) ;
#396 = AXIS2_PLACEMENT_3D ( 'NONE', #18, #259, #520 ) ;
#397 = ORIENTED_EDGE ( 'NONE', *, *, #388, .T. ) ;
#398 = AXIS2_PLACEMENT_3D ( 'NONE', #751, #377, #427 ) ;
#399 = ORIENTED_EDGE ( 'NONE', *, *, #750, .F. ) ;
#400 = DIRECTION ( 'NONE',  ( 0.000000000000000000, 1.000000000000000000, -0.000000000000000000 ) ) ;
#401 = FACE_OUTER_BOUND ( 'NONE', #656, .T. ) ;
#402 = VERTEX_POINT ( 'NONE', #202 ) ;
#403 = EDGE_CURVE ( 'NONE', #71, #759, #453, .T. ) ;
#404 = CARTESIAN_POINT ( 'NONE',  ( -2.500000000000002220, 4.000000000000000000, -5.500000000000000888 ) ) ;
#405 = VERTEX_POINT ( 'NONE', #541 ) ;
#406 = DIRECTION ( 'NONE',  ( 1.000000000000000000, -0.000000000000000000, 0.000000000000000000 ) ) ;
#407 = EDGE_LOOP ( 'NONE', ( #445, #581 ) ) ;
#408 = AXIS2_PLACEMENT_3D ( 'NONE', #366, #297, #66 ) ;
#409 = DATE_AND_TIME ( #540, #777 ) ;
#410 = DIRECTION ( 'NONE',  ( -0.000000000000000000, -1.000000000000000000, 0.000000000000000000 ) ) ;
#411 = EDGE_LOOP ( 'NONE', ( #699, #593, #501, #587 ) ) ;
#412 = LINE ( 'NONE', #164, #70 ) ;
#413 = DATE_AND_TIME ( #154, #100 ) ;
#414 = DIRECTION ( 'NONE',  ( -1.000000000000000000, 0.000000000000000000, -0.000000000000000000 ) ) ;
#415 = ORIENTED_EDGE ( 'NONE', *, *, #403, .F. ) ;
#416 = CIRCLE ( 'NONE', #632, 2.000000000000000000 ) ;
#417 = FACE_BOUND ( 'NONE', #407, .T. ) ;
#418 = ADVANCED_FACE ( 'NONE', ( #156 ), #232, .F. ) ;
#419 = DIRECTION ( 'NONE',  ( -0.000000000000000000, -1.000000000000000000, -0.000000000000000000 ) ) ;
#420 = EDGE_CURVE ( 'NONE', #755, #429, #508, .T. ) ;
#421 = VERTEX_POINT ( 'NONE', #167 ) ;
#422 = VECTOR ( 'NONE', #94, 1000.000000000000000 ) ;
#423 = FACE_OUTER_BOUND ( 'NONE', #765, .T. ) ;
#424 = ORIENTED_EDGE ( 'NONE', *, *, #360, .T. ) ;
#425 = DIRECTION ( 'NONE',  ( 0.000000000000000000, 0.000000000000000000, 1.000000000000000000 ) ) ;
#426 = ORIENTED_EDGE ( 'NONE', *, *, #775, .F. ) ;
#427 = DIRECTION ( 'NONE',  ( 0.000000000000000000, 0.000000000000000000, 1.000000000000000000 ) ) ;
#428 = CARTESIAN_POINT ( 'NONE',  ( 2.499999999999998668, 4.000000000000000000, 6.000000000000000000 ) ) ;
#429 = VERTEX_POINT ( 'NONE', #735 ) ;
#430 = FACE_OUTER_BOUND ( 'NONE', #240, .T. ) ;
#431 = AXIS2_PLACEMENT_3D ( 'NONE', #793, #345, #93 ) ;
#432 = VECTOR ( 'NONE', #560, 1000.000000000000000 ) ;
#433 = ORIENTED_EDGE ( 'NONE', *, *, #450, .T. ) ;
#434 = ORIENTED_EDGE ( 'NONE', *, *, #616, .F. ) ;
#435 = DIRECTION ( 'NONE',  ( 0.000000000000000000, 0.000000000000000000, -1.000000000000000000 ) ) ;
#436 = VECTOR ( 'NONE', #778, 1000.000000000000000 ) ;
#437 = ORIENTED_EDGE ( 'NONE', *, *, #298, .F. ) ;
#438 = CC_DESIGN_SECURITY_CLASSIFICATION ( #689, ( #230 ) ) ;
#439 = CYLINDRICAL_SURFACE ( 'NONE', #408, 1.499999999999996891 ) ;
#440 = ADVANCED_FACE ( 'NONE', ( #35 ), #349, .F. ) ;
#441 = FACE_OUTER_BOUND ( 'NONE', #143, .T. ) ;
#442 = ORIENTED_EDGE ( 'NONE', *, *, #104, .F. ) ;
#443 = VERTEX_POINT ( 'NONE', #492 ) ;
#444 = CARTESIAN_POINT ( 'NONE',  ( -14.50000000000000533, 0.000000000000000000, -1.500000000000000666 ) ) ;
#445 = ORIENTED_EDGE ( 'NONE', *, *, #420, .F. ) ;
#446 = CARTESIAN_POINT ( 'NONE',  ( 4.499999999999999112, 0.000000000000000000, 6.500000000000000888 ) ) ;
#447 = EDGE_LOOP ( 'NONE', ( #457, #728, #589, #669 ) ) ;
#448 = CYLINDRICAL_SURFACE ( 'NONE', #247, 1.000000000000000000 ) ;
#449 = ORIENTED_EDGE ( 'NONE', *, *, #638, .T. ) ;
#450 = EDGE_CURVE ( 'NONE', #429, #40, #606, .T. ) ;
#451 = EDGE_CURVE ( 'NONE', #741, #542, #340, .T. ) ;
#452 = ORIENTED_EDGE ( 'NONE', *, *, #104, .T. ) ;
#453 = LINE ( 'NONE', #227, #352 ) ;
#454 = CARTESIAN_POINT ( 'NONE',  ( -11.00000000000000178, 4.000000000000000000, 4.500000000000000888 ) ) ;
#455 = FACE_OUTER_BOUND ( 'NONE', #57, .T. ) ;
#456 = LINE ( 'NONE', #395, #320 ) ;
#457 = ORIENTED_EDGE ( 'NONE', *, *, #680, .F. ) ;
#458 = AXIS2_PLACEMENT_3D ( 'NONE', #662, #98, #283 ) ;
#459 = CARTESIAN_POINT ( 'NONE',  ( -12.50000000000000533, 4.000000000000000000, 6.500000000000000888 ) ) ;
#460 = CARTESIAN_POINT ( 'NONE',  ( 2.499999999999998668, 0.000000000000000000, -2.000000000000003553 ) ) ;
#461 = EDGE_CURVE ( 'NONE', #757, #75, #798, .T. ) ;
#462 = AXIS2_PLACEMENT_3D ( 'NONE', #50, #487, #602 ) ;
#463 = ORIENTED_EDGE ( 'NONE', *, *, #498, .T. ) ;
#464 = LINE ( 'NONE', #792, #422 ) ;
#465 = CIRCLE ( 'NONE', #149, 1.000000000000001554 ) ;
#466 = VERTEX_POINT ( 'NONE', #537 ) ;
#467 = DATE_TIME_ROLE ( 'classification_date' ) ;
#468 = CYLINDRICAL_SURFACE ( 'NONE', #396, 2.000000000000000000 ) ;
#469 = ORIENTED_EDGE ( 'NONE', *, *, #544, .T. ) ;
#470 = CARTESIAN_POINT ( 'NONE',  ( -11.00000000000000178, 4.000000000000000000, -0.4999999999999987232 ) ) ;
#471 = CARTESIAN_POINT ( 'NONE',  ( 0.000000000000000000, 4.000000000000000000, 8.500000000000000000 ) ) ;
#472 = ORIENTED_EDGE ( 'NONE', *, *, #45, .F. ) ;
#473 = DIRECTION ( 'NONE',  ( 0.000000000000000000, 0.000000000000000000, 1.000000000000000000 ) ) ;
#474 = CIRCLE ( 'NONE', #546, 2.000000000000000000 ) ;
#475 = AXIS2_PLACEMENT_3D ( 'NONE', #807, #300, #7 ) ;
#476 = DIRECTION ( 'NONE',  ( 0.000000000000000000, 0.000000000000000000, -1.000000000000000000 ) ) ;
#477 = DIRECTION ( 'NONE',  ( -0.000000000000000000, -1.000000000000000000, -0.000000000000000000 ) ) ;
#478 = ORIENTED_EDGE ( 'NONE', *, *, #480, .F. ) ;
#479 = CARTESIAN_POINT ( 'NONE',  ( 0.000000000000000000, 4.000000000000000000, -3.500000000000000444 ) ) ;
#480 = EDGE_CURVE ( 'NONE', #192, #759, #286, .T. ) ;
#481 = FACE_OUTER_BOUND ( 'NONE', #722, .T. ) ;
#482 = EDGE_CURVE ( 'NONE', #784, #542, #162, .T. ) ;
#483 = ADVANCED_FACE ( 'NONE', ( #423 ), #108, .F. ) ;
#484 = DIRECTION ( 'NONE',  ( 0.000000000000000000, 0.000000000000000000, -1.000000000000000000 ) ) ;
#485 = SECURITY_CLASSIFICATION_LEVEL ( 'unclassified' ) ;
#486 = CIRCLE ( 'NONE', #126, 2.000000000000000000 ) ;
#487 = DIRECTION ( 'NONE',  ( 0.000000000000000000, 1.000000000000000000, -0.000000000000000000 ) ) ;
#488 = VERTEX_POINT ( 'NONE', #553 ) ;
#489 = PLANE ( 'NONE',  #583 ) ;
#490 = CC_DESIGN_APPROVAL ( #10, ( #689 ) ) ;
#491 = VECTOR ( 'NONE', #205, 1000.000000000000000 ) ;
#492 = CARTESIAN_POINT ( 'NONE',  ( -2.500000000000002220, 4.000000000000000000, -6.000000000000000000 ) ) ;
#493 = ORIENTED_EDGE ( 'NONE', *, *, #711, .F. ) ;
#494 = ORIENTED_EDGE ( 'NONE', *, *, #710, .T. ) ;
#495 = CIRCLE ( 'NONE', #458, 1.499999999999996891 ) ;
#496 = DIRECTION ( 'NONE',  ( 0.000000000000000000, 0.000000000000000000, 1.000000000000000000 ) ) ;
#497 = ORIENTED_EDGE ( 'NONE', *, *, #19, .F. ) ;
#498 = EDGE_CURVE ( 'NONE', #488, #123, #655, .T. ) ;
#499 = LINE ( 'NONE', #571, #763 ) ;
#500 = CYLINDRICAL_SURFACE ( 'NONE', #158, 2.000000000000000000 ) ;
#501 = ORIENTED_EDGE ( 'NONE', *, *, #252, .T. ) ;
#502 = FACE_BOUND ( 'NONE', #44, .T. ) ;
#503 = CYLINDRICAL_SURFACE ( 'NONE', #797, 1.000000000000001554 ) ;
#504 = ORIENTED_EDGE ( 'NONE', *, *, #46, .T. ) ;
#505 = ORIENTED_EDGE ( 'NONE', *, *, #298, .T. ) ;
#506 = CARTESIAN_POINT ( 'NONE',  ( 4.499999999999996447, 4.000000000000000000, -8.000000000000000000 ) ) ;
#507 = ORIENTED_EDGE ( 'NONE', *, *, #19, .T. ) ;
#508 = CIRCLE ( 'NONE', #462, 1.000000000000000000 ) ;
#509 = EDGE_CURVE ( 'NONE', #550, #376, #664, .T. ) ;
#510 = ORIENTED_EDGE ( 'NONE', *, *, #630, .T. ) ;
#511 = DIRECTION ( 'NONE',  ( 0.000000000000000000, 1.000000000000000000, -0.000000000000000000 ) ) ;
#512 = AXIS2_PLACEMENT_3D ( 'NONE', #5, #511, #496 ) ;
#513 = MECHANICAL_CONTEXT ( 'NONE', #280, 'mechanical' ) ;
#514 = CARTESIAN_POINT ( 'NONE',  ( -0.5000000000000022204, 0.000000000000000000, -8.000000000000000000 ) ) ;
#515 = PERSON_AND_ORGANIZATION ( #52, #736 ) ;
#516 = AXIS2_PLACEMENT_3D ( 'NONE', #683, #370, #58 ) ;
#517 = CARTESIAN_POINT ( 'NONE',  ( 4.499999999999996447, 0.000000000000000000, -8.000000000000000000 ) ) ;
#518 = CIRCLE ( 'NONE', #475, 2.000000000000000000 ) ;
#519 = APPROVAL_DATE_TIME ( #258, #128 ) ;
#520 = DIRECTION ( 'NONE',  ( 0.000000000000000000, 0.000000000000000000, -1.000000000000000000 ) ) ;
#521 = CARTESIAN_POINT ( 'NONE',  ( -2.500000000000002220, 0.000000000000000000, -6.000000000000000000 ) ) ;
#522 = APPROVAL_PERSON_ORGANIZATION ( #353, #383, #95 ) ;
#523 = DIRECTION ( 'NONE',  ( -0.000000000000000000, -1.000000000000000000, -0.000000000000000000 ) ) ;
#524 = EDGE_CURVE ( 'NONE', #358, #287, #794, .T. ) ;
#525 = DIRECTION ( 'NONE',  ( 0.000000000000000000, 0.000000000000000000, 1.000000000000000000 ) ) ;
#526 = CARTESIAN_POINT ( 'NONE',  ( -11.00000000000000178, 0.000000000000000000, -1.500000000000000222 ) ) ;
#527 = ORIENTED_EDGE ( 'NONE', *, *, #47, .F. ) ;
#528 = AXIS2_PLACEMENT_3D ( 'NONE', #470, #601, #535 ) ;
#529 = ORIENTED_EDGE ( 'NONE', *, *, #787, .T. ) ;
#530 = EDGE_LOOP ( 'NONE', ( #105, #745 ) ) ;
#531 = COORDINATED_UNIVERSAL_TIME_OFFSET ( 8, 0, .AHEAD. ) ;
#532 = ORIENTED_EDGE ( 'NONE', *, *, #524, .T. ) ;
#533 = LINE ( 'NONE', #578, #615 ) ;
#534 = AXIS2_PLACEMENT_3D ( 'NONE', #140, #770, #712 ) ;
#535 = DIRECTION ( 'NONE',  ( 0.000000000000000000, 0.000000000000000000, 1.000000000000000000 ) ) ;
#536 = ORIENTED_EDGE ( 'NONE', *, *, #388, .F. ) ;
#537 = CARTESIAN_POINT ( 'NONE',  ( -12.50000000000000533, 4.000000000000000000, -3.500000000000000444 ) ) ;
#538 = ORIENTED_EDGE ( 'NONE', *, *, #775, .T. ) ;
#539 = DIRECTION ( 'NONE',  ( 0.000000000000000000, 1.000000000000000000, -0.000000000000000000 ) ) ;
#540 = CALENDAR_DATE ( 2026, 8, 5 ) ;
#541 = CARTESIAN_POINT ( 'NONE',  ( -14.50000000000000533, 4.000000000000000000, 6.500000000000000888 ) ) ;
#542 = VERTEX_POINT ( 'NONE', #337 ) ;
#543 = EDGE_CURVE ( 'NONE', #719, #192, #474, .T. ) ;
#544 = EDGE_CURVE ( 'NONE', #694, #421, #673, .T. ) ;
#545 = CARTESIAN_POINT ( 'NONE',  ( -11.00000000000000178, 0.000000000000000000, 6.500000000000000888 ) ) ;
#546 = AXIS2_PLACEMENT_3D ( 'NONE', #56, #410, #279 ) ;
#547 = APPROVAL_ROLE ( '' ) ;
#548 = VECTOR ( 'NONE', #203, 1000.000000000000000 ) ;
#549 = DIRECTION ( 'NONE',  ( -0.000000000000000000, -1.000000000000000000, -0.000000000000000000 ) ) ;
#550 = VERTEX_POINT ( 'NONE', #610 ) ;
#551 = DIRECTION ( 'NONE',  ( 0.000000000000000000, 1.000000000000000000, -0.000000000000000000 ) ) ;
#552 = AXIS2_PLACEMENT_3D ( 'NONE', #357, #748, #620 ) ;
#553 = CARTESIAN_POINT ( 'NONE',  ( -2.500000000000002220, 0.000000000000000000, -5.500000000000000888 ) ) ;
#554 = ORIENTED_EDGE ( 'NONE', *, *, #707, .F. ) ;
#555 = CARTESIAN_POINT ( 'NONE',  ( -11.00000000000000178, 4.000000000000000000, 0.5000000000000027756 ) ) ;
#556 = EDGE_CURVE ( 'NONE', #133, #163, #111, .T. ) ;
#557 = CARTESIAN_POINT ( 'NONE',  ( 6.499999999999996447, -6.000000000000000000, -6.000000000000000000 ) ) ;
#558 = ORIENTED_EDGE ( 'NONE', *, *, #47, .T. ) ;
#559 = DIRECTION ( 'NONE',  ( 0.000000000000000000, 1.000000000000000000, -0.000000000000000000 ) ) ;
#560 = DIRECTION ( 'NONE',  ( 1.020425574104004122E-16, 0.000000000000000000, -1.000000000000000000 ) ) ;
#561 = ORIENTED_EDGE ( 'NONE', *, *, #787, .F. ) ;
#562 = DIRECTION ( 'NONE',  ( 0.000000000000000000, 1.000000000000000000, -0.000000000000000000 ) ) ;
#563 = LOCAL_TIME ( 12, 1, 11.00000000000000000, #28 ) ;
#564 = CARTESIAN_POINT ( 'NONE',  ( -11.00000000000000178, 0.000000000000000000, 5.500000000000000888 ) ) ;
#565 = ADVANCED_FACE ( 'NONE', ( #804 ), #234, .F. ) ;
#566 = ADVANCED_FACE ( 'NONE', ( #430 ), #439, .F. ) ;
#567 = PRODUCT_DEFINITION ( 'æœ', '', #230, #198 ) ;
#568 = ORIENTED_EDGE ( 'NONE', *, *, #616, .T. ) ;
#569 = AXIS2_PLACEMENT_3D ( 'NONE', #685, #758, #239 ) ;
#570 = ORIENTED_EDGE ( 'NONE', *, *, #252, .F. ) ;
#571 = CARTESIAN_POINT ( 'NONE',  ( -0.5000000000000022204, 4.000000000000000000, -8.000000000000000000 ) ) ;
#572 = CARTESIAN_POINT ( 'NONE',  ( -14.50000000000000533, 4.000000000000000000, -1.500000000000000666 ) ) ;
#573 = VECTOR ( 'NONE', #215, 1000.000000000000000 ) ;
#574 = VERTEX_POINT ( 'NONE', #127 ) ;
#575 = CARTESIAN_POINT ( 'NONE',  ( 4.499999999999996447, 4.000000000000000000, -6.000000000000000000 ) ) ;
#576 = PRODUCT_DEFINITION_SHAPE ( 'NONE', 'NONE',  #567 ) ;
#577 = CARTESIAN_POINT ( 'NONE',  ( 2.499999999999998668, 0.000000000000000000, -3.500000000000000444 ) ) ;
#578 = CARTESIAN_POINT ( 'NONE',  ( 4.499999999999996447, -6.000000000000000000, -8.000000000000000000 ) ) ;
#579 = CARTESIAN_POINT ( 'NONE',  ( -4.500000000000002665, 4.000000000000000000, -5.500000000000000888 ) ) ;
#580 = COORDINATED_UNIVERSAL_TIME_OFFSET ( 8, 0, .AHEAD. ) ;
#581 = ORIENTED_EDGE ( 'NONE', *, *, #749, .F. ) ;
#582 = DIRECTION ( 'NONE',  ( -0.000000000000000000, -1.000000000000000000, 0.000000000000000000 ) ) ;
#583 = AXIS2_PLACEMENT_3D ( 'NONE', #322, #476, #387 ) ;
#584 = ORIENTED_EDGE ( 'NONE', *, *, #78, .T. ) ;
#585 = DIRECTION ( 'NONE',  ( 0.000000000000000000, 0.000000000000000000, 1.000000000000000000 ) ) ;
#586 = DIRECTION ( 'NONE',  ( -0.000000000000000000, -1.000000000000000000, -0.000000000000000000 ) ) ;
#587 = ORIENTED_EDGE ( 'NONE', *, *, #244, .F. ) ;
#588 = AXIS2_PLACEMENT_3D ( 'NONE', #294, #559, #361 ) ;
#589 = ORIENTED_EDGE ( 'NONE', *, *, #692, .F. ) ;
#590 = DIRECTION ( 'NONE',  ( 0.000000000000000000, 1.000000000000000000, -0.000000000000000000 ) ) ;
#591 = LOCAL_TIME ( 12, 1, 11.00000000000000000, #580 ) ;
#592 = CARTESIAN_POINT ( 'NONE',  ( 0.000000000000000000, 0.000000000000000000, 8.500000000000000000 ) ) ;
#593 = ORIENTED_EDGE ( 'NONE', *, *, #762, .T. ) ;
#594 = DIRECTION ( 'NONE',  ( 0.000000000000000000, 0.000000000000000000, 1.000000000000000000 ) ) ;
#595 = ADVANCED_FACE ( 'NONE', ( #131, #502, #634, #177, #306 ), #637, .F. ) ;
#596 = ORIENTED_EDGE ( 'NONE', *, *, #650, .F. ) ;
#597 = CARTESIAN_POINT ( 'NONE',  ( -11.00000000000000178, 4.000000000000000000, 4.500000000000000888 ) ) ;
#598 = CARTESIAN_POINT ( 'NONE',  ( -14.50000000000000533, 4.000000000000000000, 6.500000000000000888 ) ) ;
#599 = ORIENTED_EDGE ( 'NONE', *, *, #210, .F. ) ;
#600 = AXIS2_PLACEMENT_3D ( 'NONE', #220, #41, #473 ) ;
#601 = DIRECTION ( 'NONE',  ( 0.000000000000000000, 1.000000000000000000, -0.000000000000000000 ) ) ;
#602 = DIRECTION ( 'NONE',  ( 0.000000000000000000, 0.000000000000000000, 1.000000000000000000 ) ) ;
#603 = FACE_BOUND ( 'NONE', #633, .T. ) ;
#604 = DATE_AND_TIME ( #731, #303 ) ;
#605 = EDGE_CURVE ( 'NONE', #270, #694, #59, .T. ) ;
#606 = LINE ( 'NONE', #274, #643 ) ;
#607 = ORIENTED_EDGE ( 'NONE', *, *, #78, .F. ) ;
#608 = DIRECTION ( 'NONE',  ( 1.000000000000000000, -0.000000000000000000, 0.000000000000000000 ) ) ;
#609 = SHAPE_DEFINITION_REPRESENTATION ( #576, #371 ) ;
#610 = CARTESIAN_POINT ( 'NONE',  ( 2.499999999999998668, 4.000000000000000000, -2.000000000000003553 ) ) ;
#611 = ORIENTED_EDGE ( 'NONE', *, *, #101, .T. ) ;
#612 = DIRECTION ( 'NONE',  ( 0.000000000000000000, 0.000000000000000000, 1.000000000000000000 ) ) ;
#613 = CARTESIAN_POINT ( 'NONE',  ( -4.500000000000002665, 0.000000000000000000, -3.500000000000000444 ) ) ;
#614 = EDGE_LOOP ( 'NONE', ( #379, #469, #267, #754 ) ) ;
#615 = VECTOR ( 'NONE', #582, 1000.000000000000000 ) ;
#616 = EDGE_CURVE ( 'NONE', #197, #71, #155, .T. ) ;
#617 = VECTOR ( 'NONE', #175, 1000.000000000000000 ) ;
#618 = CARTESIAN_POINT ( 'NONE',  ( 0.000000000000000000, 4.000000000000000000, 8.500000000000000000 ) ) ;
#619 = ORIENTED_EDGE ( 'NONE', *, *, #263, .F. ) ;
#620 = DIRECTION ( 'NONE',  ( 0.000000000000000000, 0.000000000000000000, 1.000000000000000000 ) ) ;
#621 = DIRECTION ( 'NONE',  ( 0.000000000000000000, 0.000000000000000000, 1.000000000000000000 ) ) ;
#622 = AXIS2_PLACEMENT_3D ( 'NONE', #124, #304, #73 ) ;
#623 = ORIENTED_EDGE ( 'NONE', *, *, #762, .F. ) ;
#624 = CARTESIAN_POINT ( 'NONE',  ( -2.500000000000002220, 4.000000000000000000, -5.500000000000000888 ) ) ;
#625 = CIRCLE ( 'NONE', #257, 1.000000000000001554 ) ;
#626 = FACE_OUTER_BOUND ( 'NONE', #747, .T. ) ;
#627 = ORIENTED_EDGE ( 'NONE', *, *, #774, .T. ) ;
#628 = DIRECTION ( 'NONE',  ( -0.000000000000000000, -1.000000000000000000, -0.000000000000000000 ) ) ;
#629 = EDGE_CURVE ( 'NONE', #16, #40, #800, .T. ) ;
#630 = EDGE_CURVE ( 'NONE', #719, #443, #678, .T. ) ;
#631 = DIRECTION ( 'NONE',  ( 0.000000000000000000, -1.000000000000000000, 0.000000000000000000 ) ) ;
#632 = AXIS2_PLACEMENT_3D ( 'NONE', #446, #648, #201 ) ;
#633 = EDGE_LOOP ( 'NONE', ( #607, #623 ) ) ;
#634 = FACE_BOUND ( 'NONE', #350, .T. ) ;
#635 = CC_DESIGN_PERSON_AND_ORGANIZATION_ASSIGNMENT ( #38, #284, ( #230 ) ) ;
#636 = ORIENTED_EDGE ( 'NONE', *, *, #681, .T. ) ;
#637 = PLANE ( 'NONE',  #768 ) ;
#638 = EDGE_CURVE ( 'NONE', #233, #146, #465, .T. ) ;
#639 = DIRECTION ( 'NONE',  ( -0.000000000000000000, -1.000000000000000000, -0.000000000000000000 ) ) ;
#640 = FACE_OUTER_BOUND ( 'NONE', #72, .T. ) ;
#641 = DIRECTION ( 'NONE',  ( 0.000000000000000000, 0.000000000000000000, 1.000000000000000000 ) ) ;
#642 = ORIENTED_EDGE ( 'NONE', *, *, #543, .F. ) ;
#643 = VECTOR ( 'NONE', #549, 1000.000000000000000 ) ;
#644 = ORIENTED_EDGE ( 'NONE', *, *, #69, .F. ) ;
#645 = CYLINDRICAL_SURFACE ( 'NONE', #312, 1.500000000000000444 ) ;
#646 = VERTEX_POINT ( 'NONE', #506 ) ;
#647 = FACE_OUTER_BOUND ( 'NONE', #791, .T. ) ;
#648 = DIRECTION ( 'NONE',  ( -0.000000000000000000, -1.000000000000000000, 0.000000000000000000 ) ) ;
#649 = CARTESIAN_POINT ( 'NONE',  ( -11.00000000000000178, 4.000000000000000000, 5.500000000000000888 ) ) ;
#650 = EDGE_CURVE ( 'NONE', #466, #682, #290, .T. ) ;
#651 = AXIS2_PLACEMENT_3D ( 'NONE', #184, #806, #68 ) ;
#652 = DIRECTION ( 'NONE',  ( -0.000000000000000000, -1.000000000000000000, -0.000000000000000000 ) ) ;
#653 = CYLINDRICAL_SURFACE ( 'NONE', #534, 2.000000000000000000 ) ;
#654 = CARTESIAN_POINT ( 'NONE',  ( -11.00000000000000178, 0.000000000000000000, 5.500000000000000888 ) ) ;
#655 = LINE ( 'NONE', #218, #362 ) ;
#656 = EDGE_LOOP ( 'NONE', ( #176, #313, #293, #527 ) ) ;
#657 = DIRECTION ( 'NONE',  ( 0.000000000000000000, 1.000000000000000000, -0.000000000000000000 ) ) ;
#658 = AXIS2_PLACEMENT_3D ( 'NONE', #577, #551, #594 ) ;
#659 = DATE_TIME_ROLE ( 'creation_date' ) ;
#660 = CARTESIAN_POINT ( 'NONE',  ( 2.499999999999998668, 4.000000000000000000, -3.500000000000000444 ) ) ;
#661 = ORIENTED_EDGE ( 'NONE', *, *, #113, .F. ) ;
#662 = CARTESIAN_POINT ( 'NONE',  ( 2.499999999999998668, 0.000000000000000000, -3.500000000000000444 ) ) ;
#663 = PERSON_AND_ORGANIZATION_ROLE ( 'classification_officer' ) ;
#664 = LINE ( 'NONE', #39, #727 ) ;
#665 = APPROVAL_PERSON_ORGANIZATION ( #214, #10, #547 ) ;
#666 = ORIENTED_EDGE ( 'NONE', *, *, #90, .F. ) ;
#667 = CARTESIAN_POINT ( 'NONE',  ( 2.499999999999998668, 4.000000000000000000, -3.500000000000000444 ) ) ;
#668 = DIRECTION ( 'NONE',  ( 0.000000000000000000, -1.000000000000000000, 0.000000000000000000 ) ) ;
#669 = ORIENTED_EDGE ( 'NONE', *, *, #670, .F. ) ;
#670 = EDGE_CURVE ( 'NONE', #204, #805, #499, .T. ) ;
#671 = CIRCLE ( 'NONE', #171, 1.499999999999996891 ) ;
#672 = COORDINATED_UNIVERSAL_TIME_OFFSET ( 8, 0, .AHEAD. ) ;
#673 = LINE ( 'NONE', #557, #393 ) ;
#674 = ORIENTED_EDGE ( 'NONE', *, *, #20, .T. ) ;
#675 = CARTESIAN_POINT ( 'NONE',  ( -11.00000000000000178, 4.000000000000000000, -0.4999999999999987232 ) ) ;
#676 = EDGE_LOOP ( 'NONE', ( #115, #130, #117, #493 ) ) ;
#677 = CC_DESIGN_PERSON_AND_ORGANIZATION_ASSIGNMENT ( #169, #42, ( #230 ) ) ;
#678 = LINE ( 'NONE', #756, #329 ) ;
#679 = DIRECTION ( 'NONE',  ( 0.000000000000000000, 1.000000000000000000, 0.000000000000000000 ) ) ;
#680 = EDGE_CURVE ( 'NONE', #123, #204, #114, .T. ) ;
#681 = EDGE_CURVE ( 'NONE', #421, #646, #486, .T. ) ;
#682 = VERTEX_POINT ( 'NONE', #246 ) ;
#683 = CARTESIAN_POINT ( 'NONE',  ( 4.499999999999996447, 0.000000000000000000, -6.000000000000000000 ) ) ;
#684 = AXIS2_PLACEMENT_3D ( 'NONE', #714, #199, #695 ) ;
#685 = CARTESIAN_POINT ( 'NONE',  ( -12.50000000000000533, 0.000000000000000000, 6.500000000000000888 ) ) ;
#686 = VERTEX_POINT ( 'NONE', #116 ) ;
#687 = CARTESIAN_POINT ( 'NONE',  ( 0.000000000000000000, 0.000000000000000000, 0.000000000000000000 ) ) ;
#688 = CIRCLE ( 'NONE', #186, 1.000000000000000000 ) ;
#689 = SECURITY_CLASSIFICATION ( '', '', #485 ) ;
#690 = EDGE_LOOP ( 'NONE', ( #789, #424, #619, #236 ) ) ;
#691 = CARTESIAN_POINT ( 'NONE',  ( -12.50000000000000533, 4.000000000000000000, -3.500000000000000444 ) ) ;
#692 = EDGE_CURVE ( 'NONE', #805, #443, #54, .T. ) ;
#693 = DIRECTION ( 'NONE',  ( 0.000000000000000000, 0.000000000000000000, 1.000000000000000000 ) ) ;
#694 = VERTEX_POINT ( 'NONE', #188 ) ;
#695 = DIRECTION ( 'NONE',  ( -1.020425574104004122E-16, 0.000000000000000000, 1.000000000000000000 ) ) ;
#696 = CIRCLE ( 'NONE', #528, 1.000000000000001554 ) ;
#697 = ORIENTED_EDGE ( 'NONE', *, *, #45, .T. ) ;
#698 = PERSON_AND_ORGANIZATION ( #52, #736 ) ;
#699 = ORIENTED_EDGE ( 'NONE', *, *, #509, .F. ) ;
#700 = FACE_OUTER_BOUND ( 'NONE', #614, .T. ) ;
#701 = ORIENTED_EDGE ( 'NONE', *, *, #210, .T. ) ;
#702 = UNCERTAINTY_MEASURE_WITH_UNIT (LENGTH_MEASURE( 1.000000000000000082E-05 ), #137, 'distance_accuracy_value', 'NONE');
#703 = CARTESIAN_POINT ( 'NONE',  ( 2.499999999999998668, 4.000000000000000000, 2.999999999999998668 ) ) ;
#704 = CIRCLE ( 'NONE', #342, 2.000000000000000000 ) ;
#705 = PERSON_AND_ORGANIZATION_ROLE ( 'creator' ) ;
#706 = DIRECTION ( 'NONE',  ( 1.000000000000000000, -0.000000000000000000, 0.000000000000000000 ) ) ;
#707 = EDGE_CURVE ( 'NONE', #71, #466, #744, .T. ) ;
#708 = ORIENTED_EDGE ( 'NONE', *, *, #336, .F. ) ;
#709 = PLANE ( 'NONE',  #809 ) ;
#710 = EDGE_CURVE ( 'NONE', #574, #163, #249, .T. ) ;
#711 = EDGE_CURVE ( 'NONE', #163, #574, #720, .T. ) ;
#712 = DIRECTION ( 'NONE',  ( 0.000000000000000000, 0.000000000000000000, -1.000000000000000000 ) ) ;
#713 = ORIENTED_EDGE ( 'NONE', *, *, #3, .F. ) ;
#714 = CARTESIAN_POINT ( 'NONE',  ( -14.50000000000000533, 4.000000000000000000, -1.479617082450806538E-15 ) ) ;
#715 = CC_DESIGN_PERSON_AND_ORGANIZATION_ASSIGNMENT ( #217, #663, ( #689 ) ) ;
#716 = AXIS2_PLACEMENT_3D ( 'NONE', #77, #88, #30 ) ;
#717 = LINE ( 'NONE', #135, #491 ) ;
#718 = FACE_OUTER_BOUND ( 'NONE', #447, .T. ) ;
#719 = VERTEX_POINT ( 'NONE', #624 ) ;
#720 = CIRCLE ( 'NONE', #588, 1.500000000000000444 ) ;
#721 = CARTESIAN_POINT ( 'NONE',  ( -11.00000000000000178, 4.000000000000000000, -1.500000000000000222 ) ) ;
#722 = EDGE_LOOP ( 'NONE', ( #415, #79, #697, #724 ) ) ;
#723 = CARTESIAN_POINT ( 'NONE',  ( -11.00000000000000178, 4.000000000000000000, 5.500000000000000888 ) ) ;
#724 = ORIENTED_EDGE ( 'NONE', *, *, #480, .T. ) ;
#725 = DIRECTION ( 'NONE',  ( 0.000000000000000000, 1.000000000000000000, -0.000000000000000000 ) ) ;
#726 = DIRECTION ( 'NONE',  ( -0.000000000000000000, -1.000000000000000000, -0.000000000000000000 ) ) ;
#727 = VECTOR ( 'NONE', #726, 1000.000000000000000 ) ;
#728 = ORIENTED_EDGE ( 'NONE', *, *, #774, .F. ) ;
#729 = FACE_OUTER_BOUND ( 'NONE', #302, .T. ) ;
#730 = VECTOR ( 'NONE', #523, 1000.000000000000000 ) ;
#731 = CALENDAR_DATE ( 2026, 8, 5 ) ;
#732 = CARTESIAN_POINT ( 'NONE',  ( 6.499999999999999112, -6.000000000000000000, 6.500000000000000888 ) ) ;
#733 = EDGE_LOOP ( 'NONE', ( #296, #433, #187, #109 ) ) ;
#734 = DIRECTION ( 'NONE',  ( 0.000000000000000000, 0.000000000000000000, 1.000000000000000000 ) ) ;
#735 = CARTESIAN_POINT ( 'NONE',  ( -11.00000000000000178, 4.000000000000000000, 6.500000000000000888 ) ) ;
#736 = ORGANIZATION ( 'æœª', 'æœª', '' ) ;
#737 = ORIENTED_EDGE ( 'NONE', *, *, #605, .T. ) ;
#738 = CYLINDRICAL_SURFACE ( 'NONE', #771, 1.000000000000001554 ) ;
#739 = DIRECTION ( 'NONE',  ( 0.000000000000000000, 0.000000000000000000, -1.000000000000000000 ) ) ;
#740 = CC_DESIGN_PERSON_AND_ORGANIZATION_ASSIGNMENT ( #698, #76, ( #375 ) ) ;
#741 = VERTEX_POINT ( 'NONE', #63 ) ;
#742 = MANIFOLD_SOLID_BREP ( '\X2\570689d2\X0\1', #269 ) ;
#743 = CIRCLE ( 'NONE', #208, 1.500000000000000444 ) ;
#744 = LINE ( 'NONE', #691, #617 ) ;
#745 = ORIENTED_EDGE ( 'NONE', *, *, #326, .F. ) ;
#746 = CIRCLE ( 'NONE', #49, 1.500000000000000444 ) ;
#747 = EDGE_LOOP ( 'NONE', ( #708, #449, #507, #599 ) ) ;
#748 = DIRECTION ( 'NONE',  ( 0.000000000000000000, 1.000000000000000000, -0.000000000000000000 ) ) ;
#749 = EDGE_CURVE ( 'NONE', #429, #755, #688, .T. ) ;
#750 = EDGE_CURVE ( 'NONE', #421, #757, #394, .T. ) ;
#751 = CARTESIAN_POINT ( 'NONE',  ( -0.5000000000000022204, 0.000000000000000000, -6.000000000000000000 ) ) ;
#752 = CARTESIAN_POINT ( 'NONE',  ( -11.00000000000000178, 4.000000000000000000, -1.500000000000000222 ) ) ;
#753 = AXIS2_PLACEMENT_3D ( 'NONE', #723, #628, #178 ) ;
#754 = ORIENTED_EDGE ( 'NONE', *, *, #461, .T. ) ;
#755 = VERTEX_POINT ( 'NONE', #597 ) ;
#756 = CARTESIAN_POINT ( 'NONE',  ( -2.500000000000002220, 4.000000000000000000, 0.000000000000000000 ) ) ;
#757 = VERTEX_POINT ( 'NONE', #384 ) ;
#758 = DIRECTION ( 'NONE',  ( -0.000000000000000000, -1.000000000000000000, 0.000000000000000000 ) ) ;
#759 = VERTEX_POINT ( 'NONE', #80 ) ;
#760 = EDGE_LOOP ( 'NONE', ( #426, #368, #437, #219 ) ) ;
#761 = DIRECTION ( 'NONE',  ( 0.000000000000000000, 0.000000000000000000, 1.000000000000000000 ) ) ;
#762 = EDGE_CURVE ( 'NONE', #550, #402, #356, .T. ) ;
#763 = VECTOR ( 'NONE', #311, 1000.000000000000000 ) ;
#764 = CARTESIAN_POINT ( 'NONE',  ( -14.50000000000000533, 0.000000000000000000, 6.500000000000000888 ) ) ;
#765 = EDGE_LOOP ( 'NONE', ( #64, #374, #200, #125 ) ) ;
#766 = CARTESIAN_POINT ( 'NONE',  ( -11.00000000000000178, 4.000000000000000000, -0.4999999999999987232 ) ) ;
#767 = DIRECTION ( 'NONE',  ( -1.000000000000000000, 0.000000000000000000, 0.000000000000000000 ) ) ;
#768 = AXIS2_PLACEMENT_3D ( 'NONE', #687, #119, #425 ) ;
#769 = CARTESIAN_POINT ( 'NONE',  ( -11.00000000000000178, 0.000000000000000000, -0.4999999999999987232 ) ) ;
#770 = DIRECTION ( 'NONE',  ( 0.000000000000000000, -1.000000000000000000, 0.000000000000000000 ) ) ;
#771 = AXIS2_PLACEMENT_3D ( 'NONE', #61, #55, #484 ) ;
#772 = PERSON_AND_ORGANIZATION ( #52, #736 ) ;
#773 = DIRECTION ( 'NONE',  ( 0.000000000000000000, 0.000000000000000000, -1.000000000000000000 ) ) ;
#774 = EDGE_CURVE ( 'NONE', #443, #123, #254, .T. ) ;
#775 = EDGE_CURVE ( 'NONE', #75, #741, #416, .T. ) ;
#776 = EDGE_CURVE ( 'NONE', #805, #646, #717, .T. ) ;
#777 = LOCAL_TIME ( 12, 1, 11.00000000000000000, #277 ) ;
#778 = DIRECTION ( 'NONE',  ( 2.040851148208008245E-16, 0.000000000000000000, 1.000000000000000000 ) ) ;
#779 = CARTESIAN_POINT ( 'NONE',  ( -11.00000000000000178, 0.000000000000000000, 0.5000000000000027756 ) ) ;
#780 = ORIENTED_EDGE ( 'NONE', *, *, #336, .T. ) ;
#781 = FACE_OUTER_BOUND ( 'NONE', #392, .T. ) ;
#782 = CARTESIAN_POINT ( 'NONE',  ( 6.499999999999997335, 4.000000000000000000, -1.326553246335204706E-15 ) ) ;
#783 = CYLINDRICAL_SURFACE ( 'NONE', #33, 2.000000000000000000 ) ;
#784 = VERTEX_POINT ( 'NONE', #321 ) ;
#785 = VECTOR ( 'NONE', #266, 1000.000000000000000 ) ;
#786 = LINE ( 'NONE', #598, #573 ) ;
#787 = EDGE_CURVE ( 'NONE', #405, #784, #704, .T. ) ;
#788 = LINE ( 'NONE', #721, #348 ) ;
#789 = ORIENTED_EDGE ( 'NONE', *, *, #776, .T. ) ;
#790 = DIRECTION ( 'NONE',  ( 1.000000000000000000, -0.000000000000000000, 0.000000000000000000 ) ) ;
#791 = EDGE_LOOP ( 'NONE', ( #642, #335, #661, #478 ) ) ;
#792 = CARTESIAN_POINT ( 'NONE',  ( -14.50000000000000533, 4.000000000000000000, -1.479617082450806538E-15 ) ) ;
#793 = CARTESIAN_POINT ( 'NONE',  ( -11.00000000000000178, 0.000000000000000000, -0.4999999999999987232 ) ) ;
#794 = CIRCLE ( 'NONE', #431, 1.000000000000001554 ) ;
#795 = ORIENTED_EDGE ( 'NONE', *, *, #630, .F. ) ;
#796 = DIRECTION ( 'NONE',  ( -0.000000000000000000, 1.000000000000000000, -0.000000000000000000 ) ) ;
#797 = AXIS2_PLACEMENT_3D ( 'NONE', #766, #134, #319 ) ;
#798 = LINE ( 'NONE', #732, #318 ) ;
#799 = EDGE_LOOP ( 'NONE', ( #189, #558 ) ) ;
#800 = CIRCLE ( 'NONE', #229, 1.000000000000000000 ) ;
#801 = ADVANCED_FACE ( 'NONE', ( #455 ), #709, .T. ) ;
#802 = DIRECTION ( 'NONE',  ( 0.000000000000000000, 0.000000000000000000, -1.000000000000000000 ) ) ;
#803 = ORIENTED_EDGE ( 'NONE', *, *, #101, .F. ) ;
#804 = FACE_OUTER_BOUND ( 'NONE', #733, .T. ) ;
#805 = VERTEX_POINT ( 'NONE', #331 ) ;
#806 = DIRECTION ( 'NONE',  ( 0.000000000000000000, 1.000000000000000000, -0.000000000000000000 ) ) ;
#807 = CARTESIAN_POINT ( 'NONE',  ( -4.500000000000002665, 0.000000000000000000, -5.500000000000000888 ) ) ;
#808 = CARTESIAN_POINT ( 'NONE',  ( -11.00000000000000178, 4.000000000000000000, 5.500000000000000888 ) ) ;
#809 = AXIS2_PLACEMENT_3D ( 'NONE', #260, #767, #389 ) ;
ENDSEC;
END-ISO-10303-21;
